<?xml version="1.0" encoding="utf-8"?>
<svg version="1.1" id="Layer_1"
xmlns="http://www.w3.org/2000/svg"
xmlns:xlink="http://www.w3.org/1999/xlink"
xmlns:author="http://www.sothink.com"
width="476px" height="200px"
xml:space="preserve">
<g id="1136" transform="matrix(1, 0, 0, 1, -405, -444)">
<path style="fill:#000000;fill-opacity:1" d="M711,572L583 572L583 444L711 444L711 572" />
<path style="fill:#000000;fill-opacity:1" d="M677,644L613 644L613 580L677 580L677 644" />
<path style="fill:#000000;fill-opacity:1" d="M881,572L753 572L753 444L881 444L881 572" />
<path style="fill:#000000;fill-opacity:1" d="M785,580L849 580L849 644L785 644L785 580" />
<path style="fill:#000000;fill-opacity:1" d="M533,572L405 572L405 444L533 444L533 572" />
<path style="fill:#000000;fill-opacity:1" d="M439,578L503 578L503 642L439 642L439 578" />
</g>
</svg>
