<?xml version="1.0" encoding="utf-8"?>
<svg version="1.1" id="Layer_1"
xmlns="http://www.w3.org/2000/svg"
xmlns:xlink="http://www.w3.org/1999/xlink"
xmlns:author="http://www.sothink.com"
width="169px" height="33px"
xml:space="preserve">
<g id="682" transform="matrix(1, 0, 0, 1, -8.35, -4.25)">
<path style="fill:none;stroke-width:1.5;stroke-linecap:round;stroke-linejoin:round;stroke-miterlimit:3;stroke:#666666;stroke-opacity:0.8" d="M9.1,19.85Q11.2 11.7 15.05 7.6Q22.75 -0.55 31.5 19.85Q40.45 40.7 47.1 34.5Q50.3 31.5 53.5 19.85Q56.25 9.8 60.9 6.25Q68.2 0.7 75.25 19.85Q82.3 39 90.65 33.35Q95.8 29.9 99.5 19.85Q103.2 9.85 106.95 7.3Q114.3 2.3 123.25 19.85Q132.2 37.4 140.45 32.5Q143.25 30.85 146.1 26.4L149.75 19.85L153.45 13.2Q156.35 8.65 159.15 6.9Q167.45 1.85 176.05 19.85" />
</g>
</svg>
