<?xml version="1.0" encoding="utf-8"?>
<svg version="1.1" id="Layer_1"
xmlns="http://www.w3.org/2000/svg"
xmlns:xlink="http://www.w3.org/1999/xlink"
xmlns:author="http://www.sothink.com"
width="172px" height="8px"
xml:space="preserve">
<g id="679" transform="matrix(1, 0, 0, 1, -7.3, -15.75)">
<path style="fill:none;stroke-width:1.5;stroke-linecap:round;stroke-linejoin:round;stroke-miterlimit:3;stroke:#666666;stroke-opacity:0.298039" d="M8.05,19.6Q11 16.05 13.3 17.1Q13.65 17.25 16 19.75L17.25 21.05Q18.25 21.95 19.2 22.25Q22 23.25 25.05 19.75Q28.1 16.2 30.65 17.2Q31.9 17.75 33.2 19.75Q34.45 21.75 36.2 22.45Q39.05 23.55 41.45 19.75Q43.9 15.9 46.4 17Q47.95 17.7 48.9 19.75Q50 22.05 51.1 22.65Q53.4 23.9 56.4 19.75Q59.4 15.65 62.1 17.3Q63.35 18.1 64.05 19.75Q64.8 21.35 66.05 22.2Q68.75 23.8 71.7 19.75Q74.75 15.55 77.05 16.8Q78.15 17.4 79.2 19.75Q80.15 21.75 81.75 22.45Q84.25 23.55 86.7 19.75Q89.1 15.9 91.95 17.05Q93.7 17.7 94.95 19.75Q96.25 21.75 97.5 22.25Q100.05 23.25 103.05 19.75Q106.15 16.2 108.95 17.2Q109.9 17.55 110.9 18.4L112.15 19.75L113.4 21.05L115.35 22.3Q118.2 23.35 121.2 19.75Q124.1 16.2 126.95 17.2L128.9 18.45L130.2 19.75L131.45 21.1L133.35 22.3Q136.2 23.3 139.25 19.75Q142.3 16.25 144.8 17.25Q146.1 17.75 147.4 19.75Q148.6 21.8 150.4 22.45Q153.25 23.6 155.65 19.75Q158.05 15.95 160.6 17.05Q162.15 17.75 163.1 19.75Q164.2 22.1 165.3 22.7Q167.55 23.95 170.6 19.75Q173.6 15.7 176.25 17.25Q177.55 18 178.25 19.6" />
</g>
</svg>
