<?xml version="1.0" encoding="utf-8"?>
<svg version="1.1" id="Layer_1"
xmlns="http://www.w3.org/2000/svg"
xmlns:xlink="http://www.w3.org/1999/xlink"
xmlns:author="http://www.sothink.com"
width="301px" height="14px"
xml:space="preserve">
<g id="676" transform="matrix(1, 0, 0, 1, 150.1, 0)">
<path style="fill:#DCDCDC;fill-opacity:1" d="M146.9,1.05L148.95 1.05L148.95 3.85L150.8 3.85L150.8 5.35L148.95 5.35L148.95 10.35L148.95 10.9L149.1 11.3L149.4 11.55L149.95 11.6L150.35 11.6L150.8 11.55L150.8 13.15L150.15 13.2L149.45 13.25L148.15 13.1Q147.65 12.95 147.4 12.65L147 11.9L146.9 10.85L146.9 5.35L145.35 5.35L145.35 3.85L146.9 3.85L146.9 1.05M144.1,6.75L144.1 13.15L142.05 13.15L142.05 7.3Q142 6.2 141.6 5.7Q141.15 5.2 140.25 5.2L139.3 5.4L138.6 5.95Q138.3 6.25 138.15 6.7Q138 7.15 138 7.65L138 13.15L135.95 13.15L135.95 3.85L137.85 3.85L137.85 5.2L137.9 5.25Q138.35 4.5 139.15 4.05Q139.9 3.6 140.8 3.6Q142.35 3.6 143.25 4.4Q144.1 5.2 144.1 6.75M132,4.25L131.85 3.2L131.35 2.55L130.65 2.25L129.8 2.15L126.45 2.15L126.45 6.4L129.75 6.4L130.55 6.3L131.25 5.95L131.8 5.3L132 4.25M134.1,3L134.25 4.3L134.1 5.55L133.45 6.85L132.1 7.85L129.9 8.2L126.45 8.2L126.45 13.15L124.2 13.15L124.2 0.3L129.9 0.3L132.1 0.7L133.45 1.7L134.1 3M122.25,8.5Q122.25 9.55 121.9 10.45L121 12L119.55 13.05L117.55 13.4L115.55 13.05L114.1 12L113.15 10.45Q112.85 9.55 112.85 8.5Q112.85 7.45 113.15 6.55Q113.5 5.65 114.1 5Q114.7 4.35 115.55 3.95L117.55 3.6Q118.65 3.6 119.55 3.95Q120.4 4.35 121 5L121.9 6.55Q122.25 7.45 122.25 8.5M117.55,5.2Q116.85 5.2 116.35 5.5Q115.85 5.8 115.55 6.25L115.05 7.3L114.9 8.5L115.05 9.7L115.55 10.75L116.35 11.5L117.55 11.8L118.75 11.5L119.55 10.75L120.05 9.7L120.2 8.5L120.05 7.3Q119.9 6.7 119.55 6.25L118.75 5.5L117.55 5.2M111.7,9.05L104.9 9.05Q104.9 9.55 105.05 10.05Q105.2 10.6 105.5 10.95L106.25 11.55L107.4 11.8Q108.3 11.8 108.85 11.4L109.65 10.25L111.6 10.25L111.05 11.6L110.1 12.6L108.85 13.2L107.4 13.4L105.45 13.05L104 12.05Q103.4 11.4 103.15 10.5Q102.85 9.6 102.85 8.5Q102.85 7.5 103.15 6.65Q103.45 5.75 104.05 5.05L105.45 4L107.35 3.6Q108.4 3.6 109.3 4.05Q110.15 4.5 110.75 5.25L111.6 7Q111.85 8 111.7 9.05M107.35,5.2L106.35 5.4Q105.9 5.6 105.6 5.95L105.1 6.7L104.9 7.65L109.65 7.65L109.45 6.75L109 5.95L108.25 5.4L107.35 5.2M101,4.4L98.8 4.4L98.4 3.3L97.65 2.5L96.65 2L95.5 1.85L93.7 2.25Q92.95 2.65 92.5 3.35Q92 4.05 91.8 4.9Q91.55 5.8 91.55 6.75L91.8 8.55Q92 9.4 92.5 10.1L93.7 11.2L95.5 11.6L97 11.4L98.15 10.7L98.8 9.55L99.1 8.1L95.65 8.1L95.65 6.4L101.15 6.4L101.15 13.15L99.7 13.15L99.35 11.65Q98.45 12.65 97.55 13.05L95.5 13.45L92.9 12.95Q91.75 12.4 90.95 11.5Q90.15 10.55 89.75 9.35Q89.3 8.1 89.3 6.75Q89.3 5.35 89.75 4.15Q90.15 2.9 90.95 2Q91.75 1.05 92.9 0.55Q94.05 0 95.5 0L97.45 0.25Q98.4 0.55 99.15 1.1L100.35 2.5Q100.85 3.3 101 4.4M14.8,9.2L9.6 9.2L9.6 7.3L14.8 7.3L14.8 9.2M5.4,3.1L4.9 2.5L4.15 2.2L3.35 2.15L-0.35 2.15L-0.35 6.15L3.35 6.15Q4.45 6.15 5 5.65Q5.55 5.1 5.55 4.1L5.4 3.1M7.55,5.3L6.9 6.25L6.2 6.8L5.7 7L5.7 7.05L6.3 7.25L6.9 7.7L7.4 8.5L7.6 9.75L7.75 11.8Q7.95 12.75 8.3 13.15L5.9 13.15L5.6 12.25L5.55 11.25L5.45 9.75L5.05 8.7Q4.75 8.25 4.25 8.05L3 7.85L-0.35 7.85L-0.35 13.15L-2.6 13.15L-2.6 0.3L3.55 0.3Q5.7 0.3 6.75 1.2Q7.8 2.15 7.8 3.75L7.55 5.3M-7.8,3.35Q-8.3 2.65 -9.05 2.25L-10.8 1.85L-12.6 2.25L-13.8 3.35Q-14.25 4.05 -14.5 4.9L-14.7 6.75L-14.5 8.55L-13.8 10.1L-12.6 11.2Q-11.85 11.6 -10.8 11.6L-9.05 11.2L-7.8 10.1L-7.15 8.55L-6.9 6.75Q-6.9 5.8 -7.15 4.9Q-7.35 4.05 -7.8 3.35M-6.3,2Q-5.5 2.9 -5.1 4.15Q-4.65 5.35 -4.65 6.75Q-4.65 8.1 -5.1 9.35Q-5.5 10.55 -6.3 11.5Q-7.1 12.4 -8.25 12.95L-10.8 13.45L-13.4 12.95Q-14.55 12.4 -15.35 11.5L-16.55 9.35Q-16.95 8.1 -16.95 6.75Q-16.95 5.35 -16.55 4.15Q-16.1 2.9 -15.35 2Q-14.55 1.05 -13.4 0.55Q-12.25 0 -10.8 0Q-9.35 0 -8.25 0.55Q-7.1 1.05 -6.3 2M-18.35,4.4L-20.6 4.4L-21 3.35L-21.65 2.55L-22.55 2L-23.8 1.85L-25.6 2.25L-26.8 3.35L-27.5 4.9L-27.7 6.75L-27.5 8.55L-26.8 10.1L-25.6 11.2Q-24.85 11.6 -23.8 11.6L-22.5 11.35Q-21.9 11.1 -21.5 10.65Q-21.05 10.2 -20.85 9.55L-20.55 8.25L-18.35 8.25Q-18.4 9.4 -18.85 10.35Q-19.25 11.3 -19.95 12Q-20.7 12.7 -21.65 13.1L-23.8 13.45L-26.4 12.95L-28.35 11.5L-29.55 9.35Q-29.95 8.1 -29.95 6.75Q-29.95 5.35 -29.55 4.15Q-29.1 2.9 -28.35 2Q-27.55 1.05 -26.4 0.55Q-25.25 0 -23.8 0L-21.75 0.3Q-20.8 0.6 -20.1 1.15Q-19.35 1.7 -18.9 2.55Q-18.45 3.35 -18.35 4.4M-31.4,3Q-31.25 3.7 -31.25 4.3L-31.4 5.55L-32.05 6.85Q-32.5 7.45 -33.4 7.85L-35.6 8.2L-39.05 8.2L-39.05 13.15L-41.3 13.15L-41.3 0.3L-35.6 0.3L-33.4 0.7Q-32.5 1.1 -32.05 1.7L-31.4 3M-34.85,2.25L-35.7 2.15L-39.05 2.15L-39.05 6.4L-35.75 6.4L-34.95 6.3L-34.25 5.95L-33.7 5.3L-33.5 4.25Q-33.5 3.65 -33.65 3.2Q-33.85 2.8 -34.15 2.55Q-34.45 2.3 -34.85 2.25M-114.8,2.25L-121.85 2.25L-121.85 5.6L-115.35 5.6L-115.35 7.45L-121.85 7.45L-121.85 11.2L-114.7 11.2L-114.7 13.15L-124.1 13.15L-124.1 0.3L-114.8 0.3L-114.8 2.25M-129.15,3.45Q-129.65 2.85 -130.45 2.5L-132.6 2.15L-134.85 2.15L-134.85 11.3L-132.6 11.3L-130.45 10.95L-129.15 10L-128.5 8.55L-128.35 6.75Q-128.35 5.75 -128.5 4.9Q-128.7 4.1 -129.15 3.45M-127.45,2.2Q-126.75 3.05 -126.4 4.2Q-126.1 5.4 -126.1 6.75Q-126.1 8.05 -126.4 9.25Q-126.75 10.4 -127.45 11.25Q-128.1 12.15 -129.2 12.65Q-130.3 13.15 -131.75 13.15L-137.1 13.15L-137.1 0.3L-131.75 0.3Q-130.3 0.3 -129.2 0.8Q-128.1 1.3 -127.45 2.2M-139.4,4.2Q-139.1 5.4 -139.1 6.75Q-139.1 8.05 -139.4 9.25Q-139.75 10.4 -140.45 11.25Q-141.1 12.15 -142.2 12.65Q-143.3 13.15 -144.75 13.15L-150.1 13.15L-150.1 0.3L-144.75 0.3Q-143.3 0.3 -142.2 0.8Q-141.1 1.3 -140.45 2.2Q-139.75 3.05 -139.4 4.2M-141.35,6.75Q-141.35 5.75 -141.5 4.9Q-141.7 4.1 -142.15 3.45Q-142.65 2.85 -143.45 2.5Q-144.3 2.15 -145.6 2.15L-147.85 2.15L-147.85 11.3L-145.6 11.3L-143.45 10.95Q-142.65 10.6 -142.15 10L-141.5 8.55Q-141.35 7.7 -141.35 6.75" />
</g>
</svg>
