<?xml version="1.0" encoding="utf-8"?>
<svg version="1.1" id="Layer_1"
xmlns="http://www.w3.org/2000/svg"
xmlns:xlink="http://www.w3.org/1999/xlink"
xmlns:author="http://www.sothink.com"
width="263px" height="200px"
xml:space="preserve">
<g id="668" transform="matrix(1, 0, 0, 1, 131.05, 99.95)">
<path style="fill:#666666;fill-opacity:1" d="M0.9,-98.05L0.9 -47.05L-1 -47.05L-1 -98.05L-6.05 -98.05L-6.05 -99.95L6 -99.95L6 -98.05L0.9 -98.05M8.75,-6.2L2.6 0L8.75 6.15L6.1 8.85L-0.1 2.65L-6.25 8.85L-8.9 6.15L-2.75 0L-8.9 -6.2L-6.25 -8.85L-0.1 -2.65L6.1 -8.85L8.75 -6.2M88.9,-56L88.9 -58L103.95 -58L103.95 -46L101.95 -46L101.95 -56L88.9 -56M128.95,-6L131 -6L131 6L128.95 6L128.95 1L63.9 1L63.9 -1.05L128.95 -1.05L128.95 -6M103.95,46L103.95 57.95L88.95 57.95L88.95 56L101.9 56L101.9 46L103.95 46M5.95,98.05L5.95 99.9L-6.05 99.9L-6.05 98.05L-1 98.05L-1 46.95L0.9 46.95L0.9 98.05L5.95 98.05M-89.05,-58L-89.05 -56.05L-102 -56.05L-102 -46.05L-104.05 -46.05L-104.05 -58L-89.05 -58M-102,46L-102 56L-90.05 56L-90.05 58L-104.05 58L-104.05 46L-102 46" />
<path style="fill:#666666;fill-opacity:1" d="M-129.05,-6.05L-129.05 -1L-63.05 -1L-63.05 1L-129.05 1L-129.05 6L-131.05 6L-131.05 -6.05L-129.05 -6.05" />
</g>
</svg>
