<?xml version="1.0" encoding="utf-8"?>
<svg version="1.1" id="Layer_1"
xmlns="http://www.w3.org/2000/svg"
xmlns:xlink="http://www.w3.org/1999/xlink"
xmlns:author="http://www.sothink.com"
width="172px" height="8px"
xml:space="preserve">
<g id="680" transform="matrix(1, 0, 0, 1, -7.3, -15.75)">
<path style="fill:none;stroke-width:1.5;stroke-linecap:round;stroke-linejoin:round;stroke-miterlimit:3;stroke:#666666;stroke-opacity:0.298039" d="M8.05,19.85Q11 23.5 13.3 22.4L16 19.8L17.25 18.45Q18.25 17.6 19.2 17.25Q22 16.25 25.05 19.8Q28.1 23.25 30.65 22.25Q31.9 21.8 33.2 19.8Q34.45 17.75 36.2 17.1Q39.05 15.95 41.45 19.8Q43.9 23.6 46.4 22.5Q47.95 21.75 48.9 19.8Q50 17.45 51.1 16.85Q53.4 15.6 56.4 19.8Q59.4 23.85 62.1 22.25Q63.35 21.4 64.05 19.8Q64.8 18.15 66.05 17.35Q68.75 15.7 71.7 19.8Q74.75 23.95 77.05 22.7Q78.15 22.1 79.2 19.8Q80.15 17.75 81.75 17.05Q84.25 15.95 86.7 19.8Q89.1 23.6 91.95 22.5Q93.7 21.75 94.95 19.8Q96.25 17.8 97.5 17.25Q100.05 16.25 103.05 19.8Q106.15 23.25 108.95 22.3Q109.9 22 110.9 21.05L112.15 19.8L113.4 18.45Q114.4 17.5 115.35 17.15Q118.2 16.2 121.2 19.8Q124.1 23.35 126.95 22.35L128.9 21.05L130.2 19.7L131.45 18.45Q132.4 17.5 133.35 17.2Q136.2 16.25 139.25 19.7Q142.3 23.25 144.8 22.25Q146.1 21.7 147.4 19.7Q148.6 17.75 150.4 17Q153.25 15.9 155.65 19.7Q158.05 23.55 160.6 22.45Q162.15 21.75 163.1 19.7Q164.2 17.4 165.3 16.8Q167.55 15.55 170.6 19.7Q173.6 23.8 176.25 22.25Q177.55 21.45 178.25 19.85" />
</g>
</svg>
