<?xml version="1.0" encoding="utf-8"?>
<svg version="1.1" id="Layer_1"
xmlns="http://www.w3.org/2000/svg"
xmlns:xlink="http://www.w3.org/1999/xlink"
xmlns:author="http://www.sothink.com"
width="169px" height="10px"
xml:space="preserve">
<g id="681" transform="matrix(1, 0, 0, 1, -8.3, -15.8)">
<path style="fill:none;stroke-width:1.5;stroke-linecap:round;stroke-linejoin:round;stroke-miterlimit:3;stroke:#666666;stroke-opacity:0.6" d="M176,20.6Q173.9 22.6 170.05 23.65Q162.35 25.7 153.6 20.6Q144.65 15.35 138 16.9Q134.8 17.65 131.6 20.6Q128.85 23.1 124.2 24Q116.9 25.35 109.85 20.6Q102.8 15.8 94.45 17.2Q89.3 18.05 85.6 20.6Q81.9 23.1 78.15 23.7Q70.8 24.95 61.85 20.6Q52.9 16.2 44.65 17.4Q41.85 17.85 39 18.95Q38.65 19.1 35.35 20.6L31.65 22.25Q28.75 23.4 25.95 23.8Q17.65 25.1 9.05 20.6" />
</g>
</svg>
