<?xml version="1.0" encoding="utf-8"?>
<svg version="1.1" id="Layer_1"
xmlns="http://www.w3.org/2000/svg"
xmlns:xlink="http://www.w3.org/1999/xlink"
xmlns:author="http://www.sothink.com"
width="63px" height="64px"
xml:space="preserve">
<g id="2438" transform="matrix(1, 0, 0, 1, 31.3, 31.7)">
<path style="fill:#666666;fill-opacity:1" d="M10.35,-21.3Q10.35 -16.65 8.1 -13.8Q5.7 -10.75 1 -10.1L1 -10Q3.2 -9.5 4.2 -7.85Q5.15 -6.25 5.15 -3.3L5 4.15Q5 7.2 6.25 9.35L7.75 9.35L15.65 -4.05L17.8 9.45L31.3 9.45L19.1 17.95L21.1 31.4L10.5 23.3L-3.65 31.7L2.95 17.45L-4.75 9.35Q-5.45 8.35 -5.45 6.1Q-5.15 1.9 -5.15 -0.8Q-5.15 -6.2 -10.45 -6.2L-17.55 -6.2L-20.65 8.4L-31.3 8.4L-22.8 -31.7L-2.75 -31.7Q3.55 -31.7 6.6 -29.7Q10.35 -27.25 10.35 -21.3M-0.1,-19.2Q-0.1 -23.35 -5.85 -23.35L-13.75 -23.35L-15.75 -13.7L-7.3 -13.7Q-0.1 -13.7 -0.1 -19.2M8.85,11.3L-0.2 11.3L5.3 17.1L0.8 26.8Q5.75 23.9 10.65 20.95L18.45 26.9L17 17.05L25.05 11.4L16.1 11.4L14.55 1.65L8.85 11.3" />
</g>
</svg>
