<?xml version="1.0" encoding="utf-8"?>
<svg version="1.1" id="Layer_1"
xmlns="http://www.w3.org/2000/svg"
xmlns:xlink="http://www.w3.org/1999/xlink"
xmlns:author="http://www.sothink.com"
width="1764px" height="829px"
xml:space="preserve">
<g id="317" transform="matrix(1, 0, 0, 1, 491.5, -821)">
<path style="fill:#B5B9C0;fill-opacity:1" d="M737.95,1227.7L622.6 1231.7L621.05 1240L542.45 1235.75L489 1238.95L488 1168.3L535.55 1168.3L617.8 1163.05L628.25 1167.7L728.95 1163.7L737.95 1227.7M541.45,1199L512.95 1199.7L512.95 1205.45L542.35 1203.7L541.45 1199" />
<path style="fill:#B5B9C0;fill-opacity:1" d="M207.35,1153.05L252.05 1165.25L368.95 1167.45L368.35 1239.95L203.45 1239.95L197.45 1152.05L207.35 1153.05" />
<path style="fill:#B5B9C0;fill-opacity:1" d="M89.95,1172.75L95.6 1243.75L38.05 1249.1L31.65 1176.75L89.95 1172.75" />
<path style="fill:#B5B9C0;fill-opacity:1" d="M190.7,1221.7L197.25 1242.7L168.35 1251.75L147.1 1260.75L132.75 1269.35L116.25 1275.1L101.85 1277.5L98.25 1255.8L110.8 1253.7L123.4 1249.3L137.1 1241.1L160.75 1231.05L190.7 1221.7" />
<path style="fill:#B5B9C0;fill-opacity:1" d="M17.05,1270.75L-64.25 1263.95L-64.25 1264L-95.2 1261.6L-157.4 1250.15L-153.4 1228.55L-123 1234.1L-125.15 1173.8L-82.75 1165.3L-65.55 1196.5L-21.05 1200.5L18.9 1248.85L17.05 1270.75" />
<path style="fill:#B5B9C0;fill-opacity:1" d="M777.05,1228.3L773.15 1210.75L785.25 1208.05L816 1206.55L816.9 1224.5L787.65 1225.95L777.05 1228.3" />
<path style="fill:#B5B9C0;fill-opacity:1" d="M815.55,1179.85L775.75 1181.05L767.95 1179.3L771.9 1161.75L777.45 1163L815 1161.85L815.55 1179.85" />
<path style="fill:#B5B9C0;fill-opacity:1" d="M-374.6,1036.1L-368.85 1065.2L-369.85 1106.45L-364.3 1131.6L-357.45 1145.9L-374.6 1154.1L-382.4 1137.8L-386.15 1120.7L-386.25 1192.8L-381.75 1191.35L-364.5 1191.35L-364.5 1209.35L-378.9 1209.35L-386.25 1211.75L-386.25 1215.1L-379.1 1217.5L-368.05 1218.7L-363 1218.7L-363 1236.7L-369 1236.7L-382.95 1235.2L-386.3 1234.1L-386.4 1327.85L-383.35 1311.2L-378.7 1294L-371.25 1278.35L-362.25 1265.4L-350.5 1253.7L-333.5 1243.55L-321.7 1239.5L-308.4 1235.9L-298.65 1234.9L-299.25 1174.8L-275.9 1176.55L-248 1177.55L-247.8 1232.35L-239.6 1231.85L-238.75 1249.85L-285.6 1251.15L-295.25 1252.65L-305.1 1253.65L-316.65 1256.8L-325.9 1259.95L-339.35 1268L-348.4 1277L-355.65 1287.4L-361.75 1300.3L-365.55 1314.25L-366.45 1326.05L-371.8 1325.65L-374.05 1338.9L-375.65 1358.15L-386.45 1384.55L-386.4 1454.2L-388.55 1484.25L-392.75 1511.95L-396.7 1528.2L-387.5 1503.85L-380.65 1480.55L-367.25 1484.45L-374.3 1508.55L-386.95 1541.95L-397.9 1569.3L-410.25 1585.15L-429.6 1604.5L-431.35 1607.55L-446.1 1627.6L-460.45 1645.6L-487.25 1623.05L-475.35 1608.15L-464.55 1582.8L-450.95 1544.1L-450.05 1530.55L-451.5 1511.55L-437.55 1510.5L-436 1530.5L-436.45 1536.95L-432.05 1525.5L-426.95 1504.45L-423.25 1479.7L-421.8 1460.5L-422.05 1460.55L-433.3 1389.1L-434.05 1364.35L-441.15 1323.55L-443.9 1304.35L-457.05 1303.6L-455.15 1271.2L-450.85 1251.5L-440.25 1230.35L-424.45 1213.65L-428.1 1210.75L-442.35 1192.75L-450 1170.55L-449.95 1150.1L-441.55 1067.15L-432.35 1039.05L-432.35 992.8L-421 960.7L-420.85 867L-385.85 867.05L-385.95 958.65L-374.6 993L-374.6 1036.1M-423.85,1070.9L-432 1151.5L-432 1167.5L-426.35 1183.95L-421.25 1190.45L-421.1 1062.5L-423.85 1070.9M-427.8,1261.9L-430.35 1277.9L-430.35 1300.35L-427.3 1321.45L-421.4 1355.3L-421.3 1244.65L-421.6 1245.25L-427.8 1261.9" />
<path style="fill:#B5B9C0;fill-opacity:1" d="M983.3,1119.4L996.95 1104.8L1009.35 1087.35L1016.95 1066L1019.45 1079L1035.9 1053.25L1037.8 1074.35L1040.35 1092.25L1044.6 1116.35L1055 1139.65L1056.5 1137.15L1065.6 1118.9L1070.9 1099L1070.8 1089.35L1086.8 1089.15L1086.95 1101L1080.6 1124.6L1070.35 1145.15L1066.1 1152.2L1079.55 1165.9L1096.45 1165.3L1108.1 1156.85L1122.65 1149.85L1147.4 1145.6L1150.3 1162.3L1175.1 1160.2L1195.6 1155.95L1203.7 1153L1197.8 1137.05L1236.5 1122.8L1260.05 1186.6L1221.35 1200.85L1215.45 1184.9L1204.9 1188.75L1180.05 1193.85L1148.7 1196.45L1149.65 1196.6L1147.2 1214.45L1128.45 1211.85L1100.4 1203.2L1095.05 1199.4L1083.65 1199.8L1082.3 1200.9L1067.35 1218.2L1077.9 1231.2L1084.85 1243.7L1090.15 1261.55L1092.95 1276.4L1075.25 1279.7L1072.55 1265.3L1068.15 1250.7L1062.95 1241.3L1057.2 1234.3L1051.8 1245.6L1044.8 1271.75L1034.85 1268.15L1037.9 1259.75L1029.95 1257.65L1034.85 1239.35L1043.75 1220.8L1044.4 1219.8L1030.35 1205.8L1025.1 1201.85L1017.1 1202.1L1011.3 1206.4L996.05 1215.1L976.75 1220.35L981.3 1226.1L995.4 1236.5L1008.3 1248.9L994.65 1260.75L983.8 1250.3L971.55 1241.3L930.95 1222.5L910.95 1220.5L852.45 1221L853.45 1158.5L917.45 1156L960.95 1136.5L983.3 1119.4M1023.25,1098.85L1010.9 1116.25L995.55 1132.65L976.45 1148L967.2 1153.15L990.8 1159.2L1008.9 1168.4L1034 1167.5L1044.7 1156.05L1040.85 1152.15L1027.25 1121.7L1023.25 1098.85M1058.75,1200.65L1050.9 1200.9L1055 1205L1058.75 1200.65" />
<path style="fill:#DCDCDC;fill-opacity:1" d="M523.3,1177.2L522.15 1185.85L517.9 1194.7L510.15 1202.45L499.45 1206.65L486.05 1207.4L193.05 1207.35L127.85 1211.05L34.1 1218.2L-373.3 1218.15L-379.1 1217.5L-398.7 1211L-399.35 1210.45L-380.6 1210.15L33.8 1210.2L127.35 1203.05L192.95 1199.35L485.95 1199.4L497.75 1198.75L505.7 1195.6L511.3 1190L514.4 1183.55L515.35 1176.15L523.3 1177.2" />
<path style="fill:#272727;fill-opacity:1" d="M1029.85,1201.65L1047.15 1201.05L1053.35 1206.85L1052.8 1207.5L1046.45 1216.85L1032.4 1203.6L1029.85 1201.65" />
<path style="fill:#272727;fill-opacity:1" d="M-427,1232.35L-431.15 1236.75L-440.4 1255.2L-444.2 1272.7L-446.1 1304.25L-451 1320.5L-454.05 1303.8L-452.15 1271.6L-448 1252.5L-437.75 1232.1L-422.05 1215.5L-407.35 1227.05L-405.8 1227.6L-405.8 1364.8L-406.7 1401L-406.4 1455.45L-408.35 1481.6L-412.3 1507.6L-417.7 1529.95L-427.2 1554.75L-436.65 1576.25L-448.15 1596.7L-461.85 1615.25L-475.95 1632.9L-491.5 1641.5L-484.65 1624.65L-472.75 1609.7L-461.75 1583.9L-447.95 1544.7L-447.05 1530.55L-448.5 1511.6L-452.4 1494.5L-451.25 1482.25L-444.6 1492.65L-440.55 1510.7L-439 1530.5L-440.05 1546.35L-450.85 1577L-447.25 1570.65L-438.2 1550.05L-429.2 1526.4L-424 1505.05L-420.25 1480.05L-418.75 1460.05L-419.1 1460.1L-430.3 1388.8L-431.05 1364.05L-438.2 1323.1L-441.35 1300.85L-441.35 1277.05L-438.5 1259.1L-431.5 1240.35L-427 1232.35M-419.3,1234.9L-424.35 1244L-430.7 1261.15L-433.35 1277.7L-433.35 1300.6L-430.3 1321.9L-423.1 1363.25L-422.35 1388.1L-418.7 1411L-417.8 1364.65L-417.8 1232.9L-419.3 1234.9" />
<path style="fill:#272727;fill-opacity:1" d="M1075.5,1166.05L1059.25 1166.6L1057.95 1165.3L1058.7 1164.55L1064.5 1154.85L1075.5 1166.05" />
<path style="fill:#272727;fill-opacity:1" d="M1066.6,1213.8L1056.65 1227.05L1049 1244.45L1043 1266.55L1042.7 1272.35L1030.7 1271.7L1031.1 1264.65L1037.65 1240.45L1046.2 1220.95L1057.35 1206.1L1062.15 1200.55L1078.45 1199.95L1066.6 1213.8" />
<path style="fill:#272727;fill-opacity:1" d="M1262.05,1183.45L1196.3 1207.3L1163.6 1220.6L1144.2 1233.35L1130.4 1244.7L1118.35 1256.4L1104.75 1280.2L1088.25 1304.35L1078.9 1290.5L1078.15 1278.8L1075.45 1264.6L1070.95 1249.55L1065.4 1239.55L1058.8 1231L1059.35 1229.8L1065.8 1220.4L1075.45 1232.95L1082.05 1244.85L1087.2 1262.1L1090.1 1277.65L1090.5 1284L1093.85 1275.05L1108.75 1249L1122.6 1235.6L1137.35 1223.5L1156.2 1211.15L1148.15 1211.55L1129.15 1208.9L1101.75 1200.45L1099.95 1199.2L1114.85 1198.7L1133.85 1197.45L1148.7 1199.5L1177.15 1198.05L1199.15 1193.5L1257.5 1172.3L1271.95 1172.7L1262.05 1183.45M1255.7,1166.65L1220.7 1180.3L1203.9 1185.9L1179.65 1190.9L1155.85 1193L1114.75 1195.7L924.75 1202.1L924.85 1205.35L943.05 1204.7L974.7 1206.4L986.55 1203.2L1013.5 1202.25L1009.9 1204.9L995.3 1213.25L976.5 1218.3L962.15 1218.9L979.65 1228.65L993.5 1238.8L1006 1250.85L996.95 1258.75L985.75 1248L973.15 1238.75L953.95 1228.1L939.6 1221.8L931.85 1219.45L913.05 1218.2L786.3 1223L741.05 1234.35L720.95 1240.7L723.25 1232.35L733.45 1225L625 1229.1L652.65 1240.7L662.95 1246L650.45 1252.8L609.05 1235.45L539.55 1231.6L493.5 1234.95L209.1 1235.85L167.3 1248.9L145.75 1258.05L131.5 1266.65L115.5 1272.15L101.35 1274.5L83.95 1264.7L98.75 1258.75L111.55 1256.6L124.7 1252.05L138.5 1243.8L156.2 1236.3L131.6 1236.9L36.25 1245.15L-51.55 1246L21.95 1252.2L36.6 1261L21.25 1268.2L-94.5 1258.45L-164.45 1245.55L-175.8 1245.5L-255.45 1248.9L-288.65 1249.5L-306.4 1251.35L-317.4 1254.4L-326.95 1257.7L-340.9 1266L-350.3 1275.4L-357.8 1286.15L-364.1 1299.4L-367.2 1310.85L-367.2 1350.5L-370.25 1369L-375.2 1361.5L-375.2 1328.85L-376.9 1341.35L-378.45 1357.2L-389.6 1388.6L-389.35 1455.95L-391.5 1483.8L-395.65 1511.25L-401.45 1535L-411.55 1561.4L-419.05 1578.4L-418.5 1577.85L-407.5 1563.75L-397.15 1537.9L-384.65 1504.8L-377.9 1481.7L-371 1465.25L-370 1483.35L-377.1 1507.5L-389.7 1540.8L-400.5 1567.8L-412.7 1583.35L-432 1602.65L-433.85 1605.95L-448.45 1625.7L-463.25 1644.25L-478.5 1649.75L-471.95 1636L-457.9 1618.35L-443.95 1599.4L-432.25 1578.6L-422.55 1556.7L-412.95 1531.45L-407.4 1508.65L-403.4 1482.25L-401.4 1455.6L-401.5 1229L-389.5 1233L-389.5 1364.45L-386.3 1355.45L-384.85 1340.35L-380.8 1310.85L-380.65 1310.85L-376.35 1294.9L-369.1 1279.6L-360.3 1267L-348.95 1255.65L-332.45 1245.85L-321.05 1241.95L-308.8 1238.5L-289.15 1236.5L-258.55 1235.95L-258.65 1233.55L-365.95 1233.7L-382.25 1232.25L-405.9 1224.4L-425.95 1208.65L-439.7 1191.3L-447 1170.05L-447 1150.45L-438.9 1067.65L-429.35 1041.95L-429.35 994.7L-417.8 961.35L-417.8 837.85L-411.9 821L-405.8 838.1L-405.8 1204.8L-401.5 1203.5L-401.5 837.3L-395.6 823.5L-389.5 838.1L-389.5 959.6L-378.35 994.75L-378.35 1035.15L-372.5 1068.5L-372.5 1106.05L-368.55 1130.9L-361.85 1144.9L-353.3 1156.5L-340.45 1166.9L-323.9 1174.9L-309.15 1177.05L-218.8 1180.65L-146.2 1182L-67.7 1166.15L-67.35 1166.15L-31.4 1171.35L-64.2 1181.9L29.5 1181.15L172.4 1169.6L172.55 1169.6L135.75 1166.95L102.95 1158.5L136.15 1150.95L207.85 1156.05L255.35 1169.15L318.85 1170.95L513 1171.75L610.25 1166.6L648.6 1146.25L659.95 1151.5L651.8 1158.15L627.6 1171L728.35 1167.15L717.95 1159L716.45 1151L734.6 1156.85L776.75 1165.3L914.7 1160.1L941.9 1150.05L968.05 1135.55L985.35 1121.6L999.25 1106.7L1012.05 1088.7L1026.45 1048.5L1033.15 1054.95L1037.35 1092.65L1041.7 1117.25L1053.1 1142.8L1046.55 1153.65L1043.4 1150.45L1030.15 1120.8L1025.45 1094.2L1024.85 1088.6L1022.8 1094.3L1008.6 1114.35L993.5 1130.45L974.8 1145.5L958 1154.85L962.5 1155.05L989.7 1162.05L1002.7 1168.6L971.3 1169.7L960.7 1167L923.65 1171.35L923.75 1174.15L1113.55 1167.7L1153.85 1165.05L1175.55 1163.15L1196.6 1158.8L1211.5 1153.85L1246.25 1140.3L1263.25 1149L1255.7 1166.65M1068.65,1144.1L1057.1 1163.35L1053.8 1166.8L1036.85 1167.4L1047.45 1156.05L1058.25 1138.15L1067.45 1119.65L1072.9 1099.25L1072.7 1081.35L1084.65 1079.7L1084.95 1100.75L1078.75 1123.9L1068.65 1144.1M1238,1125.35L1252.95 1126.7L1241.4 1136.5L1204.5 1151.25L1179.4 1156.15L1147.1 1160.8L1131.7 1163.5L1101.8 1165.1L1109.65 1159.45L1123.6 1152.75L1151.05 1148.1L1151.05 1147.95L1189.6 1141L1204.25 1137.7L1238 1125.35M618.25,1200.3L578.55 1196.5L318.3 1195.95L212.2 1192.95L173.6 1194.55L30.65 1206.15L-125.2 1207.4L-186.95 1206.25L-377.85 1206.45L-389.5 1209.7L-389.5 1214.05L-398.7 1211L-415.3 1197.95L-417.8 1194.75L-417.8 1045.35L-427.1 1070.4L-435 1151.3L-435 1168L-429 1185.45L-417.4 1200.05L-400.15 1213.65L-379.8 1220.45L-365.45 1221.7L-162.3 1221.45L-162.3 1221.55L35.15 1221.15L130.15 1212.95L168.3 1211.95L492.6 1210.95L555.7 1206.4L618.35 1202.75L618.25 1200.3M-384.5,1107L-384.5 1069.55L-389.5 1041.05L-389.5 1197.25L-379.55 1194.45L-259.25 1194.3L-259.2 1191.05L-310.25 1189L-327.45 1186.5L-346.9 1177.1L-362.05 1164.85L-372.2 1151.1L-380.15 1134.5L-384.5 1107" />
</g>
</svg>
