<?xml version="1.0" encoding="utf-8"?>
<svg version="1.1" id="Layer_1"
xmlns="http://www.w3.org/2000/svg"
xmlns:xlink="http://www.w3.org/1999/xlink"
xmlns:author="http://www.sothink.com"
width="18px" height="18px"
xml:space="preserve">
<g id="444" transform="matrix(1, 0, 0, 1, 8.6, 8.9)">
<path style="fill:#FFFFFF;fill-opacity:1" d="M8.55,-3.5L8.55 8.9L-8.6 8.9L-8.6 -8.9L3.3 -8.9L8.55 -3.5M6.35,-0.45L5.95 -0.7L2.3 -0.75L1.65 -4.75L1.35 -5.05L0.9 -4.85L-1.55 -0.75L-5.35 -0.75L-5.7 -0.5L-5.65 -0.05L-3.4 2.3L-5.3 6.4L-5.2 6.85L-4.7 6.9L-0.55 4.45L2.75 6.95L3 7.05L3.2 7L3.4 6.55L2.8 2.4L6.2 0.05Q6.45 -0.1 6.35 -0.45" />
</g>
</svg>
