<?xml version="1.0" encoding="utf-8"?>
<svg version="1.1" id="Layer_1"
xmlns="http://www.w3.org/2000/svg"
xmlns:xlink="http://www.w3.org/1999/xlink"
xmlns:author="http://www.sothink.com"
width="1134px" height="483px"
xml:space="preserve">
<g id="88" transform="matrix(1, 0, 0, 1, 566.65, 241)">
<path style="fill:#000000;fill-opacity:0.694118" d="M123,-151.25L123 -148.45L127.45 -148.45L127.45 -136.25L130.75 -136.25L130.75 -148.45L135.25 -148.45L135.25 -151.25L123 -151.25M86,-148.6L86.95 -148.25L87.55 -147.6L87.8 -146.45L87.55 -145.25L86.95 -144.6L86 -144.25L84.9 -144.2L82.35 -144.2L82.35 -148.7L84.9 -148.7L86 -148.6M94.35,-149.3Q93.4 -148.25 92.9 -146.8Q92.4 -145.35 92.4 -143.7Q92.4 -142.05 92.9 -140.65Q93.4 -139.2 94.35 -138.15Q95.3 -137.1 96.65 -136.5Q98.05 -135.9 99.75 -135.9Q101.5 -135.9 102.85 -136.5Q104.25 -137.1 105.2 -138.15Q106.15 -139.2 106.65 -140.65Q107.15 -142.05 107.15 -143.7Q107.15 -145.35 106.65 -146.8Q106.15 -148.25 105.2 -149.3Q104.25 -150.4 102.85 -151Q101.5 -151.6 99.75 -151.6Q98.05 -151.6 96.65 -151Q95.3 -150.4 94.35 -149.3M85.8,-151.25L79.05 -151.25L79.05 -136.25L82.35 -136.25L82.35 -141.6L85.8 -141.6L88.2 -142.05L89.8 -143.1Q90.45 -143.8 90.7 -144.65L91 -146.45L90.7 -148.2Q90.45 -149.1 89.8 -149.75L88.2 -150.85L85.8 -151.25M109.4,-151.25L109.4 -136.25L112.7 -136.25L112.7 -142.1L116 -142.1Q117.25 -142.1 117.75 -141.55Q118.35 -141 118.5 -139.85L118.6 -138.9L118.65 -137.95L118.8 -137.05L119 -136.25L122.3 -136.25L121.95 -137.05L121.8 -138L121.7 -138.95L121.7 -139.8L121.55 -140.95L121.15 -141.95L120.5 -142.8Q120.1 -143.15 119.5 -143.3L119.5 -143.35Q120.75 -143.85 121.3 -144.8Q121.85 -145.8 121.85 -147.1L121.55 -148.7L120.7 -150Q120.1 -150.6 119.3 -150.9L117.5 -151.25L109.4 -151.25M116.3,-148.7Q117.4 -148.7 118 -148.2Q118.55 -147.7 118.55 -146.6Q118.55 -145.45 118 -144.95Q117.4 -144.45 116.3 -144.45L112.7 -144.45L112.7 -148.7L116.3 -148.7M102.9,-147.25L103.6 -145.6L103.85 -143.7L103.6 -141.85L102.9 -140.25Q102.45 -139.5 101.65 -139.1Q100.9 -138.65 99.75 -138.65Q98.65 -138.65 97.9 -139.1Q97.1 -139.5 96.6 -140.25L95.9 -141.85L95.7 -143.7L95.9 -145.6L96.6 -147.25Q97.1 -147.95 97.9 -148.4L99.75 -148.85L101.65 -148.4L102.9 -147.25M155.8,-123.25L-160.8 -123.25L-160.8 -164.8L155.8 -164.8L155.8 -123.25M49.85,-151.25L49.85 -136.25L52.95 -136.25L52.95 -146.3L59.2 -136.25L62.5 -136.25L62.5 -151.25L59.45 -151.25L59.45 -141.2L59.4 -141.2L53.15 -151.25L49.85 -151.25M68.55,-151.3L66.75 -150.5L65.45 -149.05Q64.95 -148.2 64.95 -147.05Q64.95 -146 65.35 -145.3L66.35 -144.1Q67 -143.6 67.8 -143.3L69.45 -142.8L71.05 -142.4L72.5 -141.95Q73.1 -141.7 73.5 -141.3Q73.9 -140.95 73.9 -140.3L73.6 -139.4L72.85 -138.8L71.9 -138.55L70.95 -138.45L69.7 -138.6Q69.1 -138.75 68.65 -139.1Q68.2 -139.4 67.9 -139.95Q67.65 -140.45 67.65 -141.2L64.45 -141.2Q64.45 -139.85 64.95 -138.85Q65.5 -137.85 66.4 -137.15Q67.25 -136.5 68.45 -136.2L70.85 -135.9L73.55 -136.25Q74.7 -136.65 75.5 -137.25Q76.3 -137.9 76.7 -138.8Q77.1 -139.65 77.1 -140.7L76.8 -142.2L76.15 -143.3L75.25 -144.05L74.25 -144.6L73.35 -144.9L72.6 -145.05L70.35 -145.65L68.95 -146.1Q68.5 -146.35 68.3 -146.6Q68.15 -146.9 68.15 -147.35L68.35 -148.1L68.9 -148.65L69.6 -148.95L70.4 -149.05L71.55 -148.95L72.45 -148.6L73.1 -147.9L73.4 -146.75L76.55 -146.75Q76.55 -148.05 76.1 -149L74.75 -150.5Q73.9 -151.1 72.8 -151.35L70.55 -151.6L68.55 -151.3M20.3,-151.25L20.3 -136.25L23.6 -136.25L23.6 -142.1L26.9 -142.1Q28.15 -142.1 28.65 -141.55Q29.25 -141 29.4 -139.85L29.5 -138.9L29.55 -137.95L29.7 -137.05L29.9 -136.25L33.2 -136.25L32.85 -137.05L32.7 -138L32.6 -138.95L32.6 -139.8L32.45 -140.95L32.05 -141.95L31.4 -142.8Q31 -143.15 30.4 -143.3L30.4 -143.35Q31.65 -143.85 32.2 -144.8Q32.75 -145.8 32.75 -147.1L32.45 -148.7L31.6 -150Q31 -150.6 30.2 -150.9L28.4 -151.25L20.3 -151.25M27.2,-148.7Q28.3 -148.7 28.9 -148.2Q29.45 -147.7 29.45 -146.6Q29.45 -145.45 28.9 -144.95Q28.3 -144.45 27.2 -144.45L23.6 -144.45L23.6 -148.7L27.2 -148.7M6.3,-151.25L6.3 -148.45L10.75 -148.45L10.75 -136.25L14.05 -136.25L14.05 -148.45L18.55 -148.45L18.55 -151.25L6.3 -151.25M38.35,-139.6L44 -139.6L45.1 -136.25L48.55 -136.25L42.9 -151.25L39.55 -151.25L33.85 -136.25L37.2 -136.25L38.35 -139.6M41.25,-147.55L43.1 -142.05L39.25 -142.05L41.2 -147.55L41.25 -147.55M58.85,139.1Q58.35 139.95 58.35 141.1Q58.35 142.15 58.75 142.85L59.75 144.05L61.2 144.85L62.85 145.35L64.45 145.75L65.9 146.2Q66.5 146.45 66.9 146.85Q67.3 147.2 67.3 147.85L67 148.75L66.25 149.35L65.3 149.6L64.35 149.7L63.1 149.55Q62.5 149.4 62.05 149.05L61.3 148.2L61.05 146.95L57.85 146.95Q57.85 148.3 58.35 149.3Q58.9 150.3 59.8 151Q60.65 151.65 61.85 151.95L64.25 152.25L66.95 151.9Q68.1 151.5 68.9 150.9L70.1 149.35Q70.5 148.5 70.5 147.45L70.2 145.95L69.55 144.85L68.65 144.1L67.65 143.55L66.75 143.25L66 143.1L63.75 142.5L62.35 142.05L61.7 141.55Q61.55 141.25 61.55 140.8L61.75 140.05Q61.95 139.7 62.3 139.5L63 139.2L63.8 139.1L64.95 139.2Q65.45 139.3 65.85 139.55L66.5 140.25L66.8 141.4L69.95 141.4Q69.95 140.1 69.5 139.15Q69 138.25 68.15 137.65Q67.3 137.05 66.2 136.8L63.95 136.55L61.95 136.85Q60.95 137.1 60.15 137.65Q59.35 138.25 58.85 139.1M40.5,136.9L40.5 151.9L51.1 151.9L51.1 149.15L43.8 149.15L43.8 136.9L40.5 136.9M74.55,136.9L70.8 136.9L76.35 146.05L76.35 151.9L79.65 151.9L79.65 146.15L85.2 136.9L81.5 136.9L78.05 142.85L74.55 136.9M7.25,136.9L-5 136.9L-5 139.7L-0.55 139.7L-0.55 151.9L2.75 151.9L2.75 139.7L7.25 139.7L7.25 136.9M17.6,139.95Q18.15 140.45 18.15 141.55Q18.15 142.7 17.6 143.2Q17 143.7 15.9 143.7L12.3 143.7L12.3 139.45L15.9 139.45Q17 139.45 17.6 139.95M17.1,136.9L9 136.9L9 151.9L12.3 151.9L12.3 146.05L15.6 146.05Q16.85 146.05 17.35 146.6Q17.95 147.15 18.1 148.3L18.2 149.25L18.25 150.2L18.4 151.1L18.6 151.9L21.9 151.9L21.55 151.1L21.4 150.15L21.3 149.2L21.3 148.35L21.15 147.2L20.75 146.2L20.1 145.35Q19.7 145 19.1 144.85L19.1 144.8Q20.35 144.3 20.9 143.35Q21.45 142.35 21.45 141.05L21.15 139.45L20.3 138.15L18.9 137.25Q18.1 136.9 17.1 136.9M29,139.75Q29.75 139.3 30.85 139.3Q32 139.3 32.75 139.75L34 140.9L34.7 142.55L34.95 144.45L34.7 146.3L34 147.9L32.75 149.05L30.85 149.5L29 149.05Q28.2 148.65 27.7 147.9L27 146.3L26.8 144.45L27 142.55Q27.25 141.65 27.7 140.9Q28.2 140.2 29 139.75M25.45,138.85Q24.5 139.9 24 141.35Q23.5 142.8 23.5 144.45Q23.5 146.1 24 147.5Q24.5 148.95 25.45 150L27.75 151.65L30.85 152.25Q32.6 152.25 33.95 151.65Q35.35 151.05 36.3 150Q37.25 148.95 37.75 147.5Q38.25 146.1 38.25 144.45Q38.25 142.8 37.75 141.35Q37.25 139.9 36.3 138.85Q35.35 137.75 33.95 137.15Q32.6 136.55 30.85 136.55L27.75 137.15Q26.4 137.75 25.45 138.85M124.15,136.9L112.95 136.9L112.95 151.9L124.35 151.9L124.35 149.15L116.25 149.15L116.25 145.45L123.5 145.45L123.5 142.9L116.25 142.9L116.25 139.7L124.15 139.7L124.15 136.9M134.75,147.2L134.7 147.2L131.2 136.9L126.55 136.9L126.55 151.9L129.65 151.9L129.65 141.4L133.35 151.9L135.9 151.9L139.6 141.3L139.6 151.9L142.7 151.9L142.7 136.9L138.05 136.9L134.75 147.2M89.4,140.05Q89.6 139.7 89.95 139.5Q90.25 139.3 90.65 139.2L91.45 139.1L92.6 139.2Q93.1 139.3 93.5 139.55L94.15 140.25L94.45 141.4L97.6 141.4Q97.6 140.1 97.15 139.15Q96.65 138.25 95.8 137.65Q94.95 137.05 93.85 136.8L91.6 136.55L89.6 136.85Q88.6 137.1 87.8 137.65Q87 138.25 86.5 139.1Q86 139.95 86 141.1Q86 142.15 86.4 142.85L87.4 144.05Q88.05 144.55 88.85 144.85L90.5 145.35L92.1 145.75L93.55 146.2L94.55 146.85Q94.95 147.2 94.95 147.85L94.65 148.75L93.9 149.35L92.95 149.6L92 149.7L90.75 149.55L89.7 149.05L88.95 148.2Q88.7 147.7 88.7 146.95L85.5 146.95Q85.5 148.3 86 149.3Q86.55 150.3 87.45 151Q88.3 151.65 89.5 151.95L91.9 152.25L94.6 151.9Q95.75 151.5 96.55 150.9Q97.35 150.25 97.75 149.35Q98.15 148.5 98.15 147.45L97.85 145.95L97.2 144.85L96.3 144.1L95.3 143.55L94.4 143.25L93.65 143.1L91.4 142.5L90 142.05L89.35 141.55Q89.2 141.25 89.2 140.8L89.4 140.05M98.95,139.7L103.4 139.7L103.4 151.9L106.7 151.9L106.7 139.7L111.2 139.7L111.2 136.9L98.95 136.9L98.95 139.7M155.6,165.4L-161 165.4L-161 123.75L155.6 123.75L155.6 165.4M-27.1,-149.3Q-28.05 -148.25 -28.55 -146.8Q-29.05 -145.35 -29.05 -143.7Q-29.05 -142.05 -28.55 -140.65Q-28.05 -139.2 -27.1 -138.15Q-26.15 -137.1 -24.8 -136.5Q-23.4 -135.9 -21.7 -135.9Q-19.95 -135.9 -18.6 -136.5Q-17.2 -137.1 -16.25 -138.15Q-15.3 -139.2 -14.8 -140.65Q-14.3 -142.05 -14.3 -143.7Q-14.3 -145.35 -14.8 -146.8Q-15.3 -148.25 -16.25 -149.3Q-17.2 -150.4 -18.6 -151Q-19.95 -151.6 -21.7 -151.6Q-23.4 -151.6 -24.8 -151L-27.1 -149.3M-12,-149.05Q-12.5 -148.2 -12.5 -147.05Q-12.5 -146 -12.1 -145.3L-11.1 -144.1Q-10.45 -143.6 -9.65 -143.3L-8 -142.8L-6.4 -142.4L-4.95 -141.95L-3.95 -141.3Q-3.55 -140.95 -3.55 -140.3Q-3.55 -139.75 -3.85 -139.4L-4.6 -138.8L-5.55 -138.55L-6.5 -138.45L-7.75 -138.6L-8.8 -139.1L-9.55 -139.95L-9.8 -141.2L-13 -141.2Q-13 -139.85 -12.5 -138.85Q-11.95 -137.85 -11.05 -137.15Q-10.2 -136.5 -9 -136.2L-6.6 -135.9L-3.9 -136.25Q-2.75 -136.65 -1.95 -137.25Q-1.15 -137.9 -0.75 -138.8Q-0.35 -139.65 -0.35 -140.7Q-0.35 -141.55 -0.65 -142.2L-1.3 -143.3L-2.2 -144.05L-3.2 -144.6L-4.1 -144.9L-4.85 -145.05L-7.1 -145.65L-8.5 -146.1L-9.15 -146.6L-9.3 -147.35L-9.1 -148.1L-8.55 -148.65L-7.85 -148.95L-7.05 -149.05L-5.9 -148.95L-5 -148.6L-4.35 -147.9L-4.05 -146.75L-0.9 -146.75Q-0.9 -148.05 -1.35 -149Q-1.85 -149.9 -2.7 -150.5Q-3.55 -151.1 -4.65 -151.35L-6.9 -151.6L-8.9 -151.3Q-9.9 -151.05 -10.7 -150.5L-12 -149.05M-79.85,-149.05L-78.7 -148.95L-77.8 -148.6L-77.15 -147.9L-76.85 -146.75L-73.7 -146.75Q-73.7 -148.05 -74.15 -149Q-74.65 -149.9 -75.5 -150.5Q-76.35 -151.1 -77.45 -151.35L-79.7 -151.6L-81.7 -151.3Q-82.7 -151.05 -83.5 -150.5L-84.8 -149.05Q-85.3 -148.2 -85.3 -147.05Q-85.3 -146 -84.9 -145.3L-83.9 -144.1L-82.45 -143.3L-80.8 -142.8L-79.2 -142.4L-77.75 -141.95L-76.75 -141.3Q-76.35 -140.95 -76.35 -140.3Q-76.35 -139.75 -76.65 -139.4L-77.4 -138.8L-78.35 -138.55L-79.3 -138.45L-80.55 -138.6Q-81.15 -138.75 -81.6 -139.1L-82.35 -139.95L-82.6 -141.2L-85.8 -141.2Q-85.8 -139.85 -85.3 -138.85Q-84.75 -137.85 -83.85 -137.15Q-83 -136.5 -81.8 -136.2L-79.4 -135.9L-76.7 -136.25Q-75.55 -136.65 -74.75 -137.25Q-73.95 -137.9 -73.55 -138.8Q-73.15 -139.65 -73.15 -140.7Q-73.15 -141.55 -73.45 -142.2L-74.1 -143.3L-75 -144.05L-76 -144.6L-76.9 -144.9L-77.65 -145.05L-79.9 -145.65L-81.3 -146.1L-81.95 -146.6L-82.1 -147.35L-81.9 -148.1L-81.35 -148.65L-80.65 -148.95L-79.85 -149.05M-67.1,-151.25L-72.8 -136.25L-69.45 -136.25L-68.3 -139.6L-62.65 -139.6L-61.55 -136.25L-58.1 -136.25L-63.75 -151.25L-67.1 -151.25M-56.8,-151.25L-56.8 -136.25L-53.7 -136.25L-53.7 -146.3L-47.45 -136.25L-44.15 -136.25L-44.15 -151.25L-47.2 -151.25L-47.2 -141.2L-47.25 -141.2L-53.5 -151.25L-56.8 -151.25M-67.4,-142.05L-65.45 -147.55L-65.4 -147.55L-63.55 -142.05L-67.4 -142.05M-18.55,-147.25Q-18.05 -146.5 -17.85 -145.6L-17.6 -143.7Q-17.6 -142.75 -17.85 -141.85Q-18.05 -140.95 -18.55 -140.25Q-19 -139.5 -19.8 -139.1Q-20.55 -138.65 -21.7 -138.65Q-22.8 -138.65 -23.55 -139.1Q-24.35 -139.5 -24.85 -140.25L-25.55 -141.85L-25.75 -143.7L-25.55 -145.6L-24.85 -147.25L-23.55 -148.4L-21.7 -148.85Q-20.55 -148.85 -19.8 -148.4L-18.55 -147.25M-34.65,-136.25L-34.65 -148.45L-30.15 -148.45L-30.15 -151.25L-42.4 -151.25L-42.4 -148.45L-37.95 -148.45L-37.95 -136.25L-34.65 -136.25M-114,-151.6Q-115.7 -151.6 -117.1 -151Q-118.45 -150.4 -119.4 -149.3Q-120.35 -148.25 -120.85 -146.8Q-121.35 -145.35 -121.35 -143.7Q-121.35 -142.05 -120.85 -140.65Q-120.35 -139.2 -119.4 -138.15Q-118.45 -137.1 -117.1 -136.5Q-115.7 -135.9 -114 -135.9Q-112.25 -135.9 -110.9 -136.5Q-109.5 -137.1 -108.55 -138.15Q-107.6 -139.2 -107.1 -140.65Q-106.6 -142.05 -106.6 -143.7Q-106.6 -145.35 -107.1 -146.8Q-107.6 -148.25 -108.55 -149.3Q-109.5 -150.4 -110.9 -151Q-112.25 -151.6 -114 -151.6M-104.3,-149.05Q-104.8 -148.2 -104.8 -147.05Q-104.8 -146 -104.4 -145.3L-103.4 -144.1L-101.95 -143.3L-100.3 -142.8L-98.7 -142.4L-97.25 -141.95L-96.25 -141.3Q-95.85 -140.95 -95.85 -140.3Q-95.85 -139.75 -96.15 -139.4L-96.9 -138.8Q-97.35 -138.6 -97.85 -138.55L-98.8 -138.45L-100.05 -138.6Q-100.65 -138.75 -101.1 -139.1L-101.85 -139.95L-102.1 -141.2L-105.3 -141.2Q-105.3 -139.85 -104.8 -138.85Q-104.25 -137.85 -103.35 -137.15Q-102.5 -136.5 -101.3 -136.2L-98.9 -135.9L-96.2 -136.25Q-95.05 -136.65 -94.25 -137.25Q-93.45 -137.9 -93.05 -138.8Q-92.65 -139.65 -92.65 -140.7Q-92.65 -141.55 -92.95 -142.2L-93.6 -143.3L-94.5 -144.05L-95.5 -144.6L-96.4 -144.9L-97.15 -145.05L-99.4 -145.65L-100.8 -146.1L-101.45 -146.6L-101.6 -147.35L-101.4 -148.1L-100.85 -148.65L-100.15 -148.95L-99.35 -149.05L-98.2 -148.95Q-97.7 -148.85 -97.3 -148.6L-96.65 -147.9L-96.35 -146.75L-93.2 -146.75Q-93.2 -148.05 -93.65 -149Q-94.15 -149.9 -95 -150.5Q-95.85 -151.1 -96.95 -151.35L-99.2 -151.6L-101.2 -151.3L-103 -150.5L-104.3 -149.05M-133.15,-151.25L-133.15 -136.25L-122.55 -136.25L-122.55 -139L-129.85 -139L-129.85 -151.25L-133.15 -151.25M-109.9,-143.7L-110.15 -141.85Q-110.35 -140.95 -110.85 -140.25Q-111.3 -139.5 -112.1 -139.1Q-112.85 -138.65 -114 -138.65L-115.85 -139.1Q-116.65 -139.5 -117.15 -140.25L-117.85 -141.85L-118.05 -143.7L-117.85 -145.6L-117.15 -147.25L-115.85 -148.4L-114 -148.85L-112.1 -148.4Q-111.3 -147.95 -110.85 -147.25Q-110.35 -146.5 -110.15 -145.6L-109.9 -143.7M-114.4,146.1L-112.45 140.6L-112.4 140.6L-110.55 146.1L-114.4 146.1M-121.2,139.45L-122.05 138.15Q-122.65 137.55 -123.45 137.25L-125.25 136.9L-133.35 136.9L-133.35 151.9L-130.05 151.9L-130.05 146.05L-126.75 146.05Q-125.5 146.05 -125 146.6Q-124.4 147.15 -124.25 148.3L-124.15 149.25L-124.1 150.2L-123.95 151.1L-123.75 151.9L-120.45 151.9L-120.8 151.1L-120.95 150.15L-121.05 149.2L-121.05 148.35L-121.2 147.2L-121.6 146.2Q-121.85 145.7 -122.25 145.35L-123.25 144.85L-123.25 144.8Q-122 144.3 -121.45 143.35Q-120.9 142.35 -120.9 141.05Q-120.9 140.2 -121.2 139.45M-114.1,136.9L-119.8 151.9L-116.45 151.9L-115.3 148.55L-109.65 148.55L-108.55 151.9L-105.1 151.9L-110.75 136.9L-114.1 136.9M-100.5,143.15L-100.5 139.7L-93.25 139.7L-93.25 136.9L-103.8 136.9L-103.8 151.9L-100.5 151.9L-100.5 145.7L-94.25 145.7L-94.25 143.15L-100.5 143.15M-88.05,139.7L-80.8 139.7L-80.8 136.9L-91.35 136.9L-91.35 151.9L-88.05 151.9L-88.05 145.7L-81.8 145.7L-81.8 143.15L-88.05 143.15L-88.05 139.7M-142.9,139.7L-142.9 151.9L-139.6 151.9L-139.6 139.7L-135.1 139.7L-135.1 136.9L-147.35 136.9L-147.35 139.7L-142.9 139.7M-124.75,139.95Q-124.2 140.45 -124.2 141.55Q-124.2 142.7 -124.75 143.2Q-125.35 143.7 -126.45 143.7L-130.05 143.7L-130.05 139.45L-126.45 139.45Q-125.35 139.45 -124.75 139.95M-34.45,138.85Q-35.4 139.9 -35.9 141.35Q-36.4 142.8 -36.4 144.45Q-36.4 146.1 -35.9 147.5Q-35.4 148.95 -34.45 150Q-33.5 151.05 -32.15 151.65Q-30.75 152.25 -29.05 152.25L-25.95 151.65Q-24.55 151.05 -23.6 150Q-22.65 148.95 -22.15 147.5Q-21.65 146.1 -21.65 144.45Q-21.65 142.8 -22.15 141.35Q-22.65 139.9 -23.6 138.85Q-24.55 137.75 -25.95 137.15L-29.05 136.55Q-30.75 136.55 -32.15 137.15Q-33.5 137.75 -34.45 138.85M-30.9,139.75Q-30.15 139.3 -29.05 139.3Q-27.9 139.3 -27.15 139.75Q-26.35 140.2 -25.9 140.9Q-25.4 141.65 -25.2 142.55L-24.95 144.45Q-24.95 145.4 -25.2 146.3Q-25.4 147.2 -25.9 147.9Q-26.35 148.65 -27.15 149.05L-29.05 149.5L-30.9 149.05L-32.2 147.9L-32.9 146.3L-33.1 144.45L-32.9 142.55L-32.2 140.9L-30.9 139.75M-38.85,139.65Q-39.4 138.65 -40.25 137.95Q-41.15 137.25 -42.25 136.9L-44.6 136.55Q-46.3 136.55 -47.7 137.15Q-49.05 137.75 -50 138.85Q-50.95 139.9 -51.45 141.35Q-51.95 142.8 -51.95 144.45Q-51.95 146.1 -51.45 147.5Q-50.95 148.95 -50 150Q-49.05 151.05 -47.7 151.65Q-46.3 152.25 -44.6 152.25L-42.05 151.85Q-40.9 151.4 -40 150.6Q-39.15 149.8 -38.65 148.65Q-38.1 147.55 -38 146.15L-41.15 146.15Q-41.35 147.6 -42.2 148.55Q-43.05 149.5 -44.6 149.5L-46.45 149.05L-47.75 147.9L-48.4 146.3L-48.65 144.45L-48.4 142.55L-47.75 140.9L-46.45 139.75Q-45.7 139.3 -44.6 139.3L-43.4 139.5Q-42.85 139.7 -42.4 140.1L-41.7 140.9L-41.3 141.95L-38.1 141.95Q-38.25 140.65 -38.85 139.65M-16.1,136.9L-19.4 136.9L-19.4 151.9L-16.3 151.9L-16.3 141.85L-10.05 151.9L-6.75 151.9L-6.75 136.9L-9.8 136.9L-9.8 146.95L-9.85 146.95L-16.1 136.9M-78.9,136.9L-78.9 151.9L-75.6 151.9L-75.6 136.9L-78.9 136.9M-72.85,147.5Q-72.35 148.95 -71.4 150Q-70.45 151.05 -69.1 151.65Q-67.7 152.25 -66 152.25L-63.45 151.85Q-62.3 151.4 -61.4 150.6Q-60.55 149.8 -60.05 148.65Q-59.5 147.55 -59.4 146.15L-62.55 146.15Q-62.75 147.6 -63.6 148.55Q-64.45 149.5 -66 149.5L-67.85 149.05L-69.15 147.9L-69.8 146.3L-70.05 144.45L-69.8 142.55L-69.15 140.9L-67.85 139.75Q-67.1 139.3 -66 139.3L-64.8 139.5L-63.8 140.1L-63.1 140.9L-62.7 141.95L-59.5 141.95Q-59.65 140.65 -60.25 139.65Q-60.8 138.65 -61.65 137.95Q-62.55 137.25 -63.65 136.9L-66 136.55Q-67.7 136.55 -69.1 137.15Q-70.45 137.75 -71.4 138.85Q-72.35 139.9 -72.85 141.35Q-73.35 142.8 -73.35 144.45Q-73.35 146.1 -72.85 147.5" />
<path style="fill:#FFFFFF;fill-opacity:1" d="M135.25,-151.25L135.25 -148.45L130.75 -148.45L130.75 -136.25L127.45 -136.25L127.45 -148.45L123 -148.45L123 -151.25L135.25 -151.25M84.9,-148.7L82.35 -148.7L82.35 -144.2L84.9 -144.2L86 -144.25L86.95 -144.6L87.55 -145.25L87.8 -146.45L87.55 -147.6L86.95 -148.25L86 -148.6L84.9 -148.7M96.65,-151Q98.05 -151.6 99.75 -151.6Q101.5 -151.6 102.85 -151Q104.25 -150.4 105.2 -149.3Q106.15 -148.25 106.65 -146.8Q107.15 -145.35 107.15 -143.7Q107.15 -142.05 106.65 -140.65Q106.15 -139.2 105.2 -138.15Q104.25 -137.1 102.85 -136.5Q101.5 -135.9 99.75 -135.9Q98.05 -135.9 96.65 -136.5Q95.3 -137.1 94.35 -138.15Q93.4 -139.2 92.9 -140.65Q92.4 -142.05 92.4 -143.7Q92.4 -145.35 92.9 -146.8Q93.4 -148.25 94.35 -149.3Q95.3 -150.4 96.65 -151M88.2,-150.85L89.8 -149.75Q90.45 -149.1 90.7 -148.2L91 -146.45L90.7 -144.65Q90.45 -143.8 89.8 -143.1L88.2 -142.05L85.8 -141.6L82.35 -141.6L82.35 -136.25L79.05 -136.25L79.05 -151.25L85.8 -151.25L88.2 -150.85M117.5,-151.25L119.3 -150.9Q120.1 -150.6 120.7 -150L121.55 -148.7L121.85 -147.1Q121.85 -145.8 121.3 -144.8Q120.75 -143.85 119.5 -143.35L119.5 -143.3Q120.1 -143.15 120.5 -142.8L121.15 -141.95L121.55 -140.95L121.7 -139.8L121.7 -138.95L121.8 -138L121.95 -137.05L122.3 -136.25L119 -136.25L118.8 -137.05L118.65 -137.95L118.6 -138.9L118.5 -139.85Q118.35 -141 117.75 -141.55Q117.25 -142.1 116 -142.1L112.7 -142.1L112.7 -136.25L109.4 -136.25L109.4 -151.25L117.5 -151.25M112.7,-148.7L112.7 -144.45L116.3 -144.45Q117.4 -144.45 118 -144.95Q118.55 -145.45 118.55 -146.6Q118.55 -147.7 118 -148.2Q117.4 -148.7 116.3 -148.7L112.7 -148.7M101.65,-148.4L99.75 -148.85L97.9 -148.4Q97.1 -147.95 96.6 -147.25L95.9 -145.6L95.7 -143.7L95.9 -141.85L96.6 -140.25Q97.1 -139.5 97.9 -139.1Q98.65 -138.65 99.75 -138.65Q100.9 -138.65 101.65 -139.1Q102.45 -139.5 102.9 -140.25L103.6 -141.85L103.85 -143.7L103.6 -145.6L102.9 -147.25L101.65 -148.4M53.15,-151.25L59.4 -141.2L59.45 -141.2L59.45 -151.25L62.5 -151.25L62.5 -136.25L59.2 -136.25L52.95 -146.3L52.95 -136.25L49.85 -136.25L49.85 -151.25L53.15 -151.25M70.55,-151.6L72.8 -151.35Q73.9 -151.1 74.75 -150.5L76.1 -149Q76.55 -148.05 76.55 -146.75L73.4 -146.75L73.1 -147.9L72.45 -148.6L71.55 -148.95L70.4 -149.05L69.6 -148.95L68.9 -148.65L68.35 -148.1L68.15 -147.35Q68.15 -146.9 68.3 -146.6Q68.5 -146.35 68.95 -146.1L70.35 -145.65L72.6 -145.05L73.35 -144.9L74.25 -144.6L75.25 -144.05L76.15 -143.3L76.8 -142.2L77.1 -140.7Q77.1 -139.65 76.7 -138.8Q76.3 -137.9 75.5 -137.25Q74.7 -136.65 73.55 -136.25L70.85 -135.9L68.45 -136.2Q67.25 -136.5 66.4 -137.15Q65.5 -137.85 64.95 -138.85Q64.45 -139.85 64.45 -141.2L67.65 -141.2Q67.65 -140.45 67.9 -139.95Q68.2 -139.4 68.65 -139.1Q69.1 -138.75 69.7 -138.6L70.95 -138.45L71.9 -138.55L72.85 -138.8L73.6 -139.4L73.9 -140.3Q73.9 -140.95 73.5 -141.3Q73.1 -141.7 72.5 -141.95L71.05 -142.4L69.45 -142.8L67.8 -143.3Q67 -143.6 66.35 -144.1L65.35 -145.3Q64.95 -146 64.95 -147.05Q64.95 -148.2 65.45 -149.05L66.75 -150.5L68.55 -151.3L70.55 -151.6M28.4,-151.25L30.2 -150.9Q31 -150.6 31.6 -150L32.45 -148.7L32.75 -147.1Q32.75 -145.8 32.2 -144.8Q31.65 -143.85 30.4 -143.35L30.4 -143.3Q31 -143.15 31.4 -142.8L32.05 -141.95L32.45 -140.95L32.6 -139.8L32.6 -138.95L32.7 -138L32.85 -137.05L33.2 -136.25L29.9 -136.25L29.7 -137.05L29.55 -137.95L29.5 -138.9L29.4 -139.85Q29.25 -141 28.65 -141.55Q28.15 -142.1 26.9 -142.1L23.6 -142.1L23.6 -136.25L20.3 -136.25L20.3 -151.25L28.4 -151.25M23.6,-148.7L23.6 -144.45L27.2 -144.45Q28.3 -144.45 28.9 -144.95Q29.45 -145.45 29.45 -146.6Q29.45 -147.7 28.9 -148.2Q28.3 -148.7 27.2 -148.7L23.6 -148.7M18.55,-151.25L18.55 -148.45L14.05 -148.45L14.05 -136.25L10.75 -136.25L10.75 -148.45L6.3 -148.45L6.3 -151.25L18.55 -151.25M37.2,-136.25L33.85 -136.25L39.55 -151.25L42.9 -151.25L48.55 -136.25L45.1 -136.25L44 -139.6L38.35 -139.6L37.2 -136.25M41.2,-147.55L39.25 -142.05L43.1 -142.05L41.25 -147.55L41.2 -147.55M60.15,137.65Q60.95 137.1 61.95 136.85L63.95 136.55L66.2 136.8Q67.3 137.05 68.15 137.65Q69 138.25 69.5 139.15Q69.95 140.1 69.95 141.4L66.8 141.4L66.5 140.25L65.85 139.55Q65.45 139.3 64.95 139.2L63.8 139.1L63 139.2L62.3 139.5Q61.95 139.7 61.75 140.05L61.55 140.8Q61.55 141.25 61.7 141.55L62.35 142.05L63.75 142.5L66 143.1L66.75 143.25L67.65 143.55L68.65 144.1L69.55 144.85L70.2 145.95L70.5 147.45Q70.5 148.5 70.1 149.35L68.9 150.9Q68.1 151.5 66.95 151.9L64.25 152.25L61.85 151.95Q60.65 151.65 59.8 151Q58.9 150.3 58.35 149.3Q57.85 148.3 57.85 146.95L61.05 146.95L61.3 148.2L62.05 149.05Q62.5 149.4 63.1 149.55L64.35 149.7L65.3 149.6L66.25 149.35L67 148.75L67.3 147.85Q67.3 147.2 66.9 146.85Q66.5 146.45 65.9 146.2L64.45 145.75L62.85 145.35L61.2 144.85L59.75 144.05L58.75 142.85Q58.35 142.15 58.35 141.1Q58.35 139.95 58.85 139.1Q59.35 138.25 60.15 137.65M43.8,136.9L43.8 149.15L51.1 149.15L51.1 151.9L40.5 151.9L40.5 136.9L43.8 136.9M78.05,142.85L81.5 136.9L85.2 136.9L79.65 146.15L79.65 151.9L76.35 151.9L76.35 146.05L70.8 136.9L74.55 136.9L78.05 142.85M7.25,139.7L2.75 139.7L2.75 151.9L-0.55 151.9L-0.55 139.7L-5 139.7L-5 136.9L7.25 136.9L7.25 139.7M15.9,139.45L12.3 139.45L12.3 143.7L15.9 143.7Q17 143.7 17.6 143.2Q18.15 142.7 18.15 141.55Q18.15 140.45 17.6 139.95Q17 139.45 15.9 139.45M18.9,137.25L20.3 138.15L21.15 139.45L21.45 141.05Q21.45 142.35 20.9 143.35Q20.35 144.3 19.1 144.8L19.1 144.85Q19.7 145 20.1 145.35L20.75 146.2L21.15 147.2L21.3 148.35L21.3 149.2L21.4 150.15L21.55 151.1L21.9 151.9L18.6 151.9L18.4 151.1L18.25 150.2L18.2 149.25L18.1 148.3Q17.95 147.15 17.35 146.6Q16.85 146.05 15.6 146.05L12.3 146.05L12.3 151.9L9 151.9L9 136.9L17.1 136.9Q18.1 136.9 18.9 137.25M27.7,140.9Q27.25 141.65 27 142.55L26.8 144.45L27 146.3L27.7 147.9Q28.2 148.65 29 149.05L30.85 149.5L32.75 149.05L34 147.9L34.7 146.3L34.95 144.45L34.7 142.55L34 140.9L32.75 139.75Q32 139.3 30.85 139.3Q29.75 139.3 29 139.75Q28.2 140.2 27.7 140.9M27.75,137.15L30.85 136.55Q32.6 136.55 33.95 137.15Q35.35 137.75 36.3 138.85Q37.25 139.9 37.75 141.35Q38.25 142.8 38.25 144.45Q38.25 146.1 37.75 147.5Q37.25 148.95 36.3 150Q35.35 151.05 33.95 151.65Q32.6 152.25 30.85 152.25L27.75 151.65L25.45 150Q24.5 148.95 24 147.5Q23.5 146.1 23.5 144.45Q23.5 142.8 24 141.35Q24.5 139.9 25.45 138.85Q26.4 137.75 27.75 137.15M124.15,139.7L116.25 139.7L116.25 142.9L123.5 142.9L123.5 145.45L116.25 145.45L116.25 149.15L124.35 149.15L124.35 151.9L112.95 151.9L112.95 136.9L124.15 136.9L124.15 139.7M138.05,136.9L142.7 136.9L142.7 151.9L139.6 151.9L139.6 141.3L135.9 151.9L133.35 151.9L129.65 141.4L129.65 151.9L126.55 151.9L126.55 136.9L131.2 136.9L134.7 147.2L134.75 147.2L138.05 136.9M89.2,140.8Q89.2 141.25 89.35 141.55L90 142.05L91.4 142.5L93.65 143.1L94.4 143.25L95.3 143.55L96.3 144.1L97.2 144.85L97.85 145.95L98.15 147.45Q98.15 148.5 97.75 149.35Q97.35 150.25 96.55 150.9Q95.75 151.5 94.6 151.9L91.9 152.25L89.5 151.95Q88.3 151.65 87.45 151Q86.55 150.3 86 149.3Q85.5 148.3 85.5 146.95L88.7 146.95Q88.7 147.7 88.95 148.2L89.7 149.05L90.75 149.55L92 149.7L92.95 149.6L93.9 149.35L94.65 148.75L94.95 147.85Q94.95 147.2 94.55 146.85L93.55 146.2L92.1 145.75L90.5 145.35L88.85 144.85Q88.05 144.55 87.4 144.05L86.4 142.85Q86 142.15 86 141.1Q86 139.95 86.5 139.1Q87 138.25 87.8 137.65Q88.6 137.1 89.6 136.85L91.6 136.55L93.85 136.8Q94.95 137.05 95.8 137.65Q96.65 138.25 97.15 139.15Q97.6 140.1 97.6 141.4L94.45 141.4L94.15 140.25L93.5 139.55Q93.1 139.3 92.6 139.2L91.45 139.1L90.65 139.2Q90.25 139.3 89.95 139.5Q89.6 139.7 89.4 140.05L89.2 140.8M98.95,136.9L111.2 136.9L111.2 139.7L106.7 139.7L106.7 151.9L103.4 151.9L103.4 139.7L98.95 139.7L98.95 136.9M-24.8,-151Q-23.4 -151.6 -21.7 -151.6Q-19.95 -151.6 -18.6 -151Q-17.2 -150.4 -16.25 -149.3Q-15.3 -148.25 -14.8 -146.8Q-14.3 -145.35 -14.3 -143.7Q-14.3 -142.05 -14.8 -140.65Q-15.3 -139.2 -16.25 -138.15Q-17.2 -137.1 -18.6 -136.5Q-19.95 -135.9 -21.7 -135.9Q-23.4 -135.9 -24.8 -136.5Q-26.15 -137.1 -27.1 -138.15Q-28.05 -139.2 -28.55 -140.65Q-29.05 -142.05 -29.05 -143.7Q-29.05 -145.35 -28.55 -146.8Q-28.05 -148.25 -27.1 -149.3L-24.8 -151M-10.7,-150.5Q-9.9 -151.05 -8.9 -151.3L-6.9 -151.6L-4.65 -151.35Q-3.55 -151.1 -2.7 -150.5Q-1.85 -149.9 -1.35 -149Q-0.9 -148.05 -0.9 -146.75L-4.05 -146.75L-4.35 -147.9L-5 -148.6L-5.9 -148.95L-7.05 -149.05L-7.85 -148.95L-8.55 -148.65L-9.1 -148.1L-9.3 -147.35L-9.15 -146.6L-8.5 -146.1L-7.1 -145.65L-4.85 -145.05L-4.1 -144.9L-3.2 -144.6L-2.2 -144.05L-1.3 -143.3L-0.65 -142.2Q-0.35 -141.55 -0.35 -140.7Q-0.35 -139.65 -0.75 -138.8Q-1.15 -137.9 -1.95 -137.25Q-2.75 -136.65 -3.9 -136.25L-6.6 -135.9L-9 -136.2Q-10.2 -136.5 -11.05 -137.15Q-11.95 -137.85 -12.5 -138.85Q-13 -139.85 -13 -141.2L-9.8 -141.2L-9.55 -139.95L-8.8 -139.1L-7.75 -138.6L-6.5 -138.45L-5.55 -138.55L-4.6 -138.8L-3.85 -139.4Q-3.55 -139.75 -3.55 -140.3Q-3.55 -140.95 -3.95 -141.3L-4.95 -141.95L-6.4 -142.4L-8 -142.8L-9.65 -143.3Q-10.45 -143.6 -11.1 -144.1L-12.1 -145.3Q-12.5 -146 -12.5 -147.05Q-12.5 -148.2 -12 -149.05L-10.7 -150.5M-80.65,-148.95L-81.35 -148.65L-81.9 -148.1L-82.1 -147.35L-81.95 -146.6L-81.3 -146.1L-79.9 -145.65L-77.65 -145.05L-76.9 -144.9L-76 -144.6L-75 -144.05L-74.1 -143.3L-73.45 -142.2Q-73.15 -141.55 -73.15 -140.7Q-73.15 -139.65 -73.55 -138.8Q-73.95 -137.9 -74.75 -137.25Q-75.55 -136.65 -76.7 -136.25L-79.4 -135.9L-81.8 -136.2Q-83 -136.5 -83.85 -137.15Q-84.75 -137.85 -85.3 -138.85Q-85.8 -139.85 -85.8 -141.2L-82.6 -141.2L-82.35 -139.95L-81.6 -139.1Q-81.15 -138.75 -80.55 -138.6L-79.3 -138.45L-78.35 -138.55L-77.4 -138.8L-76.65 -139.4Q-76.35 -139.75 -76.35 -140.3Q-76.35 -140.95 -76.75 -141.3L-77.75 -141.95L-79.2 -142.4L-80.8 -142.8L-82.45 -143.3L-83.9 -144.1L-84.9 -145.3Q-85.3 -146 -85.3 -147.05Q-85.3 -148.2 -84.8 -149.05L-83.5 -150.5Q-82.7 -151.05 -81.7 -151.3L-79.7 -151.6L-77.45 -151.35Q-76.35 -151.1 -75.5 -150.5Q-74.65 -149.9 -74.15 -149Q-73.7 -148.05 -73.7 -146.75L-76.85 -146.75L-77.15 -147.9L-77.8 -148.6L-78.7 -148.95L-79.85 -149.05L-80.65 -148.95M-63.75,-151.25L-58.1 -136.25L-61.55 -136.25L-62.65 -139.6L-68.3 -139.6L-69.45 -136.25L-72.8 -136.25L-67.1 -151.25L-63.75 -151.25M-53.5,-151.25L-47.25 -141.2L-47.2 -141.2L-47.2 -151.25L-44.15 -151.25L-44.15 -136.25L-47.45 -136.25L-53.7 -146.3L-53.7 -136.25L-56.8 -136.25L-56.8 -151.25L-53.5 -151.25M-63.55,-142.05L-65.4 -147.55L-65.45 -147.55L-67.4 -142.05L-63.55 -142.05M-19.8,-148.4Q-20.55 -148.85 -21.7 -148.85L-23.55 -148.4L-24.85 -147.25L-25.55 -145.6L-25.75 -143.7L-25.55 -141.85L-24.85 -140.25Q-24.35 -139.5 -23.55 -139.1Q-22.8 -138.65 -21.7 -138.65Q-20.55 -138.65 -19.8 -139.1Q-19 -139.5 -18.55 -140.25Q-18.05 -140.95 -17.85 -141.85Q-17.6 -142.75 -17.6 -143.7L-17.85 -145.6Q-18.05 -146.5 -18.55 -147.25L-19.8 -148.4M-37.95,-136.25L-37.95 -148.45L-42.4 -148.45L-42.4 -151.25L-30.15 -151.25L-30.15 -148.45L-34.65 -148.45L-34.65 -136.25L-37.95 -136.25M-110.9,-151Q-109.5 -150.4 -108.55 -149.3Q-107.6 -148.25 -107.1 -146.8Q-106.6 -145.35 -106.6 -143.7Q-106.6 -142.05 -107.1 -140.65Q-107.6 -139.2 -108.55 -138.15Q-109.5 -137.1 -110.9 -136.5Q-112.25 -135.9 -114 -135.9Q-115.7 -135.9 -117.1 -136.5Q-118.45 -137.1 -119.4 -138.15Q-120.35 -139.2 -120.85 -140.65Q-121.35 -142.05 -121.35 -143.7Q-121.35 -145.35 -120.85 -146.8Q-120.35 -148.25 -119.4 -149.3Q-118.45 -150.4 -117.1 -151Q-115.7 -151.6 -114 -151.6Q-112.25 -151.6 -110.9 -151M-103,-150.5L-101.2 -151.3L-99.2 -151.6L-96.95 -151.35Q-95.85 -151.1 -95 -150.5Q-94.15 -149.9 -93.65 -149Q-93.2 -148.05 -93.2 -146.75L-96.35 -146.75L-96.65 -147.9L-97.3 -148.6Q-97.7 -148.85 -98.2 -148.95L-99.35 -149.05L-100.15 -148.95L-100.85 -148.65L-101.4 -148.1L-101.6 -147.35L-101.45 -146.6L-100.8 -146.1L-99.4 -145.65L-97.15 -145.05L-96.4 -144.9L-95.5 -144.6L-94.5 -144.05L-93.6 -143.3L-92.95 -142.2Q-92.65 -141.55 -92.65 -140.7Q-92.65 -139.65 -93.05 -138.8Q-93.45 -137.9 -94.25 -137.25Q-95.05 -136.65 -96.2 -136.25L-98.9 -135.9L-101.3 -136.2Q-102.5 -136.5 -103.35 -137.15Q-104.25 -137.85 -104.8 -138.85Q-105.3 -139.85 -105.3 -141.2L-102.1 -141.2L-101.85 -139.95L-101.1 -139.1Q-100.65 -138.75 -100.05 -138.6L-98.8 -138.45L-97.85 -138.55Q-97.35 -138.6 -96.9 -138.8L-96.15 -139.4Q-95.85 -139.75 -95.85 -140.3Q-95.85 -140.95 -96.25 -141.3L-97.25 -141.95L-98.7 -142.4L-100.3 -142.8L-101.95 -143.3L-103.4 -144.1L-104.4 -145.3Q-104.8 -146 -104.8 -147.05Q-104.8 -148.2 -104.3 -149.05L-103 -150.5M-129.85,-151.25L-129.85 -139L-122.55 -139L-122.55 -136.25L-133.15 -136.25L-133.15 -151.25L-129.85 -151.25M-110.15,-145.6Q-110.35 -146.5 -110.85 -147.25Q-111.3 -147.95 -112.1 -148.4L-114 -148.85L-115.85 -148.4L-117.15 -147.25L-117.85 -145.6L-118.05 -143.7L-117.85 -141.85L-117.15 -140.25Q-116.65 -139.5 -115.85 -139.1L-114 -138.65Q-112.85 -138.65 -112.1 -139.1Q-111.3 -139.5 -110.85 -140.25Q-110.35 -140.95 -110.15 -141.85L-109.9 -143.7L-110.15 -145.6M-110.55,146.1L-112.4 140.6L-112.45 140.6L-114.4 146.1L-110.55 146.1M-120.9,141.05Q-120.9 142.35 -121.45 143.35Q-122 144.3 -123.25 144.8L-123.25 144.85L-122.25 145.35Q-121.85 145.7 -121.6 146.2L-121.2 147.2L-121.05 148.35L-121.05 149.2L-120.95 150.15L-120.8 151.1L-120.45 151.9L-123.75 151.9L-123.95 151.1L-124.1 150.2L-124.15 149.25L-124.25 148.3Q-124.4 147.15 -125 146.6Q-125.5 146.05 -126.75 146.05L-130.05 146.05L-130.05 151.9L-133.35 151.9L-133.35 136.9L-125.25 136.9L-123.45 137.25Q-122.65 137.55 -122.05 138.15L-121.2 139.45Q-120.9 140.2 -120.9 141.05M-110.75,136.9L-105.1 151.9L-108.55 151.9L-109.65 148.55L-115.3 148.55L-116.45 151.9L-119.8 151.9L-114.1 136.9L-110.75 136.9M-94.25,143.15L-94.25 145.7L-100.5 145.7L-100.5 151.9L-103.8 151.9L-103.8 136.9L-93.25 136.9L-93.25 139.7L-100.5 139.7L-100.5 143.15L-94.25 143.15M-88.05,143.15L-81.8 143.15L-81.8 145.7L-88.05 145.7L-88.05 151.9L-91.35 151.9L-91.35 136.9L-80.8 136.9L-80.8 139.7L-88.05 139.7L-88.05 143.15M-147.35,139.7L-147.35 136.9L-135.1 136.9L-135.1 139.7L-139.6 139.7L-139.6 151.9L-142.9 151.9L-142.9 139.7L-147.35 139.7M-126.45,139.45L-130.05 139.45L-130.05 143.7L-126.45 143.7Q-125.35 143.7 -124.75 143.2Q-124.2 142.7 -124.2 141.55Q-124.2 140.45 -124.75 139.95Q-125.35 139.45 -126.45 139.45M-32.15,137.15Q-30.75 136.55 -29.05 136.55L-25.95 137.15Q-24.55 137.75 -23.6 138.85Q-22.65 139.9 -22.15 141.35Q-21.65 142.8 -21.65 144.45Q-21.65 146.1 -22.15 147.5Q-22.65 148.95 -23.6 150Q-24.55 151.05 -25.95 151.65L-29.05 152.25Q-30.75 152.25 -32.15 151.65Q-33.5 151.05 -34.45 150Q-35.4 148.95 -35.9 147.5Q-36.4 146.1 -36.4 144.45Q-36.4 142.8 -35.9 141.35Q-35.4 139.9 -34.45 138.85Q-33.5 137.75 -32.15 137.15M-32.2,140.9L-32.9 142.55L-33.1 144.45L-32.9 146.3L-32.2 147.9L-30.9 149.05L-29.05 149.5L-27.15 149.05Q-26.35 148.65 -25.9 147.9Q-25.4 147.2 -25.2 146.3Q-24.95 145.4 -24.95 144.45L-25.2 142.55Q-25.4 141.65 -25.9 140.9Q-26.35 140.2 -27.15 139.75Q-27.9 139.3 -29.05 139.3Q-30.15 139.3 -30.9 139.75L-32.2 140.9M-38.1,141.95L-41.3 141.95L-41.7 140.9L-42.4 140.1Q-42.85 139.7 -43.4 139.5L-44.6 139.3Q-45.7 139.3 -46.45 139.75L-47.75 140.9L-48.4 142.55L-48.65 144.45L-48.4 146.3L-47.75 147.9L-46.45 149.05L-44.6 149.5Q-43.05 149.5 -42.2 148.55Q-41.35 147.6 -41.15 146.15L-38 146.15Q-38.1 147.55 -38.65 148.65Q-39.15 149.8 -40 150.6Q-40.9 151.4 -42.05 151.85L-44.6 152.25Q-46.3 152.25 -47.7 151.65Q-49.05 151.05 -50 150Q-50.95 148.95 -51.45 147.5Q-51.95 146.1 -51.95 144.45Q-51.95 142.8 -51.45 141.35Q-50.95 139.9 -50 138.85Q-49.05 137.75 -47.7 137.15Q-46.3 136.55 -44.6 136.55L-42.25 136.9Q-41.15 137.25 -40.25 137.95Q-39.4 138.65 -38.85 139.65Q-38.25 140.65 -38.1 141.95M-9.85,146.95L-9.8 146.95L-9.8 136.9L-6.75 136.9L-6.75 151.9L-10.05 151.9L-16.3 141.85L-16.3 151.9L-19.4 151.9L-19.4 136.9L-16.1 136.9L-9.85 146.95M-75.6,136.9L-75.6 151.9L-78.9 151.9L-78.9 136.9L-75.6 136.9M-73.35,144.45Q-73.35 142.8 -72.85 141.35Q-72.35 139.9 -71.4 138.85Q-70.45 137.75 -69.1 137.15Q-67.7 136.55 -66 136.55L-63.65 136.9Q-62.55 137.25 -61.65 137.95Q-60.8 138.65 -60.25 139.65Q-59.65 140.65 -59.5 141.95L-62.7 141.95L-63.1 140.9L-63.8 140.1L-64.8 139.5L-66 139.3Q-67.1 139.3 -67.85 139.75L-69.15 140.9L-69.8 142.55L-70.05 144.45L-69.8 146.3L-69.15 147.9L-67.85 149.05L-66 149.5Q-64.45 149.5 -63.6 148.55Q-62.75 147.6 -62.55 146.15L-59.4 146.15Q-59.5 147.55 -60.05 148.65Q-60.55 149.8 -61.4 150.6Q-62.3 151.4 -63.45 151.85L-66 152.25Q-67.7 152.25 -69.1 151.65Q-70.45 151.05 -71.4 150Q-72.35 148.95 -72.85 147.5Q-73.35 146.1 -73.35 144.45" />
<path style="fill:#FFFFFF;fill-opacity:0.705882" d="M155.8,-164.8L-160.8 -164.8L-160.8 -123.25L155.8 -123.25L155.8 -164.8M166.2,169.7Q96.4 241.05 -3.5 241.05Q-103.4 241.05 -174.75 169.7Q-244.5 99.95 -244.5 0.05Q-244.5 -99.9 -174.75 -171.25Q-103.4 -241 -3.5 -241Q96.4 -241 166.2 -171.25Q237.55 -99.9 237.55 0.05Q237.55 99.95 166.2 169.7M155.5,6L155.5 -111L-162.5 -111L-162.5 110L118.5 110L118.5 6L155.5 6M155.6,123.75L-161 123.75L-161 165.4L155.6 165.4L155.6 123.75" />
<path style="fill:#C38C54;fill-opacity:1" d="M510.2,-137.35L509.75 -137.35L453.3 -137.35L453.3 -236.3L510.2 -236.3L510.2 -236.25L510.2 -137.35M-509.75,137.65L-453.3 137.65L-453.3 236.65L-510.2 236.65L-510.2 137.65L-509.75 137.65" />
<path style="fill:#AD5B77;fill-opacity:1" d="M510.2,-236.25L566.65 -236.25L566.65 -0.35L509.75 -0.35L509.75 -137.35L510.2 -137.35L510.2 -236.25M-510.2,137.65L-510.2 236.65L-566.65 236.65L-566.65 0.65L-509.75 0.65L-509.75 137.65L-510.2 137.65" />
<path style="fill:#4CBA9F;fill-opacity:1" d="M510.2,136.65L509.75 136.65L509.75 -0.3L566.65 -0.3L566.65 235.65L510.2 235.65L510.2 136.65M-509.75,-136.35L-509.75 0.65L-566.65 0.65L-566.65 -235.3L-510.2 -235.3L-510.2 -136.35L-509.75 -136.35" />
<path style="fill:#85A0D2;fill-opacity:1" d="M510.2,235.65L453.3 235.65L453.3 136.65L509.75 136.65L510.2 136.65L510.2 235.65M-510.2,-136.35L-510.2 -235.3L-453.3 -235.3L-453.3 -136.35L-509.75 -136.35L-510.2 -136.35" />
<path style="fill:#000000;fill-opacity:1" d="M118.5,6L118.5 110L-162.5 110L-162.5 -111L155.5 -111L155.5 6L118.5 6" />
</g>
</svg>
