<?xml version="1.0" encoding="utf-8"?>
<svg version="1.1" id="Layer_1"
xmlns="http://www.w3.org/2000/svg"
xmlns:xlink="http://www.w3.org/1999/xlink"
xmlns:author="http://www.sothink.com"
width="580px" height="68px"
xml:space="preserve">
<g id="2004" transform="matrix(1, 0, 0, 1, 283, 35)">
<linearGradient
id="LinearGradID_74" gradientUnits="userSpaceOnUse" gradientTransform="matrix(0.353699, 0, 0, 0.00123596, 7.25, -34)" spreadMethod ="pad" x1="-819.2" y1="0" x2="819.2" y2="0" >
<stop  offset="0" style="stop-color:#000000;stop-opacity:0" />
<stop  offset="0.203922" style="stop-color:#CCCCCC;stop-opacity:1" />
<stop  offset="0.752941" style="stop-color:#CCCCCC;stop-opacity:1" />
<stop  offset="1" style="stop-color:#000000;stop-opacity:0" />
</linearGradient>
<path style="fill:url(#LinearGradID_74) " d="M-282,-33Q-282.2 -33 -282.35 -33.3L-282.5 -33.85L-282.5 -34L-282.35 -34.7L-282 -35L296.5 -35L296.85 -34.7L297 -34L296.85 -33.3L296.5 -33L296 -33L-282 -33" />
<linearGradient
id="LinearGradID_75" gradientUnits="userSpaceOnUse" gradientTransform="matrix(0.353699, 0, 0, 0.00123596, 6.75, 32)" spreadMethod ="pad" x1="-819.2" y1="0" x2="819.2" y2="0" >
<stop  offset="0" style="stop-color:#000000;stop-opacity:0" />
<stop  offset="0.203922" style="stop-color:#CCCCCC;stop-opacity:1" />
<stop  offset="0.752941" style="stop-color:#CCCCCC;stop-opacity:1" />
<stop  offset="1" style="stop-color:#000000;stop-opacity:0" />
</linearGradient>
<path style="fill:url(#LinearGradID_75) " d="M296,31L296.35 31.3L296.5 32L296.35 32.7L296 33L-282.5 33L-282.85 32.7L-283 32L-282.85 31.3L-282.5 31L296 31" />
<linearGradient
id="LinearGradID_76" gradientUnits="userSpaceOnUse" gradientTransform="matrix(0.353088, 0, 0, 0.0405731, 6.75, -1.75)" spreadMethod ="pad" x1="-819.2" y1="0" x2="819.2" y2="0" >
<stop  offset="0" style="stop-color:#000000;stop-opacity:0" />
<stop  offset="0.372549" style="stop-color:#000000;stop-opacity:1" />
<stop  offset="0.556863" style="stop-color:#000000;stop-opacity:1" />
<stop  offset="1" style="stop-color:#000000;stop-opacity:0" />
</linearGradient>
<path style="fill:url(#LinearGradID_76) " d="M-282.5,31L-282.5 -33.85L-282.35 -33.3Q-282.2 -33 -282 -33L296 -33L296 31L-282.5 31" />
</g>
</svg>
