<?xml version="1.0" encoding="utf-8"?>
<svg version="1.1" id="Layer_1"
xmlns="http://www.w3.org/2000/svg"
xmlns:xlink="http://www.w3.org/1999/xlink"
xmlns:author="http://www.sothink.com"
width="21px" height="11px"
xml:space="preserve">
<g id="75" transform="matrix(1, 0, 0, 1, 10.35, 5.4)">
<path style="fill:#FFFFFF;fill-opacity:1" d="M9.35,4.4L-5.8 4.4L-9.3 -0.15L-5.8 -4.4L9.35 -4.4L9.35 4.4M-4.1,-1.35Q-4.65 -1.9 -5.45 -1.9Q-6.25 -1.9 -6.8 -1.35Q-7.35 -0.8 -7.35 -0.05Q-7.35 0.75 -6.8 1.3Q-6.25 1.85 -5.45 1.85Q-4.65 1.85 -4.1 1.3Q-3.55 0.75 -3.55 -0.05Q-3.55 -0.8 -4.1 -1.35" />
<path style="fill:#000000;fill-opacity:1" d="M10.35,-4.4L10.35 4.4L10.05 5.1L9.35 5.4L-5.8 5.4Q-6.3 5.4 -6.6 5L-10.1 0.45Q-10.6 -0.15 -10.05 -0.8L-6.55 -5.05Q-6.3 -5.4 -5.8 -5.4L9.35 -5.4L10.05 -5.1L10.35 -4.4M9.35,-4.4L-5.8 -4.4L-9.3 -0.15L-5.8 4.4L9.35 4.4L9.35 -4.4M-3.55,-0.05Q-3.55 0.75 -4.1 1.3Q-4.65 1.85 -5.45 1.85Q-6.25 1.85 -6.8 1.3Q-7.35 0.75 -7.35 -0.05Q-7.35 -0.8 -6.8 -1.35Q-6.25 -1.9 -5.45 -1.9Q-4.65 -1.9 -4.1 -1.35Q-3.55 -0.8 -3.55 -0.05M-4.8,-0.65L-5.45 -0.9L-6.1 -0.65L-6.35 -0.05L-6.1 0.6L-5.45 0.85Q-5.05 0.85 -4.8 0.6L-4.55 -0.05L-4.8 -0.65" />
</g>
</svg>
