<?xml version="1.0" encoding="utf-8"?>
<svg version="1.1" id="Layer_1"
xmlns="http://www.w3.org/2000/svg"
xmlns:xlink="http://www.w3.org/1999/xlink"
xmlns:author="http://www.sothink.com"
width="314px" height="271px"
xml:space="preserve">
<g id="771" transform="matrix(1, 0, 0, 1, 176.75, 222.3)">
<path style="fill:#000000;fill-opacity:0.4" d="M136.5,-138.5L136.5 48.5L-122.6 48.5L-122.6 -138.5L136.5 -138.5" />
<path style="fill:#000000;fill-opacity:1" d="M132.5,44.5L-127 45L-127 -142L132.5 -142.5L132.5 44.5" />
<path style="fill:#FF0000;fill-opacity:0.8" d="M-151.95,-222.3L-137.8 -221.6Q-132.75 -220.95 -130.45 -219.3L-130.6 -219.1Q-136.15 -217.1 -142.5 -216.5L-161.3 -215.3L-133.85 -190.4Q-112.95 -171.65 -105.05 -166.1Q-81.75 -149.65 -73 -141.7Q-66.95 -136.25 -66.95 -133.7L-67.35 -133Q-67.95 -132.45 -68.9 -132.45Q-72.65 -132.45 -101.75 -154.7Q-135.2 -180.35 -165.5 -209.05Q-166.5 -204.45 -167.35 -197.3Q-168.35 -188.5 -168.65 -186.85Q-170.3 -176.55 -175 -176.55Q-175.6 -176.55 -176.2 -179.9Q-176.75 -182.95 -176.75 -185.15Q-176.75 -187.85 -175.1 -197.95L-172.8 -208.6Q-171.15 -216 -171.15 -216.65L-171.25 -220.45Q-170.95 -221.85 -168.45 -221.85Q-167.95 -221.85 -167.4 -220.85Q-166.85 -219.85 -166.35 -219.85L-161.3 -221.05Q-156.85 -222.3 -151.95 -222.3" />
</g>
</svg>
