<?xml version="1.0" encoding="utf-8"?>
<svg version="1.1" id="Layer_1"
xmlns="http://www.w3.org/2000/svg"
xmlns:xlink="http://www.w3.org/1999/xlink"
xmlns:author="http://www.sothink.com"
width="86px" height="97px"
xml:space="preserve">
<g id="795" transform="matrix(1, 0, 0, 1, -111.25, 3.2)">
<path style="fill:#FF0000;fill-opacity:0.8" d="M179.75,33.85Q172.15 26.05 166.95 21.65Q157.4 13.5 151.75 14.75Q141.2 18.8 135.6 24.3Q133.55 26.35 130.85 29.8L125.75 36.35Q120.4 43 119.3 47.3Q118.75 49.45 118.75 58.1Q118.75 59 120.15 62.85Q122.05 68 124.75 72.35Q133.15 85.85 145.75 85.85Q177.4 85.85 186.55 70.65Q191.05 63.1 189.25 56Q189.25 47.8 188.55 45.6Q186.95 40.35 179.75 33.85M192.75,75.6Q183.8 93.6 158 93.6Q138.7 93.6 125 83.4Q111.25 73.1 111.25 58.6Q111.25 44.05 117.6 35.15Q123.45 26.9 145.5 9.25Q143.6 8.1 135.4 7.15L115 4.75L112.2 2.65Q111.25 1.95 111.25 1.25Q111.25 -4.75 124.6 -2.7Q137.7 -0.7 154 7.45Q172.05 16.45 183.4 28.1Q196.75 41.85 196.75 55.75Q196.75 67.6 192.75 75.6" />
</g>
</svg>
