<?xml version="1.0" encoding="utf-8"?>
<svg version="1.1" id="Layer_1"
xmlns="http://www.w3.org/2000/svg"
xmlns:xlink="http://www.w3.org/1999/xlink"
xmlns:author="http://www.sothink.com"
width="302px" height="197px"
xml:space="preserve">
<g id="785" transform="matrix(1, 0, 0, 1, 125.5, 100.65)">
<path style="fill:#FF0000;fill-opacity:0.8" d="M133,-91Q133.5 -90.6 133.5 -89.4L130.2 -87.1Q127.3 -85.3 125 -83.6L125 -91.05L130 -91.5Q132.35 -91.5 133 -91M150.4,-93.4Q146.5 -97.25 146.5 -99L146.55 -100.65Q158.25 -99.7 168.2 -82.25Q171.9 -75.8 174.35 -68.8Q176.5 -62.5 176.5 -59.5Q176.5 -48.55 169 -42.9Q160.45 -36.5 141.55 -36.5Q131.9 -36.5 125 -38.6L125 -43.55Q131.25 -41.75 142 -41.75Q160.1 -41.75 166.45 -46.35Q171.5 -50.05 171.5 -59.6Q171.5 -72 159 -85.05L150.4 -93.4" />
<path style="fill:#000000;fill-opacity:0.4" d="M127.45,-91.5L127.45 95.5L-123.5 95.5L-123.5 -91.5L127.45 -91.5" />
<path style="fill:#000000;fill-opacity:1" d="M125.45,93.5L-125.5 93.5L-125.5 -93.5L125.45 -93.5L125.45 93.5" />
<path style="fill:#FF0000;fill-opacity:0.8" d="M3.85,35.3Q-4.65 46.5 -24.85 46.5Q-45.3 46.5 -57.95 35.45Q-71.35 23.8 -71.35 3.5Q-71.35 -19.35 -57.65 -30.85Q-45.2 -41.3 -22.85 -41.3Q-7.6 -41.3 2.15 -29.3Q11.8 -17.45 11.8 0.9Q11.8 24.8 3.85 35.3M-26.15,-38.5Q-40.5 -38.5 -52.2 -28.6Q-66.35 -16.6 -66.35 3.75Q-66.35 21.9 -53.9 32Q-42.55 41.25 -24.5 41.25Q-9.85 41.25 -1.65 33.4Q6.7 25.4 6.7 10.85Q6.7 -10.65 -0.95 -23.75Q-9.6 -38.5 -26.15 -38.5" />
</g>
</svg>
