<?xml version="1.0" encoding="utf-8"?>
<svg version="1.1" id="Layer_1"
xmlns="http://www.w3.org/2000/svg"
xmlns:xlink="http://www.w3.org/1999/xlink"
xmlns:author="http://www.sothink.com"
width="260px" height="265px"
xml:space="preserve">
<g id="773" transform="matrix(1, 0, 0, 1, 127.1, 98)">
<path style="fill:#000000;fill-opacity:0.4" d="M-125,39.15L-125 -95.9L132.35 -96L132.35 42.95L132 42.95L132 85.25L-125.1 85L-125.1 39.15L-125 39.15" />
<path style="fill:#000000;fill-opacity:1" d="M130,83.25L-127.1 83L-127.1 37.15L130 37.4L130 83.25" />
<path style="fill:#000000;fill-opacity:1" d="M130.35,40.95L-127 41.05L-127 -97.9L130.35 -98L130.35 40.95" />
<path style="fill:#FF0000;fill-opacity:0.694118" d="M47.6,106.75Q46.95 107.6 44.4 107.85L20.35 108.2L20.45 120.3L41.35 120.45Q42.3 114.95 43.95 111.9Q44.7 110.5 46.55 108.4L47.3 107.95Q49.6 114.15 50.25 119.35L50.5 127.3Q50.5 151.4 49.95 158.05Q49.2 166.7 46.5 166.7Q43.95 166.7 43.1 160.15L42.4 149.2L38.3 149.25L25.5 148.4L20.35 147.55L20.25 154.3L36.05 154.8Q36.7 155.55 36.7 156.8Q36.7 159.1 35.95 159.65Q34.85 160.45 30.3 160.45Q29.85 160.45 29.35 160.85Q29.15 161 29.15 160.45Q29.15 159.95 29.6 160.35Q30 160.7 30 160.2L-6.4 157.2L-45.45 153.9L-45.6 152Q-45.6 150.15 -36.6 150.05L-22.85 150.45L-24.4 144.35Q-24.8 142.85 -25.5 142.7Q-29.3 143.5 -36.9 142Q-37.25 143.2 -37.65 143.65Q-38.25 144.2 -39.55 144.2Q-42.5 144.2 -44.25 136.3Q-46.05 127.9 -46.85 109L-47.6 109.2L-49.15 109.4Q-50.8 109.4 -52.95 108.35Q-55.6 107.1 -55.6 105.3Q-55.6 103 -53.1 102.35Q-48.95 101.65 -45.65 100.4Q-45.15 100.75 -44.7 101.7L-6.85 101.7L-6.85 26.4L-4.8 24.4Q-3.85 25.05 -2.85 27.8Q-1.7 31.15 -1.55 35.1Q-1.25 43.6 -0.8 44.25Q-0.55 51.1 -0.6 101.7L16.05 101.7Q16.25 101.15 17.6 99.15Q19.15 96.8 20 96.25L20.2 101.7Q37.15 101.8 41.55 102.05Q48.15 102.5 48.15 104Q48.15 106.1 47.6 106.75M40.95,126.7L20.45 126.7L20.4 141.65L32.25 142.3L41.75 142.85Q41.2 134.8 40.95 126.7M0.25,108.3L0.25 120.25L14.55 120.25L14.55 108.3L0.25 108.3M7.75,145.55L-0.65 145.15L-0.85 152.5L15.75 153.4Q15.3 152.55 14.75 146.25Q7.75 146.25 7.75 145.55M14.2,126.7L-0.2 126.7Q-0.3 138.95 -0.5 138.95L14.35 140.4L14.2 126.7M-7.7,120.2L-6.85 108.45Q-9.1 108.65 -24.95 108.65Q-22.45 114.4 -21.85 118.75Q-21.45 119.8 -20.3 120.05L-15.9 120.25L-7.7 120.2M-33.95,119.45L-29.35 119.45L-29.8 108.7Q-32.5 108.9 -42.55 108.9L-41.35 113.7Q-40.3 118.25 -40.3 119.6L-33.95 119.45M-27,130L-27.85 130L-27.85 125.95L-39.2 125.5L-38.2 131.2L-37.55 135.45L-26.2 135.8Q-26.7 134.9 -27 130M-18.75,144.15L-18.75 151.55L-5.7 151.55L-5.7 144.15L-18.75 144.15M-19.9,137.3L-6.8 137.3L-6.8 126.9L-19.9 126.9L-19.9 137.3" />
</g>
</svg>
