<?xml version="1.0" encoding="utf-8"?>
<svg version="1.1" id="Layer_1"
xmlns="http://www.w3.org/2000/svg"
xmlns:xlink="http://www.w3.org/1999/xlink"
xmlns:author="http://www.sothink.com"
width="514px" height="326px"
xml:space="preserve">
<g id="779" transform="matrix(1, 0, 0, 1, 256, 162)">
<path style="fill:#000000;fill-opacity:0.4" d="M-254,75.45L-254 -160L258 -160L258 164L-131 164L-254 164L-254 75.45" />
<path style="fill:#000000;fill-opacity:1" d="M-129.4,78.85L-256 79.45L-256 -162L256 -162L256 162L-129 162L-129.4 78.85" />
<path style="fill:#DADADA;fill-opacity:1" d="M-256,79.45L-129.4 78.85L-129 162L-256 162L-256 79.45" />
<path style="fill:#FF0000;fill-opacity:0.8" d="M24.25,-33.1Q34 -33.55 45.3 -36.6Q48.85 -37.55 51.5 -39.7L55 -42.35Q59.9 -44.25 69.65 -44.25Q71.65 -44.25 72.9 -42.75Q73.75 -41.7 73.75 -41.1Q73.75 -39.8 71.85 -38.35L69.75 -37.1Q110.3 -27.2 131.2 -4Q147.7 14.3 147.7 34.15Q147.7 48.55 137.55 58.3Q122.75 72.5 89.1 72.5Q56.55 72.5 36.05 50.3Q27.45 41 22.7 29.3Q18.25 18.3 18.25 7.7Q18.25 -2.45 25.05 -12.8Q28.8 -18.55 36.3 -27.8L23.6 -26.6L19.95 -30.1Q19.4 -30.55 19.4 -30.95Q19.4 -32.35 20.4 -32.7L24.25 -33.1M36.3,-21.85Q25.15 -12.65 25.15 5.7Q25.15 17.4 30.45 28.6Q35.5 39.25 44.55 47.75Q53.5 56.2 64.6 60.95Q76.15 65.85 87.9 65.85Q115.35 65.85 129.15 55.7Q140.9 47.1 140.9 32.9Q140.9 22 133.9 10.6Q127.2 -0.3 115.6 -9.5Q103.9 -18.75 90 -24Q75.3 -29.6 61.15 -29.6Q45.75 -29.6 36.3 -21.85" />
</g>
</svg>
