<?xml version="1.0" encoding="utf-8"?>
<svg version="1.1" id="Layer_1"
xmlns="http://www.w3.org/2000/svg"
xmlns:xlink="http://www.w3.org/1999/xlink"
xmlns:author="http://www.sothink.com"
width="267px" height="214px"
xml:space="preserve">
<g id="784" transform="matrix(1, 0, 0, 1, 132.5, 117.75)">
<path style="fill:#000000;fill-opacity:0.4" d="M134.5,95.5L-130.5 95.5L-130.5 -91.5L134.5 -91.5L134.5 95.5" />
<path style="fill:#000000;fill-opacity:1" d="M132.5,-93.5L132.5 93.5L-132.5 93.5L-132.5 -93.5L132.5 -93.5" />
<path style="fill:#FF0000;fill-opacity:0.8" d="M-65.2,-115.85Q-63.55 -117.75 -58.1 -117.75L-49.65 -116.7Q-43.85 -115.3 -43.85 -113Q-43.85 -111.35 -44.8 -110.75Q-45.45 -110.35 -47 -110.35L-52.45 -110.6Q-56.4 -110.95 -58.15 -111.55Q-53.1 -105.95 -46.5 -95.8Q-37.75 -82.2 -31.2 -67.35Q-28.55 -61.3 -27.75 -57.5L-26.65 -49.5Q-24.15 -32.6 -22.65 -18.55Q-21.35 -6.25 -21.35 -1.8Q-21.35 0.85 -21.7 1.95Q-22.2 3.65 -23.75 3.6Q-25.4 -1.5 -26.45 -10.35Q-27.55 -19.4 -27.75 -30.8Q-27.9 -37.25 -29.75 -46.75Q-31.35 -54.75 -32.55 -57.8Q-38.5 -72.5 -50.2 -91.05Q-56.2 -100.55 -62.75 -109.95Q-61.15 -106.1 -60.45 -100.45Q-60 -97.1 -60 -94.75Q-60 -92.9 -60.25 -92.6L-62.35 -91.6Q-62.95 -92.3 -64.15 -98.25Q-65.4 -104.7 -65.8 -110Q-66.65 -114.15 -65.2 -115.85" />
</g>
</svg>
