<?xml version="1.0" encoding="utf-8"?>
<svg version="1.1" id="Layer_1"
xmlns="http://www.w3.org/2000/svg"
xmlns:xlink="http://www.w3.org/1999/xlink"
xmlns:author="http://www.sothink.com"
width="550px" height="332px"
xml:space="preserve">
<g id="778" transform="matrix(1, 0, 0, 1, 297.3, 140.9)">
<path style="fill:#000000;fill-opacity:0.4" d="M220,-139.05L237.4 130.35L-277.75 163.6L-295.15 -105.8L220 -139.05" />
<path style="fill:#C3BDBC;fill-opacity:1" d="M235.15,128.8L-280 162L-297.3 -107.7L217.85 -140.9L235.15 128.8" />
<path style="fill:#000000;fill-opacity:1" d="M229,121L-274 153L-291.1 -100.55L212 -133L229 121" />
<path style="fill:#000000;fill-opacity:0.4" d="M252.3,190.45L122.8 191.05L122.35 98.55L251.85 97.95L252.3 190.45" />
<path style="fill:#000000;fill-opacity:1" d="M250.25,188.45L120.75 189.05L120.35 96.55L249.85 95.9L250.25 188.45" />
<path style="fill:#FF0000;fill-opacity:0.8" d="M37.3,-25.75L37.25 -26.6Q37.25 -31.3 49 -22.8Q52.2 -26.55 54.5 -27L54.65 -26.85L54.75 -26.05Q54.75 -24.9 51.75 -21.5L51.35 -21.05L51.75 -20.75Q61.9 -14.65 63.25 -11.25L62.9 -10.6Q62.55 -10.25 61.75 -10.25L51.35 -17.35L49.25 -18.75L48.55 -18L47.05 -14Q46.15 -11.6 44.5 -10.75Q43.75 -11 43.6 -11.15Q43.25 -11.45 43.25 -12.3Q43.25 -15.15 47 -20.25Q39.75 -24.95 37.3 -25.85L37.3 -25.75M44.75,-31.1L53.55 -32.55Q57.35 -32.55 60.15 -31Q64.95 -28.45 70.45 -26.8Q78.3 -24.3 89.85 -19.7L89.7 -20.3Q89.65 -20.6 90.25 -20.6Q91.8 -19.95 91.8 -18.7Q91.8 -18.25 92.55 -15.75Q93.3 -13.25 93.3 -11.3L92.35 -7Q91.35 -3 91.35 1.95Q91.35 10.55 91.5 10.45L90.85 25.05Q99.55 24.75 101.5 24.9L101.45 27.8Q101.4 32.4 101.8 41.05Q101.85 41.7 104.2 46.6Q106.4 52.25 105.8 57.05L128.55 57.05Q131.3 59 134.6 68.9Q136.2 73.85 137.3 78.5L135.8 90.35L148.2 89.9Q149.95 89.9 155.05 87.2Q160.15 84.5 166.25 84.5L168.65 84.75L168.7 84.7L168.75 85.35Q168.75 86.35 168.6 85.9Q151.15 93 136.75 93L132.1 92.8Q132.1 91.35 132.8 90.75Q133.1 90.45 133.45 90.45L134.8 79.6Q134.8 78.4 133.55 76.7Q132 74.6 131.3 71.9Q130.35 68.25 129.7 64.4L128.85 59.45Q110.2 60.5 104.8 59.8Q102.3 59.45 102.3 58.15Q102.3 57.1 102.85 57.15Q103.4 57.25 103.4 55.55Q103.4 52.8 103.1 51.95L101.15 48.3L100.35 44.45L99.65 39.95L99.45 33.35Q99.1 27.8 98.3 27.8L87.1 28.05L87.1 25.3L88.5 25.2L88.3 19.25Q88.3 16.95 88.85 11.1L89.4 2.6L90.1 -5.85L90.8 -13.2Q90.8 -15.55 90.5 -16.25Q90.2 -17.05 88.95 -17.45Q84 -18.3 77.85 -20.65L54.3 -29.7L45.15 -29.7L44.75 -28.95L44.75 -31.1M58.8,44.65L58.75 44.5L58.35 44.25L58.25 43.35Q58.25 41.65 63.55 35.4L58.75 27.5Q62.7 28.05 66.4 32.25Q70.8 27.5 73 27L73.15 27.2L73.25 28.1L68.15 34.55L73.75 42.65L73.55 43.8L73.4 44.05L72.5 44.25Q69.8 44.25 65.35 38L59.75 44.75L58.8 44.65" />
<path style="fill:#FF0000;fill-opacity:0.8" d="M80.3,-36.45L80.55 -31.8L80.4 -28.2L89.75 -32.8Q101.6 -38.5 105.3 -38.95L105.45 -38.85L105.55 -38.05Q105.55 -36 93.05 -30.65L85.95 -27.7L86.05 -27.7Q93.05 -27.5 93.05 -26.05L92.95 -25.2L92.65 -24.85L90.05 -24.7L87.45 -24.85L80.3 -25.2L79.4 -25.5L79.2 -25.75L79.1 -25.8Q79 -25.9 79.05 -25.95L78.65 -26.2L78.55 -26.9Q77.75 -27.45 77.55 -29.3Q77.4 -30.6 77.55 -32.05Q77.55 -34.55 77.75 -35.15Q78.25 -36.8 80.3 -36.45" />
</g>
</svg>
