<?xml version="1.0" encoding="utf-8"?>
<svg version="1.1" id="Layer_1"
xmlns="http://www.w3.org/2000/svg"
xmlns:xlink="http://www.w3.org/1999/xlink"
xmlns:author="http://www.sothink.com"
width="166px" height="129px"
xml:space="preserve">
<g id="796" transform="matrix(1, 0, 0, 1, -17.35, 3.95)">
<path style="fill:#000000;fill-opacity:0.4" d="M178.35,-1.95L179.1 11.7Q179.8 28.05 181.3 44.35L182 50.3Q183.05 57.35 182 64.4Q181.6 67.45 180.15 70.3L183 116.3L21.55 124.5L19.35 18.4Q44.5 10.45 70.3 5.05Q86.05 1.65 102.45 0.9L101.75 -0.55L178.35 -1.95" />
<path style="fill:#000000;fill-opacity:1" d="M99.75,-2.55L176.35 -3.95L177.1 9.7Q177.8 26.05 179.3 42.35L180 48.3Q181.05 55.35 180 62.4Q179.6 65.45 178.15 68.3L181 114.3L19.55 122.5L17.35 16.4Q42.5 8.45 68.3 3.05Q84.05 -0.35 100.45 -1.1L99.75 -2.55" />
</g>
</svg>
