<?xml version="1.0" encoding="utf-8"?>
<svg version="1.1" id="Layer_1"
xmlns="http://www.w3.org/2000/svg"
xmlns:xlink="http://www.w3.org/1999/xlink"
xmlns:author="http://www.sothink.com"
width="201px" height="167px"
xml:space="preserve">
<g id="794" transform="matrix(1, 0, 0, 1, 0.05, 7.55)">
<path style="fill:#000000;fill-opacity:0.4" d="M187.5,158.95L70.45 148.65L69.75 145.55L16.55 152.85L1.95 24.55L43.3 18.7L52.5 17.6L78.35 14.2L80.2 -5.55L200.1 5.45L187.5 158.95" />
<path style="fill:#000000;fill-opacity:1" d="M187.75,113.1L41.3 113.1L41.3 16.7L76.35 12.2L78.2 -7.55L198.1 3.45L187.75 113.1" />
<path style="fill:#000000;fill-opacity:1" d="M10.7,112.95L-0.05 22.55L59.65 14.35L59.65 112.95L10.7 112.95" />
<path style="fill:none;stroke-width:1;stroke-linecap:round;stroke-linejoin:round;stroke-miterlimit:3;stroke:#666666;stroke-opacity:1" d="M10.7,112.95L15.2 150.95" />
<path style="fill:#000000;fill-opacity:1" d="M185.5,156.95L68.45 146.65L67.75 143.55L14.55 150.85L10.55 112.85L188.65 112.85L185.5 156.95" />
</g>
</svg>
