<?xml version="1.0" encoding="utf-8"?>
<svg version="1.1" id="Layer_1"
xmlns="http://www.w3.org/2000/svg"
xmlns:xlink="http://www.w3.org/1999/xlink"
xmlns:author="http://www.sothink.com"
width="116px" height="92px"
xml:space="preserve">
<g id="797" transform="matrix(1, 0, 0, 1, -6.25, 2)">
<path style="fill:#FF0000;fill-opacity:0.8" d="M103,89.6L68 89.6Q48.75 92.75 26.15 68.95Q17.75 60.1 11.8 50.4Q6.25 41.4 6.25 37.6Q6.25 31.7 6.55 29.55Q7.05 25.5 9.1 22.35Q13.8 14.95 31.25 6.25L19 5.75L16.2 3.7Q15.25 3 15.25 2.25Q15.25 -3.2 31.9 -1.65Q48.85 0 68.5 7.65Q91.25 16.5 105.1 29.25Q121.75 44.5 121.75 62.25Q121.75 71.45 119.3 76.95Q115 86.6 103 89.6M112.7,72.35Q114.25 67.95 114.25 61.75Q114.25 44.3 101.65 33.8Q85.05 19.95 41.25 11Q21.85 18.1 16.7 24.35Q14.55 27.05 14 30.5Q13.75 32.1 13.75 37.35Q13.75 40.1 19.05 47.95Q24.65 56.3 32.2 64.1Q52.5 85.25 66 81.85L102.5 81.6Q109.85 80.25 112.7 72.35" />
</g>
</svg>
