<?xml version="1.0" encoding="utf-8"?>
<svg version="1.1" id="Layer_1"
xmlns="http://www.w3.org/2000/svg"
xmlns:xlink="http://www.w3.org/1999/xlink"
xmlns:author="http://www.sothink.com"
width="105px" height="39px"
xml:space="preserve">
<g id="1863" transform="matrix(1, 0, 0, 1, 52.35, 19.25)">
<path style="fill:#000000;fill-opacity:1" d="M21.1,-14.9L31.3 -14.9L31.3 -15.75L44.35 -15.75L44.35 -9L52.35 -9L52.35 -3.95L44.65 -3.95L44.65 3.05L22.65 3.05L22.65 5.25L6.85 5.25L6.85 14.95L-7.35 14.95L-7.35 -0.05L-12.65 -0.05L-12.65 19.25L-25.85 19.25L-25.85 13.05L-27.45 13.05L-27.45 3.45L-37.95 3.45L-37.95 5.35L-52.35 5.35L-52.35 -16.05L-4.95 -16.05L-4.95 -19.25L-1.35 -19.25L-1.35 -17.5L21.1 -17.5L21.1 -14.9" />
</g>
</svg>
