<?xml version="1.0" encoding="utf-8"?>
<svg version="1.1" id="Layer_1"
xmlns="http://www.w3.org/2000/svg"
xmlns:xlink="http://www.w3.org/1999/xlink"
xmlns:author="http://www.sothink.com"
width="205px" height="38px"
xml:space="preserve">
<g id="1880" transform="matrix(1, 0, 0, 1, 102.35, 19)">
<path style="fill:#000000;fill-opacity:1" d="M-74.35,-11.3L-74.35 3.8L-74.35 4.05L-92.55 4.05L-92.55 4.95L-102.35 4.95L-102.35 -15.25L-96.35 -15.25L-96.35 -12.75L-74.35 -12.75L-74.35 -11.3" />
<path style="fill:#000000;fill-opacity:1" d="M-74.35,-11.3L-9.5 -11.3L-9.5 -19L-6.9 -19L-6.9 -11.4L21.9 -11.4L21.9 -10.1L38.9 -10.1L38.9 -11.4L54.3 -11.4L54.3 -13.1L102.3 -13.1L102.3 6.8L36.7 6.8L36.7 7.75L34.6 7.75L34.6 19L24.9 19L24.9 12.2L21.3 12.2L21.3 1L7.5 1L7.5 12.2L5.5 12.2L5.5 19L-3.2 19L-3.2 5.4L-3.6 5.4L-3.6 5L-4.3 5L-4.3 3.8L-74.35 3.8L-74.35 -11.3" />
</g>
</svg>
