<?xml version="1.0" encoding="utf-8"?>
<svg version="1.1" id="Layer_1"
xmlns="http://www.w3.org/2000/svg"
xmlns:xlink="http://www.w3.org/1999/xlink"
xmlns:author="http://www.sothink.com"
width="163px" height="43px"
xml:space="preserve">
<g id="1869" transform="matrix(1, 0, 0, 1, 81.4, 21.2)">
<path style="fill:#000000;fill-opacity:1" d="M46.45,-1.1L46.45 2.55L1.35 2.55L1.35 16.25L-26.4 16.25L-26.4 21.25L-38.9 21.25L-38.9 3.65L-63 3.65L-63 8.3L-67.1 8.3L-67.1 10.4L-70.6 10.4L-70.6 14.35L-81.4 14.35L-81.4 -17.35L-68.5 -17.35L-68.5 -15.9L-63.9 -15.9L-63.9 -15.35L-50.55 -15.35L-50.55 -15.9L-44.7 -15.9L-44.7 -16.7L-28.65 -16.65L-28.65 -18.2L56.6 -18.2L56.6 -21.2L62.2 -21.2L62.2 -14.25L81.4 -14.25L81.4 -7.6L64.45 -7.6L64.45 -1.1L46.45 -1.1" />
</g>
</svg>
