<?xml version="1.0" encoding="utf-8"?>
<svg version="1.1" id="Layer_1"
xmlns="http://www.w3.org/2000/svg"
xmlns:xlink="http://www.w3.org/1999/xlink"
xmlns:author="http://www.sothink.com"
width="163px" height="45px"
xml:space="preserve">
<g id="1866" transform="matrix(1, 0, 0, 1, 81.35, 22.2)">
<path style="fill:#000000;fill-opacity:1" d="M12.55,-3.6L12.55 18.1L3.45 18.1L3.45 16L-2.05 16L-2.05 18.1L-5.2 18.1L-5.2 17.15L-8.05 17.15L-8.05 18.1L-18.35 18.1L-18.35 18.15L-28.2 18.15L-28.2 22.2L-41.45 22.2L-41.45 16.85L-41.95 16.85L-41.95 0.35L-63.95 0.35L-63.95 4.6L-65.1 4.6L-65.1 16.85L-81.35 16.85L-81.35 10.25L-80.35 10.25L-80.35 -8.75L-81.35 -8.75L-81.35 -16.9L-56.2 -16.9L-56.2 -18.15L-46.2 -18.15L-46.2 -22.2L-25.25 -22.2L-25.25 -20.2L66.75 -20.2L66.75 -13.1L81.3 -13.1L81.3 -5.4L51.3 -5.4L51.3 -4.65L29.8 -4.65L29.8 -3.6L12.55 -3.6" />
</g>
</svg>
