<?xml version="1.0" encoding="utf-8"?>
<svg version="1.1" id="Layer_1"
xmlns="http://www.w3.org/2000/svg"
xmlns:xlink="http://www.w3.org/1999/xlink"
xmlns:author="http://www.sothink.com"
width="169px" height="49px"
xml:space="preserve">
<g id="1867" transform="matrix(1, 0, 0, 1, 84.2, 24.2)">
<path style="fill:#000000;fill-opacity:1" d="M19.05,-8.05L18.9 -8.05L18.9 -21.2L19 -21.2L19.05 -21.2L19.05 -8.05" />
<path style="fill:#000000;fill-opacity:1" d="M19.1,-8.05L19.05 -8.05L19.05 -21.2L19.1 -21.2L19.1 -8.05" />
<path style="fill:#000000;fill-opacity:1" d="M20.6,-8.05L19.1 -8.05L19.1 -21.2L19.55 -21.2L20.85 -21.2L27.75 -21.2L30.35 -21.2L30.35 -18.4L32.7 -18.4L32.7 -1.25L30.05 -1.25L30.05 1.3L20.6 1.3L20.6 -8.05" />
<path style="fill:#000000;fill-opacity:1" d="M18.7,-21.2L18.75 -21.2L18.85 -21.2L18.85 -8.05L18.7 -8.05L18.7 -21.2" />
<path style="fill:#000000;fill-opacity:1" d="M18.65,-21.2L18.7 -21.2L18.7 -8.05L18.65 -8.05L18.65 -21.2" />
<path style="fill:#000000;fill-opacity:1" d="M18.85,-21.2L18.9 -21.2L18.9 -8.05L18.85 -8.05L18.85 -21.2" />
<path style="fill:#000000;fill-opacity:1" d="M-12.85,8.05L-12.85 7.4L-16.6 7.4L-16.6 -13.75L-16.35 -13.75L-16.35 -18.35L-15.1 -18.35L-15.1 -19.2L5.2 -19.2L5.2 -14.4L5.45 -14.4L5.7 -14.4L5.9 -14.4L6.1 -14.4L6.25 -14.4L6.5 -14.4L6.75 -14.4L6.95 -14.4L7.2 -14.4L7.45 -14.4L7.45 -19.2L7.95 -19.2L7.95 -21.2L18.1 -21.2L18.2 -21.2L18.45 -21.2L18.5 -21.2L18.65 -21.2L18.65 -8.05L18.25 -8.05L17.3 -8.05L16.45 -8.05L16.45 1.3L6.75 1.3L6.75 3.4L2.55 3.4L2.55 8.05L-12.85 8.05" />
<path style="fill:#000000;fill-opacity:1" d="M5.9,-19.2L6.1 -19.2L6.1 -14.4L5.9 -14.4L5.9 -19.2" />
<path style="fill:#000000;fill-opacity:1" d="M5.7,-19.2L5.9 -19.2L5.9 -14.4L5.7 -14.4L5.7 -19.2" />
<path style="fill:#000000;fill-opacity:1" d="M5.45,-19.2L5.7 -19.2L5.7 -14.4L5.45 -14.4L5.45 -19.2" />
<path style="fill:#000000;fill-opacity:1" d="M5.45,-14.4L5.2 -14.4L5.2 -19.2L5.45 -19.2L5.45 -14.4" />
<path style="fill:#000000;fill-opacity:1" d="M6.1,-19.2L6.25 -19.2L6.25 -14.4L6.1 -14.4L6.1 -19.2" />
<path style="fill:#000000;fill-opacity:1" d="M7.2,-19.2L7.45 -19.2L7.45 -14.4L7.2 -14.4L7.2 -19.2" />
<path style="fill:#000000;fill-opacity:1" d="M6.95,-19.2L7.2 -19.2L7.2 -14.4L6.95 -14.4L6.95 -19.2" />
<path style="fill:#000000;fill-opacity:1" d="M6.95,-14.4L6.75 -14.4L6.75 -19.2L6.95 -19.2L6.95 -14.4" />
<path style="fill:#000000;fill-opacity:1" d="M6.75,-14.4L6.5 -14.4L6.5 -19.2L6.75 -19.2L6.75 -14.4" />
<path style="fill:#000000;fill-opacity:1" d="M6.5,-14.4L6.25 -14.4L6.25 -19.2L6.5 -19.2L6.5 -14.4" />
<path style="fill:#000000;fill-opacity:1" d="M20.6,1.3L18.9 1.3L18.9 -8.05L19.05 -8.05L19.1 -8.05L20.6 -8.05L20.6 1.3" />
<path style="fill:#000000;fill-opacity:1" d="M18.9,1.3L18.25 1.3L18.25 -8.05L18.65 -8.05L18.7 -8.05L18.85 -8.05L18.9 -8.05L18.9 1.3" />
<path style="fill:#000000;fill-opacity:1" d="M17.3,-8.05L18.25 -8.05L18.25 1.3L17.3 1.3L17.3 -8.05" />
<path style="fill:#000000;fill-opacity:1" d="M17.3,1.3L16.45 1.3L16.45 -8.05L17.3 -8.05L17.3 1.3" />
<path style="fill:#000000;fill-opacity:1" d="M41.5,-1.25L32.7 -1.25L32.7 -18.4L41.5 -18.4L41.5 -1.25" />
<path style="fill:#000000;fill-opacity:1" d="M63.4,-11.2L54.95 -11.2L54.95 -8.65L54.6 -8.65L54.6 -1.25L51.3 -1.25L51.3 -18.4L63.4 -18.4L63.4 -11.2" />
<path style="fill:#000000;fill-opacity:1" d="M41.5,-18.4L51.3 -18.4L51.3 -1.25L41.5 -1.25L41.5 -18.4" />
<path style="fill:#000000;fill-opacity:1" d="M66.25,-18.4L66.25 -18.6L70.75 -18.6L70.75 -24.2L76.05 -24.2L76.05 -19.7L80.25 -19.7L80.25 -9.6L66.25 -9.6L66.25 -11.2L66.25 -18.4" />
<path style="fill:#000000;fill-opacity:1" d="M66.25,-11.2L63.8 -11.2L63.8 -18.4L66.25 -18.4L66.25 -11.2" />
<path style="fill:#000000;fill-opacity:1" d="M63.4,-18.4L63.8 -18.4L63.8 -11.2L63.4 -11.2L63.4 -18.4" />
<path style="fill:#000000;fill-opacity:1" d="M80.25,-19.7L84.15 -19.7L84.15 -9.6L80.25 -9.6L80.25 -19.7" />
<path style="fill:#000000;fill-opacity:1" d="M2.55,8.05L2.55 10.3L-12.85 10.3L-12.85 8.05L2.55 8.05" />
<path style="fill:#000000;fill-opacity:1" d="M2.55,10.3L3.15 10.3L3.15 13.75L-13.05 13.75L-13.05 10.3L-12.85 10.3L2.55 10.3" />
<path style="fill:#000000;fill-opacity:1" d="M-13.05,19.15L-13.05 18.95L3.15 18.95L3.15 19.15L-13.05 19.15" />
<path style="fill:#000000;fill-opacity:1" d="M-13.05,18.95L-13.05 14.15L3.15 14.15L3.15 18.95L-13.05 18.95" />
<path style="fill:#000000;fill-opacity:1" d="M3.15,13.75L3.15 14.15L-13.05 14.15L-13.05 13.75L3.15 13.75" />
<path style="fill:#000000;fill-opacity:1" d="M3.15,19.15L3.15 24.25L-13.05 24.25L-13.05 19.15L3.15 19.15" />
<path style="fill:#000000;fill-opacity:1" d="M-81.3,11.2L-84.2 11.2L-84.2 -16.2L-81.3 -16.2L-81.3 11.2" />
<path style="fill:#000000;fill-opacity:1" d="M-49.95,-16.2L-41.95 -16.2L-41.95 3.85L-48.55 3.85L-48.55 11.2L-49.95 11.2L-49.95 -16.2" />
<path style="fill:#000000;fill-opacity:1" d="M-49.95,11.2L-71.7 11.2L-71.7 -16.2L-49.95 -16.2L-49.95 11.2" />
<path style="fill:#000000;fill-opacity:1" d="M-71.7,11.2L-71.8 11.2L-71.8 -16.2L-71.7 -16.2L-71.7 11.2" />
<path style="fill:#000000;fill-opacity:1" d="M-23.1,7.4L-26.05 7.4L-26.05 7.8L-33.05 7.8L-33.05 17.8L-46.45 17.8L-46.45 11.2L-48.55 11.2L-48.55 3.85L-41.95 3.85L-41.95 -16.2L-35.85 -16.2L-35.85 -18.75L-34 -18.75L-34 -18.35L-23.1 -18.35L-23.1 7.4" />
<path style="fill:#000000;fill-opacity:1" d="M-16.6,7.4L-23.1 7.4L-23.1 -18.35L-17.4 -18.35L-17.4 -13.75L-16.6 -13.75L-16.6 7.4" />
<path style="fill:#000000;fill-opacity:1" d="M-16.35,-13.75L-16.6 -13.75L-17.4 -13.75L-17.4 -18.35L-16.35 -18.35L-16.35 -13.75" />
<path style="fill:#000000;fill-opacity:1" d="M-81.3,-16.2L-71.8 -16.2L-71.8 11.2L-81.3 11.2L-81.3 -16.2" />
</g>
</svg>
