<?xml version="1.0" encoding="utf-8"?>
<svg version="1.1" id="Layer_1"
xmlns="http://www.w3.org/2000/svg"
xmlns:xlink="http://www.w3.org/1999/xlink"
xmlns:author="http://www.sothink.com"
width="147px" height="51px"
xml:space="preserve">
<g id="1865" transform="matrix(1, 0, 0, 1, 73.25, 25.1)">
<path style="fill:#000000;fill-opacity:1" d="M63.25,-5.65L63.25 0.25L58.15 0.25L11.55 0.25L11.55 4.75L10.6 4.75L10.6 25.1L-2.55 25.1L-2.55 16.8L-3.5 16.8L-3.5 8.35L-16.8 8.35L-16.8 15.3L-20.6 15.3L-20.6 16.9L-30.6 16.9L-30.6 7.75L-28.5 7.75L-28.5 -3.85L-55.15 -3.85L-55.15 -2.05L-57.3 -2.05L-57.3 3.9L-63.3 3.9L-63.3 8.85L-72.4 8.85L-72.4 -0.4L-73.25 -0.4L-73.25 -15.3L-24.4 -15.3L-24.4 -18L-20.2 -18L-20.2 -25.1L-11.35 -25.1L-11.35 -21.3L73.2 -21.3L73.2 -5.65L63.25 -5.65" />
</g>
</svg>
