<?xml version="1.0" encoding="utf-8"?>
<svg version="1.1" id="Layer_1"
xmlns="http://www.w3.org/2000/svg"
xmlns:xlink="http://www.w3.org/1999/xlink"
xmlns:author="http://www.sothink.com"
width="202px" height="41px"
xml:space="preserve">
<g id="1877" transform="matrix(1, 0, 0, 1, 100.8, 20.1)">
<path style="fill:#000000;fill-opacity:1" d="M-30.85,-12.2L-36.8 -12.2L-36.8 -20.1L4.1 -20.1L4.1 -11.8L4.1 -10.9L-30.85 -10.9L-30.85 -12.2" />
<path style="fill:#000000;fill-opacity:1" d="M25,-11.8L25 -8.9L25 -7.9L-33.45 -7.9L-33.45 -8.9L-33.85 -8.9L-33.85 -9.65L-30.85 -9.65L-30.85 -10.9L4.1 -10.9L4.1 -11.8L25 -11.8M-33.9,-8.9L-34.45 -8.9L-34.55 -8.9L-34.55 -9.65L-33.9 -9.65L-33.9 -8.9" />
<path style="fill:#000000;fill-opacity:1" d="M-36.1,-7.7L-34.45 -7.7L-34.45 -7.65L-33.45 -7.65L-33.45 -7.9L25 -7.9L25 -8.9L100.8 -8.9L100.8 4.1L85.6 4.1L85.6 0.7L41.6 0.7L41.6 4.1L-17 4.1L-17 20.1L-59.2 20.1L-59.2 13.7L-100.8 13.7L-100.8 -8.9L-36.1 -8.9L-36.1 -7.7" />
<path style="fill:#000000;fill-opacity:1" d="M-33.9,-9.65L-33.85 -9.65L-33.85 -8.9L-33.9 -8.9L-33.9 -9.65" />
<path style="fill:#000000;fill-opacity:1" d="M-34.45,-8.9L-33.9 -8.9L-33.85 -8.9L-33.45 -8.9L-33.45 -7.9L-33.45 -7.65L-34.45 -7.65L-34.45 -7.7L-34.45 -8.9" />
<path style="fill:#000000;fill-opacity:1" d="M-36.1,-8.9L-34.55 -8.9L-34.45 -8.9L-34.45 -7.7L-36.1 -7.7L-36.1 -8.9" />
</g>
</svg>
