<?xml version="1.0" encoding="utf-8"?>
<svg version="1.1" id="Layer_1"
xmlns="http://www.w3.org/2000/svg"
xmlns:xlink="http://www.w3.org/1999/xlink"
xmlns:author="http://www.sothink.com"
width="34px" height="58px"
xml:space="preserve">
<g id="1884" transform="matrix(1, 0, 0, 1, 23.85, 28.75)">
<path style="fill:#000000;fill-opacity:1" d="M9.85,-7.3L9.85 -3.6L9.7 -3.6L9.7 27.45L8.8 27.45L8.8 27.9L8.75 27.9L8.75 28.75L-5.3 28.75L-5.3 27L-6.35 27L-6.35 -1.3L-6.4 -1.3L-6.4 -3.25L-23.85 -3.25L-23.85 -13.8L-23.2 -13.8L-23.2 -14.8L-22.1 -14.8L-22.1 -19.15L-18.55 -19.15L-18.55 -21.25L-14.55 -21.25L-14.55 -25.35L-9.45 -25.35L-9.45 -28.75L7.15 -28.75L7.15 -7.3L9.85 -7.3" />
</g>
</svg>
