<?xml version="1.0" encoding="utf-8"?>
<svg version="1.1" id="Layer_1"
xmlns="http://www.w3.org/2000/svg"
xmlns:xlink="http://www.w3.org/1999/xlink"
xmlns:author="http://www.sothink.com"
width="177px" height="50px"
xml:space="preserve">
<g id="1868" transform="matrix(1, 0, 0, 1, 88.25, 24.8)">
<path style="fill:#000000;fill-opacity:1" d="M3.9,-2.35L3.9 5.2L2.85 5.2L2.85 24.85L-14.35 24.85L-14.35 9.65L-14.45 9.65L-14.45 5.85L-16.45 5.85L-16.45 6.35L-17.35 6.35L-17.35 9.65L-19.15 9.65L-19.15 11.35L-34.85 11.35L-34.85 13.55L-35.65 13.55L-35.65 18.3L-38.05 18.3L-38.05 20.25L-50.25 20.25L-50.25 9.15L-46.95 9.15L-46.95 3.75L-73.25 3.75L-73.25 7.3L-77 7.3L-77 9.1L-88.25 9.1L-88.25 -14.05L-51.25 -14.05L-51.25 -17.95L-46.25 -17.95L-46.25 -22.05L-41.85 -22.05L-41.85 -21.05L15.15 -21.05L15.15 -19.05L62.25 -19.05L62.25 -24.8L69.75 -24.8L69.75 -14.7L88.25 -14.7L88.25 -5.8L77.05 -5.8L77.05 -6.75L64.9 -6.75L64.9 3.05L26.05 3.05L26.05 -2.7L6.75 -2.7L6.75 -2.75L5.15 -2.75L5.15 -2.35L3.9 -2.35" />
</g>
</svg>
