<?xml version="1.0" encoding="utf-8"?>
<svg version="1.1" id="Layer_1"
xmlns="http://www.w3.org/2000/svg"
xmlns:xlink="http://www.w3.org/1999/xlink"
xmlns:author="http://www.sothink.com"
width="142px" height="47px"
xml:space="preserve">
<g id="1870" transform="matrix(1, 0, 0, 1, 70.75, 23)">
<path style="fill:#000000;fill-opacity:1" d="M43.95,-23L51.65 -23L51.65 -16.25L70.75 -16.25L70.75 -5.3L59.65 -5.3L59.65 5.75L10.75 5.7L10.75 23.65L-4.95 23.65L-4.95 12.9L-6.35 12.9L-6.35 9.9L-18.15 9.9L-18.15 23.65L-30.25 23.65L-32.75 20.5L-32.75 15.8L-30.95 15.8L-30.95 12.2L-29.65 12.2L-29.65 9.7L-27.85 9.7L-27.85 3.7L-30.95 3.7L-30.95 3.1L-32.75 3.1L-32.75 2.9L-39.75 2.9L-39.75 6.35L-60.65 6.35L-60.65 7.3L-66.65 7.3L-66.65 9L-70.75 8.95L-70.75 -11.8L-43.75 -11.8L-43.75 -12.8L-35.75 -12.8L-35.75 -15.8L-24.85 -15.8L-24.85 -23L-12.05 -23L-12.05 -15.9L43.95 -15.9L43.95 -23" />
</g>
</svg>
