<?xml version="1.0" encoding="utf-8"?>
<svg version="1.1" id="Layer_1"
xmlns="http://www.w3.org/2000/svg"
xmlns:xlink="http://www.w3.org/1999/xlink"
xmlns:author="http://www.sothink.com"
width="171px" height="50px"
xml:space="preserve">
<g id="1875" transform="matrix(1, 0, 0, 1, 85.05, 24.55)">
<path style="fill:#000000;fill-opacity:1" d="M33.5,-16.2L55.15 -16.2L55.2 -9.85L85.05 -9.85L84.95 0.3L31.05 0.3L31.05 1.55L-6.25 1.55L-6.25 24.6L-22.7 24.6L-22.7 11.8L-32.2 11.8L-32.2 21.9L-46.6 21.9L-46.6 1.4L-57.8 1.4L-57.8 7.15L-61.45 7.15L-61.45 10L-76 10L-76 13.95L-85.05 13.95L-85.05 -10.9L-77.75 -10.9L-77.75 -9.7L-45.9 -9.7L-45.9 -13.2L-35.25 -13.2L-35.25 -21.7L-34 -21.7L-34 -23.35L-9.55 -23.35L-9.55 -24.55L-4.25 -24.55L-4.25 -22.55L33.5 -22.55L33.5 -16.2" />
</g>
</svg>
