<?xml version="1.0" encoding="utf-8"?>
<svg version="1.1" id="Layer_1"
xmlns="http://www.w3.org/2000/svg"
xmlns:xlink="http://www.w3.org/1999/xlink"
xmlns:author="http://www.sothink.com"
width="164px" height="53px"
xml:space="preserve">
<g id="1864" transform="matrix(1, 0, 0, 1, 82, 26.05)">
<path style="fill:#000000;fill-opacity:1" d="M6.15,-2L6.15 3.05L7.3 3.05L7.3 4.85L9.15 4.85L9.15 7L10.25 7L10.25 8.05L11.3 8.05L11.3 9.05L13.3 9.05L13.3 9.9L14.4 9.9L14.4 11.25L18.5 11.25L18.5 19.15L16.5 19.15L16.5 21.4L13.5 21.4L13.5 26.1L4.35 26.1L4.35 22.5L1.35 22.5L1.35 20.5L-1.65 20.5L-1.65 16.5L-8.5 16.5L-8.5 10.65L-10 10.65L-10 4.9L-13.5 4.9L-13.5 -0.85L-24.5 -0.85L-24.5 5.65L-26.75 5.65L-26.75 10.65L-43.55 10.65L-43.55 0.4L-44.25 0.4L-44.25 -0.2L-46.05 -0.2L-46.05 -0.35L-82 -0.35L-82 -19.3L-40.65 -19.3L-40.65 -26.05L58.35 -26.05L58.35 -18.3L70.15 -18.3L70.15 -26.05L82 -26.05L82 -11.6L78.5 -11.6L78.5 -10.1L40.2 -10.1L40.2 -6.15L36.1 -6.15L5.8 -6.15L5.8 -2L6.15 -2" />
</g>
</svg>
