<?xml version="1.0" encoding="utf-8"?>
<svg version="1.1" id="Layer_1"
xmlns="http://www.w3.org/2000/svg"
xmlns:xlink="http://www.w3.org/1999/xlink"
xmlns:author="http://www.sothink.com"
width="22px" height="22px"
xml:space="preserve">
<g id="1900" transform="matrix(1, 0, 0, 1, 10.5, 10.5)">
<path style="fill:#000000;fill-opacity:1" d="M11,-7.1L3.4 0.5L11 8.1L8.1 11L0.5 3.4L-7.05 11L-9.95 8.1L-2.4 0.5L-10 -7.1L-7.1 -10L0.5 -2.4L8.1 -10L11 -7.1" />
<path style="fill:#FFFFFF;fill-opacity:1" d="M10.5,-7.6L2.9 0L10.5 7.6L7.6 10.5L0 2.9L-7.55 10.5L-10.45 7.6L-2.9 0L-10.5 -7.6L-7.6 -10.5L0 -2.9L7.6 -10.5L10.5 -7.6" />
</g>
</svg>
