<?xml version="1.0" encoding="utf-8"?>
<svg version="1.1" id="Layer_1"
xmlns="http://www.w3.org/2000/svg"
xmlns:xlink="http://www.w3.org/1999/xlink"
xmlns:author="http://www.sothink.com"
width="149px" height="31px"
xml:space="preserve">
<g id="1872" transform="matrix(1, 0, 0, 1, 74.15, 15.05)">
<path style="fill:#000000;fill-opacity:1" d="M63.55,-15.05L74.15 -15.05L74.15 -7.3L72.5 -7.3L72.5 0.15L-10.75 0.15L-10.75 1.65L-11.6 1.65L-11.6 3.45L-16.7 3.45L-21.3 3.45L-21.3 4.8L-22.3 4.8L-22.3 14.3L-35.35 14.3L-35.35 11.7L-36.8 11.7L-36.8 5.45L-46.5 5.45L-52.9 5.45L-56.8 8.3L-56.85 8.35L-57.55 8.9L-59.05 9.95L-66.05 15.1L-72.35 15.1L-72.3 5.6L-74.15 5.6L-74.15 -8.5L-74.15 -8.95L-36.25 -8.95L-36.25 -10.4L-34.3 -10.4L-34.3 -15.05L-14.75 -15.05L-14.75 -13.95L63.55 -13.95L63.55 -15.05M-59.05,5.1L-59.05 6.25L-57.95 6.25L-57.95 5.3L-56.95 5.3L-56.95 4.15L-58.05 4.15L-58.05 5.1L-59.05 5.1" />
<path style="fill:#000000;fill-opacity:1" d="M-57.95,5.1L-58.05 5.1L-58.05 4.15L-56.95 4.15L-56.95 5.3L-57.95 5.3L-57.95 5.1" />
<path style="fill:#000000;fill-opacity:1" d="M-58.05,5.1L-57.95 5.1L-57.95 5.3L-57.95 6.25L-59.05 6.25L-59.05 5.1L-58.05 5.1" />
</g>
</svg>
