<?xml version="1.0" encoding="utf-8"?>
<svg version="1.1" id="Layer_1"
xmlns="http://www.w3.org/2000/svg"
xmlns:xlink="http://www.w3.org/1999/xlink"
xmlns:author="http://www.sothink.com"
width="70px" height="57px"
xml:space="preserve">
<g id="1896" transform="matrix(1, 0, 0, 1, 34.85, 29.25)">
<path style="fill:#000000;fill-opacity:1" d="M-29.85,-29.25L-28.35 -29.25L-28.35 -28.35L-27.35 -28.35L-27.35 -24.6L-23.2 -24.6L-23.2 27.25L-34.85 27.25L-34.85 -24.25L-30.95 -24.25L-30.95 -28.35L-29.85 -28.35L-29.85 -29.25" />
<path style="fill:#000000;fill-opacity:1" d="M-16.75,-28.35L-15.75 -28.35L-15.75 -24.6L-11.6 -24.6L-11.6 27.25L-23.25 27.25L-23.25 -24.25L-19.35 -24.25L-19.35 -28.35L-18.25 -28.35L-18.25 -29.25L-16.75 -29.25L-16.75 -28.35" />
<path style="fill:#000000;fill-opacity:1" d="M-4.15,-24.6L0 -24.6L0 27.25L-11.65 27.25L-11.65 -24.25L-7.75 -24.25L-7.75 -28.35L-6.65 -28.35L-6.65 -29.25L-5.15 -29.25L-5.15 -28.35L-4.15 -28.35L-4.15 -24.6" />
<path style="fill:#000000;fill-opacity:1" d="M3.85,-28.35L4.95 -28.35L4.95 -29.25L6.45 -29.25L6.45 -28.35L7.45 -28.35L7.45 -24.6L11.6 -24.6L11.6 27.25L-0.05 27.25L-0.05 -24.25L3.85 -24.25L3.85 -28.35" />
<path style="fill:#000000;fill-opacity:1" d="M19.05,-28.35L19.05 -24.6L23.2 -24.6L23.2 27.25L11.55 27.25L11.55 -24.25L15.45 -24.25L15.45 -28.35L16.55 -28.35L16.55 -29.25L18.05 -29.25L18.05 -28.35L19.05 -28.35" />
<path style="fill:#000000;fill-opacity:1" d="M28.15,-28.35L28.15 -29.25L29.65 -29.25L29.65 -28.35L30.65 -28.35L30.65 -24.6L34.8 -24.6L34.8 27.25L23.15 27.25L23.15 -24.25L27.05 -24.25L27.05 -28.35L28.15 -28.35" />
</g>
</svg>
