<?xml version="1.0" encoding="utf-8"?>
<svg version="1.1" id="Layer_1"
xmlns="http://www.w3.org/2000/svg"
xmlns:xlink="http://www.w3.org/1999/xlink"
xmlns:author="http://www.sothink.com"
width="145px" height="50px"
xml:space="preserve">
<g id="1860" transform="matrix(1, 0, 0, 1, 72, 24.8)">
<path style="fill:#000000;fill-opacity:1" d="M13.9,7.05L13.9 8.9L-9.2 8.9L-9.2 15.4L-15.6 15.4L-15.6 21.2L-29.9 21.2L-29.9 10L-26.1 10L-26.1 -2.6L-28.1 -2.6L-28.1 -4.8L-32.7 -4.8L-32.7 -8.4L-35.4 -8.4L-35.4 -12.5L-63.5 -12.5L-63.5 -8.4L-66.9 -8.4L-66.9 -4.8L-67.3 -4.8L-67.3 -2.5L-68.8 -2.5L-68.8 4.4L-72 4.4L-72 -18.4L-38.7 -18.4L-38.7 -24.6L48.1 -24.6L48.1 -2.8L56 -2.8L56 -2.7L26.2 -2.7L26.2 -1.8L24.5 -1.8L24.5 7.05L13.9 7.05" />
<path style="fill:#000000;fill-opacity:1" d="M48.1,-24.8L72.95 -24.8L72.95 -2.8L56 -2.8L48.1 -2.8L48.1 -24.6L48.1 -24.8" />
<path style="fill:#000000;fill-opacity:1" d="M13.9,8.9L13.9 7.05L24.5 7.05L26.2 7.05L26.2 18.5L28.9 18.5L28.9 24.8L15.6 24.8L15.6 21.2L14.8 21.2L14.8 15.4L13.9 15.4L13.9 8.9" />
</g>
</svg>
