<?xml version="1.0" encoding="utf-8"?>
<svg version="1.1" id="Layer_1"
xmlns="http://www.w3.org/2000/svg"
xmlns:xlink="http://www.w3.org/1999/xlink"
xmlns:author="http://www.sothink.com"
width="153px" height="57px"
xml:space="preserve">
<g id="1871" transform="matrix(1, 0, 0, 1, 76.5, 28.15)">
<path style="fill:#000000;fill-opacity:1" d="M9.25,-21.4L45.1 -21.4L45.1 -19.5L64 -19.5L64 -25.4L76.5 -25.4L76.5 4.85L21.25 4.85L21.25 0.85L9.5 0.85L9.5 6.85L5 6.85L5 10.35L3.25 10.35L3.25 15.9L-8.5 15.9L-8.5 19.8L-12.1 19.8L-12.1 22.55L-13.5 22.55L-13.5 25.8L-14.1 25.8L-14.1 27.9L-19.35 27.9L-19.35 28.15L-25.8 28.15L-25.8 5.6L-40.4 5.6L-40.4 5.7L-48.4 5.7L-48.4 8.1L-63.6 8.1L-63.6 13.85L-76.5 13.85L-76.5 -17.15L-1.5 -17.15L-1.5 -28.15L9.25 -28.15L9.25 -21.4" />
</g>
</svg>
