<?xml version="1.0" encoding="utf-8"?>
<svg version="1.1" id="Layer_1"
xmlns="http://www.w3.org/2000/svg"
xmlns:xlink="http://www.w3.org/1999/xlink"
xmlns:author="http://www.sothink.com"
width="114px" height="55px"
xml:space="preserve">
<g id="1899" transform="matrix(1, 0, 0, 1, 57, 27.2)">
<path style="fill:#000000;fill-opacity:1" d="M-37,0.95L-37 -7.2L-21.25 -7.2L-21.25 -4.2L37 -4.2L37 0.95L-37 0.95" />
<path style="fill:#000000;fill-opacity:1" d="M37,0.95L37 6.2L-21.25 6.2L-21.25 9.2L-37 9.2L-37 0.95L37 0.95" />
<path style="fill:#000000;fill-opacity:1" d="M17,18.95L17 24.2L-41.25 24.2L-41.25 27.2L-57 27.2L-57 18.95L17 18.95" />
<path style="fill:#000000;fill-opacity:1" d="M-57,18.95L-57 10.8L-41.25 10.8L-41.25 13.8L17 13.8L17 18.95L-57 18.95" />
<path style="fill:#000000;fill-opacity:1" d="M-17,-19.05L-17 -27.2L-1.25 -27.2L-1.25 -24.2L57 -24.2L57 -19.05L-17 -19.05" />
<path style="fill:#000000;fill-opacity:1" d="M57,-19.05L57 -13.8L-1.25 -13.8L-1.25 -10.8L-17 -10.8L-17 -19.05L57 -19.05" />
</g>
</svg>
