<?xml version="1.0" encoding="utf-8"?>
<svg version="1.1" id="Layer_1"
xmlns="http://www.w3.org/2000/svg"
xmlns:xlink="http://www.w3.org/1999/xlink"
xmlns:author="http://www.sothink.com"
width="78px" height="48px"
xml:space="preserve">
<g id="1862" transform="matrix(1, 0, 0, 1, 38.6, 24.8)">
<path style="fill:#000000;fill-opacity:1" d="M-19.1,10.6L-19.1 -3.2L-38.6 -3L-38.6 -24.6L-21.45 -24.8L-21.45 -20.95L-7 -20.95L-7 -22.6L23.45 -22.6L23.45 -16.75L28.7 -16.75L29.25 -16L38.65 -15.05L38.65 -6.95L24.4 -6L23.1 -1.6L4.3 -1.6L4.3 3.8L-1.55 4.5L-1.55 3.75L-6.8 3.75L-6.8 11L-19.1 10.6" />
<path style="fill:#000000;fill-opacity:1" d="M-19.1,10.6L-6.8 11L-6.8 14.75L-7.8 14.65L-7.8 22.75L-15.05 22.75L-15.05 17.1L-19.1 17.1L-19.1 10.6" />
</g>
</svg>
