<?xml version="1.0" encoding="utf-8"?>
<svg version="1.1" id="Layer_1"
xmlns="http://www.w3.org/2000/svg"
xmlns:xlink="http://www.w3.org/1999/xlink"
xmlns:author="http://www.sothink.com"
width="28px" height="28px"
xml:space="preserve">
<g id="1658" transform="matrix(1, 0, 0, 1, 13.65, 13.7)">
<path style="fill:#000000;fill-opacity:1" d="M3.35,-6.55Q1.75 -7.4 -0.05 -7.4Q-1.8 -7.4 -3.4 -6.55Q-4.95 -5.7 -6 -4.25L-0.05 -5L5.95 -4.25Q4.9 -5.7 3.35 -6.55M-0.05,-13.7Q5.6 -13.7 9.6 -9.7Q13.6 -5.65 13.6 0Q13.6 5.7 9.6 9.7Q5.6 13.7 0 13.7Q-5.6 13.7 -9.6 9.7Q-13.6 5.65 -13.65 0Q-13.65 -5.7 -9.65 -9.7Q-5.65 -13.7 -0.05 -13.7M-6.65,3.15Q-5.55 5.4 -3.45 6.5L-3.25 6.5L-3.25 6.15L-5.95 2.95L-6.65 3.15M5.9,2.95L4.65 4.25L4.25 4.7L3.2 6.05L3.2 6.5L3.55 6.45Q5.6 5.25 6.6 3.15L5.9 2.95" />
<path style="fill:#FFFFFF;fill-opacity:1" d="M5.55,-7.5Q3.05 -9.4 -0.05 -9.4Q-3.15 -9.4 -5.65 -7.5Q-8.05 -5.65 -8.95 -2.7Q-8.7 -1.85 -8.35 -1.85L-5.85 -2.25L-0.05 -3L5.8 -2.25L8.25 -1.85Q8.65 -1.85 8.9 -2.75Q8 -5.65 5.55 -7.5M9.1,1.9Q6.6 0.95 5.7 0.95Q4.9 0.95 3.15 2.9L2.75 3.35Q1.75 4.5 1.2 5.55L1.2 7.5Q2.05 8.55 3.1 8.55L4.3 8.3Q6.15 7.3 7.4 5.65Q8.7 3.95 9.1 1.9M0,11.7Q-4.8 11.7 -8.2 8.25Q-11.6 4.85 -11.65 0Q-11.65 -4.85 -8.25 -8.25Q-4.85 -11.7 -0.05 -11.7Q4.8 -11.7 8.2 -8.25Q11.6 -4.85 11.6 0Q11.6 4.85 8.2 8.25Q4.8 11.7 0 11.7M-3.65,2.55Q-5 0.95 -5.8 0.95Q-6.65 0.95 -9.15 1.85Q-8.7 4 -7.3 5.75Q-5.95 7.5 -4 8.45L-3.75 8.45L-3.15 8.55Q-2.1 8.55 -1.25 7.5L-1.25 5.55L-3.1 3.15L-3.65 2.55" />
</g>
</svg>
