<?xml version="1.0" encoding="utf-8"?>
<svg version="1.1" id="Layer_1"
xmlns="http://www.w3.org/2000/svg"
xmlns:xlink="http://www.w3.org/1999/xlink"
xmlns:author="http://www.sothink.com"
width="34px" height="32px"
xml:space="preserve">
<g id="1660" transform="matrix(1, 0, 0, 1, 16.5, 15.8)">
<path style="fill:#000000;fill-opacity:1" d="M1.8,-14.7L5.8 -6.55L14.85 -5.2L14.9 -5.15Q15.6 -5.05 16.1 -4.45Q16.6 -3.9 16.55 -3.1L16.5 -2.75L16 -1.7L9.45 4.6L10.9 12.95L11 13.5L11 13.45L11.05 13.8L11.05 13.9Q11.05 14.6 10.6 15.15L9.45 15.85L8.15 15.65L0.1 11.45L-8.1 15.7L-9.4 15.85Q-10.1 15.7 -10.55 15.15Q-11 14.6 -11 13.9L-11 13.8L-10.95 13.45L-10.95 13.5L-9.35 4.65L-15.9 -1.7Q-16.45 -2.3 -16.5 -3.1L-16.5 -3.15Q-16.55 -3.9 -16.05 -4.45Q-15.55 -5.05 -14.8 -5.15L-14.8 -5.2L-5.75 -6.55L-1.8 -14.65Q-1.45 -15.35 -0.75 -15.65L-0.7 -15.65Q0 -15.95 0.75 -15.65L1.8 -14.7M-5.9,-6.2L-5.85 -6.25L-5.9 -6.25L-5.9 -6.2" />
<path style="fill:#FFFFFF;fill-opacity:1" d="M14.5,-3.15L14.55 -3.15L7.7 3.45L7.4 3.95L7.4 4.25L7.4 4.55L8.95 13.3L9.05 13.85L9.05 13.9L0.6 9.5L0 9.35L-0.5 9.5L-9 13.9L-9 13.85L-7.35 4.55L-7.35 4.4L-7.4 3.95L-7.7 3.45L-14.5 -3.15L-14.45 -3.15L-14.5 -3.2L-5.1 -4.6L-4.5 -4.8L-4.15 -5.25L0 -13.8L4.2 -5.25L4.55 -4.8L5.15 -4.6L14.55 -3.2L14.5 -3.15" />
</g>
</svg>
