<?xml version="1.0" encoding="utf-8"?>
<svg version="1.1" id="Layer_1"
xmlns="http://www.w3.org/2000/svg"
xmlns:xlink="http://www.w3.org/1999/xlink"
xmlns:author="http://www.sothink.com"
width="24px" height="24px"
xml:space="preserve">
<g id="1648" transform="matrix(1, 0, 0, 1, 11.9, 11.9)">
<path style="fill:#000000;fill-opacity:1" d="M9.4,0.5Q9.4 4.2 6.8 6.8Q4.2 9.4 0.5 9.4Q-3.15 9.4 -5.8 6.8Q-8.4 4.2 -8.4 0.5Q-8.4 -3.15 -5.8 -5.8Q-3.15 -8.4 0.5 -8.4Q4.2 -8.4 6.8 -5.8Q9.4 -3.15 9.4 0.5" />
<path style="fill:#FFFFFF;fill-opacity:1" d="M7,-7Q9.9 -4.1 9.9 0Q9.9 4.1 7 7Q4.1 9.9 0 9.9Q-4.1 9.9 -7 7Q-9.9 4.1 -9.9 0Q-9.9 -4.1 -7 -7Q-4.1 -9.9 0 -9.9Q4.1 -9.9 7 -7M4.95,-1.9L7.05 -1.55Q7.4 -1.55 7.6 -2.3Q6.85 -4.75 4.75 -6.35Q2.65 -7.95 0 -7.95Q-2.65 -7.95 -4.75 -6.35Q-6.85 -4.75 -7.6 -2.25Q-7.4 -1.55 -7.1 -1.55L-5 -1.9L0 -2.55L4.95 -1.9M-6.25,4.9Q-5.05 6.35 -3.4 7.15L-3.3 7.15L-2.7 7.25Q-1.75 7.25 -1.05 6.35L-1.05 4.75L-2.65 2.7L-3.1 2.2Q-4.3 0.8 -4.95 0.8L-7.8 1.6Q-7.45 3.4 -6.25 4.9M4.85,0.8Q4.15 0.8 2.7 2.45L2.35 2.85L1 4.7L1 6.35Q1.7 7.25 2.65 7.25L3.15 7.2L3.65 7.05Q7.05 5.3 7.8 1.6Q5.65 0.8 4.85 0.8" />
<path style="fill:#000000;fill-opacity:1" d="M11.9,0Q11.9 4.9 8.4 8.4Q4.9 11.9 0 11.9Q-4.9 11.9 -8.4 8.4Q-11.9 4.9 -11.9 0Q-11.9 -4.9 -8.4 -8.4Q-4.9 -11.9 0 -11.9Q4.9 -11.9 8.4 -8.4Q11.9 -4.9 11.9 0M0,-9.9Q-4.1 -9.9 -7 -7Q-9.9 -4.1 -9.9 0Q-9.9 4.1 -7 7Q-4.1 9.9 0 9.9Q4.1 9.9 7 7Q9.9 4.1 9.9 0Q9.9 -4.1 7 -7Q4.1 -9.9 0 -9.9M4.75,-6.35Q6.85 -4.75 7.6 -2.3Q7.4 -1.55 7.05 -1.55L4.95 -1.9L0 -2.55L-5 -1.9L-7.1 -1.55Q-7.4 -1.55 -7.6 -2.25Q-6.85 -4.75 -4.75 -6.35Q-2.65 -7.95 0 -7.95Q2.65 -7.95 4.75 -6.35M4.35,-4.05Q2.55 -5.95 0 -5.95Q-2.5 -5.95 -4.3 -4.05L0 -4.55L4.35 -4.05M-5.15,2.85L-5.2 2.85L-3.45 4.85L-4.55 3.55L-4.6 3.5L-5.15 2.85M-3.1,2.2L-2.65 2.7L-1.05 4.75L-1.05 6.35Q-1.75 7.25 -2.7 7.25L-3.3 7.15L-3.4 7.15Q-5.05 6.35 -6.25 4.9Q-7.45 3.4 -7.8 1.6L-4.95 0.8Q-4.3 0.8 -3.1 2.2M7.8,1.6Q7.05 5.3 3.65 7.05L3.15 7.2L2.65 7.25Q1.7 7.25 1 6.35L1 4.7L2.35 2.85L2.7 2.45Q4.15 0.8 4.85 0.8Q5.65 0.8 7.8 1.6M5.1,2.85L3.2 5Q4.4 4.25 5.2 2.9L5.1 2.85" />
</g>
</svg>
