<?xml version="1.0" encoding="utf-8"?>
<svg version="1.1" id="Layer_1"
xmlns="http://www.w3.org/2000/svg"
xmlns:xlink="http://www.w3.org/1999/xlink"
xmlns:author="http://www.sothink.com"
width="29px" height="24px"
xml:space="preserve">
<g id="1649" transform="matrix(1, 0, 0, 1, 14.5, 11.95)">
<path style="fill:#000000;fill-opacity:1" d="M-8.8,3.4L8.75 3.4L12.65 10.1L-12.65 10.1L-8.8 3.4M8.3,2.05L-8.3 2.05L-8.3 -10.1L8.3 -10.1L8.3 2.05" />
<path style="fill:none;stroke-width:3.75;stroke-linecap:round;stroke-linejoin:round;stroke-miterlimit:3;stroke:#000000;stroke-opacity:1" d="M-12.65,10.1L12.65 10.1L8.75 3.4L-8.8 3.4L-12.65 10.1M8.3,-10.1L-8.3 -10.1L-8.3 2.05L8.3 2.05L8.3 -10.1" />
<path style="fill:#FFFFFF;fill-opacity:1" d="M-8.3,-10.1L8.3 -10.1L8.3 2.05L-8.3 2.05L-8.3 -10.1M-6.4,0.15L6.4 0.15L6.4 -8.2L-6.4 -8.2L-6.4 0.15" />
<path style="fill:#0A0A0A;fill-opacity:1" d="M-6.4,-8.2L6.4 -8.2L6.4 0.15L-6.4 0.15L-6.4 -8.2" />
<path style="fill:#F5F5F5;fill-opacity:1" d="M11.15,9.25L-11.2 9.25L-8.3 4.25L8.3 4.25L11.15 9.25" />
<path style="fill:none;stroke-width:1.85;stroke-linecap:round;stroke-linejoin:round;stroke-miterlimit:3;stroke:#F5F5F5;stroke-opacity:1" d="M8.3,4.25L-8.3 4.25L-11.2 9.25L11.15 9.25L8.3 4.25z" />
</g>
</svg>
