<?xml version="1.0" encoding="utf-8"?>
<svg version="1.1" id="Layer_1"
xmlns="http://www.w3.org/2000/svg"
xmlns:xlink="http://www.w3.org/1999/xlink"
xmlns:author="http://www.sothink.com"
width="30px" height="30px"
xml:space="preserve">
<g id="1653" transform="matrix(1, 0, 0, 1, 14.55, 14.55)">
<path style="fill:#000000;fill-opacity:1" d="M1.1,-9.55Q4.4 -9.15 6.8 -6.8Q9.2 -4.4 9.55 -1.05L12.55 -1.05L12.55 1.1L9.55 1.1Q9.2 4.4 6.8 6.8Q4.4 9.2 1.1 9.55L1.1 12.55L-1.05 12.55L-1.05 9.55Q-4.4 9.2 -6.75 6.8Q-9.15 4.4 -9.5 1.1L-12.55 1.1L-12.55 -1.05L-9.5 -1.05Q-9.15 -4.4 -6.75 -6.8Q-4.4 -9.15 -1.05 -9.55L-1.05 -12.55L1.1 -12.55L1.1 -9.55" />
<path style="fill:none;stroke-width:4;stroke-linecap:round;stroke-linejoin:round;stroke-miterlimit:3;stroke:#000000;stroke-opacity:1" d="M1.1,-12.55L-1.05 -12.55L-1.05 -9.55Q-4.4 -9.15 -6.75 -6.8Q-9.15 -4.4 -9.5 -1.05L-12.55 -1.05L-12.55 1.1L-9.5 1.1Q-9.15 4.4 -6.75 6.8Q-4.4 9.2 -1.05 9.55L-1.05 12.55L1.1 12.55L1.1 9.55Q4.4 9.2 6.8 6.8Q9.2 4.4 9.55 1.1L12.55 1.1L12.55 -1.05L9.55 -1.05Q9.2 -4.4 6.8 -6.8Q4.4 -9.15 1.1 -9.55L1.1 -12.55z" />
<path style="fill:#FFFFFF;fill-opacity:1" d="M12.55,1.1L9.55 1.1Q9.2 4.4 6.8 6.8Q4.4 9.2 1.1 9.55L1.1 12.55L-1.05 12.55L-1.05 9.55Q-4.4 9.2 -6.75 6.8Q-9.15 4.4 -9.5 1.1L-12.55 1.1L-12.55 -1.05L-9.5 -1.05Q-9.15 -4.4 -6.75 -6.8Q-4.4 -9.15 -1.05 -9.55L-1.05 -12.55L1.1 -12.55L1.1 -9.55Q4.4 -9.15 6.8 -6.8Q9.2 -4.4 9.55 -1.05L12.55 -1.05L12.55 1.1M1.1,-7.75L1.1 -2.1L-1.05 -2.1L-1.05 -7.75Q-3.65 -7.35 -5.5 -5.5Q-7.35 -3.65 -7.75 -1.05L-2.1 -1.05L-2.1 1.1L-7.75 1.1Q-7.35 3.7 -5.5 5.55Q-3.65 7.4 -1.05 7.75L-1.05 2.1L1.1 2.1L1.1 7.75Q3.7 7.4 5.55 5.55Q7.4 3.7 7.75 1.1L2.15 1.1L2.15 -1.05L7.75 -1.05Q7.4 -3.65 5.55 -5.5Q3.7 -7.35 1.1 -7.75" />
</g>
</svg>
