<?xml version="1.0" encoding="utf-8"?>
<svg version="1.1" id="Layer_1"
xmlns="http://www.w3.org/2000/svg"
xmlns:xlink="http://www.w3.org/1999/xlink"
xmlns:author="http://www.sothink.com"
width="30px" height="24px"
xml:space="preserve">
<g id="1668" transform="matrix(1, 0, 0, 1, 14.8, 11.6)">
<path style="fill:#000000;fill-opacity:1" d="M9.2,-6.05L10.6 -6.05Q12.35 -6.05 13.6 -4.8Q14.85 -3.55 14.85 -1.8L14.85 11.65L-14.8 11.65L-14.8 -1.8Q-14.8 -3.55 -13.55 -4.8Q-12.3 -6.05 -10.55 -6.05L-8.95 -6.05Q-8.55 -8.6 -6.65 -10.15Q-5.05 -11.4 -3.2 -11.6L3.25 -11.6Q5.4 -11.4 7 -10.05Q8.8 -8.5 9.2 -6.05" />
<path style="fill:#FFFFFF;fill-opacity:1" d="M2.95,-6.8L-2.8 -6.8L-3.65 -6.35Q-4.25 -5.75 -4.25 -4.65L-4.25 -0.25L-3.15 -0.25L-3.15 -4.05L3.35 -4.05L3.35 -0.25L4.5 -0.25L4.5 -4.65Q4.5 -5.8 3.85 -6.35L2.95 -6.8M7.3,-0.25L8.4 -0.25L8.4 -4.05L10.6 -4.05Q11.55 -4.05 12.2 -3.4Q12.85 -2.75 12.85 -1.8L12.85 9.65L-12.8 9.65L-12.8 -1.8Q-12.8 -2.75 -12.15 -3.4Q-11.5 -4.05 -10.55 -4.05L-8.2 -4.05L-8.2 -0.25L-7.1 -0.25L-7.1 -4.65Q-7.1 -7.05 -5.55 -8.4Q-4.45 -9.45 -3 -9.6L3.1 -9.6Q4.65 -9.45 5.8 -8.4Q7.3 -7.05 7.3 -4.65L7.3 -0.25" />
</g>
</svg>
