<?xml version="1.0" encoding="utf-8"?>
<svg version="1.1" id="Layer_1"
xmlns="http://www.w3.org/2000/svg"
xmlns:xlink="http://www.w3.org/1999/xlink"
xmlns:author="http://www.sothink.com"
width="30px" height="29px"
xml:space="preserve">
<g id="1655" transform="matrix(1, 0, 0, 1, 14.6, 14.4)">
<path style="fill:#000000;fill-opacity:1" d="M7.65,-11.35Q10 -11.35 11.95 -10.25Q13.5 -9.4 14.25 -8.3Q14.75 -7.55 14.6 -6.75L12.1 6.7Q11.85 8 10.55 8.25L10.15 8.3Q9.1 8.3 8.5 7.45Q7.4 6.05 5.15 6.05L2.4 6.65Q0.3 7.45 -1.7 7.45Q-4.35 7.45 -6.4 5.95L-7.65 12.8Q-7.8 13.5 -8.35 14L-9.6 14.45L-12.95 13.85Q-13.8 13.7 -14.25 13Q-14.7 12.35 -14.55 11.5L-10.05 -12.75Q-9.9 -13.5 -9.35 -13.95Q-8.8 -14.4 -8.1 -14.4L-4.75 -13.8Q-3.9 -13.65 -3.45 -12.95L-1.7 -10.85Q-0.65 -10 0.75 -10Q1.95 -10 3.5 -10.55Q5.55 -11.35 7.65 -11.35" />
<path style="fill:#FFFFFF;fill-opacity:1" d="M10.6,-8.75Q11.95 -8.05 12.6 -7.15L10.15 6.3Q9.5 5.4 8.1 4.7Q5.35 3.4 1.7 4.75Q-2.05 6.2 -4.6 4.75Q-6.05 3.9 -7.6 1.6L-9.6 12.45L-12.6 11.9L-8.1 -12.4L-5.1 -11.85Q-3.55 -9.55 -2.1 -8.7Q0.45 -7.25 4.2 -8.7Q7.85 -10.05 10.6 -8.75" />
</g>
</svg>
