<?xml version="1.0" encoding="utf-8"?>
<svg version="1.1" id="Layer_1"
xmlns="http://www.w3.org/2000/svg"
xmlns:xlink="http://www.w3.org/1999/xlink"
xmlns:author="http://www.sothink.com"
width="29px" height="29px"
xml:space="preserve">
<g id="1654" transform="matrix(1, 0, 0, 1, 14.3, 14.3)">
<path style="fill:#000000;fill-opacity:1" d="M10.1,-10.1Q14.3 -5.9 14.3 0Q14.3 5.9 10.1 10.1Q5.9 14.3 0 14.3Q-5.9 14.3 -10.1 10.1Q-14.3 5.9 -14.3 0Q-14.3 -5.9 -10.1 -10.1Q-5.9 -14.3 0 -14.3Q5.95 -14.3 10.1 -10.1" />
<path style="fill:#FFFFFF;fill-opacity:1" d="M8.7,-8.7Q12.3 -5.1 12.3 0Q12.3 5.05 8.7 8.7Q5.1 12.3 0 12.3Q-5.1 12.3 -8.7 8.7Q-12.3 5.05 -12.3 0Q-12.3 -5.1 -8.7 -8.7Q-5.1 -12.3 0 -12.3Q5.1 -12.3 8.7 -8.7M0,-8.55Q-3.5 -8.55 -6 -6.05Q-8.5 -3.55 -8.5 0Q-8.5 2.5 -7.15 4.55L4.6 -7.2Q2.45 -8.55 0 -8.55M6,6Q8.5 3.5 8.5 0Q8.5 -2.45 7.25 -4.5L-4.45 7.2Q-2.35 8.5 0 8.5Q3.5 8.5 6 6" />
</g>
</svg>
