<?xml version="1.0" encoding="utf-8"?>
<svg version="1.1" id="Layer_1"
xmlns="http://www.w3.org/2000/svg"
xmlns:xlink="http://www.w3.org/1999/xlink"
xmlns:author="http://www.sothink.com"
width="29px" height="30px"
xml:space="preserve">
<g id="1670" transform="matrix(1, 0, 0, 1, 14, 14.55)">
<path style="fill:#000000;fill-opacity:1" d="M4,-5.4Q5.3 -2.7 5.3 0.25Q5.3 3.15 4.1 5.75Q2.9 8.35 0.7 10.2Q0.2 10.7 -0.6 10.7L-1.6 10.4L-4.65 8.55Q-5.6 8 -5.6 6.85Q-5.6 5.8 -4.7 5.15Q-3.45 4.35 -2.7 3.05Q-2 1.75 -2 0.25Q-2 -3.05 -4.85 -4.7Q-5.8 -5.3 -5.8 -6.4Q-5.8 -7.5 -4.9 -8.1L-1.95 -10.05Q-1.55 -10.4 -0.85 -10.4Q-0.1 -10.4 0.4 -9.95Q2.75 -8.05 4 -5.4M6.85,-14.55Q7.7 -14.55 8.3 -13.95Q11.1 -11.05 12.55 -7.4Q14.05 -3.7 14.05 0.25Q14.05 8.1 8.8 13.9Q8.2 14.6 7.3 14.6Q6.8 14.6 6.25 14.3L3.25 12.45Q2.45 11.95 2.35 11Q2.2 10.05 2.9 9.35Q6.65 5.5 6.65 0.25Q6.65 -5.3 2.55 -9.15Q1.85 -9.75 1.95 -10.75Q2.05 -11.7 2.8 -12.25L5.75 -14.2Q6.25 -14.55 6.85 -14.55M-4.6,-3.6Q-2.95 -2 -2.95 0.25Q-2.95 2.55 -4.6 4.15Q-6.2 5.75 -8.5 5.75Q-10.75 5.75 -12.35 4.15Q-14 2.55 -14 0.25Q-14 -2 -12.35 -3.6Q-10.75 -5.25 -8.5 -5.25Q-6.2 -5.25 -4.6 -3.6" />
<path style="fill:#FFFFFF;fill-opacity:1" d="M6.85,-12.55Q12.05 -7.1 12.05 0.25Q12.05 7.3 7.3 12.6L4.3 10.75Q8.65 6.4 8.65 0.25Q8.65 -6.05 3.95 -10.6L6.85 -12.55M3.3,0.25Q3.3 5.35 -0.6 8.7L-3.6 6.85Q-1.95 5.75 -1 4.1Q0 2.3 0 0.25Q0 -1.85 -1.05 -3.65Q-2.05 -5.4 -3.8 -6.45L-0.85 -8.4Q1.1 -6.85 2.2 -4.6Q3.3 -2.35 3.3 0.25M-6,-2.2Q-4.95 -1.2 -4.95 0.25Q-4.95 1.7 -6 2.75Q-7.05 3.75 -8.5 3.75Q-9.95 3.75 -10.95 2.75Q-12 1.7 -12 0.25Q-12 -1.15 -10.95 -2.2Q-9.9 -3.25 -8.5 -3.25Q-7.05 -3.25 -6 -2.2" />
</g>
</svg>
