<?xml version="1.0" encoding="utf-8"?>
<svg version="1.1" id="Layer_1"
xmlns="http://www.w3.org/2000/svg"
xmlns:xlink="http://www.w3.org/1999/xlink"
xmlns:author="http://www.sothink.com"
width="7px" height="13px"
xml:space="preserve">
<g id="1665" transform="matrix(1, 0, 0, 1, 2.9, 4.65)">
<path style="fill:#000000;fill-opacity:1" d="M2.9,-3.15L-0.65 -3.15L-0.85 0.15Q-0.6 -0.2 -0.1 -0.35L0.85 -0.55L1.95 -0.35L2.65 0.2L3.05 1L3.15 1.95L3.15 5.2Q3.15 6.5 2.35 7.2Q1.55 7.9 0.1 7.9Q-1.3 7.9 -2.1 7.2Q-2.9 6.5 -2.9 5.2L-2.9 3.85L-1.05 3.85L-1.05 5.15L-0.75 6.1L0.1 6.4L0.95 6.1Q1.3 5.8 1.3 5.15L1.3 2Q1.3 0.85 0.25 0.85Q-0.25 0.85 -0.55 1.15Q-0.85 1.45 -0.85 2L-0.85 2.05L-2.75 2.05L-2.45 -4.65L2.9 -4.65L2.9 -3.15" />
</g>
</svg>
