<?xml version="1.0" encoding="utf-8"?>
<svg version="1.1" id="Layer_1"
xmlns="http://www.w3.org/2000/svg"
xmlns:xlink="http://www.w3.org/1999/xlink"
xmlns:author="http://www.sothink.com"
width="19px" height="28px"
xml:space="preserve">
<g id="1669" transform="matrix(1, 0, 0, 1, 9.5, 13.65)">
<path style="fill:#000000;fill-opacity:1" d="M7.4,-1.25Q8.95 0.75 9.35 3.3L9.45 4.95L9.45 10.15Q9.45 12.5 5.2 13.2L-0.65 13.65Q-5.25 13.65 -7.4 12.8Q-9.5 11.95 -9.5 10.15L-9.5 4.95L-9.35 3.3Q-9 0.65 -7.35 -1.35L-5.6 -3.05Q-6.8 -4.75 -6.8 -6.9Q-6.8 -9.7 -4.8 -11.7Q-2.85 -13.65 -0.05 -13.65Q2.75 -13.65 4.75 -11.7Q6.75 -9.7 6.75 -6.9Q6.75 -4.7 5.55 -3L7.4 -1.25" />
<path style="fill:#FFFFFF;fill-opacity:1" d="M2,-2.5L-0.05 -2.1Q-1.1 -2.1 -2 -2.5Q-2.75 -2.85 -3.4 -3.5L-3.85 -4Q-4.8 -5.25 -4.8 -6.9Q-4.8 -8.9 -3.4 -10.25Q-2 -11.65 -0.05 -11.65Q1.95 -11.65 3.35 -10.25Q4.75 -8.9 4.75 -6.9Q4.75 -5.25 3.8 -3.95L3.35 -3.5L2 -2.5M-0.05,-0.1Q2.35 -0.1 4.15 -1.55L5.8 0Q6.95 1.4 7.3 3.3L7.45 4.95L7.45 10.2Q7.4 10.8 4.85 11.25L2.95 11.5L0.85 11.65L0 11.65L-0.65 11.65L-3.3 11.6L-5.4 11.3Q-7.45 10.9 -7.5 10.2L-7.5 4.95L-7.35 3.3Q-7 1.35 -5.8 -0.1L-4.2 -1.55Q-2.45 -0.1 -0.05 -0.1" />
</g>
</svg>
