<?xml version="1.0" encoding="utf-8"?>
<svg version="1.1" id="Layer_1"
xmlns="http://www.w3.org/2000/svg"
xmlns:xlink="http://www.w3.org/1999/xlink"
xmlns:author="http://www.sothink.com"
width="32px" height="25px"
xml:space="preserve">
<g id="1667" transform="matrix(1, 0, 0, 1, 15.6, 12.4)">
<path style="fill:#000000;fill-opacity:1" d="M12.45,-8.7L13.3 -2.9L14.95 -1.5Q15.6 -0.55 15.6 0.6L15.6 3.25Q15.6 5.25 13.95 6.4L13.95 8.55Q13.95 10.15 12.8 11.25Q11.65 12.4 10.05 12.4L9.35 12.4Q7.8 12.4 6.65 11.25Q5.5 10.15 5.5 8.55L5.5 7.1L-5.5 7.1L-5.5 8.55Q-5.5 10.15 -6.65 11.25Q-7.75 12.4 -9.35 12.4L-10.05 12.4Q-11.65 12.4 -12.8 11.25Q-13.95 10.15 -13.95 8.55L-13.95 6.4Q-15.6 5.25 -15.6 3.25L-15.6 0.6Q-15.6 -0.55 -14.95 -1.5Q-14.3 -2.45 -13.25 -2.9L-12.45 -8.7Q-12.35 -10.25 -11.25 -11.3Q-10.15 -12.4 -8.6 -12.4L8.6 -12.4Q10.15 -12.4 11.3 -11.3Q12.4 -10.25 12.45 -8.7" />
<path style="fill:#FFFFFF;fill-opacity:1" d="M9.9,-9.85Q10.45 -9.3 10.45 -8.5L11.5 -1.25L11.7 -1.25Q12.5 -1.25 13.05 -0.7Q13.6 -0.15 13.6 0.6L13.6 3.25Q13.6 3.95 13.1 4.5Q12.65 5.05 11.95 5.1L11.95 8.55Q11.95 9.3 11.4 9.85Q10.85 10.4 10.05 10.4L9.35 10.4Q8.6 10.4 8.05 9.85Q7.5 9.3 7.5 8.55L7.5 5.1L-7.5 5.1L-7.5 8.55Q-7.5 9.3 -8.05 9.85Q-8.6 10.4 -9.35 10.4L-10.05 10.4Q-10.85 10.4 -11.4 9.85Q-11.95 9.3 -11.95 8.55L-11.95 5.1Q-12.65 5 -13.1 4.5L-13.5 3.8L-13.6 3.25L-13.6 0.6Q-13.6 -0.15 -13.05 -0.7Q-12.5 -1.25 -11.7 -1.25L-11.5 -1.25L-10.45 -8.5Q-10.45 -9.3 -9.9 -9.85Q-9.35 -10.4 -8.6 -10.4L8.6 -10.4Q9.4 -10.4 9.9 -9.85M7.65,-8.65L-7.65 -8.65L-8.3 -8.4L-8.55 -7.75L-9.3 -2.85L9.35 -2.85L8.55 -7.75L8.55 -7.8L8.3 -8.4L7.65 -8.65M11.35,0.35Q10.7 -0.35 9.7 -0.35Q8.75 -0.35 8.05 0.35L7.9 0.5Q7.35 1.15 7.35 2Q7.35 3 8.05 3.65L8.1 3.7L8.35 3.9Q8.75 4.2 9.25 4.3L9.7 4.35Q10.7 4.35 11.35 3.65Q12.05 3 12.05 2Q12.05 1.05 11.35 0.35M-9.95,-0.35L-10.95 0.05L-11.3 0.3L-11.35 0.35Q-12.05 1.05 -12.05 2Q-12.05 3 -11.35 3.65L-10.9 4L-9.7 4.35Q-8.7 4.35 -8.05 3.65Q-7.35 3 -7.35 2Q-7.35 1.05 -8.05 0.35Q-8.7 -0.35 -9.7 -0.35L-9.9 -0.35L-9.95 -0.35" />
</g>
</svg>
