<?xml version="1.0" encoding="utf-8"?>
<svg version="1.1" id="Layer_1"
xmlns="http://www.w3.org/2000/svg"
xmlns:xlink="http://www.w3.org/1999/xlink"
xmlns:author="http://www.sothink.com"
width="29px" height="22px"
xml:space="preserve">
<g id="1681" transform="matrix(1, 0, 0, 1, 14.15, 10.6)">
<path style="fill:#FFFFFF;fill-opacity:1" d="M12.4,8.9L-12.4 8.9L-12.4 -8.8L12.4 -8.8L12.4 8.9" />
<path style="fill:#000000;fill-opacity:1" d="M14.15,10.65L-14.15 10.65L-14.15 -10.6L14.15 -10.6L14.15 10.65M10.6,-7.05L-10.65 -7.05L-10.65 7.1L10.6 7.1L10.6 -7.05" />
<path style="fill:#FFFFFF;fill-opacity:1" d="M12.4,8.9L-12.4 8.9L-12.4 -8.8L12.4 -8.8L12.4 8.9" />
<path style="fill:#000000;fill-opacity:1" d="M-0.05,-1.85Q1.05 -1.85 1.8 -1.05Q2.6 -0.25 2.6 0.85L2.6 3.85Q2.6 4.95 1.8 5.75Q1.05 6.5 -0.05 6.5Q-1.15 6.5 -1.95 5.75Q-2.7 4.95 -2.7 3.85L-2.7 0.85Q-2.7 -0.25 -1.95 -1.05Q-1.15 -1.85 -0.05 -1.85" />
<path style="fill:#000000;fill-opacity:1" d="M-7.9,3.4Q-8.4 3.95 -9.15 3.95L-12.4 3.95Q-13.15 3.95 -13.65 3.4Q-14.15 2.9 -14.15 2.2Q-14.15 1.45 -13.65 0.95Q-13.15 0.4 -12.4 0.4L-9.15 0.4Q-8.4 0.4 -7.9 0.95Q-7.4 1.45 -7.4 2.2Q-7.4 2.9 -7.9 3.4" />
<path style="fill:#000000;fill-opacity:1" d="M9.1,0.4L12.4 0.4Q13.1 0.4 13.65 0.95Q14.15 1.45 14.15 2.2Q14.15 2.9 13.65 3.4Q13.1 3.95 12.4 3.95L9.1 3.95Q8.4 3.95 7.85 3.4Q7.35 2.9 7.35 2.2Q7.35 1.45 7.85 0.95Q8.4 0.4 9.1 0.4" />
<path style="fill:#000000;fill-opacity:1" d="M14.15,-3.85L-14.15 -3.85L-14.15 -6.5L14.15 -6.5L14.15 -3.85" />
</g>
</svg>
