<?xml version="1.0" encoding="utf-8"?>
<svg version="1.1" id="Layer_1"
xmlns="http://www.w3.org/2000/svg"
xmlns:xlink="http://www.w3.org/1999/xlink"
xmlns:author="http://www.sothink.com"
width="26px" height="26px"
xml:space="preserve">
<g id="1666" transform="matrix(1, 0, 0, 1, 12.6, 12.55)">
<path style="fill:#000000;fill-opacity:1" d="M-0.05,-12.55Q5.15 -12.55 8.85 -8.85Q12.55 -5.15 12.55 0.05Q12.55 5.25 8.85 8.9Q5.15 12.6 -0.05 12.6Q-5.2 12.6 -8.9 8.9Q-12.6 5.25 -12.6 0.05Q-12.6 -5.15 -8.9 -8.85Q-5.25 -12.55 -0.05 -12.55" />
<path style="fill:#FFFFFF;fill-opacity:1" d="M-0.05,-10.55Q4.35 -10.55 7.45 -7.45Q10.55 -4.35 10.55 0.05Q10.55 4.4 7.45 7.5Q4.35 10.6 -0.05 10.6Q-4.4 10.6 -7.5 7.5Q-10.6 4.4 -10.6 0.05Q-10.6 -4.35 -7.5 -7.45Q-4.4 -10.55 -0.05 -10.55" />
<path style="fill:#000000;fill-opacity:1" d="M-7.05,-0.8Q-6.7 -0.45 -6.7 0.05Q-6.7 2.8 -4.75 4.75Q-2.8 6.7 -0.05 6.7Q0.45 6.7 0.8 7.05Q1.15 7.35 1.15 7.85L0.8 8.7Q0.45 9.05 -0.05 9.05Q-3.75 9.05 -6.4 6.4Q-9.05 3.75 -9.05 0.05L-8.7 -0.8Q-8.35 -1.15 -7.85 -1.15Q-7.35 -1.15 -7.05 -0.8M-0.05,-3.9Q1.6 -3.9 2.75 -2.75Q3.9 -1.6 3.9 0.05Q3.9 1.65 2.75 2.8Q1.6 3.95 -0.05 3.95Q-1.65 3.95 -2.8 2.8Q-3.95 1.65 -3.95 0.05Q-3.95 -1.6 -2.8 -2.75Q-1.65 -3.9 -0.05 -3.9" />
</g>
</svg>
