<?xml version="1.0" encoding="utf-8"?>
<svg version="1.1" id="Layer_1"
xmlns="http://www.w3.org/2000/svg"
xmlns:xlink="http://www.w3.org/1999/xlink"
xmlns:author="http://www.sothink.com"
width="29px" height="21px"
xml:space="preserve">
<g id="1674" transform="matrix(1, 0, 0, 1, 14.15, 10.3)">
<path style="fill:#000000;fill-opacity:1" d="M-8.8,-5.95Q-8.6 -6.35 -7.95 -6.35Q-7.6 -6.25 -7.6 -6.6L-7.6 -7.6L-7.35 -8.25Q-7.05 -8.65 -6.75 -8.45Q-5.9 -7.75 -4.3 -7.35L-4.2 -7.3L9.05 -7.3L10.1 -8.2L10.7 -8.45L11.3 -8.45L11.85 -8.2L12.15 -7.7L12.25 -7.15L12.4 -6.85L12.4 -6.4L12.4 -3.7L12.15 -3.1Q11.9 -2.85 11.55 -2.85L6.2 -2.85L6.2 -1.95Q6 -1.3 5.35 -1.3L2.25 -1.3L1.3 0.6L0.7 1.4Q-0.2 2.25 -1.75 2.25L-4.35 2.25L-5.2 5.55Q-5.1 7.8 -5.25 8L-5.7 8.5Q-5.9 8.75 -12.3 6.75Q-12.55 6.65 -12.05 4.45L-11.45 2.3L-11 0.45Q-10.45 -1.5 -9.75 -2.25Q-9.1 -3.05 -8.9 -4.35L-8.85 -5.55L-8.8 -5.95M0.5,-0.5Q0.5 -1.2 -0.15 -1.65Q-0.8 -2.15 -1.75 -2.15Q-2.7 -2.15 -3.35 -1.65Q-4 -1.2 -4 -0.5Q-4 0.2 -3.35 0.7Q-2.7 1.2 -1.75 1.2L-0.85 1.1Q0.15 0.75 0.45 -0.05L0.5 -0.5" />
<path style="fill:#000000;fill-opacity:1" d="M-3.9,-9.1L8.4 -9.05L8.95 -9.55Q9.65 -10.2 10.7 -10.2L11.3 -10.2Q12.3 -10.2 13.05 -9.55Q13.8 -8.9 13.95 -7.95L13.95 -7.9Q14.25 -7.35 14.2 -6.5L14.2 -3.7Q14.2 -2.65 13.45 -1.85Q12.6 -1.05 11.55 -1.05L7.75 -1.05Q7.4 -0.35 6.8 0.05L5.35 0.45L3.35 0.45L2.95 1.3Q2.55 2.35 1.5 3.05Q0.15 4 -1.75 4L-3 4L-3.45 5.75L-3.45 8.15Q-3.55 8.75 -3.95 9.2L-4.4 9.7Q-4.95 10.35 -5.8 10.35L-12.8 8.5L-12.95 8.4Q-14.15 7.95 -14.15 6.4Q-14.15 5.15 -13.2 1.85Q-12.4 -1.9 -11.1 -3.45Q-10.8 -3.75 -10.7 -4.5Q-10.6 -5 -10.65 -5.4Q-10.7 -6.5 -10 -7.3L-9.4 -7.75Q-9.3 -8.75 -8.6 -9.5Q-7.95 -10.3 -7 -10.3Q-6.2 -10.3 -5.65 -9.8Q-5.1 -9.4 -3.9 -9.1M-4.85,-5.65L-5.9 -6Q-6.2 -5.05 -7.1 -4.7Q-7.25 -2.5 -8.4 -1.1L-9.15 0.55L-9.7 2.65L-9.75 2.75L-10.45 5.45L-6.95 6.45L-7 5.4L-5.75 0.5L-5.65 0.5L-5.8 -0.5Q-5.8 -1.95 -4.6 -2.95Q-3.45 -3.95 -1.75 -3.95Q-0.1 -3.95 1.05 -3L1.1 -3.1L4.4 -3.1L4.4 -4.6L10.65 -4.6L10.65 -6.05L10.6 -6.05L10.55 -6.25L9.75 -5.55L-4.6 -5.55L-4.85 -5.65" />
<path style="fill:#FFFFFF;fill-opacity:1" d="M-8.8,-5.95Q-8.6 -6.35 -7.95 -6.35Q-7.6 -6.25 -7.6 -6.6L-7.6 -7.6L-7.35 -8.25Q-7.05 -8.65 -6.75 -8.45Q-5.9 -7.75 -4.3 -7.35L-4.2 -7.3L9.05 -7.3L10.1 -8.2L10.7 -8.45L11.3 -8.45L11.85 -8.2L12.15 -7.7L12.25 -7.15L12.4 -6.85L12.4 -6.4L12.4 -3.7L12.15 -3.1Q11.9 -2.85 11.55 -2.85L6.2 -2.85L6.2 -1.95Q6 -1.3 5.35 -1.3L2.25 -1.3L1.3 0.6L0.7 1.4Q-0.2 2.25 -1.75 2.25L-4.35 2.25L-5.2 5.55Q-5.1 7.8 -5.25 8L-5.7 8.5Q-5.9 8.75 -12.3 6.75Q-12.55 6.65 -12.05 4.45L-11.45 2.3L-11 0.45Q-10.45 -1.5 -9.75 -2.25Q-9.1 -3.05 -8.9 -4.35L-8.85 -5.55L-8.8 -5.95M0.5,-0.5Q0.5 -1.2 -0.15 -1.65Q-0.8 -2.15 -1.75 -2.15Q-2.7 -2.15 -3.35 -1.65Q-4 -1.2 -4 -0.5Q-4 0.2 -3.35 0.7Q-2.7 1.2 -1.75 1.2L-0.85 1.1Q0.15 0.75 0.45 -0.05L0.5 -0.5" />
</g>
</svg>
