<?xml version="1.0" encoding="utf-8"?>
<svg version="1.1" id="Layer_1"
xmlns="http://www.w3.org/2000/svg"
xmlns:xlink="http://www.w3.org/1999/xlink"
xmlns:author="http://www.sothink.com"
width="6px" height="13px"
xml:space="preserve">
<g id="1663" transform="matrix(1, 0, 0, 1, 2.9, 5)">
<path style="fill:#000000;fill-opacity:1" d="M2.25,-4.3Q3.05 -3.6 3.05 -2.3L3.05 -1Q3.05 -0.3 2.7 0.3L1.8 1.05Q2.4 1.3 2.75 1.85Q3.1 2.4 3.1 3.1L3.1 5Q3.1 6.3 2.25 7Q1.45 7.7 0.05 7.7Q-1.4 7.7 -2.15 7Q-2.9 6.3 -2.9 5L-2.9 3.65L-1.05 3.65L-1.05 4.95L-0.8 5.9L0.05 6.2Q0.6 6.2 0.9 5.9L1.2 4.95L1.2 3.1L0.9 2.2Q0.65 1.85 0.05 1.85L-1 1.85L-1 0.5L0 0.5Q0.6 0.5 0.9 0.15L1.15 -0.8L1.15 -2.25L0.85 -3.2L0.05 -3.5L-0.8 -3.2L-1.05 -2.25L-1.05 -0.9L-2.9 -0.9L-2.9 -2.3Q-2.9 -3.6 -2.15 -4.3Q-1.4 -5 0.05 -5Q1.45 -5 2.25 -4.3" />
</g>
</svg>
