<?xml version="1.0" encoding="utf-8"?>
<svg version="1.1" id="Layer_1"
xmlns="http://www.w3.org/2000/svg"
xmlns:xlink="http://www.w3.org/1999/xlink"
xmlns:author="http://www.sothink.com"
width="29px" height="20px"
xml:space="preserve">
<g id="1683" transform="matrix(1, 0, 0, 1, 14.15, 9.7)">
<path style="fill:#000000;fill-opacity:1" d="M14.15,-9.7L14.15 9.75L-14.15 9.75L-14.15 -9.7L14.15 -9.7" />
<path style="fill:#FFFFFF;fill-opacity:1" d="M11.95,-7.5L11.95 7.55L-11.95 7.55L-11.95 -7.5L11.95 -7.5" />
<path style="fill:#000000;fill-opacity:1" d="M2.4,-4.6L3 -4.25L2.4 -2.5Q1.7 -3.15 0.55 -3.15L-0.5 -2.85L-0.9 -2.1L-0.65 -1.4Q-0.35 -1.05 0.5 -0.75Q3.05 0.25 3 2.15Q3 3.35 2.15 4.1Q1.25 4.9 -0.3 4.9Q-1.6 4.9 -2.4 4.45L-3 4.05L-2.4 2.3L-1.7 2.7Q-0.85 3.1 -0.2 3.1Q1.05 3.15 1.05 2.25L0.8 1.6Q0.5 1.3 -0.4 0.95L-2.1 -0.1Q-2.9 -0.85 -2.85 -2Q-2.85 -3.3 -1.95 -4.1Q-1 -4.95 0.6 -4.9L2.4 -4.6" />
<path style="fill:#000000;fill-opacity:1" d="M1.25,-6.2L1.25 -3.65L-0.5 -3.65L-0.5 -6.2L1.25 -6.2" />
<path style="fill:#000000;fill-opacity:1" d="M1.25,6.15L-0.5 6.15L-0.5 3.6L1.25 3.6L1.25 6.15" />
<path style="fill:#000000;fill-opacity:1" d="M-9.6,-8.9Q-8.85 -8.15 -8.85 -7.05Q-8.85 -5.95 -9.6 -5.15Q-10.4 -4.4 -11.5 -4.4Q-12.6 -4.4 -13.4 -5.15Q-14.15 -5.95 -14.15 -7.05Q-14.15 -8.15 -13.4 -8.9Q-12.6 -9.7 -11.5 -9.7Q-10.4 -9.7 -9.6 -8.9" />
<path style="fill:#000000;fill-opacity:1" d="M14.15,-7.05Q14.15 -5.95 13.4 -5.15Q12.6 -4.4 11.5 -4.4Q10.4 -4.4 9.65 -5.15Q8.85 -5.95 8.85 -7.05Q8.85 -8.15 9.65 -8.9Q10.4 -9.7 11.5 -9.7Q12.6 -9.7 13.4 -8.9Q14.15 -8.15 14.15 -7.05" />
<path style="fill:#000000;fill-opacity:1" d="M-9.6,5.2Q-8.85 6 -8.85 7.1Q-8.85 8.2 -9.6 8.95Q-10.4 9.75 -11.5 9.75Q-12.6 9.75 -13.4 8.95Q-14.15 8.2 -14.15 7.1Q-14.15 6 -13.4 5.2Q-12.6 4.45 -11.5 4.45Q-10.4 4.45 -9.6 5.2" />
<path style="fill:#000000;fill-opacity:1" d="M14.15,7.1Q14.15 8.2 13.4 8.95Q12.6 9.75 11.5 9.75Q10.4 9.75 9.65 8.95Q8.85 8.2 8.85 7.1Q8.85 6 9.65 5.2Q10.4 4.45 11.5 4.45Q12.6 4.45 13.4 5.2Q14.15 6 14.15 7.1" />
</g>
</svg>
