<?xml version="1.0" encoding="utf-8"?>
<svg version="1.1" id="Layer_1"
xmlns="http://www.w3.org/2000/svg"
xmlns:xlink="http://www.w3.org/1999/xlink"
xmlns:author="http://www.sothink.com"
width="29px" height="29px"
xml:space="preserve">
<g id="1650" transform="matrix(1, 0, 0, 1, 14.25, 14.3)">
<path style="fill:#000000;fill-opacity:1" d="M1.05,-9.5Q4.35 -9.1 6.75 -6.75Q9.1 -4.35 9.45 -1.05L12.5 -1.05L12.5 1.1L9.45 1.1Q9.1 4.45 6.75 6.8Q4.35 9.15 1.05 9.55L1.05 12.6L-1.1 12.6L-1.1 9.55Q-4.4 9.2 -6.75 6.8Q-9.1 4.45 -9.5 1.1L-12.5 1.1L-12.5 -1.05L-9.5 -1.05Q-9.1 -4.4 -6.75 -6.75Q-4.4 -9.1 -1.1 -9.5L-1.1 -12.55L1.05 -12.55L1.05 -9.5" />
<path style="fill:none;stroke-width:3.55;stroke-linecap:round;stroke-linejoin:round;stroke-miterlimit:3;stroke:#000000;stroke-opacity:1" d="M1.05,-12.55L-1.1 -12.55L-1.1 -9.5Q-4.4 -9.1 -6.75 -6.75Q-9.1 -4.4 -9.5 -1.05L-12.5 -1.05L-12.5 1.1L-9.5 1.1Q-9.1 4.45 -6.75 6.8Q-4.4 9.2 -1.1 9.55L-1.1 12.6L1.05 12.6L1.05 9.55Q4.35 9.15 6.75 6.8Q9.1 4.45 9.45 1.1L12.5 1.1L12.5 -1.05L9.45 -1.05Q9.1 -4.35 6.75 -6.75Q4.35 -9.1 1.05 -9.5L1.05 -12.55z" />
<path style="fill:#F5F5F5;fill-opacity:1" d="M0,-7.8L-1.1 -7.7Q-3.65 -7.35 -5.5 -5.5Q-7.35 -3.65 -7.7 -1.05L-7.65 -1.05L-7.75 0.05L-7.65 1.1L-7.7 1.1Q-7.35 3.7 -5.5 5.55Q-3.65 7.4 -1.1 7.75L0 7.85L1.05 7.75Q3.65 7.4 5.5 5.55Q7.35 3.7 7.7 1.1L7.65 1.1L7.65 -1.05L7.7 -1.05Q7.35 -3.65 5.5 -5.5Q3.65 -7.35 1.05 -7.7L0 -7.8M0.95,-5L2.15 -4.6Q3.05 -4.1 3.25 -2.75L1.2 -2.45L0.95 -3L0.9 -3.15L0.4 -3.5L-0.55 -3.55L-1 -3.3L-1.15 -3.2L-1.4 -2.55Q-1.4 -1.85 -0.55 -1.55L1.95 -0.75L2.5 -0.4L3.25 0.5L3.45 1L3.55 1.8L3.2 3.2L2.1 4.35L0.95 4.8L0.85 4.8L0.85 6.7L-0.95 6.7L-0.95 4.85L-1 4.8L-1.8 4.6Q-2.45 4.4 -3 3.75Q-3.55 3.2 -3.8 1.95L-1.6 1.75L-1.3 2.6L-1 2.9L-0.55 3.2L0.4 3.25L0.95 3L1.25 2.8L1.5 2.05L1.3 1.5L0.95 1.15L0.4 0.9L-0.55 0.6L-1.95 0.1L-3 -0.75L-3.15 -1Q-3.45 -1.5 -3.45 -2.35L-3.2 -3.55L-2.3 -4.6L-1 -5.1L-0.95 -5.1L-0.95 -6.75L0.85 -6.75L0.85 -5.05L0.95 -5M6.75,-6.75Q9.1 -4.35 9.45 -1.05L12.5 -1.05L12.5 1.1L9.45 1.1Q9.1 4.45 6.75 6.8Q4.35 9.15 1.05 9.55L1.05 12.6L-1.1 12.6L-1.1 9.55Q-4.4 9.2 -6.75 6.8Q-9.1 4.45 -9.5 1.1L-12.5 1.1L-12.5 -1.05L-9.5 -1.05Q-9.1 -4.4 -6.75 -6.75Q-4.4 -9.1 -1.1 -9.5L-1.1 -12.55L1.05 -12.55L1.05 -9.5Q4.35 -9.1 6.75 -6.75" />
</g>
</svg>
