<?xml version="1.0" encoding="utf-8"?>
<svg version="1.1" id="Layer_1"
xmlns="http://www.w3.org/2000/svg"
xmlns:xlink="http://www.w3.org/1999/xlink"
xmlns:author="http://www.sothink.com"
width="6px" height="13px"
xml:space="preserve">
<g id="1662" transform="matrix(1, 0, 0, 1, 2.8, 5)">
<path style="fill:#000000;fill-opacity:1" d="M2.2,-4.3Q2.95 -3.6 2.95 -2.3L2.95 -0.6L2.8 0.4L2.3 1.25L1.65 2L0.85 2.6L-0.5 3.8Q-0.9 4.3 -0.9 5L-0.9 6.05L3.1 6.05L3.1 7.55L-2.8 7.55L-2.8 4.95L-2.6 3.95L-2.15 3.1L-1.5 2.35L-0.7 1.7L0.65 0.55Q1.1 0.05 1.1 -0.7L1.1 -2.25Q1.1 -3.5 0.05 -3.5Q-0.95 -3.5 -0.95 -2.25L-0.95 -0.9L-2.8 -0.9L-2.8 -2.3Q-2.8 -3.6 -2.05 -4.3Q-1.3 -5 0.05 -5Q1.45 -5 2.2 -4.3" />
</g>
</svg>
