<?xml version="1.0" encoding="utf-8"?>
<svg version="1.1" id="Layer_1"
xmlns="http://www.w3.org/2000/svg"
xmlns:xlink="http://www.w3.org/1999/xlink"
xmlns:author="http://www.sothink.com"
width="26px" height="26px"
xml:space="preserve">
<g id="1657" transform="matrix(1, 0, 0, 1, 12.9, 12.9)">
<path style="fill:#000000;fill-opacity:1" d="M9.15,-9.1Q12.9 -5.35 12.9 0Q12.9 5.3 9.15 9.1Q5.35 12.9 0 12.9Q-5.3 12.9 -9.1 9.1Q-10.9 7.3 -11.8 5.25Q-12.9 2.8 -12.9 0Q-12.9 -2.9 -11.8 -5.25Q-10.9 -7.4 -9.1 -9.1Q-5.3 -12.9 0 -12.9Q5.35 -12.9 9.15 -9.1" />
<path style="fill:#FFFFFF;fill-opacity:1" d="M7.75,-7.7Q10.9 -4.55 10.9 0Q10.9 4.5 7.75 7.7Q4.55 10.9 0 10.9Q-4.5 10.9 -7.7 7.7Q-9.2 6.2 -9.95 4.45Q-10.9 2.4 -10.9 0Q-10.9 -2.4 -10 -4.4L-9.95 -4.45Q-9.2 -6.2 -7.7 -7.65L-7.7 -7.7Q-4.5 -10.9 0 -10.9Q4.55 -10.9 7.75 -7.7" />
</g>
</svg>
