<?xml version="1.0" encoding="utf-8"?>
<svg version="1.1" id="Layer_1"
xmlns="http://www.w3.org/2000/svg"
xmlns:xlink="http://www.w3.org/1999/xlink"
xmlns:author="http://www.sothink.com"
width="27px" height="29px"
xml:space="preserve">
<g id="1677" transform="matrix(1, 0, 0, 1, 13.5, 14.15)">
<path style="fill:#000000;fill-opacity:1" d="M7.05,-12.4L7.05 -9.75L4.4 -9.75L4.4 -2.8L11.55 10.85Q11.9 11.5 11.6 11.95Q11.35 12.4 10.6 12.4L-10.65 12.4Q-11.4 12.4 -11.65 11.95Q-11.95 11.45 -11.6 10.85L-4.45 -2.8L-4.45 -9.75L-7.1 -9.75L-7.1 -12.4L7.05 -12.4" />
<path style="fill:#000000;fill-opacity:1" d="M8.85,-14.15L8.85 -7.95L6.2 -7.95L6.2 -3.2L13.1 10Q13.5 10.7 13.5 11.45Q13.55 12.25 13.15 12.85Q12.35 14.15 10.6 14.15L-10.65 14.15Q-12.35 14.15 -13.15 12.85Q-13.55 12.25 -13.5 11.45L-13.15 10L-6.2 -3.2L-6.2 -7.95L-8.85 -7.95L-8.85 -14.15L8.85 -14.15M-2.65,-2.35L-9.5 10.65L9.45 10.65L2.65 -2.35L2.65 -10.6L-2.65 -10.6L-2.65 -2.35" />
<path style="fill:#FFFFFF;fill-opacity:1" d="M7.05,-12.4L7.05 -9.75L4.4 -9.75L4.4 -2.8L11.55 10.85Q11.9 11.5 11.6 11.95Q11.35 12.4 10.6 12.4L-10.65 12.4Q-11.4 12.4 -11.65 11.95Q-11.95 11.45 -11.6 10.85L-4.45 -2.8L-4.45 -9.75L-7.1 -9.75L-7.1 -12.4L7.05 -12.4" />
<path style="fill:#000000;fill-opacity:1" d="M4.7,1.35L9.45 10.75L-10 10.75L-5 1.35L4.7 1.35" />
<path style="fill:#000000;fill-opacity:1" d="M2.8,-3.25Q2.8 -2.6 2.3 -2.1Q1.85 -1.6 1.15 -1.6Q0.5 -1.6 0 -2.1Q-0.45 -2.6 -0.45 -3.25Q-0.45 -3.95 0 -4.4Q0.5 -4.9 1.15 -4.9Q1.85 -4.9 2.3 -4.4Q2.8 -3.95 2.8 -3.25" />
<path style="fill:#000000;fill-opacity:1" d="M0.45,-7.95Q0.45 -7.3 -0.05 -6.85Q-0.5 -6.35 -1.2 -6.35Q-1.85 -6.35 -2.35 -6.85L-2.8 -7.95L-2.35 -9.1Q-1.85 -9.6 -1.2 -9.6Q-0.5 -9.6 -0.05 -9.1Q0.45 -8.65 0.45 -7.95" />
</g>
</svg>
