<?xml version="1.0" encoding="utf-8"?>
<svg version="1.1" id="Layer_1"
xmlns="http://www.w3.org/2000/svg"
xmlns:xlink="http://www.w3.org/1999/xlink"
xmlns:author="http://www.sothink.com"
width="28px" height="29px"
xml:space="preserve">
<g id="1673" transform="matrix(1, 0, 0, 1, 13.8, 14.15)">
<path style="fill:#000000;fill-opacity:1" d="M-10.6,-4.1Q-11.1 -5.3 -11.2 -6.4L-11.2 -6.5L-10.95 -6.9Q-10.7 -7.1 -10.4 -6.9Q-4.9 -3.25 -1.9 2.05Q-2.3 -0.75 -2.3 -3.45Q-2.3 -8.25 -0.45 -12.1L0 -12.4Q0.35 -12.4 0.5 -12.1Q2.35 -8.25 2.35 -3.45Q2.35 -0.75 1.95 2.05Q4.95 -3.2 10.45 -6.9Q10.75 -7.1 11 -6.9L11.25 -6.5L11.25 -6.4Q11.15 -5.3 10.65 -4.1L9.55 -2.05Q7.65 1.1 4.2 4.4Q7.75 2.85 11.55 2.8L12.05 3.1L12.1 3.3L11.95 3.65Q11.15 4.55 9.75 5.3L6.9 6.4L4.5 7.1Q6.45 7.4 7.3 8.3L7.45 8.65L7.4 8.8L7.05 9.15L5.55 9.3L3.2 9L1.15 8.35L0.95 8.25L0.85 11.1Q0.85 12.1 0.25 12.35L0 12.4L-0.2 12.35Q-0.75 12.1 -0.8 11.1L-0.85 9.85L-0.9 8.25L-1.1 8.35L-3.15 9L-5.5 9.3L-7 9.15L-7.35 8.8L-7.4 8.65L-7.25 8.3Q-6.4 7.4 -4.45 7.1L-6.85 6.4L-9.65 5.3L-11.9 3.65L-12.05 3.3L-12 3.1Q-11.8 2.8 -11.5 2.8Q-7.7 2.85 -4.15 4.4Q-7.65 1.1 -9.5 -2.05L-10.6 -4.1" />
<path style="fill:#000000;fill-opacity:1" d="M-9.4,-8.4Q-6.4 -6.35 -4.1 -3.95Q-4 -8.9 -2.05 -12.9L-1.2 -13.8L0 -14.15Q0.7 -14.15 1.25 -13.8L2.1 -12.9Q4.05 -8.85 4.15 -3.95Q6.45 -6.35 9.45 -8.4Q10 -8.75 10.65 -8.75L11.9 -8.45L12.75 -7.6L13.05 -6.5L13.05 -6.3L13 -6.25Q12.85 -4.85 12.3 -3.45L11.05 -1.15L9.55 1.15L11.55 1L12.8 1.35L13.65 2.35L13.85 3.3Q13.85 4.2 13.3 4.85Q11.85 6.45 8.95 7.55L9.2 8.65L9.15 9.3Q8.7 10.65 7.4 10.9L5.55 11.1L2.65 10.7L2.65 11.15Q2.55 13.3 0.95 13.95L0 14.15L-0.9 14Q-2.5 13.25 -2.6 11.15L-2.6 10.7L-5.5 11.1L-7.35 10.9Q-7.95 10.8 -8.4 10.35L-9.1 9.35L-9.15 8.65L-8.9 7.55Q-11.8 6.45 -13.25 4.85Q-13.8 4.2 -13.8 3.3L-13.6 2.35L-12.75 1.35Q-12.2 1 -11.5 1L-9.5 1.15L-11 -1.15L-12.25 -3.45Q-12.85 -4.85 -13 -6.2L-13 -6.5L-12.7 -7.6L-11.9 -8.45L-10.65 -8.75Q-9.95 -8.75 -9.4 -8.4M0,-8.1Q-0.55 -5.9 -0.55 -3.45L-0.1 1.75L0 2.7L0.15 1.75L0.6 -3.45Q0.6 -5.8 0 -8.1M-7.6,-2.35Q-6.15 -0.15 -3.85 2.2Q-5.4 -0.25 -7.6 -2.35M7.65,-2.35Q5.5 -0.3 3.9 2.15Q6.2 -0.1 7.65 -2.35" />
<path style="fill:#FFFFFF;fill-opacity:1" d="M-10.6,-4.1Q-11.1 -5.3 -11.2 -6.4L-11.2 -6.5L-10.95 -6.9Q-10.7 -7.1 -10.4 -6.9Q-4.9 -3.25 -1.9 2.05Q-2.3 -0.75 -2.3 -3.45Q-2.3 -8.25 -0.45 -12.1L0 -12.4Q0.35 -12.4 0.5 -12.1Q2.35 -8.25 2.35 -3.45Q2.35 -0.75 1.95 2.05Q4.95 -3.2 10.45 -6.9Q10.75 -7.1 11 -6.9L11.25 -6.5L11.25 -6.4Q11.15 -5.3 10.65 -4.1L9.55 -2.05Q7.65 1.1 4.2 4.4Q7.75 2.85 11.55 2.8L12.05 3.1L12.1 3.3L11.95 3.65Q11.15 4.55 9.75 5.3L6.9 6.4L4.5 7.1Q6.45 7.4 7.3 8.3L7.45 8.65L7.4 8.8L7.05 9.15L5.55 9.3L3.2 9L1.15 8.35L0.95 8.25L0.85 11.1Q0.85 12.1 0.25 12.35L0 12.4L-0.2 12.35Q-0.75 12.1 -0.8 11.1L-0.85 9.85L-0.9 8.25L-1.1 8.35L-3.15 9L-5.5 9.3L-7 9.15L-7.35 8.8L-7.4 8.65L-7.25 8.3Q-6.4 7.4 -4.45 7.1L-6.85 6.4L-9.65 5.3L-11.9 3.65L-12.05 3.3L-12 3.1Q-11.8 2.8 -11.5 2.8Q-7.7 2.85 -4.15 4.4Q-7.65 1.1 -9.5 -2.05L-10.6 -4.1" />
</g>
</svg>
