<?xml version="1.0" encoding="utf-8"?>
<svg version="1.1" id="Layer_1"
xmlns="http://www.w3.org/2000/svg"
xmlns:xlink="http://www.w3.org/1999/xlink"
xmlns:author="http://www.sothink.com"
width="26px" height="26px"
xml:space="preserve">
<g id="535" transform="matrix(1, 0, 0, 1, 0, 0)">
<path style="fill:#000000;fill-opacity:1" d="M9.25,1.35Q9.85 2.1 9.75 3.1L10.8 3.55L11 3.35Q11.8 2.65 12.7 2.65Q13.4 2.65 14.2 3.2L14.25 3.25L14.4 3.45L14.5 3.55Q15 4.05 15.05 4.85Q15.1 5.65 14.6 6.35L19.6 11.35Q21.3 13.05 21.3 15.45L21.25 16.1L22.6 17.45Q23.15 18 23.4 19.45L23.4 19.9L24.65 21.15L25.05 21.75L25.7 23.55Q26.05 24.55 25.3 25.25Q24.8 25.75 24.15 25.75L23.6 25.65L21.75 24.95L21.15 24.55L19.95 23.35L19.6 23.35L19.5 23.3Q18.1 23.15 17.5 22.55L16.15 21.2L15.45 21.25Q13.05 21.25 11.35 19.55L6.35 14.55Q5.75 15 5 15Q4.25 15 3.6 14.5L3.45 14.4L3.15 14.1Q2.65 13.5 2.65 12.65Q2.65 11.65 3.35 11L3.55 10.8Q3.2 10.35 3.1 9.7L2.85 9.75Q1.95 9.75 1.45 9.25L1.25 9.1L0.6 8.5L0.5 8.35Q0 7.75 0 6.9Q0.05 5.95 0.7 5.25L5.25 0.7Q5.95 0 6.95 0Q7.85 0 8.45 0.6L8.5 0.6L9.25 1.35" />
<path style="fill:#FFFFFF;fill-opacity:1" d="M12.2,6.25L18.45 12.5Q19.65 13.65 19.65 15.45L19.5 16.65L21.45 18.6L21.75 19.65L21.75 19.75L21.35 20.15L23.5 22.3L24.15 24.1L22.3 23.4L20.2 21.3L19.8 21.7L19.7 21.7Q18.95 21.7 18.65 21.4L16.7 19.45Q14.3 20.2 12.5 18.4L6.3 12.2L7.15 11.3L9.2 13.35L17.55 13.35L11.35 7.15L12.2 6.25" />
<path style="fill:#FFFFFF;fill-opacity:1" d="M7.05,1.6L7.35 1.75L8 2.4L8.1 2.7Q8.2 3.05 7.9 3.35L6.25 5L7.55 6.25L8.7 5.1L9.1 4.8L9.85 4.85L10.85 5.85L12.15 4.5Q12.45 4.2 12.8 4.25L13.1 4.4L13.25 4.6L13.4 4.9L13.15 5.5L5.5 13.15L4.6 13.25L4.45 13.05Q4.05 12.6 4.5 12.15L5.85 10.8L4.85 9.8Q4.55 9.5 4.8 9.1L5.1 8.7L6.3 7.5L5 6.25L3.35 7.85L2.4 7.95L1.8 7.3Q1.4 6.85 1.85 6.4L6.4 1.85Q6.7 1.55 7.05 1.6" />
</g>
</svg>
