<?xml version="1.0" encoding="utf-8"?>
<svg version="1.1" id="Layer_1"
xmlns="http://www.w3.org/2000/svg"
xmlns:xlink="http://www.w3.org/1999/xlink"
xmlns:author="http://www.sothink.com"
width="52px" height="14px"
xml:space="preserve">
<g id="1726" transform="matrix(1, 0, 0, 1, 0, 0)">
<path style="fill:#FFFFFF;fill-opacity:1" d="M51.05,13.25L0.95 13.25L0.95 0.8L51.05 0.8L51.05 13.25" />
<path style="fill:#000000;fill-opacity:1" d="M21.85,4.2L19.1 9.55L18 9.55L17.1 4.2L18.15 4.2L18.75 8.25L20.85 4.2L21.85 4.2" />
<path style="fill:#000000;fill-opacity:1" d="M25.85,5.1L23.2 5.1L22.95 6.3L25.55 6.3L25.35 7.2L22.75 7.2L22.45 8.65L25.35 8.65L25.2 9.55L21.25 9.55L22.3 4.2L26.05 4.2L25.85 5.1" />
<path style="fill:#000000;fill-opacity:1" d="M30.85,5.6Q30.85 6.25 30.45 6.75Q30.1 7.15 29.3 7.3L29.7 7.8L30.45 9.55L29.35 9.55L28.8 8.15L28.35 7.45L27.85 7.35L27.45 7.35L27 9.55L25.95 9.55L27 4.2L29.25 4.2L30.15 4.3L30.65 4.8L30.85 5.6M27.85,5.1L27.6 6.55L29.25 6.45L29.65 6.1L29.8 5.6L29.6 5.2L29 5.1L27.85 5.1" />
<path style="fill:#000000;fill-opacity:1" d="M33.05,4.2L32 9.55L30.95 9.55L32 4.2L33.05 4.2" />
<path style="fill:#000000;fill-opacity:1" d="M37.3,5.1L34.85 5.1L34.6 6.4L37 6.4L36.85 7.3L34.4 7.3L33.95 9.55L32.95 9.55L34 4.2L37.5 4.2L37.3 5.1" />
<path style="fill:#000000;fill-opacity:1" d="M39.25,4.2L38.2 9.55L37.2 9.55L38.25 4.2L39.25 4.2" />
<path style="fill:#000000;fill-opacity:1" d="M41.1,5.1L40.85 6.3L43.45 6.3L43.25 7.2L40.65 7.2L40.35 8.65L43.3 8.65L43.1 9.55L39.2 9.55L40.25 4.2L43.95 4.2L43.75 5.1L41.1 5.1" />
<path style="fill:#000000;fill-opacity:1" d="M45.8,5.1L45.05 8.7L45.6 8.7L46.4 8.65L46.9 8.35L47.4 7.55L47.6 6.4L47.45 5.55L47 5.15L45.8 5.1M48.55,5.7L48.65 6.45L48.35 7.95L47.55 9.05Q47.2 9.35 46.65 9.5L45.65 9.55L43.85 9.55L44.9 4.2L47 4.2L47.55 4.35L48 4.65L48.35 5.1L48.55 5.7" />
<path style="fill:#000000;fill-opacity:1" d="M51.7,12.35Q51.7 13.05 51.2 13.5Q50.75 14 50.05 14L1.65 14Q1 14 0.5 13.5Q0 13.05 0 12.35L0 1.65Q0 1 0.5 0.5Q1 0 1.65 0L50.05 0Q50.75 0 51.2 0.5Q51.7 1 51.7 1.65L51.7 12.35M50.4,12.35L50.4 1.65Q50.4 1.3 50.05 1.3L15.35 1.3L15.35 12.7L50.05 12.7L50.4 12.35M1.3,1.65L1.3 12.35Q1.3 12.7 1.65 12.7L14.05 12.7L14.05 1.3L1.65 1.3Q1.3 1.3 1.3 1.65" />
</g>
</svg>
