<?xml version="1.0" encoding="utf-8"?>
<svg version="1.1" id="Layer_1"
xmlns="http://www.w3.org/2000/svg"
xmlns:xlink="http://www.w3.org/1999/xlink"
xmlns:author="http://www.sothink.com"
width="14px" height="14px"
xml:space="preserve">
<g id="2366" transform="matrix(1, 0, 0, 1, -4.5, -4.5)">
<path style="fill:#999999;fill-opacity:1" d="M16.1,6.9Q18 8.8 18 11.5Q18 14.2 16.1 16.1Q14.2 18 11.5 18Q8.8 18 6.9 16.1Q5 14.2 5 11.5Q5 8.8 6.9 6.9Q8.8 5 11.5 5Q14.2 5 16.1 6.9" />
<path style="fill:none;stroke-width:1;stroke-linecap:round;stroke-linejoin:round;stroke-miterlimit:3;stroke:#000000;stroke-opacity:1" d="M16.1,6.9Q18 8.8 18 11.5Q18 14.2 16.1 16.1Q14.2 18 11.5 18Q8.8 18 6.9 16.1Q5 14.2 5 11.5Q5 8.8 6.9 6.9Q8.8 5 11.5 5Q14.2 5 16.1 6.9z" />
</g>
</svg>
