<?xml version="1.0" encoding="utf-8"?>
<svg version="1.1" id="Layer_1"
xmlns="http://www.w3.org/2000/svg"
xmlns:xlink="http://www.w3.org/1999/xlink"
xmlns:author="http://www.sothink.com"
width="275px" height="8px"
xml:space="preserve">
<g id="2023" transform="matrix(1, 0, 0, 1, 0, 0)">
<path style="fill:#FFFFFF;fill-opacity:1" d="M274.5,0L274.5 8L264.5 8L264.5 0L274.5 0M251.5,8L241.5 8L241.5 0L251.5 0L251.5 8M263,0L263 8L253 8L253 0L263 0M240,8L230 8L230 0L240 0L240 8M228.5,8L218.5 8L218.5 0L228.5 0L228.5 8M217,8L207 8L207 0L217 0L217 8M205.5,8L195.5 8L195.5 0L205.5 0L205.5 8M182.5,8L172.5 8L172.5 0L182.5 0L182.5 8M194,0L194 8L184 8L184 0L194 0M171,8L161 8L161 0L171 0L171 8M159.5,8L149.5 8L149.5 0L159.5 0L159.5 8M148,8L138 8L138 0L148 0L148 8M136.5,8L126.5 8L126.5 0L136.5 0L136.5 8M125,8L115 8L115 0L125 0L125 8M102,8L92 8L92 0L102 0L102 8M113.5,0L113.5 8L103.5 8L103.5 0L113.5 0M90.5,8L80.5 8L80.5 0L90.5 0L90.5 8M79,8L69 8L69 0L79 0L79 8M67.5,8L57.5 8L57.5 0L67.5 0L67.5 8M56,8L46 8L46 0L56 0L56 8M44.5,8L34.5 8L34.5 0L44.5 0L44.5 8M33,8L23 8L23 0L33 0L33 8M21.5,8L11.5 8L11.5 0L21.5 0L21.5 8M10,8L0 8L0 0L10 0L10 8" />
</g>
</svg>
