<?xml version="1.0" encoding="utf-8"?>
<svg version="1.1" id="Layer_1"
xmlns="http://www.w3.org/2000/svg"
xmlns:xlink="http://www.w3.org/1999/xlink"
xmlns:author="http://www.sothink.com"
width="2000px" height="1300px"
xml:space="preserve">
<g id="94" transform="matrix(1, 0, 0, 1, 1000, 650)">
<path style="fill:#000000;fill-opacity:1" d="M539.7,-309.8Q519.9 -314.5 297.85 -321.45Q88 -328 -1 -328Q-90.05 -328 -299.9 -321.45Q-521.95 -314.5 -541.75 -309.8Q-550.85 -307.65 -554.9 -303.2Q-557.7 -300 -560.35 -291.95Q-561.4 -288.8 -564.15 -252.7Q-567.05 -216.05 -569.8 -169.3Q-577.05 -47.3 -575.8 0Q-577.05 47.35 -569.8 169.8Q-567.05 216.75 -564.15 253.55Q-561.4 289.75 -560.35 292.95Q-557.7 300.95 -554.9 304.05Q-550.85 308.55 -541.75 310.7Q-522.1 315.45 -299.9 321.95Q-91.8 328 -1 328Q89.75 328 297.85 321.95Q520.05 315.45 539.7 310.7Q548.8 308.55 552.8 304.05Q555.6 300.95 558.3 292.95Q559.3 289.75 562.1 253.55Q564.95 216.7 567.8 169.8Q575.05 47.4 573.8 0Q575.05 -47.3 567.8 -169.3Q564.95 -216.05 562.1 -252.7Q559.3 -288.8 558.3 -291.95Q555.6 -300 552.8 -303.2Q548.8 -307.65 539.7 -309.8M1000,650L-1000 650L-1000 -650L1000 -650L1000 650" />
</g>
</svg>
