<?xml version="1.0" encoding="utf-8"?>
<svg version="1.1" id="Layer_1"
xmlns="http://www.w3.org/2000/svg"
xmlns:xlink="http://www.w3.org/1999/xlink"
xmlns:author="http://www.sothink.com"
width="46px" height="40px"
xml:space="preserve">
<g id="2445" transform="matrix(1, 0, 0, 1, 0, 0)">
<path style="fill:#FF9E00;fill-opacity:0.6" d="M44.55,16.2L43.05 17.25L30.5 24.15Q28.6 25.15 28.6 26.15L27.65 36.2Q27.45 39.25 25.75 39.8Q24.4 40.25 23.3 39.15L17.45 33.1Q16.5 32.1 15.9 32.55L15.75 32.65L4.3 38.6Q1.55 40.15 0.45 38.9Q-0.55 37.6 0.7 36.05L8.5 25.65L9 24.55L9 24.2L2.85 17.6Q1.45 16.05 1.9 14.45Q2.2 13.55 3.05 13L4.05 12.6L4.25 12.55L16.75 12.55Q17.95 12.55 18.85 11.3L26.35 1.8Q28.05 -0.45 29.55 0.15Q31.05 0.7 30.9 2.95L29.85 12.45L30.4 12.6L42.25 12.6Q44.7 12.6 45.1 14.2Q45.4 15.25 44.55 16.2M27.35,5.75L21.45 13.25Q19.6 15.8 16.75 15.8L5.6 15.8L11.4 22.05Q12.25 23 12.25 24.45Q12.25 26.05 11.1 27.6L6.4 33.85L14.1 29.85Q15.15 29.1 16.5 29.2Q18.3 29.3 19.8 30.9L24.45 35.7L25.35 25.95Q25.35 25.15 25.85 24.2Q26.8 22.4 29.05 21.25L29 21.3L38.85 15.85L30.45 15.85Q28.6 15.85 27.45 14.65Q26.65 13.75 26.65 12.4L26.65 11.85L27.35 5.75" />
</g>
</svg>
