<?xml version="1.0" encoding="utf-8"?>
<svg version="1.1" id="Layer_1"
xmlns="http://www.w3.org/2000/svg"
xmlns:xlink="http://www.w3.org/1999/xlink"
xmlns:author="http://www.sothink.com"
width="256px" height="341px"
xml:space="preserve">
<g id="1527" transform="matrix(1, 0, 0, 1, 33.05, 22.05)">
<path style="fill:#000000;fill-opacity:1" d="M-6.85,151.25L-6.85 55.3L-12.4 55.3L-12.4 29.1L-33.05 29.1L-33.05 -22.05L195.55 -22.05Q202.15 -15.3 206.4 -9.4L193.15 -9.4L193.15 5.05L213.75 5.05Q217.85 21.55 195.55 28.75L197.9 28.75L197.9 151.25L196.9 151.25L-6.85 151.25" />
<path style="fill:#000000;fill-opacity:1" d="M196.9,151.25L196.9 286.7L222.8 286.7L222.8 301.2L193.35 301.2L193.35 318.4L-24.35 318.4L-24.35 278.35L-6.85 278.35L-6.85 151.25L196.9 151.25" />
</g>
</svg>
