<?xml version="1.0" encoding="utf-8"?>
<svg version="1.1" id="Layer_1"
xmlns="http://www.w3.org/2000/svg"
xmlns:xlink="http://www.w3.org/1999/xlink"
xmlns:author="http://www.sothink.com"
width="185px" height="275px"
xml:space="preserve">
<g id="1526" transform="matrix(1, 0, 0, 1, 27, 26)">
<path style="fill:#000000;fill-opacity:1" d="M142.95,109L-8.3 109L-8.3 -0.35L-27 -0.35L-27 -12.1L-5.7 -12.1L-5.7 -26L151.55 -26L151.55 12.5L149.85 12.5L149.85 112.2L142.95 112.2L142.95 109" />
<path style="fill:#000000;fill-opacity:1" d="M-8.3,109L142.95 109L142.95 112.2L142.95 207.65L157.85 207.65L157.85 248.95L-7.3 248.95Q-12.05 243.5 -15.15 238.7L-5.55 238.7L-5.55 227.05L-20.45 227.05Q-23.4 213.75 -7.3 207.95L-9 207.95L-9 109L-8.3 109" />
</g>
</svg>
