<?xml version="1.0" encoding="utf-8"?>
<svg version="1.1" id="Layer_1"
xmlns="http://www.w3.org/2000/svg"
xmlns:xlink="http://www.w3.org/1999/xlink"
xmlns:author="http://www.sothink.com"
width="29px" height="29px"
xml:space="preserve">
<g id="540" transform="matrix(1, 0, 0, 1, 0.5, 0.5)">
<path style="fill:#000000;fill-opacity:1" d="M16.9,-0.3L17.05 -0.25L20.5 1L20.6 1.05L23.65 3.1L23.75 3.2L26.15 5.95L26.2 6.05L27.75 9.35L27.8 9.45L28.5 13.05L28.5 13.2L28.25 16.85L28.25 16.95L27.05 20.45L27 20.6L24.95 23.6L24.85 23.7L22.05 26.1L21.95 26.15L18.7 27.75L18.55 27.8L14.95 28.5L14.85 28.5L11.2 28.25L11.05 28.25L7.55 27.05L7.45 27L4.45 24.95L4.35 24.85L1.95 22.05L1.85 21.95L0.25 18.65L0.2 18.5L-0.5 14.9L-0.5 14.75L-0.25 11.1L-0.2 11L1.05 7.55L1.1 7.45L3.1 4.4L3.2 4.3L6 1.9L6.1 1.8L9.4 0.2L9.55 0.15L13.15 -0.5L13.25 -0.5L16.9 -0.3" />
<path style="fill:#484848;fill-opacity:1" d="M25.35,6.5L26.8 9.7L27.5 13.25L27.25 16.7L26.1 20.05L24.1 23L24.1 23.05L21.5 25.25L21.45 25.3L18.3 26.8L14.8 27.5L11.3 27.25L7.95 26.1L5 24.1L2.75 21.5L2.75 21.45L1.2 18.3L0.5 14.75L0.75 11.3L1.95 7.95L3.9 4.95L3.95 4.95L6.55 2.7L9.75 1.15L13.25 0.5L16.75 0.7L20.1 1.9L23.05 3.9L23.1 3.95L25.3 6.5L25.35 6.5" />
</g>
</svg>
