<?xml version="1.0" encoding="utf-8"?>
<svg version="1.1" id="Layer_1"
xmlns="http://www.w3.org/2000/svg"
xmlns:xlink="http://www.w3.org/1999/xlink"
xmlns:author="http://www.sothink.com"
width="15px" height="21px"
xml:space="preserve">
<g id="1697" transform="matrix(1, 0, 0, 1, 7.3, 10.05)">
<path style="fill:#FFFFFF;fill-opacity:1" d="M6.9,0.65L7.3 1.15Q7.45 1.65 7.2 2.15Q6.8 2.85 5.65 3.1Q2.5 3.75 0.95 6.8Q0.2 8.35 0 10.1L-7.05 8.3L-6.55 4L-6.6 3.95L-7.3 2.55L-7.3 -1.1L-7 -2L-6.6 -2.2L-6.4 -2.25L-5.8 -2L-5.6 -1.45L-5.6 -0.7L-5.3 -0.7L-5.3 -2.5Q-5.3 -3.1 -4.85 -3.35L-4.35 -3.45L-3.65 -3.2Q-3.4 -2.9 -3.4 -2.45L-3.4 -0.5L-3.1 -0.5L-3.1 -3.2L-2.85 -3.9Q-2.55 -4.25 -2 -4.2L-1.25 -3.95L-1.05 -3.5L-1 -0.65L-0.75 -0.65L-0.75 -9.35Q-0.6 -10.05 0.55 -10.05Q1.35 -10 1.4 -9.05L1.45 1.75L1.6 1.65L5.25 0.55L6.9 0.65" />
</g>
</svg>
