<?xml version="1.0" encoding="utf-8"?>
<svg version="1.1" id="Layer_1"
xmlns="http://www.w3.org/2000/svg"
xmlns:xlink="http://www.w3.org/1999/xlink"
xmlns:author="http://www.sothink.com"
width="17px" height="13px"
xml:space="preserve">
<g id="1696" transform="matrix(1, 0, 0, 1, 8.3, 6.45)">
<path style="fill:#FFFFFF;fill-opacity:1" d="M6.85,-2.3Q8.35 -0.8 8.35 1.35Q8.35 3.5 6.85 5Q5.35 6.5 3.2 6.5L-3.15 6.5Q-5.3 6.5 -6.8 5Q-8.3 3.5 -8.3 1.35Q-8.3 -0.8 -6.8 -2.3Q-5.3 -3.85 -3.15 -3.85L-2.15 -3.85L-2.15 -2.05L-3.15 -2.05Q-4.55 -2.05 -5.5 -1.05Q-6.5 -0.05 -6.5 1.35Q-6.5 2.75 -5.5 3.7Q-4.55 4.7 -3.15 4.7L3.2 4.7Q4.6 4.7 5.55 3.7Q6.55 2.75 6.55 1.35Q6.55 -0.05 5.55 -1.05Q4.6 -2.05 3.2 -2.05L2.4 -2.05L3.95 -0.5L2.65 0.8L-0.15 -2.05L-0.35 -2.2L-1 -2.85L2.65 -6.45L3.9 -5.2L2.55 -3.85L3.2 -3.85Q5.35 -3.85 6.85 -2.3" />
</g>
</svg>
