<?xml version="1.0" encoding="utf-8"?>
<svg version="1.1" id="Layer_1"
xmlns="http://www.w3.org/2000/svg"
xmlns:xlink="http://www.w3.org/1999/xlink"
xmlns:author="http://www.sothink.com"
width="11px" height="15px"
xml:space="preserve">
<g id="1704" transform="matrix(1, 0, 0, 1, 0, 0)">
<path style="fill:#FFFFFF;fill-opacity:1" d="M8.1,1.15Q9.2 2.35 9.2 3.95L10.85 3.95L10.85 14.3L0 14.3L0 3.95L1.65 3.95Q1.65 2.35 2.75 1.15Q3.9 0 5.45 0Q7 0 8.1 1.15M5.45,1.6Q4.5 1.6 3.85 2.3Q3.15 3 3.15 3.95L7.7 3.95Q7.7 3 7.05 2.3Q6.35 1.6 5.45 1.6M4.3,9.95Q4.3 10.45 4.65 10.8Q4.95 11.15 5.45 11.15L6.25 10.8L6.6 9.95L6.6 7.7Q6.4 6.65 5.45 6.65Q5 6.65 4.65 6.95L4.3 7.7L4.3 9.95" />
</g>
</svg>
