<?xml version="1.0" encoding="utf-8"?>
<svg version="1.1" id="Layer_1"
xmlns="http://www.w3.org/2000/svg"
xmlns:xlink="http://www.w3.org/1999/xlink"
xmlns:author="http://www.sothink.com"
width="22px" height="21px"
xml:space="preserve">
<g id="1700" transform="matrix(1, 0, 0, 1, 10.85, 10.1)">
<path style="fill:#FFFFFF;fill-opacity:1" d="M7.45,-6.05L-7.6 -6.05L-0.1 -8.05L7.45 -6.05" />
<path style="fill:none;stroke-width:0.65;stroke-linecap:round;stroke-linejoin:round;stroke-miterlimit:3;stroke:#FFFFFF;stroke-opacity:1" d="M-0.1,-8.05L-7.6 -6.05L7.45 -6.05L-0.1 -8.05z" />
<path style="fill:#FFFFFF;fill-opacity:1" d="M5.2,9.85L-5.35 9.85L-0.1 6.85L5.2 9.85" />
<path style="fill:none;stroke-width:0.65;stroke-linecap:round;stroke-linejoin:round;stroke-miterlimit:3;stroke:#FFFFFF;stroke-opacity:1" d="M-0.1,6.85L-5.35 9.85L5.2 9.85L-0.1 6.85z" />
<path style="fill:#FFFFFF;fill-opacity:1" d="M0.45,9.85L-0.6 9.85L-0.6 -9.8L0.45 -9.8L0.45 9.85" />
<path style="fill:none;stroke-width:0.65;stroke-linecap:round;stroke-linejoin:round;stroke-miterlimit:3;stroke:#FFFFFF;stroke-opacity:1" d="M0.45,9.85L-0.6 9.85L-0.6 -9.8L0.45 -9.8L0.45 9.85z" />
<path style="fill:#FFFFFF;fill-opacity:1" d="M-10.55,3L-2.65 3L-6.6 5.5L-10.55 3" />
<path style="fill:none;stroke-width:0.65;stroke-linecap:round;stroke-linejoin:round;stroke-miterlimit:3;stroke:#FFFFFF;stroke-opacity:1" d="M-6.6,5.5L-2.65 3L-10.55 3L-6.6 5.5z" />
<path style="fill:none;stroke-width:1.2;stroke-linecap:butt;stroke-linejoin:miter;stroke-miterlimit:10;stroke:#FFFFFF;stroke-opacity:1" d="M-6.6,-6.05L-9.6 3.2" />
<path style="fill:none;stroke-width:1.2;stroke-linecap:butt;stroke-linejoin:miter;stroke-miterlimit:10;stroke:#FFFFFF;stroke-opacity:1" d="M-6.6,-6.05L-3.3 3.2" />
<path style="fill:#FFFFFF;fill-opacity:1" d="M2.6,3L10.55 3L6.6 5.5L2.6 3" />
<path style="fill:none;stroke-width:0.65;stroke-linecap:round;stroke-linejoin:round;stroke-miterlimit:3;stroke:#FFFFFF;stroke-opacity:1" d="M6.6,5.5L10.55 3L2.6 3L6.6 5.5z" />
<path style="fill:none;stroke-width:1.2;stroke-linecap:butt;stroke-linejoin:miter;stroke-miterlimit:10;stroke:#FFFFFF;stroke-opacity:1" d="M6.35,-6.05L3.4 3.2" />
<path style="fill:none;stroke-width:1.2;stroke-linecap:butt;stroke-linejoin:miter;stroke-miterlimit:10;stroke:#FFFFFF;stroke-opacity:1" d="M6.35,-6.05L9.7 3.2" />
</g>
</svg>
