<?xml version="1.0" encoding="utf-8"?>
<svg version="1.1" id="Layer_1"
xmlns="http://www.w3.org/2000/svg"
xmlns:xlink="http://www.w3.org/1999/xlink"
xmlns:author="http://www.sothink.com"
width="18px" height="18px"
xml:space="preserve">
<g id="1692" transform="matrix(1, 0, 0, 1, 8.75, 8.75)">
<path style="fill:#FFFFFF;fill-opacity:1" d="M0.75,-8.75L0.75 -6.65Q3.1 -6.4 4.75 -4.75Q6.45 -3.05 6.65 -0.75L8.8 -0.75L8.8 0.75L6.65 0.75Q6.45 3.05 4.75 4.75Q3.1 6.4 0.75 6.65L0.75 8.75L-0.75 8.75L-0.75 6.65Q-3.05 6.4 -4.7 4.75Q-6.35 3.05 -6.6 0.75L-8.75 0.75L-8.75 -0.75L-6.6 -0.75Q-6.35 -3.05 -4.7 -4.75Q-3.05 -6.4 -0.75 -6.65L-0.75 -8.75L0.75 -8.75M0.75,-5.4L0.75 -1.45L-0.75 -1.45L-0.75 -5.4Q-2.55 -5.15 -3.85 -3.85Q-5.1 -2.55 -5.35 -0.75L-1.45 -0.75L-1.45 0.75L-5.35 0.75Q-5.1 2.55 -3.85 3.85Q-2.55 5.2 -0.75 5.4L-0.75 1.5L0.75 1.5L0.75 5.4Q2.6 5.2 3.9 3.85Q5.2 2.55 5.4 0.75L1.5 0.75L1.5 -0.75L5.4 -0.75Q5.2 -2.55 3.9 -3.85Q2.6 -5.15 0.75 -5.4" />
</g>
</svg>
