<?xml version="1.0" encoding="utf-8"?>
<svg version="1.1" id="Layer_1"
xmlns="http://www.w3.org/2000/svg"
xmlns:xlink="http://www.w3.org/1999/xlink"
xmlns:author="http://www.sothink.com"
width="29px" height="30px"
xml:space="preserve">
<g id="1687" transform="matrix(1, 0, 0, 1, 14.15, 14.95)">
<path style="fill:#FFFFFF;fill-opacity:1" d="M12.6,-13.2Q13.5 -11.05 13.9 -8.8Q15.2 -1.55 11.1 3.8Q6.95 9.15 3.05 12.6L0 14.95L-3 12.6Q-6.9 9.15 -11.05 3.8Q-15.15 -1.55 -13.85 -8.8Q-13.45 -11.05 -12.55 -13.2L-11.7 -14.95L-6.05 -10.75L-7.6 -7.8L-3 -7.8L-2.75 -8.5L-2.75 -12.65Q-2.5 -13.45 -1.8 -13.6L1.55 -13.6Q2.5 -13.6 3.65 -12.35Q4.25 -11.65 4.2 -10.8L4.05 -10.05L3.2 -10.4L2.9 -10.5L2.55 -10.5Q2.25 -10.2 2.25 -9.75L2.25 -9.15Q2.45 -8.4 3 -7.8L7.6 -7.8L6.05 -10.75L11.75 -14.95L12.6 -13.2" />
</g>
</svg>
