<?xml version="1.0" encoding="utf-8"?>
<svg version="1.1" id="Layer_1"
xmlns="http://www.w3.org/2000/svg"
xmlns:xlink="http://www.w3.org/1999/xlink"
xmlns:author="http://www.sothink.com"
width="17px" height="21px"
xml:space="preserve">
<g id="435" transform="matrix(1, 0, 0, 1, 8.1, 10.05)">
<path style="fill:#000000;fill-opacity:1" d="M8.1,-8.4L8.1 5.1Q8.1 5.8 7.65 6.25L7.65 6.3L4.25 9.7Q3.75 10.15 3.1 10.15L-6.35 10.15Q-7.05 10.15 -7.55 9.7Q-7.95 9.15 -8.05 7.4L-8.05 7.2L-8.05 7.15L-8.05 1.45L-8 -8.4Q-8 -9.05 -7.5 -9.55Q-7 -10.05 -6.35 -10.05L6.45 -10.05Q7.15 -10.05 7.6 -9.55Q8.1 -9.05 8.1 -8.4M3.4,5.5L3.4 8.45L6.35 5.5L3.4 5.5M6.45,3.85L6.45 -8.4L-6.55 -8.4L-6.55 8.5L1.75 8.5L1.75 3.85L6.45 3.85" />
<path style="fill:#000000;fill-opacity:1" d="M6,-5.2L-1.05 6.45L-1.1 6.6L-1.25 6.75L-1.55 6.6L-6.2 3.1L-5 1.5L-4.75 1.65L-4.65 1.75L-1.85 3.85L4.3 -6.3L4.55 -6.15L6 -5.2" />
<path style="fill:#DCDCDC;fill-opacity:1" d="M3.4,5.5L6.3 5.5L3.4 8.4L3.4 5.5" />
<path style="fill:#DCDCDC;fill-opacity:1" d="M4.55,-6.2L4.25 -6.3L-1.85 3.85L-4.65 1.7L-4.8 1.65L-5.05 1.45L-6.25 3.05L-1.6 6.55L-1.3 6.75L-1.15 6.55L-1.1 6.45L6 -5.25L4.55 -6.2M1.7,8.5L-6.55 8.5L-6.55 -8.4L6.45 -8.4L6.45 3.85L1.7 3.85L1.7 8.5" />
</g>
</svg>
