<?xml version="1.0" encoding="utf-8"?>
<svg version="1.1" id="Layer_1"
xmlns="http://www.w3.org/2000/svg"
xmlns:xlink="http://www.w3.org/1999/xlink"
xmlns:author="http://www.sothink.com"
width="24px" height="24px"
xml:space="preserve">
<g id="433" transform="matrix(1, 0, 0, 1, 11.85, 11.8)">
<path style="fill:#000000;fill-opacity:1" d="M5.9,-6.55Q8.15 -4.3 8.3 -1.95L8.15 -0.4L7.65 1.25Q6.85 2.7 6.05 3.35L6.05 3.4L4.45 4.5L4.2 4.6Q3.35 5 2.75 5L2.65 5Q1.85 5 1.45 4.6L1.45 4.55Q1.05 4.3 1.05 3.75L1 3.75L0 4.7L-1.35 5L-2.7 4.75L-3.85 3.9L-4.6 2.7L-4.85 1.25Q-4.85 0.15 -4.45 -0.8L-3.5 -2.65L-2.05 -3.9L0 -4.35L1.45 -4.05L2.55 -2.85L2.9 -4.05L4.7 -4.05L3.2 2.15L3.1 2.5L3.3 2.85L3.6 2.95L4.65 2.65L5.55 1.75L6.15 0.35L6.45 -1.45L6.15 -3.05Q5.3 -4.75 3.6 -5.85Q1.95 -6.9 -0.1 -6.9Q-2.95 -6.9 -5 -4.9Q-7 -2.85 -7 0.05Q-7 2.9 -5 4.95Q-2.95 7 -0.1 7Q1.7 7 3.1 6.2L4.75 7.5Q2.55 8.9 -0.1 8.9Q-3.75 8.9 -6.3 6.3Q-8.95 3.75 -8.95 0.05Q-8.95 -3.65 -6.3 -6.2Q-3.75 -8.85 -0.1 -8.85Q2.6 -8.85 4.7 -7.45L5 -7.3Q5.4 -6.9 5.8 -6.6L5.9 -6.55M0.1,-2.25L-0.95 -2L-1.85 -1.25L-2.35 -0.15L-2.65 1Q-2.65 1.75 -2.1 2.4Q-1.65 2.9 -0.85 2.9L0.25 2.65L1.05 1.8L1.65 0.75L1.85 -0.4Q1.85 -1.3 1.35 -1.75Q0.9 -2.25 0.1 -2.25" />
<path style="fill:#000000;fill-opacity:1" d="M8,-8.65Q9.7 -7.15 10.75 -4.95L10.75 -5Q11.85 -2.45 11.85 0.05Q11.85 5 8.1 8.65L6.95 9.6L7.05 9.55L6.95 9.65Q3.75 11.9 0 11.9Q-4.9 11.9 -8.4 8.4Q-11.85 4.95 -11.85 0.05Q-11.85 -4.9 -8.4 -8.3Q-4.95 -11.8 0 -11.8Q2.55 -11.8 4.85 -10.7L4.95 -10.7L5.15 -10.6Q6.75 -9.8 8 -8.65M0,-10.15Q-4.3 -10.15 -7.2 -7.2Q-10.2 -4.2 -10.2 0.05Q-10.2 4.25 -7.2 7.25Q-4.3 10.25 0 10.25Q3.3 10.25 5.9 8.3L5.9 8.25L6.95 7.5Q10.2 4.45 10.2 0.05Q10.2 -2.15 9.25 -4.25Q8.4 -6.05 6.85 -7.45Q5.75 -8.5 4.3 -9.15Q2.15 -10.15 0 -10.15M7.3,9.5L7.5 9.4L7.45 9.45L7.3 9.5" />
<path style="fill:#DCDCDC;fill-opacity:1" d="M5.8,-6.65L5.05 -7.35L4.7 -7.45Q2.6 -8.85 -0.05 -8.85Q-3.75 -8.85 -6.3 -6.25Q-8.95 -3.7 -8.95 0Q-8.95 3.7 -6.3 6.25Q-3.75 8.85 -0.05 8.85Q2.55 8.85 4.8 7.45L3.1 6.2Q1.7 6.95 -0.05 6.95Q-2.95 6.95 -4.95 4.9Q-7 2.85 -7 0Q-7 -2.85 -4.95 -4.9Q-2.95 -6.95 -0.05 -6.95Q2 -6.95 3.65 -5.85Q5.3 -4.8 6.2 -3.05L6.45 -1.45L6.2 0.3L5.55 1.7L4.65 2.6L3.65 2.95L3.3 2.8L3.1 2.5L3.2 2.1L4.7 -4.1L2.95 -4.1L2.55 -2.85L1.45 -4.1L0 -4.4L-2.05 -3.95L-3.5 -2.7L-4.45 -0.85Q-4.85 0.15 -4.85 1.2L-4.6 2.7L-3.85 3.9L-2.7 4.7L-1.35 4.95L0 4.65L1 3.7L1.1 3.7Q1.1 4.25 1.45 4.55L1.45 4.6L2.7 4.95L2.75 4.95L4.2 4.6L4.45 4.45L6.05 3.4L6.05 3.3Q6.9 2.7 7.65 1.2L8.15 -0.45L8.3 -2Q8.15 -4.35 5.95 -6.55L5.8 -6.65M6.9,-7.45Q8.4 -6.05 9.25 -4.25Q10.2 -2.15 10.2 0Q10.2 4.4 6.95 7.45L5.95 8.2L5.95 8.3Q3.3 10.2 0 10.2Q-4.25 10.2 -7.2 7.2Q-10.2 4.2 -10.2 0Q-10.2 -4.2 -7.2 -7.2Q-4.25 -10.2 0 -10.2Q2.15 -10.2 4.35 -9.2Q5.75 -8.55 6.9 -7.45" />
<path style="fill:#DCDCDC;fill-opacity:1" d="M1.35,-1.8Q1.85 -1.35 1.85 -0.45L1.65 0.7L1.1 1.8L0.25 2.6L-0.85 2.85Q-1.65 2.85 -2.1 2.35L-2.6 0.95L-2.35 -0.2L-1.85 -1.3L-0.95 -2.05L0.15 -2.3Q0.9 -2.3 1.35 -1.8" />
</g>
</svg>
