<?xml version="1.0" encoding="utf-8"?>
<svg version="1.1" id="Layer_1"
xmlns="http://www.w3.org/2000/svg"
xmlns:xlink="http://www.w3.org/1999/xlink"
xmlns:author="http://www.sothink.com"
width="20px" height="26px"
xml:space="preserve">
<g id="434" transform="matrix(1, 0, 0, 1, 9.8, 12.6)">
<path style="fill:#000000;fill-opacity:1" d="M5.4,-12.6Q6.05 -12.6 6.5 -12.1L6.55 -12.1Q7.05 -11.6 7.05 -10.95L7.05 -10.65Q7.05 -10.3 7.35 -10Q7.6 -9.75 7.95 -9.75L8.2 -9.75Q8.85 -9.75 9.3 -9.25L9.35 -9.2Q9.85 -8.75 9.85 -8.1L9.85 -6Q9.85 -5.3 9.35 -4.85L9.3 -4.8Q8.85 -4.35 8.2 -4.35L7.95 -4.35L7.35 -4.05Q7.05 -3.8 7.05 -3.45L7.05 -3.15Q7.05 -2.45 6.55 -1.9Q6.05 -1.5 5.4 -1.5L2.85 -1.5L2.3 -1.3L2 -0.8L1.3 0.7Q1.15 0.9 1.15 1.2L1.3 1.65L1.7 2Q3.35 2.75 3.8 4.6L3.9 5.55L3.9 9.4Q3.9 10.35 3.15 10.8Q0.4 12.55 -2.9 12.55Q-6.25 12.55 -8.95 10.8L-9 10.8Q-9.8 10.35 -9.8 9.4L-9.8 5.55L-9.65 4.55Q-9.15 2.7 -7.55 2L-7.2 1.65L-7.05 1.15Q-7.05 0.85 -7.2 0.65Q-8 -0.55 -8 -2.15Q-8 -4.25 -6.45 -5.7Q-5 -7.25 -2.9 -7.25L-2.15 -7.2Q-1.8 -7.2 -1.5 -7.45L-1.25 -8.1Q-1.25 -8.75 -0.75 -9.2Q-0.25 -9.75 0.4 -9.75L0.65 -9.75Q1 -9.75 1.3 -10L1.55 -10.65L1.55 -10.95Q1.55 -11.6 2.1 -12.1Q2.55 -12.6 3.2 -12.6L5.4 -12.6M5.4,-8.1L5.4 -10.95L3.2 -10.95L3.2 -8.1L0.4 -8.1L0.4 -6L3.2 -6L3.2 -3.15L5.4 -3.15L5.4 -6L8.2 -6L8.2 -8.1L5.4 -8.1M0.2,-3.45Q-0.3 -4.85 -1.65 -5.3L-2.9 -5.6Q-4.3 -5.6 -5.35 -4.6Q-6.35 -3.55 -6.35 -2.15Q-6.35 -0.95 -5.6 0Q-4.9 0.9 -3.75 1.15L-2.9 1.3L-2.15 1.15Q-0.8 0.85 -0.15 -0.2Q0.45 -0.9 0.45 -2.15L0.2 -3.45M0.15,3.25L-6.05 3.25Q-7.65 3.25 -8.05 4.9L-8.15 5.45L-8.15 9.4Q-5.7 10.9 -2.9 10.9Q-0.15 10.9 2.25 9.4L2.25 5.45L2.2 5Q2.05 4.3 1.5 3.8Q0.9 3.25 0.15 3.25" />
<path style="fill:#DCDCDC;fill-opacity:1" d="M8.15,-8.1L8.15 -6L5.35 -6L5.35 -3.15L3.2 -3.15L3.2 -6L0.4 -6L0.4 -8.1L3.2 -8.1L3.2 -10.95L5.35 -10.95L5.35 -8.1L8.15 -8.1" />
<path style="fill:#DCDCDC;fill-opacity:1" d="M-8.1,4.9Q-7.65 3.25 -6.05 3.25L0.15 3.25Q0.9 3.25 1.5 3.8Q2.05 4.3 2.2 5L2.25 5.45L2.25 9.4Q-0.2 10.9 -2.9 10.9Q-5.75 10.9 -8.15 9.4L-8.15 5.45L-8.1 4.9" />
<path style="fill:#DCDCDC;fill-opacity:1" d="M0.2,-3.45L0.45 -2.15Q0.45 -0.9 -0.2 -0.2Q-0.8 0.85 -2.15 1.15L-2.9 1.3L-3.75 1.15Q-4.9 0.9 -5.6 0Q-6.35 -0.95 -6.35 -2.15Q-6.35 -3.55 -5.35 -4.55Q-4.3 -5.6 -2.9 -5.6L-1.65 -5.3Q-0.3 -4.85 0.2 -3.45" />
</g>
</svg>
