<?xml version="1.0" encoding="utf-8"?>
<svg version="1.1" id="Layer_1"
xmlns="http://www.w3.org/2000/svg"
xmlns:xlink="http://www.w3.org/1999/xlink"
xmlns:author="http://www.sothink.com"
width="18px" height="19px"
xml:space="preserve">
<g id="1915" transform="matrix(1, 0, 0, 1, 8.8, 9.25)">
<path style="fill:#FFFFFF;fill-opacity:1" d="M-0.65,-6.2Q2.4 -3.75 2.4 0.15Q2.4 3.9 -0.45 6.35L-2.65 5Q0 3.25 0 0.15Q0 -1.4 -0.8 -2.7Q-1.55 -4 -2.8 -4.75L-0.65 -6.2M-6.25,-2.4Q-5.15 -2.4 -4.4 -1.65Q-3.65 -0.9 -3.65 0.15Q-3.65 1.25 -4.4 2Q-5.15 2.75 -6.25 2.75Q-7.3 2.75 -8.05 2Q-8.8 1.25 -8.8 0.15Q-8.8 -0.9 -8.05 -1.65Q-7.3 -2.4 -6.25 -2.4" />
<path style="fill:#FFFFFF;fill-opacity:0.298039" d="M5,-9.25Q8.85 -5.3 8.85 0.15Q8.85 5.3 5.35 9.2L3.15 7.85Q6.3 4.7 6.3 0.15Q6.3 -4.6 2.85 -7.8L5 -9.25" />
</g>
</svg>
