<?xml version="1.0" encoding="utf-8"?>
<svg version="1.1" id="Layer_1"
xmlns="http://www.w3.org/2000/svg"
xmlns:xlink="http://www.w3.org/1999/xlink"
xmlns:author="http://www.sothink.com"
width="22px" height="23px"
xml:space="preserve">
<g id="1919" transform="matrix(1, 0, 0, 1, 10.65, 11.2)">
<path style="fill:#FFFFFF;fill-opacity:1" d="M3.7,-7.55Q2.05 -8.9 0 -8.9Q-2.05 -8.9 -3.7 -7.55Q-5.35 -6.25 -5.9 -4.2L-5.9 4.8Q-4.45 7.5 -1.55 8.2Q-0.95 7.4 0 7.4Q0.8 7.4 1.35 7.95Q1.9 8.5 1.9 9.3Q1.9 10.1 1.35 10.65Q0.8 11.25 0 11.25Q-0.75 11.25 -1.3 10.75Q-1.8 10.2 -1.9 9.45Q-5.75 8.5 -7.25 4.95Q-8.75 4.5 -9.7 3.25Q-10.65 2 -10.65 0.4Q-10.65 -2.3 -8.35 -3.7Q-7.95 -6.9 -5.55 -9.05Q-3.15 -11.2 0 -11.2Q3.15 -11.2 5.5 -9.05Q7.9 -6.9 8.3 -3.7Q10.65 -2.25 10.65 0.4Q10.65 2.4 9.25 3.75Q7.85 5.15 5.85 5.15L5.85 -4.2Q5.3 -6.25 3.7 -7.55" />
</g>
</svg>
