<?xml version="1.0" encoding="utf-8"?>
<svg version="1.1" id="Layer_1"
xmlns="http://www.w3.org/2000/svg"
xmlns:xlink="http://www.w3.org/1999/xlink"
xmlns:author="http://www.sothink.com"
width="192px" height="337px"
xml:space="preserve">
<g id="90" transform="matrix(1, 0, 0, 1, 91.2, 82.3)">
<path style="fill:#424242;fill-opacity:1" d="M99.85,-82.3L99.85 254.2L-91.2 228.2L-91.2 -82.3L99.85 -82.3" />
<path style="fill:#959595;fill-opacity:1" d="M-76.15,-7.8L-76.15 -12.8L-82.65 -12.8L-82.65 -71.8L-76.15 -71.8L-76.15 -76.3L62.35 -76.3L62.35 -71.8L66.85 -71.8L66.85 -12.8L63.85 -12.8L63.85 -19.8L6.85 -19.8L6.85 55.7L14.85 55.7L14.85 52.7L9.85 52.7L9.85 -16.8L60.85 -16.8L60.85 52.7L55.85 52.7L55.85 55.7L62.35 55.7L62.35 61.7L66.85 61.7L66.85 135.2L56.85 135.2L56.85 145.2L66.85 145.7L66.85 246.7L-82.65 224.2L-82.65 212.2L-90.7 212.2L-90.7 153.2L-82.65 153.2L-82.65 145.2L-72.65 145.2L-72.65 135.2L-82.65 135.2L-82.65 61.7L-76.15 61.7L-76.15 55.7L-82.65 55.7L-82.65 -7.8L-76.15 -7.8" />
<path style="fill:#959595;fill-opacity:1" d="M66.85,-7.8L66.85 55.7L63.85 55.7L63.85 -7.8L66.85 -7.8" />
<path style="fill:#6F6F6F;fill-opacity:1" d="M-47.65,133.7L-76.65 129.2Q-75.65 124.2 -75.15 119.2L-46.15 124.2Q-46.65 129.2 -47.65 133.7" />
<path style="fill:#6F6F6F;fill-opacity:1" d="M59.35,208.7L66.85 208.7L66.85 218.7L59.35 218.7L59.35 208.7" />
<path style="fill:#6F6F6F;fill-opacity:1" d="M60.85,89.2L66.85 89.2L66.85 125.7L60.85 125.7L60.85 89.2" />
<path style="fill:#6F6F6F;fill-opacity:1" d="M66.85,65.2L66.85 82.7L58.85 82.7L58.85 65.2L66.85 65.2" />
<path style="fill:#6F6F6F;fill-opacity:1" d="M59.85,-20.3Q56.35 -22.8 52.35 -25.3Q54.35 -26.8 56.35 -28.8L59.85 -23.8L59.85 -52.3L66.85 -52.3L66.85 -20.3L59.85 -20.3" />
<path style="fill:#6F6F6F;fill-opacity:1" d="M-19.65,2.2Q-17.15 5.2 -15.15 8.2L-28.15 17.2Q-30.15 14.2 -32.65 11.2L-19.65 2.2" />
<path style="fill:#6F6F6F;fill-opacity:1" d="M6.35,-6.8L6.35 -2.8L1.35 -2.8L1.35 -6.8L6.35 -6.8" />
<path style="fill:#6F6F6F;fill-opacity:1" d="M-21.65,-6.8L-21.65 -2.8L-26.65 -2.8L-26.65 -6.8L-21.65 -6.8" />
<path style="fill:#6F6F6F;fill-opacity:1" d="M-26.65,50.7L-21.65 50.7L-21.65 54.7L-26.65 54.7L-26.65 50.7" />
<path style="fill:#6F6F6F;fill-opacity:1" d="M1.35,50.7L6.35 50.7L6.35 54.7L1.35 54.7L1.35 50.7" />
<path style="fill:#6F6F6F;fill-opacity:1" d="M63.35,-69.8L34.85 -69.8L34.85 -75.3L63.35 -75.3L63.35 -69.8" />
<path style="fill:#6F6F6F;fill-opacity:1" d="M-1.15,-75.8L33.35 -75.8L33.35 -69.8L-0.65 -69.8L-1.65 -66.3L-18.65 -69.3L-17.65 -74.8L-7.15 -74.8L-1.15 -73.8L-1.15 -75.8" />
<path style="fill:#6F6F6F;fill-opacity:1" d="M-24.15,-69.3L-50.65 -69.3L-50.65 -74.8L-24.15 -74.8L-24.15 -69.3" />
<path style="fill:#6F6F6F;fill-opacity:1" d="M-58.65,-54.3L-67.65 -68.3L-63.15 -71.3L-54.15 -57.3L-58.65 -54.3" />
<path style="fill:#6F6F6F;fill-opacity:1" d="M-69.65,-29.8L-69.65 0.2L-76.15 0.2L-76.15 -29.8L-69.65 -29.8" />
<path style="fill:#6F6F6F;fill-opacity:1" d="M-69.65,-43.3L-76.15 -43.3L-76.15 -73.3L-69.65 -73.3L-69.65 -43.3" />
<path style="fill:#6F6F6F;fill-opacity:1" d="M-77.65,210.2L-45.65 215.2L-47.65 226.7L-79.65 221.7L-77.65 210.2" />
<path style="fill:#6F6F6F;fill-opacity:1" d="M64.35,207.7L57.85 207.2Q58.85 196.7 59.35 186.2L65.35 186.7L64.35 207.7" />
<path style="fill:#6F6F6F;fill-opacity:1" d="M64.85,180.2Q62.35 181.7 59.35 183.2L48.85 166.2L54.35 163.2Q59.85 171.7 64.85 180.2" />
<path style="fill:#6F6F6F;fill-opacity:1" d="M57.35,135.2Q55.35 134.7 53.35 133.7L52.35 129.7Q53.85 128.2 54.85 126.2L58.85 126.2Q60.35 127.7 61.35 129.2Q61.35 131.2 60.85 133.2Q59.35 134.2 57.35 135.2" />
<path style="fill:#6F6F6F;fill-opacity:1" d="M60.35,113.2L56.35 112.2L55.35 108.2Q56.85 106.7 57.85 104.7L61.85 104.2Q63.35 105.7 64.35 107.2Q64.35 109.2 63.85 111.2L60.35 113.2" />
<path style="fill:#6F6F6F;fill-opacity:1" d="M46.35,-19.3Q44.35 -19.8 42.35 -20.8L41.35 -24.8L43.85 -27.8L47.85 -28.3L50.35 -25.3Q50.35 -23.3 49.85 -21.3L46.35 -19.3" />
<path style="fill:#6F6F6F;fill-opacity:1" d="M50.85,-30.8L47.35 -31.8Q46.85 -33.8 45.85 -35.8Q47.35 -37.3 48.35 -39.3L52.35 -39.8L54.85 -36.8Q54.85 -34.8 54.35 -32.8L50.85 -30.8" />
<path style="fill:#6F6F6F;fill-opacity:1" d="M41.35,-38.3Q39.85 -38.8 37.85 -39.8L36.85 -43.8L38.85 -46.8L42.85 -47.3L45.85 -44.3Q45.85 -42.3 45.35 -40.3L41.35 -38.3" />
<path style="fill:#6F6F6F;fill-opacity:1" d="M11.35,-49.3Q9.35 -49.8 7.35 -50.8L6.35 -54.8Q7.85 -56.3 8.85 -57.8L12.85 -58.3L15.35 -55.3Q15.35 -53.3 14.85 -51.3L11.35 -49.3" />
<path style="fill:#6F6F6F;fill-opacity:1" d="M52.35,145.2L49.85 144.2Q49.85 142.7 49.35 141.2L50.85 139.2L53.35 139.2L55.35 141.2Q55.35 142.7 54.85 143.7Q53.85 144.7 52.35 145.2" />
<path style="fill:#6F6F6F;fill-opacity:1" d="M-72.65,72.7L-79.15 72.7L-79.15 64.2L-72.65 64.2L-72.65 72.7" />
<path style="fill:#6F6F6F;fill-opacity:1" d="M-80.15,-39.8L-74.15 -39.8L-74.15 -30.8L-80.15 -30.8L-80.15 -39.8" />
<path style="fill:#6F6F6F;fill-opacity:1" d="M25.85,-36.8L20.35 -38.8Q21.85 -42.3 22.85 -45.8L28.35 -43.8Q27.35 -40.3 25.85 -36.8" />
<path style="fill:#6F6F6F;fill-opacity:1" d="M11.35,-62.3L6.85 -62.3L6.85 -68.8L11.35 -68.8L11.35 -62.3" />
<path style="fill:#6F6F6F;fill-opacity:1" d="M0.35,-56.8Q-1.65 -57.8 -4.15 -58.8L-2.15 -63.8L2.35 -61.8L0.35 -56.8" />
<path style="fill:#6F6F6F;fill-opacity:1" d="M40.35,-33.8L41.85 -31.3Q40.35 -30.3 38.35 -29.3L26.35 -20.3L22.85 -26.8L40.35 -33.8" />
<path style="fill:#6F6F6F;fill-opacity:1" d="M61.85,-56.8L50.85 -46.8L40.35 -57.8Q46.35 -62.8 51.85 -67.8L61.85 -56.8" />
<path style="fill:#6F6F6F;fill-opacity:1" d="M66.85,161.2L53.35 162.2Q53.35 154.7 52.85 147.2L65.85 146.7L66.85 161.2" />
<path style="fill:#424242;fill-opacity:1" d="M-19.15,118.7L-77.15 118.7L-77.15 76.2L-55.65 76.2L-55.65 96.2L-19.15 96.2L-19.15 118.7" />
<path style="fill:#424242;fill-opacity:1" d="M-81.15,117.7L-75.65 117.7L-75.65 118.7L-81.15 118.7L-81.15 117.7" />
<path style="fill:#424242;fill-opacity:1" d="M-81.65,107.2L-76.15 107.2L-76.15 108.7L-81.65 108.7L-81.65 107.2" />
<path style="fill:#424242;fill-opacity:1" d="M-82.65,3.7L-67.65 3.7L-67.65 41.7L-82.65 41.7L-82.65 3.7" />
<path style="fill:#424242;fill-opacity:1" d="M-81.65,96.2L-76.65 96.2L-76.65 97.7L-81.65 97.7L-81.65 96.2" />
<path style="fill:#FFFFFF;fill-opacity:1" d="M-19.15,97.2L-19.15 117.7L-75.65 117.7L-75.65 76.2L-56.65 76.2L-56.65 97.2L-19.15 97.2" />
<path style="fill:#959595;fill-opacity:1" d="M-69.15,5.2L-69.15 51.7L-79.65 51.7L-79.65 5.2L-69.15 5.2" />
<path style="fill:#FFFFFF;fill-opacity:1" d="M-91.2,153.2L-86.15 153.2L-86.15 212.2L-91.2 212.2L-91.2 153.2" />
</g>
</svg>
