<?xml version="1.0" encoding="utf-8"?>
<svg version="1.1" id="Layer_1"
xmlns="http://www.w3.org/2000/svg"
xmlns:xlink="http://www.w3.org/1999/xlink"
xmlns:author="http://www.sothink.com"
width="192px" height="337px"
xml:space="preserve">
<g id="91" transform="matrix(1, 0, 0, 1, 91.2, 82.3)">
<path style="fill:#424242;fill-opacity:1" d="M99.85,-82.3L99.85 254.2L-91.2 228.2L-91.2 -82.3L99.85 -82.3" />
<path style="fill:#6F6F6F;fill-opacity:1" d="M-76.15,-7.8L-76.15 -12.8L-82.65 -12.8L-82.65 -71.8L-76.15 -71.8L-76.15 -76.3L62.35 -76.3L62.35 -71.8L66.85 -71.8L66.85 -12.8L62.35 -12.8L62.35 61.7L66.85 61.7L66.85 135.2L56.85 135.2L56.85 145.2L66.85 145.7L66.85 246.7L-82.65 224.2L-82.65 212.2L-90.7 212.2L-90.7 153.2L-82.65 153.2L-82.65 145.2L-72.65 145.2L-72.65 135.2L-82.65 135.2L-82.65 61.7L-76.15 61.7L-76.15 55.7L-82.65 55.7L-82.65 -7.8L-76.15 -7.8" />
<path style="fill:#6F6F6F;fill-opacity:1" d="M61.85,-56.8L50.85 -46.8L40.35 -57.8Q46.35 -62.8 51.85 -67.8L61.85 -56.8" />
<path style="fill:#6F6F6F;fill-opacity:1" d="M66.85,161.2L53.35 162.2Q53.35 154.7 52.85 147.2L65.85 146.7L66.85 161.2" />
<path style="fill:#424242;fill-opacity:1" d="M-19.15,118.7L-77.15 118.7L-77.15 76.2L-55.65 76.2L-55.65 96.2L-19.15 96.2L-19.15 118.7" />
<path style="fill:#424242;fill-opacity:1" d="M-81.15,117.7L-75.65 117.7L-75.65 118.7L-81.15 118.7L-81.15 117.7" />
<path style="fill:#424242;fill-opacity:1" d="M-81.65,107.2L-76.15 107.2L-76.15 108.7L-81.65 108.7L-81.65 107.2" />
<path style="fill:#424242;fill-opacity:1" d="M-82.65,3.7L-67.65 3.7L-67.65 41.7L-82.65 41.7L-82.65 3.7" />
<path style="fill:#424242;fill-opacity:1" d="M-81.65,96.2L-76.65 96.2L-76.65 97.7L-81.65 97.7L-81.65 96.2" />
<path style="fill:#FFFFFF;fill-opacity:1" d="M-19.15,97.2L-19.15 117.7L-75.65 117.7L-75.65 76.2L-56.65 76.2L-56.65 97.2L-19.15 97.2" />
<path style="fill:#959595;fill-opacity:1" d="M-69.15,5.2L-69.15 51.7L-79.65 51.7L-79.65 5.2L-69.15 5.2" />
<path style="fill:#FFFFFF;fill-opacity:1" d="M-91.2,153.2L-86.15 153.2L-86.15 212.2L-91.2 212.2L-91.2 153.2" />
<path style="fill:#424242;fill-opacity:1" d="M-85.65,-40.3L-85.65 -45.8L-77.15 -45.8L-77.15 -59.3L-30.15 -59.3L-30.15 -45.8L-25.15 -45.8L-25.15 -74.8L48.35 -74.8L48.35 -45.8L69.35 -45.8L69.35 -40.3L-30.15 -40.3L-30.15 11.7L68.35 11.7L68.35 17.2L7.35 17.2L7.35 70.7L68.35 70.7L68.35 76.2L7.35 76.2L7.35 76.7L-77.15 76.7L-77.15 76.2L-86.65 76.2L-86.65 70.7L-77.15 70.7L-77.15 17.2L-86.65 17.2L-86.65 11.7L-77.15 11.7L-77.15 -40.3L-85.65 -40.3" />
<path style="fill:#959595;fill-opacity:1" d="M-31.65,-57.3L-31.65 23.2L-30.15 23.2L-30.15 17.2L5.85 17.2L5.85 74.2Q-25.15 74.2 -56.65 73.7L-56.65 76.7L-75.65 76.7L-75.65 46.7L-30.15 46.7L-30.15 37.7L-31.65 37.7L-31.65 43.7L-75.65 43.7L-75.65 -57.3L-31.65 -57.3" />
<path style="fill:#6F6F6F;fill-opacity:1" d="M-66.65,-5.8L-66.65 11.7L-75.65 11.7L-75.65 -5.8L-66.65 -5.8" />
<path style="fill:#6F6F6F;fill-opacity:1" d="M-40.15,-46.8L-31.65 -46.8L-31.65 -29.3L-40.15 -29.3L-40.15 -46.8" />
<path style="fill:#6F6F6F;fill-opacity:1" d="M-57.15,-57.3L-45.15 -57.3L-45.15 -51.8L-57.15 -51.8L-57.15 -57.3" />
<path style="fill:#6F6F6F;fill-opacity:1" d="M-75.65,-50.3L-69.65 -50.3L-69.65 -44.8L-75.65 -44.8L-75.65 -50.3" />
<path style="fill:#6F6F6F;fill-opacity:1" d="M-75.65,-43.8L-69.65 -43.8L-69.65 -38.8L-75.65 -38.8L-75.65 -43.8" />
<path style="fill:#6F6F6F;fill-opacity:1" d="M-75.65,-38.3L-69.65 -38.3L-69.65 -32.8L-75.65 -32.8L-75.65 -38.3" />
<path style="fill:#6F6F6F;fill-opacity:1" d="M-75.65,-32.3L-69.65 -32.3L-69.65 -26.8L-75.65 -26.8L-75.65 -32.3" />
<path style="fill:#6F6F6F;fill-opacity:1" d="M-75.65,-25.8L-69.65 -25.8L-69.65 -14.3L-75.65 -14.3L-75.65 -25.8" />
<path style="fill:#6F6F6F;fill-opacity:1" d="M-75.65,-13.3L-69.15 -13.3L-69.15 -7.8L-75.65 -7.8L-75.65 -13.3" />
</g>
</svg>
