<?xml version="1.0" encoding="utf-8"?>
<svg version="1.1" id="Layer_1"
xmlns="http://www.w3.org/2000/svg"
xmlns:xlink="http://www.w3.org/1999/xlink"
xmlns:author="http://www.sothink.com"
width="26px" height="17px"
xml:space="preserve">
<g id="499" transform="matrix(1, 0, 0, 1, 0.5, 0.5)">
<path style="fill:#000000;fill-opacity:1" d="M4,-0.4L22.1 4.55L22.15 4.55L23.6 5.3L23.65 5.35L24.45 6.05L24.5 6.1L24.55 6.2L25.15 7.45L25.15 7.9L25.1 7.95L24.5 9.15L24.45 9.25L23.65 9.95L23.6 10L22.15 10.75L22.1 10.75L4 15.7L3.95 15.7L2.4 15.75L0.95 15.25L0.9 15.15L-0.05 14.1L-0.45 12.45L-0.5 12.4L-0.5 2.9L-0.45 2.85L-0.05 1.15L0.9 0.1L0.95 0.05L2.4 -0.5L3.95 -0.45L4 -0.4" />
<path style="fill:#484848;fill-opacity:1" d="M23.05,6.15L23.7 6.7L24.15 7.65L23.7 8.55L23.05 9.15L21.75 9.8L3.85 14.7L2.55 14.75L1.55 14.4L0.85 13.6L0.5 12.3L0.5 3L0.85 1.65L1.55 0.9L2.55 0.5L3.85 0.55L21.75 5.45L23.05 6.15" />
</g>
</svg>
