<?xml version="1.0" encoding="utf-8"?>
<svg version="1.1" id="Layer_1"
xmlns="http://www.w3.org/2000/svg"
xmlns:xlink="http://www.w3.org/1999/xlink"
xmlns:author="http://www.sothink.com"
width="284px" height="132px"
xml:space="preserve">
<g id="1034" transform="matrix(1, 0, 0, 1, -90.6, 7.3)">
<path style="fill:#FF0000;fill-opacity:0.8" d="M251.85,64.25Q224.65 81.65 198.4 96.05Q147 124.25 125.85 124.25Q112.25 124.25 100.15 104.8Q96.2 98.5 93.05 91.2Q90.6 85.4 90.6 84.5Q90.6 80.65 91.1 79.3Q92.4 75.75 96.85 75.75Q99.2 75.75 101.75 81.35L107.2 93.65Q116.1 111.5 132.1 111.5Q140.2 111.5 187.55 86Q225.3 65.65 255.6 47.25Q295.3 23.3 324.9 8.65Q374.1 -15.7 374.1 -2.85Q374.1 2.9 319.2 30.6Q260.2 59.4 251.85 64.25" />
</g>
</svg>
