<?xml version="1.0" encoding="utf-8"?>
<svg version="1.1" id="Layer_1"
xmlns="http://www.w3.org/2000/svg"
xmlns:xlink="http://www.w3.org/1999/xlink"
xmlns:author="http://www.sothink.com"
width="132px" height="179px"
xml:space="preserve">
<g id="1035" transform="matrix(1, 0, 0, 1, 3.85, 3)">
<path style="fill:#000000;fill-opacity:1" d="M125,-1.05L128.05 172.95L6.05 175.1L5.8 162.1L114.8 160.2L111.95 -0.8L125 -1.05" />
<path style="fill:#000000;fill-opacity:1" d="M127,1.05L124 175.05L2 172.95L2.2 159.95L111.2 161.85L114 0.85L127 1.05" />
<path style="fill:#000000;fill-opacity:1" d="M125,1.05L122 175.05L0 172.95L0.2 159.95L109.2 161.85L112 0.85L125 1.05" />
<path style="fill:#000000;fill-opacity:1" d="M124.05,-3L124.05 173L-3.85 173L-3.85 89.4L-2.6 89.4L-2.6 -3L124.05 -3" />
</g>
</svg>
