<?xml version="1.0" encoding="utf-8"?>
<svg version="1.1" id="Layer_1"
xmlns="http://www.w3.org/2000/svg"
xmlns:xlink="http://www.w3.org/1999/xlink"
xmlns:author="http://www.sothink.com"
width="196px" height="166px"
xml:space="preserve">
<g id="1032" transform="matrix(1, 0, 0, 1, -55.45, 47.85)">
<path style="fill:#FF0000;fill-opacity:0.8" d="M226.5,-7.6Q196.55 31.65 190.1 41L180.35 55.85Q170.3 70.35 159.85 81.75Q127.3 117.25 96.85 117.25Q73.4 117.25 62.25 79Q56.65 59.85 55.75 40.35Q55.2 34.65 55.75 30.25Q56.7 21.75 62 21.75Q68.4 21.75 69.3 38.85L69.65 52.6Q69.85 60.15 70.75 63L73.5 73.05Q75.25 79.65 76.7 83.65Q81.35 96.25 90.85 104.25L104.35 104.5Q112.75 104.5 133 87.95Q149.9 74.05 157.1 65Q163.95 56.5 172.15 44.85L186.1 24.5Q210.35 -10.9 227.15 -30.35Q251.1 -58.05 251.1 -41.85Q251.1 -39.85 226.5 -7.6" />
</g>
</svg>
