<?xml version="1.0" encoding="utf-8"?>
<svg version="1.1" id="Layer_1"
xmlns="http://www.w3.org/2000/svg"
xmlns:xlink="http://www.w3.org/1999/xlink"
xmlns:author="http://www.sothink.com"
width="25px" height="16px"
xml:space="preserve">
<g id="82" transform="matrix(1, 0, 0, 1, 12.45, 7.65)">
<path style="fill:#FFFFFF;fill-opacity:1" d="M-0.05,-4.65Q0.4 -4.6 0.85 -4.05L9.35 4.65L6.45 3.85L2.95 3.25L1.9 3.15L0.65 3L0.3 3L0 3Q-2.8 3 -6.45 3.85L-9.4 4.7L-0.65 -4.35L-0.05 -4.65" />
<path style="fill:#000000;fill-opacity:1" d="M-0.65,-4.35L-9.4 4.7L-6.45 3.85Q-2.8 3 0 3L0.3 3L0.65 3L1.9 3.15L2.95 3.25L6.45 3.85L9.35 4.65L0.85 -4.05Q0.4 -4.6 -0.05 -4.65L-0.65 -4.35M-0.05,-7.65Q1.85 -7.65 3.2 -6.05L11.65 2.6Q12.4 3.35 12.5 4.35Q12.6 5.4 12.05 6.25Q11.15 7.7 9.5 7.7L8.55 7.55L5.7 6.8Q2.45 6.05 0.05 6.05Q-3.85 6.05 -8.5 7.55L-9.45 7.7Q-11.1 7.7 -12 6.25Q-12.55 5.4 -12.4 4.4Q-12.3 3.35 -11.6 2.6L-3.2 -6Q-1.85 -7.65 -0.05 -7.65" />
</g>
</svg>
