<?xml version="1.0" encoding="utf-8"?>
<svg version="1.1" id="Layer_1"
xmlns="http://www.w3.org/2000/svg"
xmlns:xlink="http://www.w3.org/1999/xlink"
xmlns:author="http://www.sothink.com"
width="65px" height="40px"
xml:space="preserve">
<g id="64" transform="matrix(1, 0, 0, 1, 0, 0)">
<path style="fill:#FFFFFF;fill-opacity:1" d="M54.05,24.5Q54.55 26.05 53.95 29.45Q52.7 36.15 49.2 36.15Q48.25 36.15 47.6 35.45Q47 34.85 47 34.05L46.95 34.05L45.85 40L44.6 40L47.75 23.1L48.85 23.1L48.55 25.05Q49.9 22.85 51.65 22.85Q53.5 22.85 54.05 24.5M57.7,29.4Q55.7 28.45 56.1 26.4Q56.75 22.75 60.05 22.75Q63.15 22.75 62.4 26.45L62.35 27.05L61.1 27.05L61.2 26.45Q61.65 24.05 59.8 24.05Q57.8 24.05 57.4 26.1Q57.1 27.55 58.5 28.25L60.15 29Q62.05 29.85 61.6 32.25Q61.3 34 60.3 35Q59.2 36.05 57.55 36.05Q55.75 36.05 55.15 35.2Q54.5 34.35 54.85 32.25L54.95 32.05L56.15 32.05L56.1 32.2Q55.6 34.95 57.75 34.95Q58.75 34.95 59.4 34.3Q60.1 33.7 60.3 32.6Q60.6 30.95 59.25 30.25L57.7 29.4M52.65,29.4Q53.65 23.95 51.25 23.95Q50.2 23.95 49.3 25.05Q48.4 26.15 47.8 29.4Q47.15 32.6 47.7 33.9Q48.1 34.85 49.2 34.85Q50.3 34.85 51.05 33.9Q52 32.6 52.65 29.4M42.35,27.6L42.9 26.1Q43.3 24.05 41.35 24.05Q39.25 24.05 38.7 27.05L37.45 27.05Q38.15 22.85 41.6 22.85Q44.7 22.85 44.15 26.15L42.75 33.85Q42.45 35 43.2 35L43.55 35L43.35 35.9L42.75 35.95L41.6 35.65Q41.25 35.3 41.4 34.45L41.5 34.05L41.45 34.05Q40.9 35.35 40 35.8L38.25 36.1Q35.4 36.1 36.05 32.5Q36.55 29.65 38.95 28.95L41.4 28.15L42.35 27.6M42.35,29.05L40.9 29.65L39.8 29.85Q37.8 30.4 37.4 32.4Q37.2 33.55 37.55 34.2Q37.9 34.9 38.7 34.9Q39.9 34.9 40.7 34.05Q41.6 33.15 41.9 31.5L42.4 29.05L42.35 29.05M36.65,19.1L33.55 36L32.25 36L35.45 19.1L36.65 19.1M32.35,18.65L11.4 18.65L7.8 17L18.8 12.35L18.8 12.3L19.25 11.4L16 0L19.55 1.65L32.8 17.75L32.35 18.65M28.3,20.45Q30.85 20.45 31.55 22.25Q32.25 24 31.5 28.25Q30.7 32.55 29.4 34.3Q28.05 36.05 25.45 36.05Q22.9 36.05 22.15 34.3Q21.45 32.55 22.2 28.25Q23.05 24 24.35 22.25Q25.75 20.45 28.3 20.45M27.85,23.15Q27.05 23.15 26.65 24.2Q26.3 25.05 25.7 28.25Q25.15 31.5 25.15 32.35Q25.2 33.4 25.9 33.4Q26.65 33.4 27.05 32.35L28.05 28.25L28.6 24.2Q28.55 23.15 27.85 23.15M7.85,21.1Q9.7 21.1 10.4 22.35Q11.1 23.5 10.7 25.5Q9.9 30.05 5.6 30.05L4.4 30.05L3.4 36L0 36L2.75 21.1L7.85 21.1M5.6,24.1L4.95 27.05L5.55 27.05L6.6 26.75Q7.05 26.45 7.2 25.55Q7.35 24.7 7.1 24.4Q6.9 24.1 6.25 24.1L5.6 24.1M15.95,24.1L15.3 27.05L15.95 27.05Q17.4 27.05 17.75 25.5Q17.95 24.7 17.65 24.4Q17.4 24.1 16.6 24.1L15.95 24.1M18.4,21.1Q21.95 21.1 21.2 24.95Q20.65 27.95 18.35 28.4Q19.5 28.5 19.85 29.4Q20.15 30.15 19.85 31.75L19.6 33.05Q19.25 34.7 19.4 35.05L19.7 35.65L19.65 36L16.05 36Q15.8 34.85 16.25 33.05L16.4 32.1Q16.65 30.85 16.5 30.45Q16.35 30.05 15.7 30.05L14.85 30.05L13.75 36L10.35 36L13.1 21.1L18.4 21.1" />
<path style="fill:#FFFFFF;fill-opacity:1" d="M63.7,33.4L64.35 33.6L64.8 34.05L65 34.7L64.8 35.3L64.35 35.8L63.7 35.95L63.05 35.8L62.55 35.3L62.35 34.7L62.55 34.05L63.05 33.6L63.7 33.4M63.15,33.8L62.8 34.2L62.65 34.7L62.8 35.2L63.15 35.55L63.7 35.7L64.2 35.55L64.6 35.2L64.75 34.7L64.6 34.2L64.2 33.8Q64 33.65 63.7 33.65L63.15 33.8M63.45,34.85L63.45 35.4L63.2 35.4L63.2 34.05L63.9 34.05L64.1 34.1L64.25 34.25L64.3 34.45L64.2 34.7L63.9 34.85L63.45 34.85M63.45,34.65L63.85 34.65L63.95 34.55L64 34.45L63.95 34.35L63.85 34.3L63.45 34.3L63.45 34.65" />
</g>
</svg>
