<?xml version="1.0" encoding="utf-8"?>
<svg version="1.1" id="Layer_1"
xmlns="http://www.w3.org/2000/svg"
xmlns:xlink="http://www.w3.org/1999/xlink"
xmlns:author="http://www.sothink.com"
width="288px" height="214px"
xml:space="preserve">
<g id="2316" transform="matrix(1, 0, 0, 1, 0, 0)">
<path style="fill:#000000;fill-opacity:1" d="M194.1,128.8L178 140.1L180.9 159.8L165.3 147.9L145.6 159.6L154.6 140.2L143.6 128.6L161.7 128.6L173.1 109.3L176.2 128.8L194.1 128.8M186.2,168.8L182.2 141.9L206.6 124.9L179.6 124.9L175.3 97.9L159.5 124.7L156.5 124.7Q154 120.4 154 114.3L154.3 99.4Q154.3 93.5 152.4 90.3Q150.4 87 146 86L146 85.8Q155.4 84.5 160.2 78.4Q164.7 72.7 164.7 63.4Q164.7 51.5 157.2 46.6Q151.1 42.6 138.5 42.6L98.4 42.6L81.4 122.8L102.7 122.8L108.9 93.6L123.1 93.6Q133.7 93.6 133.7 104.4Q133.7 109.8 133.1 118.2Q133.1 122.7 134.5 124.7L149.9 140.9L136.7 169.4L165 152.6L186.2 168.8M116.5,59.3L132.3 59.3Q143.8 59.3 143.8 67.6Q143.8 78.6 129.4 78.6L112.5 78.6L116.5 59.3M288,0L288 214L0 214L0 0L288 0" />
</g>
</svg>
