<?xml version="1.0" encoding="utf-8"?>
<svg version="1.1" id="Layer_1"
xmlns="http://www.w3.org/2000/svg"
xmlns:xlink="http://www.w3.org/1999/xlink"
xmlns:author="http://www.sothink.com"
width="288px" height="430px"
xml:space="preserve">
<g id="2318" transform="matrix(1, 0, 0, 1, 0, 0)">
<path style="fill:#000000;fill-opacity:1" d="M169.85,161.75Q169.85 146.9 160.5 140.75Q152.85 135.75 137.15 135.75L87 135.75L65.75 236L92.4 236L100.15 199.5L117.9 199.5Q131.15 199.5 131.15 213Q131.15 219.75 130.4 230.25Q130.4 235.85 132.15 238.35L151.35 258.6L134.9 294.25L170.25 273.25L196.75 293.5L191.75 259.85L222.25 238.6L188.5 238.6L183.1 204.9L163.35 238.35L159.6 238.35Q156.5 233 156.5 225.35L156.85 206.75Q156.85 199.4 154.5 195.4Q152 191.25 146.5 190L146.5 189.75Q158.25 188.15 164.25 180.5Q169.85 173.4 169.85 161.75M109.65,156.65L129.4 156.65Q143.75 156.65 143.75 167Q143.75 180.75 125.75 180.75L104.65 180.75L109.65 156.65M157.25,257.75L143.5 243.25L166.1 243.25L180.35 219.1L184.25 243.5L206.6 243.5L186.5 257.6L190.1 282.25L170.6 267.35L146 282L157.25 257.75M288,0L288 430L0 430L0 0L288 0" />
</g>
</svg>
