<?xml version="1.0" encoding="utf-8"?>
<svg version="1.1" id="Layer_1"
xmlns="http://www.w3.org/2000/svg"
xmlns:xlink="http://www.w3.org/1999/xlink"
xmlns:author="http://www.sothink.com"
width="288px" height="376px"
xml:space="preserve">
<g id="2311" transform="matrix(1, 0, 0, 1, 0, 0)">
<path style="fill:#000000;fill-opacity:1" d="M169.85,134.75Q169.85 119.85 160.5 113.75Q152.85 108.75 137.15 108.75L87 108.75L65.75 209.05L92.4 209.05L100.15 172.5L117.9 172.5Q131.15 172.5 131.15 186.05Q131.15 192.8 130.4 203.3Q130.4 208.95 132.15 211.45L151.35 231.7L134.9 267.3L170.25 246.3L196.75 266.55L191.75 232.95L222.25 211.7L188.5 211.7L183.1 177.85L163.35 211.45L159.6 211.45Q156.5 206.05 156.5 198.45L156.85 179.75Q156.85 172.35 154.5 168.35Q152 164.25 146.5 163L146.5 162.75Q158.25 161.1 164.25 153.5Q169.85 146.35 169.85 134.75M143.75,140Q143.75 153.75 125.75 153.75L104.65 153.75L109.65 129.6L129.4 129.6Q143.75 129.6 143.75 140M143.5,216.25L166.1 216.25L180.35 192.15L184.25 216.5L206.6 216.5L186.5 230.65L190.1 255.25L170.6 240.4L146 255L157.25 230.75L143.5 216.25M0,0L288 0L288 376L0 376L0 0" />
</g>
</svg>
