<?xml version="1.0" encoding="utf-8"?>
<svg version="1.1" id="Layer_1"
xmlns="http://www.w3.org/2000/svg"
xmlns:xlink="http://www.w3.org/1999/xlink"
xmlns:author="http://www.sothink.com"
width="25px" height="26px"
xml:space="preserve">
<g id="538" transform="matrix(1, 0, 0, 1, 0, 0)">
<path style="fill:#000000;fill-opacity:1" d="M8.3,4L5.9 4L5.9 1.6L18.8 1.6L18.8 4L16.35 4L16.35 10.35L22.9 22.7Q23.2 23.3 22.95 23.75Q22.7 24.15 22 24.15L2.65 24.15Q2 24.15 1.75 23.75Q1.5 23.3 1.8 22.7L8.3 10.35L8.3 4" />
<path style="fill:#000000;fill-opacity:1" d="M6.7,9.95L6.7 5.65L4.25 5.65L4.25 0L20.4 0L20.4 5.65L18 5.65L18 9.95L24.3 21.95Q25.05 23.45 24.3 24.55Q23.6 25.75 22 25.75L2.65 25.75Q1.05 25.75 0.35 24.55Q-0.35 23.35 0.4 21.95L6.7 9.95M9.9,3.2L9.9 10.75L3.7 22.55L20.95 22.55L14.75 10.75L14.75 3.2L9.9 3.2" />
<path style="fill:#FFFFFF;fill-opacity:1" d="M8.3,4L5.9 4L5.9 1.6L18.8 1.6L18.8 4L16.35 4L16.35 10.35L22.9 22.7Q23.2 23.3 22.95 23.75Q22.7 24.15 22 24.15L2.65 24.15Q2 24.15 1.75 23.75Q1.5 23.3 1.8 22.7L8.3 10.35L8.3 4" />
<path style="fill:#000000;fill-opacity:1" d="M16.65,14.1L20.95 22.65L3.25 22.65L7.75 14.1L16.65 14.1" />
<path style="fill:#000000;fill-opacity:1" d="M14.9,9.9Q14.9 10.55 14.45 10.95Q14.05 11.4 13.4 11.4Q12.8 11.4 12.4 10.95Q11.95 10.55 11.95 9.9Q11.95 9.3 12.4 8.9Q12.8 8.45 13.4 8.45Q14.05 8.45 14.45 8.9Q14.9 9.3 14.9 9.9" />
<path style="fill:#000000;fill-opacity:1" d="M12.75,5.65L12.3 6.7Q11.9 7.1 11.25 7.1Q10.65 7.1 10.25 6.7Q9.8 6.25 9.8 5.65Q9.8 5 10.25 4.6Q10.65 4.15 11.25 4.15Q11.9 4.15 12.3 4.6Q12.75 5 12.75 5.65" />
</g>
</svg>
