<?xml version="1.0" encoding="utf-8"?>
<svg version="1.1" id="Layer_1"
xmlns="http://www.w3.org/2000/svg"
xmlns:xlink="http://www.w3.org/1999/xlink"
xmlns:author="http://www.sothink.com"
width="26px" height="20px"
xml:space="preserve">
<g id="537" transform="matrix(1, 0, 0, 1, 0, 0)">
<path style="fill:#FFFFFF;fill-opacity:1" d="M24.2,17.7L1.6 17.7L1.6 1.6L24.2 1.6L24.2 17.7" />
<path style="fill:#000000;fill-opacity:1" d="M25.8,19.3L0 19.3L0 0L25.8 0L25.8 19.3M3.25,16.1L22.6 16.1L22.6 3.2L3.25 3.2L3.25 16.1" />
<path style="fill:#FFFFFF;fill-opacity:1" d="M24.2,17.7L1.6 17.7L1.6 1.6L24.2 1.6L24.2 17.7" />
<path style="fill:#000000;fill-opacity:1" d="M11.15,8.7Q11.85 8 12.85 8Q13.85 8 14.6 8.7Q15.3 9.4 15.3 10.4L15.3 13.15Q15.3 14.15 14.6 14.85Q13.85 15.55 12.85 15.55Q11.85 15.55 11.15 14.85Q10.45 14.15 10.45 13.15L10.45 10.4Q10.45 9.4 11.15 8.7" />
<path style="fill:#000000;fill-opacity:1" d="M6.2,11.6Q6.2 12.3 5.75 12.75Q5.25 13.25 4.6 13.25L1.6 13.25Q0.95 13.25 0.5 12.75Q0 12.25 0 11.6Q0 10.95 0.5 10.5Q0.95 10 1.6 10L4.6 10Q5.25 10 5.75 10.5Q6.2 10.95 6.2 11.6" />
<path style="fill:#000000;fill-opacity:1" d="M24.2,13.25L21.25 13.25Q20.6 13.25 20.1 12.75Q19.6 12.3 19.6 11.6Q19.6 10.95 20.1 10.5Q20.6 10 21.25 10L24.2 10Q24.85 10 25.35 10.5Q25.8 10.95 25.8 11.6L25.35 12.75Q24.85 13.25 24.2 13.25" />
<path style="fill:#000000;fill-opacity:1" d="M25.8,6.15L0 6.15L0 3.7L25.8 3.7L25.8 6.15" />
</g>
</svg>
