<?xml version="1.0" encoding="utf-8"?>
<svg version="1.1" id="Layer_1"
xmlns="http://www.w3.org/2000/svg"
xmlns:xlink="http://www.w3.org/1999/xlink"
xmlns:author="http://www.sothink.com"
width="98px" height="43px"
xml:space="preserve">
<g id="1495" transform="matrix(1, 0, 0, 1, 48.95, 21.05)">
<linearGradient
id="LinearGradID_52" gradientUnits="userSpaceOnUse" gradientTransform="matrix(4.57764e-005, 0.0156097, -0.0256805, 7.62939e-005, 36.2, 0.05)" spreadMethod ="pad" x1="-819.2" y1="0" x2="819.2" y2="0" >
<stop  offset="0" style="stop-color:#F1F1F1;stop-opacity:1" />
<stop  offset="1" style="stop-color:#D4D3D3;stop-opacity:0.988235" />
</linearGradient>
<path style="fill:url(#LinearGradID_52) " d="M31.6,-21.05L48.65 -21.05L48.65 -13.25L31.6 -13.25L31.6 -21.05M31.6,-4.25L47.2 -4.25L47.2 2.95L31.6 2.95L31.6 -4.25M31.6,13.3L49 13.3L49 21.05L31.6 21.05L31.6 13.3M24.15,21.05L23.4 21.05L23.4 -21.05L24.15 -21.05L24.15 21.05" />
<linearGradient
id="LinearGradID_53" gradientUnits="userSpaceOnUse" gradientTransform="matrix(0, 0.00454712, -0.0256958, 0, 27.85, 0)" spreadMethod ="pad" x1="-819.2" y1="0" x2="819.2" y2="0" >
<stop  offset="0" style="stop-color:#F1F1F1;stop-opacity:1" />
<stop  offset="1" style="stop-color:#D4D3D3;stop-opacity:0.988235" />
</linearGradient>
<path style="fill:url(#LinearGradID_53) " d="M31.6,2.95L31.6 13.3L31.6 21.05L24.15 21.05L24.15 -21.05L31.6 -21.05L31.6 -13.25L31.6 -4.25L31.6 2.95" />
<linearGradient
id="LinearGradID_54" gradientUnits="userSpaceOnUse" gradientTransform="matrix(0, 0.0186157, -0.0256958, 0, 4.9, 0)" spreadMethod ="pad" x1="-819.2" y1="0" x2="819.2" y2="0" >
<stop  offset="0" style="stop-color:#F1F1F1;stop-opacity:1" />
<stop  offset="1" style="stop-color:#D4D3D3;stop-opacity:0.988235" />
</linearGradient>
<path style="fill:url(#LinearGradID_54) " d="M20.15,-21.05L8.95 21.05L0.6 21.05L-10.35 -21.05L-2.75 -21.05L4.8 8.55L4.85 8.55L12.5 -21.05L20.15 -21.05" />
<linearGradient
id="LinearGradID_55" gradientUnits="userSpaceOnUse" gradientTransform="matrix(0, 0.0145569, -0.0256958, 0, -37.05, 0)" spreadMethod ="pad" x1="-819.2" y1="0" x2="819.2" y2="0" >
<stop  offset="0" style="stop-color:#F1F1F1;stop-opacity:1" />
<stop  offset="1" style="stop-color:#D4D3D3;stop-opacity:0.988235" />
</linearGradient>
<path style="fill:url(#LinearGradID_55) " d="M-41.4,13.3L-25.1 13.3L-25.1 21.05L-41.4 21.05L-41.4 13.3M-48.85,21.05L-48.95 21.05L-48.95 -21.05L-48.85 -21.05L-48.85 21.05" />
<linearGradient
id="LinearGradID_56" gradientUnits="userSpaceOnUse" gradientTransform="matrix(0, 0.00454712, -0.0256958, 0, -45.15, 0)" spreadMethod ="pad" x1="-819.2" y1="0" x2="819.2" y2="0" >
<stop  offset="0" style="stop-color:#F1F1F1;stop-opacity:1" />
<stop  offset="1" style="stop-color:#D4D3D3;stop-opacity:0.988235" />
</linearGradient>
<path style="fill:url(#LinearGradID_56) " d="M-41.4,21.05L-48.85 21.05L-48.85 -21.05L-41.4 -21.05L-41.4 13.3L-41.4 21.05" />
<linearGradient
id="LinearGradID_57" gradientUnits="userSpaceOnUse" gradientTransform="matrix(0, 0.00454712, -0.0256958, 0, -17.15, 0)" spreadMethod ="pad" x1="-819.2" y1="0" x2="819.2" y2="0" >
<stop  offset="0" style="stop-color:#F1F1F1;stop-opacity:1" />
<stop  offset="1" style="stop-color:#D4D3D3;stop-opacity:0.988235" />
</linearGradient>
<path style="fill:url(#LinearGradID_57) " d="M-14.4,-21.05L-13.4 -21.05L-13.4 21.05L-14.4 21.05L-14.4 -21.05" />
<linearGradient
id="LinearGradID_58" gradientUnits="userSpaceOnUse" gradientTransform="matrix(0, 0.00454712, -0.0256958, 0, -18.15, 0)" spreadMethod ="pad" x1="-819.2" y1="0" x2="819.2" y2="0" >
<stop  offset="0" style="stop-color:#F1F1F1;stop-opacity:1" />
<stop  offset="1" style="stop-color:#D4D3D3;stop-opacity:0.988235" />
</linearGradient>
<path style="fill:url(#LinearGradID_58) " d="M-14.4,21.05L-21.85 21.05L-21.85 -21.05L-14.4 -21.05L-14.4 21.05" />
</g>
</svg>
