<?xml version="1.0" encoding="utf-8"?>
<svg version="1.1" id="Layer_1"
xmlns="http://www.w3.org/2000/svg"
xmlns:xlink="http://www.w3.org/1999/xlink"
xmlns:author="http://www.sothink.com"
width="32px" height="36px"
xml:space="preserve">
<g id="1340" transform="matrix(1, 0, 0, 1, 1, 0.55)">
<path style="fill:#FFFFFF;fill-opacity:1" d="M22.25,12.4Q22.25 14.85 19.5 15.5Q12 17.3 8.9 18.55L9.6 21.85L10.2 25.3Q11.05 26.3 16.35 25.25L23.1 23.95Q24.7 23.95 25.7 24.9Q26.75 25.9 26.75 27.4Q26.75 29.8 6.2 35.45Q4.7 35.45 3.75 34.45Q2.5 33.15 2.5 30.2Q2.5 27.05 0.75 16L-1 4.25Q-1 2.7 -0.35 1.65Q0.35 0.6 1.3 0.6L5.05 2.35L13.8 1.35L22.1 -0.25Q30.75 -1.65 30.75 3.05Q30.75 6.3 23.45 7.3Q9.95 9.15 6.9 10.05L7.05 10.85Q9.25 10.1 12.4 9.7L15.55 9.45Q19.2 9.45 20.95 10.5Q22.25 11.3 22.25 12.4" />
</g>
</svg>
