<?xml version="1.0" encoding="utf-8"?>
<svg version="1.1" id="Layer_1"
xmlns="http://www.w3.org/2000/svg"
xmlns:xlink="http://www.w3.org/1999/xlink"
xmlns:author="http://www.sothink.com"
width="43px" height="34px"
xml:space="preserve">
<g id="1341" transform="matrix(1, 0, 0, 1, 1, 0.75)">
<path style="fill:#FFFFFF;fill-opacity:1" d="M42,5.7Q42 28.2 35 28.2Q32.1 28.2 20.8 20.9Q10.5 14.25 8.75 12.35Q8.9 22 7.75 26.95Q6.3 33.2 2.6 33.2Q1.1 33.2 0.1 32.35Q-1 31.35 -1 29.5Q-1 26.1 0.4 19.25Q1.75 12.45 1.75 9.75Q1.75 6.6 0.9 4.8L0 3Q0 1.25 1.45 0.2Q2.55 -0.55 3.5 -0.55Q4.15 -0.55 13.95 7Q25.2 15.75 32.6 19.45Q35 9.3 35 5.4L33.75 2.35Q33.75 0.95 34.6 0.1Q35.45 -0.75 36.8 -0.75Q39.8 -0.75 41.05 1.2Q42 2.7 42 5.7" />
</g>
</svg>
