<?xml version="1.0" encoding="utf-8"?>
<svg version="1.1" id="Layer_1"
xmlns="http://www.w3.org/2000/svg"
xmlns:xlink="http://www.w3.org/1999/xlink"
xmlns:author="http://www.sothink.com"
width="31px" height="33px"
xml:space="preserve">
<g id="1336" transform="matrix(1, 0, 0, 1, 1, 1)">
<path style="fill:#FFFFFF;fill-opacity:1" d="M20.25,8.45Q18.65 7.15 13.9 7.15Q11.85 7.8 9.9 9.25Q6 12.15 6 16.15L7.15 20.45Q8.95 24.65 12.3 24.65Q16.7 24.65 19.55 21Q22 17.85 22 14.15Q22 9.85 20.25 8.45M29.1,15.25Q28.5 21.8 24 26.4Q19 31.5 11.6 31.5Q7.7 31.5 3.85 27.85Q-1 23.25 -1 15.55Q-1 9.65 4.8 4Q9.95 -1 13.15 -1Q21.55 -1 25.9 4.1Q29.75 8.6 29.1 15.25" />
</g>
</svg>
