<?xml version="1.0" encoding="utf-8"?>
<svg version="1.1" id="Layer_1"
xmlns="http://www.w3.org/2000/svg"
xmlns:xlink="http://www.w3.org/1999/xlink"
xmlns:author="http://www.sothink.com"
width="35px" height="33px"
xml:space="preserve">
<g id="1345" transform="matrix(1, 0, 0, 1, 1, 1)">
<path style="fill:#FFFFFF;fill-opacity:1" d="M33.5,8.8Q33.5 12.15 31.25 18.35Q29 24.55 29 28.4Q29 29.45 28.2 30.45Q27.15 31.8 25.35 31.8Q23 31.8 21.7 28.7L19.15 30.15Q16.95 31.3 14.35 31.3Q7.5 31.3 3.1 24.85Q-1 18.9 -1 11.1Q-1 2.05 3 2.05Q6.3 2.05 6.45 5.15L6 11.1Q6 17 8.85 20.8Q11.4 24.15 14.55 24.15Q23.3 24.15 24.4 11.6Q24.65 5.3 25 2.95Q25.6 -1 27.8 -1Q31.9 -1 33.05 3.4Q33.5 5 33.5 8.8" />
</g>
</svg>
