<?xml version="1.0" encoding="utf-8"?>
<svg version="1.1" id="Layer_1"
xmlns="http://www.w3.org/2000/svg"
xmlns:xlink="http://www.w3.org/1999/xlink"
xmlns:author="http://www.sothink.com"
width="44px" height="39px"
xml:space="preserve">
<g id="1335" transform="matrix(1, 0, 0, 1, 1, 1)">
<path style="fill:#FFFFFF;fill-opacity:1" d="M42.9,3.5Q42.9 7.1 34 21.9Q24.5 37.7 19.95 37.7Q18.25 37.7 17.3 35.25L14.9 27.7Q12.2 19.6 5.3 10.6Q1.9 6.1 -1 3.1Q-1 -1 1.95 -1Q6.3 -1 13.95 11.5Q19.3 20.25 21.75 26.25L22.3 25.55Q25.7 20.5 32.7 7.2Q36.65 -0.3 39.25 -0.3Q41.8 -0.3 42.6 1.55Q43 2.5 42.9 3.5" />
</g>
</svg>
