<?xml version="1.0" encoding="utf-8"?>
<svg version="1.1" id="Layer_1"
xmlns="http://www.w3.org/2000/svg"
xmlns:xlink="http://www.w3.org/1999/xlink"
xmlns:author="http://www.sothink.com"
width="344px" height="41px"
xml:space="preserve">
<g id="1366" transform="matrix(1, 0, 0, 1, 5.4, -1.7)">
<path style="fill:#FFFFFF;fill-opacity:1" d="M333.75,10.65L332.35 9.65L323.5 13.5L325.35 14L333.75 10.65M335.4,6.7L338.2 11.55L335.4 16.4L328.6 18.4L321.8 16.4L319 11.55L321.8 6.7L322 6.55L320.05 6.9L312.9 8L308.25 14.8L309.15 16.8L306.75 18.9L303.75 15.35L305.15 10.15L304.15 10.5L300.35 11.4L298 8.95L321.35 1.7L325.4 4.05L324.95 5.2L328.6 4.7L335.4 6.7M295.15,16.2L293 18.4L275.85 14.45L272 18.4L269.75 16.25L276.75 4.9L278.65 7.65L278 9.45L279.1 9.15Q281.45 8.45 287 5.35Q291.4 3.55 291.4 7.75L283.65 12.5L285.3 12.85Q291.45 13.3 293.55 14.15Q295.15 14.8 295.15 16.2M300.65,22.55Q302.15 23.95 302.15 26.75Q302.15 30.4 299.55 32.25Q297.25 33.9 293.25 33.9L288.5 31.5Q288.5 29.6 293.15 29.5Q297.75 29.45 297.75 26.75L297.6 25.75L294.75 25.5Q287.5 25.5 287.5 31.6Q287.5 36.2 287.15 37.3Q286.65 38.9 284.5 38.9L281.75 36Q281.75 29.15 284.3 25.6Q287.6 21.05 295.35 21.05Q299 21.05 300.65 22.55M272.15,6.65L254.5 15.1L255.4 15.45L259.3 15.75L266 14.75L268.15 17.05Q268.15 18.8 265.55 19.5L258.9 20.15Q255.3 20.15 252.85 19.15Q249.75 17.9 249.75 15.35Q249.75 12.6 256.05 8.8Q262.7 4.75 268.65 4.75L272.15 6.65M249.65,20L247.5 22.65L241.05 21L233.35 22.65L230.5 20.2L243 6.6Q244.25 6.6 246.8 11Q249.65 15.9 249.65 20M253.15,34.95Q253.8 40.15 250.65 40.15L248 37.75L245.6 36.75Q242.2 36.45 239.85 39Q237.4 41.65 236.5 41.65L234.25 39.2L238.2 32.25Q242.95 25.4 246.85 25.4L247.9 25.7L248.15 27.55L243.55 32.8L244.45 32.7Q247.15 32.85 249 31.7Q250.9 30.5 250.9 28.5L250.7 25.2L251.8 24.9L255.65 27.95L253.15 34.95M261,30.2Q262.7 28.7 265.85 28.25L268.4 25.3Q271.2 25.3 274 27.2Q277.15 29.4 277.15 32.35Q277.15 34.25 275.15 36.05Q272.3 38.65 266.8 38.65Q264.15 38.65 261.95 37.3Q259.5 35.75 259.5 33.3Q259.5 31.5 261 30.2M272.65,32L270.5 32L264.25 33.4L264.65 33.65L272.65 32M239.5,16.5L243.5 16.5L242.4 12.6L239.5 16.5M204.7,20.25L216.9 17.9L211.25 13.75L204.7 20.25M215.3,10.05L223.1 8L218.85 7.65Q214.9 7.7 214.2 10.4L215.3 10.05M221.9,17.35Q221.75 19.5 219.4 21.4Q214.75 25.15 203.6 25.15L201 23L202.45 21.15L200.5 19L217.1 2.5Q225.1 2.5 227.95 5.7Q231.3 9.45 219.4 14.1L221.9 17.35M217.15,31.15Q218.95 28.9 223.3 27.35Q228.25 25.65 234.75 25.65L238.15 27.3Q238.15 29.3 234.1 30.15Q228.1 31.05 224.25 31.9Q228.2 32.25 229.85 33.75Q230.9 34.7 230.9 36Q230.9 37.35 226.95 39.8Q222.45 42.65 218 42.65L215.75 40.5L223.6 36.35Q218.75 36.5 217 34.85Q215.4 33.3 217.15 31.15M180.1,30.65L161.05 29.75Q139.35 29.75 130.85 32.7Q128.55 33.5 126.8 34.75Q125.5 35.65 124.75 35.65L113.5 25.9Q60.85 25.9 25.45 33.05Q15.5 35 5.7 37.9L-2.95 40.15L-5.4 38Q-5.4 36 4.25 33.15Q14 30.3 29.7 27.7Q67.75 21.4 106.35 21.5L105.7 21.1L99 16.05L106.5 13.8Q118.65 13.8 152.9 19.5Q186.4 25.1 186.4 26.65L184.15 28.65L180.1 30.65M130.4,20.05L112 19.15L114.8 21.45L130.4 21L130.4 20.05M152.7,25.3L120.15 25.75L124.5 29.75L136 26.45L152.7 25.3" />
</g>
</svg>
