<?xml version="1.0" encoding="utf-8"?>
<svg version="1.1" id="Layer_1"
xmlns="http://www.w3.org/2000/svg"
xmlns:xlink="http://www.w3.org/1999/xlink"
xmlns:author="http://www.sothink.com"
width="33px" height="39px"
xml:space="preserve">
<g id="1334" transform="matrix(1, 0, 0, 1, 1, 1)">
<path style="fill:#FFFFFF;fill-opacity:1" d="M15.15,-0.6Q21.75 0.3 26.2 2.7Q31.25 5.4 31.25 9Q31.25 13.1 26.05 16.85Q19.65 21.45 8.75 21.95Q7.65 25.3 7.9 33.25Q8 35.65 7.4 36.6Q6.65 37.8 4.35 37.8Q0.75 37.8 0.75 33.3L1.65 23L0.35 12.75Q-1 2.95 -1 3.8Q-1 0.75 4.05 -0.4Q8.65 -1.5 15.15 -0.6M24.25,9.05L20.3 7.15Q16.95 5.95 12.75 5.95L6.8 6.2L6.7 9.15Q6.7 12.4 7.8 14.9Q17.5 14 20.9 12.45Q22.9 11.5 24.25 9.05" />
</g>
</svg>
