<?xml version="1.0" encoding="utf-8"?>
<svg version="1.1" id="Layer_1"
xmlns="http://www.w3.org/2000/svg"
xmlns:xlink="http://www.w3.org/1999/xlink"
xmlns:author="http://www.sothink.com"
width="41px" height="36px"
xml:space="preserve">
<g id="1328" transform="matrix(1, 0, 0, 1, 1, 1)">
<path style="fill:#FFFFFF;fill-opacity:1" d="M21.15,6.25L18.05 5.75Q13.35 5.75 9.55 10.7Q6 15.35 6 20.25Q6 22.95 7.65 25.3Q8.5 26.5 9.3 27.15Q9.3 27.75 11.95 27.65L15.35 27.4Q22 27.4 25.35 26.25Q29.3 24.85 32.65 20.7L28.85 20L24.45 19.55L24.35 23.6Q23.9 25.75 21.65 25.75Q19.2 25.75 18.3 25Q16.75 23.7 16.75 19.6Q16.75 16.35 17.85 14.95Q19.8 12.5 25.85 12.5Q32.3 12.5 35.95 14.65Q39.75 16.9 39.75 21.05Q39.75 26.2 33.65 29.95Q26.05 34.6 11.6 34.6Q4 34.6 0.95 29.45Q-1 26.1 -1 20.25Q-0.6 17.35 0.3 14.1Q2 7.6 4.4 5.35Q6.35 3.7 9.45 2.15Q15.55 -1 21.55 -1Q24.4 -1 26.1 0Q27.8 1 27.8 2.5Q27.8 4.15 27.1 5.25Q26.2 6.75 24.25 6.75L21.15 6.25" />
</g>
</svg>
