<?xml version="1.0" encoding="utf-8"?>
<svg version="1.1" id="Layer_1"
xmlns="http://www.w3.org/2000/svg"
xmlns:xlink="http://www.w3.org/1999/xlink"
xmlns:author="http://www.sothink.com"
width="43px" height="38px"
xml:space="preserve">
<g id="1348" transform="matrix(1, 0, 0, 1, 0.75, 1)">
<path style="fill:#FFFFFF;fill-opacity:1" d="M41.2,33.85Q40.3 34.9 38.2 34.9Q37.4 34.9 31.6 27.3Q25.8 19.7 24.6 19.7L10.15 20.65L7.5 28.9Q4.8 36.9 2.75 36.9Q1.15 36.9 0.45 36.4Q-0.75 35.55 -0.75 32.95Q-0.75 29.65 0.1 27.15L2.3 21.35Q1.15 20.75 0.45 19.65Q-0.25 18.7 -0.25 17.8Q-0.25 17.6 1.55 16.2Q3.45 14.7 4.05 12.45Q5.8 5.95 7.05 3.2Q8.9 -1 10.95 -1Q12.1 -1 14.6 0.4L17.55 2.25Q24.2 7.15 25.5 10.5L26.05 11.85L27.75 12.2L34.75 11.9Q39 12.25 39 15.6Q39 17.55 37.65 18.7Q36.2 19.9 34.35 19.3Q37.2 21.35 39.75 25.3Q42.05 28.9 42.05 30.4Q42.05 32.8 41.2 33.85M19.25,13.05L12.85 7.75L11.05 13.15L19.25 13.05" />
</g>
</svg>
