<?xml version="1.0" encoding="utf-8"?>
<svg version="1.1" id="Layer_1"
xmlns="http://www.w3.org/2000/svg"
xmlns:xlink="http://www.w3.org/1999/xlink"
xmlns:author="http://www.sothink.com"
width="43px" height="42px"
xml:space="preserve">
<g id="1327" transform="matrix(1, 0, 0, 1, 1, 0.95)">
<path style="fill:#FFFFFF;fill-opacity:1" d="M41.55,3.1Q41.55 4.95 39.25 5.65Q35.8 6.8 24.75 7.15L24.35 11.35L24.05 13.9Q24.05 24 25.65 28.95Q27.25 33.9 27.25 36.9Q27.25 38.5 26 39.4Q24.95 40.15 23.35 40.15Q19.8 40.15 18 32.1Q15.95 23.2 16.95 7.4Q9.2 8.35 5.8 9.25L3.15 9.9Q-1 9.9 -1 5.95Q-1 2.8 6.2 1.15Q15.45 -0.95 37.35 -0.95Q39.9 -0.95 40.9 0.4Q41.55 1.3 41.55 3.1" />
</g>
</svg>
