<?xml version="1.0" encoding="utf-8"?>
<svg version="1.1" id="Layer_1"
xmlns="http://www.w3.org/2000/svg"
xmlns:xlink="http://www.w3.org/1999/xlink"
xmlns:author="http://www.sothink.com"
width="345px" height="42px"
xml:space="preserve">
<g id="1330" transform="matrix(1, 0, 0, 1, 171.15, 20.75)">
<path style="fill:#FFFFFF;fill-opacity:1" d="M13.85,-8.05L59.6 -12.8L114.1 -17.55L152.35 -20.45Q173.15 -21.6 173.15 -18.65Q173.15 -17.25 172.25 -17L167.75 -16.75Q142.85 -16.75 66.65 -9.05L28.35 -5.15L49.85 -2.8L98.85 3L115.4 4.6L132.8 5.8Q152.15 7.4 152.15 10.8Q152.15 11.5 151.65 12.1Q151.05 12.9 150 12.9L70.65 3.85L5.95 -2.9L-35.55 1.35L-79.45 5.85L-115.75 10.5Q-123.9 11.55 -147.25 16.45L-169 21.15Q-170.4 21.15 -170.9 20L-171.15 18.8Q-171.15 13.35 -105.4 4.8Q-61.2 -0.95 -32.8 -3.3L-15.55 -4.95L-77.55 -10.25L-137.8 -11.25L-155.75 -9.75Q-156.45 -9.7 -159.4 -8.2Q-162.3 -6.75 -163 -6.75Q-164.4 -6.75 -164.9 -7.9L-165.15 -9.25Q-165.15 -12.35 -157.25 -13.9Q-151.1 -15.15 -138.25 -15.65L-85.5 -14.65Q-20.3 -10.35 7.75 -7.4L13.85 -8.05" />
</g>
</svg>
