<?xml version="1.0" encoding="utf-8"?>
<svg version="1.1" id="Layer_1"
xmlns="http://www.w3.org/2000/svg"
xmlns:xlink="http://www.w3.org/1999/xlink"
xmlns:author="http://www.sothink.com"
width="35px" height="38px"
xml:space="preserve">
<g id="1339" transform="matrix(1, 0, 0, 1, 1, 0.95)">
<path style="fill:#FFFFFF;fill-opacity:1" d="M16.8,6.9Q13.65 7.95 12.1 8.7Q6 11.75 6 18.2Q6 29.15 23.7 29.15Q25.5 29.15 26.7 28.6Q27.95 28 29.5 28Q31.65 28 32.75 29.7Q33.55 30.9 33.55 32Q33.55 33.65 32.2 34.45Q29.05 36.25 19 36.25Q10.45 36.25 4.65 30.95Q-1 25.75 -1 18.15Q-1 8.75 5.55 3.55Q11.2 -0.95 19.25 -0.95Q22.2 -0.95 22.75 1.15Q23.35 3.4 19.9 5.55Q19.3 6.1 16.8 6.9" />
</g>
</svg>
