<?xml version="1.0" encoding="utf-8"?>
<svg version="1.1" id="Layer_1"
xmlns="http://www.w3.org/2000/svg"
xmlns:xlink="http://www.w3.org/1999/xlink"
xmlns:author="http://www.sothink.com"
width="30px" height="39px"
xml:space="preserve">
<g id="1350" transform="matrix(1, 0, 0, 1, 1, 1)">
<path style="fill:#FFFFFF;fill-opacity:1" d="M28.75,24.65Q28.75 37.3 16.4 37.3Q7.7 37.3 3.45 33.7Q-1 29.9 -1 21.7Q-1 10.45 5.2 3.75Q9.6 -1 12.85 -1Q16.25 -1 16.25 2.8Q16.25 3.35 11.7 7.45Q7.15 11.6 6.95 15.65Q10.1 13.05 14.85 13.05Q21.2 13.05 24.9 16Q28.75 19.1 28.75 24.65M6.25,23.85Q6.25 26.45 7.35 27.75Q9.4 30.2 15.4 30.2Q18.85 30.2 20.35 29.05Q21.8 27.85 21.8 25.15Q21.8 21.85 19.7 21.15L13.5 20.1L10.65 21.8Q9.05 22.8 7.35 23.15Q6.25 23.4 6.25 23.85" />
</g>
</svg>
