<?xml version="1.0" encoding="utf-8"?>
<svg version="1.1" id="Layer_1"
xmlns="http://www.w3.org/2000/svg"
xmlns:xlink="http://www.w3.org/1999/xlink"
xmlns:author="http://www.sothink.com"
width="43px" height="38px"
xml:space="preserve">
<g id="1342" transform="matrix(1, 0, 0, 1, 0.75, 0.6)">
<path style="fill:#FFFFFF;fill-opacity:1" d="M40.6,32.25Q39.5 33.4 37.35 33.4Q34.7 33.4 34.05 32.05Q33.6 31.25 33.55 27.8Q33.45 18.05 28.85 8.85Q27.25 10.7 25.35 16.05Q24.2 19.4 20.95 19.4Q19.6 19.4 13.4 15.35L6.25 10.6L6.25 12.8L6.9 20.15Q7.5 25.85 7.5 28.95Q7.5 33.15 6.65 34.8Q5.75 36.65 3.2 36.65Q0.35 36.65 0.25 34.1Q0.7 29.85 0.6 26.5Q0.5 22.7 -0.15 16.3Q-0.75 10.7 -0.75 4.8Q-0.75 0.9 2.75 0.9Q4.25 0.9 9.95 3.95Q16.15 7.3 19.05 10.2Q22.85 2.4 28.2 0.05Q34 -2.55 35.45 5.25Q35.8 7.2 38.75 13.25Q41.5 20.55 41.5 29.9Q41.5 31.3 40.6 32.25" />
</g>
</svg>
