<?xml version="1.0" encoding="utf-8"?>
<svg version="1.1" id="Layer_1"
xmlns="http://www.w3.org/2000/svg"
xmlns:xlink="http://www.w3.org/1999/xlink"
xmlns:author="http://www.sothink.com"
width="274px" height="151px"
xml:space="preserve">
<g id="1361" transform="matrix(1, 0, 0, 1, -7, -5.3)">
<path style="fill:#FFFFFF;fill-opacity:1" d="M183.8,18.65Q182 18.65 180.95 17.6Q179.45 16 179.1 11.85L174 13.15L179.4 16.6Q179.4 19.8 174.4 21.5Q171.15 22.65 169 22.65L163.75 19.45L164.6 17.3L164.65 17.25L162.15 16.7L163.15 21.95L162.05 24.2L161.45 24.3L172.75 24.15L179.9 24.85Q184.1 25.85 183.35 28.1Q182.45 29.1 181.2 29.15L174.45 28.9Q156.4 28.6 120.25 32.1Q71.65 36.85 42.25 43.65L26.4 47.6Q20.2 49.15 16.2 49.15L13.25 47L28.2 42.05L66.45 34.35Q118.5 25.45 160.6 24.35L157.5 21.45L153.45 18.5Q150.15 18.5 146.5 21.2Q142.9 23.9 141.2 23.9L138 20.3L139.5 11.05L138 8.45L138.45 6.6L139.7 6.4Q142.45 6.4 143.35 7.8Q143.9 8.65 143.9 10.65L142.65 18.1L153.5 14L155.7 14.5L156.65 14.85L156.1 12.15L158.05 8.55L161.1 12.55Q163.7 10.75 164.9 8.45Q166.3 7.05 172.15 7.05L174.3 8.4Q178.15 8.4 186.2 5.75Q188.35 5.05 189.15 5.45Q190.15 6 190.15 8.55L183.65 12.2L185.9 16.8L183.8 18.65M170.95,18.2L172.35 17.5L170.5 18.25L170.95 18.2M194.15,63.5L188.25 67.4L180.85 62.75Q177.65 62.75 173.35 66.45Q169.05 70.15 167.85 70.15L165.5 68L179.85 58.25Q186.6 58.25 187.85 63L190.15 61Q192.6 59.05 194.55 58.1Q200.65 55.15 200.65 62.8L198.7 64.9L194.15 63.5M169.25,86.95L186.2 78.95L188.15 85L193 82.75L200.95 87.5Q202.95 87.5 204.95 83.25Q207 78.95 209.1 78.95L211.9 80.8L209.85 84.65L213.3 88.65L219.6 82.7L222.65 85.8L217.85 91.55L219.85 92.5L231.95 82.6L232.85 82.7L233.15 84.45Q233.15 89.7 228.1 93.5Q223.55 96.9 218.8 96.9L206.3 89.65L200.6 91.9L193.2 87.8L189.2 89.65Q186.75 89.65 185.2 88.95Q182.65 87.8 183.5 85.1L172.2 89.4L169.25 86.95M167.4,98.55L165.05 99.9Q161.55 99.9 159.1 96.45Q156.65 93 153.25 93L150.3 93.9L145.75 92.35L139.7 94.9Q136.95 94.6 134.3 93.5Q129 91.35 129 87.5L132 84.5L139.5 90.5Q142.95 90.5 143.6 86.75Q144.25 83 147.3 83L149.15 89.15L150.2 89.4L155.5 88.65L157.75 85.5L164.45 92.7L167.4 98.55M223.8,117.4L221.5 115.05L238.75 98.35Q239.7 98.35 239.45 100.9Q239.15 103.6 241.7 104L247.25 101Q249.2 101 249.95 102.4L250.7 105.5Q251.45 110 255.35 110L257.75 109.25L259.9 111.75L255.5 114.4Q252.7 114.4 250.5 113.25Q246.8 111.35 246.25 106.75L241.95 108.4L237.5 107.25Q231.95 117.4 223.8 117.4M208.15,117.4Q202.8 117.4 198.95 114.3Q195.1 111.25 195.1 107L193.85 106.75Q192.25 106.55 191.5 107.8L190.4 110.6Q188.65 114.9 182.75 114.9Q174.5 114.9 174.5 108.5Q174.5 102.75 178.25 102.75L180.9 104.6L178.9 108.5L182.3 110.5Q184.1 110.5 187.35 106.35Q190.55 102.2 193.7 102.2Q198.45 102.2 199.05 106.85Q199.4 109.5 199.65 110.05Q200.3 111.5 202.2 111.5Q204.25 111.5 205.5 108.25Q206.75 105 208.25 105L211.45 109.9L211.4 111.35L214.85 104.25L222.9 108.8Q222.9 110.7 221.6 111.05Q220.1 111.5 216.65 110.15Q216.6 113.95 213.85 115.85Q211.6 117.4 208.15 117.4M162.6,108.75Q161.5 108.75 160.65 110.2L159.25 113.35Q157.2 117.9 153 117.9L145.6 114.15L136.4 118.15L124.6 115.15L118.75 118.9L109.5 109.05L111.75 106.5L118.85 114.4L125.85 106.75L129.45 112.35L130.4 112.85L130.05 109.8L132.5 105.75Q137.05 105.75 135.5 113.75Q139 113.85 140.7 112.3Q141.85 111.25 142.6 108.8Q143.45 106.05 144.1 105.25Q145.35 103.6 148.1 103.6L151.15 106.3L149.65 111.75L152 113.5Q153.85 113.5 154.65 112.05L155.75 108.9Q157.35 104.25 163.85 104.25L170.15 107.45Q170.15 110 167.7 109.65Q164.4 108.75 162.6 108.75M273.75,100.5L277.2 97.95L280.65 103.9Q280.65 108.75 278.45 110.7Q277.1 111.9 275.1 111.9L270 107.4L267.05 108.4Q263.85 108.4 261.05 105.8Q258.2 103.15 256.5 103.15L255.25 101L259 98L267.05 103.6L270.25 101L275.15 106.75L276.25 104.3L273.75 100.5M122.55,23.3Q119 25.9 112.75 25.9Q107.7 25.9 104.95 23.45Q102.35 21.1 103.85 18.7L101.85 19.25L102.15 21.4Q102.15 24.65 99.1 25.9Q96.6 26.9 90.7 26.9L75.65 24.25L68.75 30.4L55.45 28.25L56.4 29.9L52.6 33.15L50.4 31.5L36.8 33.4Q32.3 33.4 30.15 32.15Q28 30.9 28 28.3Q28 27.75 29.5 25.45Q31.35 22.6 33.85 20.1Q41.4 12.6 50.55 12.6L53.15 14.35Q53.15 16.1 51.75 16.85L47.75 18.1Q39.75 20.5 32.4 28.2L37.1 29Q51.3 29 52.65 23.05Q52.85 20.05 53.2 18.9Q53.8 17.05 56.8 17.05L58.65 19.5L56.95 23.25L62.95 24.25L64.1 24L62 20.5L64.4 18.35Q66.5 18.35 67.95 19.7Q69.4 21.15 69.35 23.5L69.65 24.75L71 22.9L69.25 20.75L77.2 13.2L84.5 19.95L87.75 15.65L85.75 13.5Q88.35 12 90.9 10.45L94.9 13.4L92.4 17.1L104.75 13.75L106.85 15.45L115.5 9.5L117.9 11.6L116.75 13.9L115.9 14.8L121.4 13.5L123.9 15.4L111.8 21.3L122.5 18.75L124.5 19.05Q125.65 21 122.55 23.3M88.65,21.75L95.95 22.15L96.5 21.9L90.6 19L88.65 21.75M112.65,57.7Q113.55 56.25 115.6 56.25Q120.4 56.25 123.35 59.5L125.3 61.75Q126.35 62.75 127.6 62.75Q132.8 62.75 135.65 61.35Q137.4 60.45 139.2 58.25Q141.05 55.9 142.5 55.1Q145 53.7 149.7 53.7L154.45 61.15L161.4 66.2L158.6 68.15Q154.95 68.15 152.35 66.35Q148.9 63.9 149.35 59L128 67.05L121.7 70.15L119.25 67.7L120.75 63.75L116.4 61Q116.75 65 111.75 67.65Q107.55 69.9 103.05 69.9L84.75 65.6Q83.6 68.25 82.55 69.2Q80.85 70.65 77.35 70.65L73.35 68.35L73.9 65.9L74.1 65.15L74.1 65L59.55 73.15L49.75 63.5L53.25 60.75L63.8 66Q70.1 66 70.8 59.9Q71.2 56.35 71.45 55.7Q72.2 53.8 74.55 53.8Q77.35 53.8 78.35 57.4Q79.2 60.5 78.6 65.65L84.25 60.75L96.3 63.35L99.6 60L102.65 62.4L101.5 64.9L103.35 65.5Q110.05 65.5 111.6 60.9L112.65 57.7M100,92.5Q102.95 88.55 104.25 88.45L107.85 89.05L108.85 83.6L110.5 83.25Q116.7 83.25 120.9 89.4L123.7 93.6Q125.2 95.5 126.75 95.5L130.75 94.5L132.9 96.8L126.65 99.9Q123.85 99.9 122.3 98.2Q119.65 94.75 116.4 91.25L115.25 90.15L115.3 91.65Q115.3 95.1 114.5 96.55Q113.75 97.9 112.1 97.9L105.25 93.15L99.5 97.4L92.6 90.9Q91.1 101.15 84.5 101.15L81.75 99L92 85.6L100 92.5M78.65,20.25L77.6 19.1L77.25 20.1L78.65 20.25M38.55,73.55L35.65 75.3L35.65 66.8L39.8 59.3L38.55 73.55M33.5,90.95L30.25 88.75L40.2 85.9L45.2 88.3L37.85 95.1L37 95.75L43 94L45.15 96.3L37.1 100.15L32 96.9L35.05 91.8L36.4 90.75L33.5 90.95M64.45,88.25Q65.3 94.5 67.1 94.5L74.25 91.5L76.4 93.8L67.6 98.9Q64.6 98.9 63.15 97.3Q62.35 96.4 60.6 92.65Q50.25 106.15 45.25 96.5L61.9 82Q63.6 82 64.45 88.25M79.9,108.9Q81.3 113.15 79.65 116.5L89.25 108.5L92.45 112.3L92.5 113.35L95.7 108.15L98.35 105L103.4 114.15L101.25 116.4L98.1 114.1L91.85 117.9L88.25 115.5L80.75 120.9L75.35 117.5L69.1 120.9L65.75 117.35L59.35 119.15Q56.1 119.15 55.4 117.85Q53.55 114.25 52.15 112.75L46.05 121.65L43.25 119.1L51.5 108L59.35 114.75L67.35 110.25Q71.55 110.25 70.15 115.85Q71.5 114.75 72.4 109.25Q73.15 104.75 76.05 104.75Q78.55 104.75 79.9 108.9M53.2,130.9Q54.1 129.2 55.15 128.9Q57.95 128 56.75 136.3L58.6 137.8L65.25 133.25L71.4 137.75L77.75 129.2Q79.9 129.2 80.35 129.75L80.45 131.3Q80.35 134.2 85.65 136.2L97.4 140.45L94.5 142.4L86.1 141.1L83.35 142.9L78.6 135.75L78.35 135.25Q75.9 140.5 75 141.4Q73.4 143 69.35 142.7L68.65 144.75L73.15 147.55L70.6 149.4Q64.25 149.4 64.25 145L65 139.85L58.95 142.15Q52.25 142.15 52.25 134.55Q52.25 132.65 53.2 130.9M44.5,140.75L36.6 150.15L30.95 148.3L30.35 147.65L27 154.15L24.75 151.4L25.5 147.8L25.8 147.05L9.85 155.4L7 153.05Q7 151.95 9 150.7L13.4 148.25Q19.75 144.5 19.75 139.35L17.75 137L19.55 134.6Q24.15 134.6 24.15 139.95L23.7 142.25L23.25 143.25L27.9 140.25L35.6 146L43.95 133.55Q46.1 133.55 47.75 136.9Q49.25 139.85 49.25 142.5L52.15 144.55L47.75 147.65L44.5 141.65L44.5 140.75M22.75,119.2L22.75 115L26.3 113.8L22.75 111.65L27.6 108.4L34.4 113.65Q34.4 117.5 30.85 121.9Q26.95 126.65 22.5 126.65L18.5 124.15L27.5 118.9L22.75 119.2M91.6,136.6Q90.25 136.05 90.25 134.45L96.4 132.15L106.15 135.3L104.3 139.65L104.15 139.85L110.6 135.5L113.4 138.4L111.5 141.85Q108.55 145.15 103 145.15L99.6 141.15L99.8 137.25L98.15 137.3Q93.25 137.3 91.6 136.6M118.85,141.15L116.5 140.45L115.5 138.7L116.5 137L118.85 136.25L121.25 137L122.2 138.7L121.25 140.45L118.85 141.15" />
</g>
</svg>
