<?xml version="1.0" encoding="utf-8"?>
<svg version="1.1" id="Layer_1"
xmlns="http://www.w3.org/2000/svg"
xmlns:xlink="http://www.w3.org/1999/xlink"
xmlns:author="http://www.sothink.com"
width="42px" height="34px"
xml:space="preserve">
<g id="1337" transform="matrix(1, 0, 0, 1, 0.9, 0.75)">
<path style="fill:#FFFFFF;fill-opacity:1" d="M20.85,7.9Q18.95 18.85 18.95 21.75Q18.95 27.5 18.55 29.2Q17.8 32.5 14.95 32.5Q12.85 32.5 12.05 31.5Q11.25 30.45 11.25 27.35Q11.25 24.9 12.1 17.85Q12.9 10.55 13.5 8.5Q4.3 9.3 1.7 8.75Q-0.9 8.2 -0.9 5.5Q-0.9 3.35 0.4 2.55Q1.6 1.8 4.75 1.6L24.7 0.4L37.15 -0.75Q40.3 -0.45 40.3 3.3Q40.3 5.7 35.55 6.45L20.85 7.9" />
</g>
</svg>
