<?xml version="1.0" encoding="utf-8"?>
<svg version="1.1" id="Layer_1"
xmlns="http://www.w3.org/2000/svg"
xmlns:xlink="http://www.w3.org/1999/xlink"
xmlns:author="http://www.sothink.com"
width="306px" height="138px"
xml:space="preserve">
<g id="1363" transform="matrix(1, 0, 0, 1, -3.75, -16.45)">
<path style="fill:#FFFFFF;fill-opacity:1" d="M307.05,29.35L309.4 32.05Q309.4 45.15 296.85 60.45Q293.7 64.3 288.2 69.95Q284.3 73.95 284.3 74.55L288.4 86.8Q288.4 89.1 284.9 89.7L276.55 90.3L252.2 95.4L247.3 95.9L245 93.75L279.4 65.85L283.4 70.1Q299.2 55.4 303.05 40.35L304.6 32.2Q305.25 29.35 307.05 29.35M264.55,20L264.9 22.3L261.75 28.6L261.9 28.6L273.25 23.5Q276.85 23.5 276.3 25.15Q275.8 26.55 272.55 28.7Q264.6 33.9 259.35 33.9L255.65 29.95L239.85 31.4L233.85 28.6L231.75 30.15L229.45 28.4L216.5 32.15L213 29.7L217.4 24.25L216 22.25L217.7 20.1Q221.9 20.1 221.9 24.3L221.1 26.75L227.5 25.5L229.1 26.2L230.5 19.55L239.5 26.65L244.35 18.55L245.9 18.85L246.4 20.8L245.9 22.45L255.2 17.9L257.4 19.85L256.25 22.2L258.65 22.3L263.45 19.7L264.55 20M253.9,45.25L262.3 44.65L264.9 46.8L257.65 49.3L260.4 57.55L257.85 59.9L254.65 55.3L247.5 53.6L240.75 58.9L238.5 56.75L239.25 55.05L237.75 55.1Q239.1 57.85 237 58.8L232.05 59.4Q227.35 59.4 225.2 58.6Q222.75 57.7 222.75 55.5Q222.75 53.35 226.7 49.15Q231.55 44 237 44L239.6 45.75L249.45 44.2L253.9 45.25M254.85,27.35L255.6 28L255.8 27L254.85 27.35M278.6,70.75L268.75 79.35L270.25 78.4L279.3 73.15L278.6 70.75M252.45,49.7L250.85 49.85L253 50.6L252.45 49.7M280.35,77.6L266.9 86.45L283.35 85.4L280.35 77.6M209.95,20.15Q208.45 22.2 201.65 24.55L202.7 24.4L210.15 26.3L198.1 29.65L195.25 27.5L192.4 28.25L192.85 28.7L198.25 30L203.2 29.6Q204.65 29.65 204.65 31.8L198.65 34.4L188.9 31.15L180 33.9L174.25 31L177.15 28.85L179.25 22.9L178.25 20.2L179.2 18.4L186.35 18Q191.8 18 193.7 22.2L206.9 18.1Q211.45 18.1 209.95 20.15M221.5,44.75L223.9 47.05L217.4 58.65L205.9 50.25L205.8 51.15Q205.2 55.75 204.2 57.8Q203.15 59.9 201.25 59.9L199 57.55L204.45 44.25L216.4 53.75Q216.3 49.2 217.45 47Q218.7 44.75 221.5 44.75M185.95,22.85Q182.05 23.8 181.5 29.25L182.5 29.25L189.75 24.3Q189.75 23.45 188.6 22.95L185.95 22.85M179.7,44.55Q187.15 46.5 187.15 51.7Q187.15 54.6 184.45 56.75Q181.75 58.9 178.2 58.9Q172.95 58.9 170.8 55.2Q169.9 53.6 168.85 48.2L164.55 48.9L161.75 59.15L159.5 56.8L160.2 50.15L153.6 52.15L151.25 49.8L161.9 44.25L171.5 43.6Q176.05 43.6 179.7 44.55M177.95,48.5L174.55 49.4L173.15 51.5L174.55 53.65L177.95 54.5L181.35 53.65L182.75 51.5L181.35 49.4L177.95 48.5M173.8,82.4L179.85 83.15L180 82.5Q180 81.2 179.2 79.4L178 76.8Q177.15 74.35 181.7 74.35Q183.6 74.35 184.55 78.5Q185.4 82.05 185.4 87.55L183.25 90.15L171.75 86.4L168.25 92.15L165.75 89.7L175.3 74.95L175.95 75.1L176.65 77.65L173.8 82.4M194.75,81.5L194.7 81.65L196.4 83.65L195.8 82.8L194.75 81.5M202.1,83.85L202.6 83L200.25 79.85L202.5 77.5L216.35 82.75L219.55 80.45Q219.3 78.55 219.5 77.25Q219.9 74.85 222.2 74.85L224.15 78.05Q224.15 82.55 222.9 84.55Q221.35 87.15 217.15 87.15L209.9 86L207.1 89.4L202.85 85.95L202.7 88.5Q202.2 89.65 200 89.65L192.4 86.75L189.35 88.9L186.25 86.5L188.4 84.25L187.5 82.45L194.6 75.35L202.1 83.85M232.9,78.7Q228.9 80.85 228.9 82.9L234.6 84.75L231 81.75Q231 78.25 241.75 78.25L245.15 80.7L239.9 83Q240.3 86.25 238.75 87.85Q237.2 89.4 233.55 89.4Q229.6 89.4 227.15 87.75Q224.5 86 224.5 82.9Q224.5 80.35 228 76.6Q231.7 72.65 234.95 72.65L236.9 75.25Q236.9 76.6 232.9 78.7M237.25,105.4Q237.6 106.6 237.2 110L238.25 108.9L247.55 103.35L249.9 105.9L247.5 108.65Q244.7 108.65 242.3 110.3Q239.4 112.35 239.4 115.65L242.5 117.25L245.6 116.25L244.7 116.1L241.5 113.2L243.85 111L248.7 111.75L254.6 111L257.15 113.4Q257.15 114.6 254.6 114.85Q251.45 115.15 250.05 117.15L242.3 121.65Q238.5 121.65 236.65 120.1Q234.7 118.5 235 115.5L230.5 117.4L223.4 115.15L221.2 116.9L216.25 108.85L218.5 106.5Q222.45 106.5 224.4 109.7Q226.4 112.9 230.15 112.9Q232.7 112.9 232.6 108.35Q232.55 103.8 234.9 103.8Q236.8 103.8 237.25 105.4M211.65,105.5Q211.65 106.05 210.6 106.2L208.1 106.4Q204.25 106.85 203.15 110.15L199 118.9L196.75 116.55L198.75 110.55Q191.25 112.35 191.25 109L209.05 103.6L211.65 105.5M214,107.25L214 118.2L209.35 118.2L209.35 107.25L214 107.25M211.4,130.35L200 142.65L197.5 140.5L209.7 127.9L211.4 130.35M186.95,106.4Q189.65 106.05 189.65 108.4L188.65 110.9L192.65 119.7L190.5 121.9Q187.95 121.9 185.85 116.25L184.25 110.55Q184.25 106.75 186.95 106.4M165.25,115L173.75 104.35L183.4 117.7L181.05 119.9L170.4 116.1L166.35 119.4L164 117.05L165.25 115M174.15,112.45L175.1 112.5L173.6 110.5L173 112.15L174.15 112.45M167.9,132.65Q169.35 132.75 170 136.55L179.15 133.4Q183.15 133.4 185.25 135.65Q186.9 137.45 186.9 139.7Q186.9 143.2 183.8 145.45Q180.45 147.9 174.75 147.9Q171.8 147.9 169.8 146.4Q167.5 144.7 167.5 141.55L169.65 136.85L168.85 137.2L164.3 137.65L153.75 136.75L151.9 136.75L151.75 139.4Q158.3 140.75 160.45 141.8Q163.4 143.3 163.4 146.3Q163.4 148.6 160.95 149.7Q158.35 150.9 152.5 150.9Q139.75 150.9 139.75 147.75L142.35 145.5L151.55 146.5L158.6 145.9L157.8 145.55Q155.05 144.55 148.95 144.05Q145.75 143.8 145.75 141.3L147.5 137.9L146.75 135.3L149.25 132.4L162.2 133.25L167.9 132.65M177.2,138.7L173.45 139.4L171.9 141.1L173.45 142.8L177.2 143.5L180.95 142.8L182.5 141.1L180.95 139.4L177.2 138.7M199.3,146.95L198.2 149.65L195.45 150.75L192.75 149.65L191.6 146.95L192.75 144.3L195.45 143.15L198.2 144.3L199.3 146.95M146.9,23.3Q146.75 28.5 145.45 30.6Q144.65 31.9 143.5 31.9L141.25 29.45L140.35 28.6L140.9 30.05L135 32.65Q131.1 32.65 129.2 31.75Q127.25 30.75 127 28.55L126 29L122.7 33.6Q121.05 35.65 117.25 35.65L113.25 34.95Q110 33.6 110 30.05Q110 28.4 113.4 23.2Q117.7 16.7 122.15 16.7L124.4 18.95Q124.4 20.9 123.1 21.55L120.15 22.3Q115.5 23.45 114.5 30L115.35 31.25L120.1 30.75L118 28.5L127.6 24.25Q128.65 24.25 133.35 20.6Q138.05 16.95 141.9 16.95L149.35 21.05L160.6 16.45L162.4 18.55L154.9 23.1L161.15 26.15Q160.7 28.05 159 29.9Q155.7 33.65 149.75 33.65L147.5 31.5L154.5 27.65L147.8 23.3L146.9 23.3M135.5,28.2L136.85 28L134.15 28L135.5 28.2M93.75,19.2Q98.4 19.2 98.4 23L93.15 29.4L94.55 29.8L104.9 33.95L102.4 36.15L85.75 31L83.5 32.15L81 29.7L82 25.25L78.25 22.5L81.25 20.25L93.75 19.2M88.2,24.3Q86.3 24.9 86.4 27.6L93.5 23.75L88.2 24.3M93.15,46.2L88.4 51.5L94.7 51Q95.9 51.25 95.9 52.85Q95.9 54.3 92.75 55.15Q89.4 56.05 81.9 56.5L82.15 56.6L87.6 57.25L93.75 56.25L95.9 58.55L78.35 63.4L70.55 54.65L70.65 56.25Q70.4 59.85 68 61.2Q66.3 62.15 62.9 62.15L57.05 60.55L55.15 58.5L55.15 58.6L53 60.9L45.9 50.4L39.6 54.4L34.95 53Q34.1 53 31.9 57.45Q29.65 61.9 27.85 61.9L25.5 59.75Q25.5 58.2 28.15 53.85Q31.45 48.5 35 48.5L39.5 49.65Q40.2 49.65 43.5 46.9Q47.05 44.75 49.35 47.3L54.05 54.8L54.5 56.05L54.5 55.75Q54.5 53 57 50.9Q59.5 48.85 62.6 48.85L68.5 50.7L71.15 48.35Q73.75 48.35 74.65 51.65Q75.9 56.1 77.25 57.35L77.1 56.1Q76.5 48.65 82.75 49.35L91.2 43.95L93.15 46.2M110.45,46.95Q119.4 47.4 119.4 54.5Q119.4 57.9 115.6 60Q112.65 61.65 109.75 61.65Q103.5 61.65 103.5 56.9L106.85 51.6L105.75 51.75L101.5 49.75Q101.5 48.65 104.3 47.75Q107.15 46.8 110.45 46.95M110.3,57.25L114.75 53.75L107.9 56.75L109.1 57.1L110.3 57.25M98.95,77.6Q107.4 78.5 107.4 85.4L107.15 86.9L107.65 86.3L115.1 81.4Q119.1 81.4 121.05 82.65Q123.4 84.15 123.4 87.75Q123.4 90.8 120.95 92.45Q118.45 94.15 113.65 94.15Q110.7 94.15 109.4 93.2Q107.85 92.1 106.5 88.55Q99.1 96.65 86.75 96.65L81.25 94.25L81.55 92.75L85.05 92.5L85 92.4L86.75 86.45L83.75 78.95L84.9 76.6L87.35 78.05L92.25 77.65Q96.25 77.35 98.95 77.6M89.95,81.55L91.15 86.85L89.65 92Q96.85 91.35 100.5 88.75Q103 87 103 85.35Q103 83.45 97.75 81.95Q92.5 80.5 89.95 81.55M111.35,89.4L119 87.55L118.8 86.7L117.65 86.5L111.1 88.9L111.35 89.4M146.3,57.7Q143.65 60.15 139.35 60.15L127.65 56.6L127.8 57.1Q128.5 59.25 127.9 60.4Q127.4 61.4 126 61.4L120.75 51.85L123.5 48.5Q124.45 48.5 125.9 49.65L128.85 52.15Q133.5 55.75 139.75 55.75Q144.3 55.75 144.5 52.05Q144.65 49.95 144.85 49.5Q145.35 48.35 147.15 48.35L149.15 50.55Q149.15 55.1 146.3 57.7M134.25,80.75L149.5 76.25L153.4 78.65L148.15 82.9L151.65 91L149.35 93.15Q146.6 93.15 145.05 90.4Q143.55 87.65 143.75 82.95L142.9 83.05L143.65 86.35Q143.65 89.05 142.15 90.7Q140.85 92.15 139.3 92.15L130 88.75L126.6 92.4L122.5 83.3L124.85 81L138.55 87.6L139.3 87L134.25 80.75M70.85,24.35L69.25 26L72.65 26.75L70.9 24.25L70.85 24.35M76.45,24.6Q78.9 29 78.9 30.6L76.9 32.9L66 29.85L61.55 34.65L59.05 32.25L51.75 35.4Q49.2 35.4 47.35 32.95Q45.75 30.85 45.75 28.95Q45.75 24.55 51.25 20.75Q56.55 17.1 62.1 17.1Q67.85 17.1 59.9 22Q50.15 28 50.15 28.95L51.15 31L57.75 28.75L59.9 30.7L71.1 19.5Q73.6 19.5 76.45 24.6M14.25,81.75L10 82.65L8.25 84.75L10 86.9L14.25 87.75L18.5 86.9L20.25 84.75L18.5 82.65L14.25 81.75M14.45,92.15Q9.85 92.15 7 90.7Q3.75 89 3.75 85.75L15.25 75.1L36.35 83.85L37.5 83.6L37.5 81.1L36.75 77.2L39.2 74.5L41.4 77.55L52 71.55L54.65 74.05L52.5 76.9L47 78.25L57.05 78.8Q58.4 79.25 58.4 80.55Q58.4 82.75 53.8 82.95Q46.9 82.9 42.25 83.25L47.5 83.75L54 83L56.15 85.3L52.35 88.25L40.4 87.15L36.75 88.4L30 85.35Q30.9 90.4 27.8 90.4L24.3 87.1Q21.9 90.4 19.9 91.35Q18.2 92.15 14.45 92.15M62.65,53.65L60 54.25L58.9 55.7L60 57.15L62.65 57.75L65.3 57.15L66.4 55.7L65.3 54.25L62.65 53.65M70.55,88.55L71.4 91.9L70.55 95.25L68.45 96.65L66.4 95.25L65.5 91.9L66.4 88.55L68.45 87.15L70.55 88.55M69.9,106.65Q72.2 106.65 74.6 108.2Q77.4 110 77.4 112.5L76.6 114.65L81.65 117.45Q82.05 116.5 81.7 115.1L81.3 113.1Q81.35 111.2 87.5 111.2Q92.9 111.2 95.9 112.95Q99.15 114.85 99.15 118.5Q99.15 121 96.75 122.3Q94.3 123.65 89.7 123.65L82.3 120.75Q81.35 123.15 78.7 124.4Q76.15 125.65 72.35 125.65L68.75 123.25L77.25 119.75L76.15 119.25L69.25 117.1L66.1 121.4L61.25 110.9L69.9 106.65M70.55,112.25L71.9 112L69.15 111.1L69.25 111.85L70.55 112.25M42.45,121Q45.4 119.2 46.35 114.15Q47.15 109.85 48.05 108.5Q49.3 106.75 52.35 106.75Q56.75 106.75 60.45 113.15Q63.4 118.3 63.4 121L60.4 123.4L49.35 120.25L42.5 124.65L39.75 122.5Q39.75 122.15 40.55 121.85L42.45 121M58,118L52.25 111.35L50.5 115.9L58 118M69.1,142.45L76.15 141.65L79.4 143.8Q79.4 145.5 77.25 146.2L69.4 146.9L65.45 146.1L63.6 148.5L65.15 150.8L60.4 153.65L57.75 150.85L63.15 141.65L61.25 139.3Q61.25 137.5 65.35 135.85Q69.75 134.1 75.45 134.1L81.9 136.05Q81.9 137.35 81.05 137.85L78.45 138.45Q72.85 139.4 68.05 142.55L69.1 142.45M79.75,142.25L85.3 138.85Q88.85 138.85 92.7 140.7Q96.25 142.45 96.9 144.15L97.45 143.1L97.5 142.35L96.5 139L98.75 136.75L100.65 137.9L110.35 135Q114.7 135 116.35 135.8Q117.65 136.5 117.65 138.05L111.65 143.75Q122.9 146.4 122.9 150.55L120.75 152.65L113.4 148.5Q107.8 148.15 105.7 147.3Q103.75 146.5 103.75 144.65L110.25 139.5L109.1 139.3L108 139.25Q103.55 140.65 101.85 144.15L100.75 146.25Q100.1 147.15 98.75 147.15L97.4 146.55Q96.35 151.4 87 151.4Q84.1 151.4 82.3 150.25Q80.25 148.95 80.25 146.45L79.75 142.25M161.5,108.25L163.75 111Q163.75 120.9 155.75 120.9L148.85 118.15L145.1 120.9L141.75 108.45L143.9 106.3Q146.9 106.3 147 109.45Q147.1 111.15 146.65 113.75L155.7 116.4Q159.15 116.4 159.25 112.35Q159.3 110.1 159.5 109.5Q159.95 108.25 161.5 108.25M125.5,110.9L121.65 109.8L124.15 120.4L122 122.65L117.2 113.5L116.8 115.4Q115.55 119.3 113.8 120.8Q111.9 122.4 108.2 122.4Q105.5 122.4 103.2 120.9Q100.5 119.15 100.5 116.4L103 110L105.45 112.65L105.3 116.85Q105.65 118 109.1 118Q111 118 111.9 116.45Q112.85 114.8 113.05 110.65Q108 110.9 106.05 110.05Q104.75 109.5 104.75 108.25Q104.75 106.85 107.6 106.15Q112.4 105 125.9 105L128.65 106.95L125.5 110.9M85.9,118L87.2 118.9L90.3 119.25L93.4 118.9L94.7 118L93.4 117.15L90.3 116.75L87.2 117.15L85.9 118M84.75,146.25L85.35 146.6L92.75 145.75L91.7 144.35L89.5 144.1L84.75 146.25" />
</g>
</svg>
