<?xml version="1.0" encoding="utf-8"?>
<svg version="1.1" id="Layer_1"
xmlns="http://www.w3.org/2000/svg"
xmlns:xlink="http://www.w3.org/1999/xlink"
xmlns:author="http://www.sothink.com"
width="39px" height="46px"
xml:space="preserve">
<g id="1333" transform="matrix(1, 0, 0, 1, 1, 0.8)">
<path style="fill:#FFFFFF;fill-opacity:1" d="M37.5,2.75Q37.5 3.45 30.55 10.15Q23.6 16.9 23.6 18.1L25 21.3Q25 23.5 23.75 24.5Q22.85 25.25 21.55 25.25L19.1 24.05L8.1 41.45Q6 44.5 4.25 44.5Q2.8 44.5 1.8 43.5Q0.75 42.45 0.75 40.9Q0.75 36.85 13.35 19.45Q8.75 16.65 3.8 11.45Q-1 6.45 -1 4.65Q-1 0.7 2 0.7Q4.25 0.7 10.55 6.45L18.05 13.55Q29.15 -0.8 34.85 -0.8Q36 -0.8 36.75 0.25Q37.5 1.25 37.5 2.75" />
</g>
</svg>
