<?xml version="1.0" encoding="utf-8"?>
<svg version="1.1" id="Layer_1"
xmlns="http://www.w3.org/2000/svg"
xmlns:xlink="http://www.w3.org/1999/xlink"
xmlns:author="http://www.sothink.com"
width="36px" height="34px"
xml:space="preserve">
<g id="1325" transform="matrix(1, 0, 0, 1, 1, 0.9)">
<path style="fill:#FFFFFF;fill-opacity:1" d="M34.5,18.7Q34.5 24.6 28.45 28.4Q22.4 32.25 13 32.25Q7.55 32.25 3.6 29.4Q-1 26.05 -1 20.15Q-1 13.4 7.55 5.85Q15.25 -0.9 19.4 -0.9Q25.65 -0.9 30.5 7.25Q34.5 14 34.5 18.7M26.95,16.8Q27.1 13.55 24.75 11.05Q22.25 8.45 18.35 8.45Q14.15 8.45 9.65 14.25Q7.4 17.15 6 20.15Q6 22.45 8 23.8Q10.05 25.15 13.7 25.15Q20.1 25.15 23.65 22.55Q26.75 20.3 26.95 16.8" />
</g>
</svg>
