<?xml version="1.0" encoding="utf-8"?>
<svg version="1.1" id="Layer_1"
xmlns="http://www.w3.org/2000/svg"
xmlns:xlink="http://www.w3.org/1999/xlink"
xmlns:author="http://www.sothink.com"
width="44px" height="39px"
xml:space="preserve">
<g id="1351" transform="matrix(1, 0, 0, 1, 1, 1)">
<path style="fill:#FFFFFF;fill-opacity:1" d="M41.45,31.45Q40.4 32.7 38.35 32.7Q37.4 32.7 36.05 31.75Q33.8 30.15 32.2 29.3Q24.45 25.3 7.2 22.75Q5.95 27.15 6.1 34.45Q6.15 36.45 5.65 37.15Q5 38 2.9 38Q0.95 38 -0.15 34.15Q-0.85 31.65 -1 28.65L0.1 21.45Q-0.35 20.95 -0.25 18.85Q-0.1 16.45 0.9 15.7Q1.8 11.05 1.65 8.4Q1.3 2.8 4.4 0.35Q5.95 -0.9 7.55 -1Q9.1 -1 9.55 0.75L9.75 3.3L9 10.65Q26.95 -0.35 31.55 -0.35Q35.25 -0.35 35.25 3.25Q35.25 5.25 34.9 5.7Q34.6 6.1 32.55 6.8Q24.8 9.35 13.7 16.3Q30.15 19.7 36.25 22.5Q42.25 25.3 42.25 29.45Q42.25 30.55 41.45 31.45" />
</g>
</svg>
