<?xml version="1.0" encoding="utf-8"?>
<svg version="1.1" id="Layer_1"
xmlns="http://www.w3.org/2000/svg"
xmlns:xlink="http://www.w3.org/1999/xlink"
xmlns:author="http://www.sothink.com"
width="31px" height="40px"
xml:space="preserve">
<g id="1322" transform="matrix(1, 0, 0, 1, 1.15, 0.65)">
<path style="fill:#FFFFFF;fill-opacity:1" d="M28.65,-0.2Q29.85 0.65 29.85 3.25Q29.85 6.4 24.75 7.1L8.55 7.9L8.45 13.25Q9.05 13.65 9.85 13.65Q13.5 13.65 22.9 11.35Q25.25 10.8 26.1 11.3Q27.15 11.9 27.15 14.45Q27.15 16.95 20.55 18.2Q12.35 19.4 9.15 20.35Q9.15 23.3 10.1 29.7Q10.45 35.25 7.7 38.25Q6.95 39.15 5.75 39.15Q3.1 39.15 2.5 37.35Q1.3 34 2.25 21.85Q-1.15 21.25 -1.15 18.25Q-1.15 16.6 0.25 15.85Q1.6 15.1 1.6 14.75L1.45 11.75Q1.45 10.85 0.95 10.25L0 9.3Q-0.9 8.3 -0.9 7.05Q-0.9 5.6 2.4 3.05Q5.5 0.65 6.6 0.65Q7.1 0.65 7.5 1.2Q7.85 1.75 8.35 1.75L18.25 0.55L26.65 -0.65L28.65 -0.2" />
</g>
</svg>
