<?xml version="1.0" encoding="utf-8"?>
<svg version="1.1" id="Layer_1"
xmlns="http://www.w3.org/2000/svg"
xmlns:xlink="http://www.w3.org/1999/xlink"
xmlns:author="http://www.sothink.com"
width="51px" height="33px"
xml:space="preserve">
<g id="1332" transform="matrix(1, 0, 0, 1, 1, 1.25)">
<path style="fill:#FFFFFF;fill-opacity:1" d="M31.3,-0.3Q37.3 0.8 37.3 2.8Q37.3 5.85 34.75 7.85L28.85 11.1Q19.65 15.55 17.85 23.05L31.5 21.75L45.7 22.15Q49.75 22.75 49.75 25.35Q49.75 27.05 48.75 28.1Q47.45 29.5 44.6 29.5L30.7 28.9L21.15 30.3L8.05 31.5Q6.25 31.5 5.15 30.6Q4 29.65 4 27.95Q4 26.95 11.95 17.6Q19.7 8.55 22.3 6.3Q12.8 6.2 3.5 6.7Q0.9 6.65 -0.05 6Q-1 5.35 -1 3.4Q-1 1.25 5 -0.05Q10.35 -1.2 18.15 -1.25L31.3 -0.3" />
</g>
</svg>
