<?xml version="1.0" encoding="utf-8"?>
<svg version="1.1" id="Layer_1"
xmlns="http://www.w3.org/2000/svg"
xmlns:xlink="http://www.w3.org/1999/xlink"
xmlns:author="http://www.sothink.com"
width="323px" height="37px"
xml:space="preserve">
<g id="1329" transform="matrix(1, 0, 0, 1, 149.4, 16.45)">
<path style="fill:#FFFFFF;fill-opacity:1" d="M76.9,-15.05L89.25 -15.9L120.25 -16.4Q125.9 -16.75 125.9 -13.45Q125.9 -11.3 121.6 -9.2Q117.55 -7.25 113.85 -7.25Q112.1 -7.25 111.5 -8.3L111.25 -9.45Q111.25 -11.5 114.25 -11.9L89.35 -11.5L54.35 -9.75Q8.7 -6.3 -15.45 -3.45L-27.1 -1.9L12.75 -0.65L100.15 4L136.4 5.45Q172.65 7.5 172.65 10.4Q172.65 12.65 169.75 12.65L141.1 10.35L106.5 8.5L4.75 3.65L-49.55 1.75L-60.05 3.85L-79.8 7.3Q-92.6 9.35 -99.05 11.1L-116.25 15.45Q-133.75 19.65 -137.6 19.65Q-139.3 19.65 -139.9 18.6L-140.15 17.5Q-140.15 15.45 -131.95 13.9L-122.55 12.6Q-117.05 11.6 -104.25 7.75Q-96.95 5.55 -83.8 3.45L-67.85 0.8L-123.3 -2.25L-145.3 -2.25Q-149.4 -1.9 -149.4 -4.45Q-149.4 -5.95 -147.25 -6.65L-123 -6.65L-83.2 -4.3L-50.35 -2.6Q-34.8 -5.55 14.45 -10.2L60.6 -14.25L76.9 -15.05" />
</g>
</svg>
