<?xml version="1.0" encoding="utf-8"?>
<svg version="1.1" id="Layer_1"
xmlns="http://www.w3.org/2000/svg"
xmlns:xlink="http://www.w3.org/1999/xlink"
xmlns:author="http://www.sothink.com"
width="42px" height="39px"
xml:space="preserve">
<g id="1347" transform="matrix(1, 0, 0, 1, 1, 1)">
<path style="fill:#FFFFFF;fill-opacity:1" d="M6.3,-0.75Q24.55 -1.4 33.65 4.3Q40.5 8.55 40.5 14.7Q40.5 26.15 27.75 32.8Q17.8 38 6.85 38Q3 38 3 34.4L3.5 30.85L3.95 27.25Q3.95 23 1.5 13.3Q-1 3.6 -1 2.55Q-1 0.9 -0.15 -0.05Q0.75 -1 2.3 -1L6.3 -0.75M27.45,8.95Q19.95 5.35 7.7 6.25L9.95 18.95Q10.8 24 10.8 28.15L10.7 29.35Q16.7 29.1 22.35 27.3Q33.5 23.65 33.5 15.45Q33.5 11.85 27.45 8.95" />
</g>
</svg>
