<?xml version="1.0" encoding="utf-8"?>
<svg version="1.1" id="Layer_1"
xmlns="http://www.w3.org/2000/svg"
xmlns:xlink="http://www.w3.org/1999/xlink"
xmlns:author="http://www.sothink.com"
width="37px" height="39px"
xml:space="preserve">
<g id="1349" transform="matrix(1, 0, 0, 1, 1, 0.95)">
<path style="fill:#FFFFFF;fill-opacity:1" d="M29.3,23.45Q31.95 26.15 32.4 27.45L34.1 30.25Q35.5 32.3 35.5 33.5Q35.5 34.7 34.8 35.65Q33.8 37.05 31.6 37.05Q27.75 37.05 26.7 34.6L25.85 30.35Q25.35 28.6 19.4 25.5Q14.6 23 9.95 21.35Q9 28.45 8.05 30.5L6 34.45Q4.1 37.55 2.5 37.55Q1.05 37.55 0.1 36.65Q-1 35.7 -1 33.95L0.65 27.8L3.5 16.9Q5.5 7.6 7.25 4.65Q10.6 -0.95 18.2 -0.95Q27.35 -0.95 32 3.55Q35.25 6.7 35.25 10.15Q35.25 15.5 24.85 20.05Q26.55 20.75 29.3 23.45M24.55,7.45Q21 6.05 17.35 6.05Q14.7 6.05 13.85 8.1Q13 11.55 12 14.2Q12.3 14.3 12.65 14.55L13.6 14.7Q19.6 14.7 24.1 12.95Q28 11.45 28 10.05Q28 8.8 24.55 7.45" />
</g>
</svg>
