<?xml version="1.0" encoding="utf-8"?>
<svg version="1.1" id="Layer_1"
xmlns="http://www.w3.org/2000/svg"
xmlns:xlink="http://www.w3.org/1999/xlink"
xmlns:author="http://www.sothink.com"
width="33px" height="32px"
xml:space="preserve">
<g id="1356" transform="matrix(1, 0, 0, 1, 0.75, 0.35)">
<path style="fill:#FFFFFF;fill-opacity:1" d="M27,8.15Q23.35 11.8 21.75 17.1Q21.25 18.75 21.15 21.65L21 26.25Q20.6 31.25 17.1 31.25Q16 31.25 14.85 29.85Q13.55 28.25 13.55 26Q13.55 20.9 14.95 16.75L19.15 6.05L5.05 7.3L2.95 7.75L0.85 7.35Q-0.75 6.7 -0.75 5.25Q-0.75 1.45 4.75 0.15L18.9 -0.3Q30.65 -0.1 31.35 0.7Q32.55 2.15 30.65 5.1Q28.85 6.3 27 8.15" />
</g>
</svg>
