<?xml version="1.0" encoding="utf-8"?>
<svg version="1.1" id="Layer_1"
xmlns="http://www.w3.org/2000/svg"
xmlns:xlink="http://www.w3.org/1999/xlink"
xmlns:author="http://www.sothink.com"
width="39px" height="37px"
xml:space="preserve">
<g id="1354" transform="matrix(1, 0, 0, 1, 1, 0.1)">
<path style="fill:#FFFFFF;fill-opacity:1" d="M33.6,6.75L24.95 7.6Q27 10.7 28.6 15.95Q30.25 21.5 30.25 25.65Q30.25 30.8 28.1 33.3Q25.3 36.6 18.25 36.6Q12.15 36.6 6.75 33.1Q1.25 29.5 1.25 25.25Q1.25 24 1.95 22.95Q2.9 21.6 4.75 21.6Q4.95 21.6 9.7 25.55Q14.5 29.5 18.65 29.5Q21.8 29.5 22.75 28.4Q23.25 27.8 23.25 26.25Q23.25 21.95 20.7 15.35Q18.3 9.1 17.15 9.1Q11.2 9.1 7.55 10.35L3.45 11.6L0.85 11.15Q-1 10.25 -1 7.65Q-1 5.95 5.1 3.9Q10.8 2 18.5 0.9Q38 -1.95 38 3.25Q38 5.85 33.6 6.75" />
</g>
</svg>
