<?xml version="1.0" encoding="utf-8"?>
<svg version="1.1" id="Layer_1"
xmlns="http://www.w3.org/2000/svg"
xmlns:xlink="http://www.w3.org/1999/xlink"
xmlns:author="http://www.sothink.com"
width="243px" height="135px"
xml:space="preserve">
<g id="1368" transform="matrix(1, 0, 0, 1, -2.75, -6.9)">
<path style="fill:#FFFFFF;fill-opacity:1" d="M206.8,18.9L195.3 29.25L193.15 28.1L186.5 31.3Q184.5 31.3 182.9 30.2Q180.7 28.75 180.85 25.9L175.95 28.75L170.4 26.6L164.25 29L160.9 26.4L161.4 24.15L153.4 31.3Q150.6 31.3 148.9 29.4Q147 27.3 145.75 22.3L142 23.9Q140.45 31.8 137.4 31.8L134.85 28.9L136.35 24.15L128.65 29.75Q120.1 29.75 120.1 24.15Q120.1 22.4 123.85 17.35Q128.25 11.4 132.2 11.4L134.8 13.3L141.55 11.3L144.05 13.7L139.2 17.85L145.1 18.6L147.6 16.25Q149.4 16.25 150 18.4Q151.05 22.25 153.35 25.35L163.3 16.25Q166.1 16.25 166.85 17.05Q167.65 18 167.85 21.75L168.25 20.5Q168.95 17.85 170.95 16.35Q172.65 15.05 174.45 15.05L176.75 17.9L175.15 23.05L175.6 23.6L178.9 20.1L181.15 21.3Q182.5 18.45 184.4 17.45Q185.65 16.75 188.55 16.4L184.85 11.4Q184.85 9.7 186.85 8.45Q189.4 6.9 194.3 6.9L200.65 9.55Q200.65 11.5 198.3 12.1L192.25 12.55L196.6 12.55L196.4 21.6L205.05 16.3L206.8 18.9M188.3,21.55L185.75 24.4L186.55 26.15L190.5 22.3L188.3 21.55M169.75,40.65L173.75 39.9Q178.25 39.9 178.25 43.8L177.25 47.25L180.5 47.85L193.45 35.55L195.85 38.4L190.05 43.25Q193.45 43.3 194.9 44.55Q195.85 45.4 195.85 46.65L196.85 50.9L203.15 48.95L205.5 51.65Q205.5 53.05 202.2 54.9Q198.85 56.8 196.05 56.8L193 54.25L183.55 52.75L180.95 54.75Q174.65 54.75 172.55 53.9Q171.15 53.3 168.3 50.25L164.5 53.75L156.45 55.55L151.15 53.1L142.7 56.55Q139 56.55 136.9 55.7Q134.15 54.6 133.6 51.8L131.65 52.45L132.85 54.5L125.4 57.5Q119.75 57.5 117.65 56.45Q115.5 55.4 115.5 52.5Q115.5 50.45 120.7 45.8Q127.25 39.95 134.9 39.95L138 41.95L130.6 47.2L134.05 49.4L144.8 42.9L146.85 45.6Q146.85 47.45 144.65 48.35L140.05 49.9L150.75 51Q150.15 48.5 152.6 44.6Q155.1 40.55 157.7 40.55L159.35 43.05L155.85 50.1L156.95 50.35Q159.65 50.35 160.45 47.95Q161.4 45.05 164.5 44.05L165.55 39.45L169.75 40.65M215.4,117.15L217.55 116.25L219.7 117.15L220.6 119.3L219.7 121.45L217.55 122.35L215.4 121.45L214.5 119.3L215.4 117.15M210.2,127.85L217.4 123.55L219.55 126.4L210.85 134.35L207.3 134.6L204.5 131.5L197.5 134.35Q188.75 134.35 188.75 128.15Q188.75 125.4 192.6 122Q196.6 118.55 200.15 118.55L202.25 121.05L193.8 128.1L197.4 129.15L202.25 127.75L204.65 128.85Q208.9 116.65 210.35 120.2Q210.85 121.45 210.8 124.15Q210.7 126.7 210.2 127.85M228.9,135.1L222.1 128.4L224.1 125.7L227.25 127.4L231.8 132.25L228.9 135.1M225.65,124.65Q236.85 109.7 242.8 109.7L244.8 112.15Q244.8 114 244.35 114.55L242.25 115.9Q236.55 119 228.75 127.25L225.65 124.65M187.2,121.45Q186.8 123.2 185.8 124.3L177.25 128.75L182.2 129.5L186.15 128.75L188.75 131.3Q188.75 134.6 182.55 134.6L174.4 135.35L168.9 133.5L164.5 136.05L161.4 134.75L154.4 137.15Q151.25 137.15 149.45 136Q147.6 134.8 147.6 132.65Q147.6 129.35 152.4 125.65Q157.25 121.9 161.85 121.9L164.5 123.9L153.25 132L159.1 131L161.3 132.2Q164.85 132.2 167.1 127.1Q168.25 124.5 168.75 121.95L173.8 125Q184.1 116.35 186.7 118.65Q187.6 119.45 187.2 121.45M162.2,111.6L159.55 112.65L156.9 111.6L155.8 108.95L156.9 106.35L159.55 105.25L162.2 106.35L163.3 108.95L162.2 111.6M132.65,17L125.25 24L133.4 18.5L132.65 17M111.4,16.9L107.65 20.75Q111.85 21.9 113.65 24.4Q114.75 25.9 114.75 27.45Q114.75 29.35 111.85 31.35Q108.9 33.35 106.05 33.35L103.25 30.8L108.65 27.15Q106.05 27.15 104.35 25.1Q102.85 23.25 102.75 20.65Q102.7 17.95 104.3 16.15Q106.05 14.15 109.3 14.15L111.4 16.9M87.45,18.95L88.75 21.1L86.5 23.5L88.25 26.35Q88.25 27.35 86.8 28.35Q84.5 30 79.8 30L75.4 28.5L71.65 29.25L65.45 26.3L62.75 29.5L60.15 26.9L62 18.1Q61.5 15.9 61.6 14.85Q61.75 13 64.7 13L67.3 16.45L67.3 17.15L71.75 13.35L77.45 11.7L79.8 14.35L79.4 16L88.8 13.75L93.3 15.8Q93.3 17.6 92.2 18.2Q91.05 18.85 87.45 18.95M81.95,23.9L79.4 23.35L79 24.55L80.85 24.8L84 23.85L81.95 23.9M104.6,49.15Q107.8 49.75 109.2 50.75Q110.65 51.8 110.65 53.65Q110.65 55.4 108 57.5Q105.1 59.8 102 59.8L99.15 57.25L103.25 54.25Q99.55 54.2 97.95 52.7Q96.85 51.7 96.85 50.3Q96.85 48.1 100.1 45.4Q104.2 42 110.1 42L113.25 44.05Q113.25 45.8 111.9 46.3L104.75 49.1L104.6 49.15M106.5,69.2L108.85 71L104.25 80.15L104.1 83.75Q104.05 85.9 102.55 86.85Q101.65 87.4 100.35 87.4L89.4 73.95L79.4 87.6L76.75 85.05L79.2 77.45L73.65 78.75L70.6 75.65Q70.6 74.35 73 72.95Q75.9 71.3 80.05 71.3L89.1 72.1L91.65 70L98.1 78.65Q97.95 78.25 97.95 77.75Q97.85 74.7 103.4 70.7L106.5 69.2M121.75,51.55L120.75 52.15L122.5 52.35L121.75 51.55M154.3,95.9Q157.55 96.95 157.55 102.05L145.75 114.75L143.05 112.15Q143.05 108.45 147.8 106.9Q152.5 105.35 152.5 102.15L151 98.15Q151 96.8 152 96.15Q153 95.5 154.3 95.9M75.4,19.3L70.1 23.65Q72.15 25.15 73.9 24.55Q76.05 23.8 75.4 19.3M52.75,15.45L50 26.4L56.3 24.35L58.85 27.1Q58.85 28.6 57.4 29.7Q55.05 31.55 49.55 31.55Q44.6 31.55 44.6 27.65Q44.6 15.65 48.7 13.45Q50.1 12.65 51.5 13.45Q52.75 14.2 52.75 15.45M46.65,49.05L44.1 54.3L46.15 55.1Q46.65 49.65 55 45.9Q59.2 44 63.4 43.2L65.5 45.9Q65.5 47.35 63.85 48.55Q62.1 49.8 59 50.4L61.9 53.85L75.5 45L77.25 45.75Q81.35 48.45 81.05 50.6L80.35 53.8Q79.8 56.4 79.8 59.35L77.25 62.35Q76.15 62.35 75.45 61.65L74.2 60.05Q72.1 57.75 66.4 57.75L61.95 60.65L59.2 58.75L53.9 60.3L48.25 58.95L45.75 60.65Q42.45 60.65 39.9 58Q38.1 56.1 37.75 54.55L37.65 54.9L35.7 60.55Q34.4 63.5 32.35 63.5L29.8 60.8L18 54.9L6.3 63.5L2.75 60.65L11.35 53.85Q9.15 54.45 8.2 53.15Q7.6 52.4 7.6 51.35L11.2 48.65L20.35 45.05L22.2 45Q22.9 45.15 23.6 46L30.75 57.3Q34.15 52.95 35.55 47.15Q35.9 45.55 36.7 45.1Q37.7 44.5 40.55 44.5Q46.55 44.5 46.65 49.05M36.45,23.15L31.9 25.55L36.5 24.15L36.45 23.15M39.35,19.1Q41.8 21.1 41.8 24.6Q41.8 27.1 39.25 28.95Q36.7 30.8 33.3 30.8Q29.65 30.8 27.85 29.7Q26 28.6 26 26.2L34.3 17.4Q37.25 17.4 39.35 19.1M21.2,22.9Q15.25 24.35 13.85 28.45L12.85 30.95Q12.1 32 10.15 32L7.1 29.3L14.5 12.9L18.9 10.6Q27.9 10.6 26.75 16.35Q26.35 18.5 24.6 20.55Q22.9 22.5 21.2 22.9M19,95.3Q26 93.1 26 98.65L23.4 105.4L33.1 107.55Q30.6 113.35 16 113.35L13.5 110.75L20.35 100.3L14.5 102.9L12 100.35Q12 99.25 14.2 97.65Q16.35 96.1 19 95.3M19.25,76.2Q20.3 75.95 21.25 76.75Q22.15 77.55 22.15 78.7L19 90.65L16.3 84Q16.3 76.95 19.25 76.2M70.6,73.35L66.5 79.75L69.2 81.25L74.15 80L76.75 82.7Q76.75 84 74.9 85.05Q72.6 86.4 68.5 86.4Q65.5 86.4 63.6 84.95Q61.4 83.25 61.4 79.9Q61.4 74.4 66 71.5Q67.85 70.35 69.15 70.75Q70.6 71.2 70.6 73.35M54.65,71.4Q56.3 71.8 56.3 74.25L50.75 81.8Q50.75 84.7 55.95 84.75Q61.15 84.8 61.15 87.4Q61.15 89.05 59.75 89.75Q58.5 90.4 55.6 90.4Q52.65 90.4 49.8 88.9Q45.6 86.65 45.6 82.05Q45.6 75.9 50.95 72.4Q53.1 71 54.65 71.4M76.45,104.75L85.15 100L101.85 102.7L106.45 100.75L112.5 101.3L113 107.25L114.75 107.5Q117.95 107.5 121.8 104.25L125.5 101L128 103.5L127.3 105.55L131.7 103.55L133.1 106.5L124.15 113.75L121.6 111.15L114 112.65Q111.05 112.65 108.9 111.55Q106.5 110.25 106.3 108.05L107.75 105.25L101.25 110.85L102.25 112.9L99.4 115.65Q97.65 115.65 96.85 114.5Q96.1 113.45 96.1 111.2L98.1 105.9L96.85 105.5Q93.85 105.5 92.55 111Q91.25 116.5 89.5 116.5L87.25 115.55L83.45 120.05L80.15 117.75L80.55 114.25L77.8 113.55L72.9 117.5L66.75 117.25L63.5 110.35L60.8 110.5L64.75 113.5L61.45 116.25Q58.85 116.25 57.1 114.4Q55.3 112.5 55.3 109.55L64 105.3L70.1 107.8L74.6 102.2L76.45 104.75M57.15,102.9Q49.7 107.4 49.25 108.3L56.05 115.95L53.4 118.5Q51.5 118.5 47.9 114.8Q44.1 110.95 44.1 108.25Q44.1 105.65 47.05 103.05Q50.5 100 55.5 100Q59.3 100 59.4 100.85Q59.5 101.45 57.15 102.9M55.3,136.55L62.8 131.75Q57.65 125.45 55.95 129.35Q54.9 131.7 55.3 136.55M49.9,125.1Q52.6 124 56.05 124L66.25 127.7L73.3 125.25Q76.1 125.25 78.15 127.55Q80.3 129.95 80.3 133.55Q80.3 135.75 77.35 137.75Q74.1 140 69.7 140L64.05 138.55L54.65 141.75Q51.9 141.75 50.3 140.1Q47.15 136.85 47.15 127.55Q47.15 126.2 49.9 125.1M74.75,132.15L67.6 134.6L69.8 134.8L75.15 132.9L74.75 132.15M38.75,120.7Q40.5 121.7 40.5 123.85L25.75 136.9L22.9 134.35L31.3 128.6L26.8 126.85L27.1 124.5L21 125.85L18.3 123.3Q18.3 119.3 29.05 119.3Q36.25 119.3 38.75 120.7M129.75,122.6L133.15 123.3L137.75 125.6Q132.25 127.9 126.75 130.15L123.55 136.4L120.85 133.1Q120.85 124.4 121.9 121.8Q122.4 120.55 123.7 120.55Q126.8 120.55 126.55 123.7L129.75 122.6M84.65,104.5L87.4 113L90.2 104.5L84.65 104.5M95.05,137.1Q94.05 138.6 91.2 138.6Q86.75 138.6 83.8 134.8Q81.3 131.6 81.3 128.25L84.95 124.95L89.4 133.5Q96.25 135.3 95.05 137.1M114.9,135.6Q110.9 139.75 105.55 139.75Q102.75 139.75 101.85 137.75L101.5 135.6Q101.5 131.35 104.15 127.65Q107.5 123.05 113.2 123.05Q116.2 123.05 117.55 124.85Q118.55 126.15 118.55 128Q118.55 131.85 114.9 135.6" />
</g>
</svg>
