<?xml version="1.0" encoding="utf-8"?>
<svg version="1.1" id="Layer_1"
xmlns="http://www.w3.org/2000/svg"
xmlns:xlink="http://www.w3.org/1999/xlink"
xmlns:author="http://www.sothink.com"
width="39px" height="37px"
xml:space="preserve">
<g id="1357" transform="matrix(1, 0, 0, 1, 1, 0.95)">
<path style="fill:#FFFFFF;fill-opacity:1" d="M21.45,18.85Q19.45 23 17.15 24.85L24.5 25.05L31.25 24.7Q38 24.6 38 28.2L37.85 29.85Q37.55 31 36.45 31.6L26.7 31.95L17.2 32L4.1 35.1Q2.35 35.1 5.2 29.5Q7.8 24.5 10.45 21.35L14.2 15.85Q17.25 11.05 17.25 10.1Q17.25 6.1 12.45 6.1Q10.1 6.1 7.9 6.95L6.15 7.75L6 11.05Q5.7 14.35 2.4 14.35Q-1 14.35 -1 9.15Q-1 5.05 1.5 2.5Q4.9 -0.95 12.35 -0.95Q24.75 -0.95 23.9 10.2Q23.6 14.4 21.45 18.85" />
</g>
</svg>
