<?xml version="1.0" encoding="utf-8"?>
<svg version="1.1" id="Layer_1"
xmlns="http://www.w3.org/2000/svg"
xmlns:xlink="http://www.w3.org/1999/xlink"
xmlns:author="http://www.sothink.com"
width="52px" height="39px"
xml:space="preserve">
<g id="1358" transform="matrix(1, 0, 0, 1, 0.8, 0.95)">
<path style="fill:#FFFFFF;fill-opacity:1" d="M43.35,35.6L40.35 31.45Q35.2 24.5 25.3 21.2Q14.05 28.5 7.55 33.9Q4.3 36.6 3.15 36.6Q-0.8 36.6 -0.8 32.9Q-0.8 31.95 3.15 28.45Q8.4 23.8 17.75 17.65Q5 11.45 5 8.55Q5 6.85 5.8 5.85Q6.65 4.8 8.15 4.8Q9.8 4.8 13.15 6.05Q15.95 7.1 19.35 10.25Q21.85 12.6 25.2 12.6Q25.8 12.6 34.5 5.85Q43.15 -0.95 45.45 -0.95Q52.65 -0.95 45.6 5.8Q41.8 9.4 31.9 16.4Q38.1 21.05 45.85 26.45Q50.55 30.05 50.55 32.8Q50.55 34.75 50 35.7Q49.15 37.3 46.6 37.3Q44.8 37.3 43.35 35.6" />
</g>
</svg>
