<?xml version="1.0" encoding="utf-8"?>
<svg version="1.1" id="Layer_1"
xmlns="http://www.w3.org/2000/svg"
xmlns:xlink="http://www.w3.org/1999/xlink"
xmlns:author="http://www.sothink.com"
width="35px" height="40px"
xml:space="preserve">
<g id="1343" transform="matrix(1, 0, 0, 1, 1, 0.95)">
<path style="fill:#FFFFFF;fill-opacity:1" d="M33.3,18Q33.3 30.8 27.1 35.45Q23.45 38.2 16.5 38.2Q6.45 38.2 1.8 29.7Q-1 24.6 -1 19.85Q-0.4 16.95 0.9 13.7Q3.5 7.3 6.95 5.35L14.6 0.6Q17.05 -0.95 19.1 -0.95Q23.1 -0.95 28.35 6.8Q33.3 14.05 33.3 18M24.75,13.75Q22.2 11.45 20.95 9.7Q6 10.35 6 20Q6 25.35 9.75 28.55Q12.85 31.2 16.45 31.2Q26.7 31.2 26.7 19.15Q26.7 15.9 24.75 13.75" />
</g>
</svg>
