<?xml version="1.0" encoding="utf-8"?>
<svg version="1.1" id="Layer_1"
xmlns="http://www.w3.org/2000/svg"
xmlns:xlink="http://www.w3.org/1999/xlink"
xmlns:author="http://www.sothink.com"
width="35px" height="37px"
xml:space="preserve">
<g id="1344" transform="matrix(1, 0, 0, 1, 1, 1.4)">
<path style="fill:#FFFFFF;fill-opacity:1" d="M32,3.7Q32 5.95 30.55 7Q29.5 7.75 27.95 7.75L25.45 6.9Q23.4 6 21.55 6Q19.2 6 15.6 6.9Q11.45 7.9 11.75 9Q12.4 11.45 15.95 12.7L23.25 14.3Q28.1 15.2 30.15 16.3Q33.25 18 33.25 21.25Q33.25 27.7 25 31.5Q18 34.75 9.1 34.75L2.1 34.1Q-1 33.15 -1 30.5Q-1 27.7 0.95 27.45L9.95 27.65Q16.9 27.65 22.4 25.1Q27.4 22.8 26 21.75Q16.4 20.7 10.8 17.5Q4.75 14 4.75 8.7Q4.75 5.6 9.25 2.45Q14.75 -1.4 23.4 -1.4Q28.15 -1.4 30.4 0.55Q32 1.95 32 3.7" />
</g>
</svg>
