<?xml version="1.0" encoding="utf-8"?>
<svg version="1.1" id="Layer_1"
xmlns="http://www.w3.org/2000/svg"
xmlns:xlink="http://www.w3.org/1999/xlink"
xmlns:author="http://www.sothink.com"
width="35px" height="40px"
xml:space="preserve">
<g id="1352" transform="matrix(1, 0, 0, 1, 1, 1.25)">
<path style="fill:#FFFFFF;fill-opacity:1" d="M29.65,22.15L33.25 34.35Q33.25 36.3 32.3 37.35Q31.4 38.4 29.75 38.35Q26.65 38.3 24.15 30.5L21.55 19.85L10.25 20.25Q10.75 21.75 11.1 24.5L11.6 28.8Q12 31.65 11.6 33.15Q10.9 35.65 8 35.6Q6.6 35.6 6 33.15L2.7 18.8L0.3 9.85L-1 4.85Q-1 1.15 1.8 1.15Q4.75 1.15 6.15 4.8Q7 7 8.55 13.1L20.5 12.7L18.35 7.05Q17.75 5.65 17.75 3.85Q17.75 1.8 18.9 0.2Q20 -1.35 21.45 -1.25Q25.25 -1 25.95 9Q26 10 29.65 22.15" />
</g>
</svg>
