<?xml version="1.0" encoding="utf-8"?>
<svg version="1.1" id="Layer_1"
xmlns="http://www.w3.org/2000/svg"
xmlns:xlink="http://www.w3.org/1999/xlink"
xmlns:author="http://www.sothink.com"
width="248px" height="97px"
xml:space="preserve">
<g id="1360" transform="matrix(1, 0, 0, 1, 5.4, -4)">
<path style="fill:#FFFFFF;fill-opacity:1" d="M217.65,18.35L215.15 21.5L219.9 24.4L217.5 26.2L209.75 26L206.75 27.1L208.1 27.95L210.55 28L216 26.5L218.15 28.8L209.65 32.4L203.1 29.85L195.9 32.9L188.85 30.05L186.7 31.15L176.1 28.5L171.6 33.15L169.25 30.6L172.3 24.25Q175.95 18.05 179 18.05L188.25 27.35L188.4 26.55Q189.95 22.9 193.25 20.1Q196.15 17.7 197.8 17.7L198.85 17.95L199.15 20.3L196.25 24.05Q201.35 23.35 205.95 19.65Q210.1 16.3 215.2 16.3L217.65 18.35M224.4,11.9Q212.9 8.25 180.9 8.25Q160.55 8.25 131.3 10.9Q98.9 13.9 71.1 18.8Q-1 31.6 -1 49.55Q-1 71.5 17.5 80.05Q33 87.25 68.65 87.25L166.6 74.65Q192.85 70.25 209.75 62.2Q237.25 49.15 237.25 28Q237.25 16.05 224.4 11.9M241.65,27.2Q241.65 57.75 191.9 72.7Q158.85 82.6 86.35 88.5L111.35 89.5Q132.15 90.8 132.15 93.45L130 95.65L69.55 91.75Q64.1 91.75 60.85 93.1Q59.2 93.8 56.15 96.1Q50.45 100.4 39.25 100.4L37 98.25Q37 96.45 41.75 94.6Q45.8 93 56.25 90.4Q16.15 90.25 2.2 74.5Q-2.85 68.85 -4.5 61.05Q-5.4 56.8 -5.4 49.5Q-5.4 39.9 12.3 31.2Q28.85 23.1 58.6 16.8Q119.05 4 195.45 4Q219.15 4 230.4 9.65Q241.65 15.3 241.65 27.2M178.55,22.8L177.9 23.1L177.75 24.25L181.6 25.35L181 24.65L178.55 22.8M165.75,33.65L160.75 23.4Q160.5 28.65 157.3 28.65L153.15 27Q154.05 31.35 152.05 32.95Q150.6 34.15 146.6 34.15L137 31L131.1 36.4L128.75 33.3L113.85 35.65L110.5 33.5L117.5 30.85L114.75 23.45L113.25 20.5L123.95 17.25Q129.85 17.25 132.65 19.65Q135.25 21.85 134.6 25.6L135.15 24.35L139.7 21.1L148.45 28.3L148.7 27.55Q147.75 24.45 149.4 23.1Q150.5 22.25 152.35 22.25L156.25 23.4Q157.25 18.95 161.25 18.95Q163.75 18.95 165.9 23.4Q167.9 27.5 167.9 31.1L165.75 33.65M196.7,28.05L195.25 25.9L195.45 24.75L192.65 27.6L197.75 28.4L196.7 28.05M192.8,47.95L195.15 50.55L192.6 54.25L201.7 56.35Q204.65 57.4 204.65 59.15L202.25 61.65L189.25 58Q186.45 58 185.35 62.35Q184.25 66.65 182.75 66.65L180 63.65L184.55 56.75L178.7 55.55Q177.6 60.4 173.8 63.45Q169.9 66.65 164.55 66.65Q161.55 66.65 159.9 65.35Q158.25 64 158.25 61.6Q158.25 59.95 159.75 56.15Q161.7 51.25 164.1 51.25L166.4 53.55L162.65 61.4L167.35 62.25Q169 62.25 170.95 60.65Q173.8 58.35 173.8 54.05L172.5 52L175.4 49.75L187.45 52.9Q187.5 49.85 190.1 48.6Q191.4 48 192.8 47.95M124.9,21.95L121.1 23.1L119.5 25.9L121.1 28.7L124.9 29.85L128.75 28.7L130.3 25.9L128.75 23.1L124.9 21.95M138.9,26.9L141.5 27.6L141.15 27.15L139.5 25.75L138.9 26.9M105.15,20.5L101.85 24.5L107.2 24.8Q108.15 25.3 108.15 26.55L98.65 29.85L99.4 31.3L96.6 33.65L87 31.95L80.55 35.65Q77.45 35.65 75.8 34.1Q74.25 32.65 74.25 29.9Q74.25 27.75 81.35 24.05Q88.45 20.35 92.45 20.35L94.9 22.8L94.85 24.1L95.7 23.3L103.55 18.15L105.15 20.5M83,28.55L78.75 30.35L78.8 30.75L79.2 31.25L83.25 29.45L83 28.55M100.2,59.85Q102.3 61.7 102.15 64.8Q101.95 67.9 99.55 70.15Q96.9 72.65 92.5 72.65L90.25 70.5Q90.25 69.2 90.85 69L92.5 69Q95.65 69.05 98.25 64.9L85.5 63.2Q81.75 62.4 81.75 60.3L94.5 52.1L97.65 54.4L92.25 58.75L93.85 58.65Q97.9 57.85 100.2 59.85M145.6,56.75Q150.55 57.65 152.2 59.5Q153.15 60.55 153.15 62.6Q153.15 64.65 151.35 66.25Q148.95 68.4 144.1 68.4L137.45 67.95Q133.75 67.2 133.75 65.25L136 63L142.55 64L148.75 62.4L148.05 61.95L143.3 61.25L137.1 61.9Q134.5 62.05 134.5 59.75L140.85 56L140.35 55.95L137.65 55.75Q134.8 55.75 133.8 57.8Q133.15 59.15 133.15 62.35Q133.1 65.75 132.75 66.85Q132.1 68.9 129.8 68.9L127.25 66.55L128.75 61.15L127.75 54.2L130.1 52L138.4 51.45Q141.75 51.45 143.8 52.55Q146.4 53.95 145.6 56.75M48.1,28.75L39.85 37.15L37.25 35L48.1 24.25L55.5 28.65Q55.25 25.6 57.45 22.85Q59.9 19.8 62.45 22.4L71.4 32.9L69.25 35.15L60.6 27.15Q60.4 30.15 59.15 31.85Q58.05 33.4 56.35 33.4L48.1 28.75M34.25,73.45Q31.75 72.6 31.75 70.15Q31.75 68.5 35.85 61.75Q40.4 54.25 43.15 54.25L44.2 54.75L44.4 57.05L36.6 69.4L40.3 69.5Q43.55 69.5 46.15 67.35Q47.75 66.05 50.35 62.6Q52.9 59.15 54.5 57.85Q57.2 55.7 60.5 55.7L62.65 57.75L58.15 62L63.85 62L78.5 53.95L80.4 56.25L71.75 61.1Q77.05 60.15 80.5 61.7Q83.65 63.15 83.6 65.7Q83.55 68.4 79.9 70.25Q75.7 72.4 68.25 72.4L64.25 70.25Q64.25 68.15 68.3 67.75Q75.2 67 77.4 66.25L75.75 66.1L67.65 64.5L65.5 66.4Q53.8 66.15 52.45 66.35Q51.85 66.45 51.9 66.75L51.6 67.5L55.35 67.75L59.5 67L61.65 69.3Q61.65 70.8 60.2 71.45Q58.75 72.15 55.5 72.15L49 71.2L38.15 73.9L34.25 73.45" />
</g>
</svg>
