<?xml version="1.0" encoding="utf-8"?>
<svg version="1.1" id="Layer_1"
xmlns="http://www.w3.org/2000/svg"
xmlns:xlink="http://www.w3.org/1999/xlink"
xmlns:author="http://www.sothink.com"
width="35px" height="41px"
xml:space="preserve">
<g id="1326" transform="matrix(1, 0, 0, 1, 1.05, 1)">
<path style="fill:#FFFFFF;fill-opacity:1" d="M29.65,9.9Q33 22.65 33 27.75Q33 30.7 32.1 31.7Q31.35 32.6 29.35 32.6Q26 32.6 18.25 25.75L7.15 16.1L6.4 15.55L10.25 35.7Q10.25 39.6 6.75 39.6Q4.35 39.6 3.6 36.35L2.5 28.7L0.8 21.15Q-0.65 14.65 -1 11.5Q-1.35 8.15 0.75 6.25Q2.3 4.85 3.75 4.85Q5.15 4.85 9.7 8.6L25.35 21.15L22.65 11.8Q20.75 5.05 20.75 2.75Q20.75 -1 24.8 -1Q28.4 -1 29.05 3.1L29.65 9.9" />
</g>
</svg>
