<?xml version="1.0" encoding="utf-8"?>
<svg version="1.1" id="Layer_1"
xmlns="http://www.w3.org/2000/svg"
xmlns:xlink="http://www.w3.org/1999/xlink"
xmlns:author="http://www.sothink.com"
width="30px" height="41px"
xml:space="preserve">
<g id="1346" transform="matrix(1, 0, 0, 1, 0.8, 1)">
<path style="fill:#FFFFFF;fill-opacity:1" d="M7.45,-1Q20.8 0.2 25 2.25Q28.75 4.1 28.75 8.75Q28.75 12.3 26.65 14.4Q24.85 16.15 19.15 18.8Q23.45 22.3 26.1 25.9Q28.25 28.85 28.25 30.1Q28.25 31.65 27.5 32.65Q26.55 34 24.45 34Q23.3 34 22.55 32.95L20.75 30.15Q17.2 25.15 8 21.2L6.85 29.1L6.95 34.4Q6.4 39.25 3.05 39.25Q1.15 39.25 0.45 38.7Q-0.8 37.75 -0.8 34.7L0.1 27.2L1 19.7L1.1 1.75Q1.45 0.05 2.9 -0.45L7.45 -1M7.6,6.2L7.6 13.05L10.7 13.15Q14.5 13.15 17.95 12.1Q22 10.85 21.75 8.95Q21.5 7.2 15.15 6.55L7.6 6.2" />
</g>
</svg>
