<?xml version="1.0" encoding="utf-8"?>
<svg version="1.1" id="Layer_1"
xmlns="http://www.w3.org/2000/svg"
xmlns:xlink="http://www.w3.org/1999/xlink"
xmlns:author="http://www.sothink.com"
width="20px" height="20px"
xml:space="preserve">
<g id="2254" transform="matrix(1, 0, 0, 1, 9.85, 9.9)">
<path style="fill:#FFFFFF;fill-opacity:1" d="M7.5,-2.35Q6.75 -4.8 4.7 -6.35Q2.6 -7.95 -0.05 -7.95Q-2.65 -7.95 -4.8 -6.35Q-6.85 -4.75 -7.6 -2.3Q-7.4 -1.55 -7.05 -1.55L-5 -1.9L-0.05 -2.55L4.9 -1.9L7 -1.55Q7.3 -1.55 7.5 -2.35M7.7,1.6Q5.65 0.8 4.8 0.8Q4.1 0.8 2.65 2.45L2.35 2.8Q1.35 3.9 1 4.7L1 6.35Q1.65 7.2 2.6 7.2L3.1 7.15L3.65 7Q5.2 6.2 6.3 4.8Q7.35 3.35 7.7 1.6M6.95,7Q4.1 9.9 0 9.9Q-4.1 9.9 -6.95 7Q-9.85 4.1 -9.85 0Q-9.9 -4.1 -7 -7Q-4.1 -9.9 -0.05 -9.9Q4.05 -9.9 6.95 -7Q9.8 -4.1 9.85 0Q9.85 4.1 6.95 7M-4.9,0.8Q-5.7 0.8 -7.75 1.55Q-7.4 3.4 -6.2 4.9Q-5.05 6.35 -3.4 7.15L-3.2 7.15L-2.7 7.2Q-1.75 7.2 -1.1 6.35L-1.1 4.7Q-1.55 3.85 -2.65 2.65L-3.1 2.15Q-4.3 0.8 -4.9 0.8" />
</g>
</svg>
