<?xml version="1.0" encoding="utf-8"?>
<svg version="1.1" id="Layer_1"
xmlns="http://www.w3.org/2000/svg"
xmlns:xlink="http://www.w3.org/1999/xlink"
xmlns:author="http://www.sothink.com"
width="16px" height="16px"
xml:space="preserve">
<g id="2248" transform="matrix(1, 0, 0, 1, 0, 0)">
<path style="fill:#FFFFFF;fill-opacity:1" d="M15.55,9Q15.15 11.45 13.3 13.3Q11 15.6 7.8 15.6Q4.6 15.6 2.3 13.3Q0 11 0 7.8Q0 4.6 2.3 2.3Q4.6 0 7.8 0Q11 0 13.3 2.3Q15.6 4.6 15.6 7.8L15.6 8.2L15.55 9M14.6,8.2L14.6 7.8Q14.6 5 12.6 3Q10.6 1 7.8 1Q5 1 3 3Q1 5 1 7.8Q1 10.6 3 12.6Q5 14.6 7.8 14.6Q10.6 14.6 12.6 12.6Q14.15 11.05 14.5 9L14.6 8.2" />
</g>
</svg>
