<?xml version="1.0" encoding="utf-8"?>
<svg version="1.1" id="Layer_1"
xmlns="http://www.w3.org/2000/svg"
xmlns:xlink="http://www.w3.org/1999/xlink"
xmlns:author="http://www.sothink.com"
width="461px" height="48px"
xml:space="preserve">
<g id="1292" transform="matrix(1, 0, 0, 1, 0, 0)">
<path style="fill:#000000;fill-opacity:1" d="M458.85,6.45L458.9 6.85L458.9 24.4L458.65 25.1L455.15 28.75L454.8 29L454.4 29.05L453.85 29.05L457.75 36.65L459.9 36.65Q460.3 36.65 460.6 36.95L460.9 37.65L460.9 44.35L460.6 45.05L459.9 45.35L453.15 45.35L452.65 45.2L452.25 44.8L444.55 29.05L443.85 29.05L443.85 36.65L445.9 36.65Q446.3 36.65 446.6 36.95L446.9 37.65L446.9 44.35L446.6 45.05L445.9 45.35L433.1 45.35Q432.7 45.35 432.4 45.05Q432.1 44.75 432.1 44.35L432.1 37.65Q432.1 37.25 432.4 36.95Q432.7 36.65 433.1 36.65L435.15 36.65L435.15 11.2L433.1 11.2Q432.7 11.2 432.4 10.9Q432.1 10.6 432.1 10.2L432.1 3.5Q432.1 3.1 432.4 2.8Q432.7 2.5 433.1 2.5L454.4 2.5Q454.8 2.5 455.1 2.8L458.6 6.15L458.85 6.45M451.2,21.35L442.85 21.35L442.85 10.2L451.2 10.2L451.2 21.35M450.2,11.2L443.85 11.2L443.85 20.35L450.2 20.35L450.2 11.2M457.9,6.85L454.4 3.5L433.1 3.5L433.1 10.2L436.15 10.2L436.15 37.65L433.1 37.65L433.1 44.35L445.9 44.35L445.9 37.65L442.85 37.65L442.85 28.05L445.15 28.05L453.15 44.35L459.9 44.35L459.9 37.65L457.1 37.65L452.2 28.05L454.4 28.05L457.9 24.4L457.9 6.85M418.8,3.25L427.75 36.65L430.3 36.65Q430.7 36.65 431 36.95L431.3 37.65L431.3 44.35L431 45.05L430.3 45.35L417.15 45.35Q416.75 45.35 416.45 45.05L416.15 44.35L416.15 37.65Q416.15 37.25 416.45 36.95Q416.75 36.65 417.15 36.65L419.15 36.65L418.95 35.95L410.6 35.95L410.4 36.65L412.6 36.65Q413 36.65 413.3 36.95L413.6 37.65L413.6 44.35L413.3 45.05L412.6 45.35L399.8 45.35Q399.4 45.35 399.1 45.05Q398.8 44.75 398.8 44.35L398.8 37.65Q398.8 37.25 399.1 36.95Q399.4 36.65 399.8 36.65L401.85 36.65L410.8 3.25Q410.85 2.9 411.15 2.7L411.75 2.5L417.8 2.5L418.4 2.7L418.8 3.25M411.75,3.5L402.6 37.65L399.8 37.65L399.8 44.35L412.6 44.35L412.6 37.65L409.05 37.65L409.8 34.95L419.7 34.95L420.45 37.65L417.15 37.65L417.15 44.35L430.3 44.35L430.3 37.65L426.95 37.65L417.8 3.5L411.75 3.5M416.7,27.35L414.85 19.95L412.85 27.35L416.7 27.35M411.5,28.35L414.85 16L418 28.35L411.5 28.35M397.7,2.8L398 3.5L398 15.75L397.7 16.45L397 16.75L390.3 16.75L389.6 16.45L389.3 15.75L389.3 11.2L382.95 11.2L382.95 17.55L390.3 17.55Q390.7 17.55 391 17.85L391.3 18.55L391.3 25.25L391 25.95Q390.7 26.25 390.3 26.25L382.95 26.25L382.95 36.65L389.3 36.65L389.3 29.2Q389.3 28.8 389.6 28.5Q389.9 28.2 390.3 28.2L397 28.2Q397.4 28.2 397.7 28.5L398 29.2L398 44.35L397.7 45.05L397 45.35L372.2 45.35Q371.8 45.35 371.5 45.05Q371.2 44.75 371.2 44.35L371.2 37.65Q371.2 37.25 371.5 36.95Q371.8 36.65 372.2 36.65L374.25 36.65L374.25 11.2L372.2 11.2Q371.8 11.2 371.5 10.9Q371.2 10.6 371.2 10.2L371.2 3.5Q371.2 3.1 371.5 2.8Q371.8 2.5 372.2 2.5L397 2.5Q397.4 2.5 397.7 2.8M397,3.5L372.2 3.5L372.2 10.2L375.25 10.2L375.25 37.65L372.2 37.65L372.2 44.35L397 44.35L397 29.2L390.3 29.2L390.3 37.65L381.95 37.65L381.95 25.25L390.3 25.25L390.3 18.55L381.95 18.55L381.95 10.2L390.3 10.2L390.3 15.75L397 15.75L397 3.5M368.1,6.15L368.35 6.45L368.4 6.85L368.4 24.4L368.15 25.1L364.65 28.75L364.3 29L363.9 29.05L363.35 29.05L367.25 36.65L369.4 36.65Q369.8 36.65 370.1 36.95L370.4 37.65L370.4 44.35L370.1 45.05L369.4 45.35L362.65 45.35L362.15 45.2L361.75 44.8L354.05 29.05L353.35 29.05L353.35 36.65L355.4 36.65Q355.8 36.65 356.1 36.95L356.4 37.65L356.4 44.35L356.1 45.05L355.4 45.35L342.6 45.35Q342.2 45.35 341.9 45.05L341.6 44.35L341.6 37.65Q341.6 37.25 341.9 36.95Q342.2 36.65 342.6 36.65L344.65 36.65L344.65 11.2L342.6 11.2Q342.2 11.2 341.9 10.9L341.6 10.2L341.6 3.5Q341.6 3.1 341.9 2.8Q342.2 2.5 342.6 2.5L363.9 2.5Q364.3 2.5 364.6 2.8L368.1 6.15M367.4,6.85L363.9 3.5L342.6 3.5L342.6 10.2L345.65 10.2L345.65 37.65L342.6 37.65L342.6 44.35L355.4 44.35L355.4 37.65L352.35 37.65L352.35 28.05L354.65 28.05L362.65 44.35L369.4 44.35L369.4 37.65L366.6 37.65L361.7 28.05L363.9 28.05L367.4 24.4L367.4 6.85M353.35,20.35L359.7 20.35L359.7 11.2L353.35 11.2L353.35 20.35M352.35,10.2L360.7 10.2L360.7 21.35L352.35 21.35L352.35 10.2M328.2,2.8L328.5 3.5L328.5 15.75L328.2 16.45L327.5 16.75L320.8 16.75Q320.4 16.75 320.1 16.45Q319.8 16.15 319.8 15.75L319.8 11.2L313.45 11.2L313.45 17.55L320.8 17.55Q321.2 17.55 321.5 17.85L321.8 18.55L321.8 25.25L321.5 25.95L320.8 26.25L313.45 26.25L313.45 36.65L319.8 36.65L319.8 29.2Q319.8 28.8 320.1 28.5Q320.4 28.2 320.8 28.2L327.5 28.2Q327.9 28.2 328.2 28.5L328.5 29.2L328.5 44.35L328.2 45.05L327.5 45.35L302.7 45.35Q302.3 45.35 302 45.05L301.7 44.35L301.7 37.65Q301.7 37.25 302 36.95Q302.3 36.65 302.7 36.65L304.75 36.65L304.75 11.2L302.7 11.2Q302.3 11.2 302 10.9L301.7 10.2L301.7 3.5Q301.7 3.1 302 2.8Q302.3 2.5 302.7 2.5L327.5 2.5Q327.9 2.5 328.2 2.8M327.5,3.5L302.7 3.5L302.7 10.2L305.75 10.2L305.75 37.65L302.7 37.65L302.7 44.35L327.5 44.35L327.5 29.2L320.8 29.2L320.8 37.65L312.45 37.65L312.45 25.25L320.8 25.25L320.8 18.55L312.45 18.55L312.45 10.2L320.8 10.2L320.8 15.75L327.5 15.75L327.5 3.5M300.6,2.8L300.9 3.5L300.9 10.2L300.6 10.9L299.9 11.2L297.85 11.2L297.85 36.65L299.9 36.65L300.6 36.95L300.9 37.65L300.9 44.35L300.6 45.05L299.9 45.35L287.1 45.35L286.4 45.05Q286.1 44.75 286.1 44.35L286.1 37.65Q286.1 37.25 286.4 36.95Q286.7 36.65 287.1 36.65L289.15 36.65L289.15 27.6L282.8 27.6L282.8 36.65L284.85 36.65Q285.25 36.65 285.55 36.95L285.85 37.65L285.85 44.35L285.55 45.05L284.85 45.35L272.05 45.35Q271.65 45.35 271.35 45.05Q271.05 44.75 271.05 44.35L271.05 37.65Q271.05 37.25 271.35 36.95Q271.65 36.65 272.05 36.65L274.1 36.65L274.1 11.2L272.05 11.2Q271.65 11.2 271.35 10.9Q271.05 10.6 271.05 10.2L271.05 3.5Q271.05 3.1 271.35 2.8Q271.65 2.5 272.05 2.5L284.85 2.5Q285.25 2.5 285.55 2.8L285.85 3.5L285.85 10.2L285.55 10.9L284.85 11.2L282.8 11.2L282.8 19.15L289.15 19.15L289.15 11.2L287.1 11.2L286.4 10.9Q286.1 10.6 286.1 10.2L286.1 3.5Q286.1 3.1 286.4 2.8Q286.7 2.5 287.1 2.5L299.9 2.5L300.6 2.8M299.9,3.5L287.1 3.5L287.1 10.2L290.15 10.2L290.15 20.15L281.8 20.15L281.8 10.2L284.85 10.2L284.85 3.5L272.05 3.5L272.05 10.2L275.1 10.2L275.1 37.65L272.05 37.65L272.05 44.35L284.85 44.35L284.85 37.65L281.8 37.65L281.8 26.6L290.15 26.6L290.15 37.65L287.1 37.65L287.1 44.35L299.9 44.35L299.9 37.65L296.85 37.65L296.85 10.2L299.9 10.2L299.9 3.5M269.95,2.8L270.25 3.5L270.25 18.1L269.95 18.8L269.25 19.1L262.8 19.1Q262.4 19.1 262.1 18.8L261.8 18.1L261.8 11.2L259.65 11.2L259.65 36.65L261.7 36.65Q262.1 36.65 262.4 36.95L262.7 37.65L262.7 44.35L262.4 45.05L261.7 45.35L248.95 45.35Q248.55 45.35 248.25 45.05Q247.95 44.75 247.95 44.35L247.95 37.65Q247.95 37.25 248.25 36.95Q248.55 36.65 248.95 36.65L251 36.65L251 11.2L248.85 11.2L248.85 18.1L248.55 18.8L247.85 19.1L241.4 19.1Q241 19.1 240.7 18.8Q240.4 18.5 240.4 18.1L240.4 3.5Q240.4 3.1 240.7 2.8Q241 2.5 241.4 2.5L269.25 2.5Q269.65 2.5 269.95 2.8M269.25,3.5L241.4 3.5L241.4 18.1L247.85 18.1L247.85 10.2L252 10.2L252 37.65L248.95 37.65L248.95 44.35L261.7 44.35L261.7 37.65L258.65 37.65L258.65 10.2L262.8 10.2L262.8 18.1L269.25 18.1L269.25 3.5M224.25,11.2L224.25 44.35L223.95 45.05L223.25 45.35L217.1 45.35L216.55 45.2L216.2 44.75L208.4 26.45L208.4 36.65L210.45 36.65Q210.85 36.65 211.15 36.95L211.45 37.65L211.45 44.35L211.15 45.05L210.45 45.35L197.65 45.35L196.95 45.05Q196.65 44.75 196.65 44.35L196.65 37.65Q196.65 37.25 196.95 36.95Q197.25 36.65 197.65 36.65L199.7 36.65L199.7 11.2L197.65 11.2L196.95 10.9Q196.65 10.6 196.65 10.2L196.65 3.5Q196.65 3.1 196.95 2.8Q197.25 2.5 197.65 2.5L206.75 2.5L207.3 2.7L207.7 3.15L215.55 22.1L215.55 11.2L213.5 11.2Q213.1 11.2 212.8 10.9Q212.5 10.6 212.5 10.2L212.5 3.5Q212.5 3.1 212.8 2.8Q213.1 2.5 213.5 2.5L226.3 2.5Q226.7 2.5 227 2.8L227.3 3.5L227.3 10.2L227 10.9L226.3 11.2L224.25 11.2M226.3,3.5L213.5 3.5L213.5 10.2L216.55 10.2L216.55 27.1L206.75 3.5L197.65 3.5L197.65 10.2L200.7 10.2L200.7 37.65L197.65 37.65L197.65 44.35L210.45 44.35L210.45 37.65L207.4 37.65L207.4 21.5L217.1 44.35L223.25 44.35L223.25 10.2L226.3 10.2L226.3 3.5M195.85,3.5L195.85 10.2L195.55 10.9Q195.25 11.2 194.85 11.2L192.8 11.2L192.8 36.65L194.85 36.65Q195.25 36.65 195.55 36.95L195.85 37.65L195.85 44.35L195.55 45.05Q195.25 45.35 194.85 45.35L182.05 45.35L181.35 45.05Q181.05 44.75 181.05 44.35L181.05 37.65Q181.05 37.25 181.35 36.95Q181.65 36.65 182.05 36.65L184.1 36.65L184.1 11.2L182.05 11.2L181.35 10.9Q181.05 10.6 181.05 10.2L181.05 3.5Q181.05 3.1 181.35 2.8Q181.65 2.5 182.05 2.5L194.85 2.5Q195.25 2.5 195.55 2.8L195.85 3.5M194.85,3.5L182.05 3.5L182.05 10.2L185.1 10.2L185.1 37.65L182.05 37.65L182.05 44.35L194.85 44.35L194.85 37.65L191.8 37.65L191.8 10.2L194.85 10.2L194.85 3.5M165.65,6.15L165.9 6.45L165.95 6.85L165.95 24.4L165.7 25.1L162.2 28.75L161.85 29L161.45 29.05L160.9 29.05L164.8 36.65L166.95 36.65Q167.35 36.65 167.65 36.95L167.95 37.65L167.95 44.35L167.65 45.05L166.95 45.35L160.2 45.35L159.7 45.2L159.3 44.8L151.6 29.05L150.9 29.05L150.9 36.65L152.95 36.65Q153.35 36.65 153.65 36.95L153.95 37.65L153.95 44.35L153.65 45.05L152.95 45.35L140.15 45.35Q139.75 45.35 139.45 45.05Q139.15 44.75 139.15 44.35L139.15 37.65Q139.15 37.25 139.45 36.95Q139.75 36.65 140.15 36.65L142.2 36.65L142.2 11.2L140.15 11.2Q139.75 11.2 139.45 10.9Q139.15 10.6 139.15 10.2L139.15 3.5Q139.15 3.1 139.45 2.8Q139.75 2.5 140.15 2.5L161.45 2.5Q161.85 2.5 162.15 2.8L165.65 6.15M164.95,6.85L161.45 3.5L140.15 3.5L140.15 10.2L143.2 10.2L143.2 37.65L140.15 37.65L140.15 44.35L152.95 44.35L152.95 37.65L149.9 37.65L149.9 28.05L152.2 28.05L160.2 44.35L166.95 44.35L166.95 37.65L164.15 37.65L159.25 28.05L161.45 28.05L164.95 24.4L164.95 6.85M149.9,10.2L158.25 10.2L158.25 21.35L149.9 21.35L149.9 10.2M150.9,20.35L157.25 20.35L157.25 11.2L150.9 11.2L150.9 20.35M138.35,3.5L138.35 15.75L138.05 16.45L137.35 16.75L130.65 16.75L129.95 16.45Q129.65 16.15 129.65 15.75L129.65 11.2L123.3 11.2L123.3 17.55L130.65 17.55Q131.05 17.55 131.35 17.85L131.65 18.55L131.65 25.25L131.35 25.95L130.65 26.25L123.3 26.25L123.3 36.65L129.65 36.65L129.65 29.2Q129.65 28.8 129.95 28.5Q130.25 28.2 130.65 28.2L137.35 28.2Q137.75 28.2 138.05 28.5L138.35 29.2L138.35 44.35L138.05 45.05L137.35 45.35L112.55 45.35Q112.15 45.35 111.85 45.05Q111.55 44.75 111.55 44.35L111.55 37.65Q111.55 37.25 111.85 36.95Q112.15 36.65 112.55 36.65L114.6 36.65L114.6 11.2L112.55 11.2Q112.15 11.2 111.85 10.9Q111.55 10.6 111.55 10.2L111.55 3.5Q111.55 3.1 111.85 2.8Q112.15 2.5 112.55 2.5L137.35 2.5Q137.75 2.5 138.05 2.8L138.35 3.5M130.65,10.2L130.65 15.75L137.35 15.75L137.35 3.5L112.55 3.5L112.55 10.2L115.6 10.2L115.6 37.65L112.55 37.65L112.55 44.35L137.35 44.35L137.35 29.2L130.65 29.2L130.65 37.65L122.3 37.65L122.3 25.25L130.65 25.25L130.65 18.55L122.3 18.55L122.3 10.2L130.65 10.2M108.9,10.9L108.2 11.2L105.95 11.2L98.3 20.45L107.1 36.65L109.75 36.65Q110.15 36.65 110.45 36.95L110.75 37.65L110.75 44.35L110.45 45.05L109.75 45.35L96.35 45.35Q95.95 45.35 95.65 45.05Q95.35 44.75 95.35 44.35L95.35 37.65Q95.35 37.25 95.65 36.95Q95.95 36.65 96.35 36.65L97.8 36.65L92.7 27.1L87.05 34.05L87.05 36.65L89.1 36.65Q89.5 36.65 89.8 36.95L90.1 37.65L90.1 44.35L89.8 45.05L89.1 45.35L76.3 45.35Q75.9 45.35 75.6 45.05Q75.3 44.75 75.3 44.35L75.3 37.65Q75.3 37.25 75.6 36.95Q75.9 36.65 76.3 36.65L78.35 36.65L78.35 11.2L76.3 11.2Q75.9 11.2 75.6 10.9Q75.3 10.6 75.3 10.2L75.3 3.5Q75.3 3.1 75.6 2.8Q75.9 2.5 76.3 2.5L89.1 2.5Q89.5 2.5 89.8 2.8L90.1 3.5L90.1 10.2L89.8 10.9L89.1 11.2L87.05 11.2L87.05 21.6L95.3 11.2L93.95 11.2Q93.55 11.2 93.25 10.9Q92.95 10.6 92.95 10.2L92.95 3.5Q92.95 3.1 93.25 2.8Q93.55 2.5 93.95 2.5L108.2 2.5Q108.6 2.5 108.9 2.8L109.2 3.5L109.2 10.2L108.9 10.9M108.2,10.2L108.2 3.5L93.95 3.5L93.95 10.2L97.35 10.2L86.05 24.45L86.05 10.2L89.1 10.2L89.1 3.5L76.3 3.5L76.3 10.2L79.35 10.2L79.35 37.65L76.3 37.65L76.3 44.35L89.1 44.35L89.1 37.65L86.05 37.65L86.05 33.7L92.85 25.3L99.45 37.65L96.35 37.65L96.35 44.35L109.75 44.35L109.75 37.65L106.5 37.65L97.1 20.3L105.45 10.2L108.2 10.2M68.65,13.9L69.75 16L70 16.65L70.65 18.6L70.7 18.75L71 20.35L71.15 21.4L71.2 21.75L71.25 22.8L71.3 23.6L71.3 24.9L71.25 25.45L70.65 29L69.9 31.05L69.8 31.2Q68.95 33.35 67.65 35.15L66.95 36.1L65.65 37.45L64.35 38.65Q62.15 40.6 59.45 41.75Q56.75 42.9 53.75 43.25L51.9 43.3L50.1 43.25Q47.1 43 44.25 41.85Q41.65 40.7 39.4 38.95L38 37.7L36.8 36.4L35.85 35.15L33.75 31.5L33.6 31.05L32.95 29.25L32.85 29L32.3 25.75L32.3 25.65L32.25 24.9L32.2 24.1L32.2 23.9L32.2 22.8L32.25 22.2L32.25 22.05Q32.35 20.4 32.8 18.75L32.85 18.6L33.5 16.65L33.65 16.3L34.85 13.9L35.7 12.55L36.6 11.4L37.8 10.05L39.2 8.75L40.9 7.5Q42.35 6.5 44 5.75Q46.8 4.6 49.8 4.3L51.6 4.2L53.5 4.3Q56.45 4.5 59.2 5.7Q61 6.45 62.6 7.5L64.15 8.6L65.45 9.8L66.75 11.2L67.8 12.55L68.65 13.9M66.75,13.9L65.8 12.55L64.35 11Q62.15 8.75 59.35 7.5L58.6 7.15Q55.25 5.7 51.6 5.75Q47.95 5.8 44.65 7.25L44.15 7.5Q41.25 8.85 38.95 11.15L37.7 12.55L36.7 13.9Q35.85 15.2 35.2 16.65L35.15 16.9L34.5 18.75Q33.9 20.7 33.8 22.8L33.8 23.9L33.85 24.9Q33.95 27 34.55 29L35.2 30.9L35.25 31.05Q36.3 33.3 37.85 35.15L39.15 36.6Q41.7 39 44.85 40.4Q48.2 41.75 51.85 41.7Q55.55 41.7 58.9 40.3Q62.15 38.85 64.55 36.35L65.65 35.15Q67.2 33.25 68.2 31.05L68.4 30.65L68.95 29L69.7 24.9L69.75 23.65L69.7 22.8Q69.55 20.7 69 18.75L68.25 16.65Q67.6 15.2 66.75 13.9M21.95,3.5L1 3.5L1 10.2L4.05 10.2L4.05 37.65L1 37.65L1 44.35L13.8 44.35L13.8 37.65L10.75 37.65L10.75 27.05L21.65 27.05L25.8 22.95L25.8 7.35L21.95 3.5M26.5,6.65L26.8 7.35L26.8 22.95L26.5 23.65L22.35 27.75L21.65 28.05L11.75 28.05L11.75 36.65L13.8 36.65Q14.2 36.65 14.5 36.95L14.8 37.65L14.8 44.35L14.5 45.05Q14.2 45.35 13.8 45.35L1 45.35Q0.6 45.35 0.3 45.05Q0 44.75 0 44.35L0 37.65Q0 37.25 0.3 36.95Q0.6 36.65 1 36.65L3.05 36.65L3.05 11.2L1 11.2Q0.6 11.2 0.3 10.9Q0 10.6 0 10.2L0 3.5Q0 3.1 0.3 2.8Q0.6 2.5 1 2.5L21.95 2.5Q22.35 2.5 22.65 2.8L26.5 6.65M19.1,10.2L19.1 20.45L10.75 20.45L10.75 10.2L19.1 10.2M11.75,11.2L11.75 19.45L18.1 19.45L18.1 11.2L11.75 11.2" />
<path style="fill:#FFFFFF;fill-opacity:1" d="M451.2,10.2L442.85 10.2L442.85 21.35L451.2 21.35L451.2 10.2M457.9,24.4L454.4 28.05L452.2 28.05L457.1 37.65L459.9 37.65L459.9 44.35L453.15 44.35L445.15 28.05L442.85 28.05L442.85 37.65L445.9 37.65L445.9 44.35L433.1 44.35L433.1 37.65L436.15 37.65L436.15 10.2L433.1 10.2L433.1 3.5L454.4 3.5L457.9 6.85L457.9 24.4M417.8,3.5L426.95 37.65L430.3 37.65L430.3 44.35L417.15 44.35L417.15 37.65L420.45 37.65L419.7 34.95L409.8 34.95L409.05 37.65L412.6 37.65L412.6 44.35L399.8 44.35L399.8 37.65L402.6 37.65L411.75 3.5L417.8 3.5M418,28.35L414.85 16L411.5 28.35L418 28.35M397,15.75L390.3 15.75L390.3 10.2L381.95 10.2L381.95 18.55L390.3 18.55L390.3 25.25L381.95 25.25L381.95 37.65L390.3 37.65L390.3 29.2L397 29.2L397 44.35L372.2 44.35L372.2 37.65L375.25 37.65L375.25 10.2L372.2 10.2L372.2 3.5L397 3.5L397 15.75M367.4,24.4L363.9 28.05L361.7 28.05L366.6 37.65L369.4 37.65L369.4 44.35L362.65 44.35L354.65 28.05L352.35 28.05L352.35 37.65L355.4 37.65L355.4 44.35L342.6 44.35L342.6 37.65L345.65 37.65L345.65 10.2L342.6 10.2L342.6 3.5L363.9 3.5L367.4 6.85L367.4 24.4M352.35,21.35L360.7 21.35L360.7 10.2L352.35 10.2L352.35 21.35M327.5,15.75L320.8 15.75L320.8 10.2L312.45 10.2L312.45 18.55L320.8 18.55L320.8 25.25L312.45 25.25L312.45 37.65L320.8 37.65L320.8 29.2L327.5 29.2L327.5 44.35L302.7 44.35L302.7 37.65L305.75 37.65L305.75 10.2L302.7 10.2L302.7 3.5L327.5 3.5L327.5 15.75M299.9,10.2L296.85 10.2L296.85 37.65L299.9 37.65L299.9 44.35L287.1 44.35L287.1 37.65L290.15 37.65L290.15 26.6L281.8 26.6L281.8 37.65L284.85 37.65L284.85 44.35L272.05 44.35L272.05 37.65L275.1 37.65L275.1 10.2L272.05 10.2L272.05 3.5L284.85 3.5L284.85 10.2L281.8 10.2L281.8 20.15L290.15 20.15L290.15 10.2L287.1 10.2L287.1 3.5L299.9 3.5L299.9 10.2M269.25,18.1L262.8 18.1L262.8 10.2L258.65 10.2L258.65 37.65L261.7 37.65L261.7 44.35L248.95 44.35L248.95 37.65L252 37.65L252 10.2L247.85 10.2L247.85 18.1L241.4 18.1L241.4 3.5L269.25 3.5L269.25 18.1M226.3,10.2L223.25 10.2L223.25 44.35L217.1 44.35L207.4 21.5L207.4 37.65L210.45 37.65L210.45 44.35L197.65 44.35L197.65 37.65L200.7 37.65L200.7 10.2L197.65 10.2L197.65 3.5L206.75 3.5L216.55 27.1L216.55 10.2L213.5 10.2L213.5 3.5L226.3 3.5L226.3 10.2M194.85,10.2L191.8 10.2L191.8 37.65L194.85 37.65L194.85 44.35L182.05 44.35L182.05 37.65L185.1 37.65L185.1 10.2L182.05 10.2L182.05 3.5L194.85 3.5L194.85 10.2M164.95,24.4L161.45 28.05L159.25 28.05L164.15 37.65L166.95 37.65L166.95 44.35L160.2 44.35L152.2 28.05L149.9 28.05L149.9 37.65L152.95 37.65L152.95 44.35L140.15 44.35L140.15 37.65L143.2 37.65L143.2 10.2L140.15 10.2L140.15 3.5L161.45 3.5L164.95 6.85L164.95 24.4M149.9,21.35L158.25 21.35L158.25 10.2L149.9 10.2L149.9 21.35M122.3,10.2L122.3 18.55L130.65 18.55L130.65 25.25L122.3 25.25L122.3 37.65L130.65 37.65L130.65 29.2L137.35 29.2L137.35 44.35L112.55 44.35L112.55 37.65L115.6 37.65L115.6 10.2L112.55 10.2L112.55 3.5L137.35 3.5L137.35 15.75L130.65 15.75L130.65 10.2L122.3 10.2M105.45,10.2L97.1 20.3L106.5 37.65L109.75 37.65L109.75 44.35L96.35 44.35L96.35 37.65L99.45 37.65L92.85 25.3L86.05 33.7L86.05 37.65L89.1 37.65L89.1 44.35L76.3 44.35L76.3 37.65L79.35 37.65L79.35 10.2L76.3 10.2L76.3 3.5L89.1 3.5L89.1 10.2L86.05 10.2L86.05 24.45L97.35 10.2L93.95 10.2L93.95 3.5L108.2 3.5L108.2 10.2L105.45 10.2M68.25,16.65L69 18.75Q69.55 20.7 69.7 22.8L69.75 23.65L69.7 24.9L68.95 29L68.4 30.65L68.2 31.05Q67.2 33.25 65.65 35.15L64.55 36.35Q62.15 38.85 58.9 40.3Q55.55 41.7 51.85 41.7Q48.2 41.75 44.85 40.4Q41.7 39 39.15 36.6L37.85 35.15Q36.3 33.3 35.25 31.05L35.2 30.9L34.55 29Q33.95 27 33.85 24.9L33.8 23.9L33.8 22.8Q33.9 20.7 34.5 18.75L35.15 16.9L35.2 16.65Q35.85 15.2 36.7 13.9L37.7 12.55L38.95 11.15Q41.25 8.85 44.15 7.5L44.65 7.25Q47.95 5.8 51.6 5.75Q55.25 5.7 58.6 7.15L59.35 7.5Q62.15 8.75 64.35 11L65.8 12.55L66.75 13.9Q67.6 15.2 68.25 16.65M65.95,17L59.25 17L59.25 19.1L60.2 19.1L60.2 27.75L59.25 27.75L59.25 29.85L63.25 29.85L63.25 27.75L62.3 27.75L62.3 24.7L63.05 24.7L65.55 29.85L67.65 29.85L67.65 27.75L66.8 27.75L65.25 24.7L65.95 24.7L67 23.6L67 18.05L65.95 17M62.3,22.65L62.3 19.1L64.95 19.1L64.95 22.65L62.3 22.65M42.85,17L36.25 17L36.25 19.1L37.2 19.1L37.2 27.75L36.25 27.75L36.25 29.85L40.3 29.85L40.3 27.75L39.3 27.75L39.3 24.4L42.75 24.4L44.05 23.15L44.05 18.2L42.85 17M41.95,22.35L39.3 22.35L39.3 19.1L41.95 19.1L41.95 22.35M48.9,19.1L48.9 17L44.85 17L44.85 19.1L45.8 19.1L45.8 27.75L44.85 27.75L44.85 29.85L48.9 29.85L48.9 27.75L47.9 27.75L47.9 19.1L48.9 19.1M49.7,21.6L51.7 21.6L51.7 19.1L53 19.1L53 27.75L52.05 27.75L52.05 29.85L56.05 29.85L56.05 27.75L55.1 27.75L55.1 19.1L56.4 19.1L56.4 21.6L58.4 21.6L58.4 17L49.7 17L49.7 21.6M25.8,7.35L25.8 22.95L21.65 27.05L10.75 27.05L10.75 37.65L13.8 37.65L13.8 44.35L1 44.35L1 37.65L4.05 37.65L4.05 10.2L1 10.2L1 3.5L21.95 3.5L25.8 7.35M10.75,10.2L10.75 20.45L19.1 20.45L19.1 10.2L10.75 10.2" />
<path style="fill:#E81A1A;fill-opacity:1" d="M30.8,12.55Q31.95 10.35 33.6 8.45L34.45 7.5L36.15 5.8Q39 3.4 42.4 1.9Q45.95 0.5 49.75 0.1L51.55 0L53.45 0.1Q57.25 0.4 60.8 1.8Q64.2 3.25 67.1 5.65L69 7.5L69.65 8.2Q71.45 10.2 72.7 12.55L67.8 12.55L66.75 11.2L65.45 9.8L64.15 8.6L62.6 7.5Q61 6.45 59.2 5.7Q56.45 4.5 53.5 4.3L51.6 4.2L49.8 4.3Q46.8 4.6 44 5.75Q42.35 6.5 40.9 7.5L39.2 8.75L37.8 10.05L36.6 11.4L35.7 12.55L30.8 12.55M28.5,18.75L29.05 16.65L33.5 16.65L32.85 18.6L32.8 18.75L28.5 18.75M28.05,25.15L28 23.95L28 22.8L32.2 22.8L32.2 23.9L32.2 24.1L32.25 24.9L28.05 24.9L28.05 25.15M32.85,29L32.95 29.25L33.6 31.05L29.1 31.05L28.55 29L32.85 29M35.85,35.15L36.8 36.4L38 37.7L39.4 38.95Q41.65 40.7 44.25 41.85Q47.1 43 50.1 43.25L51.9 43.3L53.75 43.25Q56.75 42.9 59.45 41.75Q62.15 40.6 64.35 38.65L65.65 37.45L66.95 36.1L67.65 35.15L72.6 35.15Q71.45 37.2 69.9 39.05L67.4 41.65Q64.55 44.15 61.15 45.55Q57.65 47.05 53.85 47.35L51.95 47.5L50.15 47.4Q46.35 47.2 42.8 45.75Q39.3 44.4 36.45 41.9Q35 40.8 33.8 39.35Q32.1 37.4 30.9 35.15L35.85 35.15M74.95,29L74.35 31.05L69.9 31.05L70.65 29L74.95 29M71.3,24.9L71.3 23.6L71.25 22.8L75.5 22.8L75.5 23.6L75.5 24.9L71.3 24.9M74.45,16.65L75 18.75L70.7 18.75L70.65 18.6L70 16.65L74.45 16.65" />
<path style="fill:#FFFF00;fill-opacity:1" d="M70,16.65L69.75 16L68.65 13.9L67.8 12.55L72.7 12.55L73.35 13.9L73.6 14.4L74.45 16.65L70 16.65M29.05,16.65L29.75 14.75L30.15 13.9L30.8 12.55L35.7 12.55L34.85 13.9L33.65 16.3L33.5 16.65L29.05 16.65M32.8,18.75Q32.35 20.4 32.25 22.05L32.25 22.2L32.2 22.8L28 22.8L28.05 22.1L28.05 21.9L28.05 21.75L28.1 21.55L28.1 21.45L28.5 18.75L32.8 18.75M28.55,29L28.1 25.75L28.05 25.15L28.05 24.9L32.25 24.9L32.3 25.65L32.3 25.75L32.85 29L28.55 29M33.6,31.05L33.75 31.5L35.85 35.15L30.9 35.15L29.9 33.15L29.1 31.05L33.6 31.05M74.35,31.05L73.75 32.75L72.6 35.15L67.65 35.15Q68.95 33.35 69.8 31.2L69.9 31.05L74.35 31.05M70.65,29L71.25 25.45L71.3 24.9L75.5 24.9L75.45 25.4L75.45 25.55L74.95 29L70.65 29M71.25,22.8L71.2 21.75L71.15 21.4L71 20.35L70.7 18.75L75 18.75L75.4 21.6L75.4 21.7L75.45 21.85L75.45 22.05L75.5 22.8L71.25 22.8" />
<path style="fill:#B3B300;fill-opacity:1" d="M67,18.05L67 23.6L65.95 24.7L65.25 24.7L66.8 27.75L67.65 27.75L67.65 29.85L65.55 29.85L63.05 24.7L62.3 24.7L62.3 27.75L63.25 27.75L63.25 29.85L59.25 29.85L59.25 27.75L60.2 27.75L60.2 19.1L59.25 19.1L59.25 17L65.95 17L67 18.05M64.95,22.65L64.95 19.1L62.3 19.1L62.3 22.65L64.95 22.65M44.05,18.2L44.05 23.15L42.75 24.4L39.3 24.4L39.3 27.75L40.3 27.75L40.3 29.85L36.25 29.85L36.25 27.75L37.2 27.75L37.2 19.1L36.25 19.1L36.25 17L42.85 17L44.05 18.2M41.95,19.1L39.3 19.1L39.3 22.35L41.95 22.35L41.95 19.1M47.9,19.1L47.9 27.75L48.9 27.75L48.9 29.85L44.85 29.85L44.85 27.75L45.8 27.75L45.8 19.1L44.85 19.1L44.85 17L48.9 17L48.9 19.1L47.9 19.1M49.7,17L58.4 17L58.4 21.6L56.4 21.6L56.4 19.1L55.1 19.1L55.1 27.75L56.05 27.75L56.05 29.85L52.05 29.85L52.05 27.75L53 27.75L53 19.1L51.7 19.1L51.7 21.6L49.7 21.6L49.7 17" />
</g>
</svg>
