<?xml version="1.0" encoding="utf-8"?>
<svg version="1.1" id="Layer_1"
xmlns="http://www.w3.org/2000/svg"
xmlns:xlink="http://www.w3.org/1999/xlink"
xmlns:author="http://www.sothink.com"
width="291px" height="64px"
xml:space="preserve">
<g id="1277" transform="matrix(1, 0, 0, 1, 0, 0)">
<path style="fill:#FFFFFF;fill-opacity:1" d="M1,4.5L1 59.5Q1 61.25 1.85 62.15Q2.75 63 4.5 63L286.5 63Q288.35 63 289.3 62.05L289.35 62.05L289.35 62Q290 61.1 290 59.5L290 4.5Q290 2.75 289.15 1.85Q288.25 1 286.5 1L4.5 1Q2.75 1 1.85 1.85Q1 2.75 1 4.5M291,4.5L291 59.5Q291 61.55 290.1 62.65L290.1 62.7Q288.9 64 286.5 64L4.5 64Q2.25 64 1.15 62.85Q0 61.75 0 59.5L0 4.5Q0 2.25 1.15 1.15Q2.25 0 4.5 0L286.5 0Q288.75 0 289.85 1.15Q291 2.25 291 4.5" />
<path style="fill:#D96767;fill-opacity:1" d="M290,4.5L290 59.5Q290 61.1 289.35 62L286.5 59.4L286.5 4.5L289.15 1.85Q290 2.75 290 4.5" />
<path style="fill:#CD3434;fill-opacity:1" d="M4.5,4.5L1.85 1.85Q2.75 1 4.5 1L286.5 1Q288.25 1 289.15 1.85L286.5 4.5L4.5 4.5" />
<path style="fill:#BF0000;fill-opacity:1" d="M4.5,4.5L286.5 4.5L286.5 59.4L286.5 59.5L4.5 59.5L4.5 4.5" />
<path style="fill:#7E0000;fill-opacity:1" d="M289.35,62.05L289.3 62.05Q288.35 63 286.5 63L4.5 63Q2.75 63 1.85 62.15L4.5 59.5L286.5 59.5L286.5 59.4L289.35 62L289.35 62.05" />
<path style="fill:#570000;fill-opacity:1" d="M4.5,59.5L1.85 62.15Q1 61.25 1 59.5L1 4.5Q1 2.75 1.85 1.85L4.5 4.5L4.5 59.5" />
</g>
</svg>
