<?xml version="1.0" encoding="utf-8"?>
<svg version="1.1" id="Layer_1"
xmlns="http://www.w3.org/2000/svg"
xmlns:xlink="http://www.w3.org/1999/xlink"
xmlns:author="http://www.sothink.com"
width="256px" height="256px"
xml:space="preserve">
<g id="1279" transform="matrix(1, 0, 0, 1, 0, 0)">
<path style="fill:#000000;fill-opacity:1" d="M248,5L8 5L8 52L248 52L248 5M80,241L240 241L240 243L80 243L80 241M9.5,247.5Q11 249 14 249L242 249Q248 249 248 243L248 222Q248 219 246.5 217.5Q245 216 242 216L14 216Q8 216 8 222L8 243Q8 246 9.5 247.5M256,0L256 256L0 256L0 0L256 0" />
<path style="fill:#E80000;fill-opacity:1" d="M248,52L8 52L8 5L248 5L248 52M80,243L240 243L240 241L80 241L80 243M12.05,241.55L12 223.9Q12 220 16 220L240 220Q242 220 243.05 221Q244 221.95 244 223.9L244 241.1Q244 245 240 245L15.55 245L15.05 244.95L15 244.95Q13.7 244.75 13 244Q12.15 243.15 12.05 241.55" />
<path style="fill:#990000;fill-opacity:1" d="M246.5,217.5Q248 219 248 222L248 243Q248 249 242 249L14 249Q11 249 9.5 247.5L13 244Q13.7 244.75 15 244.95L15.05 244.95L15.55 245L240 245Q244 245 244 241.1L244 223.9Q244 221.95 243.05 221L246.5 217.5" />
<path style="fill:#FF7575;fill-opacity:1" d="M8,243L8 222Q8 216 14 216L242 216Q245 216 246.5 217.5L243.05 221Q242 220 240 220L16 220Q12 220 12 223.9L12.05 241.55Q12.15 243.15 13 244L9.5 247.5Q8 246 8 243" />
<path style="fill:#000000;fill-opacity:1" d="M248,212.8L8 212.8L8 196L248 196L248 212.8" />
</g>
</svg>
