<?xml version="1.0" encoding="utf-8"?>
<svg version="1.1" id="Layer_1"
xmlns="http://www.w3.org/2000/svg"
xmlns:xlink="http://www.w3.org/1999/xlink"
xmlns:author="http://www.sothink.com"
width="512px" height="256px"
xml:space="preserve">
<g id="1290" transform="matrix(1, 0, 0, 1, 0, 0)">
<path style="fill:#000000;fill-opacity:1" d="M0,234L0 15L3 15L349 15L423 15L512 15L512 234L0 234M10.9,19L6 19L6 228L10.9 228L338.9 228L344 228L344 19L338.9 19L10.9 19" />
<path style="fill:#BE3C28;fill-opacity:1" d="M423,15L349 15L3 15L0 15L0 0L512 0L512 15L423 15M512,234L512 256L0 256L0 234L512 234M338.9,19L344 19L344 228L338.9 228L338.9 19M10.9,228L6 228L6 19L10.9 19L10.9 228" />
<path style="fill:#000000;fill-opacity:1" d="M10.9,19L338.9 19L338.9 228L10.9 228L10.9 19" />
</g>
</svg>
