<?xml version="1.0" encoding="utf-8"?>
<svg version="1.1" id="Layer_1"
xmlns="http://www.w3.org/2000/svg"
xmlns:xlink="http://www.w3.org/1999/xlink"
xmlns:author="http://www.sothink.com"
width="512px" height="256px"
xml:space="preserve">
<g id="1291" transform="matrix(1, 0, 0, 1, 0, 0)">
<path style="fill:#0C5601;fill-opacity:1" d="M502,6L8 6L8 112L502 112L502 6M502,119L8 119L8 224L502 224L502 119M512,256L0 256L0 0L512 0L512 256" />
<path style="fill:#000000;fill-opacity:1" d="M487.6,142.7Q483.2 137.2 477.35 133.2Q471.2 129.2 464.25 127.25L460.7 126.4L457.3 125.9Q450.05 125.05 442.9 126.55Q436 128 429.75 131.45Q426.65 133.25 423.95 135.45Q418.35 139.85 414.35 145.7Q410.25 151.8 408.4 158.9L407.6 162.35L407.05 165.85Q406.15 173.05 407.7 180.2Q409.15 187.2 412.7 193.35Q414.4 196.45 416.6 199.2Q421.1 204.85 427 208.8Q433.1 212.8 440.15 214.65L443.5 215.45L447.1 216Q454.35 216.9 461.55 215.35Q468.4 213.9 474.6 210.3Q477.55 208.6 480.4 206.4Q485.95 201.95 489.9 196.05Q493.9 190.05 495.85 183L496.65 179.55L497.2 176.05Q498 168.8 496.5 161.65Q495.05 154.8 491.55 148.6Q489.8 145.55 487.6 142.7M484.95,153.1Q487.55 157.8 488.65 163.2Q489.9 168.8 489.3 174.5L488.75 178.05L487.95 181.45Q486.4 186.95 483.15 191.8Q480.1 196.35 475.95 199.75L473 201.85L470.05 203.7Q465.3 206.35 459.8 207.5L448.6 208.15L445 207.6L441.65 206.85Q436.15 205.25 431.25 202Q426.75 198.9 423.3 194.75L421.2 191.85L419.3 188.95Q416.75 184.15 415.55 178.7Q414.3 173.05 414.95 167.35L415.45 163.85Q415.8 162.1 416.3 160.4Q417.8 154.9 421.05 150.1Q424.2 145.55 428.4 142.1Q429.75 140.95 431.25 139.95Q432.65 139 434.3 138.1Q439 135.55 444.35 134.35L455.75 133.75L459.2 134.25L462.7 135.1Q468.15 136.65 472.9 139.85Q477.5 143.05 480.95 147.25L483.05 149.95L484.95 153.1M458.65,137.2Q451.8 135.9 445 137.3Q438.45 138.75 432.85 142.55Q427.35 146.25 423.6 151.85Q419.8 157.55 418.45 164.45Q417.15 171.3 418.5 178.05Q419.95 184.6 423.65 190.2Q427.45 195.7 433 199.45Q438.75 203.3 445.6 204.6Q452.45 205.95 459.2 204.55Q465.8 203.1 471.3 199.4Q476.9 195.6 480.6 190.05Q484.5 184.3 485.8 177.45Q487.15 170.55 485.7 163.85Q484.3 157.25 480.5 151.75Q476.8 146.15 471.2 142.4Q465.5 138.55 458.65 137.2M432.55,147.1L437.95 148.15Q438.25 148.2 438.4 148.45L439.55 150.05L439.7 149.25L440 148.75L440.6 148.65L445.7 149.65Q446 149.7 446.2 149.95L446.3 150.55L445.8 153.2L445.5 153.75L444.9 153.85L444.45 153.75L442.65 163.1L444.4 163.45L444.95 160.45L445.25 159.95L445.9 159.8L448.55 160.3L449.05 160.65L449.2 161.25L448.6 164.35L449 164.35L449.4 164.4L451.2 155.05L450.8 155L450.3 154.7L450.15 154.05L450.65 151.4L451 150.9L451.6 150.8L456.7 151.75Q457 151.85 457.15 152.05L457.25 152.65L457.05 153.55L458.85 152.4L459.45 152.3L464.9 153.35L465.35 153.65L466.45 155.25L466.6 154.45L466.95 153.95L467.55 153.85L472.6 154.85L473.1 155.15L473.25 155.75L472.75 158.4L472.4 158.95L471.8 159.05L471.35 158.95L470.8 161.6L473.55 159.35L473.25 159.1L473.1 158.45L473.6 155.8L473.95 155.3L474.55 155.2L480.25 156.3Q480.55 156.4 480.75 156.65L480.85 157.2L480.35 159.85L480.05 160.45L479.45 160.5L478.65 160.35L475.25 163.15L477.4 169.85L478.2 170Q478.6 170.05 478.75 170.35L478.9 170.95L478.35 173.6L478 174.1L477.35 174.2L472.05 173.15Q471.75 173.1 471.55 172.85L471.4 172.25L471.95 169.6L472.3 169.1L472.85 168.95L471.85 165.95L469.6 167.8L469.55 168.3L470 168.4L470.5 168.75L470.65 169.35L470.1 172L469.75 172.5L469.15 172.6L464.1 171.6Q463.75 171.55 463.6 171.3L463.45 170.7L463.6 170.05L462.15 171.05L461.6 171.15L456 170.05Q455.65 170 455.5 169.75L454.3 168L454.1 168.9L453.8 169.4L453.25 169.5L448.15 168.55L447.65 168.25L447.6 168.2L447 168.3L437.15 166.4L436.65 166.1L436.55 165.5L436.7 164.85L435.2 165.85L434.65 165.9L429.05 164.85L428.55 164.55L427.2 162.6Q427 162.3 427.1 161.95L429.55 149.05L429.95 148.55L431.9 147.2L432.55 147.1M445.05,153.05L445.55 150.4L440.45 149.4L439.95 152.05L441.15 152.3L439.05 163.25L437.85 163L437.3 165.65L447.15 167.55L448.4 161.1L445.75 160.6L445.05 164.4L441.7 163.75L443.8 152.8L445.05 153.05M439.5,152.7L439.2 154.3L438.85 154.8L438.2 154.95L435.55 154.45L435.05 154.05L434.95 153.5L435.25 152L433.45 151.65L431.65 161L433.45 161.35L433.75 159.8L434.05 159.3L434.6 159.2L437.25 159.7Q437.6 159.75 437.85 160.05L438 160.6L437.65 162.25L438 162.2L438.45 162.3L440.25 152.95L439.8 152.85L439.5 152.7M438.35,154.15L439 150.8L437.8 148.9L432.4 147.85L430.3 149.2L427.85 162.1L429.2 164.1L434.8 165.15L436.45 164L437.15 160.45L434.5 159.95L434.05 162.3L430.75 161.65L432.85 150.7L436.15 151.35L435.7 153.65L438.35 154.15M428.6,172.5L428.1 172.1Q427.85 171.8 427.95 171.5L428.45 168.85Q428.5 168.5 428.8 168.3L429.4 168.25L434.45 169.2L434.9 169.4L435.35 169.4L440.45 170.35Q440.8 170.45 440.95 170.65L441.6 170.6L451.4 172.5Q451.75 172.55 451.95 172.8L452.55 172.7L461.05 174.35Q461.35 174.4 461.5 174.65L462.65 176.25L462.75 176.6L462.75 176.85L461.4 183.85L461.15 184.4L459.4 185.5L459.15 185.65L459.9 188.25L460.55 188.35Q460.9 188.4 461.1 188.65L461.15 188.65L461.65 188.6L462.1 188.65L463.95 179.3L463.5 179.25L463.05 178.85Q462.8 178.55 462.9 178.25L463.4 175.6Q463.45 175.25 463.75 175.05L464.3 175L474.2 176.9Q474.5 176.95 474.7 177.2L474.75 177.85L473.8 182.7L473.55 183.2L472.95 183.35L470.95 182.95L470.95 183.3L470.4 185.95L470.15 186.55L469.75 186.6L472.2 187.1L472.7 187.45L472.75 188.05L471.6 194.05L471.35 194.6L470.75 194.75L460.85 192.85L460.4 192.45L460.4 192.4L460.35 192.45L459.75 192.6L457.05 192.1L456.7 191.85L456.45 191.5L455.65 188.35L455.15 190.85L454.8 191.4L454.2 191.55L449.1 190.55L448.6 190.2L447.95 190.35L438.15 188.45L437.6 188.05L437 188.2L431.9 187.25L431.5 186.95L431 187.05L425.95 186.1L425.45 185.7L425.3 185.05L425.8 182.4L426.2 181.9L426.75 181.85L427.2 181.9L429.05 172.55L428.6 172.5M429.95,171.9L427.8 182.8L426.6 182.6L426.1 185.25L431.15 186.2L431.65 183.55L430.45 183.3L431.3 178.95L434.65 179.6L433.8 183.95L432.55 183.75L432.05 186.4L437.15 187.35L437.65 184.7L436.45 184.5L438.6 173.6L439.8 173.8L440.3 171.15L435.2 170.2L434.7 172.85L435.95 173.05L435.15 177L431.8 176.35L432.6 172.4L433.8 172.65L434.3 170L429.25 169.05L428.75 171.7L429.95 171.9M444.75,174.75L448.1 175.4L447.65 177.6L450.3 178.15L451.25 173.3L441.45 171.4L440.95 174.05L442.1 174.25L439.95 185.15L438.8 184.95L438.3 187.6L448.1 189.5L449.25 183.5L446.6 182.95L445.95 186.3L442.6 185.65L443.55 180.75L446.9 181.4L447.45 178.75L444.1 178.1L444.75 174.75M440.8,174.85Q440.45 174.75 440.25 174.45L439.65 174.6L439.2 174.55L437.35 183.9L437.8 183.95L438.35 184.25L438.95 184.2L439.4 184.25L441.25 174.9L440.8 174.85M445.1,177.5L446.9 177.85L446.9 177.5L447.2 176.1L445.45 175.75L445.1 177.5M445.35,185.45L445.85 182.85Q445.95 182.5 446.15 182.3L446.75 182.15L444.25 181.7L443.6 185.1L445.35 185.45M435.05,173.7L434.55 173.65L434.1 173.4L433.65 173.45L433.25 173.35L432.75 175.75L434.55 176.1L435.05 173.7M431.8,182.8L432.25 183.05L432.7 183L433.2 183.05L433.75 180.2L431.95 179.85L431.4 182.7L431.8 182.8M479.6,159.7L480.1 157.05L474.4 155.95L473.9 158.6L475.25 158.9L469.6 163.7L470.7 158L471.95 158.25L472.45 155.6L467.4 154.6L466.9 157.25L468.1 157.5L466 168.45L464.8 168.2L464.25 170.85L469.3 171.85L469.85 169.2L468.6 168.95L468.9 167.35L472.25 164.6L473.95 170L472.75 169.75L472.2 172.4L477.5 173.45L478.05 170.8L476.75 170.55L474.35 162.9L478.45 159.5L479.6 159.7M466.4,157.9L466.1 159.5L465.8 160L465.15 160.15L462.5 159.65L462 159.3L461.9 158.7L462.2 157.2L460.4 156.85L458.6 166.2L460.4 166.55L460.7 165L461 164.55L461.55 164.4L464.2 164.9L464.8 165.25L464.9 165.8L464.55 167.45L464.95 167.4L465.4 167.5L467.2 158.15L466.75 158.05L466.4 157.9M457.25,154.45L454.8 167.35L456.15 169.3L461.75 170.4L463.4 169.2L464.1 165.65L461.45 165.15L461 167.5L457.65 166.85L459.75 155.9L463.1 156.55L462.65 158.85L465.3 159.35L465.95 156L464.75 154.1L459.3 153.05L457.25 154.45M455.9,155.95L455.45 155.9L453.65 165.25L454.1 165.3L454.35 165.5L456.2 155.95L455.9 155.95M456.55,152.5L451.45 151.55L450.95 154.2L452.1 154.4L450 165.35L448.85 165.15L448.3 167.8L453.4 168.75L453.95 166.1L452.65 165.85L454.75 154.9L456.05 155.15L456.55 152.5M464.85,178.65L462.7 189.55L461.5 189.35L461 192L470.9 193.9L472.05 187.9L469.4 187.35L468.75 190.7L465.35 190.05L466.3 185.15L469.7 185.8L470.25 183.15L466.85 182.5L467.5 179.15L470.9 179.8L470.45 182L473.1 182.55L474.05 177.7L464.15 175.8L463.65 178.45L464.85 178.65M460.9,175.15L452.4 173.5L451.9 176.15L453.1 176.4L450.95 187.3L449.75 187.05L449.25 189.7L454.35 190.7L454.85 188.05L453.6 187.8L454.35 184L455.25 184.15L457.2 191.25L459.9 191.75L460.4 189.1L459.3 188.9L458.1 184.7L459 184.9L460.65 183.7L462 176.7L460.9 175.15M459.1,177.55L458.25 181.95L454.9 181.3L455.75 176.9L459.1 177.55M456.4,177.85L455.8 180.75L457.55 181.1L458.15 178.2L456.4 177.85M450.8,178.8L450.15 178.95L448.2 178.55L448.25 178.9L447.7 181.55L447.4 182.15L446.95 182.2L449.4 182.7L449.95 183.05L450.05 183.65L449.55 186.35L449.9 186.3L450.35 186.4L452.2 177.05L451.75 176.95L451.4 176.8L451.1 178.3L450.8 178.8M455,187.3L455.4 187.45L454.9 185.6L454.55 187.2L455 187.3M469.65,181.85L469.95 180.45L468.2 180.15L467.85 181.9L469.65 182.25L469.65 181.85M469.55,186.55L467 186.1L466.35 189.5L468.1 189.8L468.6 187.2L468.9 186.7L469.55 186.55M502,224L8 224L8 119L502 119L502 224M65.65,133.25Q71.1 134.2 76.05 136.6L79.05 138.25Q80.65 139.2 82.05 140.25Q86.35 143.5 89.6 147.95Q93.1 152.55 94.85 158L95.85 161.4L96.5 164.85Q97.4 170.5 96.35 176.25Q95.5 181.65 93.1 186.5L91.3 189.65L89.4 192.5Q86.15 196.95 81.65 200.25Q77.05 203.6 71.7 205.45L68.2 206.45L64.85 207.15Q59.15 207.95 53.4 207Q48 206.05 43.1 203.7L39.95 201.95L37.15 200.05Q32.75 196.7 29.4 192.25Q26 187.6 24.15 182.15L23.2 178.8L22.5 175.3Q21.7 169.65 22.65 163.95Q23.6 158.5 26.05 153.6L27.7 150.55Q28.65 149 29.75 147.55Q33 143.25 37.4 140Q42.1 136.55 47.55 134.75L50.85 133.8L54.4 133.1Q60 132.25 65.65 133.25M32.8,133.45Q27.1 137.7 22.85 143.4Q20.75 146.25 19.2 149.35Q15.95 155.7 14.75 162.75Q13.5 169.95 14.75 177.15L15.45 180.65L16.4 184Q18.55 191 22.9 196.95Q27.1 202.65 32.9 206.8Q35.7 208.95 38.85 210.5Q45.25 213.8 52.3 214.9Q59.5 216.1 66.7 214.85L70.1 214.2L73.55 213.2Q80.5 211 86.4 206.65Q92.1 202.5 96.3 196.7L99.95 190.75Q103.1 184.35 104.3 177.35Q105.45 170.2 104.3 163L103.65 159.55L102.65 156.15Q100.4 149.15 96.1 143.35Q91.95 137.6 86.2 133.45L80.25 129.75Q73.95 126.55 66.9 125.3Q59.7 124.25 52.55 125.3L49 126L45.7 126.95Q38.7 129.2 32.8 133.45M72.5,147.55L73.1 150.15L73 150.8L72.55 151.2L72.1 151.3L72.75 153.9L74.3 150.7L73.9 150.6L73.5 150.05L72.9 147.45Q72.8 147.15 73 146.85Q73.2 146.6 73.45 146.5L79.1 145.2L79.7 145.25L80.05 145.75L80.65 148.35L80.6 149L80.1 149.4L79.35 149.55L77.4 153.45L82.05 158.65L82.85 158.45L83.5 158.55L83.9 159.05L84.55 161.7L84.4 162.25L83.85 162.65L78.6 163.9L78 163.8L77.65 163.35L77 160.7L77.1 160.1L77.55 159.7L75.5 157.4L74.2 160.05L74.3 160.5L74.75 160.4L75.3 160.5L75.7 161L76.35 163.65L76.2 164.2L75.75 164.6L70.7 165.8L70.15 165.65L69.8 165.2L69.65 164.55L68.7 166L68.25 166.4L62.7 167.7L62.1 167.6L60.3 166.55L60.55 167.45L60.4 168L59.95 168.35L54.9 169.55L54.35 169.45L54.3 169.45L53.8 169.85L44 172.15L43.45 172.05L43.15 171.6L43 170.95L42 172.4L41.55 172.75L36 174.1L35.4 173.95L33.45 172.8L33 172.25L29.95 159.5Q29.85 159.15 30.1 158.9L31.3 156.8Q31.45 156.55 31.85 156.45L37.2 155.2L37.8 155.25L39.5 156.3L39.3 155.5L39.35 154.9L39.8 154.55L44.9 153.35L45.45 153.45L45.8 153.95L46.4 156.55L46.35 157.2L45.9 157.55L45.45 157.65L47.65 166.85L49.4 166.45L48.7 163.5L48.8 162.9L49.25 162.55L51.9 161.95L52.55 162L52.85 162.5L53.6 165.55Q53.7 165.4 53.9 165.35L54.35 165.25L52.15 156.05L51.7 156.15L51.15 156.05L50.75 155.5L50.15 152.9Q50.05 152.6 50.25 152.3L50.7 151.95L55.75 150.75L56.3 150.85L56.7 151.35L56.9 152.25L58 150.45L58.5 150.1L63.9 148.8L64.45 148.9L66.15 149.9L65.95 149.1Q65.85 148.8 66.05 148.5Q66.2 148.25 66.5 148.2L71.55 147L72.1 147.05L72.5 147.55M73.65,147.25L74.25 149.85L75.6 149.55L72.45 156.3L71.1 150.65L72.35 150.35L71.75 147.75L66.7 148.95L67.3 151.55L68.55 151.25L71.15 162.1L69.9 162.4L70.55 165.05L75.6 163.85L74.95 161.2L73.7 161.5L73.35 159.95L75.3 156L79 160.2L77.8 160.5L78.45 163.15L83.7 161.9L83.05 159.25L81.8 159.55L76.5 153.65L78.8 148.8L79.9 148.55L79.3 145.95L73.65 147.25M65.2,136.25L51.55 136.7Q44.75 138.35 39.2 142.45Q33.85 146.45 30.25 152.2Q26.8 157.85 25.65 164.5Q24.55 171.25 26.2 178.05Q27.8 184.85 31.85 190.45Q35.85 195.85 41.55 199.4Q47.35 202.85 53.9 204Q60.7 205.1 67.5 203.45Q74.3 201.8 79.9 197.8Q85.3 193.75 88.8 188.1Q92.25 182.35 93.4 175.75Q94.5 168.95 92.9 162.15Q91.25 155.35 87.2 149.8Q83.2 144.35 77.5 140.9Q71.8 137.35 65.2 136.25M30.75,159.35L33.8 172.1L35.85 173.35L41.4 172L42.4 170.25L41.55 166.7L38.95 167.3L39.5 169.65L36.2 170.45L33.6 159.6L36.9 158.8L37.45 161.1L40.05 160.5L39.25 157.2L37.4 155.95L32.05 157.2L30.75 159.35M34.55,160.25L36.75 169.45L38.55 169.05L38.2 167.5L38.3 167L38.75 166.6L41.35 166L42.05 166.1L42.4 166.5L42.8 168.15L43 167.95L43.45 167.85L41.25 158.65L40.8 158.75L40.55 158.75L40.9 160.3L40.8 160.9L40.25 161.25L37.65 161.85L37.05 161.8Q36.8 161.65 36.7 161.3L36.35 159.85L34.55 160.25M37.7,177L42.75 175.8L43.2 175.8Q43.35 175.65 43.6 175.6L48.65 174.4L49.25 174.45Q49.45 174.2 49.8 174.1L59.5 171.8L60.15 171.85Q60.3 171.6 60.6 171.55L69.05 169.5L69.6 169.6L71.35 170.55L71.55 170.85L71.65 171.1L73.3 178L73.3 178.65L72.2 180.35L72.05 180.6L73.8 182.65L74.45 182.5L75 182.6L75.05 182.55Q75.25 182.3 75.55 182.25L76 182.15L73.75 172.85L73.3 172.95L72.7 172.8L72.35 172.3L71.7 169.7L71.8 169.05Q72 168.8 72.3 168.75L82.05 166.4L82.65 166.45L83 167.05L84.15 171.85L84.1 172.4L83.6 172.8L81.65 173.25L81.8 173.6L82.4 176.2L82.4 176.85L82.05 177.15L84.5 176.55L85.1 176.6L85.4 177.15L86.85 183.1L86.8 183.7L86.3 184.05L76.55 186.4L75.95 186.3L75.9 186.25L75.9 186.35L75.45 186.65L72.75 187.3L72.3 187.25L71.95 187.05L69.9 184.5L70.5 187L70.4 187.65L69.95 187.95L64.85 189.2L64.3 189.1Q64.1 189.35 63.75 189.45L54.05 191.75L53.4 191.7L52.9 192.05L47.85 193.25L47.35 193.15L47 193.45L41.95 194.65L41.35 194.6L40.95 194.05L40.3 191.4L40.45 190.85Q40.6 190.6 40.95 190.5L41.4 190.4L39.15 181.1L38.7 181.2L38.1 181.1L37.75 180.6L37.1 178L37.2 177.35L37.7 177M39.75,180.1L42.3 190.9L41.1 191.2L41.75 193.85L46.8 192.65L46.15 190L44.9 190.3L43.9 186L47.2 185.2L48.2 189.5L47 189.8L47.65 192.45L52.7 191.25L52.05 188.6L50.85 188.9L48.3 178.1L49.5 177.8L48.85 175.2L43.8 176.4L44.45 179L45.65 178.7L46.55 182.6L43.25 183.4L42.35 179.5L43.6 179.2L42.95 176.6L37.9 177.8L38.55 180.4L39.75 180.1M67.5,152.4L67.2 152.35L67.55 153.9L67.5 154.5L66.95 154.85L64.3 155.5L63.75 155.4L63.4 154.9L63.05 153.45L61.25 153.9L63.45 163.1L65.25 162.65L64.9 161.1L65 160.6L65.4 160.25L68.05 159.6L68.75 159.7L69.05 160.1L69.45 161.75L69.7 161.6L70.15 161.5L67.95 152.3L67.5 152.4M65.95,150.8L64.1 149.55L58.7 150.85L57.45 152.95L60.5 165.7L62.55 166.95L68.1 165.65L69.1 163.85L68.25 160.3L65.6 160.95L66.15 163.3L62.85 164.05L60.25 153.2L63.55 152.45L64.1 154.75L66.75 154.1L65.95 150.8M60.8,172.35L61.45 174.95L62.7 174.65L65.25 185.45L64 185.75L64.65 188.4L69.75 187.15L69.1 184.5L67.85 184.8L66.95 181.05L67.85 180.85L72.55 186.5L75.25 185.85L74.6 183.2L73.5 183.45L70.65 180.2L71.55 179.95L72.55 178.2L70.9 171.3L69.25 170.3L60.8 172.35M73.15,172.15L74.3 171.85L76.85 182.65L75.7 182.95L76.35 185.6L86.1 183.25L84.65 177.3L82.05 177.95L82.85 181.25L79.5 182.05L78.35 177.2L81.7 176.4L81.1 173.8L77.75 174.6L76.95 171.25L80.3 170.45L80.8 172.65L83.4 172L82.25 167.2L72.5 169.55L73.15 172.15M77.9,171.85L78.35 173.6L80.15 173.15L80 172.8L79.65 171.4L77.9 171.85M55.95,151.5L50.9 152.7L51.5 155.3L52.7 155.05L55.3 165.9L54.1 166.15L54.75 168.8L59.8 167.6L59.15 164.95L57.9 165.25L55.3 154.4L56.55 154.1L55.95 151.5M56.75,154.95L56.35 155.05L58.55 164.25L58.95 164.15L59.3 164.2L57.05 154.8L56.75 154.95M41.85,157.6L44.45 168.45L43.2 168.75L43.85 171.4L53.65 169.1L52.1 162.7L49.45 163.3L50.35 167.05L47.05 167.85L44.45 157L45.7 156.7L45.1 154.1L40 155.3L40.6 157.9L41.85 157.6M57.15,176.8L55.4 177.2L55.85 178.95L57.65 178.55L57.5 178.2L57.15 176.8M59.3,179L59.9 181.6L59.85 182.25L59.5 182.55L61.95 181.95L62.6 182L62.9 182.5L63.55 185.2L63.85 185.05L64.3 184.9L62.05 175.6L61.6 175.75L61.3 175.7L61.65 177.2L61.6 177.8L61.05 178.2L59.1 178.65L59.3 179M58.25,178L60.85 177.4L59.7 172.6L50 174.9L50.65 177.5L51.8 177.25L54.35 188.05L53.2 188.3L53.85 190.95L63.55 188.65L62.1 182.7L59.5 183.3L60.3 186.6L56.95 187.4L55.8 182.55L59.15 181.75L58.55 179.15L55.2 179.95L54.4 176.6L57.75 175.8L58.25 178M50.8,178.3L50.15 178.2L49.65 178.6L49.2 178.7L51.45 188L51.9 187.9L52.5 187.95Q52.7 187.7 53.05 187.6L53.45 187.5L51.2 178.2L50.8 178.3M59.35,182.55L56.85 183.15L57.65 186.5L59.4 186.1L58.75 183.5L58.85 182.9Q59.05 182.65 59.35 182.55M44.15,179.75L43.75 180L43.3 180.1L43.9 182.5L45.7 182.1L45.1 179.7L44.6 179.8L44.15 179.75M47.35,189L46.65 186.15L44.85 186.55L45.55 189.4L46 189.3L46.45 189.35Q46.6 189.15 46.85 189.1L47.35 189M80.15,181.15L81.9 180.7L81.25 178.1L81.35 177.5Q81.5 177.3 81.75 177.25L79.35 177.8L80.15 181.15M66.25,174.6L66.95 177.45L68.7 177.05L68 174.2L66.25 174.6M66.35,178.4L65.3 174L68.6 173.2L69.65 177.6L66.35 178.4M68.95,183.8L69.3 183.85L68.1 182.3L68.5 183.9L68.95 183.8" />
<path style="fill:#122411;fill-opacity:1" d="M10,37.65L10 47.5L10 49.15L10 62.3L10 75.5L10 90.3L10 110L500 110L500 90.3L500 75.5L500 62.3L500 49.15L500 47.5L500 37.65L500 17.85L500 8L10 8L10 17.85L10 37.65M502,112L8 112L8 6L502 6L502 112" />
<path style="fill:#E81A1A;fill-opacity:1" d="M489.3,174.5Q489.9 168.8 488.65 163.2Q487.55 157.8 484.95 153.1L491.55 148.6Q495.05 154.8 496.5 161.65Q498 168.8 497.2 176.05L489.3 174.5M475.95,199.75Q480.1 196.35 483.15 191.8Q486.4 186.95 487.95 181.45L495.85 183Q493.9 190.05 489.9 196.05Q485.95 201.95 480.4 206.4L475.95 199.75M448.6,208.15L459.8 207.5Q465.3 206.35 470.05 203.7L474.6 210.3Q468.4 213.9 461.55 215.35Q454.35 216.9 447.1 216L448.6 208.15M423.3,194.75Q426.75 198.9 431.25 202Q436.15 205.25 441.65 206.85L440.15 214.65Q433.1 212.8 427 208.8Q421.1 204.85 416.6 199.2L423.3 194.75M412.7,193.35Q409.15 187.2 407.7 180.2Q406.15 173.05 407.05 165.85L414.95 167.35Q414.3 173.05 415.55 178.7Q416.75 184.15 419.3 188.95L412.7 193.35M421.05,150.1Q417.8 154.9 416.3 160.4L408.4 158.9Q410.25 151.8 414.35 145.7Q418.35 139.85 423.95 135.45L428.4 142.1Q424.2 145.55 421.05 150.1M444.35,134.35Q439 135.55 434.3 138.1L429.75 131.45Q436 128 442.9 126.55Q450.05 125.05 457.3 125.9L455.75 133.75L444.35 134.35M480.95,147.25Q477.5 143.05 472.9 139.85Q468.15 136.65 462.7 135.1L464.25 127.25Q471.2 129.2 477.35 133.2Q483.2 137.2 487.6 142.7L480.95 147.25M443.8,152.8L441.7 163.75L445.05 164.4L445.75 160.6L448.4 161.1L447.15 167.55L437.3 165.65L437.85 163L439.05 163.25L441.15 152.3L439.95 152.05L440.45 149.4L445.55 150.4L445.05 153.05L443.8 152.8M435.7,153.65L436.15 151.35L432.85 150.7L430.75 161.65L434.05 162.3L434.5 159.95L437.15 160.45L436.45 164L434.8 165.15L429.2 164.1L427.85 162.1L430.3 149.2L432.4 147.85L437.8 148.9L439 150.8L438.35 154.15L435.7 153.65M428.75,171.7L429.25 169.05L434.3 170L433.8 172.65L432.6 172.4L431.8 176.35L435.15 177L435.95 173.05L434.7 172.85L435.2 170.2L440.3 171.15L439.8 173.8L438.6 173.6L436.45 184.5L437.65 184.7L437.15 187.35L432.05 186.4L432.55 183.75L433.8 183.95L434.65 179.6L431.3 178.95L430.45 183.3L431.65 183.55L431.15 186.2L426.1 185.25L426.6 182.6L427.8 182.8L429.95 171.9L428.75 171.7M444.1,178.1L447.45 178.75L446.9 181.4L443.55 180.75L442.6 185.65L445.95 186.3L446.6 182.95L449.25 183.5L448.1 189.5L438.3 187.6L438.8 184.95L439.95 185.15L442.1 174.25L440.95 174.05L441.45 171.4L451.25 173.3L450.3 178.15L447.65 177.6L448.1 175.4L444.75 174.75L444.1 178.1M478.45,159.5L474.35 162.9L476.75 170.55L478.05 170.8L477.5 173.45L472.2 172.4L472.75 169.75L473.95 170L472.25 164.6L468.9 167.35L468.6 168.95L469.85 169.2L469.3 171.85L464.25 170.85L464.8 168.2L466 168.45L468.1 157.5L466.9 157.25L467.4 154.6L472.45 155.6L471.95 158.25L470.7 158L469.6 163.7L475.25 158.9L473.9 158.6L474.4 155.95L480.1 157.05L479.6 159.7L478.45 159.5M459.3,153.05L464.75 154.1L465.95 156L465.3 159.35L462.65 158.85L463.1 156.55L459.75 155.9L457.65 166.85L461 167.5L461.45 165.15L464.1 165.65L463.4 169.2L461.75 170.4L456.15 169.3L454.8 167.35L457.25 154.45L459.3 153.05M456.05,155.15L454.75 154.9L452.65 165.85L453.95 166.1L453.4 168.75L448.3 167.8L448.85 165.15L450 165.35L452.1 154.4L450.95 154.2L451.45 151.55L456.55 152.5L456.05 155.15M463.65,178.45L464.15 175.8L474.05 177.7L473.1 182.55L470.45 182L470.9 179.8L467.5 179.15L466.85 182.5L470.25 183.15L469.7 185.8L466.3 185.15L465.35 190.05L468.75 190.7L469.4 187.35L472.05 187.9L470.9 193.9L461 192L461.5 189.35L462.7 189.55L464.85 178.65L463.65 178.45M462,176.7L460.65 183.7L459 184.9L458.1 184.7L459.3 188.9L460.4 189.1L459.9 191.75L457.2 191.25L455.25 184.15L454.35 184L453.6 187.8L454.85 188.05L454.35 190.7L449.25 189.7L449.75 187.05L450.95 187.3L453.1 176.4L451.9 176.15L452.4 173.5L460.9 175.15L462 176.7M455.75,176.9L454.9 181.3L458.25 181.95L459.1 177.55L455.75 176.9M76.05,136.6Q71.1 134.2 65.65 133.25Q60 132.25 54.4 133.1L52.55 125.3Q59.7 124.25 66.9 125.3Q73.95 126.55 80.25 129.75L76.05 136.6M22.85,143.4Q27.1 137.7 32.8 133.45Q38.7 129.2 45.7 126.95L47.55 134.75Q42.1 136.55 37.4 140Q33 143.25 29.75 147.55L22.85 143.4M14.75,177.15Q13.5 169.95 14.75 162.75Q15.95 155.7 19.2 149.35L26.05 153.6Q23.6 158.5 22.65 163.95Q21.7 169.65 22.5 175.3L14.75 177.15M32.9,206.8Q27.1 202.65 22.9 196.95Q18.55 191 16.4 184L24.15 182.15Q26 187.6 29.4 192.25Q32.75 196.7 37.15 200.05L32.9 206.8M43.1,203.7Q48 206.05 53.4 207Q59.15 207.95 64.85 207.15L66.7 214.85Q59.5 216.1 52.3 214.9Q45.25 213.8 38.85 210.5L43.1 203.7M71.7,205.45Q77.05 203.6 81.65 200.25Q86.15 196.95 89.4 192.5L96.3 196.7Q92.1 202.5 86.4 206.65Q80.5 211 73.55 213.2L71.7 205.45M104.3,163Q105.45 170.2 104.3 177.35Q103.1 184.35 99.95 190.75L93.1 186.5Q95.5 181.65 96.35 176.25Q97.4 170.5 96.5 164.85L104.3 163M94.85,158Q93.1 152.55 89.6 147.95Q86.35 143.5 82.05 140.25L86.2 133.45Q91.95 137.6 96.1 143.35Q100.4 149.15 102.65 156.15L94.85 158M79.3,145.95L79.9 148.55L78.8 148.8L76.5 153.65L81.8 159.55L83.05 159.25L83.7 161.9L78.45 163.15L77.8 160.5L79 160.2L75.3 156L73.35 159.95L73.7 161.5L74.95 161.2L75.6 163.85L70.55 165.05L69.9 162.4L71.15 162.1L68.55 151.25L67.3 151.55L66.7 148.95L71.75 147.75L72.35 150.35L71.1 150.65L72.45 156.3L75.6 149.55L74.25 149.85L73.65 147.25L79.3 145.95M32.05,157.2L37.4 155.95L39.25 157.2L40.05 160.5L37.45 161.1L36.9 158.8L33.6 159.6L36.2 170.45L39.5 169.65L38.95 167.3L41.55 166.7L42.4 170.25L41.4 172L35.85 173.35L33.8 172.1L30.75 159.35L32.05 157.2M38.55,180.4L37.9 177.8L42.95 176.6L43.6 179.2L42.35 179.5L43.25 183.4L46.55 182.6L45.65 178.7L44.45 179L43.8 176.4L48.85 175.2L49.5 177.8L48.3 178.1L50.85 188.9L52.05 188.6L52.7 191.25L47.65 192.45L47 189.8L48.2 189.5L47.2 185.2L43.9 186L44.9 190.3L46.15 190L46.8 192.65L41.75 193.85L41.1 191.2L42.3 190.9L39.75 180.1L38.55 180.4M66.75,154.1L64.1 154.75L63.55 152.45L60.25 153.2L62.85 164.05L66.15 163.3L65.6 160.95L68.25 160.3L69.1 163.85L68.1 165.65L62.55 166.95L60.5 165.7L57.45 152.95L58.7 150.85L64.1 149.55L65.95 150.8L66.75 154.1M69.25,170.3L70.9 171.3L72.55 178.2L71.55 179.95L70.65 180.2L73.5 183.45L74.6 183.2L75.25 185.85L72.55 186.5L67.85 180.85L66.95 181.05L67.85 184.8L69.1 184.5L69.75 187.15L64.65 188.4L64 185.75L65.25 185.45L62.7 174.65L61.45 174.95L60.8 172.35L69.25 170.3M72.5,169.55L82.25 167.2L83.4 172L80.8 172.65L80.3 170.45L76.95 171.25L77.75 174.6L81.1 173.8L81.7 176.4L78.35 177.2L79.5 182.05L82.85 181.25L82.05 177.95L84.65 177.3L86.1 183.25L76.35 185.6L75.7 182.95L76.85 182.65L74.3 171.85L73.15 172.15L72.5 169.55M56.55,154.1L55.3 154.4L57.9 165.25L59.15 164.95L59.8 167.6L54.75 168.8L54.1 166.15L55.3 165.9L52.7 155.05L51.5 155.3L50.9 152.7L55.95 151.5L56.55 154.1M40.6,157.9L40 155.3L45.1 154.1L45.7 156.7L44.45 157L47.05 167.85L50.35 167.05L49.45 163.3L52.1 162.7L53.65 169.1L43.85 171.4L43.2 168.75L44.45 168.45L41.85 157.6L40.6 157.9M57.75,175.8L54.4 176.6L55.2 179.95L58.55 179.15L59.15 181.75L55.8 182.55L56.95 187.4L60.3 186.6L59.5 183.3L62.1 182.7L63.55 188.65L53.85 190.95L53.2 188.3L54.35 188.05L51.8 177.25L50.65 177.5L50 174.9L59.7 172.6L60.85 177.4L58.25 178L57.75 175.8M69.65,177.6L68.6 173.2L65.3 174L66.35 178.4L69.65 177.6" />
<path style="fill:#F8E50F;fill-opacity:1" d="M483.05,149.95L480.95 147.25L487.6 142.7Q489.8 145.55 491.55 148.6L484.95 153.1L483.05 149.95M488.75,178.05L489.3 174.5L497.2 176.05L496.65 179.55L495.85 183L487.95 181.45L488.75 178.05M470.05,203.7L473 201.85L475.95 199.75L480.4 206.4Q477.55 208.6 474.6 210.3L470.05 203.7M441.65,206.85L445 207.6L448.6 208.15L447.1 216L443.5 215.45L440.15 214.65L441.65 206.85M416.6,199.2Q414.4 196.45 412.7 193.35L419.3 188.95L421.2 191.85L423.3 194.75L416.6 199.2M407.05,165.85L407.6 162.35L408.4 158.9L416.3 160.4Q415.8 162.1 415.45 163.85L414.95 167.35L407.05 165.85M423.95,135.45Q426.65 133.25 429.75 131.45L434.3 138.1Q432.65 139 431.25 139.95Q429.75 140.95 428.4 142.1L423.95 135.45M457.3,125.9L460.7 126.4L464.25 127.25L462.7 135.1L459.2 134.25L455.75 133.75L457.3 125.9M471.2,142.4Q476.8 146.15 480.5 151.75Q484.3 157.25 485.7 163.85Q487.15 170.55 485.8 177.45Q484.5 184.3 480.6 190.05Q476.9 195.6 471.3 199.4Q465.8 203.1 459.2 204.55Q452.45 205.95 445.6 204.6Q438.75 203.3 433 199.45Q427.45 195.7 423.65 190.2Q419.95 184.6 418.5 178.05Q417.15 171.3 418.45 164.45Q419.8 157.55 423.6 151.85Q427.35 146.25 432.85 142.55Q438.45 138.75 445 137.3Q451.8 135.9 458.65 137.2Q465.5 138.55 471.2 142.4M431.9,147.2L429.95 148.55L429.55 149.05L427.1 161.95Q427 162.3 427.2 162.6L428.55 164.55L429.05 164.85L434.65 165.9L435.2 165.85L436.7 164.85L436.55 165.5L436.65 166.1L437.15 166.4L447 168.3L447.6 168.2L447.65 168.25L448.15 168.55L453.25 169.5L453.8 169.4L454.1 168.9L454.3 168L455.5 169.75Q455.65 170 456 170.05L461.6 171.15L462.15 171.05L463.6 170.05L463.45 170.7L463.6 171.3Q463.75 171.55 464.1 171.6L469.15 172.6L469.75 172.5L470.1 172L470.65 169.35L470.5 168.75L470 168.4L469.55 168.3L469.6 167.8L471.85 165.95L472.85 168.95L472.3 169.1L471.95 169.6L471.4 172.25L471.55 172.85Q471.75 173.1 472.05 173.15L477.35 174.2L478 174.1L478.35 173.6L478.9 170.95L478.75 170.35Q478.6 170.05 478.2 170L477.4 169.85L475.25 163.15L478.65 160.35L479.45 160.5L480.05 160.45L480.35 159.85L480.85 157.2L480.75 156.65Q480.55 156.4 480.25 156.3L474.55 155.2L473.95 155.3L473.6 155.8L473.1 158.45L473.25 159.1L473.55 159.35L470.8 161.6L471.35 158.95L471.8 159.05L472.4 158.95L472.75 158.4L473.25 155.75L473.1 155.15L472.6 154.85L467.55 153.85L466.95 153.95L466.6 154.45L466.45 155.25L465.35 153.65L464.9 153.35L459.45 152.3L458.85 152.4L457.05 153.55L457.25 152.65L457.15 152.05Q457 151.85 456.7 151.75L451.6 150.8L451 150.9L450.65 151.4L450.15 154.05L450.3 154.7L450.8 155L451.2 155.05L449.4 164.4L449 164.35L448.6 164.35L449.2 161.25L449.05 160.65L448.55 160.3L445.9 159.8L445.25 159.95L444.95 160.45L444.4 163.45L442.65 163.1L444.45 153.75L444.9 153.85L445.5 153.75L445.8 153.2L446.3 150.55L446.2 149.95Q446 149.7 445.7 149.65L440.6 148.65L440 148.75L439.7 149.25L439.55 150.05L438.4 148.45Q438.25 148.2 437.95 148.15L432.55 147.1L431.9 147.2M439.8,152.85L440.25 152.95L438.45 162.3L438 162.2L437.65 162.25L438 160.6L437.85 160.05Q437.6 159.75 437.25 159.7L434.6 159.2L434.05 159.3L433.75 159.8L433.45 161.35L431.65 161L433.45 151.65L435.25 152L434.95 153.5L435.05 154.05L435.55 154.45L438.2 154.95L438.85 154.8L439.2 154.3L439.5 152.7L439.8 152.85M429.05,172.55L427.2 181.9L426.75 181.85L426.2 181.9L425.8 182.4L425.3 185.05L425.45 185.7L425.95 186.1L431 187.05L431.5 186.95L431.9 187.25L437 188.2L437.6 188.05L438.15 188.45L447.95 190.35L448.6 190.2L449.1 190.55L454.2 191.55L454.8 191.4L455.15 190.85L455.65 188.35L456.45 191.5L456.7 191.85L457.05 192.1L459.75 192.6L460.35 192.45L460.4 192.4L460.4 192.45L460.85 192.85L470.75 194.75L471.35 194.6L471.6 194.05L472.75 188.05L472.7 187.45L472.2 187.1L469.75 186.6L470.15 186.55L470.4 185.95L470.95 183.3L470.95 182.95L472.95 183.35L473.55 183.2L473.8 182.7L474.75 177.85L474.7 177.2Q474.5 176.95 474.2 176.9L464.3 175L463.75 175.05Q463.45 175.25 463.4 175.6L462.9 178.25Q462.8 178.55 463.05 178.85L463.5 179.25L463.95 179.3L462.1 188.65L461.65 188.6L461.15 188.65L461.1 188.65Q460.9 188.4 460.55 188.35L459.9 188.25L459.15 185.65L459.4 185.5L461.15 184.4L461.4 183.85L462.75 176.85L462.75 176.6L462.65 176.25L461.5 174.65Q461.35 174.4 461.05 174.35L452.55 172.7L451.95 172.8Q451.75 172.55 451.4 172.5L441.6 170.6L440.95 170.65Q440.8 170.45 440.45 170.35L435.35 169.4L434.9 169.4L434.45 169.2L429.4 168.25L428.8 168.3Q428.5 168.5 428.45 168.85L427.95 171.5Q427.85 171.8 428.1 172.1L428.6 172.5L429.05 172.55M441.25,174.9L439.4 184.25L438.95 184.2L438.35 184.25L437.8 183.95L437.35 183.9L439.2 174.55L439.65 174.6L440.25 174.45Q440.45 174.75 440.8 174.85L441.25 174.9M445.45,175.75L447.2 176.1L446.9 177.5L446.9 177.85L445.1 177.5L445.45 175.75M443.6,185.1L444.25 181.7L446.75 182.15L446.15 182.3Q445.95 182.5 445.85 182.85L445.35 185.45L443.6 185.1M434.55,176.1L432.75 175.75L433.25 173.35L433.65 173.45L434.1 173.4L434.55 173.65L435.05 173.7L434.55 176.1M431.4,182.7L431.95 179.85L433.75 180.2L433.2 183.05L432.7 183L432.25 183.05L431.8 182.8L431.4 182.7M466.75,158.05L467.2 158.15L465.4 167.5L464.95 167.4L464.55 167.45L464.9 165.8L464.8 165.25L464.2 164.9L461.55 164.4L461 164.55L460.7 165L460.4 166.55L458.6 166.2L460.4 156.85L462.2 157.2L461.9 158.7L462 159.3L462.5 159.65L465.15 160.15L465.8 160L466.1 159.5L466.4 157.9L466.75 158.05M456.2,155.95L454.35 165.5L454.1 165.3L453.65 165.25L455.45 155.9L455.9 155.95L456.2 155.95M458.15,178.2L457.55 181.1L455.8 180.75L456.4 177.85L458.15 178.2M451.1,178.3L451.4 176.8L451.75 176.95L452.2 177.05L450.35 186.4L449.9 186.3L449.55 186.35L450.05 183.65L449.95 183.05L449.4 182.7L446.95 182.2L447.4 182.15L447.7 181.55L448.25 178.9L448.2 178.55L450.15 178.95L450.8 178.8L451.1 178.3M454.55,187.2L454.9 185.6L455.4 187.45L455 187.3L454.55 187.2M469.65,182.25L467.85 181.9L468.2 180.15L469.95 180.45L469.65 181.85L469.65 182.25M468.9,186.7L468.6 187.2L468.1 189.8L466.35 189.5L467 186.1L469.55 186.55L468.9 186.7M45.7,126.95L49 126L52.55 125.3L54.4 133.1L50.85 133.8L47.55 134.75L45.7 126.95M19.2,149.35Q20.75 146.25 22.85 143.4L29.75 147.55Q28.65 149 27.7 150.55L26.05 153.6L19.2 149.35M22.5,175.3L23.2 178.8L24.15 182.15L16.4 184L15.45 180.65L14.75 177.15L22.5 175.3M38.85,210.5Q35.7 208.95 32.9 206.8L37.15 200.05L39.95 201.95L43.1 203.7L38.85 210.5M64.85,207.15L68.2 206.45L71.7 205.45L73.55 213.2L70.1 214.2L66.7 214.85L64.85 207.15M89.4,192.5L91.3 189.65L93.1 186.5L99.95 190.75L96.3 196.7L89.4 192.5M102.65,156.15L103.65 159.55L104.3 163L96.5 164.85L95.85 161.4L94.85 158L102.65 156.15M82.05,140.25Q80.65 139.2 79.05 138.25L76.05 136.6L80.25 129.75L86.2 133.45L82.05 140.25M72.1,147.05L71.55 147L66.5 148.2Q66.2 148.25 66.05 148.5Q65.85 148.8 65.95 149.1L66.15 149.9L64.45 148.9L63.9 148.8L58.5 150.1L58 150.45L56.9 152.25L56.7 151.35L56.3 150.85L55.75 150.75L50.7 151.95L50.25 152.3Q50.05 152.6 50.15 152.9L50.75 155.5L51.15 156.05L51.7 156.15L52.15 156.05L54.35 165.25L53.9 165.35Q53.7 165.4 53.6 165.55L52.85 162.5L52.55 162L51.9 161.95L49.25 162.55L48.8 162.9L48.7 163.5L49.4 166.45L47.65 166.85L45.45 157.65L45.9 157.55L46.35 157.2L46.4 156.55L45.8 153.95L45.45 153.45L44.9 153.35L39.8 154.55L39.35 154.9L39.3 155.5L39.5 156.3L37.8 155.25L37.2 155.2L31.85 156.45Q31.45 156.55 31.3 156.8L30.1 158.9Q29.85 159.15 29.95 159.5L33 172.25L33.45 172.8L35.4 173.95L36 174.1L41.55 172.75L42 172.4L43 170.95L43.15 171.6L43.45 172.05L44 172.15L53.8 169.85L54.3 169.45L54.35 169.45L54.9 169.55L59.95 168.35L60.4 168L60.55 167.45L60.3 166.55L62.1 167.6L62.7 167.7L68.25 166.4L68.7 166L69.65 164.55L69.8 165.2L70.15 165.65L70.7 165.8L75.75 164.6L76.2 164.2L76.35 163.65L75.7 161L75.3 160.5L74.75 160.4L74.3 160.5L74.2 160.05L75.5 157.4L77.55 159.7L77.1 160.1L77 160.7L77.65 163.35L78 163.8L78.6 163.9L83.85 162.65L84.4 162.25L84.55 161.7L83.9 159.05L83.5 158.55L82.85 158.45L82.05 158.65L77.4 153.45L79.35 149.55L80.1 149.4L80.6 149L80.65 148.35L80.05 145.75L79.7 145.25L79.1 145.2L73.45 146.5Q73.2 146.6 73 146.85Q72.8 147.15 72.9 147.45L73.5 150.05L73.9 150.6L74.3 150.7L72.75 153.9L72.1 151.3L72.55 151.2L73 150.8L73.1 150.15L72.5 147.55L72.1 147.05M77.5,140.9Q83.2 144.35 87.2 149.8Q91.25 155.35 92.9 162.15Q94.5 168.95 93.4 175.75Q92.25 182.35 88.8 188.1Q85.3 193.75 79.9 197.8Q74.3 201.8 67.5 203.45Q60.7 205.1 53.9 204Q47.35 202.85 41.55 199.4Q35.85 195.85 31.85 190.45Q27.8 184.85 26.2 178.05Q24.55 171.25 25.65 164.5Q26.8 157.85 30.25 152.2Q33.85 146.45 39.2 142.45Q44.75 138.35 51.55 136.7L65.2 136.25Q71.8 137.35 77.5 140.9M36.35,159.85L36.7 161.3Q36.8 161.65 37.05 161.8L37.65 161.85L40.25 161.25L40.8 160.9L40.9 160.3L40.55 158.75L40.8 158.75L41.25 158.65L43.45 167.85L43 167.95L42.8 168.15L42.4 166.5L42.05 166.1L41.35 166L38.75 166.6L38.3 167L38.2 167.5L38.55 169.05L36.75 169.45L34.55 160.25L36.35 159.85M37.2,177.35L37.1 178L37.75 180.6L38.1 181.1L38.7 181.2L39.15 181.1L41.4 190.4L40.95 190.5Q40.6 190.6 40.45 190.85L40.3 191.4L40.95 194.05L41.35 194.6L41.95 194.65L47 193.45L47.35 193.15L47.85 193.25L52.9 192.05L53.4 191.7L54.05 191.75L63.75 189.45Q64.1 189.35 64.3 189.1L64.85 189.2L69.95 187.95L70.4 187.65L70.5 187L69.9 184.5L71.95 187.05L72.3 187.25L72.75 187.3L75.45 186.65L75.9 186.35L75.9 186.25L75.95 186.3L76.55 186.4L86.3 184.05L86.8 183.7L86.85 183.1L85.4 177.15L85.1 176.6L84.5 176.55L82.05 177.15L82.4 176.85L82.4 176.2L81.8 173.6L81.65 173.25L83.6 172.8L84.1 172.4L84.15 171.85L83 167.05L82.65 166.45L82.05 166.4L72.3 168.75Q72 168.8 71.8 169.05L71.7 169.7L72.35 172.3L72.7 172.8L73.3 172.95L73.75 172.85L76 182.15L75.55 182.25Q75.25 182.3 75.05 182.55L75 182.6L74.45 182.5L73.8 182.65L72.05 180.6L72.2 180.35L73.3 178.65L73.3 178L71.65 171.1L71.55 170.85L71.35 170.55L69.6 169.6L69.05 169.5L60.6 171.55Q60.3 171.6 60.15 171.85L59.5 171.8L49.8 174.1Q49.45 174.2 49.25 174.45L48.65 174.4L43.6 175.6Q43.35 175.65 43.2 175.8L42.75 175.8L37.7 177L37.2 177.35M67.95,152.3L70.15 161.5L69.7 161.6L69.45 161.75L69.05 160.1L68.75 159.7L68.05 159.6L65.4 160.25L65 160.6L64.9 161.1L65.25 162.65L63.45 163.1L61.25 153.9L63.05 153.45L63.4 154.9L63.75 155.4L64.3 155.5L66.95 154.85L67.5 154.5L67.55 153.9L67.2 152.35L67.5 152.4L67.95 152.3M79.65,171.4L80 172.8L80.15 173.15L78.35 173.6L77.9 171.85L79.65 171.4M57.05,154.8L59.3 164.2L58.95 164.15L58.55 164.25L56.35 155.05L56.75 154.95L57.05 154.8M57.5,178.2L57.65 178.55L55.85 178.95L55.4 177.2L57.15 176.8L57.5 178.2M59.1,178.65L61.05 178.2L61.6 177.8L61.65 177.2L61.3 175.7L61.6 175.75L62.05 175.6L64.3 184.9L63.85 185.05L63.55 185.2L62.9 182.5L62.6 182L61.95 181.95L59.5 182.55L59.85 182.25L59.9 181.6L59.3 179L59.1 178.65M51.2,178.2L53.45 187.5L53.05 187.6Q52.7 187.7 52.5 187.95L51.9 187.9L51.45 188L49.2 178.7L49.65 178.6L50.15 178.2L50.8 178.3L51.2 178.2M58.85,182.9L58.75 183.5L59.4 186.1L57.65 186.5L56.85 183.15L59.35 182.55Q59.05 182.65 58.85 182.9M44.6,179.8L45.1 179.7L45.7 182.1L43.9 182.5L43.3 180.1L43.75 180L44.15 179.75L44.6 179.8M46.85,189.1Q46.6 189.15 46.45 189.35L46 189.3L45.55 189.4L44.85 186.55L46.65 186.15L47.35 189L46.85 189.1M79.35,177.8L81.75 177.25Q81.5 177.3 81.35 177.5L81.25 178.1L81.9 180.7L80.15 181.15L79.35 177.8M68,174.2L68.7 177.05L66.95 177.45L66.25 174.6L68 174.2M68.5,183.9L68.1 182.3L69.3 183.85L68.95 183.8L68.5 183.9" />
<path style="fill:#5F895A;fill-opacity:1" d="M10,47.5L10 37.65L500 37.65L500 47.5L10 47.5" />
<path style="fill:#467340;fill-opacity:1" d="M500,47.5L500 49.15L10 49.15L10 47.5L500 47.5" />
<path style="fill:#54864C;fill-opacity:1" d="M10,17.85L10 8L500 8L500 17.85L10 17.85" />
<path style="fill:#53834D;fill-opacity:1" d="M10,37.65L10 17.85L500 17.85L500 37.65L10 37.65" />
<path style="fill:#1B4615;fill-opacity:1" d="M500,75.5L500 90.3L10 90.3L10 75.5L500 75.5" />
<path style="fill:#265520;fill-opacity:1" d="M10,75.5L10 62.3L500 62.3L500 75.5L10 75.5" />
<path style="fill:#32622B;fill-opacity:1" d="M500,49.15L500 62.3L10 62.3L10 49.15L500 49.15" />
<path style="fill:#163C10;fill-opacity:1" d="M500,90.3L500 110L10 110L10 90.3L500 90.3" />
</g>
</svg>
