<?xml version="1.0" encoding="utf-8"?>
<svg version="1.1" id="Layer_1"
xmlns="http://www.w3.org/2000/svg"
xmlns:xlink="http://www.w3.org/1999/xlink"
xmlns:author="http://www.sothink.com"
width="280px" height="45px"
xml:space="preserve">
<g id="1293" transform="matrix(1, 0, 0, 1, -114.15, -150.75)">
<path style="fill:#FF0000;fill-opacity:1" d="M356.1,151.85L381.55 151.85Q381.95 151.85 382.25 152.15L382.55 152.85L382.55 166.2L382.25 166.9Q381.95 167.2 381.55 167.2L375.65 167.2Q375.25 167.2 374.95 166.9Q374.65 166.6 374.65 166.2L374.65 159.95L372.85 159.95L372.85 183.1L374.65 183.1Q375.05 183.1 375.35 183.4L375.65 184.1L375.65 190.2L375.35 190.9L374.65 191.2L362.95 191.2Q362.55 191.2 362.25 190.9Q361.95 190.6 361.95 190.2L361.95 184.1Q361.95 183.7 362.25 183.4Q362.55 183.1 362.95 183.1L364.75 183.1L364.75 159.95L363 159.95L363 166.2L362.7 166.9L362 167.2L356.1 167.2L355.4 166.9Q355.1 166.6 355.1 166.2L355.1 152.85Q355.1 152.45 355.4 152.15Q355.7 151.85 356.1 151.85M354.5,158.95L354.2 159.65L353.5 159.95L351.7 159.95L351.7 183.1L353.5 183.1Q353.9 183.1 354.2 183.4L354.5 184.1L354.5 190.2L354.2 190.9L353.5 191.2L341.8 191.2Q341.4 191.2 341.1 190.9Q340.8 190.6 340.8 190.2L340.8 184.1Q340.8 183.7 341.1 183.4Q341.4 183.1 341.8 183.1L343.55 183.1L343.55 159.95L341.8 159.95Q341.4 159.95 341.1 159.65Q340.8 159.35 340.8 158.95L340.8 152.85Q340.8 152.45 341.1 152.15Q341.4 151.85 341.8 151.85L353.5 151.85Q353.9 151.85 354.2 152.15L354.5 152.85L354.5 158.95M353.5,152.85L341.8 152.85L341.8 158.95L344.55 158.95L344.55 184.1L341.8 184.1L341.8 190.2L353.5 190.2L353.5 184.1L350.7 184.1L350.7 158.95L353.5 158.95L353.5 152.85M362,166.2L362 158.95L365.75 158.95L365.75 184.1L362.95 184.1L362.95 190.2L374.65 190.2L374.65 184.1L371.85 184.1L371.85 158.95L375.65 158.95L375.65 166.2L381.55 166.2L381.55 152.85L356.1 152.85L356.1 166.2L362 166.2M336.7,152.15L339.9 155.15L340.15 155.45L340.2 155.85L340.2 186.75L340.15 187.15L339.9 187.5L336.3 190.95L335.6 191.2L316.55 191.2Q316.15 191.2 315.85 190.9Q315.55 190.6 315.55 190.2L315.55 184.1Q315.55 183.7 315.85 183.4Q316.15 183.1 316.55 183.1L318.3 183.1L318.3 159.95L316.55 159.95Q316.15 159.95 315.85 159.65Q315.55 159.35 315.55 158.95L315.55 152.85Q315.55 152.45 315.85 152.15Q316.15 151.85 316.55 151.85L336 151.85Q336.4 151.85 336.7 152.15M336,152.85L316.55 152.85L316.55 158.95L319.3 158.95L319.3 184.1L316.55 184.1L316.55 190.2L335.6 190.2L339.2 186.75L339.2 155.85L336 152.85M333.1,158.95L333.1 184.1L325.45 184.1L325.45 158.95L333.1 158.95M326.45,159.95L326.45 183.1L332.1 183.1L332.1 159.95L326.45 159.95M384.75,152.85L386.5 181.7L390.45 181.7L392.2 152.85L384.75 152.85M392.2,151.85L392.75 152L393.1 152.4L393.2 152.9L391.45 181.75L391.15 182.45L390.45 182.7L386.5 182.7L385.85 182.45L385.5 181.75L383.75 152.9Q383.75 152.6 383.9 152.4L384.25 152Q384.45 151.85 384.75 151.85L392.2 151.85M384.45,184.1Q384.45 183.7 384.75 183.4Q385.05 183.1 385.45 183.1L391.55 183.1Q391.95 183.1 392.25 183.4L392.55 184.1L392.55 190.2L392.25 190.9L391.55 191.2L385.45 191.2Q385.05 191.2 384.75 190.9Q384.45 190.6 384.45 190.2L384.45 184.1M385.45,184.1L385.45 190.2L391.55 190.2L391.55 184.1L385.45 184.1M192.7,159.95L192.7 183.1L198.35 183.1L198.35 159.95L192.7 159.95M202.3,152.15L206.2 156.15L206.45 156.85L206.45 186.15L206.15 186.85L202.15 190.9L201.45 191.2L189.35 191.2L188.95 191.15L188.65 190.9L184.9 186.85Q184.6 186.55 184.6 186.15L184.6 156.85Q184.6 156.45 184.9 156.15L188.85 152.15Q189.15 151.85 189.55 151.85L201.55 151.85Q202 151.85 202.3 152.15M184,156.85L184 186.15L183.7 186.85L179.7 190.9L179 191.2L166.9 191.2L166.5 191.15L166.2 190.9L162.45 186.85Q162.15 186.55 162.15 186.15L162.15 156.85Q162.15 156.45 162.45 156.15L166.4 152.15Q166.7 151.85 167.1 151.85L179.1 151.85Q179.55 151.85 179.85 152.15L183.75 156.15L184 156.85M185.6,156.85L185.6 186.15L189.35 190.2L201.45 190.2L205.45 186.15L205.45 156.85L201.55 152.85L189.55 152.85L185.6 156.85M199.35,158.95L199.35 184.1L191.7 184.1L191.7 158.95L199.35 158.95M163.15,156.85L163.15 186.15L166.9 190.2L179 190.2L183 186.15L183 156.85L179.1 152.85L167.1 152.85L163.15 156.85M170.25,159.95L170.25 183.1L175.9 183.1L175.9 159.95L170.25 159.95M176.9,158.95L176.9 184.1L169.25 184.1L169.25 158.95L176.9 158.95M224,152.85L212 152.85L208.05 156.85L208.05 186.15L211.8 190.2L223.9 190.2L227.9 186.15L227.9 156.85L224 152.85M241.05,156L244.85 152.15Q245.15 151.85 245.55 151.85L258 151.85Q258.4 151.85 258.7 152.15L262.3 155.8L262.6 156.5L262.6 164.2L262.3 164.9Q262 165.2 261.6 165.2L255.5 165.2Q255.1 165.2 254.8 164.9Q254.5 164.6 254.5 164.2L254.5 159.95L248.85 159.95L248.85 183.1L254.5 183.1L254.5 178.75Q254.5 178.35 254.8 178.05Q255.1 177.75 255.5 177.75L261.6 177.75Q262 177.75 262.3 178.05L262.6 178.75L262.6 186.9L262.35 187.6L259.15 190.9Q258.8 191.2 258.4 191.2L245.55 191.2L244.85 190.95L241.05 187.25Q240.75 186.9 240.75 186.5L240.75 156.7Q240.75 156.3 241.05 156M224.75,152.15L228.65 156.15L228.9 156.85L228.9 186.15L228.6 186.85L224.6 190.9L223.9 191.2L211.8 191.2L211.4 191.15L211.1 190.9L207.35 186.85Q207.05 186.55 207.05 186.15L207.05 156.85Q207.05 156.45 207.35 156.15L211.3 152.15Q211.6 151.85 212 151.85L224 151.85Q224.45 151.85 224.75 152.15M215.15,159.95L215.15 183.1L220.8 183.1L220.8 159.95L215.15 159.95M221.8,158.95L221.8 184.1L214.15 184.1L214.15 158.95L221.8 158.95M241.75,186.5L245.55 190.2L258.4 190.2L261.6 186.9L261.6 178.75L255.5 178.75L255.5 184.1L247.85 184.1L247.85 158.95L255.5 158.95L255.5 164.2L261.6 164.2L261.6 156.5L258 152.85L245.55 152.85L241.75 156.7L241.75 186.5M274.1,159.95L274.1 168.2L279.75 168.2L279.75 159.95L274.1 159.95M264.2,158.95L266.95 158.95L266.95 184.1L264.2 184.1L264.2 190.2L275.9 190.2L275.9 184.1L273.1 184.1L273.1 175.3L275.2 175.3L282.5 190.2L288.7 190.2L288.7 184.1L286.1 184.1L281.65 175.3L283.65 175.3L286.85 171.95L286.85 155.9L283.65 152.85L264.2 152.85L264.2 158.95M264.2,159.95Q263.8 159.95 263.5 159.65Q263.2 159.35 263.2 158.95L263.2 152.85Q263.2 152.45 263.5 152.15Q263.8 151.85 264.2 151.85L283.65 151.85Q284.05 151.85 284.35 152.15L287.55 155.2L287.8 155.5L287.85 155.9L287.85 171.95L287.6 172.65L284.4 176L284.05 176.25L283.65 176.3L283.3 176.3L286.75 183.1L288.7 183.1Q289.1 183.1 289.4 183.4L289.7 184.1L289.7 190.2L289.4 190.9L288.7 191.2L282.5 191.2L282 191.05L281.6 190.65L274.6 176.3L274.1 176.3L274.1 183.1L275.9 183.1Q276.3 183.1 276.6 183.4L276.9 184.1L276.9 190.2L276.6 190.9L275.9 191.2L264.2 191.2Q263.8 191.2 263.5 190.9Q263.2 190.6 263.2 190.2L263.2 184.1Q263.2 183.7 263.5 183.4Q263.8 183.1 264.2 183.1L265.95 183.1L265.95 159.95L264.2 159.95M273.1,158.95L280.75 158.95L280.75 169.2L273.1 169.2L273.1 158.95M314.95,152.85L314.95 164.05L314.65 164.75L313.95 165.05L307.85 165.05Q307.45 165.05 307.15 164.75Q306.85 164.45 306.85 164.05L306.85 159.95L301.2 159.95L301.2 165.6L307.85 165.6L308.55 165.9L308.85 166.6L308.85 172.75L308.55 173.45L307.85 173.75L301.2 173.75L301.2 183.1L306.85 183.1L306.85 176.35Q306.85 175.95 307.15 175.65Q307.45 175.35 307.85 175.35L313.95 175.35Q314.35 175.35 314.65 175.65L314.95 176.35L314.95 190.2L314.65 190.9L313.95 191.2L291.3 191.2L290.6 190.9Q290.3 190.6 290.3 190.2L290.3 184.1Q290.3 183.7 290.6 183.4Q290.9 183.1 291.3 183.1L293.05 183.1L293.05 159.95L291.3 159.95L290.6 159.65Q290.3 159.35 290.3 158.95L290.3 152.85Q290.3 152.45 290.6 152.15Q290.9 151.85 291.3 151.85L313.95 151.85Q314.35 151.85 314.65 152.15L314.95 152.85M307.85,166.6L300.2 166.6L300.2 158.95L307.85 158.95L307.85 164.05L313.95 164.05L313.95 152.85L291.3 152.85L291.3 158.95L294.05 158.95L294.05 184.1L291.3 184.1L291.3 190.2L313.95 190.2L313.95 176.35L307.85 176.35L307.85 184.1L300.2 184.1L300.2 172.75L307.85 172.75L307.85 166.6M115.15,157.6L115.15 170.4L118.55 174L128.9 174L128.9 182.95L121.3 182.95L121.3 178.25L115.15 178.25L115.15 185L119.1 188.95L121.8 188.95L121.8 193.85L128.05 193.85L128.05 188.95L130.55 188.95L135 184.3L135 171.5L131.5 167.95L121.3 167.95L121.3 160.4L128.9 160.4L128.9 164.75L135 164.75L135 157.6L131.65 154.15L128.05 154.15L128.05 151.75L121.8 151.75L121.8 154.15L118.45 154.15L115.15 157.6M121.1,151.05Q121.4 150.75 121.8 150.75L128.05 150.75Q128.45 150.75 128.75 151.05L129.05 151.75L129.05 153.15L131.65 153.15Q132.05 153.15 132.4 153.45L135.75 156.9L136 157.6L136 164.75L135.7 165.45Q135.4 165.75 135 165.75L128.9 165.75Q128.5 165.75 128.2 165.45Q127.9 165.15 127.9 164.75L127.9 161.4L122.3 161.4L122.3 166.95L131.5 166.95Q131.9 166.95 132.2 167.25L135.7 170.8L136 171.5L136 184.3L135.75 185L131.3 189.65L130.95 189.9L130.55 189.95L129.05 189.95L129.05 193.85L128.75 194.55L128.05 194.85L121.8 194.85L121.1 194.55Q120.8 194.25 120.8 193.85L120.8 189.95L119.1 189.95L118.4 189.65L114.45 185.7Q114.15 185.4 114.15 185L114.15 178.25Q114.15 177.85 114.45 177.55Q114.75 177.25 115.15 177.25L121.3 177.25Q121.7 177.25 122 177.55L122.3 178.25L122.3 181.95L127.9 181.95L127.9 175L118.55 175L118.15 174.95L117.85 174.7L114.45 171.1Q114.15 170.8 114.15 170.4L114.15 157.6Q114.15 157.2 114.45 156.9L117.75 153.45Q117.85 153.3 118.05 153.25L118.45 153.15L120.8 153.15L120.8 151.75Q120.8 151.35 121.1 151.05M142.85,152.85Q141.95 155.1 140.75 156.5Q139.65 157.7 137.6 158.95L137.6 162.2L140.35 162.2L140.35 184.1L137.6 184.1L137.6 190.2L149.3 190.2L149.3 184.1L146.5 184.1L146.5 152.85L142.85 152.85M146.5,151.85Q146.9 151.85 147.2 152.15L147.5 152.85L147.5 183.1L149.3 183.1L150 183.4L150.3 184.1L150.3 190.2L150 190.9L149.3 191.2L137.6 191.2L136.9 190.9Q136.6 190.6 136.6 190.2L136.6 184.1Q136.6 183.7 136.9 183.4Q137.2 183.1 137.6 183.1L139.35 183.1L139.35 163.2L137.6 163.2L136.9 162.9Q136.6 162.6 136.6 162.2L136.6 158.95Q136.6 158.7 136.75 158.45L137.1 158.1Q138.95 156.95 140 155.85L140.05 155.85Q141.1 154.55 141.95 152.5Q142.05 152.2 142.3 152.05L142.85 151.85L146.5 151.85M153.2,184.1L153.2 190.2L156.25 190.2Q156.25 191.65 155.55 193.25L156.7 194.45Q159.3 192.85 159.3 188.7L159.3 184.1L153.2 184.1M159.3,183.1Q159.7 183.1 160 183.4L160.3 184.1L160.3 188.7Q160.3 193.5 157.25 195.3L156.6 195.45Q156.2 195.4 156 195.15L154.85 193.95L154.6 193.45Q154.5 193.15 154.65 192.85L155.15 191.2L153.2 191.2Q152.8 191.2 152.5 190.9Q152.2 190.6 152.2 190.2L152.2 184.1Q152.2 183.7 152.5 183.4Q152.8 183.1 153.2 183.1L159.3 183.1" />
<path style="fill:#FFFF00;fill-opacity:1" d="M353.5,158.95L350.7 158.95L350.7 184.1L353.5 184.1L353.5 190.2L341.8 190.2L341.8 184.1L344.55 184.1L344.55 158.95L341.8 158.95L341.8 152.85L353.5 152.85L353.5 158.95M356.1,166.2L356.1 152.85L381.55 152.85L381.55 166.2L375.65 166.2L375.65 158.95L371.85 158.95L371.85 184.1L374.65 184.1L374.65 190.2L362.95 190.2L362.95 184.1L365.75 184.1L365.75 158.95L362 158.95L362 166.2L356.1 166.2M339.2,155.85L339.2 186.75L335.6 190.2L316.55 190.2L316.55 184.1L319.3 184.1L319.3 158.95L316.55 158.95L316.55 152.85L336 152.85L339.2 155.85M325.45,158.95L325.45 184.1L333.1 184.1L333.1 158.95L325.45 158.95M392.2,152.85L390.45 181.7L386.5 181.7L384.75 152.85L392.2 152.85M391.55,184.1L391.55 190.2L385.45 190.2L385.45 184.1L391.55 184.1M189.55,152.85L201.55 152.85L205.45 156.85L205.45 186.15L201.45 190.2L189.35 190.2L185.6 186.15L185.6 156.85L189.55 152.85M191.7,158.95L191.7 184.1L199.35 184.1L199.35 158.95L191.7 158.95M167.1,152.85L179.1 152.85L183 156.85L183 186.15L179 190.2L166.9 190.2L163.15 186.15L163.15 156.85L167.1 152.85M169.25,158.95L169.25 184.1L176.9 184.1L176.9 158.95L169.25 158.95M227.9,156.85L227.9 186.15L223.9 190.2L211.8 190.2L208.05 186.15L208.05 156.85L212 152.85L224 152.85L227.9 156.85M214.15,158.95L214.15 184.1L221.8 184.1L221.8 158.95L214.15 158.95M241.75,156.7L245.55 152.85L258 152.85L261.6 156.5L261.6 164.2L255.5 164.2L255.5 158.95L247.85 158.95L247.85 184.1L255.5 184.1L255.5 178.75L261.6 178.75L261.6 186.9L258.4 190.2L245.55 190.2L241.75 186.5L241.75 156.7M264.2,152.85L283.65 152.85L286.85 155.9L286.85 171.95L283.65 175.3L281.65 175.3L286.1 184.1L288.7 184.1L288.7 190.2L282.5 190.2L275.2 175.3L273.1 175.3L273.1 184.1L275.9 184.1L275.9 190.2L264.2 190.2L264.2 184.1L266.95 184.1L266.95 158.95L264.2 158.95L264.2 152.85M273.1,169.2L280.75 169.2L280.75 158.95L273.1 158.95L273.1 169.2M307.85,172.75L300.2 172.75L300.2 184.1L307.85 184.1L307.85 176.35L313.95 176.35L313.95 190.2L291.3 190.2L291.3 184.1L294.05 184.1L294.05 158.95L291.3 158.95L291.3 152.85L313.95 152.85L313.95 164.05L307.85 164.05L307.85 158.95L300.2 158.95L300.2 166.6L307.85 166.6L307.85 172.75M118.45,154.15L121.8 154.15L121.8 151.75L128.05 151.75L128.05 154.15L131.65 154.15L135 157.6L135 164.75L128.9 164.75L128.9 160.4L121.3 160.4L121.3 167.95L131.5 167.95L135 171.5L135 184.3L130.55 188.95L128.05 188.95L128.05 193.85L121.8 193.85L121.8 188.95L119.1 188.95L115.15 185L115.15 178.25L121.3 178.25L121.3 182.95L128.9 182.95L128.9 174L118.55 174L115.15 170.4L115.15 157.6L118.45 154.15M146.5,152.85L146.5 184.1L149.3 184.1L149.3 190.2L137.6 190.2L137.6 184.1L140.35 184.1L140.35 162.2L137.6 162.2L137.6 158.95Q139.65 157.7 140.75 156.5Q141.95 155.1 142.85 152.85L146.5 152.85M159.3,184.1L159.3 188.7Q159.3 192.85 156.7 194.45L155.55 193.25Q156.25 191.65 156.25 190.2L153.2 190.2L153.2 184.1L159.3 184.1" />
</g>
</svg>
