<?xml version="1.0" encoding="utf-8"?>
<svg version="1.1" id="Layer_1"
xmlns="http://www.w3.org/2000/svg"
xmlns:xlink="http://www.w3.org/1999/xlink"
xmlns:author="http://www.sothink.com"
width="373px" height="59px"
xml:space="preserve">
<g id="9" transform="matrix(1, 0, 0, 1, 186.3, 29.25)">
<path style="fill:#DCDCDC;fill-opacity:1" d="M38.95,-28.55L58.5 -3.7L58.5 -28.55L63.2 -28.55L63.2 4.15L58.5 4.15L38.95 -20.7L38.95 4.15L34.25 4.15L34.25 -28.55L38.95 -28.55M14.7,-24.6Q19.95 -19.7 19.95 -12.2Q19.95 -4.7 14.7 0.15Q9.6 4.85 2.45 4.85Q-4.8 4.85 -9.85 0.2Q-15.05 -4.65 -15.05 -12.2Q-15.05 -19.7 -9.85 -24.55Q-4.85 -29.25 2.45 -29.25Q9.7 -29.25 14.7 -24.6M2.45,-24.55Q-3.1 -24.55 -6.75 -20.9Q-10.35 -17.3 -10.35 -12.2Q-10.35 -7.1 -6.75 -3.5Q-3 0.15 2.45 0.15Q7.9 0.15 11.6 -3.5Q15.25 -7.05 15.25 -12.2Q15.25 -17.3 11.6 -20.9Q7.95 -24.55 2.45 -24.55M83.65,-14.85L97.6 -14.85Q102.5 -14.85 102.5 -19.65Q102.5 -23.85 97.6 -23.85L83.65 -23.85L83.65 -14.85M83.65,-0.55L97.6 -0.55Q104.05 -0.55 104.05 -5.35Q104.05 -10.15 97.6 -10.15L83.65 -10.15L83.65 -0.55M104.25,-13.05Q105.9 -12.4 107.2 -10.45Q108.75 -8.15 108.75 -5.35Q108.75 -0.85 105.55 1.75Q102.5 4.15 97.6 4.15L78.95 4.15L78.95 -28.55L97.6 -28.55Q101.6 -28.55 104.2 -26.4Q107.2 -24 107.2 -19.65Q107.2 -16 104.25 -13.05M158,-4.95L160.65 -3Q162.5 -1.65 164.75 -0.85Q167.75 0.15 171.2 0.15Q175.05 0.15 178.05 -1.15Q181.6 -2.7 181.6 -5.45Q181.6 -8.95 178 -10.1L171.4 -10.8L166.5 -10.8Q162.7 -10.8 160 -12.75Q156.85 -15.05 156.85 -19.15Q156.85 -23.95 161.5 -26.8Q165.55 -29.25 170.7 -29.25Q177.95 -29.25 184.05 -24.8L181.4 -21L177.1 -23.4Q174.35 -24.55 170.8 -24.55Q167.3 -24.55 164.65 -23.3Q161.55 -21.8 161.55 -19.2Q161.55 -15.45 167.1 -15.45L171.4 -15.45Q186.3 -15.45 186.3 -5.4Q186.3 -0.55 181.65 2.3Q177.4 4.85 170.9 4.85Q164.55 4.85 159.85 2.25Q157.4 0.9 154.7 -1.8L158 -4.95M142.45,-28.55L148.4 -28.55L134.8 -9.95L134.8 4.15L130.1 4.15L130.1 -9.95L116.9 -28.55L122.55 -28.55L132.55 -14.6L142.45 -28.55M-181.6,-9.85L-181.6 4.15L-186.3 4.15L-186.3 -28.55L-167.45 -28.55Q-163.45 -28.55 -160.85 -26.3Q-157.95 -23.85 -157.95 -19.5Q-157.95 -14.55 -160.8 -12.1Q-163.35 -9.85 -167.45 -9.85L-181.6 -9.85M-167.45,-14.55Q-162.65 -14.55 -162.65 -19.45Q-162.65 -21.35 -163.85 -22.55Q-165.2 -23.85 -167.45 -23.85L-181.6 -23.85L-181.6 -14.55L-167.45 -14.55M-142.1,-24.55Q-137.05 -29.25 -129.8 -29.25Q-122.55 -29.25 -117.55 -24.6Q-112.3 -19.7 -112.3 -12.2Q-112.3 -4.7 -117.55 0.15Q-122.65 4.85 -129.8 4.85Q-137 4.85 -142.1 0.2Q-147.3 -4.7 -147.3 -12.2Q-147.3 -19.65 -142.1 -24.55M-139,-20.9Q-142.6 -17.3 -142.6 -12.2Q-142.6 -7.1 -139 -3.5Q-135.25 0.15 -129.8 0.15Q-124.4 0.15 -120.6 -3.5Q-117 -7.1 -117 -12.2Q-117 -17.3 -120.6 -20.9Q-124.3 -24.55 -129.8 -24.55Q-135.35 -24.55 -139 -20.9M-93.25,-28.55L-73.75 -3.7L-73.75 -28.55L-69.05 -28.55L-69.05 4.15L-73.75 4.15L-93.25 -20.7L-93.25 4.15L-97.95 4.15L-97.95 -28.55L-93.25 -28.55M-41.1,-29.25Q-33.8 -29.25 -27.75 -24.8L-30.4 -21Q-33.7 -23 -34.7 -23.4Q-37.45 -24.55 -41 -24.55Q-44.4 -24.55 -47.15 -23.3Q-50.25 -21.8 -50.25 -19.2Q-50.25 -15.45 -44.7 -15.45L-40.35 -15.45Q-25.45 -15.45 -25.45 -5.4Q-25.45 -0.55 -30.15 2.3Q-34.35 4.85 -40.9 4.85Q-47.25 4.85 -51.95 2.25Q-54.2 1 -57.1 -1.8L-53.8 -4.95L-51.15 -3Q-49.15 -1.6 -47 -0.85Q-44.1 0.15 -40.6 0.15Q-36.75 0.15 -33.7 -1.15Q-30.15 -2.75 -30.15 -5.45Q-30.15 -8.95 -33.75 -10.1L-40.4 -10.8L-45.3 -10.8Q-49.1 -10.8 -51.8 -12.75Q-54.95 -15.05 -54.95 -19.15Q-54.95 -23.95 -50.3 -26.8Q-46.25 -29.25 -41.1 -29.25" />
<path style="fill:#DCDCDC;fill-opacity:1" d="M64.25,20.4L64.25 22.95L68.1 22.95L68.1 24.7L64.25 24.7L64.25 27.35L68.1 27.35L68.1 29.1L62.4 29.1L62.4 18.7L68.1 18.7L68.1 20.4L64.25 20.4M51.4,18.7L54.05 26.05L56.7 18.7L58.6 18.7L54.75 29.1L53.35 29.1L49.5 18.7L51.4 18.7M45.75,18.7L45.75 29.1L43.9 29.1L43.9 18.7L45.75 18.7M26.65,20.1Q28.25 21.65 28.25 23.85Q28.25 26.05 26.75 27.6Q25.2 29.1 22.95 29.1L19.75 29.1L19.75 18.7L23.25 18.7Q25.15 18.7 26.65 20.1M21.55,20.4L21.55 27.35L22.95 27.35Q24.45 27.35 25.45 26.35Q26.4 25.35 26.4 23.8Q26.4 22.35 25.4 21.35Q24.35 20.4 22.85 20.4L21.55 20.4M34.4,23.6L35.2 23.6Q37.45 23.6 37.45 21.95Q37.45 20.35 35.65 20.35L34.4 20.35L34.4 23.6M38.3,19.6Q39.3 20.5 39.3 21.95Q39.3 23.15 38.55 24Q37.8 24.9 36.6 25.1L40.5 29.1L37.95 29.1L34.4 25.3L34.4 29.1L32.55 29.1L32.55 18.7L35.7 18.7Q37.3 18.7 38.3 19.6M5.1,18.7L9.35 29.1L7.4 29.1L6.5 26.8L2.3 26.8L1.4 29.1L-0.6 29.1L3.65 18.7L5.1 18.7M5.85,25.15L4.4 21.4L2.95 25.15L5.85 25.15M-18.75,20.25Q-20.2 20.25 -21.2 21.2Q-22.35 22.25 -22.35 23.9Q-22.35 25.5 -21.2 26.55Q-20.2 27.5 -18.75 27.5Q-17.3 27.5 -16.25 26.55Q-15.15 25.5 -15.15 23.9Q-15.15 22.25 -16.25 21.2Q-17.3 20.25 -18.75 20.25M-13.25,23.9Q-13.25 26 -14.7 27.55Q-16.3 29.25 -18.75 29.25Q-21.2 29.25 -22.8 27.55Q-24.25 26 -24.25 23.9Q-24.25 21.8 -22.8 20.25Q-21.2 18.55 -18.75 18.55Q-16.3 18.55 -14.7 20.25Q-13.25 21.8 -13.25 23.9M-7.15,18.7L-7.15 27.35L-3.65 27.35L-3.65 29.1L-8.95 29.1L-8.95 18.7L-7.15 18.7M-38.85,24Q-39.55 24.9 -40.8 25.1L-36.85 29.1L-39.4 29.1L-43 25.3L-43 29.1L-44.8 29.1L-44.8 18.7L-41.7 18.7Q-40.1 18.7 -39.1 19.6Q-38.1 20.5 -38.1 21.95Q-38.1 23.15 -38.85 24M-34.35,20.4L-34.35 18.7L-27.6 18.7L-27.6 20.4L-30.1 20.4L-30.1 29.1L-31.9 29.1L-31.9 20.4L-34.35 20.4M-58.25,23.9Q-58.25 25.5 -57.1 26.55Q-56.05 27.5 -54.6 27.5Q-53.2 27.5 -52.15 26.55Q-51 25.5 -51 23.9Q-51 22.25 -52.15 21.2Q-53.2 20.25 -54.6 20.25Q-56.05 20.25 -57.1 21.2Q-58.25 22.25 -58.25 23.9M-54.6,18.55Q-52.15 18.55 -50.55 20.25Q-49.1 21.8 -49.1 23.9Q-49.1 26 -50.55 27.55Q-52.15 29.25 -54.6 29.25Q-57.05 29.25 -58.65 27.55Q-60.1 26 -60.1 23.9Q-60.1 21.8 -58.65 20.25Q-57.05 18.55 -54.6 18.55M-43,20.35L-43 23.6L-42.2 23.6Q-39.9 23.6 -39.9 21.95Q-39.9 20.35 -41.7 20.35L-43 20.35M-68.65,20.35L-68.65 24.1L-67.7 24.1Q-65.65 24.1 -65.65 22.2Q-65.65 20.35 -67.7 20.35L-68.65 20.35M-67.45,18.7Q-65.8 18.7 -64.75 19.8Q-63.85 20.8 -63.85 22.2Q-63.85 23.6 -64.75 24.65Q-65.8 25.75 -67.45 25.75L-68.65 25.75L-68.65 29.1L-70.45 29.1L-70.45 18.7L-67.45 18.7" />
</g>
</svg>
