<?xml version="1.0" encoding="utf-8"?>
<svg version="1.1" id="Layer_1"
xmlns="http://www.w3.org/2000/svg"
xmlns:xlink="http://www.w3.org/1999/xlink"
xmlns:author="http://www.sothink.com"
width="20px" height="20px"
xml:space="preserve">
<g id="6" transform="matrix(1, 0, 0, 1, 9.65, 9.65)">
<path style="fill:#DCDCDC;fill-opacity:1" d="M6.85,-6.85Q9.7 -4 9.7 0Q9.7 4.05 6.85 6.85Q4.05 9.7 0 9.7Q-4 9.7 -6.85 6.85Q-9.65 4.05 -9.65 0Q-9.65 -4 -6.85 -6.85Q-4 -9.65 0 -9.65Q4 -9.65 6.75 -6.95L6.85 -6.85M0.75,-7.5Q0.1 -7.4 -0.35 -6.95Q-0.85 -6.45 -0.85 -5.75Q-0.85 -5.1 -0.35 -4.65Q0.1 -4.15 0.75 -4.15Q1.45 -4.15 1.95 -4.65Q2.4 -5.1 2.4 -5.75Q2.4 -6.45 1.95 -6.95Q1.45 -7.4 0.75 -7.5M-0.6,7.5L0.75 7.25L2.3 6.1Q3.15 5.3 3.75 3.6L2.85 3.6L2.1 4.95Q1.6 5.45 1 5.45L0.35 5.3L0.15 4.7L0.15 4.4L0.2 4.05L1.7 -3.05L-1.25 -3.05L-2.7 3.6L-2.8 4.35L-2.85 5Q-2.8 6.3 -2.2 6.9Q-1.55 7.5 -0.6 7.5" />
</g>
</svg>
