<?xml version="1.0" encoding="utf-8"?>
<svg version="1.1" id="Layer_1"
xmlns="http://www.w3.org/2000/svg"
xmlns:xlink="http://www.w3.org/1999/xlink"
xmlns:author="http://www.sothink.com"
width="64px" height="41px"
xml:space="preserve">
<g id="929" transform="matrix(1, 0, 0, 1, 0, 89.85)">
<path style="fill:#FFFFFF;fill-opacity:1" d="M55.2,-71.05L59.5 -67.5L63.4 -63.65L49.3 -49.5L46.25 -52.5L42.85 -55.25Q41.75 -56.1 40.6 -57L39.35 -57.85L35.6 -60.1L31.65 -62.45L27.7 -64.2L23.65 -65.9L19.4 -67.1L12.8 -68.85L6.45 -69.65L0 -69.85L0 -89.85L8.45 -89.65L14 -88.8L19.65 -87.8L25 -86.25L30.55 -84.6L35.65 -82.4L40.85 -80.2L45.85 -77.2L50.45 -74.5L55.2 -71.05" />
</g>
</svg>
