<?xml version="1.0" encoding="utf-8"?>
<svg version="1.1" id="Layer_1"
xmlns="http://www.w3.org/2000/svg"
xmlns:xlink="http://www.w3.org/1999/xlink"
xmlns:author="http://www.sothink.com"
width="168px" height="180px"
xml:space="preserve">
<g id="983" transform="matrix(1, 0, 0, 1, 77.2, 89.85)">
<path style="fill:#FFFFFF;fill-opacity:1" d="M55.2,-71.05L59.5 -67.55L63.5 -63.65L67.55 -59.45L70.9 -55.1L74.4 -50.5L77.25 -45.7L80.2 -40.85L82.5 -35.5L84.65 -30.65L86.45 -25.05L87.9 -19.65L88.8 -14.15L89.55 -8.45L89.95 -2.7L90 2.95L89.85 2.95L89.65 8.45L88.8 14L87.8 19.65L86.25 25L84.6 30.55L82.4 35.65L80.2 40.85L77.2 45.85L74.5 50.45L71.05 55.2L67.55 59.5L63.65 63.5L59.45 67.55L55.1 70.9L50.5 74.4L45.7 77.25L40.85 80.2L35.5 82.5L30.65 84.65L25.05 86.45L19.65 87.9L14.15 88.8L8.45 89.55L2.7 89.8L2.7 89.95L-2.95 90L-2.95 89.85L-8.45 89.65L-14 88.8L-19.65 87.8L-25 86.25L-30.55 84.6L-35.65 82.4L-40.85 80.2L-45.85 77.2L-50.45 74.5L-55.2 71.05L-59.5 67.55L-63.5 63.65L-67.55 59.45L-70.9 55.1L-74.4 50.5L-77.2 45.7L-60.2 35.65L-57.85 39.4L-55.15 42.95L-50.75 48.2L-46.15 52.55L-39.95 57.45L-39.35 57.85L-35.6 60.1L-31.65 62.45L-27.7 64.2L-23.65 65.9L-19.4 67.1L-12.8 68.85L-6.45 69.65L1.2 69.95L2.25 69.9L9.1 69.5L15.35 68.25L23.7 65.85L23.7 65.9L23.75 65.85L27.75 64.1L31.95 62.3L35.7 60.15L39.4 57.85L42.95 55.15L48.2 50.8L52.55 46.15L57.45 39.95L60.1 35.6L62.45 31.65L64.2 27.7L65.9 23.65L67.1 19.4L68.85 12.8L69.65 6.45L69.9 0.3L69.85 -2.3L69.15 -9.1L68.25 -15.35L65.9 -23.7L64.1 -27.75L62.3 -31.95L60.15 -35.7L57.85 -39.4L55.15 -42.95L50.8 -48.2L46.15 -52.55L39.95 -57.45L35.6 -60.1L31.65 -62.45L27.7 -64.2L23.65 -65.9L19.4 -67.1L12.8 -68.85L6.45 -69.65L0 -69.85L0 -89.85L8.45 -89.65L14 -88.8L19.65 -87.8L25 -86.25L30.55 -84.6L35.65 -82.4L40.85 -80.2L45.85 -77.2L50.45 -74.5L55.2 -71.05" />
</g>
</svg>
