<?xml version="1.0" encoding="utf-8"?>
<svg version="1.1" id="Layer_1"
xmlns="http://www.w3.org/2000/svg"
xmlns:xlink="http://www.w3.org/1999/xlink"
xmlns:author="http://www.sothink.com"
width="90px" height="84px"
xml:space="preserve">
<g id="940" transform="matrix(1, 0, 0, 1, 0, 89.85)">
<path style="fill:#FFFFFF;fill-opacity:1" d="M55.2,-71.05L59.5 -67.55L63.5 -63.65L67.55 -59.45L70.9 -55.1L74.4 -50.5L77.25 -45.7L80.2 -40.85L82.5 -35.5L84.65 -30.65L86.45 -25.05L87.5 -20.85L88.1 -18.2L88.85 -13.9L89.5 -8.4L69.6 -6.65L69.15 -11.05L68.3 -15.3L67.2 -19.6L65.85 -23.75L64.1 -27.75L62.3 -31.95L60.15 -35.7L57.85 -39.4L55.15 -42.95L50.8 -48.2L46.15 -52.55L39.95 -57.45L35.6 -60.1L31.65 -62.45L27.7 -64.2L23.65 -65.9L19.4 -67.1L12.8 -68.85L6.45 -69.65L0 -69.85L0 -89.85L8.45 -89.65L14 -88.8L19.65 -87.8L25 -86.25L30.55 -84.6L35.65 -82.4L40.85 -80.2L45.85 -77.2L50.45 -74.5L55.2 -71.05" />
</g>
</svg>
