<?xml version="1.0" encoding="utf-8"?>
<svg version="1.1" id="Layer_1"
xmlns="http://www.w3.org/2000/svg"
xmlns:xlink="http://www.w3.org/1999/xlink"
xmlns:author="http://www.sothink.com"
width="90px" height="131px"
xml:space="preserve">
<g id="949" transform="matrix(1, 0, 0, 1, 0, 89.85)">
<path style="fill:#FFFFFF;fill-opacity:1" d="M55.2,-71.05L59.5 -67.55L63.5 -63.65L67.55 -59.45L70.9 -55.1L74.4 -50.5L77.25 -45.7L80.2 -40.85L82.5 -35.5L84.65 -30.65L86.45 -25.05L87.9 -19.65L88.8 -14.15L89.55 -8.45L89.95 -2.7L90 2.95L89.85 2.95L89.65 8.45L88.8 14L87.7 19.65L86.25 25L84.55 30.55L82.45 35.65L80.25 40.75L62.5 31.65L64.2 27.7L65.9 23.65L67.1 19.4L68.9 12.75L69.65 6.45L69.9 0.3L69.85 -2.3L69.15 -9.1L68.25 -15.35L65.9 -23.7L64.1 -27.75L62.3 -31.95L60.15 -35.7L57.85 -39.4L55.15 -42.95L50.8 -48.2L46.15 -52.55L39.95 -57.45L35.6 -60.1L31.65 -62.45L27.7 -64.2L23.65 -65.9L19.4 -67.1L12.8 -68.85L6.45 -69.65L0 -69.85L0 -89.85L8.45 -89.65L14 -88.8L19.65 -87.8L25 -86.25L30.55 -84.6L35.65 -82.4L40.85 -80.2L45.85 -77.2L50.45 -74.5L55.2 -71.05" />
</g>
</svg>
