<?xml version="1.0" encoding="utf-8"?>
<svg version="1.1" id="Layer_1"
xmlns="http://www.w3.org/2000/svg"
xmlns:xlink="http://www.w3.org/1999/xlink"
xmlns:author="http://www.sothink.com"
width="180px" height="180px"
xml:space="preserve">
<g id="1016" transform="matrix(1, 0, 0, 1, 90, 90)">
<path style="fill:#FFFFFF;fill-opacity:1" d="M48.25,-75.75L52.75 -72.95L57.4 -69.35L61.55 -65.7L65.45 -61.7L69.35 -57.35L72.6 -52.9L75.95 -48.2L78.65 -43.35L81.45 -38.35L83.55 -32.95L85.55 -28L87.2 -22.35L88.45 -16.95L89.2 -11.4L89.8 -5.7L90 0.05L89.85 5.7L89.7 5.7L89.35 11.2L88.35 16.7L87.15 22.35L85.45 27.65L83.65 33.1L81.3 38.15L78.9 43.35L75.75 48.25L72.95 52.75L69.35 57.4L65.7 61.55L61.7 65.45L57.35 69.35L52.9 72.6L48.2 75.95L43.35 78.65L38.35 81.45L32.95 83.55L28 85.55L22.35 87.2L16.95 88.45L11.4 89.2L5.7 89.8L-0.05 89.85L-0.05 90L-5.7 89.85L-5.7 89.7L-11.2 89.35L-16.7 88.35L-22.35 87.15L-27.65 85.45L-33.1 83.65L-38.15 81.3L-43.35 78.9L-48.25 75.75L-52.75 72.95L-57.4 69.35L-61.55 65.7L-65.45 61.7L-69.35 57.35L-72.6 52.9L-75.95 48.2L-78.65 43.35L-81.45 38.35L-83.55 32.95L-85.55 28L-87.2 22.35L-88.45 16.95L-89.2 11.4L-89.8 5.7L-90 -0.05L-89.85 -5.7L-89.7 -5.7L-89.35 -11.2L-88.35 -16.7L-87.15 -22.35L-85.45 -27.65L-83.65 -33.1L-81.3 -38.15L-78.9 -43.35L-75.75 -48.25L-72.95 -52.75L-69.35 -57.4L-65.7 -61.55L-61.7 -65.45L-57.35 -69.35L-52.9 -72.6L-48.2 -75.95L-43.35 -78.65L-38.35 -81.45L-32.95 -83.55L-28 -85.55L-22.35 -87.2L-16.95 -88.45L-11.4 -89.2L-5.7 -89.8L-2.9 -89.9L-2.25 -69.9L-6.95 -69.75L-13.25 -68.7L-21.65 -66.55L-21.65 -66.6L-21.7 -66.55L-25.75 -64.95L-30 -63.25L-33.8 -61.25L-37.6 -59.05L-41.2 -56.45L-46.65 -52.3L-51.15 -47.75L-56.2 -41.7L-59 -37.4L-61.45 -33.55L-63.35 -29.65L-65.15 -25.65L-66.5 -21.45L-68.45 -14.9L-69.45 -8.6L-69.85 -2.45L-69.9 0.15L-69.4 6.95L-68.7 13.25L-66.6 21.65L-64.95 25.75L-63.25 30L-61.25 33.8L-59.05 37.6L-56.45 41.2L-52.3 46.65L-47.75 51.15L-41.7 56.2L-37.4 59L-33.55 61.45L-29.65 63.35L-25.65 65.15L-21.45 66.5L-14.9 68.45L-8.6 69.45L-0.95 69.95L0.1 69.95L6.95 69.75L13.25 68.7L21.65 66.55L21.65 66.6L21.7 66.55L25.75 64.95L30 63.25L33.8 61.25L37.6 59.05L41.2 56.45L46.65 52.3L51.15 47.75L56.2 41.7L59 37.4L61.45 33.55L63.35 29.65L65.15 25.65L66.5 21.45L68.45 14.9L69.45 8.6L69.85 2.45L69.9 -0.15L69.4 -6.95L68.7 -13.25L66.6 -21.65L64.95 -25.75L63.25 -30L61.25 -33.8L59.05 -37.6L56.45 -41.2L52.3 -46.65L47.75 -51.15L41.7 -56.2L37.4 -59L33.55 -61.45L29.65 -63.35L25.65 -65.15L21.45 -66.5L14.9 -68.45L8.6 -69.45L0 -70L0 -90L0.05 -90L11.2 -89.35L16.7 -88.35L22.35 -87.15L27.65 -85.45L33.1 -83.65L38.15 -81.3L43.35 -78.9L48.25 -75.75" />
</g>
</svg>
