<?xml version="1.0" encoding="utf-8"?>
<svg version="1.1" id="Layer_1"
xmlns="http://www.w3.org/2000/svg"
xmlns:xlink="http://www.w3.org/1999/xlink"
xmlns:author="http://www.sothink.com"
width="120px" height="71px"
xml:space="preserve">
<g id="439" transform="matrix(1, 0, 0, 1, -23.65, -20.1)">
<linearGradient
id="LinearGradID_2" gradientUnits="userSpaceOnUse" gradientTransform="matrix(0.0726624, 0, 0, 0.043335, 209.2, 71.9)" spreadMethod ="pad" x1="-819.2" y1="0" x2="819.2" y2="0" >
<stop  offset="0" style="stop-color:#BCBCBC;stop-opacity:1" />
<stop  offset="0.0666667" style="stop-color:#FFFFFF;stop-opacity:0" />
</linearGradient>
<path style="fill:url(#LinearGradID_2) " d="M142.7,44.9L142.7 78.4Q142.7 80.6 142 83.6Q141.25 86.4 140.45 87.8L134.2 87.8L134.2 74.35L111.65 74.35L111.65 91.1L50.3 91.1Q48.6 91.1 46.6 88.7L43.4 83.8Q41.25 80.1 39.85 78.55Q37.55 76.2 34.75 76.2L23.9 76.2L23.65 31.8L23.75 30.9L25.15 30.85L31.3 30.85Q35.25 30.85 37.65 27.65Q38.95 25.95 40.1 22.5Q40.45 20.95 40.9 20.1L94.5 20.1L95.45 20.2L95.6 22.55L95.6 27.35Q95.6 34.9 104.25 34.9L111.9 34.9L111.9 47.35L134.45 47.35L134.45 34.4L140.3 34.4Q141.1 35.95 141.9 39.3Q142.7 42.7 142.7 44.9" />
</g>
</svg>
