<?xml version="1.0" encoding="utf-8"?>
<svg version="1.1" id="Layer_1"
xmlns="http://www.w3.org/2000/svg"
xmlns:xlink="http://www.w3.org/1999/xlink"
xmlns:author="http://www.sothink.com"
width="66px" height="64px"
xml:space="preserve">
<g id="1947" transform="matrix(1, 0, 0, 1, 1.5, 1.5)">
<path style="fill:#F5F5F5;fill-opacity:1" d="M42.5,32.6L59.4 32.6Q60.9 33.7 61.1 36.1Q61.4 38.5 59.7 39.9L57.5 40L57.5 39.9L43.3 39.9L43.3 42.9L56.7 42.9Q57.4 44.3 57.4 46.8Q57.4 49.8 55.3 50.8L42.9 50.8L42.9 53.8L50.2 53.8Q51.1 55.6 50.7 57.6Q50.3 59.6 47.2 60.6L26.1 60.6Q19.7 60.6 10.6 57Q4.9 54.8 0.1 52.1L0 29.7Q15.6 26.7 26 15.3Q31.3 9.5 33.7 3.7L34.7 1.9Q36 0 38 0Q39.3 0 40.1 1.3Q41.4 4 40.5 9.3Q39.4 15 36.3 19.6L34.7 21.9L54.4 21.9Q59.4 21.9 60.9 22.6Q62.3 23.2 62.3 25.1Q62.3 27.4 61.1 28.7Q60.4 29.4 59.6 29.6L42.5 29.6L42.5 32.6" />
<path style="fill:none;stroke-width:3;stroke-linecap:butt;stroke-linejoin:miter;stroke-miterlimit:10;stroke:#000000;stroke-opacity:1" d="M42.5,29.6L59.6 29.6Q60.4 29.4 61.1 28.7Q62.3 27.4 62.3 25.1Q62.3 23.2 60.9 22.6Q59.4 21.9 54.4 21.9L34.7 21.9L36.3 19.6Q39.4 15 40.5 9.3Q41.4 4 40.1 1.3Q39.3 0 38 0Q36 0 34.7 1.9L33.7 3.7Q31.3 9.5 26 15.3Q15.6 26.7 0 29.7L0.1 52.1Q4.9 54.8 10.6 57Q19.7 60.6 26.1 60.6L47.2 60.6Q50.3 59.6 50.7 57.6Q51.1 55.6 50.2 53.8L42.9 53.8L42.9 50.8L55.3 50.8Q57.4 49.8 57.4 46.8Q57.4 44.3 56.7 42.9L43.3 42.9L43.3 39.9L57.5 39.9L57.5 40L59.7 39.9Q61.4 38.5 61.1 36.1Q60.9 33.7 59.4 32.6L42.5 32.6L42.5 29.6z" />
</g>
</svg>
