<?xml version="1.0" encoding="utf-8"?>
<svg version="1.1" id="Layer_1"
xmlns="http://www.w3.org/2000/svg"
xmlns:xlink="http://www.w3.org/1999/xlink"
xmlns:author="http://www.sothink.com"
width="30px" height="30px"
xml:space="preserve">
<g id="566" transform="matrix(1, 0, 0, 1, 0.5, 0.5)">
<path style="fill:#000000;fill-opacity:1" d="M27.5,8.5L28.35 8.65L28.4 8.7L29 9.2L29 9.3L29.35 10.15L29.4 10.25L29.4 18.7L29.4 18.75L29 19.75L28.9 19.8L28.35 20.35L27.5 20.45L21.8 20.45L21.75 20.45L20.7 20.05L16.15 15.7L16 15.6L16 13.3L20.7 8.95L21.85 8.5L27.5 8.5" />
<path style="fill:#484848;fill-opacity:1" d="M27.9,9.6L28.15 9.8L28.4 10.45L28.4 18.5L28.15 19.2L27.9 19.4L27.35 19.45L22 19.45L21.25 19.2L17 15.15L17 13.7L21.25 9.8L22 9.5L27.35 9.5L27.9 9.6" />
<path style="fill:#000000;fill-opacity:1" d="M7.15,8.55L8.25 8.95L8.3 9L12.9 13.3L12.9 15.6L8.3 20L8.25 20.05L7.1 20.45L1.45 20.45L0.6 20.35L0.5 20.25L-0.05 19.75L-0.1 19.65L-0.45 18.8L-0.5 18.7L-0.5 10.25L-0.45 10.2L-0.05 9.2L0 9.15L0.6 8.65L1.45 8.5L7.1 8.5L7.15 8.55" />
<path style="fill:#484848;fill-opacity:1" d="M7.65,9.8L11.9 13.75L11.9 15.15L7.65 19.2L6.95 19.45L1.6 19.45L1 19.4L0.75 19.15L0.5 18.55L0.5 10.45L0.8 9.8L1 9.6L1.6 9.5L6.95 9.5L7.65 9.8" />
<path style="fill:#000000;fill-opacity:1" d="M8.9,20.7L13.2 16.15L13.35 16L15.65 16L19.95 20.6L20 20.7L20.05 20.8L20.4 21.8L20.4 27.5L20.3 28.35L19.7 29L18.65 29.4L10.2 29.4L10.15 29.4L9.15 29L9.1 28.9L8.6 28.35L8.45 27.5L8.45 21.85L8.9 20.7" />
<path style="fill:#484848;fill-opacity:1" d="M9.75,21.25L13.75 17L15.2 17L19.15 21.25L19.4 22L19.4 27.35L19.35 27.9L19.1 28.15L18.45 28.4L10.45 28.4L9.75 28.15L9.55 27.9L9.45 27.35L9.45 22L9.75 21.25" />
<path style="fill:#000000;fill-opacity:1" d="M9.25,-0.1L10.2 -0.5L18.65 -0.5L18.75 -0.45L19.7 -0.05L19.75 0L20.3 0.6L20.4 1.45L20.4 7.1L20 8.25L15.65 12.9L13.35 12.9L13.2 12.75L8.9 8.25L8.85 8.15L8.45 7.1L8.45 1.45L8.6 0.6L8.65 0.5L9.15 -0.05L9.25 -0.1" />
<path style="fill:#484848;fill-opacity:1" d="M18.45,0.5L19.15 0.8L19.35 1L19.4 1.6L19.4 6.95L19.15 7.7L15.2 11.9L13.75 11.9L9.75 7.7L9.45 6.9L9.45 1.6L9.55 1L9.75 0.8L10.4 0.5L18.45 0.5" />
</g>
</svg>
