<?xml version="1.0" encoding="utf-8"?>
<svg version="1.1" id="Layer_1"
xmlns="http://www.w3.org/2000/svg"
xmlns:xlink="http://www.w3.org/1999/xlink"
xmlns:author="http://www.sothink.com"
width="29px" height="21px"
xml:space="preserve">
<g id="550" transform="matrix(1, 0, 0, 1, 0.5, 1.75)">
<path style="fill:#000000;fill-opacity:1" d="M0.75,-0.95L0.8 -0.95L1.6 -1.5L2.75 -1.75L24.85 -1.75L26 -1.5L26.85 -0.95L26.9 -0.95L26.9 -0.9L27.6 -0.2L27.6 -0.15L27.95 0.7L28 0.8L28 0.85L28.1 1.9L28.1 15.25L28.05 15.25L28 16.65L27.6 17.65L26.9 18.3L26.9 18.35L26.85 18.35L26 18.95L24.85 19.15L2.75 19.15L1.6 18.95L0.75 18.35L0.05 17.65L0 17.55L-0.35 16.7L-0.4 16.65L-0.45 15.25L-0.5 15.25L-0.5 1.9L-0.4 0.85L-0.4 0.8L-0.35 0.7L0 -0.15L0.75 -0.95M1.35,-0.1L0.9 0.35L0.6 1.05L0.5 2L0.5 15.25L0.55 15.25L0.6 16.4L0.9 17.1L1.35 17.55L2 18L2.95 18.15L24.65 18.15L25.65 18L26.75 17.1L27 16.4L27.05 15.25L27.1 15.25L27.1 1.95L27 1L26.75 0.35L26.3 -0.1L25.65 -0.55L24.65 -0.75L2.95 -0.75L2 -0.55L1.35 -0.1" />
<path style="fill:#484848;fill-opacity:1" d="M2,-0.55L2.95 -0.75L24.65 -0.75L25.65 -0.55L26.3 -0.1L26.75 0.35L27 1L27.1 1.95L27.1 15.25L27.05 15.25L27 16.4L26.75 17.1L25.65 18L24.65 18.15L2.95 18.15L2 18L1.35 17.55L0.9 17.1L0.6 16.4L0.55 15.25L0.5 15.25L0.5 2L0.6 1.05L0.9 0.35L1.35 -0.1L2 -0.55" />
</g>
</svg>
