<?xml version="1.0" encoding="utf-8"?>
<svg version="1.1" id="Layer_1"
xmlns="http://www.w3.org/2000/svg"
xmlns:xlink="http://www.w3.org/1999/xlink"
xmlns:author="http://www.sothink.com"
width="19px" height="19px"
xml:space="preserve">
<g id="563" transform="matrix(1, 0, 0, 1, 0, 0)">
<path style="fill:#000000;fill-opacity:1" d="M12.25,9.45L18.4 15.85L15.05 19L9.15 12.75L3.25 19L0 15.85L6.1 9.5L0 3.1L3.25 0L9.15 6.2L15.05 0L18.4 3.05L12.25 9.45" />
<path style="fill:#6F86C2;fill-opacity:1" d="M10.85,9.45L16.95 15.8L15.1 17.55L9.15 11.25L3.2 17.55L1.4 15.8L7.45 9.45L1.4 3.1L3.2 1.4L9.15 7.65L15.1 1.4L16.95 3.1L10.85 9.45" />
</g>
</svg>
