<?xml version="1.0" encoding="utf-8"?>
<svg version="1.1" id="Layer_1"
xmlns="http://www.w3.org/2000/svg"
xmlns:xlink="http://www.w3.org/1999/xlink"
xmlns:author="http://www.sothink.com"
width="169px" height="49px"
xml:space="preserve">
<g id="1541" transform="matrix(1, 0, 0, 1, 0, 22.65)">
<path style="fill:#000000;fill-opacity:1" d="M12.35,-14.65L12.45 -14.65L12.45 12.75L12.35 12.75L12.35 -14.65" />
<path style="fill:#000000;fill-opacity:1" d="M2.85,-14.65L12.35 -14.65L12.35 12.75L2.85 12.75L2.85 -14.65" />
<path style="fill:#000000;fill-opacity:1" d="M34.2,12.75L12.45 12.75L12.45 -14.65L34.2 -14.65L34.2 12.75" />
<path style="fill:#000000;fill-opacity:1" d="M61.05,8.95L58.1 8.95L58.1 9.35L51.1 9.35L51.1 19.35L37.7 19.35L37.7 12.75L35.6 12.75L35.6 5.4L42.2 5.4L42.2 -14.65L48.3 -14.65L48.3 -17.65L50.15 -17.65L50.15 -16.8L61.05 -16.8L61.05 8.95" />
<path style="fill:#000000;fill-opacity:1" d="M67.55,-12.2L67.8 -12.2L67.8 -16.8L69.05 -16.8L69.05 -17.65L89.35 -17.65L89.35 -12.85L89.6 -12.85L89.85 -12.85L90.05 -12.85L90.25 -12.85L90.4 -12.85L90.65 -12.85L90.9 -12.85L91.1 -12.85L91.35 -12.85L91.6 -12.85L91.6 -17.65L92.1 -17.65L92.1 -19.65L102.25 -19.65L102.35 -19.65L102.6 -19.65L102.65 -19.65L102.8 -19.65L102.8 -6.5L102.4 -6.5L101.45 -6.5L100.6 -6.5L100.6 2.85L90.9 2.85L90.9 4.95L86.7 4.95L86.7 9.6L71.3 9.6L71.3 8.95L67.55 8.95L67.55 -12.2" />
<path style="fill:#000000;fill-opacity:1" d="M66.75,-16.8L67.8 -16.8L67.8 -12.2L67.55 -12.2L66.75 -12.2L66.75 -16.8" />
<path style="fill:#000000;fill-opacity:1" d="M67.55,8.95L61.05 8.95L61.05 -16.8L66.75 -16.8L66.75 -12.2L67.55 -12.2L67.55 8.95" />
<path style="fill:#000000;fill-opacity:1" d="M34.2,-14.65L42.2 -14.65L42.2 5.4L35.6 5.4L35.6 12.75L34.2 12.75L34.2 -14.65" />
<path style="fill:#000000;fill-opacity:1" d="M91.35,-17.65L91.6 -17.65L91.6 -12.85L91.35 -12.85L91.35 -17.65" />
<path style="fill:#000000;fill-opacity:1" d="M91.1,-17.65L91.35 -17.65L91.35 -12.85L91.1 -12.85L91.1 -17.65" />
<path style="fill:#000000;fill-opacity:1" d="M89.6,-12.85L89.35 -12.85L89.35 -17.65L89.6 -17.65L89.6 -12.85" />
<path style="fill:#000000;fill-opacity:1" d="M90.4,-12.85L90.25 -12.85L90.25 -17.65L90.4 -17.65L90.4 -12.85" />
<path style="fill:#000000;fill-opacity:1" d="M90.05,-12.85L89.85 -12.85L89.85 -17.65L90.05 -17.65L90.05 -12.85" />
<path style="fill:#000000;fill-opacity:1" d="M90.25,-12.85L90.05 -12.85L90.05 -17.65L90.25 -17.65L90.25 -12.85" />
<path style="fill:#000000;fill-opacity:1" d="M90.65,-12.85L90.4 -12.85L90.4 -17.65L90.65 -17.65L90.65 -12.85" />
<path style="fill:#000000;fill-opacity:1" d="M90.9,-12.85L90.65 -12.85L90.65 -17.65L90.9 -17.65L90.9 -12.85" />
<path style="fill:#000000;fill-opacity:1" d="M91.1,-12.85L90.9 -12.85L90.9 -17.65L91.1 -17.65L91.1 -12.85" />
<path style="fill:#000000;fill-opacity:1" d="M89.85,-12.85L89.6 -12.85L89.6 -17.65L89.85 -17.65L89.85 -12.85" />
<path style="fill:#000000;fill-opacity:1" d="M116.85,0.3L114.2 0.3L114.2 2.85L104.75 2.85L104.75 -6.5L103.25 -6.5L103.25 -19.65L103.7 -19.65L105 -19.65L111.9 -19.65L114.5 -19.65L114.5 -16.85L116.85 -16.85L116.85 0.3" />
<path style="fill:#000000;fill-opacity:1" d="M103.25,-6.5L103.2 -6.5L103.2 -19.65L103.25 -19.65L103.25 -6.5" />
<path style="fill:#000000;fill-opacity:1" d="M103.2,-6.5L103.05 -6.5L103.05 -19.65L103.15 -19.65L103.2 -19.65L103.2 -6.5" />
<path style="fill:#000000;fill-opacity:1" d="M102.85,-19.65L102.9 -19.65L103 -19.65L103 -6.5L102.85 -6.5L102.85 -19.65" />
<path style="fill:#000000;fill-opacity:1" d="M102.85,-6.5L102.8 -6.5L102.8 -19.65L102.85 -19.65L102.85 -6.5" />
<path style="fill:#000000;fill-opacity:1" d="M103.05,-6.5L103 -6.5L103 -19.65L103.05 -19.65L103.05 -6.5" />
<path style="fill:#000000;fill-opacity:1" d="M102.4,2.85L101.45 2.85L101.45 -6.5L102.4 -6.5L102.4 2.85" />
<path style="fill:#000000;fill-opacity:1" d="M102.85,-6.5L103 -6.5L103.05 -6.5L103.05 2.85L102.4 2.85L102.4 -6.5L102.8 -6.5L102.85 -6.5" />
<path style="fill:#000000;fill-opacity:1" d="M103.05,-6.5L103.2 -6.5L103.25 -6.5L104.75 -6.5L104.75 2.85L103.05 2.85L103.05 -6.5" />
<path style="fill:#000000;fill-opacity:1" d="M100.6,-6.5L101.45 -6.5L101.45 2.85L100.6 2.85L100.6 -6.5" />
<path style="fill:#000000;fill-opacity:1" d="M125.65,-16.85L135.45 -16.85L135.45 0.3L125.65 0.3L125.65 -16.85" />
<path style="fill:#000000;fill-opacity:1" d="M135.45,-16.85L147.55 -16.85L147.55 -9.65L139.1 -9.65L139.1 -7.1L138.75 -7.1L138.75 0.3L135.45 0.3L135.45 -16.85" />
<path style="fill:#000000;fill-opacity:1" d="M164.4,-8.05L150.4 -8.05L150.4 -9.65L150.4 -16.85L150.4 -17.05L154.9 -17.05L154.9 -22.65L160.2 -22.65L160.2 -18.15L164.4 -18.15L164.4 -8.05" />
<path style="fill:#000000;fill-opacity:1" d="M147.95,-16.85L150.4 -16.85L150.4 -9.65L147.95 -9.65L147.95 -16.85" />
<path style="fill:#000000;fill-opacity:1" d="M147.95,-9.65L147.55 -9.65L147.55 -16.85L147.95 -16.85L147.95 -9.65" />
<path style="fill:#000000;fill-opacity:1" d="M125.65,0.3L116.85 0.3L116.85 -16.85L125.65 -16.85L125.65 0.3" />
<path style="fill:#000000;fill-opacity:1" d="M164.4,-18.15L168.3 -18.15L168.3 -8.05L164.4 -8.05L164.4 -18.15" />
<path style="fill:#000000;fill-opacity:1" d="M71.1,15.3L71.1 11.85L71.3 11.85L86.7 11.85L87.3 11.85L87.3 15.3L71.1 15.3" />
<path style="fill:#000000;fill-opacity:1" d="M71.3,11.85L71.3 9.6L86.7 9.6L86.7 11.85L71.3 11.85" />
<path style="fill:#000000;fill-opacity:1" d="M71.1,15.7L71.1 15.3L87.3 15.3L87.3 15.7L71.1 15.7" />
<path style="fill:#000000;fill-opacity:1" d="M87.3,15.7L87.3 20.5L71.1 20.5L71.1 15.7L87.3 15.7" />
<path style="fill:#000000;fill-opacity:1" d="M87.3,20.5L87.3 20.7L71.1 20.7L71.1 20.5L87.3 20.5" />
<path style="fill:#000000;fill-opacity:1" d="M87.3,20.7L87.3 25.8L71.1 25.8L71.1 20.7L87.3 20.7" />
<path style="fill:#000000;fill-opacity:1" d="M2.85,12.75L0 12.75L0 -14.65L2.85 -14.65L2.85 12.75" />
</g>
</svg>
