<?xml version="1.0" encoding="utf-8"?>
<svg version="1.1" id="Layer_1"
xmlns="http://www.w3.org/2000/svg"
xmlns:xlink="http://www.w3.org/1999/xlink"
xmlns:author="http://www.sothink.com"
width="104px" height="39px"
xml:space="preserve">
<g id="1537" transform="matrix(1, 0, 0, 1, 0, 19.25)">
<path style="fill:#000000;fill-opacity:1" d="M50,-19.25L50 -17.5L72.45 -17.5L72.45 -14.9L82.65 -14.9L82.65 -15.75L95.7 -15.75L95.7 -9L103.7 -9L103.7 -3.95L96 -3.95L96 3.05L74 3.05L74 5.25L58.2 5.25L58.2 14.95L44 14.95L44 -0.05L38.7 -0.05L38.7 19.25L25.5 19.25L25.5 13.05L23.9 13.05L23.9 3.45L13.4 3.45L13.4 5.35L0 5.35L0 -16.05L46.4 -16.05L46.4 -19.25L50 -19.25" />
</g>
</svg>
