<?xml version="1.0" encoding="utf-8"?>
<svg version="1.1" id="Layer_1"
xmlns="http://www.w3.org/2000/svg"
xmlns:xlink="http://www.w3.org/1999/xlink"
xmlns:author="http://www.sothink.com"
width="163px" height="43px"
xml:space="preserve">
<g id="1543" transform="matrix(1, 0, 0, 1, 0, 21.1)">
<path style="fill:#000000;fill-opacity:1" d="M30.85,-15.25L30.85 -15.8L36.7 -15.8L36.7 -16.6L52.75 -16.55L52.75 -18.1L138 -18.1L138 -21.1L143.6 -21.1L143.6 -14.15L162.8 -14.15L162.8 -7.5L145.85 -7.5L145.85 -1L127.85 -1L127.85 2.65L82.75 2.65L82.75 16.35L55 16.35L55 21.35L42.5 21.35L42.5 3.75L18.4 3.75L18.4 8.4L14.3 8.4L14.3 10.5L10.8 10.5L10.8 14.45L0 14.45L0 -17.25L12.9 -17.25L12.9 -15.8L17.5 -15.8L17.5 -15.25L30.85 -15.25" />
</g>
</svg>
