<?xml version="1.0" encoding="utf-8"?>
<svg version="1.1" id="Layer_1"
xmlns="http://www.w3.org/2000/svg"
xmlns:xlink="http://www.w3.org/1999/xlink"
xmlns:author="http://www.sothink.com"
width="170px" height="50px"
xml:space="preserve">
<g id="1549" transform="matrix(1, 0, 0, 1, 0, 24.55)">
<path style="fill:#000000;fill-opacity:1" d="M38.4,-13.2L49.05 -13.2L49.05 -21.25L62.75 -21.25L62.75 -23.35L74.75 -23.35L74.75 -24.55L80.05 -24.55L80.05 -22.55L117.8 -22.55L117.8 -16.2L139.45 -16.2L139.5 -9.85L169.35 -9.85L169.25 0.3L115.35 0.3L115.35 1.55L78.05 1.55L78.05 24.6L61.6 24.6L61.6 11.8L52.1 11.8L52.1 21.9L37.7 21.9L37.7 1.4L26.5 1.4L26.5 7.15L22.85 7.15L22.85 10L8.3 10L8.3 13.95L0 13.95L0 -10.9L6.55 -10.9L6.55 -9.7L38.4 -9.7L38.4 -13.2" />
</g>
</svg>
