<?xml version="1.0" encoding="utf-8"?>
<svg version="1.1" id="Layer_1"
xmlns="http://www.w3.org/2000/svg"
xmlns:xlink="http://www.w3.org/1999/xlink"
xmlns:author="http://www.sothink.com"
width="205px" height="38px"
xml:space="preserve">
<g id="1554" transform="matrix(1, 0, 0, 1, 0.05, 19)">
<path style="fill:#000000;fill-opacity:1" d="M27.95,3.8L27.95 4.05L9.75 4.05L9.75 4.95L-0.05 4.95L-0.05 -15.25L5.95 -15.25L5.95 -12.75L27.95 -12.75L27.95 -11.3L27.95 3.8" />
<path style="fill:#000000;fill-opacity:1" d="M27.95,3.8L27.95 -11.3L92.8 -11.3L92.8 -19L95.4 -19L95.4 -11.4L124.2 -11.4L124.2 -10.1L141.2 -10.1L141.2 -11.4L156.6 -11.4L156.6 -13.1L204.6 -13.1L204.6 5.75L140.75 5.75L140.75 6.75L138.75 6.75L138.75 7.75L136.9 7.75L136.9 19L127.2 19L127.2 12.2L123.6 12.2L123.6 1L109.8 1L109.8 12.2L107.8 12.2L107.8 19L98.7 19L98.7 5L98 5L98 3.8L27.95 3.8" />
</g>
</svg>
