<?xml version="1.0" encoding="utf-8"?>
<svg version="1.1" id="Layer_1"
xmlns="http://www.w3.org/2000/svg"
xmlns:xlink="http://www.w3.org/1999/xlink"
xmlns:author="http://www.sothink.com"
width="77px" height="48px"
xml:space="preserve">
<g id="1536" transform="matrix(1, 0, 0, 1, 0, 23.9)">
<path style="fill:#000000;fill-opacity:1" d="M19.1,11.5L19.1 -2.3L15.9 -2.2L15.9 -6.2L0 -6.2L0 -23.85L16.75 -23.9L16.75 -20.05L31.2 -20.05L31.2 -21.7L62.5 -21.7L62.5 -13.9L76.15 -13.9L76.15 -5.9L61.3 -5.9L61.3 -0.7L42.5 -0.7L42.5 4.7L31.3 4.7L31.3 11.5L19.1 11.5" />
<path style="fill:#000000;fill-opacity:1" d="M19.1,11.5L31.3 11.5L31.35 11.5L31.35 15.4L30.25 15.4L30.25 23.9L23.15 23.9L23.15 18L19.1 18L19.1 11.5" />
</g>
</svg>
