<?xml version="1.0" encoding="utf-8"?>
<svg version="1.1" id="Layer_1"
xmlns="http://www.w3.org/2000/svg"
xmlns:xlink="http://www.w3.org/1999/xlink"
xmlns:author="http://www.sothink.com"
width="70px" height="57px"
xml:space="preserve">
<g id="1569" transform="matrix(1, 0, 0, 1, 0, 28)">
<path style="fill:#000000;fill-opacity:1" d="M5,-27.1L5 -28L6.5 -28L6.5 -27.1L7.5 -27.1L7.5 -23.35L11.65 -23.35L11.65 28.5L0 28.5L0 -23L3.9 -23L3.9 -27.1L5 -27.1" />
<path style="fill:#000000;fill-opacity:1" d="M18.1,-28L18.1 -27.1L19.1 -27.1L19.1 -23.35L23.25 -23.35L23.25 28.5L11.6 28.5L11.6 -23L15.5 -23L15.5 -27.1L16.6 -27.1L16.6 -28L18.1 -28" />
<path style="fill:#000000;fill-opacity:1" d="M30.7,-27.1L30.7 -23.35L34.85 -23.35L34.85 28.5L23.2 28.5L23.2 -23L27.1 -23L27.1 -27.1L28.2 -27.1L28.2 -28L29.7 -28L29.7 -27.1L30.7 -27.1" />
<path style="fill:#000000;fill-opacity:1" d="M38.7,-27.1L39.8 -27.1L39.8 -28L41.3 -28L41.3 -27.1L42.3 -27.1L42.3 -23.35L46.45 -23.35L46.45 28.5L34.8 28.5L34.8 -23L38.7 -23L38.7 -27.1" />
<path style="fill:#000000;fill-opacity:1" d="M53.9,-27.1L53.9 -23.35L58.05 -23.35L58.05 28.5L46.4 28.5L46.4 -23L50.3 -23L50.3 -27.1L51.4 -27.1L51.4 -28L52.9 -28L52.9 -27.1L53.9 -27.1" />
<path style="fill:#000000;fill-opacity:1" d="M65.5,-27.1L65.5 -23.35L69.65 -23.35L69.65 28.25L58 28.25L58 -23L61.9 -23L61.9 -27.1L63 -27.1L63 -28L64.5 -28L64.5 -27.1L65.5 -27.1" />
</g>
</svg>
