<?xml version="1.0" encoding="utf-8"?>
<svg version="1.1" id="Layer_1"
xmlns="http://www.w3.org/2000/svg"
xmlns:xlink="http://www.w3.org/1999/xlink"
xmlns:author="http://www.sothink.com"
width="177px" height="50px"
xml:space="preserve">
<g id="1542" transform="matrix(1, 0, 0, 1, 0, 24.85)">
<path style="fill:#000000;fill-opacity:1" d="M37,-14.1L37 -18L42 -18L42 -22.1L46.4 -22.1L46.4 -21.1L103.4 -21.1L103.4 -19.1L150.5 -19.1L150.5 -24.85L158 -24.85L158 -14.75L176.5 -14.75L176.5 -5.85L158.75 -5.85L158.75 3L114.3 3L114.3 -2.75L95 -2.75L95 -2.8L93.4 -2.8L93.4 5.15L91.1 5.15L91.1 24.8L73.9 24.8L73.9 9.6L73.8 9.6L73.8 5.8L71.8 5.8L71.8 6.3L70.9 6.3L70.9 9.6L69.1 9.6L69.1 11.3L53.4 11.3L53.4 13.5L52.6 13.5L52.6 20.2L38 20.2L38 9.1L41.3 9.1L41.3 3.7L15 3.7L15 7.25L11.25 7.25L11.25 9.05L0 9.05L0 -14.1L37 -14.1" />
</g>
</svg>
