<?xml version="1.0" encoding="utf-8"?>
<svg version="1.1" id="Layer_1"
xmlns="http://www.w3.org/2000/svg"
xmlns:xlink="http://www.w3.org/1999/xlink"
xmlns:author="http://www.sothink.com"
width="149px" height="31px"
xml:space="preserve">
<g id="1546" transform="matrix(1, 0, 0, 1, 0, 11.05)">
<path style="fill:#000000;fill-opacity:1" d="M37.9,-6.4L39.85 -6.4L39.85 -11.05L59.4 -11.05L59.4 -9.95L137.7 -9.95L137.7 -11.05L148.3 -11.05L148.3 -3.3L146.65 -3.3L146.65 4.15L63.4 4.15L63.4 5.65L62.55 5.65L62.55 7.45L57.45 7.45L52.85 7.45L52.85 8.8L51.85 8.8L51.85 18.3L38.8 18.3L38.8 15.7L37.35 15.7L37.35 9.45L27.65 9.45L21.25 9.45L17.35 12.3L17.3 12.35L16.6 12.9L15.1 13.95L8.1 19.1L1.8 19.1L1.85 9.6L0 9.6L0 -4.5L0 -4.95L37.9 -4.95L37.9 -6.4M17.2,9.3L17.2 8.15L16.1 8.15L16.1 9.1L15.1 9.1L15.1 10.25L16.2 10.25L16.2 9.3L17.2 9.3" />
<path style="fill:#000000;fill-opacity:1" d="M16.2,9.1L16.2 9.3L16.2 10.25L15.1 10.25L15.1 9.1L16.1 9.1L16.2 9.1" />
<path style="fill:#000000;fill-opacity:1" d="M16.1,9.1L16.1 8.15L17.2 8.15L17.2 9.3L16.2 9.3L16.2 9.1L16.1 9.1" />
</g>
</svg>
