<?xml version="1.0" encoding="utf-8"?>
<svg version="1.1" id="Layer_1"
xmlns="http://www.w3.org/2000/svg"
xmlns:xlink="http://www.w3.org/1999/xlink"
xmlns:author="http://www.sothink.com"
width="144px" height="50px"
xml:space="preserve">
<g id="1534" transform="matrix(1, 0, 0, 1, 0, 24)">
<path style="fill:#000000;fill-opacity:1" d="M119.95,-2L127.85 -2L127.85 -1.9L98.05 -1.9L98.05 -1L96.35 -1L96.35 7.85L85.75 7.85L85.75 9.7L62.65 9.7L62.65 16.2L56.25 16.2L56.25 22L41.95 22L41.95 10.8L45.75 10.8L45.75 -1.8L43.75 -1.8L43.75 -4L39.15 -4L39.15 -7.6L36.45 -7.6L36.45 -11.7L8.35 -11.7L8.35 -7.6L4.95 -7.6L4.95 -4L4.55 -4L4.55 -1.7L3.05 -1.7L3.05 5.2L0 5.2L0 -17.6L33.15 -17.6L33.15 -23.8L119.95 -23.8L119.95 -2" />
<path style="fill:#000000;fill-opacity:1" d="M127.85,-2L119.95 -2L119.95 -23.8L119.95 -24L143.75 -24L143.75 -2L127.85 -2" />
<path style="fill:#000000;fill-opacity:1" d="M98.05,7.85L98.05 19.3L100.75 19.3L100.75 25.6L87.45 25.6L87.45 22L86.65 22L86.65 16.2L85.75 16.2L85.75 9.7L85.75 7.85L96.35 7.85L98.05 7.85" />
</g>
</svg>
