<?xml version="1.0" encoding="utf-8"?>
<svg version="1.1" id="Layer_1"
xmlns="http://www.w3.org/2000/svg"
xmlns:xlink="http://www.w3.org/1999/xlink"
xmlns:author="http://www.sothink.com"
width="163px" height="45px"
xml:space="preserve">
<g id="1540" transform="matrix(1, 0, 0, 1, 0, 21.8)">
<path style="fill:#000000;fill-opacity:1" d="M25.1,-17.75L35.1 -17.75L35.1 -21.8L56.05 -21.8L56.05 -19.8L148.05 -19.8L148.05 -12.7L162.6 -12.7L162.6 -5L132.6 -5L132.6 -4.25L111.1 -4.25L111.1 -3.2L93.85 -3.2L93.85 18.5L84.75 18.5L84.75 16.4L79.25 16.4L79.25 18.5L76.1 18.5L76.1 17.55L73.25 17.55L73.25 18.5L62.95 18.5L62.95 18.55L53.1 18.55L53.1 22.6L39.85 22.6L39.85 17.25L39.35 17.25L39.35 0.75L17.35 0.75L17.35 5L16.2 5L16.2 17.25L0 17.25L0 10.65L0.95 10.65L0.95 -8.35L0 -8.35L0 -16.5L25.1 -16.5L25.1 -17.75" />
</g>
</svg>
