<?xml version="1.0" encoding="utf-8"?>
<svg version="1.1" id="Layer_1"
xmlns="http://www.w3.org/2000/svg"
xmlns:xlink="http://www.w3.org/1999/xlink"
xmlns:author="http://www.sothink.com"
width="147px" height="51px"
xml:space="preserve">
<g id="1539" transform="matrix(1, 0, 0, 1, 0, 25.1)">
<path style="fill:#000000;fill-opacity:1" d="M15.9,-2.05L15.9 3.9L9.9 3.9L9.9 8.85L0.8 8.85L0.8 -0.4L0.5 -0.4L0 -0.4L0 -15.3L0.5 -15.3L48.8 -15.3L48.8 -18L53 -18L53 -25.1L61.85 -25.1L61.85 -21.3L146.4 -21.3L146.4 -5.65L136.45 -5.65L136.45 0.25L131.35 0.25L84.75 0.25L84.75 4.75L83.8 4.75L83.8 25.1L70.65 25.1L70.65 16.8L69.7 16.8L69.7 8.35L56.4 8.35L56.4 15.3L52.6 15.3L52.6 16.9L42.6 16.9L42.6 7.75L44.7 7.75L44.7 -3.85L18.05 -3.85L18.05 -2.05L15.9 -2.05" />
</g>
</svg>
