<?xml version="1.0" encoding="utf-8"?>
<svg version="1.1" id="Layer_1"
xmlns="http://www.w3.org/2000/svg"
xmlns:xlink="http://www.w3.org/1999/xlink"
xmlns:author="http://www.sothink.com"
width="153px" height="57px"
xml:space="preserve">
<g id="1545" transform="matrix(1, 0, 0, 1, 0, 29)">
<path style="fill:#000000;fill-opacity:1" d="M75,-29L85.75 -29L85.75 -22.25L121.6 -22.25L121.6 -20.35L140.5 -20.35L140.5 -26.25L153 -26.25L153 4L97.75 4L97.75 0L86 0L86 6L81.5 6L81.5 9.5L79.75 9.5L79.75 15.05L68 15.05L68 18.95L64.4 18.95L64.4 21.7L63 21.7L63 24.95L62.4 24.95L62.4 27.05L57.15 27.05L57.15 27.3L50.7 27.3L50.7 4.75L36.1 4.75L36.1 4.85L28.1 4.85L28.1 7.25L12.9 7.25L12.9 13L0 13L0 -18L75 -18L75 -29" />
</g>
</svg>
