<?xml version="1.0" encoding="utf-8"?>
<svg version="1.1" id="Layer_1"
xmlns="http://www.w3.org/2000/svg"
xmlns:xlink="http://www.w3.org/1999/xlink"
xmlns:author="http://www.sothink.com"
width="34px" height="58px"
xml:space="preserve">
<g id="1558" transform="matrix(1, 0, 0, 1, 0, 28.75)">
<path style="fill:#000000;fill-opacity:1" d="M14.15,-25.35L14.15 -28.75L30.75 -28.75L30.75 -7.3L33.45 -7.3L33.45 -3.6L33.3 -3.6L33.3 27.45L32.4 27.45L32.4 27.9L32.35 27.9L32.35 28.75L18.3 28.75L18.3 27L17.25 27L17.25 -1.3L17.2 -1.3L17.2 -3.25L0 -3.25L0 -13.8L0.4 -13.8L0.4 -14.8L1.5 -14.8L1.5 -19.15L5.05 -19.15L5.05 -21.25L9.05 -21.25L9.05 -25.35L14.15 -25.35" />
</g>
</svg>
