<?xml version="1.0" encoding="utf-8"?>
<svg version="1.1" id="Layer_1"
xmlns="http://www.w3.org/2000/svg"
xmlns:xlink="http://www.w3.org/1999/xlink"
xmlns:author="http://www.sothink.com"
width="32px" height="30px"
xml:space="preserve">
<g id="1570" transform="matrix(1, 0, 0, 1, 0, 14.8)">
<path style="fill:#000000;fill-opacity:1" d="M14.8,14.85L14.8 -14.8L24.5 -14.8L24.5 -12.3L29.15 -12.3L29.15 -10.5L31.3 -10.5L31.3 6.25L30.3 6.25L30.3 7.95L29.15 7.95L29.15 8.2L28.7 8.2L28.7 9.9L27.25 9.9L27.25 10.9L26.3 10.9L26.3 11.95L24.8 11.95L24.8 13.8L20.3 13.8L20.3 14.85L14.8 14.85" />
<path style="fill:#000000;fill-opacity:1" d="M14.8,14.85L0 14.85L0 -12.45L6.5 -12.45L6.5 -14.8L14.8 -14.8L14.8 14.85" />
</g>
</svg>
