<?xml version="1.0" encoding="utf-8"?>
<svg version="1.1" id="Layer_1"
xmlns="http://www.w3.org/2000/svg"
xmlns:xlink="http://www.w3.org/1999/xlink"
xmlns:author="http://www.sothink.com"
width="164px" height="52px"
xml:space="preserve">
<g id="1538" transform="matrix(1, 0, 0, 1, 0, 25.25)">
<path style="fill:#000000;fill-opacity:1" d="M0,-0.2L0 -19.3L41.35 -19.3L41.35 -25.25L140.35 -25.25L140.35 -18.3L152.15 -18.3L152.15 -25.25L164 -25.25L164 -11.6L160.5 -11.6L160.5 -10.1L122.2 -10.1L122.2 -6.15L118.1 -6.15L87.8 -6.15L87.8 -2L88.15 -2L88.15 3.05L89.3 3.05L89.3 4.85L91.15 4.85L91.15 7L92.25 7L92.25 8.05L93.3 8.05L93.3 9.05L95.3 9.05L95.3 9.9L96.4 9.9L96.4 11.25L100.5 11.25L100.5 19.15L98.5 19.15L98.5 21.4L95.5 21.4L95.5 26.1L86.35 26.1L86.35 22.5L83.35 22.5L83.35 20.5L80.35 20.5L80.35 16.5L73.5 16.5L73.5 10.65L72 10.65L72 4.9L68.5 4.9L68.5 -0.85L57.5 -0.85L57.5 5.65L55.25 5.65L55.25 10.65L37.75 10.65L37.75 -0.2L0 -0.2" />
</g>
</svg>
