<?xml version="1.0" encoding="utf-8"?>
<svg version="1.1" id="Layer_1"
xmlns="http://www.w3.org/2000/svg"
xmlns:xlink="http://www.w3.org/1999/xlink"
xmlns:author="http://www.sothink.com"
width="142px" height="48px"
xml:space="preserve">
<g id="1544" transform="matrix(1, 0, 0, 1, 0, 23.6)">
<path style="fill:#000000;fill-opacity:1" d="M27,-11.8L27 -12.8L35 -12.8L35 -15.8L45.9 -15.8L45.9 -23.6L58.7 -23.6L58.7 -15.9L114.7 -15.9L114.7 -23.6L122.4 -23.6L122.4 -16.25L141.5 -16.25L141.5 -5.3L130.4 -5.3L130.4 5.75L81.5 5.7L81.5 23.65L65.8 23.65L65.8 12.9L64.4 12.9L64.4 9.9L52.6 9.9L52.6 23.65L40.5 23.65L38 20.5L38 15.8L39.8 15.8L39.8 12.2L41.1 12.2L41.1 9.7L42.9 9.7L42.9 3.7L39.8 3.7L39.8 3.1L38 3.1L38 2.9L31 2.9L31 6.35L10.1 6.35L10.1 7.3L4.1 7.3L4.1 9L0 8.95L0 -11.8L27 -11.8" />
</g>
</svg>
