<?xml version="1.0" encoding="utf-8"?>
<svg version="1.1" id="Layer_1"
xmlns="http://www.w3.org/2000/svg"
xmlns:xlink="http://www.w3.org/1999/xlink"
xmlns:author="http://www.sothink.com"
width="56px" height="50px"
xml:space="preserve">
<g id="747" transform="matrix(1, 0, 0, 1, -6.55, -11.3)">
<path style="fill:#FF0000;fill-opacity:0.8" d="M61.15,32.05Q61.8 34.3 61.8 38.75Q61.8 45.05 57.55 51.3Q51.1 60.8 38 60.8Q24.2 60.8 17.8 50Q14.05 43.6 14.05 37.9Q14.05 30.95 15.6 27.9Q17.45 24.3 25.55 16.25Q23.75 14.85 14.65 14.2Q6.55 13.6 6.55 12.1Q6.55 10.8 20.6 11.55L34.75 12.55Q37.3 12.55 37.75 13.9Q38 14.7 37.55 15.5Q54.6 23.95 58.05 27.15Q60.35 29.35 61.15 32.05M58.05,38.75Q58.05 32.6 51.75 26.55Q45.7 20.75 37.95 18.85Q29.45 16.75 24.1 20.85Q17.8 25.65 17.8 37.9Q17.8 42.5 21.25 48.05Q26.75 57 37.9 57Q50.15 57 55.3 48.3Q58.05 43.6 58.05 38.75" />
</g>
</svg>
