<?xml version="1.0" encoding="utf-8"?>
<svg version="1.1" id="Layer_1"
xmlns="http://www.w3.org/2000/svg"
xmlns:xlink="http://www.w3.org/1999/xlink"
xmlns:author="http://www.sothink.com"
width="298px" height="286px"
xml:space="preserve">
<g id="734" transform="matrix(1, 0, 0, 1, 146, 140)">
<path style="fill:#000000;fill-opacity:0.247059" d="M117.4,-137L117.4 -42.95L151.15 -42.95L151.15 145.05L-101.15 145.05L-101.15 121.9L94.6 121.9L94.6 -137L117.4 -137" />
<path style="fill:#000000;fill-opacity:1" d="M-79,-140L-79 141.5L-111 141.5L-111 48.5L-112 48.5L-112 47.05L-146 47.05L-146 -140L-79 -140" />
<path style="fill:#000000;fill-opacity:1" d="M-79,-140L114.05 -140L114.05 -45.5L146.95 -45.5L146.95 141.5L-79 142L-79 141.5L-79 -140" />
</g>
</svg>
