<?xml version="1.0" encoding="utf-8"?>
<svg version="1.1" id="Layer_1"
xmlns="http://www.w3.org/2000/svg"
xmlns:xlink="http://www.w3.org/1999/xlink"
xmlns:author="http://www.sothink.com"
width="229px" height="200px"
xml:space="preserve">
<g id="750" transform="matrix(1, 0, 0, 1, 121, 106.05)">
<path style="fill:#000000;fill-opacity:0.247059" d="M80.65,-91L79.7 -94L79.25 -95.8L80 -95L80.65 -91M102.2,84.05L94 7.05L71.35 7.05L71.35 7L94.05 7L90.95 -26.4L108 80.75L108 93.9L-32 85L-31.35 84.05L102.2 84.05" />
<path style="fill:#000000;fill-opacity:1" d="M71.35,7.05L94 7.05L102.2 84.05L-31.35 84.05L-39.7 84.05Q-43.7 78.05 -66.75 65.65Q-70.35 63.7 -72.65 60.3Q-73.75 58.65 -75.85 54.15Q-76.55 52.6 -79.75 49.35Q-83.6 45.45 -85.1 43.3Q-87.95 39.2 -91.2 31.95Q-95.2 22.95 -96.85 20.05Q-99.7 14.9 -100.65 13.6Q-103.05 10.5 -106.6 8.9L-110.25 7.1L71.35 7.05" />
<path style="fill:#000000;fill-opacity:1" d="M76.7,-106.05Q78.2 -98.9 79.25 -94.8L79.7 -93L80.65 -90Q82.55 -84.35 86 -77.95L90.95 -25.4L94 7.1L-103.55 7.1L-111.9 0.85Q-121.25 -6.15 -121 -7.15L-121 -66.9Q-119.6 -67.55 -118.45 -68.55Q-117.5 -69.4 -113.45 -74.55Q-106.2 -83.85 -92.25 -85.7L-62.2 -90.75Q-36.55 -95.35 -32.25 -96.7L-7 -96.95L16.35 -100.6Q32.25 -103.05 41.55 -105.05L45.95 -106.05L76.7 -106.05" />
</g>
</svg>
