<?xml version="1.0" encoding="utf-8"?>
<svg version="1.1" id="Layer_1"
xmlns="http://www.w3.org/2000/svg"
xmlns:xlink="http://www.w3.org/1999/xlink"
xmlns:author="http://www.sothink.com"
width="656px" height="282px"
xml:space="preserve">
<g id="737" transform="matrix(1, 0, 0, 1, 0.45, 20)">
<path style="fill:#000000;fill-opacity:0.247059" d="M190,247.15L641.15 247.15L641.15 -17L654.9 -17L654.9 261.25L190 261.25L190 247.15" />
<path style="fill:#000000;fill-opacity:1" d="M187,-20L651.9 -20L651.9 258.25L187 258.25L187 -20" />
<path style="fill:#000000;fill-opacity:0.247059" d="M418.75,17.75Q416.45 23.65 404.95 37.2Q394.8 49.2 394.25 55.25Q391.15 88.15 369.25 130.25Q365.55 137.45 362.1 148.1L356.65 166.05L339.8 203.5L338.5 205.25Q331.5 214.55 327 224.4Q324.45 230.05 323.05 235.15L2.55 234.85L2.55 3.2L414.55 4.15Q421.95 9.55 418.75 17.75" />
<path style="fill:#000000;fill-opacity:1" d="M415.75,15.75Q413.45 21.65 398.95 33.8Q384.45 45.95 375.3 64.55Q366.1 83.1 364.35 109.3Q362.55 135.45 359.1 146.1L353.65 164.05L336.8 201.5L335.5 203.25Q328.5 212.55 324 222.4Q321.45 228.05 320.05 233.15L-0.45 232.85L-0.45 1.2L422.1 2.15Q418.95 7.55 415.75 15.75" />
</g>
</svg>
