<?xml version="1.0" encoding="utf-8"?>
<svg version="1.1" id="Layer_1"
xmlns="http://www.w3.org/2000/svg"
xmlns:xlink="http://www.w3.org/1999/xlink"
xmlns:author="http://www.sothink.com"
width="52px" height="52px"
xml:space="preserve">
<g id="732" transform="matrix(1, 0, 0, 1, 27.95, -64.35)">
<path style="fill:#FF0000;fill-opacity:0.694118" d="M6.65,88.8L-7.65 99.75L-14.05 105.45L-8.75 105.45Q-7.15 106.25 -5.45 107.95L-6.15 109.25Q-7.05 110.5 -8.75 111.7L-19.7 111.7L-20.45 112.65L-20.9 112.8Q-21.85 115.45 -24.35 115.45Q-27.5 115.45 -27.65 115Q-27.95 115.15 -27.95 112Q-27.95 109.55 -26.8 103.6Q-25.55 97.4 -24.2 93.5Q-20.5 82.75 -20.45 101.6L-7.15 89.15L20 64.35L22.1 64.85Q23.1 65.25 23.1 67.15Q23.1 72.65 18.3 78.35Q14.75 82.6 6.65 88.8" />
</g>
</svg>
