<?xml version="1.0" encoding="utf-8"?>
<svg version="1.1" id="Layer_1"
xmlns="http://www.w3.org/2000/svg"
xmlns:xlink="http://www.w3.org/1999/xlink"
xmlns:author="http://www.sothink.com"
width="295px" height="193px"
xml:space="preserve">
<g id="741" transform="matrix(1, 0, 0, 1, 155.85, 98)">
<path style="fill:#000000;fill-opacity:0.247059" d="M139.15,-94.45L139.15 94.05L-126 94.05L-126 77.5L127.75 77.5L127.75 -94.45L139.15 -94.45" />
<path style="fill:#000000;fill-opacity:1" d="M135.15,90L-120.85 90L-120.85 -98L135.15 -98L135.15 90" />
<path style="fill:#000000;fill-opacity:1" d="M-98.6,-98L-98.6 90L-131.1 90L-131.1 -98L-98.6 -98" />
<path style="fill:#FF0000;fill-opacity:0.694118" d="M-104.8,-7.05Q-104.8 -1.55 -109.6 4.15Q-113.15 8.4 -121.25 14.6L-135.55 25.55Q-139.1 28.45 -141.95 31.25L-136.65 31.25Q-135.05 32.05 -133.35 33.75L-134.05 35.05Q-134.95 36.3 -136.65 37.5L-147.6 37.5L-148.35 38.45L-148.8 38.6Q-149.75 41.25 -152.25 41.25Q-155.4 41.25 -155.55 40.8Q-155.85 40.95 -155.85 37.8Q-155.85 35.35 -154.7 29.4Q-153.45 23.2 -152.1 19.3Q-148.4 8.55 -148.35 27.4L-135.05 14.95L-107.9 -9.85L-105.8 -9.35Q-104.8 -8.95 -104.8 -7.05" />
</g>
</svg>
