<?xml version="1.0" encoding="utf-8"?>
<svg version="1.1" id="Layer_1"
xmlns="http://www.w3.org/2000/svg"
xmlns:xlink="http://www.w3.org/1999/xlink"
xmlns:author="http://www.sothink.com"
width="64px" height="79px"
xml:space="preserve">
<g id="751" transform="matrix(1, 0, 0, 1, -3.55, -14.65)">
<path style="fill:#FF0000;fill-opacity:0.8" d="M35.5,20.05Q37.3 20.6 37.3 22Q37.3 23.1 36.05 23.4L25.5 24.05Q51.35 30.55 60.85 43.55Q66.8 51.65 66.8 64.6Q66.8 73.5 63.9 78.95Q59.85 86.45 48.5 92.8L35.5 92.8Q11.95 83.5 6.2 74.35Q3.9 70.65 3.55 65.8L3.55 56.6Q3.55 44.3 4.45 40.4Q6.3 32 14 23.8Q13.15 22.5 8.05 20.1Q3.55 18 3.55 16.35Q3.55 12.85 10.35 16.6Q13.85 18.5 18.25 21.5L23 20.05L35.5 20.05M9.8,38.55L8 47.8Q7.3 52.45 7.3 56.6L7.1 65.15Q7.2 69.1 9 71.9Q13.1 78.2 34.55 89L48.75 88.8Q57.9 82 60.8 76.45Q63.05 72.15 63.05 64.6Q63.05 54.15 58.1 47.6Q50.75 37.8 30 29.5Q17.55 24.5 13 29.9Q10.55 32.8 9.8 38.55" />
</g>
</svg>
