<?xml version="1.0" encoding="utf-8"?>
<svg version="1.1" id="Layer_1"
xmlns="http://www.w3.org/2000/svg"
xmlns:xlink="http://www.w3.org/1999/xlink"
xmlns:author="http://www.sothink.com"
width="156px" height="28px"
xml:space="preserve">
<g id="728" transform="matrix(1, 0, 0, 1, 76.35, 11.4)">
<path style="fill:#000000;fill-opacity:1" d="M64.15,-1.95L65.45 -0.55Q66.1 0.3 66 1.8Q65.85 5.3 71.15 9.2Q75.9 12.7 79.1 12.8L76.9 13.8L-76.35 16.3Q-74.8 15.6 -73.15 14.7Q-65.05 10.2 -62.75 3.25Q-60.5 -3.6 -51.75 -5.1L-45.65 -6.15Q-42.8 -7.05 -42.1 -9.2L-40.1 -9.2L-30.05 -9.5L-20.1 -10.2L58.9 -10.2Q58.8 -10.05 60.9 -10.85Q63.05 -11.7 63 -11.2Q62.3 -4.2 64.15 -1.95" />
</g>
</svg>
