<?xml version="1.0" encoding="utf-8"?>
<svg version="1.1" id="Layer_1"
xmlns="http://www.w3.org/2000/svg"
xmlns:xlink="http://www.w3.org/1999/xlink"
xmlns:author="http://www.sothink.com"
width="296px" height="224px"
xml:space="preserve">
<g id="733" transform="matrix(1, 0, 0, 1, 147, 111)">
<path style="fill:#000000;fill-opacity:0.247059" d="M141.8,-95.35L141.55 -88.05L148.95 -87.25L148.95 -8.6L141.85 100.2L120.85 99.2L120.8 112.75L-144 112.75L-144 73.4L122.65 73.4L122.65 -95.35L141.8 -95.35" />
<path style="fill:#000000;fill-opacity:1" d="M-77.5,-103.9L-77.5 110.1L-146.95 110.1L-147 -77.7L-143.05 -77.7L-143.05 -95L-126.05 -95L-126.05 -97.95L-113.8 -97.95L-113.8 -106L-77.95 -103.95L-77.5 -103.9" />
<path style="fill:#000000;fill-opacity:1" d="M148.95,-89.55L137 98L116 97L115.75 110L-78 110L-78 -103.9L-37 -101L119 -111L120.25 -97.55L137 -98L137.25 -89.55L148.95 -89.55" />
</g>
</svg>
