<?xml version="1.0" encoding="utf-8"?>
<svg version="1.1" id="Layer_1"
xmlns="http://www.w3.org/2000/svg"
xmlns:xlink="http://www.w3.org/1999/xlink"
xmlns:author="http://www.sothink.com"
width="267px" height="471px"
xml:space="preserve">
<g id="739" transform="matrix(1, 0, 0, 1, 132, 375.3)">
<path style="fill:#000000;fill-opacity:0.4" d="M134.05,95.5L-130 95.5L-130 -91.55L134.05 -91.55L134.05 95.5" />
<path style="fill:#000000;fill-opacity:1" d="M132.05,93.5L-132 93.5L-132 -93.55L132.05 -93.55L132.05 93.5" />
<path style="fill:#FF0000;fill-opacity:0.8" d="M55.95,-372.75Q56.4 -372.55 56.4 -370.6Q56.4 -367.95 51.5 -362.8L66.4 -351.55L66.4 -349.65L66.7 -349.2Q66.6 -348.75 64.65 -348.75Q62.05 -348.75 50.1 -358.5L50.05 -358.5Q23.2 -314 7 -284.65Q-16.35 -242.5 -31.7 -207.45Q-69.15 -121.9 -70 -52.65L-72.15 -52.5Q-72.8 -56.25 -72.8 -65.6Q-72.8 -125 -30.75 -218Q-13.05 -257.1 9.55 -296.05Q29.7 -330.85 49.85 -358.7L48.45 -359.9L40.15 -352.5L39.9 -352.25Q39.65 -352.4 39.65 -354.35Q39.65 -357.75 44.35 -363.35L32.15 -373.75Q32.35 -374.25 33.1 -374.75L33.75 -375.3L46.9 -366.25Q51.2 -370.65 55.45 -372.5L55.95 -372.75" />
</g>
</svg>
