<?xml version="1.0" encoding="utf-8"?>
<svg version="1.1" id="Layer_1"
xmlns="http://www.w3.org/2000/svg"
xmlns:xlink="http://www.w3.org/1999/xlink"
xmlns:author="http://www.sothink.com"
width="119px" height="114px"
xml:space="preserve">
<g id="729" transform="matrix(1, 0, 0, 1, -0.15, 83.75)">
<path style="fill:#FF0000;fill-opacity:0.8" d="M32.75,-40.4L26.35 -29.5Q24.5 -25.35 24.5 -17.2Q24.5 -7.5 37.3 3.4Q51.45 15.4 74.5 22.4L101.25 22.15Q105.8 18.85 108.7 5.4Q111 -5.2 111 -13.35Q111 -28.9 100.6 -39.1Q89.5 -50 56.5 -65.45Q53.7 -66.75 44.95 -57.45Q39.75 -51.95 37 -47.9L32.35 -52.1L31.5 -52.85Q37.35 -59.75 46.25 -68.45Q40.5 -70.4 31.45 -71.25L16.45 -72.25Q8.35 -72.85 4.8 -74.05Q0.15 -75.65 0.15 -79.2Q0.15 -82.45 1.15 -83.3L5.15 -83.5L13.4 -81.7Q20.15 -80.3 27.25 -79.7L40.1 -77.35L51.75 -75.2L56.05 -77Q60.35 -78.9 61.75 -79.2L73.75 -79.2Q75.85 -78.6 76.85 -77.2Q77.5 -76.25 77.5 -75.3Q77.5 -73.5 75.3 -72.65Q71.9 -71.35 62.25 -71.2Q98 -52.05 108.65 -40.7Q114.35 -34.65 116.55 -27.9Q118.5 -22 118.5 -13.1Q118.5 -0.3 115.85 9.8Q111.9 24.85 102.75 30.15L74.75 30.15Q17.15 9.75 17.15 -16.7Q17.15 -31 23.35 -41.75L25.9 -45.65L32.75 -40.4" />
<path style="fill:#FF0000;fill-opacity:0.694118" d="M45.7,-40.05Q49.2 -37.1 52.45 -34.8L51.5 -40Q52 -41.7 53.35 -43.7L54.8 -43.25L57.65 -41.15L59.65 -30.4L60.75 -29.8L61 -29.4Q63.75 -28.95 64.2 -26.5Q64.8 -23.4 64.35 -23.15Q64.55 -22.9 61.45 -22.3L53 -21.9L42.6 -22.6Q31.35 -24.3 49.9 -27.8Q44.3 -31.65 35.2 -38.55Q33.95 -39.5 32.75 -40.4L25.9 -45.65L5.85 -60.75L5.95 -62.9Q6.15 -63.95 8 -64.3Q13.4 -65.3 19.95 -61.65Q24.5 -59.05 31.5 -52.85L32.35 -52.1L37 -47.9L45.7 -40.05" />
</g>
</svg>
