<?xml version="1.0" encoding="utf-8"?>
<svg version="1.1" id="Layer_1"
xmlns="http://www.w3.org/2000/svg"
xmlns:xlink="http://www.w3.org/1999/xlink"
xmlns:author="http://www.sothink.com"
width="583px" height="68px"
xml:space="preserve">
<g id="1610" transform="matrix(1, 0, 0, 1, 283.5, 35)">
<linearGradient
id="LinearGradID_67" gradientUnits="userSpaceOnUse" gradientTransform="matrix(0.355225, 0, 0, 0.0012207, 8, -34)" spreadMethod ="pad" x1="-819.2" y1="0" x2="819.2" y2="0" >
<stop  offset="0" style="stop-color:#000000;stop-opacity:0" />
<stop  offset="0.203922" style="stop-color:#999999;stop-opacity:1" />
<stop  offset="0.752941" style="stop-color:#999999;stop-opacity:1" />
<stop  offset="1" style="stop-color:#000000;stop-opacity:0" />
</linearGradient>
<path style="fill:url(#LinearGradID_67) " d="M-282.5,-33L-282.85 -33.3L-283 -33.95L-283 -34L-282.85 -34.7L-282.5 -35L298.5 -35L298.85 -34.7L299 -34L298.85 -33.3Q298.7 -33 298.5 -33L298 -33L-282.5 -33" />
<linearGradient
id="LinearGradID_68" gradientUnits="userSpaceOnUse" gradientTransform="matrix(0.355225, 0, 0, 0.0012207, 7.5, 31.5)" spreadMethod ="pad" x1="-819.2" y1="0" x2="819.2" y2="0" >
<stop  offset="0" style="stop-color:#000000;stop-opacity:0" />
<stop  offset="0.203922" style="stop-color:#999999;stop-opacity:1" />
<stop  offset="0.752941" style="stop-color:#999999;stop-opacity:1" />
<stop  offset="1" style="stop-color:#000000;stop-opacity:0" />
</linearGradient>
<path style="fill:url(#LinearGradID_68) " d="M298,30.5L298.35 30.8L298.5 31.5L298.35 32.2L298 32.5L-283 32.5L-283.35 32.2L-283.5 31.5L-283.35 30.8L-283 30.5L298 30.5" />
<linearGradient
id="LinearGradID_69" gradientUnits="userSpaceOnUse" gradientTransform="matrix(0.354614, 0, 0, 0.0402832, 7.5, -2)" spreadMethod ="pad" x1="-819.2" y1="0" x2="819.2" y2="0" >
<stop  offset="0" style="stop-color:#000000;stop-opacity:0" />
<stop  offset="0.372549" style="stop-color:#000000;stop-opacity:1" />
<stop  offset="0.556863" style="stop-color:#000000;stop-opacity:1" />
<stop  offset="1" style="stop-color:#000000;stop-opacity:0" />
</linearGradient>
<path style="fill:url(#LinearGradID_69) " d="M-283,30.5L-283 -33.95L-282.85 -33.3L-282.5 -33L298 -33L298 30.5L-283 30.5" />
</g>
</svg>
