<?xml version="1.0" encoding="utf-8"?>
<svg version="1.1" id="Layer_1"
xmlns="http://www.w3.org/2000/svg"
xmlns:xlink="http://www.w3.org/1999/xlink"
xmlns:author="http://www.sothink.com"
width="29px" height="22px"
xml:space="preserve">
<g id="519" transform="matrix(1, 0, 0, 1, 0, -1)">
<path style="fill:#000000;fill-opacity:1" d="M26.1,4L24.65 3L23.1 2.4L21.55 2.05L7.2 2.05L5.65 2.4L4.05 3L4 3L2.6 4L1.65 4.95L1 6.2L1 20.1L1.3 20.95L1.9 21.7L2.75 22L25.95 22L26.75 21.7L27.4 20.95L27.65 20.1L27.65 6.2L27 4.95L26.1 4M28.6,5.85L28.65 6.1L28.65 20.15L28.65 20.3L28.3 21.35L28.2 21.5L27.45 22.4L27.25 22.6L26.25 23L26.05 23L2.6 23L2.45 23L1.45 22.6L1.2 22.4L0.45 21.5L0.4 21.35L0.05 20.3L0 20.15L0 6.1L0.1 5.85L0.85 4.4L0.9 4.3L1.95 3.2L2.05 3.15L3.5 2.15L3.6 2.1L5.3 1.45L5.4 1.4L7.05 1L21.55 1L21.7 1.05L23.35 1.45L23.4 1.45L25.1 2.1L25.2 2.15L26.65 3.15L27.75 4.3L27.85 4.4L28.6 5.85" />
<path style="fill:#484848;fill-opacity:1" d="M27,4.95L27.65 6.2L27.65 20.1L27.4 20.95L26.75 21.7L25.95 22L2.75 22L1.9 21.7L1.3 20.95L1 20.1L1 6.2L1.65 4.95L2.6 4L4 3L4.05 3L5.65 2.4L7.2 2.05L21.55 2.05L23.1 2.4L24.65 3L26.1 4L27 4.95" />
</g>
</svg>
