<?xml version="1.0" encoding="utf-8"?>
<svg version="1.1" id="Layer_1"
xmlns="http://www.w3.org/2000/svg"
xmlns:xlink="http://www.w3.org/1999/xlink"
xmlns:author="http://www.sothink.com"
width="23px" height="23px"
xml:space="preserve">
<g id="524" transform="matrix(1, 0, 0, 1, 3, 3)">
<path style="fill:none;stroke-width:4.5;stroke-linecap:square;stroke-linejoin:miter;stroke-miterlimit:3;stroke:#000000;stroke-opacity:1" d="M0,8.25Q0 4.8 2.4 2.4Q4.85 0 8.25 0Q11.7 0 14.1 2.4Q16.5 4.8 16.5 8.25Q16.5 11.65 14.1 14.05Q11.7 16.5 8.25 16.5Q4.85 16.5 2.4 14.05Q0 11.65 0 8.25z" />
<path style="fill:#CD2A46;fill-opacity:1" d="M17.75,8.25Q17.75 12.15 15 14.95Q12.25 17.75 8.25 17.75Q4.35 17.75 1.55 14.95Q-1.25 12.15 -1.25 8.25Q-1.25 4.3 1.55 1.55L1.55 1.5Q4.35 -1.25 8.25 -1.25Q12.2 -1.25 15 1.55Q17.75 4.3 17.75 8.25M13.25,3.3Q11.2 1.25 8.25 1.25Q5.35 1.25 3.3 3.3Q1.25 5.3 1.25 8.25Q1.25 11.15 3.3 13.2Q5.35 15.25 8.25 15.25Q11.15 15.25 13.2 13.2L13.25 13.2Q15.25 11.15 15.25 8.25Q15.25 5.3 13.25 3.3" />
</g>
</svg>
