<?xml version="1.0" encoding="utf-8"?>
<svg version="1.1" id="Layer_1"
xmlns="http://www.w3.org/2000/svg"
xmlns:xlink="http://www.w3.org/1999/xlink"
xmlns:author="http://www.sothink.com"
width="263px" height="361px"
xml:space="preserve">
<g id="1506" transform="matrix(1, 0, 0, 1, -190.5, 0)">
<path style="fill:#212121;fill-opacity:1" d="M442.45,360.05L198.45 360.05L198.45 267.05L442.45 267.05L442.45 360.05M442.45,238L198.45 238L198.45 0L442.45 0L442.45 238" />
<path style="fill:#D30505;fill-opacity:1" d="M451.7,159L451.7 207.2Q451.7 211.5 448.7 214.55Q445.65 217.6 441.35 217.6L201.85 217.6Q197.55 217.6 194.55 214.55Q191.5 211.5 191.5 207.2L191.5 159Q191.5 154.65 194.55 151.65Q197.55 148.6 201.85 148.6L441.35 148.6Q445.65 148.6 448.7 151.65Q451.7 154.65 451.7 159" />
<path style="fill:#A50808;fill-opacity:1" d="M448,152.3Q445.25 149.6 441.35 149.6L201.85 149.6Q197.95 149.6 195.2 152.3Q192.45 155.1 192.45 159L192.45 207.2Q192.45 211.1 195.2 213.85Q197.95 216.6 201.85 216.6L441.35 216.6Q445.25 216.6 448 213.85Q450.7 211.1 450.7 207.2L450.7 159Q450.7 155.1 448 152.3M452.7,159L452.7 207.2Q452.7 211.9 449.35 215.25Q446.05 218.6 441.35 218.6L201.85 218.6Q197.15 218.6 193.85 215.25Q190.5 211.9 190.5 207.2L190.5 159Q190.5 154.25 193.85 150.95Q197.15 147.6 201.85 147.6L441.35 147.6Q446.05 147.6 449.35 150.95Q452.7 154.25 452.7 159" />
</g>
</svg>
