<?xml version="1.0" encoding="utf-8"?>
<svg version="1.1" id="Layer_1"
xmlns="http://www.w3.org/2000/svg"
xmlns:xlink="http://www.w3.org/1999/xlink"
xmlns:author="http://www.sothink.com"
width="227px" height="42px"
xml:space="preserve">
<g id="1508" transform="matrix(1, 0, 0, 1, -208.75, -161.15)">
<path style="fill:#A50808;fill-opacity:1" d="M209.8,164.15Q210.45 163.5 211.3 163.5L216.1 163.5Q217 163.5 217.6 164.15Q218.25 164.8 218.25 165.65L218.25 191.2Q218.25 193.15 218.8 193.7Q219.3 194.15 220.85 194.15L229.75 194.15Q230.7 194.15 231.3 194.8Q231.95 195.45 231.95 196.3L231.95 199.4Q231.95 201.3 230 201.6L226.1 202.1L221.55 202.3Q216.05 202.3 213.2 200.45Q209.15 197.8 209.15 191.2L209.15 165.65Q209.15 164.8 209.8 164.15" />
<path style="fill:#A50808;fill-opacity:1" d="M209.55,165.65L209.55 191.2Q209.55 197.6 213.35 200.1Q216.05 201.9 221.55 201.9L226.05 201.7L229.95 201.25Q230.7 201.05 231.05 200.75Q231.55 200.3 231.55 199.4L231.55 196.3Q231.55 195.6 231.05 195.1Q230.5 194.55 229.75 194.55L220.85 194.55Q219.15 194.55 218.55 193.95Q217.85 193.25 217.85 191.2L217.85 165.65Q217.85 164.95 217.35 164.45Q216.85 163.9 216.1 163.9L211.3 163.9Q210.6 163.9 210.05 164.45Q209.55 164.95 209.55 165.65M211.3,163.1L216.1 163.1Q217.2 163.1 217.95 163.9Q218.65 164.65 218.65 165.65L218.65 191.2Q218.65 193 219.15 193.45L220.85 193.8L229.75 193.8Q230.85 193.8 231.6 194.55Q232.35 195.3 232.35 196.3L232.35 199.4Q232.35 201.6 230.1 202L226.1 202.5L221.55 202.7Q215.85 202.7 212.95 200.75Q208.75 198.05 208.75 191.2L208.75 165.65Q208.75 164.65 209.5 163.9Q210.25 163.1 211.3 163.1" />
<path style="fill:#A50808;fill-opacity:1" d="M242.1,162.15Q242.75 162.8 242.75 163.7L242.75 167.95Q242.75 168.9 242.1 169.5Q241.5 170.15 240.6 170.15L235.9 170.15Q235 170.15 234.35 169.5Q233.7 168.9 233.7 167.95L233.7 163.7Q233.7 162.85 234.35 162.15Q235 161.55 235.9 161.55L240.6 161.55Q241.5 161.55 242.1 162.15" />
<path style="fill:#A50808;fill-opacity:1" d="M240.6,161.95L235.9 161.95Q235.15 161.95 234.65 162.5Q234.1 163 234.1 163.7L234.1 167.95Q234.1 168.7 234.65 169.25Q235.15 169.75 235.9 169.75L240.6 169.75Q241.3 169.75 241.85 169.25Q242.35 168.7 242.35 167.95L242.35 163.7Q242.35 162.95 241.85 162.45Q241.3 161.95 240.6 161.95M243.15,163.7L243.15 167.95Q243.15 169.05 242.4 169.8Q241.65 170.55 240.6 170.55L235.9 170.55Q234.85 170.55 234.05 169.8Q233.3 169 233.3 167.95L233.3 163.7Q233.3 162.7 234.05 161.9Q234.85 161.15 235.9 161.15L240.6 161.15Q241.65 161.15 242.4 161.9Q243.15 162.65 243.15 163.7" />
<path style="fill:#A50808;fill-opacity:1" d="M241.95,172.8Q242.6 173.45 242.6 174.35L242.6 199.75Q242.6 200.65 241.95 201.3Q241.3 201.9 240.45 201.9L236 201.9Q235.15 201.9 234.45 201.3Q233.8 200.65 233.8 199.75L233.8 174.35Q233.8 173.5 234.45 172.8Q235.15 172.2 236 172.2L240.45 172.2Q241.3 172.2 241.95 172.8" />
<path style="fill:#A50808;fill-opacity:1" d="M234.15,172.55Q234.95 171.8 236 171.8L240.45 171.8Q241.5 171.8 242.25 172.55Q243 173.3 243 174.35L243 199.75Q243 200.75 242.25 201.55Q241.5 202.3 240.45 202.3L236 202.3Q234.95 202.3 234.15 201.55Q233.4 200.75 233.4 199.75L233.4 174.35Q233.4 173.3 234.15 172.55M234.2,174.35L234.2 199.75Q234.2 200.45 234.75 201Q235.3 201.5 236 201.5L240.45 201.5Q241.15 201.5 241.7 201Q242.2 200.45 242.2 199.75L242.2 174.35Q242.2 173.6 241.7 173.1Q241.2 172.55 240.45 172.55L236 172.55Q235.25 172.55 234.75 173.1Q234.2 173.6 234.2 174.35" />
<path style="fill:#A50808;fill-opacity:1" d="M262.1,162.45L262.3 162.5Q264.05 162.95 264.05 164.4L264.05 167.3Q264.05 168.2 263.45 168.75Q262.9 169.3 262.15 169.3L260 169.3L258.5 169.5Q258.3 169.7 258.3 171L258.3 172.2L261.75 172.2Q262.7 172.2 263.3 172.8Q263.95 173.5 263.95 174.35L263.95 177.25Q263.95 178.15 263.3 178.75Q262.7 179.35 261.75 179.35L258.3 179.35L258.3 199.75Q258.3 200.6 257.7 201.3Q257.05 201.9 256.15 201.9L251.75 201.9Q250.85 201.9 250.15 201.3Q249.55 200.65 249.55 199.75L249.55 179.2L246.25 178.7Q245.35 178.55 244.75 177.95Q244.25 177.4 244.25 176.6L244.25 174.35Q244.25 173.45 244.9 172.8Q245.55 172.2 246.4 172.2L249.55 172.2L249.55 171Q249.55 165.7 252.7 163.55Q254.85 162.05 259.1 162.05L262.1 162.45" />
<path style="fill:#A50808;fill-opacity:1" d="M259.1,162.45Q254.95 162.45 252.85 163.9Q249.95 165.9 249.95 171L249.95 172.55L246.4 172.55Q245.7 172.55 245.15 173.1Q244.65 173.6 244.65 174.35L244.65 176.6Q244.65 177.95 246.3 178.3L249.95 178.85L249.95 199.75Q249.95 200.45 250.5 201Q251 201.5 251.75 201.5L256.15 201.5Q256.9 201.5 257.4 201Q257.9 200.45 257.9 199.75L257.9 178.95L261.75 178.95Q262.5 178.95 263.05 178.5Q263.55 177.95 263.55 177.25L263.55 174.35Q263.55 173.6 263.05 173.1Q262.5 172.55 261.75 172.55L257.9 172.55L257.9 171Q257.9 169.55 258.25 169.25Q258.6 168.9 260 168.9L262.15 168.9Q262.75 168.9 263.2 168.5Q263.65 168.05 263.65 167.3L263.65 164.4Q263.65 163.25 262.15 162.85L262 162.8L259.1 162.45M264.45,164.4L264.45 167.3Q264.45 168.4 263.75 169.1Q263.1 169.7 262.15 169.7L260 169.7L258.85 169.8Q258.7 169.85 258.7 171L258.7 171.8L261.75 171.8Q262.85 171.8 263.6 172.55Q264.35 173.3 264.35 174.35L264.35 177.25Q264.35 178.35 263.6 179.05Q262.9 179.75 261.75 179.75L258.7 179.75L258.7 199.75Q258.7 200.75 257.95 201.55Q257.2 202.3 256.15 202.3L251.75 202.3Q250.7 202.3 249.95 201.55Q249.15 200.75 249.15 199.75L249.15 179.55L246.15 179.1L244.5 178.2Q243.85 177.55 243.85 176.6L243.85 174.35Q243.85 173.3 244.6 172.55Q245.35 171.8 246.4 171.8L249.15 171.8L249.15 171Q249.15 165.45 252.5 163.2Q254.85 161.65 259.1 161.65L262.15 162.05L262.35 162.1Q263.35 162.35 263.9 162.95Q264.45 163.55 264.45 164.4" />
<path style="fill:#A50808;fill-opacity:1" d="M274.2,180.75Q273.15 181.75 272.9 183.55L280.7 183.55Q280.5 181.75 279.5 180.75Q278.5 179.75 276.85 179.75Q275.25 179.75 274.2 180.75M286.15,175.5Q289.6 179.2 289.6 185.35L289.6 188.05Q289.6 189.3 288.9 189.9Q288.3 190.5 287.4 190.5L272.9 190.5Q273.35 194.4 277.45 194.4L286.25 193.95L286.5 193.95Q287.4 193.95 287.95 194.5Q288.55 195 288.55 195.85L288.55 199Q288.55 201.1 286.55 201.5L282.3 202.1L276.95 202.3Q271.75 202.3 268.25 199.35Q264.05 195.75 264.05 188.95L264.05 185.35Q264.05 179.1 267.5 175.45Q270.95 171.85 276.85 171.85Q282.65 171.85 286.15 175.5" />
<path style="fill:#A50808;fill-opacity:1" d="M267.2,175.2Q270.75 171.45 276.85 171.45Q282.85 171.45 286.4 175.25Q290 179 290 185.35L290 188.05Q290 189.45 289.2 190.2Q288.5 190.9 287.4 190.9L273.3 190.9Q273.9 194 277.45 194L286.2 193.55L286.5 193.55Q287.55 193.55 288.3 194.15Q288.95 194.85 288.95 195.85L288.95 199Q288.95 201.45 286.6 201.85L282.35 202.5L276.95 202.7Q271.6 202.7 268 199.65Q263.65 195.9 263.65 188.95L263.65 185.35Q263.65 178.95 267.2 175.2M264.45,185.35L264.45 188.95Q264.45 195.5 268.5 199Q271.95 201.9 276.95 201.9L282.3 201.7L286.5 201.1Q288.15 200.8 288.15 199L288.15 195.85Q288.15 195.15 287.7 194.75Q287.25 194.35 286.5 194.35L286.25 194.35L277.45 194.8Q272.95 194.8 272.5 190.5L272.45 190.1L287.4 190.1Q288.15 190.1 288.65 189.65Q289.2 189.1 289.2 188.05L289.2 185.35Q289.2 179.35 285.85 175.85Q282.5 172.25 276.85 172.25Q271.1 172.25 267.75 175.8Q264.45 179.3 264.45 185.35M273.4,183.15L280.25 183.15Q279.65 180.15 276.85 180.15Q274.05 180.15 273.4 183.15M272.55,183.5Q272.75 181.55 273.9 180.45Q275.05 179.35 276.85 179.35Q278.6 179.35 279.75 180.45Q280.85 181.55 281.1 183.5L281.15 183.95L272.5 183.95L272.55 183.5" />
<path style="fill:#A50808;fill-opacity:1" d="M297.3,163.9Q297.95 164.5 297.95 165.4L297.95 168.95Q297.95 169.85 297.3 170.45Q296.7 171.05 295.85 171.05L295.5 171.05Q294.65 171.05 294.05 170.45Q293.4 169.85 293.4 168.95L293.4 165.4Q293.4 164.5 294.05 163.9Q294.7 163.3 295.5 163.3L295.85 163.3Q296.7 163.3 297.3 163.9" />
<path style="fill:#A50808;fill-opacity:1" d="M293.75,163.65Q294.5 162.9 295.5 162.9L295.85 162.9Q296.85 162.9 297.6 163.65Q298.35 164.4 298.35 165.4L298.35 168.95Q298.35 170 297.6 170.75Q296.85 171.45 295.85 171.45L295.5 171.45Q294.5 171.45 293.75 170.75Q293 170 293 168.95L293 165.4Q293 164.4 293.75 163.65M293.8,165.4L293.8 168.95Q293.8 169.7 294.3 170.2L295.5 170.65L295.85 170.65Q296.5 170.65 297 170.2Q297.55 169.7 297.55 168.95L297.55 165.4Q297.55 164.65 297 164.2Q296.5 163.7 295.85 163.7L295.5 163.7Q294.85 163.7 294.3 164.2Q293.8 164.65 293.8 165.4" />
<path style="fill:#A50808;fill-opacity:1" d="M297.3,174.1Q297.95 174.75 297.95 175.65L297.95 200.1Q297.95 200.95 297.3 201.6Q296.7 202.25 295.85 202.25L295.5 202.25Q294.7 202.25 294.05 201.6Q293.4 200.95 293.4 200.1L293.4 175.65Q293.4 174.75 294.05 174.1Q294.7 173.5 295.5 173.5L295.85 173.5Q296.7 173.5 297.3 174.1" />
<path style="fill:#A50808;fill-opacity:1" d="M295.5,173.9Q294.85 173.9 294.3 174.4Q293.8 174.9 293.8 175.65L293.8 200.1Q293.8 200.8 294.3 201.3Q294.85 201.85 295.5 201.85L295.85 201.85Q296.5 201.85 297 201.3Q297.55 200.8 297.55 200.1L297.55 175.65Q297.55 174.9 297 174.4Q296.5 173.9 295.85 173.9L295.5 173.9M298.35,175.65L298.35 200.1Q298.35 201.1 297.6 201.85Q296.85 202.65 295.85 202.65L295.5 202.65Q294.5 202.65 293.75 201.85Q293 201.1 293 200.1L293 175.65Q293 174.6 293.75 173.85Q294.5 173.1 295.5 173.1L295.85 173.1Q296.85 173.1 297.6 173.85Q298.35 174.6 298.35 175.65" />
<path style="fill:#A50808;fill-opacity:1" d="M323.65,183.75L323.65 199.8Q323.65 200.7 323.05 201.3Q322.45 201.9 321.55 201.9L321.25 201.9Q320.35 201.9 319.75 201.3Q319.2 200.7 319.2 199.8L319.2 183.75Q319.2 177.55 313.8 177.55Q310.9 177.55 307.35 179.1L307.35 199.8Q307.35 200.7 306.7 201.3Q306.1 201.9 305.25 201.9L304.95 201.9Q304.05 201.9 303.45 201.3Q302.8 200.7 302.8 199.8L302.8 175.65Q302.8 174.75 303.4 174.1Q304 173.5 304.9 173.5L305.3 173.5Q306.65 173.5 307.15 174.7Q310.75 173.25 313.95 173.25Q318.5 173.25 321.1 176.05Q323.65 178.8 323.65 183.75" />
<path style="fill:#A50808;fill-opacity:1" d="M320.8,176.3Q318.35 173.65 313.95 173.65Q310.9 173.65 307.25 175.05L306.95 175.2L306.8 174.9Q306.35 173.9 305.3 173.9L304.9 173.9Q304.15 173.9 303.7 174.4Q303.2 174.9 303.2 175.65L303.2 199.8Q303.2 200.5 303.75 201Q304.25 201.5 304.95 201.5L305.25 201.5Q305.9 201.5 306.45 201Q306.95 200.5 306.95 199.8L306.95 178.85L307.2 178.75Q310.7 177.15 313.8 177.15Q319.6 177.15 319.6 183.75L319.6 199.8Q319.6 200.5 320.05 201.05Q320.55 201.5 321.25 201.5L321.55 201.5Q322.3 201.5 322.8 201.05Q323.25 200.5 323.25 199.8L323.25 183.75Q323.25 179 320.8 176.3M324.05,183.75L324.05 199.8Q324.05 200.85 323.35 201.6Q322.6 202.3 321.55 202.3L321.25 202.3Q320.2 202.3 319.5 201.6Q318.8 200.85 318.8 199.8L318.8 183.75Q318.8 180.75 317.55 179.35Q316.35 177.95 313.8 177.95Q311.1 177.95 307.75 179.35L307.75 199.8Q307.75 200.85 307 201.55Q306.3 202.3 305.25 202.3L304.95 202.3Q303.95 202.3 303.2 201.55Q302.4 200.85 302.4 199.8L302.4 175.65Q302.4 174.55 303.15 173.85Q303.85 173.1 304.9 173.1L305.3 173.1Q306.6 173.1 307.3 174.2Q310.9 172.85 313.95 172.85Q318.7 172.85 321.4 175.75Q324.05 178.6 324.05 183.75" />
<path style="fill:#A50808;fill-opacity:1" d="M347.15,174.2Q347.75 175.05 347.4 176.25L341.05 198.3Q340.45 200.35 339.4 201.3Q338.3 202.25 336.6 202.25Q333.2 202.25 332.05 198.3L325.7 176.25Q325.35 175.1 326 174.25Q326.55 173.5 327.6 173.5L328.05 173.5Q329.55 173.5 330.1 175.25L336.3 197.1L336.55 197.8L343 175.25Q343.55 173.5 345.05 173.5L345.6 173.5Q346.55 173.5 347.15 174.2" />
<path style="fill:#A50808;fill-opacity:1" d="M328.05,173.1Q328.7 173.1 329.2 173.4Q330.15 173.9 330.45 175.1L336.55 196.55L342.65 175.1Q342.95 173.9 343.85 173.4L345.05 173.1L345.6 173.1Q346.75 173.1 347.45 173.95Q348.2 174.95 347.75 176.35L341.4 198.4Q340.25 202.65 336.6 202.65Q332.9 202.65 331.7 198.4L325.35 176.35Q325 175 325.7 174Q326.4 173.1 327.6 173.1L328.05 173.1M327.6,173.9Q326.8 173.9 326.35 174.5Q325.85 175.15 326.1 176.1L332.45 198.2Q333.5 201.85 336.6 201.85Q338.2 201.85 339.15 200.95Q340.15 200.1 340.65 198.2L347 176.1Q347.35 175.1 346.8 174.45Q346.4 173.9 345.6 173.9L345.05 173.9Q343.8 173.9 343.4 175.35L336.95 198L336.55 198.75L335.9 197.25L329.7 175.35Q329.3 173.9 328.05 173.9L327.6 173.9" />
<path style="fill:#A50808;fill-opacity:1" d="M364.15,183.35Q364.15 179.95 363.15 178.75Q362.15 177.55 359.25 177.55L353.15 177.9L352.5 177.95L350.85 177.65Q350.05 177.1 350.05 176.05L350.05 175.75Q350.05 173.9 352.2 173.7L359.25 173.25Q368.7 173.25 368.7 183.35L368.7 199.75Q368.7 200.65 368.05 201.3Q367.4 201.9 366.5 201.9L366.25 201.9Q365.55 201.9 365 201.5L364.2 200.45Q360.4 202.25 357.05 202.25Q353 202.25 350.75 199.85Q348.45 197.45 348.45 193.2L348.45 192.6Q348.45 187.4 352.75 185.4Q355.8 183.95 361.6 183.95L364.15 183.95L364.15 183.35M364.15,188.2L361.6 188.2Q356.15 188.2 354.3 189.45Q352.95 190.3 352.95 192.6L352.95 193.2Q352.95 195.7 353.95 196.8Q354.95 197.95 357.05 197.95Q360.3 197.95 364.15 195.95L364.15 188.2" />
<path style="fill:#A50808;fill-opacity:1" d="M352.25,174.1Q350.45 174.3 350.45 175.75L350.45 176.05Q350.45 176.9 351.05 177.3L352.45 177.6L353.15 177.5L355.8 177.25L359.25 177.15Q362.3 177.15 363.45 178.5Q364.55 179.8 364.55 183.35L364.55 184.35L361.6 184.35Q355.95 184.35 353 185.7Q348.85 187.65 348.85 192.6L348.85 193.2Q348.85 197.25 351 199.55Q353.2 201.85 357.05 201.85Q360.25 201.85 364.05 200.1L364.45 199.9L364.6 200.35L365.25 201.2L366.25 201.5L366.5 201.5Q367.25 201.5 367.8 201Q368.3 200.5 368.3 199.75L368.3 183.35Q368.3 178.4 366.05 176.05Q363.85 173.65 359.25 173.65L352.25 174.1M359.25,172.85Q369.1 172.85 369.1 183.35L369.1 199.75Q369.1 200.8 368.35 201.55Q367.6 202.3 366.5 202.3L366.25 202.3Q364.7 202.3 364 200.95Q360.3 202.65 357.05 202.65Q352.85 202.65 350.45 200.15Q348.05 197.65 348.05 193.2L348.05 192.6Q348.05 187.2 352.45 185.05Q355.6 183.55 361.6 183.55L363.75 183.55L363.75 183.35Q363.75 180.1 362.9 179Q362 177.95 359.25 177.95L355.9 178.05L353.25 178.3L352.55 178.35Q351.4 178.5 350.6 177.95Q349.65 177.35 349.65 176.05L349.65 175.75Q349.65 173.65 352.15 173.35L359.25 172.85M361.6,188.6Q356.1 188.6 354.4 189.85Q353.35 190.55 353.35 192.6L353.35 193.2Q353.35 195.5 354.25 196.5Q355.1 197.55 357.05 197.55Q360.05 197.55 363.75 195.7L363.75 188.6L361.6 188.6M364.35,196.3Q360.35 198.35 357.05 198.35Q354.75 198.35 353.7 197.1Q352.55 195.85 352.55 193.2L352.55 192.6Q352.55 190 354.25 189Q356.2 187.8 361.6 187.8L364.55 187.8L364.55 196.2L364.35 196.3" />
<path style="fill:#A50808;fill-opacity:1" d="M392.5,164.15Q393.1 164.75 393.1 165.65L393.1 199.15Q393.1 200.85 391.5 201.25Q386.85 202.25 383.05 202.25Q377.9 202.25 375.1 198.85Q372.35 195.5 372.35 189.25L372.35 186.05Q372.35 178.9 375.9 175.65Q378.55 173.25 383.05 173.25L388.6 173.7L388.6 165.65Q388.6 164.75 389.2 164.15Q389.75 163.5 390.6 163.5L391.1 163.5Q391.9 163.5 392.5 164.15M388.6,177.95L383.05 177.55Q380.15 177.55 378.75 179Q376.85 180.95 376.85 186.05L376.85 189.25Q376.85 194.45 378.8 196.45Q380.25 197.95 383.05 197.95L388.6 197.45L388.6 177.95" />
<path style="fill:#A50808;fill-opacity:1" d="M388.9,163.85Q389.6 163.1 390.6 163.1L391.1 163.1Q392.1 163.1 392.8 163.85Q393.5 164.6 393.5 165.65L393.5 199.15Q393.5 201.15 391.6 201.65L383.05 202.65Q377.7 202.65 374.85 199.15Q371.95 195.7 371.95 189.25L371.95 186.05Q371.95 178.65 375.6 175.35Q378.4 172.85 383.05 172.85L388.2 173.3L388.2 165.65Q388.2 164.6 388.9 163.85M389,165.65L389 174.2L388.55 174.1L383.05 173.65Q378.7 173.65 376.1 176Q372.75 179.1 372.75 186.05L372.75 189.25Q372.75 195.3 375.4 198.6Q378.05 201.85 383.05 201.85L391.4 200.9Q392.7 200.5 392.7 199.15L392.7 165.65Q392.7 164.9 392.25 164.45Q391.75 163.9 391.1 163.9L390.6 163.9Q389.95 163.9 389.45 164.45Q389 164.9 389 165.65M389,177.6L389 197.8L388.65 197.85L383.05 198.35Q380.15 198.35 378.6 196.85Q376.45 194.7 376.45 189.25L376.45 186.05Q376.45 180.75 378.55 178.65Q380.05 177.15 383.05 177.15L388.65 177.6L389 177.6M388.2,178.3L383.05 177.95Q380.35 177.95 379.1 179.2Q377.25 181.05 377.25 186.05L377.25 189.25Q377.25 194.2 379.05 196.15Q380.3 197.55 383.05 197.55L388.2 197.15L388.2 178.3" />
<path style="fill:#A50808;fill-opacity:1" d="M418.65,186L418.65 187.3Q418.65 188.2 418 188.75Q417.35 189.4 416.5 189.4L401.3 189.4Q401.35 194.55 403.65 196.45Q405.35 197.95 408.9 197.95L415.8 197.15Q416.85 196.95 417.55 197.45Q418.3 198 418.3 198.95L418.3 199.3Q418.3 201 416.4 201.35L408.9 202.25Q402.95 202.25 399.9 198.95Q396.8 195.65 396.8 189.25L396.8 186.05Q396.8 180.25 399.8 176.75Q402.75 173.25 407.8 173.25Q412.95 173.25 415.8 176.6Q418.65 179.9 418.65 186M401.3,185.1L414.05 185.1Q413.95 181.15 412.45 179.3Q410.95 177.55 407.8 177.55Q401.7 177.55 401.3 185.1" />
<path style="fill:#A50808;fill-opacity:1" d="M419.05,186L419.05 187.3Q419.05 188.35 418.3 189.1Q417.5 189.8 416.5 189.8L401.7 189.8Q401.85 194.6 404.1 196.35Q405.65 197.55 408.9 197.55L415.75 196.75Q416.95 196.5 417.8 197.15Q418.7 197.8 418.7 198.95L418.7 199.3Q418.7 201.3 416.5 201.75L408.9 202.65Q402.8 202.65 399.6 199.2Q396.4 195.8 396.4 189.25L396.4 186.05Q396.4 180.05 399.5 176.45Q402.6 172.85 407.8 172.85Q413.1 172.85 416.1 176.3Q419.05 179.75 419.05 186M407.8,173.65Q402.95 173.65 400.05 177Q397.2 180.4 397.2 186.05L397.2 189.25Q397.2 195.4 400.15 198.6Q403.15 201.85 408.9 201.85L416.35 200.95Q417.9 200.7 417.9 199.3L417.9 198.95Q417.9 198.2 417.35 197.8Q416.75 197.4 415.9 197.55L408.9 198.35Q405.3 198.35 403.45 196.85Q400.95 194.75 400.95 189.4L400.9 189L416.5 189Q417.2 189 417.7 188.55Q418.25 188 418.25 187.3L418.25 186Q418.25 180.1 415.5 176.9Q412.75 173.65 407.8 173.65M400.95,185.1Q401.3 177.15 407.8 177.15Q411.1 177.15 412.7 179.05Q414.3 181 414.45 185.1L414.5 185.5L400.95 185.5L400.95 185.1M407.8,177.95Q402.25 177.95 401.75 184.7L413.65 184.7Q413.45 181.15 412.1 179.5Q410.7 177.95 407.8 177.95" />
<path style="fill:#A50808;fill-opacity:1" d="M424.75,173.5Q426.05 173.5 426.6 174.7Q429.4 173.25 432.35 173.25Q434.85 173.25 434.85 175.2L434.85 175.55Q434.85 177.55 432.35 177.55Q429.65 177.55 426.8 179.25L426.8 199.8Q426.8 200.7 426.2 201.3Q425.6 201.9 424.7 201.9L424.4 201.9Q423.55 201.9 422.9 201.3Q422.3 200.7 422.3 199.8L422.3 175.65Q422.3 174.75 422.9 174.1Q423.5 173.5 424.35 173.5L424.75 173.5" />
<path style="fill:#A50808;fill-opacity:1" d="M426.4,175.25L426.25 174.9Q425.8 173.9 424.75 173.9L424.35 173.9Q423.65 173.9 423.15 174.4Q422.7 174.9 422.7 175.65L422.7 199.8Q422.7 200.5 423.2 201Q423.7 201.5 424.4 201.5L424.7 201.5Q425.4 201.5 425.9 201Q426.4 200.5 426.4 199.8L426.4 179L426.6 178.9Q429.65 177.15 432.35 177.15Q434.5 177.15 434.5 175.55L434.5 175.2Q434.5 173.65 432.35 173.65Q429.5 173.65 426.8 175.05L426.4 175.25M424.75,173.1Q426.05 173.1 426.75 174.2Q429.55 172.85 432.35 172.85Q434.1 172.85 434.85 173.8Q435.25 174.4 435.25 175.2L435.25 175.55Q435.25 176.35 434.85 176.95Q434.1 177.95 432.35 177.95Q429.95 177.95 427.2 179.5L427.2 199.8Q427.2 200.85 426.45 201.55Q425.75 202.3 424.7 202.3L424.4 202.3Q423.4 202.3 422.65 201.55Q421.9 200.85 421.9 199.8L421.9 175.65Q421.9 174.55 422.6 173.85Q423.3 173.1 424.35 173.1L424.75 173.1" />
<path style="fill:#FFFFFF;fill-opacity:1" d="M217.05,165.65L217.05 191.2Q217.05 193.6 217.9 194.5Q218.75 195.35 220.85 195.35L229.75 195.35Q230.15 195.35 230.5 195.65L230.75 196.3L230.75 199.4L230.55 200.15L229.75 200.45L226.05 200.9L221.55 201.1Q216.2 201.1 213.55 199.25Q210.35 196.9 210.35 191.2L210.35 165.65Q210.35 165.25 210.65 165Q210.9 164.7 211.3 164.7L216.1 164.7Q216.5 164.7 216.8 165L217.05 165.65" />
<path style="fill:#FFFFFF;fill-opacity:1" d="M241.3,163L241.55 163.7L241.55 167.95L241.3 168.7L240.6 168.95L235.9 168.95L235.2 168.7Q234.9 168.35 234.9 167.95L234.9 163.7Q234.9 163.3 235.2 163Q235.5 162.75 235.9 162.75L240.6 162.75L241.3 163" />
<path style="fill:#FFFFFF;fill-opacity:1" d="M241.4,174.35L241.4 199.75L241.1 200.4L240.45 200.7L236 200.7Q235.6 200.7 235.3 200.4Q235 200.15 235 199.75L235 174.35Q235 173.95 235.3 173.65Q235.6 173.35 236 173.35L240.45 173.35Q240.85 173.35 241.1 173.65L241.4 174.35" />
<path style="fill:#FFFFFF;fill-opacity:1" d="M262.9,164.4L262.9 167.3Q262.9 168.1 262.15 168.1L260 168.1Q258.25 168.1 257.7 168.7Q257.1 169.25 257.1 171L257.1 173.35L261.75 173.35Q262.2 173.35 262.5 173.65L262.75 174.35L262.75 177.25L262.5 177.95L261.75 178.15L257.1 178.15L257.1 199.75L256.85 200.4L256.15 200.7L251.75 200.7Q251.35 200.7 251.05 200.4Q250.75 200.15 250.75 199.75L250.75 178.15L246.4 177.5Q245.45 177.35 245.45 176.6L245.45 174.35Q245.45 173.95 245.75 173.65Q246 173.35 246.4 173.35L250.75 173.35L250.75 171Q250.75 166.6 253.05 164.8Q255 163.25 259.1 163.25L262.05 163.65Q262.9 163.85 262.9 164.4" />
<path style="fill:#FFFFFF;fill-opacity:1" d="M268.25,176.4Q271.35 173.05 276.85 173.05Q282.35 173.05 285.45 176.5Q288.4 179.8 288.4 185.35L288.4 188.05Q288.4 189.3 287.4 189.3L271.6 189.3L271.6 189.45Q271.6 192 272.8 193.6Q274.25 195.6 277.45 195.6L286.4 195.1L286.5 195.1Q287.4 195.1 287.4 195.85L287.4 199L287.2 199.9Q287 200.2 286.4 200.3L282.15 200.9L276.95 201.1Q272.45 201.1 269.25 198.6Q265.2 195.4 265.2 188.95L265.2 185.35Q265.2 179.65 268.25 176.4M280.55,180.1Q279.15 178.55 276.85 178.55Q274.55 178.55 273.15 180.1Q271.7 181.7 271.7 184.5L271.7 184.7L281.95 184.7L281.95 184.5Q281.95 181.75 280.55 180.1" />
<path style="fill:#FFFFFF;fill-opacity:1" d="M296.75,165.4L296.75 168.95L296.45 169.65L295.85 169.85L295.5 169.85L294.9 169.65Q294.6 169.35 294.6 168.95L294.6 165.4Q294.6 165.05 294.9 164.75Q295.15 164.45 295.5 164.45L295.85 164.45Q296.2 164.45 296.45 164.75L296.75 165.4M296.75,175.65L296.75 200.1L296.45 200.75Q296.2 201.05 295.85 201.05L295.5 201.05Q295.15 201.05 294.9 200.75Q294.6 200.5 294.6 200.1L294.6 175.65Q294.6 175.25 294.9 174.95Q295.15 174.7 295.5 174.7L295.85 174.7Q296.2 174.7 296.45 174.95L296.75 175.65" />
<path style="fill:#FFFFFF;fill-opacity:1" d="M322.45,183.75L322.45 199.8L322.25 200.45L321.55 200.7L321.25 200.7L320.6 200.45L320.35 199.8L320.35 183.75Q320.35 179.8 318.45 177.95Q316.8 176.35 313.8 176.35Q310.3 176.35 306.15 178.35L306.15 199.8L305.9 200.45L305.25 200.7L304.95 200.7Q304.55 200.7 304.3 200.45L304 199.8L304 175.65Q304 175.25 304.25 174.95Q304.5 174.7 304.9 174.7L305.3 174.7Q305.7 174.7 305.9 174.95L306.15 175.65L306.15 176.4Q310.3 174.45 313.95 174.45Q317.75 174.45 319.95 176.55Q322.45 178.95 322.45 183.75" />
<path style="fill:#FFFFFF;fill-opacity:1" d="M346.25,175.9L339.9 198Q339.4 199.75 338.5 200.5Q337.75 201.05 336.6 201.05Q334.1 201.05 333.2 198L326.85 175.9Q326.7 175.4 326.9 175.05Q327.1 174.7 327.6 174.7L328.05 174.7Q328.7 174.7 328.95 175.55L335.15 197.45Q335.65 199.15 336.6 199.15Q337.45 199.15 337.95 197.45L344.15 175.55Q344.45 174.7 345.05 174.7L345.6 174.7Q346.1 174.7 346.25 175.05L346.25 175.9" />
<path style="fill:#FFFFFF;fill-opacity:1" d="M352.35,174.9L359.25 174.45Q363.85 174.45 365.85 176.95Q367.5 179.05 367.5 183.35L367.5 199.75L367.2 200.45L366.5 200.7L366.25 200.7L365.6 200.45Q365.3 200.15 365.3 199.75L365.3 198.55Q360.75 201.05 357.05 201.05Q353.9 201.05 351.95 199.4Q349.65 197.4 349.65 193.2L349.65 192.6Q349.65 188.75 352.35 187Q355.15 185.1 361.6 185.1L365.35 185.1L365.35 183.35Q365.35 179.5 364.1 177.95Q362.75 176.35 359.25 176.35L352.35 176.8Q351.25 176.85 351.25 176.05L351.25 175.75Q351.25 175.3 351.55 175.1L352.35 174.9M365.35,187.05L361.6 187.05Q356.1 187.05 353.95 188.25Q351.8 189.5 351.8 192.6L351.8 193.2Q351.8 199.15 357.05 199.15L361 198.6Q362.9 198 365.35 196.65L365.35 187.05" />
<path style="fill:#FFFFFF;fill-opacity:1" d="M391.9,165.65L391.9 199.15L391.8 199.8L391.2 200.1L383.05 201.05Q378.2 201.05 375.8 197.8Q373.55 194.75 373.55 189.25L373.55 186.05Q373.55 174.45 383.05 174.45L389.75 175.2L389.75 165.65Q389.75 165.25 390 165Q390.25 164.7 390.6 164.7L391.1 164.7Q391.45 164.7 391.7 165L391.9 165.65M389.75,177L383.05 176.35Q379.15 176.35 377.35 178.8Q375.7 181.1 375.7 186.05L375.7 189.25Q375.7 194.15 377.35 196.5Q379.15 199.15 383.05 199.15L389.75 198.5L389.75 177" />
<path style="fill:#FFFFFF;fill-opacity:1" d="M400.15,186.25L415.3 186.25L415.3 186Q415.3 181.25 413.6 178.9Q411.75 176.35 407.8 176.35Q403.9 176.35 401.95 179.05Q400.15 181.5 400.15 186.05L400.15 186.25M415.15,177.65Q417.45 180.65 417.45 186L417.45 187.3L417.15 187.95L416.5 188.2L400.15 188.2L400.15 189.25Q400.15 194.9 402.65 197.25Q404.75 199.15 408.9 199.15L416.05 198.3Q417.1 198.15 417.1 198.95L417.1 199.3Q417.1 200 416.15 200.2L408.9 201.05Q398 201.05 398 189.25L398 186.05Q398 180.85 400.5 177.75Q403.1 174.45 407.8 174.45Q412.65 174.45 415.15 177.65" />
<path style="fill:#FFFFFF;fill-opacity:1" d="M423.7,174.95L424.35 174.7L424.75 174.7Q425.15 174.7 425.4 174.95L425.6 175.65L425.6 176.65Q427.5 175.45 429.05 174.95L432.35 174.45Q433.7 174.45 433.7 175.2L433.7 175.55Q433.7 176.35 432.35 176.35Q429.2 176.35 425.6 178.55L425.6 199.8L425.35 200.45L424.7 200.7L424.4 200.7L423.75 200.45L423.5 199.8L423.5 175.65L423.7 174.95" />
</g>
</svg>
