<?xml version="1.0" encoding="utf-8"?>
<svg version="1.1" id="Layer_1"
xmlns="http://www.w3.org/2000/svg"
xmlns:xlink="http://www.w3.org/1999/xlink"
xmlns:author="http://www.sothink.com"
width="244px" height="297px"
xml:space="preserve">
<g id="1509" transform="matrix(1, 0, 0, 1, 121.7, 150.3)">
<path style="fill:#FFFFFF;fill-opacity:1" d="M86.75,-150L86.9 -149.7L86.9 -133.7L86.75 -133.4Q86.65 -133.25 86.45 -133.25L83.8 -133.25L83.45 -133.4L83.3 -133.7L83.3 -149.7L83.45 -150L83.8 -150.15L86.45 -150.15L86.75 -150M90.15,-150.1L90.45 -150.2L93.3 -150.2L93.65 -150.1L93.75 -149.75L93.75 -147.75L93.65 -147.4L93.3 -147.3L90.45 -147.3L90.15 -147.4L90 -147.75L90 -149.75L90.15 -150.1M120.95,-143.2Q121.55 -141.9 121.55 -140.25L121.55 -138.95L121.4 -138.6Q121.3 -138.45 121.1 -138.45L114.05 -138.45L114.05 -138.4L114.25 -137.2Q114.45 -136.7 114.95 -136.35Q115.45 -136 116.35 -136L117.85 -136.05L119.35 -136.1L120.55 -136.2L120.6 -136.2L120.9 -136.1L121.05 -135.85L121.05 -134.15L120.95 -133.8Q120.85 -133.65 120.55 -133.6L119.2 -133.3L117.75 -133.1L116.05 -133.05L114.05 -133.35Q113.1 -133.65 112.3 -134.3Q111.5 -134.95 111.05 -136.05Q110.55 -137.1 110.55 -138.7L110.55 -140.25Q110.55 -142.05 111.2 -143.35Q111.85 -144.6 113.1 -145.3Q114.35 -146 116.1 -146.05Q117.9 -146 119.1 -145.25Q120.3 -144.55 120.95 -143.2M114.6,-142.55Q114.05 -141.95 114.05 -140.75L114.05 -140.65L118.05 -140.65L118.05 -140.75Q118.05 -141.95 117.55 -142.55Q117 -143.2 116.1 -143.2Q115.15 -143.2 114.6 -142.55M103.85,-146.05Q105.45 -146 106.3 -145.35Q107.15 -144.7 107.45 -143.55L107.75 -141.05L107.75 -133.7L107.6 -133.4Q107.45 -133.25 107.3 -133.25L104.6 -133.25Q104.45 -133.25 104.3 -133.4L104.2 -133.7L104.2 -141.05Q104.2 -142.2 103.85 -142.65Q103.55 -143.1 102.55 -143.1L101.55 -142.9L100.5 -142.4L100.5 -133.7L100.35 -133.4Q100.25 -133.25 100.05 -133.25L97.4 -133.25Q97.2 -133.25 97.05 -133.4L96.9 -133.7L96.9 -145.4L97.05 -145.75L97.35 -145.85L99.8 -145.85L100.15 -145.75L100.25 -145.4L100.25 -144.9Q101.15 -145.55 102 -145.8L103.85 -146.05M93.55,-145.75L93.65 -145.4L93.65 -133.7L93.55 -133.4Q93.4 -133.25 93.25 -133.25L90.55 -133.25Q90.35 -133.25 90.25 -133.4Q90.1 -133.5 90.1 -133.7L90.1 -145.4L90.25 -145.75L90.55 -145.85L93.25 -145.85L93.55 -145.75M43.05,-150.05L45.05 -150.3L45.9 -150.3L46.8 -150.15L47.1 -150L47.2 -149.7L47.2 -148L47.1 -147.7L46.75 -147.6L45.65 -147.6L45.05 -147.45L44.95 -146.6L44.95 -145.85L46.75 -145.85L47.05 -145.75L47.2 -145.4L47.2 -143.65L47.05 -143.35Q46.95 -143.2 46.75 -143.2L44.95 -143.2L44.95 -133.7L44.8 -133.4Q44.7 -133.25 44.5 -133.25L41.8 -133.25Q41.6 -133.25 41.5 -133.4L41.35 -133.7L41.35 -143.2L39.6 -143.5Q39.4 -143.5 39.3 -143.65Q39.15 -143.75 39.15 -143.95L39.15 -145.4L39.3 -145.7L39.6 -145.85L41.35 -145.85L41.35 -146.55Q41.35 -148.1 41.8 -148.9Q42.2 -149.75 43.05 -150.05M36.75,-149.7L36.75 -133.7L36.6 -133.4Q36.5 -133.25 36.3 -133.25L33.65 -133.25L33.3 -133.4L33.15 -133.7L33.15 -149.7L33.3 -150L33.65 -150.15L36.3 -150.15L36.6 -150L36.75 -149.7M29.75,-143.2Q30.35 -141.9 30.35 -140.25L30.35 -138.95L30.2 -138.6Q30.1 -138.45 29.9 -138.45L22.85 -138.45L22.85 -138.4L23.05 -137.2Q23.25 -136.7 23.75 -136.35Q24.25 -136 25.15 -136L26.65 -136.05L28.15 -136.1L29.35 -136.2L29.4 -136.2L29.7 -136.1L29.85 -135.85L29.85 -134.15L29.75 -133.8Q29.65 -133.65 29.35 -133.6L28 -133.3L26.55 -133.1L24.85 -133.05L22.85 -133.35Q21.9 -133.65 21.1 -134.3Q20.3 -134.95 19.85 -136.05Q19.35 -137.1 19.35 -138.7L19.35 -140.25Q19.35 -142.05 20 -143.35Q20.65 -144.6 21.9 -145.3Q23.15 -146 24.9 -146.05Q26.7 -146 27.9 -145.25Q29.1 -144.55 29.75 -143.2M23.4,-142.55Q22.85 -141.95 22.85 -140.75L22.85 -140.65L26.85 -140.65L26.85 -140.75Q26.85 -141.95 26.35 -142.55Q25.8 -143.2 24.9 -143.2Q23.95 -143.2 23.4 -142.55M16.45,-145.35L16.55 -145L16.55 -143.25L16.45 -142.95L16.2 -142.8L16.1 -142.8L15.15 -142.95L13.8 -143.05L12.45 -143.1L11.55 -143L11.3 -142.5L11.5 -142.05L12 -141.7L14.7 -140.15Q15.6 -139.6 16.1 -139.05L16.75 -137.9L16.95 -136.75Q16.95 -135.7 16.45 -134.85Q15.9 -134.05 14.9 -133.55Q13.85 -133.05 12.25 -133.05L10.9 -133.1L9.5 -133.3L8.25 -133.55Q8.05 -133.6 7.95 -133.7Q7.8 -133.85 7.8 -134.05L7.8 -135.85L7.95 -136.1L8.25 -136.25L8.3 -136.25L9.65 -136.1L11.05 -136L12.05 -135.95L13.1 -136.15L13.35 -136.8L13.2 -137.25L12.55 -137.7L9.7 -139.35Q8.75 -139.9 8.25 -140.75Q7.75 -141.55 7.7 -142.65Q7.7 -144.3 8.85 -145.15Q9.95 -146 12.25 -146.05L14.4 -145.9L16.15 -145.55L16.45 -145.35M5.75,-143.25L5.5 -143.1L5.3 -143.1L3.8 -142.85L2.5 -142.3L2.5 -133.7L2.35 -133.4Q2.25 -133.25 2.05 -133.25L-0.6 -133.25Q-0.8 -133.25 -0.95 -133.4L-1.1 -133.7L-1.1 -145.4L-0.95 -145.75L-0.65 -145.85L2 -145.85L2.3 -145.75L2.4 -145.4L2.4 -145Q3.05 -145.5 3.8 -145.75L5.4 -146.05L5.7 -145.9L5.85 -145.6L5.85 -143.5L5.75 -143.25M79.9,-143.55L80.2 -141.05L80.2 -133.7L80.05 -133.4Q79.9 -133.25 79.75 -133.25L77.05 -133.25Q76.9 -133.25 76.75 -133.4L76.65 -133.7L76.65 -141.05Q76.65 -142.2 76.3 -142.65Q76 -143.1 75 -143.1L74 -142.9L72.95 -142.4L72.95 -133.7L72.8 -133.4Q72.7 -133.25 72.5 -133.25L69.85 -133.25Q69.65 -133.25 69.5 -133.4L69.35 -133.7L69.35 -145.4L69.5 -145.75L69.8 -145.85L72.25 -145.85L72.6 -145.75L72.7 -145.4L72.7 -144.9Q73.6 -145.55 74.45 -145.8L76.3 -146.05Q77.9 -146 78.75 -145.35Q79.6 -144.7 79.9 -143.55M61.1,-143Q60.15 -143 59.6 -142.35Q59.1 -141.65 59.1 -140.3L59.1 -138.75Q59.1 -137.45 59.6 -136.75Q60.15 -136.1 61.1 -136.1Q62.05 -136.1 62.55 -136.75Q63.05 -137.45 63.05 -138.75L63.05 -140.3Q63.05 -141.65 62.55 -142.35Q62.05 -143 61.1 -143M64.1,-145.3Q65.3 -144.65 65.95 -143.35Q66.6 -142.05 66.6 -140.3L66.6 -138.75Q66.6 -137 65.95 -135.75Q65.3 -134.45 64.1 -133.75Q62.85 -133.05 61.1 -133.05Q59.3 -133.05 58.05 -133.75Q56.85 -134.45 56.2 -135.75Q55.55 -137 55.55 -138.75L55.55 -140.3Q55.55 -142.05 56.2 -143.35Q56.85 -144.65 58.05 -145.3Q59.3 -146 61.1 -146.05Q62.85 -146 64.1 -145.3M74.3,-90.85L76.75 -90.85L77.1 -90.75L77.2 -90.4L77.2 -89.9Q78.1 -90.55 78.95 -90.8L80.8 -91.05Q82.4 -91 83.25 -90.35Q84.1 -89.7 84.4 -88.55L84.7 -86.05L84.7 -78.7L84.55 -78.4Q84.4 -78.25 84.25 -78.25L81.55 -78.25Q81.4 -78.25 81.25 -78.4L81.15 -78.7L81.15 -86.05Q81.15 -87.2 80.8 -87.65Q80.5 -88.1 79.5 -88.1L78.5 -87.9L77.45 -87.4L77.45 -78.7L77.3 -78.4Q77.2 -78.25 77 -78.25L74.35 -78.25L74 -78.4L73.85 -78.7L73.85 -90.4L74 -90.75L74.3 -90.85M67.1,-95.1L67.4 -95.2L70.25 -95.2L70.6 -95.1L70.7 -94.75L70.7 -92.75L70.6 -92.4L70.25 -92.3L67.4 -92.3L67.1 -92.4L66.95 -92.75L66.95 -94.75L67.1 -95.1M70.5,-90.75L70.6 -90.4L70.6 -78.7L70.5 -78.4Q70.35 -78.25 70.2 -78.25L67.5 -78.25Q67.3 -78.25 67.2 -78.4Q67.05 -78.5 67.05 -78.7L67.05 -90.4L67.2 -90.75L67.5 -90.85L70.2 -90.85L70.5 -90.75M58.25,-93L58.15 -92.7L57.8 -92.6L56.7 -92.6L56.1 -92.45L56 -91.6L56 -90.85L57.8 -90.85L58.1 -90.75L58.25 -90.4L58.25 -88.65L58.1 -88.35Q58 -88.2 57.8 -88.2L56 -88.2L56 -78.7L55.85 -78.4Q55.75 -78.25 55.55 -78.25L52.85 -78.25Q52.65 -78.25 52.55 -78.4L52.4 -78.7L52.4 -88.2L50.65 -88.5Q50.45 -88.5 50.35 -88.65Q50.2 -88.75 50.2 -88.95L50.2 -90.4L50.35 -90.7L50.65 -90.85L52.4 -90.85L52.4 -91.55Q52.4 -93.1 52.85 -93.9Q53.25 -94.75 54.1 -95.05L56.1 -95.3L56.95 -95.3L57.85 -95.15L58.15 -95L58.25 -94.7L58.25 -93M47.8,-94.7L47.8 -78.7L47.65 -78.4Q47.55 -78.25 47.35 -78.25L44.7 -78.25Q44.5 -78.25 44.35 -78.4L44.2 -78.7L44.2 -94.7L44.35 -95L44.7 -95.15L47.35 -95.15L47.65 -95L47.8 -94.7M41.4,-83.95L41.25 -83.6Q41.15 -83.45 40.95 -83.45L33.9 -83.45L33.9 -83.4L34.1 -82.2Q34.3 -81.7 34.8 -81.35Q35.3 -81 36.2 -81L37.7 -81.05L39.2 -81.1L40.4 -81.2L40.45 -81.2L40.75 -81.1L40.9 -80.85L40.9 -79.15L40.8 -78.8Q40.7 -78.65 40.4 -78.6L39.05 -78.3L37.6 -78.1L35.9 -78.05L33.9 -78.35Q32.95 -78.65 32.15 -79.3Q31.35 -79.95 30.9 -81.05Q30.4 -82.1 30.4 -83.7L30.4 -85.25Q30.4 -87.05 31.05 -88.35Q31.7 -89.6 32.95 -90.3Q34.2 -91 35.95 -91.05Q37.75 -91 38.95 -90.25Q40.15 -89.55 40.8 -88.2Q41.4 -86.9 41.4 -85.25L41.4 -83.95M35.95,-88.2Q35 -88.2 34.45 -87.55Q33.9 -86.95 33.9 -85.75L33.9 -85.65L37.9 -85.65L37.9 -85.75Q37.9 -86.95 37.4 -87.55Q36.85 -88.2 35.95 -88.2M23.5,-88.1L22.6 -88Q22.35 -87.85 22.35 -87.5L22.55 -87.05L23.05 -86.7L25.75 -85.15L27.15 -84.05L27.8 -82.9L28 -81.75Q28 -80.7 27.5 -79.85Q26.95 -79.05 25.95 -78.55Q24.9 -78.05 23.3 -78.05L21.95 -78.1L20.55 -78.3L19.3 -78.55L19 -78.7Q18.85 -78.85 18.85 -79.05L18.85 -80.85L19 -81.1L19.3 -81.25L19.35 -81.25L20.7 -81.1L22.1 -81L23.1 -80.95L24.15 -81.15L24.4 -81.8L24.25 -82.25L23.6 -82.7L20.75 -84.35Q19.8 -84.9 19.3 -85.75Q18.8 -86.55 18.75 -87.65Q18.75 -89.3 19.9 -90.15Q21 -91 23.3 -91.05L25.45 -90.9L27.2 -90.55L27.5 -90.35L27.6 -90L27.6 -88.25L27.5 -87.95L27.25 -87.8L27.15 -87.8L26.2 -87.95L24.85 -88.05L23.5 -88.1M13.55,-87.3L13.55 -78.7L13.4 -78.4Q13.3 -78.25 13.1 -78.25L10.45 -78.25Q10.25 -78.25 10.1 -78.4L9.95 -78.7L9.95 -90.4L10.1 -90.75L10.4 -90.85L13.05 -90.85L13.35 -90.75L13.45 -90.4L13.45 -90L14.85 -90.75L16.45 -91.05L16.75 -90.9L16.9 -90.6L16.9 -88.5L16.8 -88.25L16.55 -88.1L16.35 -88.1L14.85 -87.85L13.55 -87.3M3.4,-90.7L3.7 -90.85L6.4 -90.85L6.7 -90.7L6.85 -90.4L6.85 -78.7L6.7 -78.4Q6.6 -78.25 6.4 -78.25L3.95 -78.25Q3.75 -78.25 3.65 -78.4Q3.5 -78.5 3.5 -78.7L3.5 -79.2Q2.6 -78.6 1.8 -78.35L-0.1 -78.1Q-1.65 -78.1 -2.5 -78.75Q-3.35 -79.4 -3.7 -80.55L-4 -83.05L-4 -90.4L-3.85 -90.7L-3.5 -90.85L-0.85 -90.85L-0.55 -90.7L-0.4 -90.4L-0.4 -83.05Q-0.45 -81.9 -0.1 -81.45Q0.25 -81 1.2 -81L2.2 -81.25L3.3 -81.75L3.3 -90.4L3.4 -90.7M28.75,-40.15L29.1 -40L29.2 -39.7L29.2 -24.25L29.1 -23.85L28.55 -23.65L26.35 -23.25L23.85 -23.05Q21.15 -23.1 19.75 -24.55Q18.35 -26 18.3 -28.7L18.3 -30.4Q18.3 -32.15 18.95 -33.4Q19.55 -34.65 20.75 -35.35Q22 -36 23.85 -36.05L24.65 -36L25.65 -35.9L25.65 -39.7L25.8 -40L26.1 -40.15L28.75 -40.15M22.3,-32.35Q21.85 -31.6 21.9 -30.4L21.9 -28.7Q21.85 -27.5 22.3 -26.75Q22.7 -26 23.85 -26L24.85 -26L25.65 -26.1L25.65 -33L24.75 -33.05L23.85 -33.1Q22.7 -33.05 22.3 -32.35M40.4,-35.55L40.7 -35.35L40.8 -35L40.8 -33.25L40.7 -32.95L40.45 -32.8L40.35 -32.8L39.4 -32.95L38.05 -33.05L36.7 -33.1L35.8 -33Q35.55 -32.85 35.55 -32.5L35.75 -32.05L36.25 -31.7L38.95 -30.15L40.35 -29.05L41 -27.9L41.2 -26.75Q41.2 -25.7 40.7 -24.85L39.15 -23.55Q38.1 -23.05 36.5 -23.05L35.15 -23.1L33.75 -23.3L32.5 -23.55L32.2 -23.7Q32.05 -23.85 32.05 -24.05L32.05 -25.85L32.2 -26.1L32.5 -26.25L32.55 -26.25L33.9 -26.1L35.3 -26L36.3 -25.95L37.35 -26.15L37.6 -26.8L37.45 -27.25L36.8 -27.7L33.95 -29.35Q33 -29.9 32.5 -30.75Q32 -31.55 31.95 -32.65Q31.95 -34.3 33.1 -35.15Q34.2 -36 36.5 -36.05L38.65 -35.9L40.4 -35.55M8.35,-32.4L8.35 -23.7L8.2 -23.4Q8.1 -23.25 7.9 -23.25L5.25 -23.25Q5.05 -23.25 4.9 -23.4L4.75 -23.7L4.75 -35.4L4.9 -35.75L5.2 -35.85L7.65 -35.85L8 -35.75L8.1 -35.4L8.1 -34.9Q9 -35.55 9.85 -35.8L11.7 -36.05Q13.3 -36 14.15 -35.35Q15 -34.7 15.3 -33.55L15.6 -31.05L15.6 -23.7L15.45 -23.4Q15.3 -23.25 15.15 -23.25L12.45 -23.25Q12.3 -23.25 12.15 -23.4L12.05 -23.7L12.05 -31.05Q12.05 -32.2 11.7 -32.65Q11.4 -33.1 10.4 -33.1L9.4 -32.9L8.35 -32.4M1.8,-28.6Q1.7 -28.45 1.5 -28.45L-5.55 -28.45L-5.55 -28.4L-5.35 -27.2L-4.65 -26.35Q-4.15 -26 -3.25 -26L-1.75 -26.05L-0.25 -26.1L0.95 -26.2L1 -26.2L1.3 -26.1L1.45 -25.85L1.45 -24.15L1.35 -23.8Q1.25 -23.65 0.95 -23.6L-0.4 -23.3L-1.85 -23.1L-3.55 -23.05L-5.55 -23.35Q-6.5 -23.65 -7.3 -24.3Q-8.1 -24.95 -8.55 -26.05Q-9.05 -27.1 -9.05 -28.7L-9.05 -30.25Q-9.05 -32.05 -8.4 -33.35Q-7.75 -34.6 -6.5 -35.3Q-5.25 -36 -3.5 -36.05Q-1.7 -36 -0.5 -35.25Q0.7 -34.55 1.35 -33.2Q1.95 -31.9 1.95 -30.25L1.95 -28.95L1.8 -28.6M80.4,-40L80.7 -40.15L83.35 -40.15L83.7 -40L83.8 -39.7L83.8 -24.25L83.7 -23.85L83.15 -23.65L80.95 -23.25L78.45 -23.05Q75.75 -23.1 74.35 -24.55Q72.95 -26 72.9 -28.7L72.9 -30.4Q72.9 -32.15 73.55 -33.4Q74.15 -34.65 75.35 -35.35Q76.6 -36 78.45 -36.05L79.25 -36L80.25 -35.9L80.25 -39.7L80.4 -40M69.9,-33.35Q70.55 -32.05 70.55 -30.3L70.55 -28.75Q70.55 -27 69.9 -25.75Q69.25 -24.45 68.05 -23.75Q66.8 -23.05 65.05 -23.05Q63.25 -23.05 62 -23.75Q60.8 -24.45 60.15 -25.75Q59.5 -27 59.5 -28.75L59.5 -30.3Q59.5 -32.05 60.15 -33.35Q60.8 -34.65 62 -35.3Q63.25 -36 65.05 -36.05Q66.8 -36 68.05 -35.3Q69.25 -34.65 69.9 -33.35M63.55,-32.35Q63.05 -31.65 63.05 -30.3L63.05 -28.75Q63.05 -27.45 63.55 -26.75Q64.1 -26.1 65.05 -26.1Q66 -26.1 66.5 -26.75Q67 -27.45 67 -28.75L67 -30.3Q67 -31.65 66.5 -32.35Q66 -33 65.05 -33Q64.1 -33 63.55 -32.35M79.35,-33.05L78.45 -33.1Q77.3 -33.05 76.9 -32.35Q76.45 -31.6 76.5 -30.4L76.5 -28.7Q76.45 -27.5 76.9 -26.75Q77.3 -26 78.45 -26L79.45 -26L80.25 -26.1L80.25 -33L79.35 -33.05M51.65,-37.95L51.95 -38.1L54.65 -38.55L54.7 -38.55L55 -38.45L55.1 -38.2L55.1 -35.85L56.9 -35.85L57.25 -35.75L57.35 -35.4L57.35 -33.65L57.25 -33.35L56.9 -33.2L55.1 -33.2L55.1 -26.8Q55.1 -26.15 55.25 -25.95L55.85 -25.75L56.9 -25.75L57.25 -25.65L57.4 -25.4L57.4 -23.65L57.3 -23.4L56.95 -23.25L56.1 -23.1L55.2 -23.05L53.2 -23.35Q52.35 -23.65 51.95 -24.45Q51.55 -25.25 51.55 -26.8L51.55 -33.2L49.75 -33.5Q49.6 -33.5 49.45 -33.65Q49.3 -33.75 49.3 -33.95L49.3 -35.4L49.45 -35.7L49.75 -35.85L51.55 -35.85L51.55 -37.65L51.65 -37.95M107.4,-35.75L107.7 -35.85L110.6 -35.85L110.9 -35.75L111.05 -35.45L111.05 -35.4L111 -35.35L107.3 -22.4L106.5 -20.4L105.05 -19.2L102.5 -18.8L101.55 -18.85L100.6 -19L99.85 -19.15L99.5 -19.3L99.4 -19.55L99.4 -21.35L99.5 -21.65L99.8 -21.75L99.85 -21.75L100.75 -21.7L101.75 -21.6L102.6 -21.6Q103.2 -21.55 103.55 -21.8L104.05 -22.7L104.25 -23.4L103.95 -23.4L103.15 -23.5L102.5 -24.1Q102.15 -24.5 101.9 -25.45L99 -35.35L98.95 -35.45L98.95 -35.5L99.05 -35.75L99.4 -35.85L102.3 -35.85L102.6 -35.75L102.75 -35.45L104.75 -27.15L104.85 -26.85L105 -26.75L105.2 -26.75L107.25 -35.45L107.4 -35.75M87.45,-35.4L87.75 -35.55L89.4 -35.85L91.55 -36.05Q93.95 -36.05 95.3 -35Q96.65 -33.95 96.7 -31.55L96.7 -23.7L96.55 -23.4Q96.45 -23.25 96.25 -23.25L93.8 -23.25Q93.6 -23.25 93.5 -23.4Q93.35 -23.5 93.35 -23.7L93.35 -24.05L92 -23.35L90.3 -23.05Q89.3 -23.05 88.45 -23.4Q87.6 -23.75 87.1 -24.6Q86.55 -25.4 86.55 -26.85L86.55 -27.05Q86.5 -28.95 87.85 -29.85Q89.15 -30.75 91.95 -30.75L93.15 -30.75L93.15 -31.55Q93.15 -32.45 92.7 -32.8L91.5 -33.05L90.05 -33.05L88.75 -33L87.85 -32.9L87.7 -32.9Q87.55 -32.9 87.45 -33L87.35 -33.3L87.35 -35.1L87.45 -35.4M90,-27.05L90 -26.85Q90 -26.15 90.35 -25.95L91.4 -25.75L92.35 -25.9L93.2 -26.25L93.2 -28.65L91.95 -28.65Q90.8 -28.65 90.4 -28.25Q90 -27.85 90 -27.05M104.65,21.8Q105.25 23.1 105.25 24.75L105.25 26.05L105.1 26.4L104.8 26.55L97.75 26.55L97.75 26.6L97.95 27.8L98.65 28.65L100.05 29L101.55 28.95L103.05 28.9L104.25 28.8L104.3 28.8L104.6 28.9L104.75 29.15L104.75 30.85L104.65 31.2L104.25 31.4L102.9 31.7L101.45 31.9L99.75 31.95L97.75 31.65Q96.8 31.35 96 30.7Q95.2 30.05 94.75 28.95Q94.25 27.9 94.25 26.3L94.25 24.75Q94.25 22.95 94.9 21.65Q95.55 20.4 96.8 19.7Q98.05 19 99.8 18.95Q101.6 19 102.8 19.75Q104 20.45 104.65 21.8M101.25,22.45Q100.7 21.8 99.8 21.8Q98.85 21.8 98.3 22.45Q97.75 23.05 97.75 24.25L97.75 24.35L101.75 24.35L101.75 24.25Q101.75 23.05 101.25 22.45M89.8,16.8L89.8 19.15L91.6 19.15L91.95 19.25L92.05 19.6L92.05 21.35L91.95 21.65L91.6 21.8L89.8 21.8L89.8 28.2Q89.8 28.85 89.95 29.05Q90.05 29.25 90.55 29.25L91.6 29.25L91.95 29.35L92.1 29.6L92.1 31.35L92 31.6L91.65 31.75L90.8 31.9L89.9 31.95L87.9 31.65Q87.05 31.35 86.65 30.55Q86.25 29.75 86.25 28.2L86.25 21.8L84.45 21.5L84.15 21.35L84 21.05L84 19.6Q84 19.4 84.15 19.3L84.45 19.15L86.25 19.15L86.25 17.35L86.35 17.05L86.65 16.9L89.35 16.45L89.4 16.45L89.7 16.55L89.8 16.8M81.55,31.6L81.25 31.75L78.8 31.75L78.5 31.6L78.35 31.3L78.35 30.95L77 31.65L75.3 31.95L73.45 31.6Q72.6 31.25 72.1 30.4Q71.55 29.6 71.55 28.15L71.55 27.95Q71.5 26.05 72.85 25.15Q74.15 24.25 76.95 24.25L78.15 24.25L78.15 23.45Q78.15 22.55 77.7 22.2Q77.25 21.9 76.5 21.95L75.05 21.95L73.75 22L72.85 22.1L72.7 22.1L72.45 22L72.35 21.7L72.35 19.9L72.45 19.6L72.75 19.45L74.4 19.15L76.55 18.95Q78.95 18.95 80.3 20Q81.65 21.05 81.7 23.45L81.7 31.3L81.55 31.6M92.85,74L93.85 74.1L93.85 70.3L94 70L94.3 69.85L96.95 69.85L97.3 70L97.4 70.3L97.4 85.75L97.3 86.15L96.75 86.35L94.55 86.75L92.05 86.95Q89.35 86.9 87.95 85.45Q86.55 84 86.5 81.3L86.5 79.6Q86.5 77.85 87.15 76.6Q87.75 75.35 88.95 74.65Q90.2 74 92.05 73.95L92.85 74M93.85,77L92.95 76.95L92.05 76.9Q90.9 76.95 90.5 77.65Q90.05 78.4 90.1 79.6L90.1 81.3Q90.05 82.5 90.5 83.25Q90.9 84 92.05 84L93.05 84L93.85 83.9L93.85 77M83.8,78.45L83.8 86.3L83.65 86.6L83.35 86.75L80.9 86.75L80.6 86.6L80.45 86.3L80.45 85.95L79.1 86.65L77.4 86.95L75.55 86.6Q74.7 86.25 74.2 85.4Q73.65 84.6 73.65 83.15L73.65 82.95Q73.6 81.05 74.95 80.15Q76.25 79.25 79.05 79.25L80.25 79.25L80.25 78.45Q80.25 77.55 79.8 77.2Q79.35 76.9 78.6 76.95L77.15 76.95L75.85 77L74.95 77.1L74.8 77.1L74.55 77L74.45 76.7L74.45 74.9L74.55 74.6L74.85 74.45L76.5 74.15L78.65 73.95Q81.05 73.95 82.4 75Q83.75 76.05 83.8 78.45M62.15,19.6L62.15 31.3L62 31.6L61.7 31.75L59.25 31.75Q59.05 31.75 58.95 31.6L58.8 31.3L58.8 30.8L57.1 31.65L55.2 31.9Q53.65 31.9 52.8 31.25Q51.95 30.6 51.6 29.45Q51.3 28.35 51.3 26.95L51.3 19.6L51.45 19.3Q51.6 19.15 51.8 19.15L54.45 19.15L54.75 19.3L54.9 19.6L54.9 26.95Q54.85 28.1 55.2 28.55Q55.55 29 56.5 29L57.5 28.75L58.6 28.25L58.6 19.6L58.7 19.3Q58.85 19.15 59 19.15L61.7 19.15Q61.85 19.15 62 19.3L62.15 19.6M68.85,15.3L68.85 31.3L68.7 31.6L68.4 31.75L65.75 31.75L65.4 31.6L65.25 31.3L65.25 15.3L65.4 15L65.75 14.85L68.4 14.85L68.7 15L68.85 15.3M47.15,20.45Q48.55 21.9 48.55 24.6L48.55 26.3Q48.55 28.05 47.95 29.3Q47.35 30.55 46.15 31.25Q44.9 31.95 43.05 31.95L42.2 31.9L41.25 31.8L41.25 35.6L41.1 35.9L40.8 36.05L38.15 36.05L37.8 35.9L37.65 35.6L37.65 20.15Q37.65 19.9 37.8 19.75L38.35 19.55L40.55 19.15L43.05 18.95Q45.75 19 47.15 20.45M41.25,22L41.25 28.9L42.15 29L43.05 29Q44.2 29 44.6 28.25Q45 27.5 45 26.3L45 24.6Q45 23.4 44.6 22.65Q44.2 21.95 43.05 21.9L42 21.95L41.25 22M77.35,29.1L78.2 28.75L78.2 26.35L76.95 26.35Q75.8 26.35 75.4 26.75Q75 27.15 75 27.95L75 28.15Q75 28.85 75.35 29.05L76.4 29.25L77.35 29.1M29.4,18.95Q31.15 19 32.4 19.7Q33.6 20.35 34.25 21.65Q34.9 22.95 34.9 24.7L34.9 26.25Q34.9 28 34.25 29.25Q33.6 30.55 32.4 31.25Q31.15 31.95 29.4 31.95Q27.6 31.95 26.35 31.25Q25.15 30.55 24.5 29.25Q23.85 28 23.85 26.25L23.85 24.7Q23.85 22.95 24.5 21.65Q25.15 20.35 26.35 19.7Q27.6 19 29.4 18.95M27.9,22.65Q27.4 23.35 27.4 24.7L27.4 26.25Q27.4 27.55 27.9 28.25Q28.45 28.9 29.4 28.9Q30.35 28.9 30.85 28.25Q31.35 27.55 31.35 26.25L31.35 24.7Q31.35 23.35 30.85 22.65Q30.35 22 29.4 22Q28.45 22 27.9 22.65M10.7,19.75L11.25 19.55L13.45 19.15L15.95 18.95Q18.65 19 20.05 20.45Q21.45 21.9 21.45 24.6L21.45 26.3Q21.45 28.05 20.85 29.3Q20.25 30.55 19.05 31.25Q17.8 31.95 15.95 31.95L15.1 31.9L14.15 31.8L14.15 35.6L14 35.9L13.7 36.05L11.05 36.05L10.7 35.9L10.55 35.6L10.55 20.15Q10.55 19.9 10.7 19.75M14.15,22L14.15 28.9L15.05 29L15.95 29Q17.1 29 17.5 28.25Q17.9 27.5 17.9 26.3L17.9 24.6Q17.9 23.4 17.5 22.65Q17.1 21.95 15.95 21.9L14.9 21.95L14.15 22M1.55,28.55L-0.6 33.45L-0.75 33.8L-1 33.9L-2.95 33.9L-3.2 33.8L-3.3 33.6L-3.3 33.5L-3.3 33.45L-1.85 28.55L-1.7 28.25Q-1.6 28.1 -1.45 28.1L1.25 28.1L1.5 28.2L1.6 28.4L1.55 28.45L1.55 28.55M36.7,74.15Q36.85 74.15 37 74.3L37.15 74.6L37.15 86.3L37 86.6L36.7 86.75L34.25 86.75Q34.05 86.75 33.95 86.6L33.8 86.3L33.8 85.8L32.1 86.65L30.2 86.9Q28.65 86.9 27.8 86.25Q26.95 85.6 26.6 84.45Q26.3 83.35 26.3 81.95L26.3 74.6L26.45 74.3Q26.6 74.15 26.8 74.15L29.45 74.15L29.75 74.3L29.9 74.6L29.9 81.95Q29.85 83.1 30.2 83.55Q30.55 84 31.5 84L32.5 83.75L33.6 83.25L33.6 74.6L33.7 74.3Q33.85 74.15 34 74.15L36.7 74.15M7.35,74.15L7.65 74.3L7.8 74.6L7.8 86.3L7.65 86.6L7.35 86.75L4.9 86.75L4.6 86.6L4.45 86.3L4.45 85.8Q3.55 86.4 2.75 86.65L0.85 86.9Q-0.7 86.9 -1.55 86.25Q-2.4 85.6 -2.75 84.45L-3.05 81.95L-3.05 74.6L-2.9 74.3L-2.55 74.15L0.1 74.15Q0.3 74.15 0.4 74.3L0.55 74.6L0.55 81.95Q0.5 83.1 0.85 83.55Q1.2 84 2.15 84L3.15 83.75L4.25 83.25L4.25 74.6L4.35 74.3L4.65 74.15L7.35 74.15M14,74.15L14.3 74.25L14.4 74.6L14.4 75Q15.05 74.5 15.8 74.25L17.4 73.95L17.7 74.1L17.85 74.4L17.85 76.5L17.75 76.75L17.5 76.9L17.3 76.9L15.8 77.15Q15.1 77.35 14.5 77.7L14.5 86.3L14.35 86.6L14.05 86.75L11.4 86.75L11.05 86.6L10.9 86.3L10.9 74.6L11.05 74.25L11.35 74.15L14 74.15M40.4,74.75L40.95 74.55L43.15 74.15L45.65 73.95Q48.35 74 49.75 75.45Q51.15 76.9 51.15 79.6L51.15 81.3Q51.15 83.05 50.55 84.3Q49.95 85.55 48.75 86.25Q47.5 86.95 45.65 86.95L44.8 86.9L43.85 86.8L43.85 90.6L43.7 90.9L43.4 91.05L40.75 91.05L40.4 90.9L40.25 90.6L40.25 75.15Q40.25 74.9 40.4 74.75M54.05,70L54.4 69.85L57.05 69.85L57.35 70L57.5 70.3L57.5 86.3L57.35 86.6L57.05 86.75L54.4 86.75L54.05 86.6L53.9 86.3L53.9 70.3L54.05 70M60.25,79.7Q60.25 77.95 60.9 76.65Q61.55 75.35 62.75 74.7Q64 74 65.8 73.95Q67.55 74 68.8 74.7Q70 75.35 70.65 76.65Q71.3 77.95 71.3 79.7L71.3 81.25Q71.3 83 70.65 84.25Q70 85.55 68.8 86.25Q67.55 86.95 65.8 86.95Q64 86.95 62.75 86.25Q61.55 85.55 60.9 84.25Q60.25 83 60.25 81.25L60.25 79.7M47.2,77.65Q46.8 76.95 45.65 76.9L44.6 76.95L43.85 77L43.85 83.9L44.75 84L45.65 84Q46.8 84 47.2 83.25Q47.6 82.5 47.6 81.3L47.6 79.6Q47.6 78.4 47.2 77.65M79.05,81.35Q77.9 81.35 77.5 81.75Q77.1 82.15 77.1 82.95L77.1 83.15Q77.1 83.85 77.45 84.05L78.5 84.25L79.45 84.1L80.3 83.75L80.3 81.35L79.05 81.35M67.25,77.65Q66.75 77 65.8 77Q64.85 77 64.3 77.65Q63.8 78.35 63.8 79.7L63.8 81.25Q63.8 82.55 64.3 83.25Q64.85 83.9 65.8 83.9Q66.75 83.9 67.25 83.25Q67.75 82.55 67.75 81.25L67.75 79.7Q67.75 78.35 67.25 77.65M59.65,132.65Q59.25 131.95 58.1 131.9L57.05 131.95L56.3 132L56.3 138.9L57.2 139L58.1 139Q59.25 139 59.65 138.25Q60.05 137.5 60.05 136.3L60.05 134.6Q60.05 133.4 59.65 132.65M52.85,129.75L53.4 129.55L55.6 129.15L58.1 128.95Q60.8 129 62.2 130.45Q63.6 131.9 63.6 134.6L63.6 136.3Q63.6 138.05 63 139.3Q62.4 140.55 61.2 141.25Q59.95 141.95 58.1 141.95L57.25 141.9L56.3 141.8L56.3 145.6L56.15 145.9L55.85 146.05L53.2 146.05L52.85 145.9L52.7 145.6L52.7 130.15Q52.7 129.9 52.85 129.75M49.2,129.45L49.5 129.65L49.6 130L49.6 131.75L49.5 132.05L49.25 132.2L49.15 132.2L48.2 132.05L46.85 131.95L45.5 131.9L44.6 132Q44.35 132.15 44.35 132.5L44.55 132.95L45.05 133.3L47.75 134.85L49.15 135.95L49.8 137.1L50 138.25Q50 139.3 49.5 140.15Q48.95 140.95 47.95 141.45L45.3 141.95L43.95 141.9L42.55 141.7L41.3 141.45L41 141.3L40.85 140.95L40.85 139.15L41 138.9Q41.1 138.75 41.3 138.75L41.35 138.75L42.7 138.9L44.1 139L45.1 139.05L46.15 138.85L46.4 138.2L46.25 137.75L45.6 137.3L42.75 135.65Q41.8 135.1 41.3 134.25Q40.8 133.45 40.75 132.35Q40.75 130.7 41.9 129.85Q43 129 45.3 128.95L47.45 129.1L49.2 129.45M80.2,131.5Q80.8 130.25 81.95 129.6Q83.1 128.95 84.65 128.95L86.4 129.05L87.6 129.3L87.95 129.45L88.05 129.8L88.05 131.75L87.95 132.05L87.65 132.15L87.6 132.15L86.4 132.05L84.9 132Q84.15 131.95 83.65 132.5Q83.15 133.1 83.1 134.55L83.1 136.4Q83.15 137.8 83.65 138.4Q84.15 138.95 84.9 138.9L86.4 138.9L87.6 138.75L87.65 138.75L87.95 138.9L88.05 139.15L88.05 141.1L87.95 141.45L87.6 141.6L86.4 141.85L84.65 141.95Q83.1 141.95 81.95 141.3Q80.8 140.65 80.2 139.4Q79.55 138.15 79.55 136.4L79.55 134.55Q79.55 132.75 80.2 131.5M73.55,134.25Q73.55 133.05 73.05 132.45Q72.5 131.8 71.6 131.8Q70.65 131.8 70.1 132.45Q69.55 133.05 69.55 134.25L69.55 134.35L73.55 134.35L73.55 134.25M77.05,136.05L76.9 136.4L76.6 136.55L69.55 136.55L69.55 136.6L69.75 137.8Q69.95 138.3 70.45 138.65L71.85 139L73.35 138.95L74.85 138.9L76.05 138.8L76.1 138.8L76.4 138.9L76.55 139.15L76.55 140.85L76.45 141.2L76.05 141.4L74.7 141.7L73.25 141.9L71.55 141.95L69.55 141.65Q68.6 141.35 67.8 140.7Q67 140.05 66.55 138.95Q66.05 137.9 66.05 136.3L66.05 134.75Q66.05 132.95 66.7 131.65Q67.35 130.4 68.6 129.7Q69.85 129 71.6 128.95Q73.4 129 74.6 129.75Q75.8 130.45 76.45 131.8Q77.05 133.1 77.05 134.75L77.05 136.05M18.9,129.15L21.55 129.15L21.85 129.25L21.95 129.6L21.95 130Q22.6 129.5 23.35 129.25L24.95 128.95L25.25 129.1L25.4 129.4L25.4 131.5L25.3 131.75L25.05 131.9L24.85 131.9L23.35 132.15Q22.65 132.35 22.05 132.7L22.05 141.3L21.9 141.6L21.6 141.75L18.95 141.75L18.6 141.6L18.45 141.3L18.45 129.6L18.6 129.25L18.9 129.15M8.45,124.7L9.35 124.85L9.65 125L9.75 125.3L9.75 127L9.65 127.3L9.3 127.4L8.2 127.4L7.6 127.55L7.5 128.4L7.5 129.15L9.3 129.15L9.6 129.25L9.75 129.6L9.75 131.35L9.6 131.65L9.3 131.8L7.5 131.8L7.5 141.3L7.35 141.6L7.05 141.75L4.35 141.75Q4.15 141.75 4.05 141.6L3.9 141.3L3.9 131.8L2.15 131.5Q1.95 131.5 1.85 131.35L1.7 131.05L1.7 129.6Q1.7 129.4 1.85 129.3Q1.95 129.15 2.15 129.15L3.9 129.15L3.9 128.45Q3.9 126.9 4.35 126.1Q4.75 125.25 5.6 124.95L7.6 124.7L8.45 124.7M30.85,134.35L34.85 134.35L34.85 134.25Q34.85 133.05 34.35 132.45Q33.8 131.8 32.9 131.8Q31.95 131.8 31.4 132.45Q30.85 133.05 30.85 134.25L30.85 134.35M38.35,136.05L38.2 136.4L37.9 136.55L30.85 136.55L30.85 136.6L31.05 137.8Q31.25 138.3 31.75 138.65Q32.25 139 33.15 139L34.65 138.95L36.15 138.9L37.35 138.8L37.4 138.8L37.7 138.9L37.85 139.15L37.85 140.85L37.75 141.2L37.35 141.4L36 141.7L34.55 141.9L32.85 141.95L30.85 141.65L29.1 140.7Q28.3 140.05 27.85 138.95Q27.35 137.9 27.35 136.3L27.35 134.75Q27.35 132.95 28 131.65Q28.65 130.4 29.9 129.7Q31.15 129 32.9 128.95Q34.7 129 35.9 129.75Q37.1 130.45 37.75 131.8Q38.35 133.1 38.35 134.75L38.35 136.05M98.05,129.6L98.05 131.35L97.95 131.65L97.6 131.8L95.8 131.8L95.8 138.2Q95.8 138.85 95.95 139.05Q96.05 139.25 96.55 139.25L97.6 139.25L97.95 139.35L98.1 139.6L98.1 141.35L98 141.6L97.65 141.75L96.8 141.9L95.9 141.95L93.9 141.65Q93.05 141.35 92.65 140.55Q92.25 139.75 92.25 138.2L92.25 131.8L90.45 131.5L90.15 131.35L90 131.05L90 129.6Q90 129.4 90.15 129.3L90.45 129.15L92.25 129.15L92.25 127.35L92.35 127.05L92.65 126.9L95.35 126.45L95.4 126.45L95.7 126.55L95.8 126.8L95.8 129.15L97.6 129.15L97.95 129.25L98.05 129.6M-66.85,-148.55L-66.55 -148.45L-66.45 -148.2L-66.45 -145.85L-64.65 -145.85L-64.3 -145.75L-64.2 -145.4L-64.2 -143.65L-64.3 -143.35Q-64.45 -143.2 -64.65 -143.2L-66.45 -143.2L-66.45 -136.8L-66.3 -135.95L-65.7 -135.75L-64.65 -135.75L-64.3 -135.65L-64.15 -135.4L-64.15 -133.65L-64.25 -133.4Q-64.4 -133.25 -64.6 -133.25L-65.45 -133.1L-66.35 -133.05L-68.35 -133.35Q-69.2 -133.65 -69.6 -134.45Q-70 -135.25 -70 -136.8L-70 -143.2L-71.8 -143.5Q-71.95 -143.5 -72.1 -143.65L-72.25 -143.95L-72.25 -145.4L-72.1 -145.7L-71.8 -145.85L-70 -145.85L-70 -147.65L-69.9 -147.95L-69.6 -148.1L-66.9 -148.55L-66.85 -148.55M-42.85,-145.45L-42.85 -145.5L-42.75 -145.75L-42.4 -145.85L-39.5 -145.85L-39.2 -145.75L-39.05 -145.45L-37.05 -137.15L-36.95 -136.85L-36.8 -136.75L-36.6 -136.75L-34.55 -145.45L-34.4 -145.75L-34.1 -145.85L-31.2 -145.85L-30.9 -145.75L-30.75 -145.45L-30.75 -145.4L-30.8 -145.35L-34.5 -132.4Q-34.8 -131.2 -35.3 -130.4Q-35.8 -129.6 -36.75 -129.2L-39.3 -128.8L-40.25 -128.85L-41.2 -129L-41.95 -129.15L-42.3 -129.3L-42.4 -129.55L-42.4 -131.35L-42.3 -131.65L-42 -131.75L-41.95 -131.75L-41.05 -131.7L-40.05 -131.6L-39.2 -131.6Q-38.6 -131.55 -38.25 -131.8Q-37.95 -132.1 -37.75 -132.7L-37.55 -133.4L-37.85 -133.4L-38.65 -133.5L-39.3 -134.1L-39.9 -135.45L-42.8 -145.35L-42.85 -145.45M-51.6,-143.2Q-51 -141.9 -51 -140.25L-51 -138.95Q-51 -138.7 -51.15 -138.6Q-51.25 -138.45 -51.45 -138.45L-58.5 -138.45L-58.5 -138.4L-58.3 -137.2L-57.6 -136.35Q-57.1 -136 -56.2 -136L-54.7 -136.05L-53.2 -136.1L-52 -136.2L-51.95 -136.2L-51.65 -136.1L-51.5 -135.85L-51.5 -134.15L-51.6 -133.8Q-51.7 -133.65 -52 -133.6L-53.35 -133.3L-54.8 -133.1L-56.5 -133.05L-58.5 -133.35L-60.25 -134.3Q-61.05 -134.95 -61.5 -136.05Q-62 -137.1 -62 -138.7L-62 -140.25Q-62 -142.05 -61.35 -143.35Q-60.7 -144.6 -59.45 -145.3Q-58.2 -146 -56.45 -146.05Q-54.65 -146 -53.45 -145.25Q-52.25 -144.55 -51.6 -143.2M-57.95,-142.55Q-58.5 -141.95 -58.5 -140.75L-58.5 -140.65L-54.5 -140.65L-54.5 -140.75Q-54.5 -141.95 -55 -142.55Q-55.55 -143.2 -56.45 -143.2Q-57.4 -143.2 -57.95 -142.55M-75.95,-145Q-74.6 -143.95 -74.55 -141.55L-74.55 -133.7Q-74.55 -133.5 -74.7 -133.4Q-74.8 -133.25 -75 -133.25L-77.45 -133.25Q-77.65 -133.25 -77.75 -133.4L-77.9 -133.7L-77.9 -134.05Q-78.55 -133.6 -79.25 -133.35L-80.95 -133.05Q-81.95 -133.05 -82.8 -133.4Q-83.65 -133.75 -84.15 -134.6Q-84.7 -135.4 -84.7 -136.85L-84.7 -137.05Q-84.75 -138.95 -83.4 -139.85Q-82.1 -140.75 -79.3 -140.75L-78.1 -140.75L-78.1 -141.55Q-78.1 -142.45 -78.55 -142.8L-79.75 -143.05L-81.2 -143.05L-82.5 -143L-83.4 -142.9L-83.55 -142.9Q-83.7 -142.9 -83.8 -143L-83.9 -143.3L-83.9 -145.1L-83.8 -145.4L-83.5 -145.55L-81.85 -145.85L-79.7 -146.05Q-77.3 -146.05 -75.95 -145M-80.85,-138.25Q-81.25 -137.85 -81.25 -137.05L-81.25 -136.85Q-81.25 -136.15 -80.9 -135.95Q-80.55 -135.7 -79.85 -135.75L-78.9 -135.9Q-78.45 -136 -78.05 -136.25L-78.05 -138.65L-79.3 -138.65Q-80.45 -138.65 -80.85 -138.25M-4.35,-145.7L-4.2 -145.4L-4.2 -133.7Q-4.2 -133.5 -4.35 -133.4Q-4.45 -133.25 -4.65 -133.25L-7.1 -133.25Q-7.3 -133.25 -7.4 -133.4L-7.55 -133.7L-7.55 -134.2Q-8.45 -133.6 -9.25 -133.35L-11.15 -133.1Q-12.7 -133.1 -13.55 -133.75Q-14.4 -134.4 -14.75 -135.55L-15.05 -138.05L-15.05 -145.4L-14.9 -145.7L-14.55 -145.85L-11.9 -145.85L-11.6 -145.7L-11.45 -145.4L-11.45 -138.05Q-11.5 -136.9 -11.15 -136.45Q-10.8 -136 -9.85 -136L-8.85 -136.25L-7.75 -136.75L-7.75 -145.4L-7.65 -145.7L-7.35 -145.85L-4.65 -145.85L-4.35 -145.7M-17.8,-138.75Q-17.8 -137 -18.45 -135.75Q-19.1 -134.45 -20.3 -133.75Q-21.55 -133.05 -23.3 -133.05Q-25.1 -133.05 -26.35 -133.75Q-27.55 -134.45 -28.2 -135.75Q-28.85 -137 -28.85 -138.75L-28.85 -140.3Q-28.85 -142.05 -28.2 -143.35Q-27.55 -144.65 -26.35 -145.3Q-25.1 -146 -23.3 -146.05Q-21.55 -146 -20.3 -145.3Q-19.1 -144.65 -18.45 -143.35Q-17.8 -142.05 -17.8 -140.3L-17.8 -138.75M-23.3,-143Q-24.25 -143 -24.8 -142.35Q-25.3 -141.65 -25.3 -140.3L-25.3 -138.75Q-25.3 -137.45 -24.8 -136.75Q-24.25 -136.1 -23.3 -136.1Q-22.35 -136.1 -21.85 -136.75Q-21.35 -137.45 -21.35 -138.75L-21.35 -140.3Q-21.35 -141.65 -21.85 -142.35Q-22.35 -143 -23.3 -143M-117.95,-149.75L-117.95 -147.75L-118.05 -147.4L-118.4 -147.3L-121.25 -147.3L-121.55 -147.4L-121.7 -147.75L-121.7 -149.75L-121.55 -150.1L-121.25 -150.2L-118.4 -150.2L-118.05 -150.1L-117.95 -149.75M-93.6,-150L-93.5 -149.7L-93.5 -148L-93.6 -147.7L-93.95 -147.6L-95.05 -147.6L-95.65 -147.45L-95.75 -146.6L-95.75 -145.85L-93.95 -145.85L-93.65 -145.75L-93.5 -145.4L-93.5 -143.65Q-93.5 -143.45 -93.65 -143.35Q-93.75 -143.2 -93.95 -143.2L-95.75 -143.2L-95.75 -133.7Q-95.75 -133.5 -95.9 -133.4Q-96 -133.25 -96.2 -133.25L-98.9 -133.25Q-99.1 -133.25 -99.2 -133.4L-99.35 -133.7L-99.35 -143.2L-101.1 -143.5Q-101.3 -143.5 -101.4 -143.65L-101.55 -143.95L-101.55 -145.4L-101.4 -145.7L-101.1 -145.85L-99.35 -145.85L-99.35 -146.55Q-99.35 -148.1 -98.9 -148.9Q-98.5 -149.75 -97.65 -150.05L-95.65 -150.3L-94.8 -150.3L-93.9 -150.15L-93.6 -150M-90.85,-150L-90.5 -150.15L-87.85 -150.15L-87.55 -150L-87.4 -149.7L-87.4 -133.7L-87.55 -133.4Q-87.65 -133.25 -87.85 -133.25L-90.5 -133.25L-90.85 -133.4L-91 -133.7L-91 -149.7L-90.85 -150M-121.6,-145.4L-121.45 -145.75L-121.15 -145.85L-118.45 -145.85L-118.15 -145.75L-118.05 -145.4L-118.05 -133.7L-118.15 -133.4Q-118.3 -133.25 -118.45 -133.25L-121.15 -133.25Q-121.35 -133.25 -121.45 -133.4L-121.6 -133.7L-121.6 -145.4M-104.25,-143.55Q-103.95 -142.45 -103.95 -141.05L-103.95 -133.7L-104.1 -133.4Q-104.25 -133.25 -104.4 -133.25L-107.1 -133.25Q-107.25 -133.25 -107.4 -133.4L-107.5 -133.7L-107.5 -141.05Q-107.5 -142.2 -107.85 -142.65Q-108.15 -143.1 -109.15 -143.1L-110.15 -142.9L-111.2 -142.4L-111.2 -133.7L-111.35 -133.4Q-111.45 -133.25 -111.65 -133.25L-114.3 -133.25L-114.65 -133.4L-114.8 -133.7L-114.8 -145.4L-114.65 -145.75L-114.35 -145.85L-111.9 -145.85L-111.55 -145.75L-111.45 -145.4L-111.45 -144.9Q-110.55 -145.55 -109.7 -145.8L-107.85 -146.05Q-106.25 -146 -105.4 -145.35Q-104.55 -144.7 -104.25 -143.55M-81.55,-81.1L-80.65 -81L-79.75 -81Q-78.6 -81 -78.2 -81.75Q-77.8 -82.5 -77.8 -83.7L-77.8 -85.4Q-77.8 -86.6 -78.2 -87.35Q-78.6 -88.05 -79.75 -88.1L-80.8 -88.05L-81.55 -88L-81.55 -81.1M-81.55,-74.4Q-81.55 -74.2 -81.7 -74.1Q-81.8 -73.95 -82 -73.95L-84.65 -73.95L-85 -74.1L-85.15 -74.4L-85.15 -89.85L-85 -90.25L-84.45 -90.45L-82.25 -90.85L-79.75 -91.05Q-77.05 -91 -75.65 -89.55Q-74.25 -88.1 -74.25 -85.4L-74.25 -83.7Q-74.25 -81.95 -74.85 -80.7Q-75.45 -79.45 -76.65 -78.75Q-77.9 -78.05 -79.75 -78.05L-80.6 -78.1L-81.55 -78.2L-81.55 -74.4M-92.75,-35.6L-92.75 -33.5L-92.85 -33.25Q-92.95 -33.1 -93.1 -33.1L-93.3 -33.1L-94.8 -32.85L-96.1 -32.3L-96.1 -23.7L-96.25 -23.4Q-96.35 -23.25 -96.55 -23.25L-99.2 -23.25Q-99.4 -23.25 -99.55 -23.4L-99.7 -23.7L-99.7 -35.4L-99.55 -35.75L-99.25 -35.85L-96.6 -35.85L-96.3 -35.75L-96.2 -35.4L-96.2 -35L-94.8 -35.75L-93.2 -36.05L-92.9 -35.9L-92.75 -35.6M-85.25,-33.2Q-86.2 -33.2 -86.75 -32.55Q-87.3 -31.95 -87.3 -30.75L-87.3 -30.65L-83.3 -30.65L-83.3 -30.75Q-83.3 -31.95 -83.8 -32.55Q-84.35 -33.2 -85.25 -33.2M-82.25,-35.25Q-81.05 -34.55 -80.4 -33.2Q-79.8 -31.9 -79.8 -30.25L-79.8 -28.95Q-79.8 -28.7 -79.95 -28.6Q-80.05 -28.45 -80.25 -28.45L-87.3 -28.45L-87.3 -28.4L-87.1 -27.2L-86.4 -26.35Q-85.9 -26 -85 -26L-83.5 -26.05L-82 -26.1L-80.8 -26.2L-80.75 -26.2L-80.45 -26.1L-80.3 -25.85L-80.3 -24.15L-80.4 -23.8Q-80.5 -23.65 -80.8 -23.6L-82.15 -23.3L-83.6 -23.1L-85.3 -23.05L-87.3 -23.35L-89.05 -24.3Q-89.85 -24.95 -90.3 -26.05Q-90.8 -27.1 -90.8 -28.7L-90.8 -30.25Q-90.8 -32.05 -90.15 -33.35Q-89.5 -34.6 -88.25 -35.3Q-87 -36 -85.25 -36.05Q-83.45 -36 -82.25 -35.25M-102.45,-35.2L-102.45 -33.25L-102.55 -32.95L-102.85 -32.85L-102.9 -32.85L-104.1 -32.95L-105.6 -33Q-106.35 -33.05 -106.85 -32.5Q-107.35 -31.9 -107.4 -30.45L-107.4 -28.6Q-107.35 -27.2 -106.85 -26.6Q-106.35 -26.05 -105.6 -26.1L-104.1 -26.1L-102.9 -26.25L-102.85 -26.25L-102.55 -26.1L-102.45 -25.85L-102.45 -23.9L-102.55 -23.55L-102.9 -23.4L-104.1 -23.15L-105.85 -23.05Q-107.4 -23.05 -108.55 -23.7Q-109.7 -24.35 -110.3 -25.6Q-110.95 -26.85 -110.95 -28.6L-110.95 -30.45Q-110.95 -32.25 -110.3 -33.5Q-109.7 -34.75 -108.55 -35.4Q-107.4 -36.05 -105.85 -36.05L-104.1 -35.95L-102.9 -35.7L-102.55 -35.55L-102.45 -35.2M-7.4,-88.35Q-6.75 -87.05 -6.75 -85.3L-6.75 -83.75Q-6.75 -82 -7.4 -80.75Q-8.05 -79.45 -9.25 -78.75Q-10.5 -78.05 -12.25 -78.05Q-14.05 -78.05 -15.3 -78.75Q-16.5 -79.45 -17.15 -80.75Q-17.8 -82 -17.8 -83.75L-17.8 -85.3Q-17.8 -87.05 -17.15 -88.35Q-16.5 -89.65 -15.3 -90.3Q-14.05 -91 -12.25 -91.05Q-10.5 -91 -9.25 -90.3Q-8.05 -89.65 -7.4 -88.35M-19.7,-90.4L-19.75 -90.35L-23.45 -77.4Q-23.75 -76.2 -24.25 -75.4Q-24.75 -74.6 -25.7 -74.2L-28.25 -73.8L-29.2 -73.85L-30.15 -74L-30.9 -74.15L-31.25 -74.3L-31.35 -74.55L-31.35 -76.35L-31.25 -76.65L-30.95 -76.75L-30.9 -76.75L-30 -76.7L-29 -76.6L-28.15 -76.6Q-27.55 -76.55 -27.2 -76.8Q-26.9 -77.1 -26.7 -77.7L-26.5 -78.4L-26.8 -78.4L-27.6 -78.5L-28.25 -79.1L-28.85 -80.45L-31.75 -90.35L-31.8 -90.45L-31.8 -90.5L-31.7 -90.75L-31.35 -90.85L-28.45 -90.85L-28.15 -90.75L-28 -90.45L-26 -82.15L-25.9 -81.85L-25.75 -81.75L-25.55 -81.75L-23.5 -90.45L-23.35 -90.75L-23.05 -90.85L-20.15 -90.85L-19.85 -90.75L-19.7 -90.45L-19.7 -90.4M-13.75,-87.35Q-14.25 -86.65 -14.25 -85.3L-14.25 -83.75Q-14.25 -82.45 -13.75 -81.75Q-13.2 -81.1 -12.25 -81.1Q-11.3 -81.1 -10.8 -81.75Q-10.3 -82.45 -10.3 -83.75L-10.3 -85.3Q-10.3 -86.65 -10.8 -87.35Q-11.3 -88 -12.25 -88Q-13.2 -88 -13.75 -87.35M-39.45,-89.05L-39.55 -88.7Q-39.65 -88.6 -39.85 -88.55L-40.55 -88.35L-40.2 -87.55L-40.05 -86.7L-40.05 -86.5Q-40.05 -84.4 -41.45 -83.4Q-42.9 -82.4 -45.5 -82.4L-46.85 -82.5L-47.75 -82.75L-48 -82.5L-48.1 -82.25L-47.95 -81.85L-47.4 -81.6L-44.95 -81.05L-41.9 -80.25Q-40.75 -79.85 -40.25 -79.2Q-39.75 -78.55 -39.8 -77.55L-39.8 -77.35Q-39.8 -75.55 -41.2 -74.65Q-42.65 -73.75 -45.55 -73.75Q-48.3 -73.8 -49.7 -74.7Q-51.15 -75.6 -51.15 -77.35L-51.15 -77.55L-50.85 -78.8L-49.8 -80L-50.65 -80.9L-50.95 -82.05L-50.65 -83.1L-50 -83.9L-50.75 -85.1L-51 -86.5L-51 -86.7Q-51 -88.6 -49.7 -89.7Q-48.35 -90.85 -45.5 -90.85L-40 -90.85L-39.6 -90.7L-39.45 -90.3L-39.45 -89.05M-43.9,-87.85Q-44.35 -88.25 -45.5 -88.3Q-46.65 -88.25 -47.05 -87.85L-47.5 -86.7L-47.5 -86.5L-47.35 -85.8L-46.75 -85.2L-45.5 -85Q-44.35 -85 -43.9 -85.4Q-43.5 -85.8 -43.5 -86.5L-43.5 -86.7Q-43.5 -87.4 -43.9 -87.85M-53.95,-90.4L-53.95 -78.7Q-53.95 -78.5 -54.1 -78.4Q-54.2 -78.25 -54.4 -78.25L-56.85 -78.25Q-57.05 -78.25 -57.15 -78.4L-57.3 -78.7L-57.3 -79.2Q-58.2 -78.6 -59 -78.35L-60.9 -78.1Q-62.45 -78.1 -63.3 -78.75Q-64.15 -79.4 -64.5 -80.55L-64.8 -83.05L-64.8 -90.4L-64.65 -90.7L-64.3 -90.85L-61.65 -90.85L-61.35 -90.7L-61.2 -90.4L-61.2 -83.05Q-61.25 -81.9 -60.9 -81.45Q-60.55 -81 -59.6 -81L-58.6 -81.25L-57.5 -81.75L-57.5 -90.4L-57.4 -90.7L-57.1 -90.85L-54.4 -90.85L-54.1 -90.7L-53.95 -90.4M-47.3,-79L-47.65 -78.4L-47.75 -77.55L-47.75 -77.35Q-47.8 -76.8 -47.3 -76.5L-45.55 -76.25L-44.2 -76.35L-43.55 -76.75Q-43.4 -77 -43.4 -77.35L-43.4 -77.55L-43.55 -77.9L-44.2 -78.25L-45.7 -78.65L-47.3 -79M-67.9,-94.7L-67.9 -78.7L-68.05 -78.4Q-68.15 -78.25 -68.35 -78.25L-71 -78.25L-71.35 -78.4L-71.5 -78.7L-71.5 -94.7L-71.35 -95L-71 -95.15L-68.35 -95.15L-68.05 -95L-67.9 -94.7M-59.15,-38.2L-59.15 -35.85L-57.35 -35.85L-57 -35.75L-56.9 -35.4L-56.9 -33.65L-57 -33.35Q-57.15 -33.2 -57.35 -33.2L-59.15 -33.2L-59.15 -26.8L-59 -25.95Q-58.9 -25.75 -58.4 -25.75L-57.35 -25.75L-57 -25.65L-56.85 -25.4L-56.85 -23.65L-56.95 -23.4Q-57.1 -23.25 -57.3 -23.25L-58.15 -23.1L-59.05 -23.05L-61.05 -23.35Q-61.9 -23.65 -62.3 -24.45Q-62.7 -25.25 -62.7 -26.8L-62.7 -33.2L-64.5 -33.5Q-64.65 -33.5 -64.8 -33.65L-64.95 -33.95L-64.95 -35.4L-64.8 -35.7L-64.5 -35.85L-62.7 -35.85L-62.7 -37.65L-62.6 -37.95L-62.3 -38.1L-59.6 -38.55L-59.55 -38.55L-59.25 -38.45L-59.15 -38.2M-52.15,-35.3Q-50.9 -36 -49.15 -36.05Q-47.35 -36 -46.15 -35.25Q-44.95 -34.55 -44.3 -33.2Q-43.7 -31.9 -43.7 -30.25L-43.7 -28.95Q-43.7 -28.7 -43.85 -28.6Q-43.95 -28.45 -44.15 -28.45L-51.2 -28.45L-51.2 -28.4L-51 -27.2L-50.3 -26.35Q-49.8 -26 -48.9 -26L-47.4 -26.05L-45.9 -26.1L-44.7 -26.2L-44.65 -26.2L-44.35 -26.1L-44.2 -25.85L-44.2 -24.15L-44.3 -23.8Q-44.4 -23.65 -44.7 -23.6L-46.05 -23.3L-47.5 -23.1L-49.2 -23.05L-51.2 -23.35L-52.95 -24.3Q-53.75 -24.95 -54.2 -26.05Q-54.7 -27.1 -54.7 -28.7L-54.7 -30.25Q-54.7 -32.05 -54.05 -33.35Q-53.4 -34.6 -52.15 -35.3M-51.2,-30.65L-47.2 -30.65L-47.2 -30.75Q-47.2 -31.95 -47.7 -32.55Q-48.25 -33.2 -49.15 -33.2Q-50.1 -33.2 -50.65 -32.55Q-51.2 -31.95 -51.2 -30.75L-51.2 -30.65M-72.4,-36.05Q-70 -36.05 -68.65 -35Q-67.3 -33.95 -67.25 -31.55L-67.25 -23.7Q-67.25 -23.5 -67.4 -23.4Q-67.5 -23.25 -67.7 -23.25L-70.15 -23.25Q-70.35 -23.25 -70.45 -23.4L-70.6 -23.7L-70.6 -24.05L-71.95 -23.35L-73.65 -23.05L-75.5 -23.4Q-76.35 -23.75 -76.85 -24.6Q-77.4 -25.4 -77.4 -26.85L-77.4 -27.05Q-77.45 -28.95 -76.1 -29.85Q-74.8 -30.75 -72 -30.75L-70.8 -30.75L-70.8 -31.55Q-70.8 -32.45 -71.25 -32.8L-72.45 -33.05L-73.9 -33.05L-75.2 -33L-76.1 -32.9L-76.25 -32.9L-76.5 -33L-76.6 -33.3L-76.6 -35.1L-76.5 -35.4L-76.2 -35.55L-74.55 -35.85L-72.4 -36.05M-73.55,-28.25Q-73.95 -27.85 -73.95 -27.05L-73.95 -26.85Q-73.95 -26.15 -73.6 -25.95L-72.55 -25.75L-71.6 -25.9Q-71.15 -26 -70.75 -26.25L-70.75 -28.65L-72 -28.65Q-73.15 -28.65 -73.55 -28.25M-15.2,-40.2L-12.35 -40.2L-12 -40.1L-11.9 -39.75L-11.9 -37.75L-12 -37.4Q-12.15 -37.3 -12.35 -37.3L-15.2 -37.3L-15.5 -37.4L-15.65 -37.75L-15.65 -39.75L-15.5 -40.1L-15.2 -40.2M-12.1,-35.75L-12 -35.4L-12 -23.7L-12.1 -23.4Q-12.25 -23.25 -12.4 -23.25L-15.1 -23.25Q-15.3 -23.25 -15.4 -23.4L-15.55 -23.7L-15.55 -35.4L-15.4 -35.75L-15.1 -35.85L-12.4 -35.85L-12.1 -35.75M-17.9,-35.6L-17.9 -33.5L-18 -33.25Q-18.1 -33.1 -18.25 -33.1L-18.45 -33.1L-19.95 -32.85L-21.25 -32.3L-21.25 -23.7L-21.4 -23.4Q-21.5 -23.25 -21.7 -23.25L-24.35 -23.25L-24.7 -23.4L-24.85 -23.7L-24.85 -35.4L-24.7 -35.75L-24.4 -35.85L-21.75 -35.85L-21.45 -35.75L-21.35 -35.4L-21.35 -35L-19.95 -35.75L-18.35 -36.05L-18.05 -35.9L-17.9 -35.6M-3.5,-33.2Q-4.45 -33.2 -5 -32.55Q-5.55 -31.95 -5.55 -30.75L-5.55 -30.65L-1.55 -30.65L-1.55 -30.75Q-1.55 -31.95 -2.05 -32.55Q-2.6 -33.2 -3.5 -33.2M-28.65,-40.3L-27.75 -40.15L-27.45 -40L-27.35 -39.7L-27.35 -38L-27.45 -37.7L-27.8 -37.6L-28.9 -37.6L-29.5 -37.45L-29.6 -36.6L-29.6 -35.85L-27.8 -35.85L-27.5 -35.75L-27.35 -35.4L-27.35 -33.65Q-27.35 -33.45 -27.5 -33.35Q-27.6 -33.2 -27.8 -33.2L-29.6 -33.2L-29.6 -23.7Q-29.6 -23.5 -29.75 -23.4Q-29.85 -23.25 -30.05 -23.25L-32.75 -23.25Q-32.95 -23.25 -33.05 -23.4L-33.2 -23.7L-33.2 -33.2L-34.95 -33.5Q-35.15 -33.5 -35.25 -33.65L-35.4 -33.95L-35.4 -35.4L-35.25 -35.7L-34.95 -35.85L-33.2 -35.85L-33.2 -36.55Q-33.2 -38.1 -32.75 -38.9Q-32.35 -39.75 -31.5 -40.05L-29.5 -40.3L-28.65 -40.3M-16.55,19.55L-16.55 19.5L-16.45 19.25L-16.1 19.15L-13.2 19.15L-12.9 19.25L-12.75 19.55L-10.75 27.85L-10.65 28.15L-10.5 28.25L-10.3 28.25L-8.25 19.55L-8.1 19.25L-7.8 19.15L-4.9 19.15Q-4.7 19.15 -4.6 19.25L-4.45 19.55L-4.45 19.6L-4.5 19.65L-8.2 32.6L-9 34.6Q-9.5 35.4 -10.45 35.8L-13 36.2L-13.95 36.15L-14.9 36L-15.65 35.85L-16 35.7L-16.1 35.45L-16.1 33.65L-16 33.35L-15.7 33.25L-15.65 33.25L-14.75 33.3L-13.75 33.4L-12.9 33.4L-11.95 33.2L-11.45 32.3L-11.25 31.6L-11.55 31.6L-12.35 31.5L-13 30.9L-13.6 29.55L-16.5 19.65L-16.55 19.55M-17.95,21.5L-18.05 21.75Q-18.15 21.9 -18.3 21.9L-18.5 21.9L-20 22.15Q-20.7 22.35 -21.3 22.7L-21.3 31.3L-21.45 31.6Q-21.55 31.75 -21.75 31.75L-24.4 31.75L-24.75 31.6L-24.9 31.3L-24.9 19.6L-24.75 19.25L-24.45 19.15L-21.8 19.15L-21.5 19.25L-21.4 19.6L-21.4 20Q-20.75 19.5 -20 19.25L-18.4 18.95L-18.1 19.1L-17.95 19.4L-17.95 21.5M-31.6,22.65Q-32 21.95 -33.15 21.9L-34.2 21.95L-34.95 22L-34.95 28.9L-34.05 29L-33.15 29Q-32 29 -31.6 28.25Q-31.2 27.5 -31.2 26.3L-31.2 24.6Q-31.2 23.4 -31.6 22.65M-38.4,19.75L-37.85 19.55L-35.65 19.15L-33.15 18.95Q-30.45 19 -29.05 20.45Q-27.65 21.9 -27.65 24.6L-27.65 26.3Q-27.65 28.05 -28.25 29.3Q-28.85 30.55 -30.05 31.25Q-31.3 31.95 -33.15 31.95L-34 31.9L-34.95 31.8L-34.95 35.6L-35.1 35.9L-35.4 36.05L-38.05 36.05L-38.4 35.9L-38.55 35.6L-38.55 20.15L-38.4 19.75M-57.55,19.2L-57.25 19.15L-54.1 19.15L-53.85 19.2L-53.75 19.4L-53.8 19.5L-53.85 19.6L-57.95 25.15L-53.9 31.3L-53.85 31.35L-53.85 31.45L-53.9 31.65L-54.15 31.75L-57.45 31.75L-57.75 31.7L-58 31.45L-61.15 26.25L-61.15 31.3L-61.3 31.6L-61.6 31.75L-64.25 31.75L-64.6 31.6L-64.75 31.3L-64.75 15.3L-64.6 15L-64.25 14.85L-61.6 14.85L-61.3 15L-61.15 15.3L-61.15 24.5L-57.8 19.45L-57.55 19.2M-76,19.7Q-74.75 19 -73 18.95Q-71.2 19 -70 19.75Q-68.8 20.45 -68.15 21.8Q-67.55 23.1 -67.55 24.75L-67.55 26.05L-67.7 26.4L-68 26.55L-75.05 26.55L-75.05 26.6L-74.85 27.8L-74.15 28.65L-72.75 29L-71.25 28.95L-69.75 28.9L-68.55 28.8L-68.5 28.8Q-68.3 28.8 -68.2 28.9L-68.05 29.15L-68.05 30.85L-68.15 31.2L-68.55 31.4L-69.9 31.7L-71.35 31.9L-73.05 31.95L-75.05 31.65Q-76 31.35 -76.8 30.7Q-77.6 30.05 -78.05 28.95Q-78.55 27.9 -78.55 26.3L-78.55 24.75Q-78.55 22.95 -77.9 21.65Q-77.25 20.4 -76 19.7M-71.05,24.25Q-71.05 23.05 -71.55 22.45Q-72.1 21.8 -73 21.8Q-73.95 21.8 -74.5 22.45Q-75.05 23.05 -75.05 24.25L-75.05 24.35L-71.05 24.35L-71.05 24.25M-47.5,28.4L-47.55 28.45L-47.55 28.55L-49.7 33.45L-49.85 33.8L-50.1 33.9L-52.05 33.9L-52.3 33.8L-52.4 33.6L-52.4 33.5L-52.4 33.45L-50.95 28.55L-50.8 28.25L-50.55 28.1L-47.85 28.1L-47.6 28.2L-47.5 28.4M-52.55,74.15L-52.15 74.3Q-52 74.45 -52 74.7L-52 75.95L-52.1 76.3L-52.4 76.45L-53.1 76.65L-52.75 77.45Q-52.6 77.9 -52.6 78.3L-52.6 78.5Q-52.6 80.6 -54 81.6Q-55.45 82.6 -58.05 82.6L-59.4 82.5L-60.3 82.25L-60.55 82.5L-60.65 82.75L-60.5 83.15L-59.95 83.4L-57.5 83.95L-54.45 84.75Q-53.3 85.15 -52.8 85.8Q-52.3 86.45 -52.35 87.45L-52.35 87.65Q-52.35 89.45 -53.75 90.35Q-55.2 91.25 -58.1 91.25Q-60.85 91.2 -62.25 90.3Q-63.7 89.4 -63.7 87.65L-63.7 87.45L-63.4 86.2L-62.35 85Q-62.95 84.65 -63.2 84.1L-63.5 82.95L-63.2 81.9L-62.55 81.1L-63.3 79.9L-63.55 78.5L-63.55 78.3Q-63.55 76.4 -62.25 75.3Q-60.9 74.15 -58.05 74.15L-52.55 74.15M-71.1,74L-70.1 74.1L-70.1 70.3L-69.95 70L-69.65 69.85L-67 69.85L-66.65 70L-66.55 70.3L-66.55 85.75L-66.65 86.15L-67.2 86.35L-69.4 86.75L-71.9 86.95Q-74.6 86.9 -76 85.45Q-77.4 84 -77.45 81.3L-77.45 79.6Q-77.45 77.85 -76.8 76.6Q-76.2 75.35 -75 74.65Q-73.75 74 -71.9 73.95L-71.1 74M-70.1,77L-71 76.95L-71.9 76.9Q-73.05 76.95 -73.45 77.65Q-73.9 78.4 -73.85 79.6L-73.85 81.3Q-73.9 82.5 -73.45 83.25Q-73.05 84 -71.9 84L-70.9 84L-70.1 83.9L-70.1 77M-80.15,74.6L-80.15 86.3L-80.3 86.6L-80.6 86.75L-83.05 86.75L-83.35 86.6L-83.5 86.3L-83.5 85.8Q-84.4 86.4 -85.2 86.65L-87.1 86.9Q-88.65 86.9 -89.5 86.25Q-90.35 85.6 -90.7 84.45L-91 81.95L-91 74.6L-90.85 74.3L-90.5 74.15L-87.85 74.15Q-87.65 74.15 -87.55 74.3Q-87.4 74.4 -87.4 74.6L-87.4 81.95Q-87.45 83.1 -87.1 83.55Q-86.75 84 -85.8 84L-84.8 83.75L-83.7 83.25L-83.7 74.6L-83.6 74.3Q-83.45 74.15 -83.3 74.15L-80.6 74.15Q-80.45 74.15 -80.3 74.3L-80.15 74.6M-43,77.45Q-43.55 76.8 -44.45 76.8Q-45.4 76.8 -45.95 77.45Q-46.5 78.05 -46.5 79.25L-46.5 79.35L-42.5 79.35L-42.5 79.25Q-42.5 78.05 -43 77.45M-47.45,74.7Q-46.2 74 -44.45 73.95Q-42.65 74 -41.45 74.75Q-40.25 75.45 -39.6 76.8Q-39 78.1 -39 79.75L-39 81.05L-39.15 81.4Q-39.25 81.55 -39.45 81.55L-46.5 81.55L-46.5 81.6L-46.3 82.8L-45.6 83.65L-44.2 84L-42.7 83.95L-41.2 83.9L-40 83.8L-39.95 83.8L-39.65 83.9L-39.5 84.15L-39.5 85.85L-39.6 86.2L-40 86.4L-41.35 86.7L-42.8 86.9L-44.5 86.95L-46.5 86.65Q-47.45 86.35 -48.25 85.7Q-49.05 85.05 -49.5 83.95Q-50 82.9 -50 81.3L-50 79.75Q-50 77.95 -49.35 76.65Q-48.7 75.4 -47.45 74.7M-58.05,76.7Q-59.2 76.75 -59.6 77.15Q-60.05 77.6 -60.05 78.3L-60.05 78.5L-59.9 79.2L-59.3 79.8L-58.05 80Q-56.9 80 -56.45 79.6Q-56.05 79.2 -56.05 78.5L-56.05 78.3Q-56.05 77.6 -56.45 77.15Q-56.9 76.75 -58.05 76.7M-60.2,86.6L-60.3 87.45L-60.3 87.65Q-60.35 88.2 -59.85 88.5L-58.1 88.75L-56.75 88.65L-56.1 88.25L-55.95 87.65L-55.95 87.45Q-55.95 87.25 -56.1 87.1L-56.75 86.75L-58.25 86.35L-59.85 86L-60.2 86.6M-27.5,74.15L-27.2 74.25L-27.05 74.55L-25.05 82.85L-24.95 83.15L-24.8 83.25L-24.6 83.25L-22.55 74.55L-22.4 74.25L-22.1 74.15L-19.2 74.15L-18.9 74.25L-18.75 74.55L-18.75 74.6L-18.8 74.65L-22.5 87.6Q-22.8 88.8 -23.3 89.6Q-23.8 90.4 -24.75 90.8L-27.3 91.2L-28.25 91.15L-29.2 91L-29.95 90.85L-30.3 90.7L-30.4 90.45L-30.4 88.65L-30.3 88.35L-30 88.25L-29.95 88.25L-29.05 88.3L-28.05 88.4L-27.2 88.4L-26.25 88.2L-25.75 87.3L-25.55 86.6L-25.85 86.6L-26.65 86.5L-27.3 85.9L-27.9 84.55L-30.8 74.65L-30.85 74.55L-30.85 74.5L-30.75 74.25L-30.4 74.15L-27.5 74.15M-5.8,79.7L-5.8 81.25Q-5.8 83 -6.45 84.25Q-7.1 85.55 -8.3 86.25Q-9.55 86.95 -11.3 86.95Q-13.1 86.95 -14.35 86.25Q-15.55 85.55 -16.2 84.25Q-16.85 83 -16.85 81.25L-16.85 79.7Q-16.85 77.95 -16.2 76.65Q-15.55 75.35 -14.35 74.7Q-13.1 74 -11.3 73.95Q-9.55 74 -8.3 74.7Q-7.1 75.35 -6.45 76.65Q-5.8 77.95 -5.8 79.7M-9.85,77.65Q-10.35 77 -11.3 77Q-12.25 77 -12.8 77.65Q-13.3 78.35 -13.3 79.7L-13.3 81.25Q-13.3 82.55 -12.8 83.25Q-12.25 83.9 -11.3 83.9Q-10.35 83.9 -9.85 83.25Q-9.35 82.55 -9.35 81.25L-9.35 79.7Q-9.35 78.35 -9.85 77.65M-95.9,20.45Q-94.5 21.9 -94.5 24.6L-94.5 26.3Q-94.5 28.05 -95.1 29.3Q-95.7 30.55 -96.9 31.25Q-98.15 31.95 -100 31.95L-100.85 31.9L-101.8 31.8L-101.8 35.6L-101.95 35.9Q-102.05 36.05 -102.25 36.05L-104.9 36.05L-105.25 35.9L-105.4 35.6L-105.4 20.15L-105.25 19.75L-104.7 19.55L-102.5 19.15L-100 18.95Q-97.3 19 -95.9 20.45M-98.45,22.65Q-98.85 21.95 -100 21.9L-101.05 21.95L-101.8 22L-101.8 28.9L-100.9 29L-100 29Q-98.85 29 -98.45 28.25Q-98.05 27.5 -98.05 26.3L-98.05 24.6Q-98.05 23.4 -98.45 22.65M-86.5,18.95Q-84.7 19 -83.5 19.75Q-82.3 20.45 -81.65 21.8Q-81.05 23.1 -81.05 24.75L-81.05 26.05L-81.2 26.4L-81.5 26.55L-88.55 26.55L-88.55 26.6L-88.35 27.8L-87.65 28.65Q-87.15 29 -86.25 29L-84.75 28.95L-83.25 28.9L-82.05 28.8L-82 28.8Q-81.8 28.8 -81.7 28.9L-81.55 29.15L-81.55 30.85L-81.65 31.2L-82.05 31.4L-83.4 31.7L-84.85 31.9L-86.55 31.95L-88.55 31.65Q-89.5 31.35 -90.3 30.7Q-91.1 30.05 -91.55 28.95Q-92.05 27.9 -92.05 26.3L-92.05 24.75Q-92.05 22.95 -91.4 21.65Q-90.75 20.4 -89.5 19.7Q-88.25 19 -86.5 18.95M-88,22.45Q-88.55 23.05 -88.55 24.25L-88.55 24.35L-84.55 24.35L-84.55 24.25Q-84.55 23.05 -85.05 22.45Q-85.6 21.8 -86.5 21.8Q-87.45 21.8 -88 22.45M-97.45,69.8L-94.6 69.8Q-94.4 69.8 -94.3 69.9Q-94.15 70.05 -94.15 70.25L-94.15 72.25L-94.3 72.6L-94.6 72.7L-97.45 72.7L-97.75 72.6L-97.9 72.25L-97.9 70.25L-97.75 69.9L-97.45 69.8M-94.65,74.15Q-94.45 74.15 -94.35 74.3L-94.25 74.6L-94.25 87.45Q-94.25 88.9 -94.65 89.75Q-95.05 90.55 -95.85 90.9L-97.7 91.2L-98.55 91.2L-99.45 91.05L-99.8 90.9L-99.9 90.6L-99.9 88.9L-99.8 88.6L-99.45 88.5L-98.45 88.5L-97.9 88.25L-97.8 87.45L-97.8 74.6L-97.65 74.3L-97.35 74.15L-94.65 74.15M-81.2,128.95Q-79.45 129 -78.2 129.7Q-77 130.35 -76.35 131.65Q-75.7 132.95 -75.7 134.7L-75.7 136.25Q-75.7 138 -76.35 139.25Q-77 140.55 -78.2 141.25Q-79.45 141.95 -81.2 141.95Q-83 141.95 -84.25 141.25Q-85.45 140.55 -86.1 139.25Q-86.75 138 -86.75 136.25L-86.75 134.7Q-86.75 132.95 -86.1 131.65Q-85.45 130.35 -84.25 129.7Q-83 129 -81.2 128.95M-89.6,129.65L-89.5 130L-89.5 131.75L-89.6 132.05L-89.85 132.2L-89.95 132.2L-90.9 132.05L-92.25 131.95L-93.6 131.9L-94.5 132L-94.75 132.5L-94.55 132.95L-94.05 133.3L-91.35 134.85L-89.95 135.95Q-89.45 136.5 -89.3 137.1L-89.1 138.25Q-89.1 139.3 -89.6 140.15L-91.15 141.45Q-92.2 141.95 -93.8 141.95L-95.15 141.9L-96.55 141.7L-97.8 141.45L-98.1 141.3L-98.25 140.95L-98.25 139.15L-98.1 138.9Q-98 138.75 -97.8 138.75L-97.75 138.75L-96.4 138.9L-95 139L-94 139.05L-92.95 138.85L-92.7 138.2Q-92.7 137.95 -92.85 137.75L-93.5 137.3L-96.35 135.65L-97.8 134.25Q-98.3 133.45 -98.35 132.35Q-98.35 130.7 -97.2 129.85Q-96.1 129 -93.8 128.95L-91.65 129.1L-89.9 129.45L-89.6 129.65M-82.7,132.65Q-83.2 133.35 -83.2 134.7L-83.2 136.25Q-83.2 137.55 -82.7 138.25Q-82.15 138.9 -81.2 138.9Q-80.25 138.9 -79.75 138.25Q-79.25 137.55 -79.25 136.25L-79.25 134.7Q-79.25 133.35 -79.75 132.65Q-80.25 132 -81.2 132Q-82.15 132 -82.7 132.65M-23.05,129.1L-21.3 129.45L-21 129.65L-20.9 130L-20.9 131.75L-21 132.05L-21.25 132.2L-21.35 132.2L-22.3 132.05L-23.65 131.95L-25 131.9L-25.9 132L-26.15 132.5L-25.95 132.95L-25.45 133.3L-22.75 134.85L-21.35 135.95Q-20.85 136.5 -20.7 137.1L-20.5 138.25Q-20.5 139.3 -21 140.15L-22.55 141.45L-25.2 141.95L-26.55 141.9L-27.95 141.7L-29.2 141.45L-29.5 141.3L-29.65 140.95L-29.65 139.15L-29.5 138.9Q-29.4 138.75 -29.2 138.75L-29.15 138.75L-27.8 138.9L-26.4 139L-25.4 139.05L-24.35 138.85L-24.1 138.2Q-24.1 137.95 -24.25 137.75L-24.9 137.3L-27.75 135.65L-29.2 134.25Q-29.7 133.45 -29.75 132.35Q-29.75 130.7 -28.6 129.85Q-27.5 129 -25.2 128.95L-23.05 129.1M-38.65,125.3L-38.65 141.3L-38.8 141.6L-39.1 141.75L-41.75 141.75L-42.1 141.6L-42.25 141.3L-42.25 125.3L-42.1 125L-41.75 124.85L-39.1 124.85L-38.8 125L-38.65 125.3M-0.7,125.3L-0.7 141.3L-0.85 141.6Q-0.95 141.75 -1.15 141.75L-3.8 141.75L-4.15 141.6L-4.3 141.3L-4.3 125.3L-4.15 125L-3.8 124.85L-1.15 124.85L-0.85 125L-0.7 125.3M-7.1,136.05L-7.25 136.4Q-7.35 136.55 -7.55 136.55L-14.6 136.55L-14.6 136.6L-14.4 137.8L-13.7 138.65Q-13.2 139 -12.3 139L-10.8 138.95L-9.3 138.9L-8.1 138.8L-8.05 138.8Q-7.85 138.8 -7.75 138.9L-7.6 139.15L-7.6 140.85L-7.7 141.2L-8.1 141.4L-9.45 141.7L-10.9 141.9L-12.6 141.95L-14.6 141.65Q-15.55 141.35 -16.35 140.7L-17.6 138.95Q-18.1 137.9 -18.1 136.3L-18.1 134.75Q-18.1 132.95 -17.45 131.65Q-16.8 130.4 -15.55 129.7Q-14.3 129 -12.55 128.95Q-10.75 129 -9.55 129.75Q-8.35 130.45 -7.7 131.8Q-7.1 133.1 -7.1 134.75L-7.1 136.05M-14.05,132.45Q-14.6 133.05 -14.6 134.25L-14.6 134.35L-10.6 134.35L-10.6 134.25Q-10.6 133.05 -11.1 132.45Q-11.65 131.8 -12.55 131.8Q-13.5 131.8 -14.05 132.45M-61.55,124.8L-58.7 124.8L-58.35 124.9L-58.25 125.25L-58.25 127.25L-58.35 127.6L-58.7 127.7L-61.55 127.7L-61.85 127.6L-62 127.25L-62 125.25L-61.85 124.9L-61.55 124.8M-64.75,129.8L-64.75 131.75L-64.85 132.05L-65.15 132.15L-65.2 132.15L-66.4 132.05L-67.9 132Q-68.65 131.95 -69.15 132.5Q-69.65 133.1 -69.7 134.55L-69.7 136.4Q-69.65 137.8 -69.15 138.4Q-68.65 138.95 -67.9 138.9L-66.4 138.9L-65.2 138.75L-65.15 138.75L-64.85 138.9L-64.75 139.15L-64.75 141.1L-64.85 141.45L-65.2 141.6L-66.4 141.85L-68.15 141.95Q-69.7 141.95 -70.85 141.3Q-72 140.65 -72.6 139.4Q-73.25 138.15 -73.25 136.4L-73.25 134.55Q-73.25 132.75 -72.6 131.5Q-72 130.25 -70.85 129.6Q-69.7 128.95 -68.15 128.95L-66.4 129.05L-65.2 129.3L-64.85 129.45L-64.75 129.8M-61.75,129.25L-61.45 129.15L-58.75 129.15L-58.45 129.25L-58.35 129.6L-58.35 141.3L-58.45 141.6L-58.75 141.75L-61.45 141.75L-61.75 141.6L-61.9 141.3L-61.9 129.6L-61.75 129.25M-48.9,134.25L-48.9 133.45Q-48.9 132.55 -49.35 132.2Q-49.8 131.9 -50.55 131.95L-52 131.95L-53.3 132L-54.2 132.1L-54.35 132.1L-54.6 132L-54.7 131.7L-54.7 129.9L-54.6 129.6L-54.3 129.45L-52.65 129.15L-50.5 128.95Q-48.1 128.95 -46.75 130Q-45.4 131.05 -45.35 133.45L-45.35 141.3L-45.5 141.6L-45.8 141.75L-48.25 141.75L-48.55 141.6L-48.7 141.3L-48.7 140.95L-50.05 141.65L-51.75 141.95L-53.6 141.6Q-54.45 141.25 -54.95 140.4Q-55.5 139.6 -55.5 138.15L-55.5 137.95Q-55.55 136.05 -54.2 135.15Q-52.9 134.25 -50.1 134.25L-48.9 134.25M-52.05,137.95L-52.05 138.15Q-52.05 138.85 -51.7 139.05L-50.65 139.25L-49.7 139.1L-48.85 138.75L-48.85 136.35L-50.1 136.35Q-51.25 136.35 -51.65 136.75Q-52.05 137.15 -52.05 137.95" />
</g>
</svg>
