<?xml version="1.0" encoding="utf-8"?>
<svg version="1.1" id="Layer_1"
xmlns="http://www.w3.org/2000/svg"
xmlns:xlink="http://www.w3.org/1999/xlink"
xmlns:author="http://www.sothink.com"
width="64px" height="52px"
xml:space="preserve">
<g id="500" transform="matrix(1, 0, 0, 1, 0, 0)">
<path style="fill:#FFFFFF;fill-opacity:0.2" d="M54.45,11.35L54.95 11.65Q55.7 12.2 56.1 13.1Q56.65 14.25 56.2 15.55L56 16.2L58.35 20.2Q59.1 20.6 59.4 21.45L59.65 22.05L59.75 22.9L59.85 23.05L60.6 24.1L60.8 24.65L60.95 25.55L61.4 26.35L61.6 26.95L61.65 27.95L62.2 28.9L62.35 29.5L62.3 30.6L62.65 31.5L62.8 32.1L62.75 33.15L63 33.95L63.1 34.55L63.05 35.35L63.3 36.2L63.35 36.8L63.2 37.75Q63.5 38.3 63.45 38.9L63.4 39.5L63.2 40.3L63.2 41.3L63.1 41.9Q62.7 43.35 60.55 44.3L59.85 44.5L58.55 44.7L53.2 44.35Q51.9 44 50.85 43Q49.45 41.65 49.4 39.75Q49.35 38.05 49.65 36.6L49.7 35.95L49.4 35Q48.7 32.7 48.75 31.85L48.8 31.25L48.4 30.6Q47.8 29.75 47.45 28.05L47.1 26.9L46.9 26.7L45.9 25.8Q45.35 25.1 45.2 24.25L44.55 23.15L43.75 22.55L40.5 22.05L40.75 46.15L40.6 46.85L40.65 47.1Q40.75 48.35 39.75 49.1Q38.75 49.9 36.5 50.45L31 51.05L25 50.35L22.35 49.6L21.55 49.1Q20.45 47.8 20.8 46.6L20.85 46.45L20.8 46.1L20.8 21.85L20.9 21.05L20.95 20.95Q20.55 20.55 20.5 20.15L18.6 13.05Q18.3 12.65 17.95 12.55L15.2 11.9Q14.05 11.6 13.75 10.55L12.5 10.25L12.1 10.2L11.05 9.95L10.7 9.9L1.65 8Q1.05 7.9 0.6 7.45Q0.2 7 0.1 6.45L0.1 6.35L0.05 6.3L0.05 5.7L0 5.45L0 5.35L0.05 5.1L0.05 4.6L0.1 4.2Q0.25 3.3 0.55 2.45L0.95 1.55L1.45 0.8Q2.25 -0.2 3.5 0.05L12.3 1.7L12.65 1.8L13.05 1.8L15.15 2.2Q15.95 1.15 17.2 1.4L21.25 1.95Q24.2 2.2 32.45 4.4L40.3 6.85L40.6 6.9L44 7.35L46.5 7.7Q47.8 7.95 48.1 9L48.65 9.15L51.2 9.1L52.45 9.5L53.6 10.35L54.45 11.35M51.25,11L48.35 11.1L47.15 10.7L46.6 11.3L46.6 11.85L46.2 11.85L46.2 9.6L40.4 8.75L40.4 9.5L39.95 9.5L39.95 8.75Q36.15 7.35 31.9 6.25Q24.15 4.15 21.1 3.85L16.85 3.25L16.35 5.05L16.05 5.05L15.9 4.3L14.1 3.95L13.95 5.05L13.2 4.95L13.35 3.8L12.65 3.7L12.5 4.85L11.75 4.75L11.9 3.55L3.1 1.9L2.75 2.45L2.7 2.5L2.45 3.05L2.1 4.4L2.1 4.45L2.05 4.75L2.05 5.2L2 5.35L2 5.45L2.05 5.6L2.05 6.15L11.1 8.05L11.3 6.75L12.05 6.85L11.85 8.2L12.55 8.35L12.75 6.95L13.5 7.05L13.3 8.5L14.85 8.8L15.35 8.25L15.8 8.3L15.65 10.05L18.5 10.7Q19.65 11 20.45 12.3L22.4 19.65L22.95 19.65L23.1 19.8L23.45 20.5L22.9 21.4L22.8 21.85L22.8 45.95L22.9 46.5L23.05 46.85Q22.6 47 22.8 47.4L23.05 47.8L25.45 48.5L31 49.15L36.1 48.55Q37.9 48.1 38.45 47.65Q38.8 47.35 38.6 47.1L38.35 46.85L38.75 46.15L38.5 21.4L38.1 20.5L38.15 20.4L38.3 19.8L38.4 19.85L44.25 20.7Q45.2 20.95 46.05 21.85Q46.95 22.8 47.15 23.85L47.5 24.65L48.2 25.25L48.9 26.1L49.4 27.85Q49.65 29.05 50.05 29.6L50.7 30.75L50.75 32Q50.7 32.65 51.2 34L51.7 35.8L51.55 37.25Q51.35 38.4 51.4 39.65Q51.45 41.05 52.6 41.9L53.75 42.5L58.45 42.8L58.9 42.75L59.8 42.45L59.7 42.6Q61 42 61.1 41.5L61.25 40.95L61.2 40.6L61.1 40.5L60.95 40.5L61.05 39.75L61.15 39.75L61.4 39.4L61.45 38.8L61.25 38.35L61.1 38.35L61.05 37.35L61.15 37.35L61.35 37L61.3 36.4L61.05 35.95L60.95 35.95L60.85 35.15L60.9 35.15L61.1 34.8L61 34.2L60.9 33.85L60.75 33.75L60.7 33.8L60.55 32.8L60.65 32.8L60.8 32.45L60.7 31.85L60.4 31.4L60.3 31.4L60.1 30.3L60.25 30.3L60.4 29.95L60.25 29.35L59.9 28.95L59.75 28.95L59.45 27.85L59.55 27.85L59.7 27.5L59.5 26.95L59.15 26.5L59.05 26.5L58.75 25.7L58.8 25.7L58.95 25.35L58.7 24.75L58.45 24.45L58.3 24.35L58.25 24.35L57.65 23.05L57.75 22.7L57.55 22.15L57.15 21.7L56.95 21.7L54.4 17.35Q53.9 16.75 53.95 16.25Q53.95 15.95 54.3 14.95Q54.55 14.25 54.2 13.65L53.75 13.15L52.75 12.65Q52.8 12.2 52.35 11.85L51.25 11M21.65,4.5L21.9 4.9L21.75 5.95L21.35 6.25L20.85 6.2Q20.55 6.1 20.6 5.8L20.75 4.75Q20.85 4.4 21.15 4.45L21.65 4.5M22.6,5L23 4.7L23.5 4.8Q23.85 4.8 23.75 5.2L23.6 6.2L23.2 6.5L22.7 6.45Q22.45 6.45 22.45 6.05L22.6 5M19.25,4.2L19.75 4.25Q20.05 4.25 20.05 4.65L19.85 5.7L19.5 6L19 5.9Q18.7 5.9 18.7 5.5L18.9 4.5L19 4.25L19.25 4.2" />
<path style="fill:#000000;fill-opacity:1" d="M52.35,11.85Q52.8 12.2 52.75 12.65L53.75 13.15L54.2 13.65Q54.55 14.25 54.3 14.95Q53.95 15.95 53.95 16.25Q53.9 16.75 54.4 17.35L56.95 21.7L57.15 21.7L57.55 22.15L57.75 22.7L57.65 23.05L58.25 24.35L58.3 24.35L58.45 24.45L58.7 24.75L58.95 25.35L58.8 25.7L58.75 25.7L59.05 26.5L59.15 26.5L59.5 26.95L59.7 27.5L59.55 27.85L59.45 27.85L59.75 28.95L59.9 28.95L60.25 29.35L60.4 29.95L60.25 30.3L60.1 30.3L60.3 31.4L60.4 31.4L60.7 31.85L60.8 32.45L60.65 32.8L60.55 32.8L60.7 33.8L60.75 33.75L60.9 33.85L61 34.2L61.1 34.8L60.9 35.15L60.85 35.15L60.95 35.95L61.05 35.95L61.3 36.4L61.35 37L61.15 37.35L61.05 37.35L61.1 38.35L61.25 38.35L61.45 38.8L61.4 39.4L61.15 39.75L61.05 39.75L60.95 40.5L61.1 40.5L61.2 40.6L61.25 40.95L61.1 41.5Q61 42 59.7 42.6L59.8 42.45L58.9 42.75L58.45 42.8L53.75 42.5L52.6 41.9Q51.45 41.05 51.4 39.65Q51.35 38.4 51.55 37.25L51.7 35.8L51.2 34Q50.7 32.65 50.75 32L50.7 30.75L50.05 29.6Q49.65 29.05 49.4 27.85L48.9 26.1L48.2 25.25L47.5 24.65L47.15 23.85Q46.95 22.8 46.05 21.85Q45.2 20.95 44.25 20.7L38.4 19.85L38.3 19.8L38.15 20.4L38.1 20.5L38.5 21.4L38.75 46.15L38.35 46.85L38.6 47.1Q38.8 47.35 38.45 47.65Q37.9 48.1 36.1 48.55L31 49.15L25.45 48.5L23.05 47.8L22.8 47.4Q22.6 47 23.05 46.85L22.9 46.5L22.8 45.95L22.8 21.85L22.9 21.4L23.45 20.5L23.1 19.8L22.95 19.65L22.4 19.65L20.45 12.3Q19.65 11 18.5 10.7L15.65 10.05L15.8 8.3L15.35 8.25L14.85 8.8L13.3 8.5L13.5 7.05L12.75 6.95L12.55 8.35L11.85 8.2L12.05 6.85L11.3 6.75L11.1 8.05L2.05 6.15L2.05 5.6L2 5.45L2 5.35L2.05 5.2L2.05 4.75L2.1 4.45L2.1 4.4L2.45 3.05L2.7 2.5L2.75 2.45L3.1 1.9L11.9 3.55L11.75 4.75L12.5 4.85L12.65 3.7L13.35 3.8L13.2 4.95L13.95 5.05L14.1 3.95L15.9 4.3L16.05 5.05L16.35 5.05L16.85 3.25L21.1 3.85Q24.15 4.15 31.9 6.25Q36.15 7.35 39.95 8.75L39.95 9.5L40.4 9.5L40.4 8.75L46.2 9.6L46.2 11.85L46.6 11.85L46.6 11.3L47.15 10.7L48.35 11.1L51.25 11L52.35 11.85M20.75,4.75L20.6 5.8Q20.55 6.1 20.85 6.2L21.35 6.25L21.75 5.95L21.9 4.9L21.65 4.5L21.15 4.45Q20.85 4.4 20.75 4.75M22.45,6.05Q22.45 6.45 22.7 6.45L23.2 6.5L23.6 6.2L23.75 5.2Q23.85 4.8 23.5 4.8L23 4.7L22.6 5L22.45 6.05M19,4.25L18.9 4.5L18.7 5.5Q18.7 5.9 19 5.9L19.5 6L19.85 5.7L20.05 4.65Q20.05 4.25 19.75 4.25L19.25 4.2L19 4.25" />
</g>
</svg>
