<?xml version="1.0" encoding="utf-8"?>
<svg version="1.1" id="Layer_1"
xmlns="http://www.w3.org/2000/svg"
xmlns:xlink="http://www.w3.org/1999/xlink"
xmlns:author="http://www.sothink.com"
width="60px" height="48px"
xml:space="preserve">
<g id="501" transform="matrix(1, 0, 0, 1, 0, 0)">
<path style="fill:#404041;fill-opacity:1" d="M37.95,6.85Q33.8 5.5 30.3 5.15L26.25 5.35Q24.8 5.8 24.05 7.15Q23.05 9.05 23.85 12.95L24 13.45Q24.3 13.9 25.15 13.9Q23.9 13.9 23.25 14.5L20.95 17.75L20.4 17.75L18.45 10.4Q17.65 9.1 16.5 8.8L13.65 8.15L13.8 6.4L13.35 6.35L12.85 6.9Q12.6 5.9 12.85 4.65Q13.2 3 13.9 2.4L14.05 3.15L14.35 3.15L14.85 1.35L19.1 1.95Q22.15 2.25 29.9 4.35Q34.15 5.45 37.95 6.85M20.45,4.15Q20.45 4.55 20.7 4.55L21.2 4.6L21.6 4.3L21.75 3.3Q21.85 2.9 21.5 2.9L21 2.8Q20.7 2.8 20.6 3.1L20.45 4.15M18.6,3.9Q18.55 4.2 18.85 4.3L19.35 4.35Q19.65 4.45 19.75 4.05L19.9 3L19.65 2.6L19.15 2.55L18.75 2.85L18.6 3.9M17.25,2.3L17 2.35L16.9 2.6L16.7 3.6Q16.7 4 17 4L17.5 4.1L17.85 3.8L18.05 2.75Q18.05 2.35 17.75 2.35L17.25 2.3" />
<path style="fill:#888888;fill-opacity:1" d="M44.2,12.85L38.45 13.5L38.4 6.85L44.2 7.7L44.2 12.85" />
<path style="fill:#888888;fill-opacity:1" d="M50.75,10.75L46.35 9.2L49.25 9.1L50.35 9.95Q50.8 10.3 50.75 10.75" />
<path style="fill:#404041;fill-opacity:1" d="M53.5,19L54.95 19.8L55.15 19.8L55.55 20.25L55.75 20.8L55.65 21.15L56.25 22.45L56.3 22.45L56.45 22.55L56.7 22.85L56.95 23.45L56.8 23.8L56.75 23.8L57.05 24.6L57.15 24.6L57.5 25.05L57.7 25.6L57.55 25.95L57.45 25.95L57.75 27.05L57.9 27.05L58.25 27.45L58.4 28.05L58.25 28.4L58.1 28.4L58.3 29.5L58.4 29.5L58.7 29.95L58.8 30.55L58.65 30.9L58.55 30.9L58.7 31.9L58.75 31.85L58.9 31.95L59 32.3L59.1 32.9L58.9 33.25L58.85 33.25L58.95 34.05L59.05 34.05L59.3 34.5L59.35 35.1L59.15 35.45L59.05 35.45L59.1 36.45L59.25 36.45L59.45 36.9L59.4 37.5L59.15 37.85L59.05 37.85L58.95 38.6L59.1 38.6L59.2 38.7L59.25 39.05L59.1 39.6Q59 40.1 57.7 40.7L57.8 40.55L56.9 40.85L56.45 40.9L51.75 40.6Q51.2 40.45 50.6 40Q49.45 39.15 49.4 37.75Q49.35 36.5 49.55 35.35L49.7 33.9L49.2 32.1Q48.7 30.75 48.75 30.1L48.7 28.85L48.05 27.7Q47.65 27.15 47.4 25.95L46.9 24.2L46.2 23.35L45.5 22.75Q47.45 19 49.85 18.55Q51.7 18.25 53.5 19" />
<path style="fill:#404041;fill-opacity:1" d="M21.1,17.9L20.95 17.75L23.25 14.5Q23.9 13.9 25.2 13.9L27.75 13.75L30.65 13.7Q33.15 13.95 34.55 14.75L34.95 15.05L36.25 17.85L21.2 17.85L21.1 17.9" />
<path style="fill:#000000;fill-opacity:1" d="M44.6,9.95L44.6 9.4L45.15 8.8L50.75 10.75L51.75 11.25L52.2 11.75Q52.55 12.35 52.3 13.05Q51.95 14.05 51.95 14.35Q51.9 14.85 52.4 15.45L54.95 19.8L53.5 19Q51.7 18.25 49.85 18.55Q47.45 19 45.5 22.75L45.15 21.95Q44.95 20.9 44.05 19.95Q43.2 19.05 42.25 18.8L36.4 17.95L36.25 17.85Q35.5 15.85 34.95 15.1L34.55 14.7L38.45 13.2L38.45 13.5L44.2 12.85L44.2 9.95L44.6 9.95" />
<path style="fill:#000000;fill-opacity:1" d="M37.95,6.85L37.95 7.6L38.4 7.6L38.45 13.2L34.55 14.7L34.55 14.75Q33.15 13.95 30.65 13.7L27.75 13.75L25.2 13.9Q24.3 13.9 24 13.45L23.85 12.95Q23.05 9.05 24.05 7.15Q24.8 5.8 26.25 5.35L30.3 5.15Q33.8 5.5 37.95 6.85" />
<path style="fill:#888888;fill-opacity:1" d="M36.5,19.5L36.75 44.25L36.6 44.5Q34.75 45.75 29.15 45.75Q23.6 45.75 20.9 44.6L20.8 44.05L20.8 19.95L20.9 19.5Q21.5 18.95 21.45 18.6L21.4 18.5L36.15 18.5L36.1 18.6L36.5 19.5" />
<path style="fill:#000000;fill-opacity:1" d="M21.05,45.9L20.8 45.5Q20.6 45.1 21.05 44.95L20.9 44.6Q23.6 45.75 29.15 45.75Q34.75 45.75 36.6 44.5L36.35 44.95L36.6 45.2Q36.8 45.45 36.45 45.75Q35.9 46.2 34.1 46.65L29 47.25L23.45 46.6L21.05 45.9" />
<path style="fill:#888888;fill-opacity:1" d="M12.1,2.05L13.9 2.4Q13.2 3 12.85 4.65Q12.6 5.9 12.85 6.9L11.3 6.6L11.5 5.15L10.75 5.05L10.55 6.45L9.85 6.3L10.05 4.95L9.3 4.85L9.1 6.15L0.05 4.25L0.05 2.8Q0.25 1.15 1.1 0L9.9 1.65L9.75 2.85L10.5 2.95L10.65 1.8L11.35 1.9L11.2 3.05L11.95 3.15L12.1 2.05" />
<path style="fill:#404041;fill-opacity:1" d="M33.75,18L34.95 19.75L34.7 36.65L34.25 35.45L34.1 19.9L33.05 18.05L33.75 18" />
<path style="fill:#404041;fill-opacity:1" d="M24.6,19.55L28.8 19.55L29.35 20.15L23.9 20.25L24.6 19.55" />
<path style="fill:#404041;fill-opacity:1" d="M25.5,18.85L27.95 18.85L28.25 19.2L25.1 19.2L25.5 18.85" />
<path style="fill:#404041;fill-opacity:1" d="M31.05,19.55L32.85 19.55L33.45 20.15L31.15 20.25L31.05 19.55" />
<path style="fill:#404041;fill-opacity:1" d="M31,18.85L32.05 18.85L32.4 19.2L31.05 19.2L31 18.85" />
<path style="fill:#404041;fill-opacity:1" d="M11.35,1.9L11.2 3.05L11.95 3.15L12.1 2.05L13.9 2.4Q13.45 2.75 13.1 3.7L0.45 1.15L1.1 0L9.9 1.65L9.75 2.85L10.5 2.95L10.65 1.8L11.35 1.9" />
<path style="fill:#000000;fill-opacity:1" d="M11.3,6.6L11.5 5.15L10.75 5.05L10.55 6.45L9.85 6.3L10.05 4.95L9.3 4.85L9.1 6.15L0.05 4.25L0.1 2.5L12.75 5.2L12.85 6.9L11.3 6.6" />
<path style="fill:#888888;fill-opacity:1" d="M12.75,5.2L0.1 2.5Q0.2 1.8 0.45 1.15L13.1 3.7L12.75 5.2" />
<path style="fill:none;stroke-width:0.2;stroke-linecap:butt;stroke-linejoin:miter;stroke-miterlimit:10;stroke:#000000;stroke-opacity:1" d="M43.7,8.4L39.8 7.95L39.45 7.95Q39.15 8 39.3 8.55" />
<path style="fill:none;stroke-width:0.2;stroke-linecap:butt;stroke-linejoin:miter;stroke-miterlimit:10;stroke:#000000;stroke-opacity:1" d="M44.05,10.45Q44.4 9.85 43.6 9.85L39.8 9.75L39.4 9.9Q39.1 10.15 39.3 10.6" />
<path style="fill:none;stroke-width:0.2;stroke-linecap:butt;stroke-linejoin:miter;stroke-miterlimit:10;stroke:#000000;stroke-opacity:1" d="M43.85,12.55L44.05 12L43.75 11.9L42.85 11.9L40.05 11.9L39.4 12Q38.85 12.2 39.05 12.6" />
<path style="fill:#404041;fill-opacity:1" d="M22.95,20.4L22.9 43.15Q23.1 44.65 24.3 45.35L24.65 45.5Q22.15 45.2 20.9 44.6L20.8 44.05L20.8 19.95L20.9 19.5Q21.5 18.95 21.45 18.6L21.4 18.5L24.65 18.5L22.95 20.4" />
<path style="fill:#000000;fill-opacity:1" d="M36.25,17.85L36.4 17.95L36.3 17.9L36.15 18.5L21.4 18.5L21.1 17.9L21.2 17.85L36.25 17.85" />
<path style="fill:#000000;fill-opacity:1" d="M50.9,21L50.9 21.25L50.7 21.35L50.7 20.85Q50.9 20.6 51.45 20.6L55.75 20.8L55.75 21L51.4 20.8L50.9 21M52.1,24.1Q51.85 23.85 51.95 23.5Q52.15 23.2 52.8 23.25L56.95 23.45L56.9 23.65L52.8 23.45Q52.25 23.45 52.15 23.6L52.25 24L52.1 24.1M58.15,28.65L54.75 28.5Q54.2 28.5 54 28.75L54 29.15L53.8 29.2Q53.65 28.85 53.85 28.65Q54.1 28.3 54.8 28.3L58.1 28.45L58.15 28.65M57.45,25.95L57.5 26.15L54 25.85Q53.25 25.85 53.05 26.2L53.1 26.5L52.9 26.6L52.9 26.1Q53.15 25.65 54 25.65L57.55 25.95L57.45 25.95M54.5,31.15Q54.35 31.3 54.5 31.6L54.3 31.7Q54.15 31.25 54.3 31.05Q54.6 30.7 55.55 30.8L58.55 30.95L58.6 31.15L55.55 31L54.5 31.15M54.95,34L55 34.35L54.8 34.45Q54.65 34.15 54.8 33.9L55.65 33.45L58.9 33.55L58.9 33.75L55.65 33.65Q55.05 33.85 54.95 34M55,36.05Q55.3 35.75 56.05 35.8L59.05 35.85L59.05 36.05L56.05 36L55.15 36.2L55.05 36.5L54.85 36.55Q54.8 36.25 55 36.05M58.95,38.6L59.1 38.6L59.2 38.75L55.85 38.6L54.7 38.7Q54.55 38.7 54.7 38.95L54.5 39Q54.35 38.75 54.5 38.6L55.85 38.4L58.95 38.5L58.95 38.6" />
</g>
</svg>
