<?xml version="1.0" encoding="utf-8"?>
<svg version="1.1" id="Layer_1"
xmlns="http://www.w3.org/2000/svg"
xmlns:xlink="http://www.w3.org/1999/xlink"
xmlns:author="http://www.sothink.com"
width="18px" height="18px"
xml:space="preserve">
<g id="2257" transform="matrix(1, 0, 0, 1, 9, 9)">
<path style="fill:#FFFFFF;fill-opacity:1" d="M0.55,-7.95L0.55 -3.35L3.55 -3.35Q2.75 -6.15 1.4 -7.85L0.55 -7.95M0.55,-2.3L0.55 2.3L3.9 2.3Q4.4 0.1 3.85 -2.3L0.55 -2.3M7.2,-3.35Q5.9 -6.15 2.9 -7.35Q4.1 -5.35 4.6 -3.35L7.2 -3.35M4.85,-2.3Q5.3 0.2 5.05 2.3L7.55 2.3Q7.95 1.2 7.95 0Q7.95 -1.15 7.55 -2.3L4.85 -2.3M0.55,3.4L0.55 7.95L1.4 7.85Q3.05 5.6 3.7 3.4L0.55 3.4M6.35,6.4Q3.7 9 -0.05 9Q-3.8 9 -6.35 6.4Q-9 3.75 -9 0Q-9 -3.75 -6.35 -6.4Q-3.75 -9 -0.05 -9Q3.7 -9 6.35 -6.4Q9 -3.75 9 0Q9 3.75 6.35 6.4M7.2,3.4L4.75 3.4Q4.2 5.5 3 7.35Q5.8 6.2 7.2 3.4M-1.6,-7.8Q-2.95 -6.1 -3.8 -3.35L-0.6 -3.35L-0.6 -7.95L-1.6 -7.8M-7.6,-2.3Q-8 -1.15 -8 0Q-8 1.2 -7.6 2.3L-5.2 2.3Q-5.5 0.1 -5.1 -2.3L-7.6 -2.3M-4,-2.3Q-4.55 0.1 -4.15 2.3L-0.6 2.3L-0.6 -2.3L-4 -2.3M-4.8,-3.35Q-4.3 -5.3 -3.2 -7.3Q-5.9 -6.15 -7.25 -3.35L-4.8 -3.35M-3.9,3.4Q-3.1 5.9 -1.6 7.85L-0.6 7.95L-0.6 3.4L-3.9 3.4M-7.25,3.4Q-6 6.05 -3.25 7.3Q-4.5 5.35 -4.9 3.4L-7.25 3.4" />
</g>
</svg>
