<?xml version="1.0" encoding="utf-8"?>
<svg version="1.1" id="Layer_1"
xmlns="http://www.w3.org/2000/svg"
xmlns:xlink="http://www.w3.org/1999/xlink"
xmlns:author="http://www.sothink.com"
width="13px" height="22px"
xml:space="preserve">
<g id="1742" transform="matrix(1, 0, 0, 1, 6.2, 10.8)">
<path style="fill:#FFFFFF;fill-opacity:1" d="M-3.3,9.8L-0.65 1.3L-5.2 1.3L3.4 -9.8L0.7 -1.3L5.25 -1.3L-3.3 9.8" />
<path style="fill:#000000;fill-opacity:1" d="M5.95,-2L6.25 -1.3L6.05 -0.65L-2.5 10.45Q-2.8 10.8 -3.3 10.8L-3.75 10.7Q-4.5 10.35 -4.25 9.5L-2 2.3L-5.2 2.3Q-5.75 2.3 -6.1 1.75Q-6.35 1.2 -6 0.7L2.6 -10.45Q2.9 -10.8 3.4 -10.8L3.85 -10.7Q4.6 -10.3 4.35 -9.55L2.05 -2.3L5.25 -2.3L5.95 -2M-5.2,1.3L-0.65 1.3L-3.3 9.8L5.25 -1.3L0.7 -1.3L3.4 -9.8L-5.2 1.3" />
</g>
</svg>
