<?xml version="1.0" encoding="utf-8"?>
<svg version="1.1" id="Layer_1"
xmlns="http://www.w3.org/2000/svg"
xmlns:xlink="http://www.w3.org/1999/xlink"
xmlns:author="http://www.sothink.com"
width="18px" height="18px"
xml:space="preserve">
<g id="1756" transform="matrix(1, 0, 0, 1, 8.85, 8.85)">
<path style="fill:#FFFFFF;fill-opacity:1" d="M1.3,-5.6L0 -5.8L-1.5 -5.5L-2.65 -4.7L-3.4 -3.5L-3.7 -2L-1.9 -2L-1.8 -2.85L-1.45 -3.55L-0.85 -4.1L0 -4.3Q0.75 -4.3 1.25 -3.85L1.7 -2.7Q1.7 -2.1 1.5 -1.85L0.95 -1.3L0.15 -1L-0.75 -0.95L-0.75 0.4L0.3 0.45L1.25 0.7L1.9 1.3L2.15 2.3Q2.15 3.3 1.55 3.8Q1 4.3 0.05 4.3Q-1 4.3 -1.6 3.65Q-2.1 3 -2.1 1.95L-3.9 1.95L-3.65 3.55L-2.9 4.75L-1.7 5.55L0.05 5.85L1.55 5.6L2.8 4.9L3.7 3.85L4 2.4Q4 1.35 3.45 0.55L1.95 -0.4Q2.8 -0.7 3.15 -1.35Q3.55 -2 3.55 -2.8L3.25 -4.1L2.45 -5.05L1.3 -5.6M8.9,0Q8.9 3.7 6.3 6.3Q3.7 8.9 0.05 8.9Q-3.6 8.9 -6.25 6.3Q-8.85 3.7 -8.85 0Q-8.85 -3.65 -6.25 -6.25Q-3.65 -8.85 0.05 -8.85Q3.75 -8.85 6.3 -6.25Q8.9 -3.65 8.9 0" />
</g>
</svg>
