<?xml version="1.0" encoding="utf-8"?>
<svg version="1.1" id="Layer_1"
xmlns="http://www.w3.org/2000/svg"
xmlns:xlink="http://www.w3.org/1999/xlink"
xmlns:author="http://www.sothink.com"
width="16px" height="16px"
xml:space="preserve">
<g id="1827" transform="matrix(1, 0, 0, 1, 7.95, 7.95)">
<path style="fill:#FFFFFF;fill-opacity:1" d="M8,-3.95Q8 -2.3 6.85 -1.15L-1.2 6.85Q-2.35 8 -4 8Q-5.65 8 -6.8 6.85Q-7.95 5.7 -7.95 4.05Q-7.95 2.4 -6.8 1.25L1.2 -6.8Q2.35 -7.95 4.05 -7.95Q5.7 -7.95 6.85 -6.8Q8 -5.65 8 -3.95M0.95,1.5L-0.3 0.4Q-1.55 -0.85 -2.2 -1.95L-2.2 -2L-6.1 1.9Q-7.05 2.8 -7.05 4.1Q-7.05 5.35 -6.1 6.25Q-5.3 7.05 -4.2 6.4L-1.15 3.6L0.95 1.5" />
</g>
</svg>
