<?xml version="1.0" encoding="utf-8"?>
<svg version="1.1" id="Layer_1"
xmlns="http://www.w3.org/2000/svg"
xmlns:xlink="http://www.w3.org/1999/xlink"
xmlns:author="http://www.sothink.com"
width="16px" height="16px"
xml:space="preserve">
<g id="1814" transform="matrix(1, 0, 0, 1, 7.8, 7.9)">
<path style="fill:#FFFFFF;fill-opacity:1" d="M6.25,-6.4L-6.2 -6.4Q-5.2 -0.35 -3.15 2.55Q-1.3 5.2 0 6.25Q1.25 5.35 3.2 2.55Q5.25 -0.35 6.25 -6.4M4.4,3.45Q1.9 7.05 0.35 7.85L0 7.9L-0.3 7.85Q-1.85 7.05 -4.35 3.45Q-6 1.15 -7.05 -3.05L-7.8 -7.05L-7.6 -7.65L-7.05 -7.9L7.1 -7.9L7.65 -7.65L7.85 -7.05L7.1 -3.05Q6.05 1.15 4.4 3.45" />
<path style="fill:#FFFFFF;fill-opacity:1" d="M3.45,-1L0.9 -1L0.9 1.8L-0.45 1.8L-0.45 -1L-3 -1L-3 -2.4L-0.45 -2.4L-0.45 -5.25L0.9 -5.25L0.9 -2.4L3.45 -2.4L3.45 -1" />
</g>
</svg>
