<?xml version="1.0" encoding="utf-8"?>
<svg version="1.1" id="Layer_1"
xmlns="http://www.w3.org/2000/svg"
xmlns:xlink="http://www.w3.org/1999/xlink"
xmlns:author="http://www.sothink.com"
width="11px" height="22px"
xml:space="preserve">
<g id="1797" transform="matrix(1, 0, 0, 1, 5.35, 10.9)">
<path style="fill:#FFFFFF;fill-opacity:1" d="M-1.5,-7.25Q-2.1 -7.9 -2.1 -8.75Q-2.1 -9.65 -1.5 -10.25Q-0.85 -10.9 0 -10.9Q0.85 -10.9 1.5 -10.25Q2.1 -9.65 2.1 -8.75Q2.1 -7.9 1.5 -7.25Q0.85 -6.65 0 -6.65Q-0.85 -6.65 -1.5 -7.25" />
<path style="fill:#FFFFFF;fill-opacity:1" d="M-2.75,-5.8L-2.65 -5.9L-2.3 -6.1L2.3 -6.1L2.65 -5.9L2.7 -5.8L2.5 -2L5.35 4.9L1.85 4.9L1.3 10.95L-1.3 10.95L-1.85 4.9L-5.35 4.9L-2.5 -2L-2.75 -5.8" />
</g>
</svg>
