<?xml version="1.0" encoding="utf-8"?>
<svg version="1.1" id="Layer_1"
xmlns="http://www.w3.org/2000/svg"
xmlns:xlink="http://www.w3.org/1999/xlink"
xmlns:author="http://www.sothink.com"
width="23px" height="22px"
xml:space="preserve">
<g id="1818" transform="matrix(1, 0, 0, 1, 11.15, 10.55)">
<path style="fill:#FFFFFF;fill-opacity:1" d="M-1,1.4L-1 -1.1L1.05 -1.05L1.55 -0.9L1.9 -0.5L2.05 0.15L1.9 0.8L1.55 1.15L1.05 1.35L-1 1.4" />
<path style="fill:#FFFFFF;fill-opacity:1" d="M3.45,-3.6L11.15 -2.45L5.55 2.95L6.9 10.6L0 7L-6.85 10.6L-5.55 2.95L-11.15 -2.45L-3.45 -3.6L0 -10.55L3.45 -3.6M3.8,0.15L3.65 -0.85L3.15 -1.7L2.25 -2.3L0.95 -2.55L-2.8 -2.55L-2.8 5.8L-1 5.8L-1 2.8L0.95 2.8L2.25 2.6L3.15 2L3.65 1.15L3.8 0.15" />
</g>
</svg>
