<?xml version="1.0" encoding="utf-8"?>
<svg version="1.1" id="Layer_1"
xmlns="http://www.w3.org/2000/svg"
xmlns:xlink="http://www.w3.org/1999/xlink"
xmlns:author="http://www.sothink.com"
width="24px" height="19px"
xml:space="preserve">
<g id="1739" transform="matrix(1, 0, 0, 1, 11.75, 9.05)">
<path style="fill:#FFFFFF;fill-opacity:1" d="M7.6,-6.3Q10.75 -4.5 10.75 -2Q10.75 0.5 7.6 2.3Q4.45 4.05 0 4.05L-0.1 4.05L-5.15 8.05L-5.15 3.3Q-7.7 2.5 -9.2 1.1Q-10.75 -0.3 -10.75 -2Q-10.75 -4.5 -7.6 -6.3Q-4.45 -8.05 0 -8.05Q4.45 -8.05 7.6 -6.3" />
<path style="fill:#000000;fill-opacity:1" d="M8.35,-7Q11.75 -4.95 11.75 -2Q11.75 0.9 8.4 2.95Q5.1 5 0.25 5.05L-4.55 8.85L-5.15 9.05L-5.6 8.95Q-6.15 8.7 -6.15 8.05L-6.15 4Q-8.75 3.05 -10.25 1.45Q-11.75 -0.15 -11.75 -2Q-11.75 -4.95 -8.35 -7Q-4.95 -9.05 0 -9.05Q4.95 -9.05 8.35 -7M0,-8.05Q-4.45 -8.05 -7.6 -6.3Q-10.75 -4.5 -10.75 -2Q-10.75 -0.3 -9.2 1.1Q-7.7 2.5 -5.15 3.3L-5.15 8.05L-0.1 4.05L0 4.05Q4.45 4.05 7.6 2.3Q10.75 0.5 10.75 -2Q10.75 -4.5 7.6 -6.3Q4.45 -8.05 0 -8.05" />
</g>
</svg>
