<?xml version="1.0" encoding="utf-8"?>
<svg version="1.1" id="Layer_1"
xmlns="http://www.w3.org/2000/svg"
xmlns:xlink="http://www.w3.org/1999/xlink"
xmlns:author="http://www.sothink.com"
width="12px" height="19px"
xml:space="preserve">
<g id="1825" transform="matrix(1, 0, 0, 1, 5.6, 9.05)">
<path style="fill:#FFFFFF;fill-opacity:1" d="M-2.45,-9.05L-2.45 -9L4.85 -5.3L-2.45 -1.65L-2.45 7.25L-1.85 7.25L0.85 7.5Q1.95 7.8 1.95 8.15Q1.95 8.55 0.85 8.8L-1.85 9.05L-4.5 8.8Q-5.6 8.55 -5.6 8.15Q-5.6 7.7 -4.3 7.45L-4.3 -9.05L-2.45 -9.05" />
<path style="fill:#FFFFFF;fill-opacity:1" d="M5.65,6.6Q5.65 7.25 5.2 7.7L4.1 8.15Q3.45 8.15 3 7.7Q2.55 7.25 2.55 6.6Q2.55 5.95 3 5.5Q3.45 5.05 4.1 5.05Q4.75 5.05 5.2 5.5Q5.65 5.95 5.65 6.6" />
</g>
</svg>
