<?xml version="1.0" encoding="utf-8"?>
<svg version="1.1" id="Layer_1"
xmlns="http://www.w3.org/2000/svg"
xmlns:xlink="http://www.w3.org/1999/xlink"
xmlns:author="http://www.sothink.com"
width="22px" height="28px"
xml:space="preserve">
<g id="1845" transform="matrix(1, 0, 0, 1, 10.7, 13.9)">
<path style="fill:#FFFFFF;fill-opacity:1" d="M-9.7,-12.9L9.7 -12.9L9.7 12.95L-9.7 12.95L-9.7 -12.9" />
<path style="fill:#000000;fill-opacity:1" d="M-9.7,12.95L9.7 12.95L9.7 -12.9L-9.7 -12.9L-9.7 12.95M-10.7,-13.9L10.7 -13.9L10.7 13.95L-10.7 13.95L-10.7 -13.9" />
<path style="fill:#000000;fill-opacity:1" d="M-7.85,-10.55L1.4 -10.55L1.4 -1.35L-7.85 -1.35L-7.85 -10.55" />
<path style="fill:#000000;fill-opacity:1" d="M-7.85,2.35L6.95 2.35L6.95 5.1L-7.85 5.1L-7.85 2.35" />
<path style="fill:#000000;fill-opacity:1" d="M-7.85,7.45L6.95 7.45L6.95 10.2L-7.85 10.2L-7.85 7.45" />
</g>
</svg>
