<?xml version="1.0" encoding="utf-8"?>
<svg version="1.1" id="Layer_1"
xmlns="http://www.w3.org/2000/svg"
xmlns:xlink="http://www.w3.org/1999/xlink"
xmlns:author="http://www.sothink.com"
width="16px" height="16px"
xml:space="preserve">
<g id="1808" transform="matrix(1, 0, 0, 1, 7.8, 7.8)">
<path style="fill:#FFFFFF;fill-opacity:1" d="M7.8,0Q7.8 2.5 6.4 4.45Q4.7 2.5 4.7 0Q4.7 -2.5 6.4 -4.45Q7.8 -2.5 7.8 0" />
<path style="fill:#FFFFFF;fill-opacity:1" d="M-4.65,0Q-4.65 2.55 -6.4 4.45Q-7.8 2.4 -7.8 0Q-7.8 -2.4 -6.4 -4.45Q-4.65 -2.55 -4.65 0" />
<path style="fill:#FFFFFF;fill-opacity:1" d="M5.4,5.6Q3.1 7.8 0 7.8Q-3.1 7.8 -5.4 5.6Q-3.15 3.25 -3.15 0Q-3.15 -3.25 -5.4 -5.6Q-3.1 -7.8 0 -7.8Q3.1 -7.8 5.4 -5.6Q3.2 -3.25 3.2 0Q3.2 3.25 5.4 5.6" />
</g>
</svg>
