<?xml version="1.0" encoding="utf-8"?>
<svg version="1.1" id="Layer_1"
xmlns="http://www.w3.org/2000/svg"
xmlns:xlink="http://www.w3.org/1999/xlink"
xmlns:author="http://www.sothink.com"
width="17px" height="13px"
xml:space="preserve">
<g id="1761" transform="matrix(1, 0, 0, 1, 8.4, 6.45)">
<path style="fill:#FFFFFF;fill-opacity:1" d="M8.55,-4.85L3.7 0L8.55 4.8L6.9 6.45L2.1 1.6L-2.75 6.45L-4.35 4.8L0.45 0L-4.35 -4.85L-2.75 -6.45L2.1 -1.65L6.9 -6.45L8.55 -4.85" />
<path style="fill:#FFFFFF;fill-opacity:1" d="M-3.2,-1.95Q-2.3 -1.05 -2.3 0.2Q-2.3 1.45 -3.2 2.3Q-4.1 3.2 -5.35 3.2Q-6.6 3.2 -7.5 2.3Q-8.4 1.45 -8.4 0.2Q-8.4 -1.05 -7.5 -1.95Q-6.6 -2.85 -5.35 -2.85Q-4.05 -2.85 -3.2 -1.95" />
</g>
</svg>
