<?xml version="1.0" encoding="utf-8"?>
<svg version="1.1" id="Layer_1"
xmlns="http://www.w3.org/2000/svg"
xmlns:xlink="http://www.w3.org/1999/xlink"
xmlns:author="http://www.sothink.com"
width="19px" height="16px"
xml:space="preserve">
<g id="1836" transform="matrix(1, 0, 0, 1, 9.1, 7.8)">
<path style="fill:#FFFFFF;fill-opacity:1" d="M8.8,-6.35Q9.25 -6 9 -5.15L8.55 -3.5L7.8 -1.45L7.6 -0.1Q6.6 5.6 5.65 6.35L3.35 7.8L1.15 6.85L0.3 6.15L-0.15 5.7L-2.45 5L-3 4.7L-3.05 4.7L-3.6 4.2Q-4.75 2.65 -5.25 2.35L-6.9 1.8Q-7.95 1.35 -8.4 0.45Q-9.1 -0.4 -9.1 -1.55Q-9.1 -2.95 -8.1 -3.9Q-7.15 -4.9 -5.75 -4.9Q-4.6 -4.9 -3.65 -4.15Q-2.75 -3.45 -2.5 -2.3L-2.3 -1.6L-1.3 -1.7L-1.1 -1.75L-1.05 -1.75Q0.25 -1.7 1.2 -0.85Q2.15 0 2.35 1.25L2.25 2L2.4 1.7L3.65 0.05L4.15 -0.55Q5.35 -1.65 4.75 -2.6L3.75 -4.5L3.55 -5Q3.4 -5.5 3.75 -5.7L4 -5.8L4.55 -5.5L4 -6.45L4.15 -6.75Q4.55 -7.1 5.4 -7.5L6.6 -7.75L8.8 -6.35" />
</g>
</svg>
