<?xml version="1.0" encoding="utf-8"?>
<svg version="1.1" id="Layer_1"
xmlns="http://www.w3.org/2000/svg"
xmlns:xlink="http://www.w3.org/1999/xlink"
xmlns:author="http://www.sothink.com"
width="17px" height="13px"
xml:space="preserve">
<g id="1834" transform="matrix(1, 0, 0, 1, 8, 6.15)">
<path style="fill:#FFFFFF;fill-opacity:1" d="M5.9,-5.8L6.2 -5.05L6.85 -0.75L6.95 -0.75L7.75 -0.4L8.05 0.35L8.05 1.9Q8.05 2.9 7.1 3L7.1 5.05L6.8 5.85L6 6.15L5.55 6.15L4.8 5.85Q4.45 5.5 4.45 5.05L4.45 3.05L-4.4 3.05L-4.4 5.05Q-4.4 5.5 -4.7 5.85L-5.5 6.15L-5.9 6.15L-6.65 5.85L-7 5.05L-7 3Q-8 2.9 -8 1.9L-8 0.35L-7.65 -0.4Q-7.35 -0.75 -6.9 -0.75L-6.75 -0.75L-6.15 -5.05L-5.8 -5.8Q-5.5 -6.15 -5.05 -6.15L5.1 -6.15Q5.55 -6.15 5.9 -5.8M5.1,-4.55Q5.1 -5.1 4.55 -5.1L-4.45 -5.1Q-5 -5.1 -5 -4.55L-5.45 -1.7L5.55 -1.7L5.1 -4.55M6.75,2.15Q7.15 1.75 7.15 1.2Q7.15 0.6 6.75 0.2Q6.35 -0.2 5.75 -0.2Q5.2 -0.2 4.8 0.2Q4.4 0.6 4.4 1.2Q4.4 1.75 4.8 2.15Q5.2 2.55 5.75 2.55Q6.35 2.55 6.75 2.15M-4.3,1.2Q-4.3 0.6 -4.7 0.2Q-5.1 -0.2 -5.7 -0.2Q-6.25 -0.2 -6.65 0.2Q-7.05 0.6 -7.05 1.2Q-7.05 1.75 -6.65 2.15Q-6.25 2.55 -5.7 2.55Q-5.1 2.55 -4.7 2.15Q-4.3 1.75 -4.3 1.2" />
</g>
</svg>
