<?xml version="1.0" encoding="utf-8"?>
<svg version="1.1" id="Layer_1"
xmlns="http://www.w3.org/2000/svg"
xmlns:xlink="http://www.w3.org/1999/xlink"
xmlns:author="http://www.sothink.com"
width="11px" height="17px"
xml:space="preserve">
<g id="1831" transform="matrix(1, 0, 0, 1, 5.45, 8.3)">
<path style="fill:#FFFFFF;fill-opacity:1" d="M4.95,-5.05Q5.55 -3.2 5.5 -1.25L5.1 1.8L5.05 1.9Q4.25 5.5 5.4 8.35L-5.35 8.3L-5.25 7.45L-5.1 7.2Q-4.35 5.55 -4.5 4.5L-5.35 0.7L-5.4 -3Q-5.05 -4.95 -4.2 -6.15Q-3.2 -7.45 -1.4 -8L0.2 -8.3L1.85 -8Q3.7 -7.35 4.7 -5.55L4.95 -5.05M1.05,-2.4L0.4 -1.9Q1.05 -0.8 2.4 -1Q4.05 -1.3 3.9 -2.7L3.5 -3.2L2.4 -3.1L1.05 -2.4M-3.7,-3.2L-4.1 -2.7Q-4.25 -1.3 -2.6 -1Q-1.3 -0.8 -0.6 -1.9Q-1.7 -2.8 -2.6 -3.1L-3.7 -3.2M-1.85,1.4Q-2.2 1.7 -2.2 2.2L-1.85 3L-1.05 3.3L0.85 3.3L1.65 3L1.95 2.2L1.65 1.4Q1.3 1.05 0.85 1.05L-1.05 1.05Q-1.55 1.05 -1.85 1.4" />
</g>
</svg>
