<?xml version="1.0" encoding="utf-8"?>
<svg version="1.1" id="Layer_1"
xmlns="http://www.w3.org/2000/svg"
xmlns:xlink="http://www.w3.org/1999/xlink"
xmlns:author="http://www.sothink.com"
width="23px" height="16px"
xml:space="preserve">
<g id="1790" transform="matrix(1, 0, 0, 1, 11.45, 8)">
<path style="fill:#D62020;fill-opacity:1" d="M11.45,-1.25L11.45 1.25L-11.45 1.25L-11.45 -1.25L11.45 -1.25" />
<path style="fill:#FFFFFF;fill-opacity:1" d="M11.45,2.75L-11.45 2.75L-11.45 -2.75L11.45 -2.75L11.45 2.75" />
<path style="fill:#D62020;fill-opacity:1" d="M1.25,-8L1.25 8L-1.25 8L-1.25 -8L1.25 -8" />
<path style="fill:#FFFFFF;fill-opacity:1" d="M2.75,8L-2.75 8L-2.75 -8L2.75 -8L2.75 8" />
<path style="fill:#D62020;fill-opacity:1" d="M11.45,-1.25L11.45 1.25L-11.45 1.25L-11.45 -1.25L11.45 -1.25" />
<path style="fill:#D62020;fill-opacity:1" d="M1.25,-8L1.25 8L-1.25 8L-1.25 -8L1.25 -8" />
</g>
</svg>
