<?xml version="1.0" encoding="utf-8"?>
<svg version="1.1" id="Layer_1"
xmlns="http://www.w3.org/2000/svg"
xmlns:xlink="http://www.w3.org/1999/xlink"
xmlns:author="http://www.sothink.com"
width="18px" height="18px"
xml:space="preserve">
<g id="1750" transform="matrix(1, 0, 0, 1, 8.85, 8.85)">
<path style="fill:#FFFFFF;fill-opacity:1" d="M2,1.15L2.1 2L2 2.9L1.65 3.65L1 4.15L0.15 4.35L-0.7 4.15L-1.35 3.65L-1.75 2.9L-1.85 2L-1.75 1.15L-1.35 0.4L-0.7 -0.1L0.15 -0.25L1 -0.05L1.65 0.45L2 1.15" />
<path style="fill:#FFFFFF;fill-opacity:1" d="M3.75,-2.7L3.45 -3.95L2.7 -4.9L1.6 -5.55L0.35 -5.75Q-0.85 -5.75 -1.65 -5.25L-2.95 -3.85L-3.65 -2L-3.85 0L-3.7 2.3L-3.05 4.15L-1.8 5.4L0.2 5.85L1.75 5.55Q2.4 5.35 2.9 4.75L3.7 3.55L3.95 2.05L3.7 0.55L3 -0.65Q2.45 -1.2 1.9 -1.4L0.4 -1.7L-1 -1.4L-2 -0.4L-2.05 -0.4L-1.9 -1.65L-1.6 -2.9L-0.9 -3.85Q-0.4 -4.25 0.3 -4.25Q0.95 -4.25 1.45 -3.85L1.9 -2.7L3.75 -2.7M8.9,0.05Q8.9 3.75 6.3 6.3Q3.75 8.9 0.05 8.9Q-3.65 8.9 -6.25 6.3Q-8.85 3.7 -8.85 0.05Q-8.85 -3.6 -6.25 -6.25Q-3.6 -8.85 0.05 -8.85Q3.7 -8.85 6.3 -6.25Q8.9 -3.65 8.9 0.05" />
</g>
</svg>
