<?xml version="1.0" encoding="utf-8"?>
<svg version="1.1" id="Layer_1"
xmlns="http://www.w3.org/2000/svg"
xmlns:xlink="http://www.w3.org/1999/xlink"
xmlns:author="http://www.sothink.com"
width="18px" height="18px"
xml:space="preserve">
<g id="1749" transform="matrix(1, 0, 0, 1, 8.85, 8.85)">
<path style="fill:#FFFFFF;fill-opacity:1" d="M8.9,0.05Q8.9 3.7 6.3 6.3Q3.7 8.9 0 8.9Q-3.65 8.9 -6.25 6.3Q-8.85 3.75 -8.85 0.05Q-8.85 -3.65 -6.25 -6.25Q-3.65 -8.85 0 -8.85Q3.7 -8.85 6.3 -6.25Q8.9 -3.6 8.9 0.05M5.4,-5.35Q3.2 -7.6 0 -7.6Q-3.15 -7.6 -5.4 -5.35Q-7.65 -3.15 -7.65 0.05Q-7.65 3.2 -5.4 5.45Q-3.15 7.7 0 7.7Q3.2 7.7 5.4 5.45Q7.65 3.2 7.65 0.05Q7.65 -3.15 5.4 -5.35" />
<path style="fill:#FFFFFF;fill-opacity:1" d="M3.4,-3.95L3.7 -2.7L1.9 -2.7Q1.85 -3.3 1.4 -3.85Q0.9 -4.25 0.25 -4.25Q-0.55 -4.25 -0.95 -3.85L-1.6 -2.9L-1.95 -1.65L-2.05 -0.4L-1.05 -1.4L0.4 -1.7L1.85 -1.45L3 -0.65L3.65 0.55L3.9 2.05L3.65 3.55L2.9 4.75L1.7 5.55L0.2 5.85L-1.85 5.4L-3.1 4.15Q-3.55 3.4 -3.7 2.3L-3.9 0L-3.7 -2L-2.95 -3.9Q-2.5 -4.7 -1.65 -5.25Q-0.8 -5.8 0.35 -5.8L1.6 -5.55L2.65 -4.95L3.4 -3.95M2.1,2L1.95 1.15L1.6 0.4L1 -0.1L0.1 -0.3L-0.75 -0.1L-1.4 0.4L-1.75 1.15L-1.9 2L-1.75 2.9L-1.4 3.65L-0.75 4.15L0.1 4.35L1 4.15L1.6 3.65L1.95 2.9L2.1 2" />
</g>
</svg>
