<?xml version="1.0" encoding="utf-8"?>
<svg version="1.1" id="Layer_1"
xmlns="http://www.w3.org/2000/svg"
xmlns:xlink="http://www.w3.org/1999/xlink"
xmlns:author="http://www.sothink.com"
width="18px" height="18px"
xml:space="preserve">
<g id="1824" transform="matrix(1, 0, 0, 1, 8.95, 8.8)">
<path style="fill:#FFFFFF;fill-opacity:1" d="M4.9,7.2Q4.9 8 4.15 8.3L0.65 8.8L-2.55 8.5Q-3.1 7.75 -8.95 -8.25L-7.65 -8.8L-1.8 6.8Q3 3.9 3.9 5Q4.9 6.25 4.9 7.2" />
<path style="fill:#FFFFFF;fill-opacity:1" d="M9,7Q9 7.6 8.6 8.05Q8.15 8.45 7.55 8.45Q6.95 8.45 6.55 8.05Q6.1 7.6 6.1 7Q6.1 6.4 6.55 6Q6.95 5.6 7.55 5.6Q8.15 5.6 8.6 6Q9 6.4 9 7" />
</g>
</svg>
