<?xml version="1.0" encoding="utf-8"?>
<svg version="1.1" id="Layer_1"
xmlns="http://www.w3.org/2000/svg"
xmlns:xlink="http://www.w3.org/1999/xlink"
xmlns:author="http://www.sothink.com"
width="12px" height="19px"
xml:space="preserve">
<g id="1819" transform="matrix(1, 0, 0, 1, 5.2, 8.65)">
<path style="fill:#FFFFFF;fill-opacity:1" d="M0.45,0.05Q-0.7 0.05 -1.85 0.7L-5.2 -8.65L-0.85 -8.65L0.45 -0.35L1.4 -8.65L6.1 -8.65L2.7 0.7Q1.65 0.05 0.45 0.05" />
<path style="fill:#FFFFFF;fill-opacity:1" d="M4.85,5.25Q4.85 7.1 3.55 8.4Q2.3 9.7 0.45 9.7Q-1.4 9.7 -2.65 8.4Q-3.95 7.1 -3.95 5.25Q-3.95 2.75 -1.85 1.5Q-0.7 0.85 0.45 0.85Q1.65 0.85 2.7 1.5Q4.85 2.75 4.85 5.25" />
</g>
</svg>
