<?xml version="1.0" encoding="utf-8"?>
<svg version="1.1" id="Layer_1"
xmlns="http://www.w3.org/2000/svg"
xmlns:xlink="http://www.w3.org/1999/xlink"
xmlns:author="http://www.sothink.com"
width="16px" height="10px"
xml:space="preserve">
<g id="1764" transform="matrix(1, 0, 0, 1, 7.9, 4.95)">
<path style="fill:#FFFFFF;fill-opacity:1" d="M7.9,-3.4Q7.9 -2.35 7 -2.25L7 4.9L4.9 4.05Q2.4 3.15 0.1 3.15Q-2.2 3.15 -4.8 4.1L-7 5L-7 -2.25Q-7.9 -2.35 -7.9 -3.4L-7.6 -4.25L-6.85 -4.6Q-6.4 -4.6 -6.1 -4.25Q-5.8 -3.9 -5.8 -3.4Q-5.8 -2.45 -6.6 -2.25L-3.5 0.4L-0.35 -2.25Q-1.3 -2.6 -1.3 -3.55Q-1.3 -4.1 -0.9 -4.55Q-0.5 -4.95 0 -4.95Q0.55 -4.95 0.9 -4.55Q1.3 -4.1 1.3 -3.55Q1.3 -2.6 0.35 -2.25L3.5 0.4L6.6 -2.25Q5.8 -2.45 5.8 -3.4Q5.8 -3.9 6.1 -4.25Q6.4 -4.6 6.85 -4.6Q7.3 -4.6 7.6 -4.25L7.9 -3.4" />
</g>
</svg>
