<?xml version="1.0" encoding="utf-8"?>
<svg version="1.1" id="Layer_1"
xmlns="http://www.w3.org/2000/svg"
xmlns:xlink="http://www.w3.org/1999/xlink"
xmlns:author="http://www.sothink.com"
width="14px" height="22px"
xml:space="preserve">
<g id="1763" transform="matrix(1, 0, 0, 1, 6.65, 10.9)">
<path style="fill:#FFFFFF;fill-opacity:1" d="M6.4,1.2L5.4 1.8Q4.9 2 4.75 1.6L2.95 -1.5L1.3 10.95L-1.3 10.95L-2.95 -1.5L-4.75 1.6Q-4.9 2 -5.4 1.8L-6.4 1.2Q-6.8 0.9 -6.55 0.55L-2.85 -5.9L-2.45 -6.1L2.45 -6.1L2.85 -5.9L6.55 0.55Q6.85 0.95 6.4 1.2" />
<path style="fill:#FFFFFF;fill-opacity:1" d="M-1.5,-7.25Q-2.1 -7.9 -2.1 -8.75Q-2.1 -9.65 -1.5 -10.25Q-0.85 -10.9 0 -10.9Q0.85 -10.9 1.5 -10.25Q2.1 -9.65 2.1 -8.75Q2.1 -7.9 1.5 -7.25Q0.85 -6.65 0 -6.65Q-0.85 -6.65 -1.5 -7.25" />
</g>
</svg>
