<?xml version="1.0" encoding="utf-8"?>
<svg version="1.1" id="Layer_1"
xmlns="http://www.w3.org/2000/svg"
xmlns:xlink="http://www.w3.org/1999/xlink"
xmlns:author="http://www.sothink.com"
width="16px" height="15px"
xml:space="preserve">
<g id="1835" transform="matrix(1, 0, 0, 1, 8, 7.35)">
<path style="fill:#F5F5F5;fill-opacity:1" d="M7.35,-0.35Q5.7 2.9 0.85 7L1.4 4.05L-0.35 1.45L2.35 -0.2L0.15 -3.1L0.55 -4.95Q1.6 -7.35 4.25 -7.35L6.15 -6.9Q8 -5.85 8 -2.8Q8.15 -2 7.35 -0.35" />
<path style="fill:#F5F5F5;fill-opacity:1" d="M0.1,4.35L-0.45 7.35Q-5.55 3.05 -7.3 -0.3Q-8.15 -1.95 -8 -2.8Q-8 -5.85 -6.1 -6.9Q-5.15 -7.4 -4.2 -7.35Q-1.85 -7.35 -0.65 -5.25L-1.2 -2.8L0.55 -0.55L-2.1 1.1L0.1 4.35" />
</g>
</svg>
