<?xml version="1.0" encoding="utf-8"?>
<svg version="1.1" id="Layer_1"
xmlns="http://www.w3.org/2000/svg"
xmlns:xlink="http://www.w3.org/1999/xlink"
xmlns:author="http://www.sothink.com"
width="15px" height="18px"
xml:space="preserve">
<g id="1809" transform="matrix(1, 0, 0, 1, 6.95, 8.05)">
<path style="fill:#F5F5F5;fill-opacity:1" d="M3.7,2.4L7.85 7.6L6.05 9.05L1.9 3.8L1.95 3.75Q0.85 2.9 -1.15 2.4Q-3.75 2.3 -5.55 0.05Q-6.95 -1.75 -6.95 -3.85Q-6.85 -5.95 -5.4 -7.2Q-4.25 -8.05 -2.8 -8.05Q-0.1 -8.05 1.7 -5.7Q3.3 -3.7 3.05 -1.4L3 -1.05Q3.05 1.1 3.6 2.45L3.7 2.4M-5.8,-3.8Q-5.8 -2.15 -4.65 -0.7Q-3.1 1.25 -1.05 1.25L-0.95 1.25Q0.1 1.15 0.8 0.6Q1.75 -0.15 1.9 -1.5Q2.1 -3.25 0.8 -5Q-0.7 -6.9 -2.8 -6.9Q-3.9 -6.9 -4.65 -6.3Q-5.8 -5.45 -5.8 -3.8M2.45,2.7L2.05 1.05L1.5 1.5L0.95 1.9L2.45 2.7" />
</g>
</svg>
