<?xml version="1.0" encoding="utf-8"?>
<svg version="1.1" id="Layer_1"
xmlns="http://www.w3.org/2000/svg"
xmlns:xlink="http://www.w3.org/1999/xlink"
xmlns:author="http://www.sothink.com"
width="23px" height="16px"
xml:space="preserve">
<g id="1783" transform="matrix(1, 0, 0, 1, 11.45, 8)">
<path style="fill:#0F56A7;fill-opacity:1" d="M11.45,-8L11.45 8L-11.45 8L-11.45 -8L11.45 -8" />
<path style="fill:#DB0C0C;fill-opacity:1" d="M11.45,-8L11.45 -5.7L-11.45 -5.7L-11.45 -8L11.45 -8" />
<path style="fill:#FFFFFF;fill-opacity:1" d="M11.45,-5.7L11.45 -3.45L-11.45 -3.45L-11.45 -5.7L11.45 -5.7" />
<path style="fill:#DB0C0C;fill-opacity:1" d="M11.45,-3.45L11.45 -1.15L-11.45 -1.15L-11.45 -3.45L11.45 -3.45" />
<path style="fill:#FFFFFF;fill-opacity:1" d="M11.45,-1.15L11.45 1.15L-11.45 1.15L-11.45 -1.15L11.45 -1.15" />
<path style="fill:#DB0C0C;fill-opacity:1" d="M11.45,1.15L11.45 3.45L-11.45 3.45L-11.45 1.15L11.45 1.15" />
<path style="fill:#FFFFFF;fill-opacity:1" d="M11.45,3.45L11.45 5.7L-11.45 5.7L-11.45 3.45L11.45 3.45" />
<path style="fill:#DB0C0C;fill-opacity:1" d="M11.45,5.7L11.45 8L-11.45 8L-11.45 5.7L11.45 5.7" />
<path style="fill:#0F56A7;fill-opacity:1" d="M0.5,-8L0.5 3.4L-11.45 3.4L-11.45 -8L0.5 -8" />
<path style="fill:#FFFFFF;fill-opacity:1" d="M-8.3,-5.15L-10.25 -5.15L-10.25 -7.05L-8.3 -7.05L-8.3 -5.15" />
<path style="fill:#0F56A7;fill-opacity:1" d="M-6.4,-5.15L-8.3 -5.15L-8.3 -7.05L-6.4 -7.05L-6.4 -5.15" />
<path style="fill:#FFFFFF;fill-opacity:1" d="M-4.5,-5.15L-6.4 -5.15L-6.4 -7.05L-4.5 -7.05L-4.5 -5.15" />
<path style="fill:#0F56A7;fill-opacity:1" d="M-2.55,-5.15L-4.5 -5.15L-4.5 -7.05L-2.55 -7.05L-2.55 -5.15" />
<path style="fill:#FFFFFF;fill-opacity:1" d="M-0.65,-5.15L-2.55 -5.15L-2.55 -7.05L-0.65 -7.05L-0.65 -5.15" />
<path style="fill:#0F56A7;fill-opacity:1" d="M-8.3,-3.2L-10.25 -3.2L-10.25 -5.15L-8.3 -5.15L-8.3 -3.2" />
<path style="fill:#FFFFFF;fill-opacity:1" d="M-6.4,-3.2L-8.3 -3.2L-8.3 -5.15L-6.4 -5.15L-6.4 -3.2" />
<path style="fill:#0F56A7;fill-opacity:1" d="M-4.5,-3.2L-6.4 -3.2L-6.4 -5.15L-4.5 -5.15L-4.5 -3.2" />
<path style="fill:#FFFFFF;fill-opacity:1" d="M-2.55,-3.2L-4.5 -3.2L-4.5 -5.15L-2.55 -5.15L-2.55 -3.2" />
<path style="fill:#0F56A7;fill-opacity:1" d="M-0.65,-3.2L-2.55 -3.2L-2.55 -5.15L-0.65 -5.15L-0.65 -3.2" />
<path style="fill:#FFFFFF;fill-opacity:1" d="M-8.3,-1.3L-10.25 -1.3L-10.25 -3.2L-8.3 -3.2L-8.3 -1.3" />
<path style="fill:#0F56A7;fill-opacity:1" d="M-6.4,-1.3L-8.3 -1.3L-8.3 -3.2L-6.4 -3.2L-6.4 -1.3" />
<path style="fill:#FFFFFF;fill-opacity:1" d="M-4.5,-1.3L-6.4 -1.3L-6.4 -3.2L-4.5 -3.2L-4.5 -1.3" />
<path style="fill:#0F56A7;fill-opacity:1" d="M-2.55,-1.3L-4.5 -1.3L-4.5 -3.2L-2.55 -3.2L-2.55 -1.3" />
<path style="fill:#FFFFFF;fill-opacity:1" d="M-0.65,-1.3L-2.55 -1.3L-2.55 -3.2L-0.65 -3.2L-0.65 -1.3" />
<path style="fill:#FFFFFF;fill-opacity:1" d="M-8.3,2.55L-10.25 2.55L-10.25 0.65L-8.3 0.65L-8.3 2.55" />
<path style="fill:#0F56A7;fill-opacity:1" d="M-6.4,2.55L-8.3 2.55L-8.3 0.65L-6.4 0.65L-6.4 2.55" />
<path style="fill:#FFFFFF;fill-opacity:1" d="M-4.5,2.55L-6.4 2.55L-6.4 0.65L-4.5 0.65L-4.5 2.55" />
<path style="fill:#0F56A7;fill-opacity:1" d="M-2.55,2.55L-4.5 2.55L-4.5 0.65L-2.55 0.65L-2.55 2.55" />
<path style="fill:#FFFFFF;fill-opacity:1" d="M-0.65,2.55L-2.55 2.55L-2.55 0.65L-0.65 0.65L-0.65 2.55" />
<path style="fill:#0F56A7;fill-opacity:1" d="M-8.3,0.65L-10.25 0.65L-10.25 -1.3L-8.3 -1.3L-8.3 0.65" />
<path style="fill:#FFFFFF;fill-opacity:1" d="M-6.4,0.65L-8.3 0.65L-8.3 -1.3L-6.4 -1.3L-6.4 0.65" />
<path style="fill:#0F56A7;fill-opacity:1" d="M-4.5,0.65L-6.4 0.65L-6.4 -1.3L-4.5 -1.3L-4.5 0.65" />
<path style="fill:#FFFFFF;fill-opacity:1" d="M-2.55,0.65L-4.5 0.65L-4.5 -1.3L-2.55 -1.3L-2.55 0.65" />
<path style="fill:#0F56A7;fill-opacity:1" d="M-0.65,0.65L-2.55 0.65L-2.55 -1.3L-0.65 -1.3L-0.65 0.65" />
</g>
</svg>
