<?xml version="1.0" encoding="utf-8"?>
<svg version="1.1" id="Layer_1"
xmlns="http://www.w3.org/2000/svg"
xmlns:xlink="http://www.w3.org/1999/xlink"
xmlns:author="http://www.sothink.com"
width="23px" height="16px"
xml:space="preserve">
<g id="1792" transform="matrix(1, 0, 0, 1, 11.45, 8)">
<path style="fill:#FFFFFF;fill-opacity:1" d="M11.45,-8L11.45 8L-11.45 8L-11.45 -8L11.45 -8" />
<path style="fill:#DB0C0C;fill-opacity:1" d="M0.2,0.15Q-1.15 1.15 -2.5 1.15L-4.15 0.8L-4.25 0Q-4.25 -1.95 -2.9 -3.3Q-1.5 -4.7 0.4 -4.7Q2.3 -4.7 3.65 -3.4Q5 -2.1 5.05 -0.2Q4.05 -0.85 2.85 -0.85Q1.55 -0.85 0.2 0.15" />
<path style="fill:#103186;fill-opacity:1" d="M5.05,-0.2L5.1 0Q5.1 1.9 3.75 3.3Q2.35 4.65 0.4 4.65Q-1.3 4.65 -2.6 3.55Q-3.9 2.45 -4.15 0.8L-2.5 1.15Q-1.15 1.15 0.2 0.15Q1.55 -0.85 2.85 -0.85Q4.05 -0.85 5.05 -0.2" />
<path style="fill:#505050;fill-opacity:1" d="M9.6,-3.3L7.25 -1.65L5.15 -4.7L7.5 -6.35L9.6 -3.3" />
<path style="fill:none;stroke-width:0.5;stroke-linecap:butt;stroke-linejoin:miter;stroke-miterlimit:10;stroke:#FFFFFF;stroke-opacity:1" d="M9.6,-3.3L7.25 -1.65L5.15 -4.7L7.5 -6.35L9.6 -3.3z" />
<path style="fill:#505050;fill-opacity:1" d="M-6.65,-6.35L-4.3 -4.7L-6.4 -1.65L-8.75 -3.3L-6.65 -6.35" />
<path style="fill:none;stroke-width:0.5;stroke-linecap:butt;stroke-linejoin:miter;stroke-miterlimit:10;stroke:#FFFFFF;stroke-opacity:1" d="M-8.75,-3.3L-6.4 -1.65L-4.3 -4.7L-6.65 -6.35L-8.75 -3.3z" />
<path style="fill:#505050;fill-opacity:1" d="M7.5,6.25L5.15 4.6L7.25 1.55L9.6 3.2L7.5 6.25" />
<path style="fill:none;stroke-width:0.5;stroke-linecap:butt;stroke-linejoin:miter;stroke-miterlimit:10;stroke:#FFFFFF;stroke-opacity:1" d="M9.6,3.2L7.25 1.55L5.15 4.6L7.5 6.25L9.6 3.2z" />
<path style="fill:#505050;fill-opacity:1" d="M-8.75,3.2L-6.4 1.55L-4.3 4.6L-6.65 6.25L-8.75 3.2" />
<path style="fill:none;stroke-width:0.5;stroke-linecap:butt;stroke-linejoin:miter;stroke-miterlimit:10;stroke:#FFFFFF;stroke-opacity:1" d="M-8.75,3.2L-6.4 1.55L-4.3 4.6L-6.65 6.25L-8.75 3.2z" />
</g>
</svg>
