<?xml version="1.0" encoding="utf-8"?>
<svg version="1.1" id="Layer_1"
xmlns="http://www.w3.org/2000/svg"
xmlns:xlink="http://www.w3.org/1999/xlink"
xmlns:author="http://www.sothink.com"
width="16px" height="20px"
xml:space="preserve">
<g id="1762" transform="matrix(1, 0, 0, 1, 7.5, 9.95)">
<path style="fill:#FFFFFF;fill-opacity:1" d="M5.45,1.15L0 9L-5.4 1.15Q-6.5 -0.4 -6.5 -2.45Q-6.5 -5.15 -4.6 -7.05Q-2.7 -8.95 0 -8.95Q2.7 -8.95 4.65 -7.05Q6.55 -5.15 6.55 -2.45Q6.55 -0.4 5.45 1.15M-2.25,-4.55Q-3.15 -3.6 -3.15 -2.3Q-3.15 -1 -2.25 -0.05Q-1.3 0.85 0 0.85Q1.3 0.85 2.25 -0.05Q3.2 -1 3.2 -2.3Q3.2 -3.6 2.25 -4.55Q1.3 -5.5 0 -5.5Q-1.3 -5.5 -2.25 -4.55" />
<path style="fill:#000000;fill-opacity:1" d="M6.55,-2.45Q6.55 -5.15 4.65 -7.05Q2.7 -8.95 0 -8.95Q-2.7 -8.95 -4.6 -7.05Q-6.5 -5.15 -6.5 -2.45Q-6.5 -0.4 -5.4 1.15L0 9L5.45 1.15Q6.55 -0.4 6.55 -2.45M7.55,-2.45Q7.55 -0.2 6.3 1.75L0.85 9.6Q0.55 10 0 10Q-0.5 10 -0.8 9.6L-6.25 1.7Q-7.5 -0.15 -7.5 -2.45Q-7.5 -5.55 -5.3 -7.75Q-3.1 -9.95 0 -9.95Q3.1 -9.95 5.35 -7.75Q7.55 -5.55 7.55 -2.45M0,-5.5Q1.3 -5.5 2.25 -4.55Q3.2 -3.6 3.2 -2.3Q3.2 -1 2.25 -0.05Q1.3 0.85 0 0.85Q-1.3 0.85 -2.25 -0.05Q-3.15 -1 -3.15 -2.3Q-3.15 -3.6 -2.25 -4.55Q-1.3 -5.5 0 -5.5M-1.5,-3.85Q-2.15 -3.2 -2.15 -2.3Q-2.15 -1.4 -1.5 -0.75Q-0.9 -0.15 0 -0.15Q0.9 -0.15 1.55 -0.75Q2.2 -1.4 2.2 -2.3Q2.2 -3.2 1.55 -3.85Q0.9 -4.5 0 -4.5Q-0.9 -4.5 -1.5 -3.85" />
</g>
</svg>
