<?xml version="1.0" encoding="utf-8"?>
<svg version="1.1" id="Layer_1"
xmlns="http://www.w3.org/2000/svg"
xmlns:xlink="http://www.w3.org/1999/xlink"
xmlns:author="http://www.sothink.com"
width="18px" height="18px"
xml:space="preserve">
<g id="1829" transform="matrix(1, 0, 0, 1, 8.9, 8.85)">
<path style="fill:#FFFFFF;fill-opacity:1" d="M4.55,-4.5Q2.65 -6.4 0 -6.4Q-2.65 -6.4 -4.55 -4.5Q-6.4 -2.65 -6.4 0Q-6.4 2.65 -4.55 4.55Q-2.65 6.45 0 6.45Q2.65 6.45 4.55 4.55Q6.45 2.65 6.45 0Q6.45 -2.65 4.55 -4.5M8.9,0Q8.9 3.7 6.3 6.3Q3.7 8.9 0 8.9Q-3.7 8.9 -6.3 6.3Q-8.9 3.7 -8.9 0Q-8.9 -3.65 -6.3 -6.25Q-3.7 -8.85 0 -8.85Q3.7 -8.85 6.3 -6.25Q8.9 -3.65 8.9 0" />
<path style="fill:#FFFFFF;fill-opacity:1" d="M3.9,0Q3.9 1.6 2.75 2.75Q1.6 3.9 0 3.9Q-1.6 3.9 -2.75 2.75Q-3.9 1.6 -3.9 0Q-3.9 -1.6 -2.75 -2.7Q-1.6 -3.85 0 -3.85Q1.6 -3.85 2.75 -2.7Q3.9 -1.6 3.9 0M-1.15,-1.15Q-1.65 -0.65 -1.65 0Q-1.65 0.7 -1.15 1.2Q-0.7 1.7 0 1.7Q0.7 1.7 1.15 1.2Q1.65 0.7 1.65 0Q1.65 -0.65 1.15 -1.15L0 -1.6L-1.15 -1.15" />
</g>
</svg>
