<?xml version="1.0" encoding="utf-8"?>
<svg version="1.1" id="Layer_1"
xmlns="http://www.w3.org/2000/svg"
xmlns:xlink="http://www.w3.org/1999/xlink"
xmlns:author="http://www.sothink.com"
width="19px" height="30px"
xml:space="preserve">
<g id="1840" transform="matrix(1, 0, 0, 1, 9.35, 14.55)">
<path style="fill:#FFFFFF;fill-opacity:1" d="M6,-11.6Q7.1 -10.65 7.7 -9.25Q8.35 -7.7 8.35 -6.05L8.05 -3.8L7.35 -2.2L6.3 -0.95L3.85 1.25L2.85 2.5Q1.9 3.95 1.9 6.35L-2 6.35Q-2 2.1 -0.45 0.1L1.95 -2.1L2.9 -3.1L3.55 -4.3L3.75 -5.9Q3.75 -7.1 3.4 -7.8L2.45 -9.1L1.3 -9.8L0.2 -10Q-2 -10 -3.15 -8.5Q-4.2 -7 -4.2 -4.5L-8.35 -4.5Q-8.35 -6.55 -7.75 -8.2Q-7.15 -9.8 -6 -11.05L-3.25 -12.9L0.4 -13.55L3.5 -13.05Q4.9 -12.55 6 -11.6M1.9,8.9L1.9 13.55L-2 13.55L-2 8.9L1.9 8.9" />
<path style="fill:#000000;fill-opacity:1" d="M-9.35,-4.5Q-9.35 -6.75 -8.7 -8.55Q-8.05 -10.4 -6.75 -11.75Q-5.35 -13.15 -3.6 -13.8Q-1.8 -14.55 0.4 -14.55L3.85 -14Q5.45 -13.4 6.7 -12.35Q7.95 -11.2 8.6 -9.65Q9.35 -8.05 9.35 -6.05Q9.35 -4.75 9 -3.55L8.15 -1.65L6.95 -0.2L4.55 1.95L3.65 3.05L3.6 3.15Q2.9 4.25 2.9 6.35L2.6 7.05L1.9 7.35L-2 7.35L-2.7 7.05L-3 6.35Q-3 1.65 -1.25 -0.45L-1.2 -0.5L0.15 -1.9L2.1 -3.7L2.6 -4.65L2.75 -5.9L2.5 -7.4L1.8 -8.35L0.95 -8.85L0.2 -9Q-1.55 -9 -2.3 -7.95Q-3.2 -6.65 -3.2 -4.5Q-3.2 -4.1 -3.5 -3.8Q-3.8 -3.5 -4.2 -3.5L-8.35 -3.5Q-8.75 -3.5 -9.05 -3.8L-9.35 -4.5M6,-11.6Q4.9 -12.55 3.5 -13.05L0.4 -13.55L-3.25 -12.9L-6 -11.05Q-7.15 -9.8 -7.75 -8.2Q-8.35 -6.55 -8.35 -4.5L-4.2 -4.5Q-4.2 -7 -3.15 -8.5Q-2 -10 0.2 -10L1.3 -9.8L2.45 -9.1L3.4 -7.8Q3.75 -7.1 3.75 -5.9L3.55 -4.3L2.9 -3.1L1.95 -2.1L-0.45 0.1Q-2 2.1 -2 6.35L1.9 6.35Q1.9 3.95 2.85 2.5L3.85 1.25L6.3 -0.95L7.35 -2.2L8.05 -3.8L8.35 -6.05Q8.35 -7.7 7.7 -9.25Q7.1 -10.65 6 -11.6M1.9,8.9L-2 8.9L-2 13.55L1.9 13.55L1.9 8.9M2.6,8.2L2.9 8.9L2.9 13.55L2.6 14.25L1.9 14.55L-2 14.55L-2.7 14.25L-3 13.55L-3 8.9L-2.7 8.2Q-2.4 7.9 -2 7.9L1.9 7.9Q2.3 7.9 2.6 8.2" />
</g>
</svg>
