<?xml version="1.0" encoding="utf-8"?>
<svg version="1.1" id="Layer_1"
xmlns="http://www.w3.org/2000/svg"
xmlns:xlink="http://www.w3.org/1999/xlink"
xmlns:author="http://www.sothink.com"
width="16px" height="19px"
xml:space="preserve">
<g id="1807" transform="matrix(1, 0, 0, 1, 8, 9.3)">
<path style="fill:#FFFFFF;fill-opacity:1" d="M4.4,-6.2L4.4 -3.2L5.15 -3Q5.85 -3 6.35 -3.5Q6.85 -4 6.85 -4.7Q6.85 -5.4 6.35 -5.9Q5.85 -6.4 5.15 -6.4L4.4 -6.2M4.4,-7.5L5.15 -7.6Q6.3 -7.6 7.15 -6.75Q8 -5.9 8 -4.7Q8 -3.5 7.15 -2.65Q6.3 -1.8 5.15 -1.8L4.4 -1.95L4.4 -1.9Q4.35 -0.8 3.9 0.3Q3 2.45 1 2.45L1 4.9L4.4 5.85L4.4 9.3L-4.4 9.3L-4.4 5.85L-1 4.9L-1 2.45Q-3.05 2.45 -3.9 0.3L-4.4 -1.9L-4.4 -1.95L-5.15 -1.8Q-6.35 -1.8 -7.15 -2.65Q-8 -3.5 -8 -4.7Q-8 -5.9 -7.15 -6.75Q-6.35 -7.6 -5.15 -7.6L-4.4 -7.5L-4.4 -9.3L4.4 -9.3L4.4 -7.5M-6.35,-3.5Q-5.85 -3 -5.15 -3L-4.4 -3.2L-4.4 -6.2L-5.15 -6.4Q-5.85 -6.4 -6.35 -5.9Q-6.85 -5.4 -6.85 -4.7Q-6.85 -4 -6.35 -3.5" />
</g>
</svg>
