<?xml version="1.0" encoding="utf-8"?>
<svg version="1.1" id="Layer_1"
xmlns="http://www.w3.org/2000/svg"
xmlns:xlink="http://www.w3.org/1999/xlink"
xmlns:author="http://www.sothink.com"
width="16px" height="15px"
xml:space="preserve">
<g id="1822" transform="matrix(1, 0, 0, 1, 7.35, 6.6)">
<path style="fill:#F5F5F5;fill-opacity:1" d="M2.9,2.35L2.1 4.65L1.4 6.15Q0.8 7.3 0.25 7.5Q-0.55 7.8 -3.1 7.5Q-6 7.2 -7 6.3L-7.35 5.7L-7.15 5.2Q-6.65 4.65 -5.05 4.25L-2.3 3.8L-1.2 3.5Q0.15 2.6 0.55 1.15Q1 -0.6 2.85 -3.2Q3.8 -4.6 6.1 -6.55Q6.35 -6.8 7.35 -5.75Q8.35 -4.7 8.3 -3.9L7.75 -1.9L6.95 0.75Q6.35 4.85 6.35 6.95Q6.35 7.4 5.95 7.55L5.5 7.55Q5.1 7.5 5.1 7.1Q5.25 0.95 5.05 0.45Q4.95 0.05 4.15 0.75Q3.3 1.45 2.9 2.35" />
</g>
</svg>
