<?xml version="1.0" encoding="utf-8"?>
<svg version="1.1" id="Layer_1"
xmlns="http://www.w3.org/2000/svg"
xmlns:xlink="http://www.w3.org/1999/xlink"
xmlns:author="http://www.sothink.com"
width="7px" height="15px"
xml:space="preserve">
<g id="1832" transform="matrix(1, 0, 0, 1, 3.45, 7.15)">
<path style="fill:#FFFFFF;fill-opacity:1" d="M1.25,-5.65Q2.75 -5.5 3.5 -4.9L2.8 -2.9Q2 -3.6 0.65 -3.65L0.45 -3.65L0.3 -3.6L0.1 -3.6L-0.2 -3.5L-0.3 -3.45L-0.45 -3.35L-0.55 -3.3L-0.85 -3L-0.9 -2.9L-0.95 -2.75L-1 -2.65L-1 -2.4Q-1 -1.45 0.55 -0.85Q3.55 0.35 3.5 2.55Q3.5 4.8 1.25 5.5L1.25 7.2L-1 7.2L-1 5.7Q-2.2 5.6 -2.95 5.15L-3.45 4.75L-2.8 2.75Q-2.35 3 -1.95 3.2L-0.2 3.7L0.05 3.65L0.3 3.65L0.65 3.55L0.75 3.45L0.9 3.4L1.05 3.25L1.2 2.95L1.2 2.9L1.25 2.8L1.25 2.65Q1.25 1.8 -0.45 1.15Q-3.3 -0.05 -3.3 -2.3Q-3.2 -4.65 -1 -5.4L-1 -7.15L1.25 -7.15L1.25 -5.65" />
</g>
</svg>
