<?xml version="1.0" encoding="utf-8"?>
<svg version="1.1" id="Layer_1"
xmlns="http://www.w3.org/2000/svg"
xmlns:xlink="http://www.w3.org/1999/xlink"
xmlns:author="http://www.sothink.com"
width="20px" height="32px"
xml:space="preserve">
<g id="1842" transform="matrix(1, 0, 0, 1, 9.7, 15.55)">
<path style="fill:#FFFFFF;fill-opacity:1" d="M8.45,1.7L7.15 2.45Q6.6 2.75 6.25 2.2L3.9 -1.85L3.9 13.9Q3.9 14.55 3.25 14.55L1.75 14.55Q1.1 14.55 1.1 13.9L1.1 4.15L-1.05 4.15L-1.05 13.9Q-1.05 14.55 -1.7 14.55L-3.2 14.55Q-3.85 14.55 -3.85 13.9L-3.85 -1.85L-6.2 2.2Q-6.55 2.7 -7.1 2.45L-8.4 1.7Q-8.9 1.35 -8.65 0.8L-3.7 -7.7L-3.2 -7.95L3.25 -7.95L3.8 -7.7L3.85 -7.55L8.7 0.8Q9 1.35 8.45 1.7" />
<path style="fill:#000000;fill-opacity:1" d="M4.6,-8.3L4.65 -8.2L4.75 -8.05L9.55 0.3Q9.9 0.9 9.7 1.55L8.95 2.55L7.65 3.3L6.8 3.55Q5.9 3.55 5.4 2.7L4.9 1.85L4.9 13.9Q4.9 14.6 4.4 15.1Q3.95 15.55 3.25 15.55L1.75 15.55Q1.05 15.55 0.6 15.1Q0.1 14.6 0.1 13.9L0.1 5.15L-0.05 5.15L-0.05 13.9Q-0.05 14.6 -0.55 15.1Q-1 15.55 -1.7 15.55L-3.2 15.55Q-3.9 15.55 -4.35 15.1Q-4.85 14.6 -4.85 13.9L-4.85 1.85L-5.35 2.7Q-5.85 3.55 -6.75 3.55L-7.6 3.3L-8.9 2.55Q-9.5 2.2 -9.65 1.55Q-9.85 0.9 -9.5 0.3L-4.65 -8.05L-4.6 -8.2L-4.5 -8.3Q-4 -8.95 -3.2 -8.95L3.25 -8.95Q4.1 -8.95 4.6 -8.3M3.8,-7.7L3.25 -7.95L-3.2 -7.95L-3.7 -7.7L-8.65 0.8Q-8.9 1.35 -8.4 1.7L-7.1 2.45L-6.75 2.55Q-6.35 2.55 -6.2 2.2L-3.85 -1.85L-3.85 13.9Q-3.85 14.55 -3.2 14.55L-1.7 14.55Q-1.05 14.55 -1.05 13.9L-1.05 4.15L1.1 4.15L1.1 13.9Q1.1 14.55 1.75 14.55L3.25 14.55Q3.9 14.55 3.9 13.9L3.9 -1.85L6.25 2.2Q6.5 2.55 6.8 2.55L7.15 2.45L8.45 1.7Q9 1.35 8.7 0.8L3.85 -7.55L3.8 -7.7" />
<path style="fill:#FFFFFF;fill-opacity:1" d="M2,-13.75Q2.8 -12.95 2.8 -11.8Q2.8 -10.65 2 -9.8Q1.2 -9 0.05 -9Q-1.1 -9 -1.95 -9.8Q-2.75 -10.65 -2.75 -11.8Q-2.75 -12.95 -1.95 -13.75Q-1.1 -14.55 0.05 -14.55Q1.2 -14.55 2 -13.75" />
<path style="fill:#000000;fill-opacity:1" d="M2.7,-14.45Q3.8 -13.35 3.8 -11.8Q3.8 -10.25 2.7 -9.1Q1.6 -8 0.05 -8Q-1.5 -8 -2.65 -9.1Q-3.75 -10.2 -3.75 -11.8Q-3.75 -13.35 -2.65 -14.45Q-1.55 -15.55 0.05 -15.55Q1.6 -15.55 2.7 -14.45M2,-9.8Q2.8 -10.65 2.8 -11.8Q2.8 -12.95 2 -13.75Q1.2 -14.55 0.05 -14.55Q-1.1 -14.55 -1.95 -13.75Q-2.75 -12.95 -2.75 -11.8Q-2.75 -10.65 -1.95 -9.8Q-1.1 -9 0.05 -9Q1.2 -9 2 -9.8" />
</g>
</svg>
