<?xml version="1.0" encoding="utf-8"?>
<svg version="1.1" id="Layer_1"
xmlns="http://www.w3.org/2000/svg"
xmlns:xlink="http://www.w3.org/1999/xlink"
xmlns:author="http://www.sothink.com"
width="28px" height="28px"
xml:space="preserve">
<g id="1769" transform="matrix(1, 0, 0, 1, 13.9, 13.9)">
<path style="fill:#000000;fill-opacity:1" d="M11.9,-1L11.9 1.05L9.05 1.05Q8.75 4.2 6.45 6.45Q4.2 8.75 1.05 9.05L1.05 11.9L-1 11.9L-1 9.05Q-4.2 8.75 -6.4 6.45Q-8.7 4.2 -9 1.05L-11.9 1.05L-11.9 -1L-9 -1Q-8.7 -4.2 -6.4 -6.45Q-4.2 -8.7 -1 -9.05L-1 -11.9L1.05 -11.9L1.05 -9.05Q4.2 -8.7 6.45 -6.45Q8.75 -4.2 9.05 -1L11.9 -1" />
<path style="fill:none;stroke-width:4;stroke-linecap:round;stroke-linejoin:round;stroke-miterlimit:3;stroke:#000000;stroke-opacity:1" d="M9.05,-1Q8.75 -4.2 6.45 -6.45Q4.2 -8.7 1.05 -9.05L1.05 -11.9L-1 -11.9L-1 -9.05Q-4.2 -8.7 -6.4 -6.45Q-8.7 -4.2 -9 -1L-11.9 -1L-11.9 1.05L-9 1.05Q-8.7 4.2 -6.4 6.45Q-4.2 8.75 -1 9.05L-1 11.9L1.05 11.9L1.05 9.05Q4.2 8.75 6.45 6.45Q8.75 4.2 9.05 1.05L11.9 1.05L11.9 -1L9.05 -1z" />
<path style="fill:#FFFFFF;fill-opacity:1" d="M11.9,1L9.05 1Q8.7 4.15 6.45 6.45Q4.15 8.7 1.05 9.05L1.05 11.9L-1 11.9L-1 9.05Q-4.2 8.7 -6.45 6.45Q-8.7 4.15 -9.05 1L-11.95 1L-11.95 -1L-9.05 -1Q-8.7 -4.2 -6.45 -6.5Q-4.2 -8.7 -1 -9.1L-1 -11.95L1.05 -11.95L1.05 -9.1Q4.15 -8.7 6.45 -6.5Q8.7 -4.2 9.05 -1L11.9 -1L11.9 1M1.05,-7.4L1.05 -2L-1 -2L-1 -7.4Q-3.5 -7 -5.25 -5.25Q-7 -3.5 -7.4 -1L-2 -1L-2 1L-7.4 1Q-7 3.5 -5.25 5.25Q-3.5 7 -1 7.35L-1 1.95L1.05 1.95L1.05 7.35Q3.5 7 5.25 5.25Q7 3.5 7.35 1L2 1L2 -1L7.35 -1Q7 -3.5 5.25 -5.25Q3.5 -7 1.05 -7.4" />
</g>
</svg>
