<?xml version="1.0" encoding="utf-8"?>
<svg version="1.1" id="Layer_1"
xmlns="http://www.w3.org/2000/svg"
xmlns:xlink="http://www.w3.org/1999/xlink"
xmlns:author="http://www.sothink.com"
width="32px" height="30px"
xml:space="preserve">
<g id="1841" transform="matrix(1, 0, 0, 1, 15.6, 14.65)">
<path style="fill:#FFFFFF;fill-opacity:1" d="M11.85,-4.95L15.1 -4.95L14.35 0.15L15.1 5L11.85 5L10.75 1.95L2.15 2.35L4.8 14.15L0.3 14.15L-4.6 2.6L-11.4 2.75Q-15.1 2.05 -15.1 0Q-15.1 -1.3 -13.3 -2.15Q-12.05 -2.8 -11.4 -2.8L-4.6 -2.6L0.3 -14.15L4.8 -14.15L2.2 -2.35L10.75 -1.95L11.85 -4.95" />
<path style="fill:none;stroke-width:1;stroke-linecap:butt;stroke-linejoin:round;stroke-miterlimit:3;stroke:#000000;stroke-opacity:1" d="M10.75,-1.95L2.2 -2.35L4.8 -14.15L0.3 -14.15L-4.6 -2.6L-11.4 -2.8Q-12.05 -2.8 -13.3 -2.15Q-15.1 -1.3 -15.1 0Q-15.1 2.05 -11.4 2.75L-4.6 2.6L0.3 14.15L4.8 14.15L2.15 2.35L10.75 1.95L11.85 5L15.1 5L14.35 0.15L15.1 -4.95L11.85 -4.95L10.75 -1.95z" />
</g>
</svg>
