<?xml version="1.0" encoding="utf-8"?>
<svg version="1.1" id="Layer_1"
xmlns="http://www.w3.org/2000/svg"
xmlns:xlink="http://www.w3.org/1999/xlink"
xmlns:author="http://www.sothink.com"
width="18px" height="18px"
xml:space="preserve">
<g id="1757" transform="matrix(1, 0, 0, 1, 8.85, 8.85)">
<path style="fill:#FFFFFF;fill-opacity:1" d="M8.9,0Q8.9 3.7 6.3 6.3Q3.7 8.9 0.05 8.9Q-3.6 8.9 -6.25 6.3Q-8.85 3.7 -8.85 0Q-8.85 -3.65 -6.25 -6.25Q-3.65 -8.85 0.05 -8.85Q3.75 -8.85 6.3 -6.25Q8.9 -3.65 8.9 0M5.45,-5.4Q3.2 -7.65 0.05 -7.65Q-3.15 -7.65 -5.4 -5.4Q-7.65 -3.15 -7.65 0Q-7.65 3.2 -5.4 5.45Q-3.15 7.7 0.05 7.7Q3.2 7.7 5.45 5.45Q7.7 3.2 7.7 0Q7.7 -3.15 5.45 -5.4" />
<path style="fill:#FFFFFF;fill-opacity:1" d="M3.5,-3.9L3.65 -2.75L3.45 -1.55L2.9 -0.55L2.1 0.25L-1.3 2.8L-1.75 3.5L3.65 3.5L3.65 5.1L-3.9 5.1Q-3.9 3.85 -3.25 2.7Q-2.55 1.7 -1.45 0.95L0.75 -0.65L1.55 -1.55L1.85 -2.7L1.8 -3.35L1.5 -3.95L0.95 -4.45L0 -4.65L-0.9 -4.45L-1.45 -3.85L-1.75 -3L-1.9 -1.9L-3.7 -1.9L-3.45 -3.6L-2.7 -4.95Q-2.2 -5.5 -1.5 -5.8L0.1 -6.15L1.8 -5.8L2.9 -5L3.5 -3.9" />
</g>
</svg>
