<?xml version="1.0" encoding="utf-8"?>
<svg version="1.1" id="Layer_1"
xmlns="http://www.w3.org/2000/svg"
xmlns:xlink="http://www.w3.org/1999/xlink"
xmlns:author="http://www.sothink.com"
width="18px" height="20px"
xml:space="preserve">
<g id="1765" transform="matrix(1, 0, 0, 1, 8.75, 9.95)">
<path style="fill:#FFFFFF;fill-opacity:1" d="M2.55,-0.85L1.75 -0.4Q0.9 0.15 0.95 0.75L0.95 1.1L1.25 1.8L1.9 2.7L2.85 3.7Q4.25 4.2 4.7 3.7L5.3 3Q5.8 2.05 5.4 0.75Q3.9 -0.95 2.55 -0.85M7.7,-1.15L7.55 2.4Q7.25 4.05 6.1 5.25L4.95 6.2L4.3 6.15L3.95 5.85L3.8 6.1L3.5 7.55L2.85 8.25Q1.95 8.95 0.6 8.95L-0.65 8.95Q-2 8.95 -2.9 8.25L-3.55 7.55L-3.85 6.1L-3.95 5.85L-4.3 6.15L-5 6.2L-6.05 5.4L-7.25 3.45L-7.6 2.4L-7.75 -1.15L-7.6 -3.35L-7.6 -3.45Q-6.9 -7.05 -3.4 -8.35Q-1.7 -9 -0.1 -8.95L0.05 -8.95L3.35 -8.35Q6.85 -7.05 7.55 -3.45L7.6 -3.35L7.7 -1.15M-5.6,0.75Q-6 2.05 -5.45 3.05L-4.85 3.75Q-4.4 4.25 -2.95 3.75Q-2.55 3.55 -1.35 1.8L-1.05 1.1L-1.05 0.75Q-1 0.15 -1.85 -0.45L-2.7 -0.9Q-3.55 -0.95 -4.65 -0.1L-5.6 0.75M1.2,3.7Q1.2 3.2 0.65 3L0.05 2.9L-0.5 3Q-1.1 3.25 -1.1 3.7L-1.1 5.05Q-1 6 -0.4 6.1L0.45 6.1Q1.05 6 1.2 5.05L1.2 3.7" />
<path style="fill:#000000;fill-opacity:1" d="M1.95,0.7L1.95 0.8L2.05 1.2L3.3 2.8L4 2.95L4.05 2.95L4.1 2.9Q4.75 2.45 4.5 1.25Q3.45 0.2 2.75 0.15L1.95 0.7M2.7,-0.85Q4 -0.85 5.4 0.75Q5.8 2.05 5.3 3L4.7 3.7L4 3.95L2.85 3.7L1.9 2.7L1.25 1.8L0.95 1.1L0.95 0.75Q0.9 0.15 1.75 -0.4L2.55 -0.85L2.7 -0.85M8.55,-3.5L8.7 -1.15L8.55 2.5L8.55 2.6Q8.15 4.55 6.85 5.95L6.8 6L6.75 6L5.6 6.95L5.45 7.1L4.65 7.25L4.6 7.25L4.5 7.75L4.4 8.05L3.2 9.25Q2.1 9.95 0.65 9.95L-0.65 9.95Q-2.1 9.95 -3.2 9.25L-4.4 8.05L-4.5 7.9L-4.5 7.75L-4.6 7.25L-4.7 7.25L-5.45 7.1L-5.55 7.05L-5.6 7L-6.65 6.15L-6.7 6.15L-6.75 6.1Q-7.55 5.2 -8.15 3.85L-8.55 2.65L-8.55 2.6L-8.6 2.5L-8.75 -1.1L-8.6 -3.55L-8.55 -3.65Q-7.95 -6.85 -5.25 -8.55Q-3.05 -9.95 -0.2 -9.95L0 -9.95L0 -8.95L-0.2 -8.95Q-2.1 -8.95 -3.8 -8.2Q-6.95 -6.8 -7.6 -3.45L-7.6 -3.35L-7.75 -1.15L-7.6 2.4L-7.25 3.45L-6.05 5.4L-5 6.2L-4.7 6.25L-4.3 6.15L-3.95 5.85L-3.85 6.1L-3.55 7.55L-2.9 8.25Q-2 8.95 -0.65 8.95L0.6 8.95Q1.95 8.95 2.85 8.25L3.5 7.55L3.8 6.1L3.95 5.85L4.3 6.15L4.65 6.25L4.95 6.2L6.1 5.25Q7.25 4.05 7.55 2.4L7.7 -1.15L7.6 -3.35L7.55 -3.45Q6.9 -6.8 3.8 -8.2Q2.05 -8.95 0.2 -8.95L0 -8.95L0.05 -9.95L0.2 -9.95Q3 -9.95 5.25 -8.55Q7.9 -6.85 8.55 -3.7L8.55 -3.5M-2.7,-0.9L-1.85 -0.45Q-1 0.15 -1.05 0.75L-1.05 1.1L-1.35 1.8Q-2.55 3.55 -2.95 3.75L-4.15 4L-4.85 3.75L-5.45 3.05Q-6 2.05 -5.6 0.75Q-4.15 -0.9 -2.8 -0.9L-2.7 -0.9M-2.05,0.8L-2.05 0.75L-2.9 0.1Q-3.6 0.15 -4.7 1.25Q-4.95 2.4 -4.3 2.9L-4.2 3L-4.15 3L-3.45 2.85L-2.15 1.25L-2.05 0.8M1.2,3.7L1.2 5.05Q1.05 6 0.45 6.1L-0.4 6.1Q-1 6 -1.1 5.05L-1.1 3.7Q-1.1 3.25 -0.5 3L0.05 2.9L0.65 3Q1.2 3.2 1.2 3.7M-0.1,5.1L0.15 5.1L0.2 4L0.2 3.9L-0.1 3.9L-0.15 4L-0.1 5.1" />
</g>
</svg>
