<?xml version="1.0" encoding="utf-8"?>
<svg version="1.1" id="Layer_1"
xmlns="http://www.w3.org/2000/svg"
xmlns:xlink="http://www.w3.org/1999/xlink"
xmlns:author="http://www.sothink.com"
width="18px" height="18px"
xml:space="preserve">
<g id="1746" transform="matrix(1, 0, 0, 1, 8.85, 8.85)">
<path style="fill:#FFFFFF;fill-opacity:1" d="M-1.2,-1.4Q-1.7 -1.75 -1.7 -2.6Q-1.7 -3.45 -1.2 -3.9Q-0.65 -4.35 0.05 -4.35Q0.8 -4.35 1.3 -3.9Q1.8 -3.45 1.8 -2.6Q1.8 -1.75 1.3 -1.4Q0.85 -0.95 0.05 -0.95Q-0.75 -0.95 -1.2 -1.4" />
<path style="fill:#FFFFFF;fill-opacity:1" d="M1.55,0.9Q2.15 1.45 2.15 2.35Q2.15 3.4 1.55 3.9Q1 4.4 0.05 4.4L-1.5 3.9Q-2.1 3.4 -2.1 2.35Q-2.1 1.45 -1.5 0.9Q-0.85 0.4 0.05 0.4Q1 0.4 1.55 0.9" />
<path style="fill:#FFFFFF;fill-opacity:1" d="M3.45,0.6Q2.95 -0.1 1.95 -0.4Q2.75 -0.7 3.1 -1.3Q3.55 -1.9 3.55 -2.7Q3.55 -4.2 2.65 -4.95Q1.8 -5.75 0.05 -5.75Q-1.7 -5.75 -2.55 -4.95Q-3.45 -4.2 -3.45 -2.7Q-3.45 -1.95 -3.05 -1.3Q-2.6 -0.7 -1.85 -0.4Q-2.85 -0.1 -3.35 0.6Q-3.9 1.2 -3.9 2.35L-3.6 3.85L-2.8 4.95L-1.55 5.6L0.05 5.85L1.6 5.6L2.9 4.95L3.7 3.85L4 2.35Q4 1.3 3.45 0.6M8.9,0.05Q8.9 3.75 6.3 6.3Q3.75 8.9 0.05 8.9Q-3.65 8.9 -6.25 6.3Q-8.85 3.7 -8.85 0.05Q-8.85 -3.6 -6.25 -6.25Q-3.6 -8.85 0.05 -8.85Q3.7 -8.85 6.3 -6.25Q8.9 -3.65 8.9 0.05" />
</g>
</svg>
