<?xml version="1.0" encoding="utf-8"?>
<svg version="1.1" id="Layer_1"
xmlns="http://www.w3.org/2000/svg"
xmlns:xlink="http://www.w3.org/1999/xlink"
xmlns:author="http://www.sothink.com"
width="18px" height="18px"
xml:space="preserve">
<g id="1755" transform="matrix(1, 0, 0, 1, 8.85, 8.85)">
<path style="fill:#FFFFFF;fill-opacity:1" d="M8.9,0Q8.9 3.7 6.3 6.3Q3.7 8.9 0.05 8.9Q-3.6 8.9 -6.25 6.3Q-8.85 3.7 -8.85 0Q-8.85 -3.65 -6.25 -6.25Q-3.65 -8.85 0.05 -8.85Q3.75 -8.85 6.3 -6.25Q8.9 -3.65 8.9 0M5.45,-5.4Q3.2 -7.65 0.05 -7.65Q-3.15 -7.65 -5.4 -5.4Q-7.65 -3.15 -7.65 0Q-7.65 3.2 -5.4 5.4Q-3.15 7.65 0.05 7.65Q3.2 7.65 5.45 5.4Q7.7 3.2 7.7 0Q7.7 -3.15 5.45 -5.4" />
<path style="fill:#FFFFFF;fill-opacity:1" d="M2.5,-4.85L3.3 -3.9L3.6 -2.6Q3.6 -1.8 3.2 -1.15Q2.85 -0.5 2 -0.2Q3 0.05 3.5 0.75Q4.05 1.55 4.05 2.6L3.7 4.05L2.85 5.1L1.6 5.8L0.05 6L-1.65 5.75L-2.85 4.95L-3.6 3.75L-3.85 2.15L-2.05 2.15Q-2.05 3.2 -1.55 3.85Q-1.05 4.5 0.05 4.5Q1.05 4.5 1.6 4Q2.2 3.5 2.2 2.5L1.95 1.5L1.3 0.9L0.35 0.65L-0.7 0.6L-0.7 -0.75L0.2 -0.8L1 -1.1L1.55 -1.65L1.75 -2.5L1.3 -3.65Q0.8 -4.1 0 -4.1L-0.8 -3.9L-1.4 -3.4L-1.75 -2.65L-1.85 -1.8L-3.65 -1.8L-3.35 -3.3L-2.6 -4.5Q-2.1 -5.1 -1.45 -5.3L0.05 -5.6L1.35 -5.4L2.5 -4.85" />
</g>
</svg>
