<?xml version="1.0" encoding="utf-8"?>
<svg version="1.1" id="Layer_1"
xmlns="http://www.w3.org/2000/svg"
xmlns:xlink="http://www.w3.org/1999/xlink"
xmlns:author="http://www.sothink.com"
width="28px" height="28px"
xml:space="preserve">
<g id="1849" transform="matrix(1, 0, 0, 1, 14, 14)">
<path style="fill:#F5F5F5;fill-opacity:1" d="M-8.85,-9.5Q-4.9 -13.2 0.45 -13Q5.85 -12.8 9.5 -8.85Q13.2 -4.9 13 0.45Q12.8 5.85 8.85 9.5Q4.9 13.2 -0.45 13Q-5.85 12.8 -9.5 8.85Q-13.2 4.9 -13 -0.45Q-12.8 -5.85 -8.85 -9.5" />
<path style="fill:#000000;fill-opacity:1" d="M-14,-0.5Q-13.8 -6.15 -9.75 -10.1Q-5.7 -14 0 -14L0.5 -14Q6.25 -13.75 10.25 -9.55Q14.15 -5.35 14 0.5Q13.8 6.2 9.75 10.1Q5.7 14 0 14L-0.5 14Q-6.25 13.8 -10.25 9.55Q-14.2 5.3 -14 -0.5M-13,-0.45Q-13.2 4.9 -9.5 8.85Q-5.85 12.8 -0.45 13L0 13Q5.25 13 9 9.35Q12.8 5.7 13 0.45Q13.2 -4.9 9.5 -8.85Q5.85 -12.8 0.45 -13L0 -13Q-5.25 -13 -9.05 -9.35Q-12.8 -5.7 -13 -0.45" />
<path style="fill:#000000;fill-opacity:1" d="M-6,5.6Q-3.7 8.1 -0.3 8.2Q0.3 8.2 0.7 8.65Q1.15 9.1 1.1 9.7L0.65 10.7Q0.2 11.1 -0.4 11.1Q-5 10.9 -8.1 7.55Q-11.25 4.15 -11.05 -0.4Q-11.05 -1 -10.6 -1.4Q-10.15 -1.8 -9.6 -1.8L-8.6 -1.35Q-8.15 -0.9 -8.2 -0.3Q-8.3 3.1 -6 5.6" />
<path style="fill:#000000;fill-opacity:1" d="M4.8,0.2Q4.75 2.2 3.3 3.55Q1.8 4.9 -0.2 4.8Q-2.2 4.75 -3.55 3.3Q-4.85 1.85 -4.8 -0.15Q-4.7 -2.15 -3.3 -3.5Q-1.85 -4.85 0.15 -4.8Q2.2 -4.7 3.55 -3.25Q4.9 -1.8 4.8 0.2" />
</g>
</svg>
