<?xml version="1.0" encoding="utf-8"?>
<svg version="1.1" id="Layer_1"
xmlns="http://www.w3.org/2000/svg"
xmlns:xlink="http://www.w3.org/1999/xlink"
xmlns:author="http://www.sothink.com"
width="20px" height="14px"
xml:space="preserve">
<g id="1798" transform="matrix(1, 0, 0, 1, 9.95, 6.6)">
<path style="fill:#FFFFFF;fill-opacity:1" d="M7.15,-5.6L8.35 -5.6L8.35 -4.85L9 -4.85L9 -2.1L7.15 -2.1L7.15 -1L1.4 -1L0.45 2L-2.6 2L-3.6 5.65L-8.95 5.65L-7.2 -1L-7.9 -1L-7.9 -2.55L-7.3 -2.55L-7.3 -4.85L7.15 -4.85L7.15 -5.6M-1.8,-1L-2.25 0.65L-0.55 0.65L0 -1L-1.8 -1" />
<path style="fill:#000000;fill-opacity:1" d="M9.35,-5.8Q10 -5.55 10 -4.85L10 -2.1L9.7 -1.4Q9.4 -1.1 9 -1.1L8.15 -1.1L8.15 -1L7.85 -0.3Q7.55 0 7.15 0L2.15 0L1.4 2.3Q1.15 3 0.45 3L-1.85 3L-2.6 5.95Q-2.85 6.65 -3.6 6.65L-8.95 6.65Q-9.4 6.65 -9.75 6.3L-9.9 5.4L-8.45 -0.2Q-8.9 -0.45 -8.9 -1L-8.9 -2.55Q-8.9 -3.2 -8.3 -3.45L-8.3 -4.85L-8 -5.55L-7.3 -5.85L6.2 -5.85Q6.35 -6.6 7.15 -6.6L8.35 -6.6Q9.15 -6.6 9.35 -5.8M8.35,-4.85L8.35 -5.6L7.15 -5.6L7.15 -4.85L-7.3 -4.85L-7.3 -2.55L-7.9 -2.55L-7.9 -1L-7.2 -1L-8.95 5.65L-3.6 5.65L-2.6 2L0.45 2L1.4 -1L7.15 -1L7.15 -2.1L9 -2.1L9 -4.85L8.35 -4.85M0,-1L-0.55 0.65L-2.25 0.65L-1.8 -1L0 -1" />
</g>
</svg>
