<?xml version="1.0" encoding="utf-8"?>
<svg version="1.1" id="Layer_1"
xmlns="http://www.w3.org/2000/svg"
xmlns:xlink="http://www.w3.org/1999/xlink"
xmlns:author="http://www.sothink.com"
width="28px" height="30px"
xml:space="preserve">
<g id="1844" transform="matrix(1, 0, 0, 1, 13.85, 14.55)">
<path style="fill:#000000;fill-opacity:1" d="M12.75,13.05Q12.45 13.55 11.65 13.55L-11.6 13.55Q-12.4 13.55 -12.7 13.05Q-13 12.55 -12.65 11.85L-4.8 -3.05L-4.8 -10.65L-7.75 -10.65L-7.75 -13.55L7.75 -13.55L7.75 -10.65L4.85 -10.65L4.85 -3.05L12.7 11.85Q13.05 12.55 12.75 13.05" />
<path style="fill:#FFFFFF;fill-opacity:1" d="M12.75,13.05Q12.45 13.55 11.65 13.55L-11.6 13.55Q-12.4 13.55 -12.7 13.05Q-13 12.55 -12.65 11.85L-4.8 -3.05L-4.8 -10.65L-7.75 -10.65L-7.75 -13.55L7.75 -13.55L7.75 -10.65L4.85 -10.65L4.85 -3.05L12.7 11.85Q13.05 12.55 12.75 13.05" />
<path style="fill:#000000;fill-opacity:1" d="M8.45,-14.25L8.75 -13.55L8.75 -10.65L8.45 -9.95Q8.15 -9.65 7.75 -9.65L5.85 -9.65L5.85 -3.3L13.55 11.4Q14.2 12.65 13.6 13.55Q13.05 14.55 11.65 14.55L-11.6 14.55Q-13 14.55 -13.55 13.55Q-14.15 12.65 -13.5 11.4L-5.8 -3.3L-5.8 -9.65L-7.75 -9.65Q-8.15 -9.65 -8.45 -9.95L-8.75 -10.65L-8.75 -13.55L-8.45 -14.25Q-8.15 -14.55 -7.75 -14.55L7.75 -14.55Q8.15 -14.55 8.45 -14.25M-4.8,-3.05L-12.65 11.85Q-13 12.55 -12.7 13.05Q-12.4 13.55 -11.6 13.55L11.65 13.55Q12.45 13.55 12.75 13.05Q13.05 12.55 12.7 11.85L4.85 -3.05L4.85 -10.65L7.75 -10.65L7.75 -13.55L-7.75 -13.55L-7.75 -10.65L-4.8 -10.65L-4.8 -3.05" />
<path style="fill:#000000;fill-opacity:1" d="M10.35,11.75L-10.9 11.75L-5.45 1.45L5.2 1.45L10.35 11.75" />
<path style="fill:#000000;fill-opacity:1" d="M3.1,-3.55Q3.1 -2.85 2.6 -2.3Q2.05 -1.8 1.3 -1.8Q0.6 -1.8 0.05 -2.3Q-0.45 -2.85 -0.45 -3.55Q-0.45 -4.3 0.05 -4.8Q0.6 -5.35 1.3 -5.35Q2.05 -5.35 2.6 -4.8Q3.1 -4.3 3.1 -3.55" />
<path style="fill:#000000;fill-opacity:1" d="M0.5,-8.75Q0.5 -8 0 -7.45Q-0.55 -6.95 -1.25 -6.95Q-2 -6.95 -2.5 -7.45Q-3.05 -8 -3.05 -8.75Q-3.05 -9.45 -2.5 -10Q-2 -10.5 -1.25 -10.5Q-0.55 -10.5 0 -10Q0.5 -9.45 0.5 -8.75" />
</g>
</svg>
