<?xml version="1.0" encoding="utf-8"?>
<svg version="1.1" id="Layer_1"
xmlns="http://www.w3.org/2000/svg"
xmlns:xlink="http://www.w3.org/1999/xlink"
xmlns:author="http://www.sothink.com"
width="18px" height="18px"
xml:space="preserve">
<g id="1752" transform="matrix(1, 0, 0, 1, 8.85, 8.9)">
<path style="fill:#FFFFFF;fill-opacity:1" d="M3.35,-5.7L-2.45 -5.7L-3.65 0.4L-1.8 0.4L-1.1 -0.4L0 -0.6L0.95 -0.4L1.6 0.1L2 0.85L2.1 1.75L2 2.7L1.65 3.5L1 4L0.05 4.2Q-0.9 4.2 -1.4 3.7Q-1.9 3.25 -2 2.3L-3.85 2.3L-3.5 3.8L-2.65 4.85L-1.45 5.5L0.05 5.7L1.85 5.35L3.05 4.4L3.75 3.1L3.95 1.7L3.7 0.2L3.05 -1L1.95 -1.75L0.45 -2.05L-0.7 -1.8Q-1.25 -1.65 -1.6 -1.2L-1.65 -1.2L-1.1 -4.05L3.35 -4.05L3.35 -5.7M8.9,0Q8.9 3.7 6.3 6.3Q3.7 8.9 0.05 8.9Q-3.6 8.9 -6.25 6.3Q-8.85 3.7 -8.85 0Q-8.85 -3.65 -6.25 -6.3Q-3.6 -8.9 0.05 -8.9Q3.7 -8.9 6.3 -6.3Q8.9 -3.7 8.9 0" />
</g>
</svg>
