<?xml version="1.0" encoding="utf-8"?>
<svg version="1.1" id="Layer_1"
xmlns="http://www.w3.org/2000/svg"
xmlns:xlink="http://www.w3.org/1999/xlink"
xmlns:author="http://www.sothink.com"
width="30px" height="29px"
xml:space="preserve">
<g id="1839" transform="matrix(1, 0, 0, 1, 14.55, 14.3)">
<path style="fill:#FFFFFF;fill-opacity:1" d="M-4.35,-8.15Q-5.6 -8.15 -6.55 -7.5L-7.2 -6.95Q-8.4 -5.75 -8.4 -4.1L-10.35 -4.1Q-10.35 -6.5 -8.6 -8.35Q-6.75 -10.1 -4.35 -10.1L-4.35 -8.15" />
<path style="fill:#000000;fill-opacity:1" d="M-11.1,-3.4L-11.35 -4.1Q-11.35 -7 -9.3 -9.05Q-7.25 -11.1 -4.35 -11.1L-3.65 -10.8Q-3.35 -10.55 -3.35 -10.1L-3.35 -8.15Q-3.35 -7.75 -3.65 -7.45Q-3.95 -7.15 -4.35 -7.15Q-5.3 -7.15 -6 -6.65L-6.5 -6.25Q-7.4 -5.35 -7.4 -4.1Q-7.4 -3.7 -7.7 -3.4Q-8 -3.1 -8.4 -3.1L-10.35 -3.1Q-10.8 -3.1 -11.1 -3.4M-4.35,-10.1Q-6.75 -10.1 -8.6 -8.35Q-10.35 -6.5 -10.35 -4.1L-8.4 -4.1Q-8.4 -5.75 -7.2 -6.95L-6.55 -7.5Q-5.6 -8.15 -4.35 -8.15L-4.35 -10.1" />
<path style="fill:#FFFFFF;fill-opacity:1" d="M-13.55,-4.55Q-13.55 -8.15 -11 -10.7Q-8.4 -13.3 -4.8 -13.3L-4.8 -11.35Q-7.5 -11.35 -9.6 -9.35Q-11.6 -7.35 -11.6 -4.55L-13.55 -4.55" />
<path style="fill:#000000;fill-opacity:1" d="M-13.55,-3.55Q-14 -3.55 -14.3 -3.85L-14.55 -4.55Q-14.55 -8.5 -11.7 -11.45Q-8.75 -14.3 -4.8 -14.3L-4.1 -14Q-3.8 -13.75 -3.8 -13.3L-3.8 -11.35Q-3.8 -10.95 -4.1 -10.65Q-4.4 -10.35 -4.8 -10.35Q-7.2 -10.35 -8.9 -8.65Q-10.6 -6.95 -10.6 -4.55Q-10.6 -4.15 -10.9 -3.85Q-11.2 -3.55 -11.6 -3.55L-13.55 -3.55M-11.6,-4.55Q-11.6 -7.35 -9.6 -9.35Q-7.5 -11.35 -4.8 -11.35L-4.8 -13.3Q-8.4 -13.3 -11 -10.7Q-13.55 -8.15 -13.55 -4.55L-11.6 -4.55" />
<path style="fill:#FFFFFF;fill-opacity:1" d="M-3.15,-6.6Q-2.1 -6.5 -1.45 -5.8L-1.4 -5.75L1.35 -8.55L12.4 2.5Q13.55 3.65 13.55 5.25Q13.55 6.9 12.4 8L8.25 12.15Q7.15 13.3 5.5 13.3Q3.9 13.3 2.75 12.15L-8.3 1.1L-5.55 -1.65Q-6.3 -2.4 -6.4 -3.55Q-6.5 -4.85 -5.55 -5.8L-5.5 -5.85Q-4.55 -6.75 -3.3 -6.65L-3.15 -6.6M0.65,-1.2Q1.8 -0.8 2.75 -1.65Q3.3 -2.2 3.3 -3Q3.3 -3.85 2.75 -4.4Q2.05 -5.05 1.2 -4.95Q0.4 -4.85 0 -4.4L-0.05 -4.4Q-0.6 -3.85 -0.6 -3Q-0.6 -2.2 -0.05 -1.65L0.65 -1.2M-4.15,-0.25Q-4.65 0.25 -4.75 1Q-4.75 1.95 -4.15 2.5Q-3.6 3.05 -2.75 3.05Q-1.95 3.05 -1.4 2.5Q-0.55 1.65 -0.95 0.45Q-1.1 0.05 -1.4 -0.25Q-1.95 -0.8 -2.75 -0.8Q-3.6 -0.8 -4.15 -0.25M-0.95,4.95Q-0.95 5.75 -0.35 6.3Q0.2 6.85 1 6.85Q1.8 6.85 2.4 6.3Q2.95 5.75 2.95 4.95Q2.95 4.1 2.4 3.55Q1.8 3 1 3Q0.2 3 -0.35 3.55Q-0.95 4.1 -0.95 4.95M6.5,-0.6Q5.95 -1.15 5.15 -1.15Q4.35 -1.15 3.75 -0.6Q3.2 -0.05 3.2 0.8Q3.2 1.6 3.75 2.15Q4.35 2.7 5.15 2.7Q5.95 2.7 6.55 2.15Q7.1 1.6 7.1 0.8Q7.1 -0.05 6.55 -0.6L6.5 -0.6M8.95,2.65Q8.1 2.65 7.55 3.2Q7 3.75 7 4.6Q7 5.4 7.55 5.95Q8.1 6.5 8.95 6.5Q9.75 6.5 10.3 5.95Q10.9 5.4 10.9 4.6Q10.9 3.75 10.35 3.2L10.3 3.2Q9.75 2.65 8.95 2.65M6.2,7.35Q5.6 6.75 4.8 6.75Q4 6.75 3.4 7.35Q2.85 7.9 2.85 8.75Q2.85 9.55 3.4 10.1L3.45 10.1Q4 10.65 4.8 10.65Q5.6 10.65 6.2 10.1Q6.75 9.55 6.75 8.75Q6.75 7.9 6.2 7.35" />
<path style="fill:#000000;fill-opacity:1" d="M2.05,-9.25L13.1 1.8Q14.55 3.25 14.55 5.25Q14.55 7.3 13.1 8.75L8.95 12.85Q7.6 14.3 5.5 14.3Q3.45 14.3 2 12.85L-9 1.85L-9.3 1.15L-9 0.4L-6.85 -1.7Q-7.3 -2.45 -7.4 -3.45Q-7.55 -5.2 -6.25 -6.5L-6.15 -6.6Q-5 -7.65 -3.5 -7.65L-3.25 -7.65L-3.05 -7.6Q-2.25 -7.55 -1.5 -7.1L0.65 -9.25Q0.95 -9.55 1.35 -9.55L2.05 -9.25M-3.5,-6.65Q-4.65 -6.65 -5.5 -5.85L-5.55 -5.8Q-6.5 -4.85 -6.4 -3.55Q-6.3 -2.4 -5.55 -1.65L-8.3 1.1L2.75 12.15Q3.9 13.3 5.5 13.3Q7.1 13.3 8.25 12.15L12.4 8Q13.55 6.9 13.55 5.25Q13.55 3.65 12.4 2.5L1.35 -8.55L-1.4 -5.75L-1.45 -5.8Q-2.1 -6.5 -3.15 -6.6L-3.3 -6.65L-3.5 -6.65M0,-4.4Q0.4 -4.85 1.2 -4.95L1.35 -4.95Q2.2 -4.95 2.75 -4.4Q3.3 -3.85 3.3 -3Q3.3 -2.2 2.75 -1.65Q2.15 -1.05 1.35 -1.05L0.65 -1.2L-0.05 -1.65Q-0.6 -2.2 -0.6 -3Q-0.6 -3.85 -0.05 -4.4L0 -4.4M-2.8,-0.85Q-2 -0.85 -1.4 -0.25Q-1.1 0.05 -0.95 0.45Q-0.55 1.65 -1.4 2.5Q-2 3.1 -2.8 3.1Q-3.6 3.1 -4.15 2.5Q-4.75 1.95 -4.75 1Q-4.65 0.25 -4.15 -0.25Q-3.6 -0.85 -2.8 -0.85M0.7,-2.35L1 -2.15L1.35 -2.05Q1.8 -2.05 2 -2.35L2.3 -3L2.05 -3.7L2 -3.7L1.35 -3.95L1.3 -3.95Q0.95 -3.95 0.7 -3.7Q0.4 -3.4 0.4 -3Q0.4 -2.6 0.7 -2.35M-2.8,0.15Q-3.2 0.15 -3.45 0.45L-3.75 1.05L-3.45 1.8L-2.8 2.1Q-2.4 2.1 -2.1 1.8Q-1.65 1.35 -1.9 0.8L-2.1 0.45Q-2.4 0.15 -2.8 0.15M-0.35,3.55Q0.2 2.95 1 2.95Q1.8 2.95 2.4 3.55Q2.95 4.1 2.95 4.95Q2.95 5.75 2.4 6.3Q1.85 6.85 1 6.85Q0.15 6.85 -0.35 6.3Q-0.95 5.75 -0.95 4.95Q-0.95 4.1 -0.35 3.55M0.05,4.9Q0.05 5.3 0.35 5.6L1 5.85L1.7 5.6L1.95 4.9L1.7 4.25Q1.4 3.95 1 3.95Q0.6 3.95 0.35 4.25Q0.05 4.5 0.05 4.9M6.55,-0.6Q7.1 -0.05 7.1 0.8Q7.1 1.6 6.55 2.15Q5.95 2.75 5.15 2.75Q4.35 2.75 3.75 2.15Q3.2 1.6 3.2 0.8Q3.2 -0.05 3.75 -0.6Q4.3 -1.15 5.15 -1.15Q6 -1.15 6.5 -0.6L6.55 -0.6M5.15,1.75L5.8 1.45L6.1 0.8L5.8 0.1L5.15 -0.15L4.45 0.1L4.2 0.8L4.45 1.45Q4.75 1.75 5.15 1.75M7,4.6Q7 3.75 7.55 3.2Q8.15 2.6 8.95 2.6Q9.8 2.6 10.3 3.2L10.35 3.2Q10.9 3.75 10.9 4.6Q10.9 5.4 10.3 5.95Q9.8 6.55 8.95 6.55Q8.15 6.55 7.55 5.95Q7 5.4 7 4.6M8,4.6L8.25 5.25Q8.55 5.55 8.95 5.55L9.6 5.25L9.9 4.6L9.6 3.9Q9.4 3.6 8.95 3.6Q8.55 3.6 8.25 3.9L8 4.6M6.75,8.75Q6.75 9.55 6.2 10.1Q5.65 10.65 4.8 10.65Q3.95 10.65 3.45 10.1L3.4 10.1Q2.85 9.55 2.85 8.75Q2.85 7.9 3.4 7.35Q4 6.75 4.8 6.75Q5.6 6.75 6.2 7.35Q6.75 7.9 6.75 8.75M5.5,8.05Q5.2 7.75 4.8 7.75Q4.4 7.75 4.15 8.05Q3.85 8.3 3.85 8.7Q3.85 9.1 4.1 9.4L4.15 9.4L4.8 9.65L5.45 9.4L5.75 8.7L5.5 8.05" />
<path style="fill:#000000;fill-opacity:1" d="M10.3,3.2L10.35 3.2Q10.9 3.75 10.9 4.6Q10.9 5.4 10.3 5.95Q9.75 6.5 8.95 6.5Q8.1 6.5 7.55 5.95Q7 5.4 7 4.6Q7 3.75 7.55 3.2Q8.1 2.65 8.95 2.65Q9.75 2.65 10.3 3.2" />
<path style="fill:#000000;fill-opacity:1" d="M6.55,-0.6Q7.1 -0.05 7.1 0.8Q7.1 1.6 6.55 2.15Q5.95 2.7 5.15 2.7Q4.35 2.7 3.75 2.15Q3.2 1.6 3.2 0.8Q3.2 -0.05 3.75 -0.6Q4.35 -1.15 5.15 -1.15Q5.95 -1.15 6.5 -0.6L6.55 -0.6" />
<path style="fill:#000000;fill-opacity:1" d="M-0.05,-4.4L0 -4.4Q0.4 -4.85 1.2 -4.95Q2.05 -5.05 2.75 -4.4Q3.3 -3.85 3.3 -3Q3.3 -2.2 2.75 -1.65Q1.8 -0.8 0.65 -1.2L-0.05 -1.65Q-0.6 -2.2 -0.6 -3Q-0.6 -3.85 -0.05 -4.4" />
<path style="fill:#000000;fill-opacity:1" d="M-4.75,1Q-4.65 0.25 -4.15 -0.25Q-3.6 -0.8 -2.75 -0.8Q-1.95 -0.8 -1.4 -0.25Q-1.1 0.05 -0.95 0.45Q-0.55 1.65 -1.4 2.5Q-1.95 3.05 -2.75 3.05Q-3.6 3.05 -4.15 2.5Q-4.75 1.95 -4.75 1" />
<path style="fill:#000000;fill-opacity:1" d="M-0.35,3.55Q0.2 3 1 3Q1.8 3 2.4 3.55Q2.95 4.1 2.95 4.95Q2.95 5.75 2.4 6.3Q1.8 6.85 1 6.85Q0.2 6.85 -0.35 6.3Q-0.95 5.75 -0.95 4.95Q-0.95 4.1 -0.35 3.55" />
<path style="fill:#000000;fill-opacity:1" d="M6.75,8.75Q6.75 9.55 6.2 10.1Q5.6 10.65 4.8 10.65Q4 10.65 3.45 10.1L3.4 10.1Q2.85 9.55 2.85 8.75Q2.85 7.9 3.4 7.35Q4 6.75 4.8 6.75Q5.6 6.75 6.2 7.35Q6.75 7.9 6.75 8.75" />
</g>
</svg>
