<?xml version="1.0" encoding="utf-8"?>
<svg version="1.1" id="Layer_1"
xmlns="http://www.w3.org/2000/svg"
xmlns:xlink="http://www.w3.org/1999/xlink"
xmlns:author="http://www.sothink.com"
width="29px" height="29px"
xml:space="preserve">
<g id="1770" transform="matrix(1, 0, 0, 1, 14.45, 14.2)">
<path style="fill:#000000;fill-opacity:1" d="M12.35,-0.6Q12.7 -0.25 12.35 0.05L0.3 12.15L0.25 12.15L0.05 12.2L-0.1 12.15L-0.2 12.15L-0.2 12.1L-0.25 12.1L-12.25 0.05Q-12.6 -0.3 -12.25 -0.65L-12.1 -0.7L-12.1 -1.1Q-11.7 -5.8 -8.2 -8.95Q-4.7 -12.2 0.05 -12.2Q4.5 -12.2 7.85 -9.4Q11.15 -6.65 12 -2.4L12.05 -2.35L12.2 -0.7L12.35 -0.6" />
<path style="fill:none;stroke-width:4;stroke-linecap:round;stroke-linejoin:round;stroke-miterlimit:3;stroke:#000000;stroke-opacity:1" d="M12.2,-0.7L12.05 -2.35L12 -2.4Q11.15 -6.65 7.85 -9.4Q4.5 -12.2 0.05 -12.2Q-4.7 -12.2 -8.2 -8.95Q-11.7 -5.8 -12.1 -1.1L-12.1 -0.7L-12.25 -0.65Q-12.6 -0.3 -12.25 0.05L-0.25 12.1L-0.2 12.1L-0.2 12.15L-0.1 12.15L0.05 12.2L0.25 12.15L0.3 12.15L12.35 0.05Q12.7 -0.25 12.35 -0.6L12.2 -0.7z" />
<path style="fill:#F5F5F5;fill-opacity:1" d="M7.85,-9.4Q11.15 -6.65 12 -2.4L12.05 -2.35L12.2 -0.7L12.35 -0.6Q12.7 -0.25 12.35 0.05L0.3 12.15L0.25 12.15L0.05 12.2L-0.1 12.15L-0.2 12.15L-0.2 12.1L-0.25 12.1L-12.25 0.05Q-12.6 -0.3 -12.25 -0.65L-12.1 -0.7L-12.1 -1.1Q-11.7 -5.8 -8.2 -8.95Q-4.7 -12.2 0.05 -12.2Q4.5 -12.2 7.85 -9.4M6.8,-0.75L5.9 1.05L5.75 1.3L1.75 9.35L11.7 -0.6L9.15 -3.1L6.8 -0.75M0.55,-0.6L0.55 9.7L5.65 -0.55L3.05 -3.1L0.55 -0.6M-3,-3.1L-5.6 -0.5L-0.4 9.75L-0.4 -0.55L-3 -3.1M-11.6,-0.65L-1.7 9.3L-6.85 -0.85L-9.1 -3.1L-11.6 -0.65" />
</g>
</svg>
