<?xml version="1.0" encoding="utf-8"?>
<svg version="1.1" id="Layer_1"
xmlns="http://www.w3.org/2000/svg"
xmlns:xlink="http://www.w3.org/1999/xlink"
xmlns:author="http://www.sothink.com"
width="27px" height="22px"
xml:space="preserve">
<g id="1852" transform="matrix(1, 0, 0, 1, 13.45, 10.5)">
<path style="fill:#000000;fill-opacity:1" d="M8.9,4L-8.9 4L-8.9 -3.95L8.9 -3.95L8.9 4" />
<path style="fill:#000000;fill-opacity:1" d="M11.4,2.25L-11.35 2.25L-11.35 -2.25L11.4 -2.25L11.4 2.25" />
<path style="fill:#FFFFFF;fill-opacity:1" d="M-7.65,1.7Q-7.65 2.4 -8 2.85Q-8.35 3.35 -8.85 3.35Q-9.35 3.35 -9.65 2.85Q-10 2.4 -10 1.7Q-10 1 -9.65 0.55Q-9.35 0.05 -8.85 0.05Q-8.35 0.05 -8 0.55Q-7.65 1.05 -7.65 1.7" />
<path style="fill:none;stroke-width:2.9;stroke-linecap:butt;stroke-linejoin:round;stroke-miterlimit:3;stroke:#000000;stroke-opacity:1" d="M-7.65,1.7Q-7.65 2.4 -8 2.85Q-8.35 3.35 -8.85 3.35Q-9.35 3.35 -9.65 2.85Q-10 2.4 -10 1.7Q-10 1 -9.65 0.55Q-9.35 0.05 -8.85 0.05Q-8.35 0.05 -8 0.55Q-7.65 1.05 -7.65 1.7z" />
<path style="fill:#FFFFFF;fill-opacity:1" d="M10.1,1.95L9.8 3Q9.45 3.45 9 3.45Q8.5 3.45 8.2 3Q7.9 2.6 7.9 1.95Q7.9 1.35 8.2 0.95Q8.5 0.5 9 0.5Q9.45 0.5 9.8 0.95L10.1 1.95" />
<path style="fill:none;stroke-width:3.05;stroke-linecap:butt;stroke-linejoin:round;stroke-miterlimit:3;stroke:#000000;stroke-opacity:1" d="M10.1,1.95L9.8 3Q9.45 3.45 9 3.45Q8.5 3.45 8.2 3Q7.9 2.6 7.9 1.95Q7.9 1.35 8.2 0.95Q8.5 0.5 9 0.5Q9.45 0.5 9.8 0.95L10.1 1.95z" />
<path style="fill:#FFFFFF;fill-opacity:1" d="M9.1,-9Q9.6 -8.5 9.6 -7.8L10.55 -1.1L10.75 -1.1Q11.45 -1.1 11.95 -0.6Q12.45 -0.1 12.45 0.6L12.45 3Q12.45 3.65 12 4.15Q11.6 4.65 10.95 4.7L10.95 7.85Q10.95 8.55 10.45 9.05Q9.95 9.55 9.25 9.55L8.6 9.55Q7.9 9.55 7.4 9.05Q6.9 8.55 6.9 7.85L6.9 4.7L-6.85 4.7L-6.85 7.85Q-6.85 8.55 -7.35 9.05Q-7.85 9.55 -8.55 9.55L-9.2 9.55Q-9.9 9.55 -10.45 9.05Q-10.95 8.55 -10.95 7.85L-10.95 4.7Q-11.55 4.65 -12 4.15Q-12.45 3.65 -12.45 3L-12.45 0.6Q-12.45 -0.1 -11.95 -0.6L-10.7 -1.1L-10.5 -1.1L-9.55 -7.8Q-9.55 -8.5 -9.05 -9Q-8.55 -9.5 -7.85 -9.5L7.9 -9.5Q8.6 -9.5 9.1 -9M7.6,-7.65L7 -7.9L-7 -7.9L-7.55 -7.65L-7.8 -7.05L-8.55 -2.6L8.55 -2.6L7.85 -7.05L7.6 -7.65M7.4,0.35Q6.75 0.95 6.75 1.85Q6.75 2.75 7.4 3.4Q8 4 8.9 4Q9.8 4 10.45 3.4Q11.05 2.75 11.05 1.85Q11.05 0.95 10.45 0.35Q9.8 -0.3 8.9 -0.3Q8 -0.3 7.4 0.35M-10.35,0.35Q-11 0.95 -11 1.85Q-11 2.75 -10.35 3.4Q-9.75 4 -8.85 4Q-8 4 -7.35 3.4Q-6.7 2.75 -6.7 1.85Q-6.7 0.95 -7.35 0.35Q-8 -0.3 -8.85 -0.3Q-9.75 -0.3 -10.35 0.35" />
<path style="fill:none;stroke-width:1;stroke-linecap:butt;stroke-linejoin:round;stroke-miterlimit:3;stroke:#000000;stroke-opacity:1" d="M7.9,-9.5L-7.85 -9.5Q-8.55 -9.5 -9.05 -9Q-9.55 -8.5 -9.55 -7.8L-10.5 -1.1L-10.7 -1.1L-11.95 -0.6Q-12.45 -0.1 -12.45 0.6L-12.45 3Q-12.45 3.65 -12 4.15Q-11.55 4.65 -10.95 4.7L-10.95 7.85Q-10.95 8.55 -10.45 9.05Q-9.9 9.55 -9.2 9.55L-8.55 9.55Q-7.85 9.55 -7.35 9.05Q-6.85 8.55 -6.85 7.85L-6.85 4.7L6.9 4.7L6.9 7.85Q6.9 8.55 7.4 9.05Q7.9 9.55 8.6 9.55L9.25 9.55Q9.95 9.55 10.45 9.05Q10.95 8.55 10.95 7.85L10.95 4.7Q11.6 4.65 12 4.15Q12.45 3.65 12.45 3L12.45 0.6Q12.45 -0.1 11.95 -0.6Q11.45 -1.1 10.75 -1.1L10.55 -1.1L9.6 -7.8Q9.6 -8.5 9.1 -9Q8.6 -9.5 7.9 -9.5M7.85,-7.05L8.55 -2.6L-8.55 -2.6L-7.8 -7.05L-7.55 -7.65L-7 -7.9L7 -7.9L7.6 -7.65L7.85 -7.05M8.9,-0.3Q9.8 -0.3 10.45 0.35Q11.05 0.95 11.05 1.85Q11.05 2.75 10.45 3.4Q9.8 4 8.9 4Q8 4 7.4 3.4Q6.75 2.75 6.75 1.85Q6.75 0.95 7.4 0.35Q8 -0.3 8.9 -0.3M-8.85,-0.3Q-8 -0.3 -7.35 0.35Q-6.7 0.95 -6.7 1.85Q-6.7 2.75 -7.35 3.4Q-8 4 -8.85 4Q-9.75 4 -10.35 3.4Q-11 2.75 -11 1.85Q-11 0.95 -10.35 0.35Q-9.75 -0.3 -8.85 -0.3" />
<path style="fill:#FFFFFF;fill-opacity:1" d="M9.1,-9Q9.6 -8.5 9.6 -7.8L10.55 -1.1L10.75 -1.1Q11.45 -1.1 11.95 -0.6Q12.45 -0.1 12.45 0.6L12.45 3Q12.45 3.65 12 4.15Q11.6 4.65 10.95 4.7L10.95 7.85Q10.95 8.55 10.45 9.05Q9.95 9.55 9.25 9.55L8.6 9.55Q7.9 9.55 7.4 9.05Q6.9 8.55 6.9 7.85L6.9 4.7L-6.85 4.7L-6.85 7.85Q-6.85 8.55 -7.35 9.05Q-7.85 9.55 -8.55 9.55L-9.2 9.55Q-9.9 9.55 -10.45 9.05Q-10.95 8.55 -10.95 7.85L-10.95 4.7Q-11.55 4.65 -12 4.15Q-12.45 3.65 -12.45 3L-12.45 0.6Q-12.45 -0.1 -11.95 -0.6L-10.7 -1.1L-10.5 -1.1L-9.55 -7.8Q-9.55 -8.5 -9.05 -9Q-8.55 -9.5 -7.85 -9.5L7.9 -9.5Q8.6 -9.5 9.1 -9M7.6,-7.65L7 -7.9L-7 -7.9L-7.55 -7.65L-7.8 -7.05L-8.55 -2.6L8.55 -2.6L7.85 -7.05L7.6 -7.65M7.4,0.35Q6.75 0.95 6.75 1.85Q6.75 2.75 7.4 3.4Q8 4 8.9 4Q9.8 4 10.45 3.4Q11.05 2.75 11.05 1.85Q11.05 0.95 10.45 0.35Q9.8 -0.3 8.9 -0.3Q8 -0.3 7.4 0.35M-10.35,0.35Q-11 0.95 -11 1.85Q-11 2.75 -10.35 3.4Q-9.75 4 -8.85 4Q-8 4 -7.35 3.4Q-6.7 2.75 -6.7 1.85Q-6.7 0.95 -7.35 0.35Q-8 -0.3 -8.85 -0.3Q-9.75 -0.3 -10.35 0.35" />
<path style="fill:#000000;fill-opacity:1" d="M7.85,-7.05L8.55 -2.6L-8.55 -2.6L-7.8 -7.05L-7.55 -7.65L-7 -7.9L7 -7.9L7.6 -7.65L7.85 -7.05M7.9,-9.5L-7.85 -9.5Q-8.55 -9.5 -9.05 -9Q-9.55 -8.5 -9.55 -7.8L-10.5 -1.1L-10.7 -1.1L-11.95 -0.6Q-12.45 -0.1 -12.45 0.6L-12.45 3Q-12.45 3.65 -12 4.15Q-11.55 4.65 -10.95 4.7L-10.95 7.85Q-10.95 8.55 -10.45 9.05Q-9.9 9.55 -9.2 9.55L-8.55 9.55Q-7.85 9.55 -7.35 9.05Q-6.85 8.55 -6.85 7.85L-6.85 4.7L6.9 4.7L6.9 7.85Q6.9 8.55 7.4 9.05Q7.9 9.55 8.6 9.55L9.25 9.55Q9.95 9.55 10.45 9.05Q10.95 8.55 10.95 7.85L10.95 4.7Q11.6 4.65 12 4.15Q12.45 3.65 12.45 3L12.45 0.6Q12.45 -0.1 11.95 -0.6Q11.45 -1.1 10.75 -1.1L10.55 -1.1L9.6 -7.8Q9.6 -8.5 9.1 -9Q8.6 -9.5 7.9 -9.5M10.6,-7.85L11.45 -2.05L12.9 -1.1Q13.45 -0.35 13.45 0.6L13.45 3Q13.45 4.65 11.95 5.4L11.95 7.85Q11.95 9 11.15 9.75Q10.4 10.55 9.25 10.55L8.6 10.55Q7.5 10.55 6.7 9.75Q5.9 9 5.9 7.85L5.9 5.7L-5.85 5.7L-5.85 7.85Q-5.85 9 -6.65 9.75Q-7.4 10.55 -8.55 10.55L-9.2 10.55Q-10.35 10.55 -11.15 9.75Q-11.95 8.95 -11.95 7.85L-11.95 5.4Q-13.45 4.6 -13.45 3L-13.45 0.6Q-13.45 -0.3 -12.85 -1.1Q-12.25 -1.8 -11.4 -2.05L-10.55 -7.85Q-10.55 -8.95 -9.75 -9.7Q-8.95 -10.5 -7.85 -10.5L7.9 -10.5Q9 -10.5 9.8 -9.7Q10.55 -8.95 10.6 -7.85M8.9,-0.3Q9.8 -0.3 10.45 0.35Q11.05 0.95 11.05 1.85Q11.05 2.75 10.45 3.4Q9.8 4 8.9 4Q8 4 7.4 3.4Q6.75 2.75 6.75 1.85Q6.75 0.95 7.4 0.35Q8 -0.3 8.9 -0.3M9.7,1.05Q9.4 0.7 8.9 0.7Q8.4 0.7 8.1 1.05Q7.75 1.35 7.75 1.85Q7.75 2.35 8.1 2.65Q8.4 3 8.9 3Q9.4 3 9.7 2.65Q10.05 2.35 10.05 1.85Q10.05 1.35 9.7 1.05M6.85,-6.9L-6.8 -6.9L-7.35 -3.6L7.4 -3.6L6.85 -6.9M-9.65,1.05Q-10 1.35 -10 1.85Q-10 2.35 -9.65 2.65Q-9.35 3 -8.85 3Q-8.4 3 -8.05 2.65Q-7.7 2.35 -7.7 1.85Q-7.7 1.35 -8.05 1.05Q-8.4 0.7 -8.85 0.7Q-9.35 0.7 -9.65 1.05M-8.85,-0.3Q-8 -0.3 -7.35 0.35Q-6.7 0.95 -6.7 1.85Q-6.7 2.75 -7.35 3.4Q-8 4 -8.85 4Q-9.75 4 -10.35 3.4Q-11 2.75 -11 1.85Q-11 0.95 -10.35 0.35Q-9.75 -0.3 -8.85 -0.3" />
</g>
</svg>
