<?xml version="1.0" encoding="utf-8"?>
<svg version="1.1" id="Layer_1"
xmlns="http://www.w3.org/2000/svg"
xmlns:xlink="http://www.w3.org/1999/xlink"
xmlns:author="http://www.sothink.com"
width="13px" height="16px"
xml:space="preserve">
<g id="1828" transform="matrix(1, 0, 0, 1, 6.45, 7.5)">
<path style="fill:#FFFFFF;fill-opacity:1" d="M6.35,-2.8L6.45 -0.95L6.35 2.05Q6.1 3.45 5.15 4.4L4.15 5.2L3.75 5.3L3.6 5.2L3.3 4.95L3.2 5.1L2.95 6.35Q2.3 7.5 0.5 7.5L0 7.55L-0.5 7.5Q-1.6 7.5 -2.4 6.95L-2.95 6.35L-3.2 5.1L-3.3 4.95L-3.6 5.2Q-3.85 5.4 -4.15 5.2L-5.05 4.55L-6.05 2.95L-6.35 2.05L-6.45 -0.9L-6.35 -2.8L-6.35 -2.9Q-5.75 -5.9 -2.85 -7L-0.05 -7.5L0.05 -7.5L2.85 -7Q5.75 -5.9 6.35 -2.9L6.35 -2.8M4.55,0.65Q3.25 -0.8 2.15 -0.7L1.45 -0.3Q0.75 0.15 0.8 0.65L0.85 0.95L1.05 1.55L1.6 2.3L2.4 3.15L3.05 3.3L3.95 3.15L4.45 2.55Q4.85 1.75 4.55 0.65M-2.25,-0.75Q-2.95 -0.8 -3.85 -0.1L-4.65 0.65Q-5 1.75 -4.55 2.55L-4.05 3.15Q-3.7 3.6 -2.45 3.15L-1.1 1.55L-0.85 0.65Q-0.8 0.1 -1.55 -0.35L-2.25 -0.75M0.55,2.55L0.05 2.45L-0.4 2.55Q-0.9 2.75 -0.9 3.1L-0.9 4.25Q-0.8 5.05 -0.3 5.1L0.4 5.1Q0.9 5.05 1 4.25L1 3.1Q1 2.7 0.55 2.55" />
</g>
</svg>
