<?xml version="1.0" encoding="utf-8"?>
<svg version="1.1" id="Layer_1"
xmlns="http://www.w3.org/2000/svg"
xmlns:xlink="http://www.w3.org/1999/xlink"
xmlns:author="http://www.sothink.com"
width="18px" height="18px"
xml:space="preserve">
<g id="1758" transform="matrix(1, 0, 0, 1, 8.85, 8.85)">
<path style="fill:#FFFFFF;fill-opacity:1" d="M3.65,-3.85L3.05 -4.95L1.95 -5.8L0.25 -6.1L-1.4 -5.8L-2.55 -4.9L-3.3 -3.55L-3.55 -1.85L-1.75 -1.85L-1.65 -2.95L-1.3 -3.8L-0.75 -4.4L0.15 -4.6L1.1 -4.4L1.65 -3.95L1.95 -3.3L2 -2.65L1.7 -1.5L0.85 -0.6L-0.2 0.2L-1.3 0.95Q-2.4 1.7 -3.1 2.75Q-3.75 3.9 -3.75 5.15L3.8 5.15L3.8 3.55L-1.6 3.55L-1.2 2.85L-0.5 2.25L2.25 0.3L3.05 -0.55L3.6 -1.55L3.8 -2.7L3.65 -3.85M8.9,0.05Q8.9 3.75 6.3 6.3Q3.75 8.9 0.05 8.9Q-3.65 8.9 -6.25 6.3Q-8.85 3.7 -8.85 0.05Q-8.85 -3.6 -6.25 -6.25Q-3.6 -8.85 0.05 -8.85Q3.7 -8.85 6.3 -6.25Q8.9 -3.65 8.9 0.05" />
</g>
</svg>
