<?xml version="1.0" encoding="utf-8"?>
<svg version="1.1" id="Layer_1"
xmlns="http://www.w3.org/2000/svg"
xmlns:xlink="http://www.w3.org/1999/xlink"
xmlns:author="http://www.sothink.com"
width="16px" height="19px"
xml:space="preserve">
<g id="1743" transform="matrix(1, 0, 0, 1, 7.9, 9.05)">
<path style="fill:#000000;fill-opacity:1" d="M6.9,1.5L-6.9 1.5L-6.9 -8.05L6.9 -8.05L6.9 1.5" />
<path style="fill:#000000;fill-opacity:1" d="M7.6,-8.75L7.9 -8.05L7.9 1.5L7.6 2.2Q7.3 2.5 6.9 2.5L-6.9 2.5Q-7.3 2.5 -7.6 2.2L-7.9 1.5L-7.9 -8.05L-7.6 -8.75Q-7.3 -9.05 -6.9 -9.05L6.9 -9.05Q7.3 -9.05 7.6 -8.75M6.9,-8.05L-6.9 -8.05L-6.9 1.5L6.9 1.5L6.9 -8.05" />
<path style="fill:#FFFFFF;fill-opacity:1" d="M6.9,-4.85L3 -4.85L3 -8.05L6.9 -8.05L6.9 -4.85M3,1.5L3 -1.7L6.9 -1.7L6.9 1.5L3 1.5M3,-4.85L3 -1.7L-0.9 -1.7L-0.9 1.5L-4.8 1.5L-4.8 8.1L-6.9 8.1L-6.9 -8.05L-0.9 -8.05L-0.9 -4.85L3 -4.85M-0.9,-4.85L-4.8 -4.85L-4.8 -1.7L-0.9 -1.7L-0.9 -4.85" />
<path style="fill:#000000;fill-opacity:1" d="M7.9,-8.05L7.9 -4.85L7.6 -4.15Q7.3 -3.85 6.9 -3.85L4 -3.85L4 -2.7L6.9 -2.7Q7.3 -2.7 7.6 -2.4L7.9 -1.7L7.9 1.5L7.6 2.2Q7.3 2.5 6.9 2.5L3 2.5Q2.6 2.5 2.3 2.2Q2 1.9 2 1.5L2 -0.7L0.1 -0.7L0.1 1.5L-0.2 2.2Q-0.5 2.5 -0.9 2.5L-3.8 2.5L-3.8 8.1Q-3.8 8.5 -4.1 8.8L-4.8 9.1L-6.9 9.1Q-7.3 9.1 -7.6 8.8L-7.9 8.1L-7.9 -8.05L-7.6 -8.75Q-7.3 -9.05 -6.9 -9.05L-0.9 -9.05Q-0.5 -9.05 -0.2 -8.75L0.1 -8.05L0.1 -5.85L2 -5.85L2 -8.05Q2 -8.45 2.3 -8.75Q2.6 -9.05 3 -9.05L6.9 -9.05Q7.3 -9.05 7.6 -8.75L7.9 -8.05M3,-8.05L3 -4.85L-0.9 -4.85L-0.9 -8.05L-6.9 -8.05L-6.9 8.1L-4.8 8.1L-4.8 1.5L-0.9 1.5L-0.9 -1.7L3 -1.7L3 1.5L6.9 1.5L6.9 -1.7L3 -1.7L3 -4.85L6.9 -4.85L6.9 -8.05L3 -8.05M-0.9,-1.7L-4.8 -1.7L-4.8 -4.85L-0.9 -4.85L-0.9 -1.7M-3.8,-3.85L-3.8 -2.7L-1.9 -2.7L-1.9 -3.85L-3.8 -3.85" />
</g>
</svg>
