<?xml version="1.0" encoding="utf-8"?>
<svg version="1.1" id="Layer_1"
xmlns="http://www.w3.org/2000/svg"
xmlns:xlink="http://www.w3.org/1999/xlink"
xmlns:author="http://www.sothink.com"
width="21px" height="14px"
xml:space="preserve">
<g id="1738" transform="matrix(1, 0, 0, 1, 10, 6.1)">
<path style="fill:#FFFFFF;fill-opacity:1" d="M6.15,-4.7Q8.65 -3.35 10.15 -1L10.95 0.5L10.15 2.05Q8.65 4.35 6.15 5.7Q3.5 7.1 0.5 7.1Q-2.55 7.1 -5.15 5.7Q-7.7 4.35 -9.2 2.05L-10 0.5L-9.2 -1Q-7.7 -3.35 -5.15 -4.7Q-2.55 -6.1 0.5 -6.1Q3.55 -6.1 6.15 -4.7M0.5,-4.6Q-1.65 -4.6 -3.15 -3.1Q-4.65 -1.6 -4.65 0.5Q-4.65 2.65 -3.15 4.15Q-1.65 5.65 0.5 5.65Q2.6 5.65 4.1 4.15Q5.6 2.65 5.6 0.5Q5.6 -1.6 4.1 -3.1Q2.6 -4.6 0.5 -4.6" />
<path style="fill:#FFFFFF;fill-opacity:1" d="M2.2,-1.2Q2.9 -0.45 2.9 0.5Q2.9 1.5 2.2 2.2Q1.5 2.9 0.5 2.9Q-0.5 2.9 -1.25 2.2Q-1.95 1.5 -1.95 0.5Q-1.95 -0.5 -1.25 -1.2Q-0.5 -1.9 0.5 -1.9Q1.5 -1.9 2.2 -1.2" />
</g>
</svg>
