<?xml version="1.0" encoding="utf-8"?>
<svg version="1.1" id="Layer_1"
xmlns="http://www.w3.org/2000/svg"
xmlns:xlink="http://www.w3.org/1999/xlink"
xmlns:author="http://www.sothink.com"
width="22px" height="20px"
xml:space="preserve">
<g id="1766" transform="matrix(1, 0, 0, 1, 10.95, 9.95)">
<path style="fill:#FFFFFF;fill-opacity:1" d="M2.25,-7.15L-0.15 -1.95Q-0.75 -0.7 -0.5 0.85L-0.15 2.1Q0.25 3.2 1.1 4.05Q2.1 5.05 3.6 5.85Q4.55 6.3 4.75 7.3L4.8 8.25L3.95 9.95Q2.95 10 0.8 9.15L-3.5 7L-5.85 4.65L-6.75 5.7Q-9.8 4.5 -10.65 3.55L-10.95 2.8L-10.2 1.3L-7.8 -2.05L-7.15 -2.95L-6.35 -4.45Q-5.2 -6.55 -4.3 -9.95Q-0.7 -8.9 1.15 -7.95L2.25 -7.15" />
<path style="fill:#FFFFFF;fill-opacity:1" d="M10.95,1.05L9 -0.8L5.15 3.05L2.4 0.25L6.2 -3.55L4.25 -5.45L10.95 -5.5L10.95 1.05" />
</g>
</svg>
