<?xml version="1.0" encoding="utf-8"?>
<svg version="1.1" id="Layer_1"
xmlns="http://www.w3.org/2000/svg"
xmlns:xlink="http://www.w3.org/1999/xlink"
xmlns:author="http://www.sothink.com"
width="18px" height="18px"
xml:space="preserve">
<g id="1748" transform="matrix(1, 0, 0, 1, 8.85, 8.9)">
<path style="fill:#FFFFFF;fill-opacity:1" d="M3.85,-5.6L-3.8 -5.6L-3.8 -3.95L2 -3.95L0.4 -1.85L-0.95 0.45L-1.85 3L-2.35 5.6L-0.35 5.6L0.1 2.75L1 0.25Q1.55 -1.05 2.25 -2L3.85 -4.1L3.85 -5.6M8.9,0Q8.9 3.7 6.3 6.3Q3.7 8.9 0 8.9Q-3.65 8.9 -6.25 6.3Q-8.85 3.7 -8.85 0Q-8.85 -3.7 -6.25 -6.3Q-3.65 -8.9 0 -8.9Q3.7 -8.9 6.3 -6.3Q8.9 -3.65 8.9 0" />
</g>
</svg>
