<?xml version="1.0" encoding="utf-8"?>
<svg version="1.1" id="Layer_1"
xmlns="http://www.w3.org/2000/svg"
xmlns:xlink="http://www.w3.org/1999/xlink"
xmlns:author="http://www.sothink.com"
width="18px" height="8px"
xml:space="preserve">
<g id="1767" transform="matrix(1, 0, 0, 1, 8.55, 3.95)">
<path style="fill:#FFFFFF;fill-opacity:1" d="M8.6,-0.8L8.6 0.5Q8.6 1.1 8 1.1L6.95 1.1L6.95 3.3Q6.95 3.95 6.35 3.95L5.9 3.95Q5.3 3.95 5.3 3.3L5.3 1.1L4.25 1.1L4.25 3.3Q4.25 3.95 3.65 3.95L3.2 3.95Q2.55 3.95 2.55 3.3L2.55 1.1L-1.15 1.1Q-1.55 2.25 -2.5 2.95Q-3.5 3.65 -4.75 3.65Q-6.3 3.65 -7.45 2.55Q-8.55 1.45 -8.55 -0.15Q-8.55 -1.7 -7.45 -2.85Q-6.3 -3.95 -4.75 -3.95Q-3.5 -3.95 -2.5 -3.25Q-1.55 -2.55 -1.15 -1.4L8 -1.4Q8.6 -1.4 8.6 -0.8M-3.4,-1.5Q-3.95 -2.05 -4.75 -2.05Q-5.55 -2.05 -6.1 -1.5Q-6.65 -0.95 -6.65 -0.15Q-6.65 0.65 -6.1 1.2Q-5.55 1.75 -4.75 1.75Q-3.95 1.75 -3.4 1.2Q-2.85 0.65 -2.85 -0.15Q-2.85 -0.95 -3.4 -1.5" />
</g>
</svg>
