<?xml version="1.0" encoding="utf-8"?>
<svg version="1.1" id="Layer_1"
xmlns="http://www.w3.org/2000/svg"
xmlns:xlink="http://www.w3.org/1999/xlink"
xmlns:author="http://www.sothink.com"
width="18px" height="18px"
xml:space="preserve">
<g id="1754" transform="matrix(1, 0, 0, 1, 8.85, 8.85)">
<path style="fill:#FFFFFF;fill-opacity:1" d="M0.55,-3.4L0.55 1.55L-2.8 1.55L0.55 -3.4" />
<path style="fill:#FFFFFF;fill-opacity:1" d="M3.75,1.55L2.3 1.55L2.3 -5.55L0.55 -5.55L-4.25 1.15L-4.25 3L0.55 3L0.55 5.65L2.3 5.65L2.3 3L3.75 3L3.75 1.55M8.9,0.05Q8.9 3.75 6.3 6.3Q3.75 8.9 0.05 8.9Q-3.65 8.9 -6.25 6.3Q-8.85 3.7 -8.85 0.05Q-8.85 -3.6 -6.25 -6.25Q-3.6 -8.85 0.05 -8.85Q3.7 -8.85 6.3 -6.25Q8.9 -3.65 8.9 0.05" />
</g>
</svg>
