<?xml version="1.0" encoding="utf-8"?>
<svg version="1.1" id="Layer_1"
xmlns="http://www.w3.org/2000/svg"
xmlns:xlink="http://www.w3.org/1999/xlink"
xmlns:author="http://www.sothink.com"
width="18px" height="18px"
xml:space="preserve">
<g id="1760" transform="matrix(1, 0, 0, 1, 8.85, 8.65)">
<path style="fill:#FFFFFF;fill-opacity:1" d="M2.2,-2.2L0.4 -0.4L0.4 6.95L4 -0.35L2.2 -2.2M8.55,-1.65L8.7 -0.45L8.8 -0.4L8.8 0.1L8.65 0.2L0.3 8.6L0.3 8.65L0.2 8.65L0.15 8.7L-0.1 8.7L-0.15 8.65L-0.2 8.65L-8.6 0.15L-8.65 0.15L-8.75 0.05Q-8.95 -0.15 -8.75 -0.4L-8.65 -0.5L-8.6 -0.75Q-8.35 -4.1 -5.85 -6.35Q-3.35 -8.65 0.05 -8.65Q3.2 -8.65 5.6 -6.65Q8 -4.7 8.55 -1.7L8.55 -1.65M6.5,-2.2L4.8 -0.5L1.25 6.7L8.3 -0.4L6.5 -2.2M-8.25,-0.4L-7.85 -0.05L-1.2 6.65L-4.85 -0.6L-6.5 -2.2L-8.25 -0.4M-2.15,-2.2L-4 -0.35L-0.3 7L-0.3 -0.35L-2.15 -2.2" />
</g>
</svg>
