<?xml version="1.0" encoding="utf-8"?>
<svg version="1.1" id="Layer_1"
xmlns="http://www.w3.org/2000/svg"
xmlns:xlink="http://www.w3.org/1999/xlink"
xmlns:author="http://www.sothink.com"
width="30px" height="19px"
xml:space="preserve">
<g id="1838" transform="matrix(1, 0, 0, 1, 14.55, 9.5)">
<path style="fill:#FFFFFF;fill-opacity:1" d="M-10.85,-1.6L-11.9 -1.6L-11.9 -3.9L-11.05 -3.9L-11.05 -7.35L10.75 -7.35L10.75 -8.5L12.55 -8.5L12.55 -7.35L13.55 -7.35L13.55 -3.25L10.7 -3.25L10.7 -1.6L2.05 -1.6L0.65 2.95L-3.95 2.95L-5.45 8.5L-13.5 8.5L-10.85 -1.6M-0.85,0.95L-0.05 -1.6L-2.75 -1.6L-3.45 0.95L-0.85 0.95" />
<path style="fill:#000000;fill-opacity:1" d="M-11.75,-8.05L-11.05 -8.35L9.75 -8.35L9.75 -8.5Q9.75 -8.9 10.05 -9.2L10.75 -9.5L12.55 -9.5L13.25 -9.2L13.55 -8.5L13.55 -8.35L14.25 -8.05L14.55 -7.35L14.55 -3.25L14.25 -2.55Q13.95 -2.25 13.55 -2.25L11.7 -2.25L11.7 -1.6L11.4 -0.85Q11.1 -0.6 10.7 -0.6L2.8 -0.6L1.6 3.25Q1.35 3.95 0.65 3.95L-3.2 3.95L-4.45 8.75Q-4.7 9.5 -5.45 9.5L-13.5 9.5Q-14.05 9.5 -14.3 9.1Q-14.6 8.75 -14.5 8.25L-12.15 -0.6Q-12.9 -0.75 -12.9 -1.6L-12.9 -3.9Q-12.9 -4.7 -12.05 -4.9L-12.05 -7.35L-11.75 -8.05M-11.9,-3.9L-11.9 -1.6L-10.85 -1.6L-13.5 8.5L-5.45 8.5L-3.95 2.95L0.65 2.95L2.05 -1.6L10.7 -1.6L10.7 -3.25L13.55 -3.25L13.55 -7.35L12.55 -7.35L12.55 -8.5L10.75 -8.5L10.75 -7.35L-11.05 -7.35L-11.05 -3.9L-11.9 -3.9M-0.05,-1.6L-0.85 0.95L-3.45 0.95L-2.75 -1.6L-0.05 -1.6M-1.6,-0.05L-1.4 -0.6L-2 -0.6L-2.1 -0.05L-1.6 -0.05" />
</g>
</svg>
