<?xml version="1.0" encoding="utf-8"?>
<svg version="1.1" id="Layer_1"
xmlns="http://www.w3.org/2000/svg"
xmlns:xlink="http://www.w3.org/1999/xlink"
xmlns:author="http://www.sothink.com"
width="18px" height="18px"
xml:space="preserve">
<g id="1745" transform="matrix(1, 0, 0, 1, 8.85, 8.85)">
<path style="fill:#FFFFFF;fill-opacity:1" d="M8.9,0.05Q8.9 3.7 6.3 6.3Q3.7 8.9 0 8.9Q-3.65 8.9 -6.25 6.3Q-8.85 3.75 -8.85 0.05Q-8.85 -3.65 -6.25 -6.25Q-3.65 -8.85 0 -8.85Q3.7 -8.85 6.3 -6.25Q8.9 -3.6 8.9 0.05M5.4,-5.35Q3.2 -7.6 0 -7.6Q-3.15 -7.6 -5.4 -5.35Q-7.65 -3.15 -7.65 0.05Q-7.65 3.2 -5.4 5.45Q-3.15 7.7 0 7.7Q3.2 7.7 5.4 5.45Q7.65 3.2 7.65 0.05Q7.65 -3.15 5.4 -5.35" />
<path style="fill:#FFFFFF;fill-opacity:1" d="M1.55,0.9Q0.9 0.4 0 0.4Q-0.95 0.4 -1.5 0.9Q-2.1 1.45 -2.1 2.35Q-2.1 3.3 -1.5 3.9Q-0.95 4.4 0 4.4Q0.9 4.4 1.55 3.9Q2.15 3.3 2.15 2.35Q2.15 1.45 1.55 0.9M3.95,2.35L3.65 3.8L2.85 4.9L1.6 5.6L0 5.85L-1.55 5.6L-2.8 4.9L-3.65 3.8L-3.95 2.35Q-3.95 1.35 -3.4 0.55Q-2.85 -0.2 -1.9 -0.4L-3.05 -1.3Q-3.5 -1.9 -3.5 -2.75Q-3.5 -4.15 -2.6 -5Q-1.65 -5.8 0 -5.8Q1.65 -5.8 2.6 -5Q3.5 -4.15 3.5 -2.75Q3.5 -1.95 3.1 -1.3Q2.65 -0.7 1.9 -0.4Q2.85 -0.2 3.4 0.55Q3.95 1.25 3.95 2.35M-1.25,-3.9Q-1.75 -3.45 -1.75 -2.65Q-1.75 -1.75 -1.25 -1.4Q-0.8 -1 0 -1Q0.85 -1 1.25 -1.4Q1.75 -1.75 1.75 -2.65Q1.75 -3.45 1.25 -3.9Q0.75 -4.35 0 -4.35Q-0.7 -4.35 -1.25 -3.9" />
</g>
</svg>
