<?xml version="1.0" encoding="utf-8"?>
<svg version="1.1" id="Layer_1"
xmlns="http://www.w3.org/2000/svg"
xmlns:xlink="http://www.w3.org/1999/xlink"
xmlns:author="http://www.sothink.com"
width="17px" height="19px"
xml:space="preserve">
<g id="1804" transform="matrix(1, 0, 0, 1, 8.4, 9.4)">
<path style="fill:#FFFFFF;fill-opacity:1" d="M-3.2,-1.95Q-2.3 -1.05 -2.3 0.2Q-2.3 1.45 -3.2 2.3Q-4.1 3.2 -5.35 3.2Q-6.6 3.2 -7.5 2.3Q-8.4 1.45 -8.4 0.2Q-8.4 -1.05 -7.5 -1.95Q-6.6 -2.85 -5.35 -2.85Q-4.05 -2.85 -3.2 -1.95" />
<path style="fill:#FFFFFF;fill-opacity:1" d="M0.1,6.5L-2.2 5.15Q0.5 3.45 0.5 0.2Q0.5 -1.4 -0.3 -2.75Q-1.05 -4.05 -2.35 -4.85L-0.15 -6.3Q3 -3.8 3 0.2Q3 4 0.1 6.5" />
<path style="fill:#FFFFFF;fill-opacity:1" d="M4.55,-9.4Q8.45 -5.4 8.45 0.2Q8.45 5.55 4.85 9.45L2.65 8.05Q5.85 4.85 5.85 0.2Q5.85 -4.6 2.35 -7.95L4.55 -9.4" />
</g>
</svg>
