<?xml version="1.0" encoding="utf-8"?>
<svg version="1.1" id="Layer_1"
xmlns="http://www.w3.org/2000/svg"
xmlns:xlink="http://www.w3.org/1999/xlink"
xmlns:author="http://www.sothink.com"
width="18px" height="18px"
xml:space="preserve">
<g id="1747" transform="matrix(1, 0, 0, 1, 8.85, 8.85)">
<path style="fill:#FFFFFF;fill-opacity:1" d="M8.9,0.05Q8.9 3.75 6.3 6.3Q3.75 8.9 0.05 8.9Q-3.65 8.9 -6.25 6.3Q-8.85 3.7 -8.85 0.05Q-8.85 -3.6 -6.25 -6.25Q-3.6 -8.85 0.05 -8.85Q3.7 -8.85 6.3 -6.25Q8.9 -3.65 8.9 0.05M5.45,-5.4Q3.2 -7.65 0.05 -7.65Q-3.15 -7.65 -5.4 -5.4Q-7.65 -3.15 -7.65 0.05Q-7.65 3.2 -5.4 5.45Q-3.15 7.7 0.05 7.7Q3.2 7.7 5.45 5.45Q7.7 3.2 7.7 0.05Q7.7 -3.15 5.45 -5.4" />
<path style="fill:#FFFFFF;fill-opacity:1" d="M2.25,-2L1 0.25L0.15 2.8L-0.3 5.65L-2.3 5.65L-1.85 3L-0.95 0.5L0.4 -1.85L2 -3.95L-3.8 -3.95L-3.8 -5.55L3.85 -5.55L3.85 -4.05L2.25 -2" />
</g>
</svg>
