<?xml version="1.0" encoding="utf-8"?>
<svg version="1.1" id="Layer_1"
xmlns="http://www.w3.org/2000/svg"
xmlns:xlink="http://www.w3.org/1999/xlink"
xmlns:author="http://www.sothink.com"
width="29px" height="20px"
xml:space="preserve">
<g id="1771" transform="matrix(1, 0, 0, 1, 14.05, 9.6)">
<path style="fill:#000000;fill-opacity:1" d="M0.6,-3.55L5.4 0.55L10.15 -3.5L9.25 -4.1Q8.9 -4.65 8.9 -5.3Q8.9 -6.05 9.35 -6.6Q9.85 -7.15 10.5 -7.15Q11.15 -7.15 11.65 -6.6Q12.1 -6.05 12.1 -5.3Q12.1 -3.7 10.75 -3.45L10.75 7.45L7.55 6.15Q3.6 4.8 0.15 4.8Q-3.35 4.8 -7.35 6.2L-10.7 7.6L-10.7 -3.45Q-11.3 -3.55 -11.65 -4.05Q-12.05 -4.6 -12.05 -5.3Q-12.05 -6.05 -11.6 -6.6Q-11.1 -7.15 -10.45 -7.15Q-9.8 -7.15 -9.3 -6.6Q-8.85 -6.05 -8.85 -5.3Q-8.85 -4.65 -9.2 -4.1L-10.1 -3.5L-5.35 0.55L-0.55 -3.55Q-1.15 -3.75 -1.55 -4.3Q-1.95 -4.85 -1.95 -5.55Q-1.95 -6.4 -1.35 -7Q-0.8 -7.6 0 -7.6Q0.85 -7.6 1.4 -7Q2 -6.4 2 -5.55Q2 -4.85 1.6 -4.3Q1.2 -3.75 0.6 -3.55" />
<path style="fill:none;stroke-width:4;stroke-linecap:round;stroke-linejoin:round;stroke-miterlimit:3;stroke:#000000;stroke-opacity:1" d="M1.6,-4.3Q2 -4.85 2 -5.55Q2 -6.4 1.4 -7Q0.85 -7.6 0 -7.6Q-0.8 -7.6 -1.35 -7Q-1.95 -6.4 -1.95 -5.55Q-1.95 -4.85 -1.55 -4.3Q-1.15 -3.75 -0.55 -3.55L-5.35 0.55L-10.1 -3.5L-9.2 -4.1Q-8.85 -4.65 -8.85 -5.3Q-8.85 -6.05 -9.3 -6.6Q-9.8 -7.15 -10.45 -7.15Q-11.1 -7.15 -11.6 -6.6Q-12.05 -6.05 -12.05 -5.3Q-12.05 -4.6 -11.65 -4.05Q-11.3 -3.55 -10.7 -3.45L-10.7 7.6L-7.35 6.2Q-3.35 4.8 0.15 4.8Q3.6 4.8 7.55 6.15L10.75 7.45L10.75 -3.45Q12.1 -3.7 12.1 -5.3Q12.1 -6.05 11.65 -6.6Q11.15 -7.15 10.5 -7.15Q9.85 -7.15 9.35 -6.6Q8.9 -6.05 8.9 -5.3Q8.9 -4.65 9.25 -4.1L10.15 -3.5L5.4 0.55L0.6 -3.55Q1.2 -3.75 1.6 -4.3z" />
<path style="fill:#F5F5F5;fill-opacity:1" d="M0.6,-3.55L5.4 0.55L10.15 -3.5L9.25 -4.1Q8.9 -4.65 8.9 -5.3Q8.9 -6.05 9.35 -6.6Q9.85 -7.15 10.5 -7.15Q11.15 -7.15 11.65 -6.6Q12.1 -6.05 12.1 -5.3Q12.1 -3.7 10.75 -3.45L10.75 7.45L7.55 6.15Q3.6 4.8 0.15 4.8Q-3.35 4.8 -7.35 6.2L-10.7 7.6L-10.7 -3.45Q-11.3 -3.55 -11.65 -4.05Q-12.05 -4.6 -12.05 -5.3Q-12.05 -6.05 -11.6 -6.6Q-11.1 -7.15 -10.45 -7.15Q-9.8 -7.15 -9.3 -6.6Q-8.85 -6.05 -8.85 -5.3Q-8.85 -4.65 -9.2 -4.1L-10.1 -3.5L-5.35 0.55L-0.55 -3.55Q-1.15 -3.75 -1.55 -4.3Q-1.95 -4.85 -1.95 -5.55Q-1.95 -6.4 -1.35 -7Q-0.8 -7.6 0 -7.6Q0.85 -7.6 1.4 -7Q2 -6.4 2 -5.55Q2 -4.85 1.6 -4.3Q1.2 -3.75 0.6 -3.55" />
</g>
</svg>
