<?xml version="1.0" encoding="utf-8"?>
<svg version="1.1" id="Layer_1"
xmlns="http://www.w3.org/2000/svg"
xmlns:xlink="http://www.w3.org/1999/xlink"
xmlns:author="http://www.sothink.com"
width="14px" height="15px"
xml:space="preserve">
<g id="1833" transform="matrix(1, 0, 0, 1, 6.95, 7)">
<path style="fill:#FFFFFF;fill-opacity:1" d="M7,0Q7 2.95 4.95 5Q2.95 7.05 0.05 7.05Q-2.85 7.05 -4.9 5Q-6.95 2.9 -6.95 0Q-6.95 -2.9 -4.9 -4.95Q-2.9 -7 0 -7Q2.9 -7 4.95 -4.95Q7 -2.9 7 0M5,-1.05Q5.25 -1.05 5.35 -1.65Q4.8 -3.4 3.35 -4.5Q1.9 -5.6 0 -5.6Q-1.85 -5.6 -3.35 -4.45Q-4.8 -3.35 -5.35 -1.6Q-5.15 -1.05 -4.95 -1.05L-3.5 -1.3L0 -1.8L3.5 -1.3L5 -1.05M3.45,0.6Q2.9 0.6 1.95 1.75L1.7 2L0.75 3.35L0.75 4.5Q1.1 5.15 1.9 5.15L2.25 5.1L2.6 5Q4.95 3.85 5.5 1.15L3.45 0.6M-2.35,5.1L-2.2 5.1L-1.85 5.15Q-1.2 5.15 -0.7 4.5L-0.7 3.35L-1.8 1.9L-2.15 1.55Q-3 0.6 -3.45 0.6Q-4 0.6 -5.45 1.15Q-4.9 3.85 -2.35 5.1" />
</g>
</svg>
