<?xml version="1.0" encoding="utf-8"?>
<svg version="1.1" id="Layer_1"
xmlns="http://www.w3.org/2000/svg"
xmlns:xlink="http://www.w3.org/1999/xlink"
xmlns:author="http://www.sothink.com"
width="18px" height="18px"
xml:space="preserve">
<g id="1751" transform="matrix(1, 0, 0, 1, 8.85, 8.85)">
<path style="fill:#FFFFFF;fill-opacity:1" d="M8.9,0Q8.9 3.7 6.3 6.3Q3.7 8.9 0 8.9Q-3.65 8.9 -6.25 6.3Q-8.85 3.7 -8.85 0Q-8.85 -3.65 -6.25 -6.25Q-3.65 -8.85 0 -8.85Q3.7 -8.85 6.3 -6.25Q8.9 -3.65 8.9 0M5.4,-5.4Q3.2 -7.65 0 -7.65Q-3.15 -7.65 -5.4 -5.4Q-7.65 -3.15 -7.65 0Q-7.65 3.2 -5.4 5.4Q-3.15 7.65 0 7.65Q3.2 7.65 5.4 5.4Q7.65 3.2 7.65 0Q7.65 -3.15 5.4 -5.4" />
<path style="fill:#FFFFFF;fill-opacity:1" d="M3.3,-4.05L-1.1 -4.05L-1.7 -1.2L-1.65 -1.2Q-1.25 -1.6 -0.7 -1.8L0.4 -2.05L1.9 -1.75Q2.55 -1.45 3 -0.95L3.7 0.2L3.9 1.7L3.7 3.1L3 4.4L1.8 5.35L0.05 5.7L-1.5 5.5L-2.7 4.85L-3.55 3.8L-3.9 2.3L-2.05 2.3Q-2 3.25 -1.45 3.7Q-0.95 4.2 0 4.2L1 4L1.65 3.5L2 2.7L2.1 1.75L1.95 0.85L1.55 0.1L0.9 -0.4L-0.05 -0.6L-1.1 -0.4L-1.85 0.45L-3.65 0.45L-2.5 -5.7L3.3 -5.7L3.3 -4.05" />
</g>
</svg>
