<?xml version="1.0" encoding="utf-8"?>
<svg version="1.1" id="Layer_1"
xmlns="http://www.w3.org/2000/svg"
xmlns:xlink="http://www.w3.org/1999/xlink"
xmlns:author="http://www.sothink.com"
width="28px" height="21px"
xml:space="preserve">
<g id="1843" transform="matrix(1, 0, 0, 1, 13.55, 10.4)">
<path style="fill:#000000;fill-opacity:1" d="M4.65,-1.5L-4.65 -1.5L-4.65 -7.35L4.65 -7.35L4.65 -1.5" />
<path style="fill:#FFFFFF;fill-opacity:1" d="M7.1,-0.25L8.2 -0.25L8.2 -3.95L10.35 -3.95Q11.25 -3.95 11.9 -3.3Q12.55 -2.65 12.55 -1.75L12.55 9.45L-12.55 9.45L-12.55 -1.75Q-12.55 -2.65 -11.9 -3.3Q-11.25 -3.95 -10.35 -3.95L-8.05 -3.95L-8.05 -0.25L-6.95 -0.25L-6.95 -4.5Q-6.95 -6.85 -5.45 -8.2Q-4.35 -9.25 -2.95 -9.4L3 -9.4Q4.5 -9.25 5.65 -8.2Q7.1 -6.9 7.1 -4.5L7.1 -0.25M2.9,-6.65L-2.75 -6.65Q-4.2 -6.4 -4.2 -4.5L-4.2 -0.25L-3.1 -0.25L-3.1 -3.95L3.3 -3.95L3.3 -0.25L4.35 -0.25L4.35 -4.5Q4.35 -6.45 2.9 -6.65" />
<path style="fill:#000000;fill-opacity:1" d="M10.35,-4.95Q11.65 -4.95 12.6 -4Q13.55 -3.05 13.55 -1.75L13.55 9.45L13.25 10.15L12.55 10.45L-12.55 10.45L-13.25 10.15L-13.55 9.45L-13.55 -1.75Q-13.55 -3.05 -12.6 -4Q-11.65 -4.95 -10.35 -4.95L-7.9 -4.95Q-7.75 -7.55 -6 -9.05Q-4.7 -10.2 -3.05 -10.35L-2.95 -10.4L3.1 -10.4Q4.85 -10.2 6.2 -9.05Q7.95 -7.55 8.1 -4.95L10.35 -4.95M7.1,-0.25L7.1 -4.5Q7.1 -6.9 5.65 -8.2Q4.5 -9.25 3 -9.4L-2.95 -9.4Q-4.35 -9.25 -5.45 -8.2Q-6.95 -6.85 -6.95 -4.5L-6.95 -0.25L-8.05 -0.25L-8.05 -3.95L-10.35 -3.95Q-11.25 -3.95 -11.9 -3.3Q-12.55 -2.65 -12.55 -1.75L-12.55 9.45L12.55 9.45L12.55 -1.75Q12.55 -2.65 11.9 -3.3Q11.25 -3.95 10.35 -3.95L8.2 -3.95L8.2 -0.25L7.1 -0.25M4.35,-4.5L4.35 -0.25L3.3 -0.25L3.3 -3.95L-3.1 -3.95L-3.1 -0.25L-4.2 -0.25L-4.2 -4.5Q-4.2 -6.4 -2.75 -6.65L2.9 -6.65Q4.35 -6.45 4.35 -4.5M2.8,-5.65L-2.65 -5.65Q-3.05 -5.5 -3.15 -4.95L3.35 -4.95L2.8 -5.65" />
</g>
</svg>
