<?xml version="1.0" encoding="utf-8"?>
<svg version="1.1" id="Layer_1"
xmlns="http://www.w3.org/2000/svg"
xmlns:xlink="http://www.w3.org/1999/xlink"
xmlns:author="http://www.sothink.com"
width="29px" height="21px"
xml:space="preserve">
<g id="1850" transform="matrix(1, 0, 0, 1, 14.25, 10.45)">
<path style="fill:#FFFFFF;fill-opacity:1" d="M13.25,9.5L-13.25 9.5L-13.25 -9.45L13.25 -9.45L13.25 9.5" />
<path style="fill:#FFFFFF;fill-opacity:1" d="M13.25,9.5L-13.25 9.5L-13.25 -9.45L13.25 -9.45L13.25 9.5" />
<path style="fill:#000000;fill-opacity:1" d="M13.25,-9.45L-13.25 -9.45L-13.25 9.5L13.25 9.5L13.25 -9.45M14.25,10.5L-14.25 10.5L-14.25 -10.45L14.25 -10.45L14.25 10.5" />
<path style="fill:#000000;fill-opacity:1" d="M-0.05,-1.95Q1.1 -1.95 1.95 -1.1Q2.8 -0.3 2.8 0.9L2.8 4.1Q2.8 5.25 1.95 6.1Q1.1 6.95 -0.05 6.95Q-1.2 6.95 -2.05 6.1Q-2.9 5.25 -2.9 4.1L-2.9 0.9Q-2.9 -0.3 -2.05 -1.1Q-1.2 -1.95 -0.05 -1.95" />
<path style="fill:#000000;fill-opacity:1" d="M-9.75,4.2L-13.25 4.2Q-13.6 3.95 -13.6 2.3Q-13.6 0.7 -13.25 0.45L-9.75 0.45Q-8.95 0.45 -8.4 1Q-7.85 1.55 -7.85 2.3Q-7.85 3.1 -8.4 3.65Q-8.95 4.2 -9.75 4.2" />
<path style="fill:#000000;fill-opacity:1" d="M13.25,4.2L9.75 4.2Q8.95 4.2 8.4 3.65Q7.85 3.1 7.85 2.35Q7.85 1.55 8.4 1Q8.95 0.45 9.75 0.45L13.25 0.45Q13.7 0.95 13.7 2.35Q13.65 3.75 13.25 4.2" />
<path style="fill:#000000;fill-opacity:1" d="M13.65,-4.15L-13.75 -4.1L-13.75 -6.95L13.65 -7L13.65 -4.15" />
</g>
</svg>
