<?xml version="1.0" encoding="utf-8"?>
<svg version="1.1" id="Layer_1"
xmlns="http://www.w3.org/2000/svg"
xmlns:xlink="http://www.w3.org/1999/xlink"
xmlns:author="http://www.sothink.com"
width="16px" height="13px"
xml:space="preserve">
<g id="1803" transform="matrix(1, 0, 0, 1, 7.75, 6.4)">
<path style="fill:#FFFFFF;fill-opacity:1" d="M7.8,1.2L6.15 1.2L6.15 6.4L3.75 6.4L3.75 1.2L1.25 1.2L1.25 6.4L-1.15 6.4L-1.15 1.2L-3.65 1.2L-3.65 6.4L-6.05 6.4L-6.05 1.2L-7.75 1.2L-7.75 -1.2L-6.05 -1.2L-6.05 -6.4L-3.65 -6.4L-3.65 -1.2L-1.15 -1.2L-1.15 -6.4L1.25 -6.4L1.25 -1.2L3.75 -1.2L3.75 -6.4L6.15 -6.4L6.15 -1.2L7.8 -1.2L7.8 1.2" />
</g>
</svg>
