<?xml version="1.0" encoding="utf-8"?>
<svg version="1.1" id="Layer_1"
xmlns="http://www.w3.org/2000/svg"
xmlns:xlink="http://www.w3.org/1999/xlink"
xmlns:author="http://www.sothink.com"
width="16px" height="16px"
xml:space="preserve">
<g id="1972" transform="matrix(1, 0, 0, 1, 7.8, 7.85)">
<path style="fill:#FFFFFF;fill-opacity:1" d="M6.3,-2.9Q5.15 -5.35 2.6 -6.4Q3.6 -4.65 4.05 -2.9L6.3 -2.9M4.3,-2Q4.65 0.2 4.4 2L6.65 2L6.95 0L6.65 -2L4.3 -2M4.2,2.95Q3.7 4.8 2.65 6.4Q5.1 5.4 6.3 2.95L4.2 2.95M7.85,0Q7.85 3.25 5.55 5.55Q3.25 7.85 0 7.85Q-3.25 7.85 -5.5 5.55Q-7.8 3.25 -7.8 0Q-7.8 -3.25 -5.5 -5.55Q-3.2 -7.85 0 -7.85Q3.25 -7.85 5.55 -5.55Q7.85 -3.25 7.85 0M3.4,-2L0.5 -2L0.5 2L3.45 2Q3.85 0.1 3.4 -2M0.5,-2.9L3.15 -2.9Q2.45 -5.35 1.25 -6.8L0.5 -6.9L0.5 -2.9M-0.45,-6.9L-1.35 -6.75Q-2.55 -5.3 -3.25 -2.9L-0.45 -2.9L-0.45 -6.9M-6.6,-2L-6.9 0L-6.6 2L-4.45 2Q-4.75 0.1 -4.35 -2L-6.6 -2M-4.15,-2.9Q-3.7 -4.6 -2.7 -6.35Q-5.05 -5.35 -6.25 -2.9L-4.15 -2.9M-6.25,2.95Q-5.15 5.25 -2.75 6.35Q-3.85 4.65 -4.25 2.95L-6.25 2.95M-3.55,2L-0.45 2L-0.45 -2L-3.45 -2Q-3.9 0.1 -3.55 2M-3.35,2.95Q-2.65 5.1 -1.35 6.8L-0.45 6.9L-0.45 2.95L-3.35 2.95M1.25,6.8Q2.7 4.9 3.25 2.95L0.5 2.95L0.5 6.9L1.25 6.8" />
</g>
</svg>
