<?xml version="1.0" encoding="utf-8"?>
<svg version="1.1" id="Layer_1"
xmlns="http://www.w3.org/2000/svg"
xmlns:xlink="http://www.w3.org/1999/xlink"
xmlns:author="http://www.sothink.com"
width="15px" height="15px"
xml:space="preserve">
<g id="1971" transform="matrix(1, 0, 0, 1, 7.05, 7.05)">
<path style="fill:#FFFFFF;fill-opacity:1" d="M5.45,0Q5.45 -2.25 3.9 -3.85Q2.3 -5.45 0.05 -5.45Q-1.75 -5.45 -3.2 -4.4L0.6 -0.6L-0.55 0.6L-4.35 -3.2Q-5.4 -1.75 -5.4 0Q-5.4 2.25 -3.8 3.85Q-2.2 5.45 0.05 5.45Q2.3 5.45 3.9 3.85Q5.45 2.25 5.45 0M7.1,0Q7.1 2.95 5.05 5Q2.95 7.1 0.05 7.1Q-2.85 7.1 -4.95 5Q-7.05 2.95 -7.05 0Q-7.05 -2.9 -4.95 -5Q-2.9 -7.05 0.05 -7.05Q3 -7.05 5.05 -5Q7.1 -2.9 7.1 0" />
</g>
</svg>
