<?xml version="1.0" encoding="utf-8"?>
<svg version="1.1" id="Layer_1"
xmlns="http://www.w3.org/2000/svg"
xmlns:xlink="http://www.w3.org/1999/xlink"
xmlns:author="http://www.sothink.com"
width="72px" height="72px"
xml:space="preserve">
<g id="1408" transform="matrix(1, 0, 0, 1, 36, 36)">
<path style="fill:#FFFFFF;fill-opacity:1" d="M0,-32Q-13.3 -32 -22.7 -22.6Q-32 -13.25 -32 0Q-32 13.25 -22.7 22.65Q-13.3 32 0 32Q13.25 32 22.6 22.65Q30.9 14.35 31.9 3L32 0L32 -1Q31.65 -13.6 22.6 -22.6Q13.25 -32 0 -32M25.45,-25.45Q35.65 -15.25 36 -1L36 0L35.9 3Q34.9 16 25.45 25.45Q14.9 36 0 36Q-14.95 36 -25.5 25.45Q-36 14.9 -36 0Q-36 -14.9 -25.5 -25.45Q-14.95 -36 0 -36Q14.9 -36 25.45 -25.45" />
</g>
</svg>
