<?xml version="1.0" encoding="utf-8"?>
<svg version="1.1" id="Layer_1"
xmlns="http://www.w3.org/2000/svg"
xmlns:xlink="http://www.w3.org/1999/xlink"
xmlns:author="http://www.sothink.com"
width="12px" height="12px"
xml:space="preserve">
<g id="2052" transform="matrix(1, 0, 0, 1, 5.95, 5.95)">
<path style="fill:#000000;fill-opacity:1" d="M3.15,-4.5L4.5 -3.15L1.35 0L4.5 3.15L3.15 4.5L0 1.35L-3.15 4.5L-4.5 3.15L-1.35 0L-4.5 -3.15L-3.15 -4.5L0 -1.35L3.15 -4.5" />
<path style="fill:none;stroke-width:2;stroke-linecap:square;stroke-linejoin:miter;stroke-miterlimit:3;stroke:#000000;stroke-opacity:1" d="M3.15,-4.5L4.5 -3.15L1.35 0L4.5 3.15L3.15 4.5L0 1.35L-3.15 4.5L-4.5 3.15L-1.35 0L-4.5 -3.15L-3.15 -4.5L0 -1.35L3.15 -4.5z" />
<path style="fill:#FFFFFF;fill-opacity:1" d="M4.5,-3.15L1.35 0L4.5 3.15L3.15 4.5L0 1.35L-3.15 4.5L-4.5 3.15L-1.35 0L-4.5 -3.15L-3.15 -4.5L0 -1.35L3.15 -4.5L4.5 -3.15" />
</g>
</svg>
