<?xml version="1.0" encoding="utf-8"?>
<svg version="1.1" id="Layer_1"
xmlns="http://www.w3.org/2000/svg"
xmlns:xlink="http://www.w3.org/1999/xlink"
xmlns:author="http://www.sothink.com"
width="20px" height="16px"
xml:space="preserve">
<g id="2388" transform="matrix(1, 0, 0, 1, 0, 0)">
<path style="fill:#FFFFFF;fill-opacity:1" d="M17.5,1.35L18.25 6.65L18.4 6.65Q18.95 6.65 19.35 7.05Q19.75 7.45 19.75 8L19.75 9.9L19.4 10.8L18.6 11.25L18.6 13.75Q18.6 14.3 18.2 14.7Q17.75 15.1 17.2 15.1L16.7 15.1Q16.15 15.1 15.75 14.7Q15.35 14.3 15.35 13.75L15.35 11.25L4.45 11.25L4.45 13.75Q4.45 14.3 4.05 14.7Q3.65 15.1 3.1 15.1L2.55 15.1Q2 15.1 1.6 14.7Q1.2 14.3 1.2 13.75L1.2 11.25L0.35 10.8Q0 10.4 0 9.9L0 8Q0 7.45 0.4 7.05Q0.85 6.65 1.4 6.65L1.55 6.65L2.3 1.35Q2.3 0.8 2.7 0.4Q3.1 0 3.65 0L16.15 0Q16.7 0 17.1 0.4Q17.5 0.8 17.5 1.35M15.45,1.25L4.35 1.25Q3.7 1.25 3.7 1.95L3.1 5.45L16.7 5.45L16.1 1.95Q16.1 1.25 15.45 1.25M18.15,7.8Q17.65 7.3 16.95 7.3Q16.25 7.3 15.75 7.8Q15.25 8.3 15.25 9Q15.25 9.7 15.75 10.2Q16.25 10.7 16.95 10.7Q17.65 10.7 18.15 10.2Q18.65 9.7 18.65 9Q18.65 8.3 18.15 7.8M2.85,7.3Q2.15 7.3 1.65 7.8Q1.15 8.3 1.15 9Q1.15 9.7 1.65 10.2Q2.15 10.7 2.85 10.7Q3.55 10.7 4.05 10.2Q4.55 9.7 4.55 9Q4.55 8.3 4.05 7.8Q3.55 7.3 2.85 7.3" />
</g>
</svg>
