<?xml version="1.0" encoding="utf-8"?>
<svg version="1.1" id="Layer_1"
xmlns="http://www.w3.org/2000/svg"
xmlns:xlink="http://www.w3.org/1999/xlink"
xmlns:author="http://www.sothink.com"
width="20px" height="19px"
xml:space="preserve">
<g id="2386" transform="matrix(1, 0, 0, 1, 0, 0)">
<path style="fill:#FFFFFF;fill-opacity:1" d="M19.25,1.7L19.55 2.4L19.25 3.05L18.6 3.3L10.6 3.3L10.6 3.95L11.95 3.95Q13.7 3.95 15 5.2Q16.25 6.5 16.25 8.25L16.25 11.9Q16.25 13.6 14.95 14.55L15.8 14.55Q16.15 14.55 16.35 14.8L16.6 15.4L16.6 17.4Q16.6 18.2 15.8 18.2Q15 18.2 15 17.4L15 16.2L4.55 16.2L4.55 17.4Q4.55 18.2 3.75 18.2Q2.95 18.2 2.95 17.4L2.95 15.4Q2.95 15.05 3.2 14.8Q3.4 14.55 3.75 14.55L4.6 14.55Q3.3 13.6 3.3 11.9L3.3 8.25Q3.3 6.5 4.55 5.2Q5.85 3.95 7.6 3.95L8.95 3.95L8.95 3.3L0.95 3.3L0.3 3.05L0 2.4Q0 2 0.3 1.7Q0.55 1.45 0.95 1.45L8.95 1.45L8.95 0.8Q8.95 0.45 9.2 0.25Q9.45 0 9.8 0Q10.1 0 10.35 0.25L10.6 0.8L10.6 1.45L18.6 1.45Q19 1.45 19.25 1.7M10.6,5.55L10.6 9.55L14.65 9.55L14.65 8.25Q14.65 7.15 13.85 6.35Q13.05 5.55 11.95 5.55L10.6 5.55M7.6,5.55Q6.5 5.55 5.7 6.35Q4.9 7.15 4.9 8.25L4.9 9.55L8.95 9.55L8.95 5.55L7.6 5.55" />
</g>
</svg>
