<?xml version="1.0" encoding="utf-8"?>
<svg version="1.1" id="Layer_1"
xmlns="http://www.w3.org/2000/svg"
xmlns:xlink="http://www.w3.org/1999/xlink"
xmlns:author="http://www.sothink.com"
width="8px" height="10px"
xml:space="preserve">
<g id="2389" transform="matrix(1, 0, 0, 1, 3.8, 6)">
<path style="fill:#FFFFFF;fill-opacity:1" d="M1.55,-2.2Q0.9 -1.55 -0.05 -1.55Q-1 -1.55 -1.65 -2.2Q-2.3 -2.85 -2.3 -3.8Q-2.3 -4.7 -1.65 -5.35Q-1 -6 -0.05 -6Q0.9 -6 1.55 -5.35Q2.2 -4.7 2.2 -3.8Q2.2 -2.85 1.55 -2.2M-0.05,-1.3Q1.85 -1.3 2.9 -0.45Q3.7 0.2 3.7 1.1L3.7 3.7L-3.8 3.7L-3.8 1.1Q-3.8 0.15 -2.95 -0.45Q-1.95 -1.3 -0.05 -1.3" />
</g>
</svg>
