<?xml version="1.0" encoding="utf-8"?>
<svg version="1.1" id="Layer_1"
xmlns="http://www.w3.org/2000/svg"
xmlns:xlink="http://www.w3.org/1999/xlink"
xmlns:author="http://www.sothink.com"
width="14px" height="18px"
xml:space="preserve">
<g id="2390" transform="matrix(1, 0, 0, 1, 6.55, 8.8)">
<path style="fill:#F5F5F5;fill-opacity:1" d="M4.15,-7.35Q5.9 -5.9 6.4 -3.65L6.4 -3.6L6.45 -3.4L6.45 -3.35L6.55 -2.4L6.55 -2.3Q6.55 -1.05 6.1 0.05Q3.7 4.4 0 8.85Q-3.7 4.4 -6.15 0.05Q-6.55 -1.15 -6.55 -2.3L-6.5 -3.4L-6.4 -3.6L-6.4 -3.65Q-5.95 -5.9 -4.15 -7.35Q-2.35 -8.8 0 -8.8Q2.35 -8.8 4.15 -7.35M2.65,-4.95Q1.55 -6.05 0 -6.05Q-1.55 -6.05 -2.7 -4.95Q-3.8 -3.85 -3.8 -2.3Q-3.8 -0.7 -2.7 0.4Q-1.55 1.5 0 1.5Q1.55 1.5 2.65 0.4Q3.75 -0.7 3.75 -2.3Q3.75 -3.85 2.65 -4.95" />
</g>
</svg>
