<?xml version="1.0" encoding="utf-8"?>
<svg version="1.1" id="Layer_1"
xmlns="http://www.w3.org/2000/svg"
xmlns:xlink="http://www.w3.org/1999/xlink"
xmlns:author="http://www.sothink.com"
width="1280px" height="1400px"
xml:space="preserve">
<g id="588" transform="matrix(1, 0, 0, 1, 0, 0)">
<path style="fill:#000000;fill-opacity:1" d="M0,1400L0 0L1280 0L1280 1400L0 1400" />
<path style="fill:#000000;fill-opacity:1" d="M220,1399.95L220 0L1060 0L1060 1399.95L220 1399.95" />
<path style="fill:#000000;fill-opacity:1" d="M1059.95,150L219.95 150L219.95 0.05L1059.95 0.05L1059.95 150" />
<path style="fill:#000000;fill-opacity:1" d="M1060,150L220 150L220 144L1060 144L1060 150" />
<path style="fill:#000000;fill-opacity:1" d="M783.9,479.2L263.85 479.2L263.85 399.2L783.9 399.2L783.9 479.2" />
<path style="fill:#000000;fill-opacity:1" d="M337.65,130L337.65 10L429.5 10L429.5 130L337.65 130" />
<path style="fill:#000000;fill-opacity:1" d="M942.4,98.5L430.4 98.5L430.4 47.5L942.4 47.5L942.4 98.5" />
<path style="fill:#000000;fill-opacity:1" d="M459.6,319.75L459.6 424.8L427.6 424.8L427.6 478.8L293.55 478.8L293.55 227.4L432.6 227.4L432.6 319.75L459.6 319.75" />
</g>
</svg>
