<?xml version="1.0" encoding="utf-8"?>
<svg version="1.1" id="Layer_1"
xmlns="http://www.w3.org/2000/svg"
xmlns:xlink="http://www.w3.org/1999/xlink"
xmlns:author="http://www.sothink.com"
width="246px" height="38px"
xml:space="preserve">
<g id="458" transform="matrix(1, 0, 0, 1, 122.9, 16.8)">
<radialGradient
id="RadialGradID_18" gradientUnits="userSpaceOnUse" gradientTransform="matrix(0.0575867, 0, 0, 0.0231934, 3.05, 2)" spreadMethod ="pad" cx="0" cy="0" r="819.2" fx="0" fy="0" >
<stop  offset="0"  style="stop-color:#B633EE;stop-opacity:0.85098" />
<stop  offset="1"  style="stop-color:#A42FF2;stop-opacity:0" />
</radialGradient>
<path style="fill:url(#RadialGradID_18) " d="M36.1,-11.3Q49.75 -5.8 49.75 2Q49.75 9.8 36.1 15.3Q22.4 20.85 3.05 20.85Q-16.3 20.85 -30 15.3Q-43.65 9.8 -43.65 2Q-43.65 -5.8 -30 -11.3Q-16.3 -16.8 3.05 -16.8Q22.4 -16.8 36.1 -11.3" />
<radialGradient
id="RadialGradID_19" gradientUnits="userSpaceOnUse" gradientTransform="matrix(0.151566, 0, 0, 0.00636292, 0.05, -0.05)" spreadMethod ="pad" cx="0" cy="0" r="819.2" fx="0" fy="0" >
<stop  offset="0"  style="stop-color:#FFFFFF;stop-opacity:1" />
<stop  offset="1"  style="stop-color:#FFFFFF;stop-opacity:0" />
</radialGradient>
<path style="fill:url(#RadialGradID_19) " d="M122.95,-0.05Q122.95 2.1 86.95 3.65Q50.95 5.15 0.05 5.15Q-50.9 5.15 -86.9 3.65Q-122.9 2.1 -122.9 -0.05Q-122.9 -2.15 -86.9 -3.7Q-50.9 -5.2 0.05 -5.2Q50.95 -5.2 86.95 -3.7Q122.95 -2.15 122.95 -0.05" />
<radialGradient
id="RadialGradID_20" gradientUnits="userSpaceOnUse" gradientTransform="matrix(0.0948792, 0, 0, 0.0117188, 0.1, 0)" spreadMethod ="pad" cx="0" cy="0" r="819.2" fx="0" fy="0" >
<stop  offset="0"  style="stop-color:#FFFFFF;stop-opacity:1" />
<stop  offset="1"  style="stop-color:#FFFFFF;stop-opacity:0" />
</radialGradient>
<path style="fill:url(#RadialGradID_20) " d="M54.55,-6.7Q77.1 -3.95 77.1 0Q77.1 3.95 54.55 6.75Q32 9.5 0.1 9.5Q-31.75 9.5 -54.3 6.75Q-76.85 3.95 -76.85 0Q-76.85 -3.95 -54.3 -6.7Q-31.75 -9.5 0.1 -9.5Q32 -9.5 54.55 -6.7" />
<radialGradient
id="RadialGradID_21" gradientUnits="userSpaceOnUse" gradientTransform="matrix(0.0370026, 0, 0, 0.0178833, 0.1, 0)" spreadMethod ="pad" cx="0" cy="0" r="819.2" fx="0" fy="0" >
<stop  offset="0"  style="stop-color:#FFFFFF;stop-opacity:1" />
<stop  offset="1"  style="stop-color:#FFFFFF;stop-opacity:0" />
</radialGradient>
<path style="fill:url(#RadialGradID_21) " d="M21.3,-10.25Q30.1 -6 30.1 0Q30.1 6 21.3 10.25Q12.5 14.5 0.1 14.5Q-12.35 14.5 -21.15 10.25Q-29.95 6 -29.95 0Q-29.95 -6 -21.15 -10.25Q-12.35 -14.5 0.1 -14.5Q12.5 -14.5 21.3 -10.25" />
<radialGradient
id="RadialGradID_22" gradientUnits="userSpaceOnUse" gradientTransform="matrix(0.0443878, 0, 0, 0.0178833, 0.1, 0)" spreadMethod ="pad" cx="0" cy="0" r="819.2" fx="0" fy="0" >
<stop  offset="0"  style="stop-color:#FFFFFF;stop-opacity:1" />
<stop  offset="1"  style="stop-color:#FFFFFF;stop-opacity:0" />
</radialGradient>
<path style="fill:url(#RadialGradID_22) " d="M25.55,-10.25Q36.1 -6 36.1 0Q36.1 6 25.55 10.25Q15 14.5 0.1 14.5Q-14.85 14.5 -25.4 10.25Q-35.9 6 -35.9 0Q-35.9 -6 -25.4 -10.25Q-14.85 -14.5 0.1 -14.5Q15 -14.5 25.55 -10.25" />
</g>
</svg>
