<?xml version="1.0" encoding="utf-8"?>
<svg version="1.1" id="Layer_1"
xmlns="http://www.w3.org/2000/svg"
xmlns:xlink="http://www.w3.org/1999/xlink"
xmlns:author="http://www.sothink.com"
width="418px" height="38px"
xml:space="preserve">
<g id="478" transform="matrix(1, 0, 0, 1, 1.45, 0)">
<path style="fill:#0133EA;fill-opacity:1" d="M414.7,7.8L401.45 7.8L401.2 8.95L396.7 8.95L392.5 29.4L391 29.4L389.45 36.7L379.75 36.7L381.3 29.4L382.8 29.4L387 8.95L391.5 8.95L391.75 7.8L378.5 7.8L379.9 1L416.1 1L414.7 7.8M375.5,8.95L371 8.95L370.85 11.35L360.1 11.35Q360.25 9.9 359.8 8.95L364.3 8.95L364.1 8.6Q363.4 7.55 362.25 7.05L359.65 6.35L356.7 6.2Q353.7 6.2 351.65 7.4Q350.5 8.1 349.9 8.95L345.4 8.95Q344.9 9.6 344.75 10.4Q344.45 11.85 345.4 12.65Q346.35 13.45 348.15 13.75L359.9 15.7Q362.25 16.1 364.2 16.8Q366.15 17.5 367.45 18.65Q368.7 19.8 369.2 21.5L369.5 23.8L369.25 25.7Q368.85 27.65 367.95 29.4L366.45 29.4L365.85 30.4Q364.5 32.55 362 34.15Q359.5 35.8 355.75 36.75L346.7 37.7L342.25 37.6L337.8 37Q335.65 36.55 333.85 35.75Q332 34.95 330.8 33.6Q329.55 32.2 329.05 30.25L328.9 29.4L330.4 29.4Q330.2 27.7 330.65 25.45L341.55 25.45Q341.2 27.3 341.85 28.4L342.6 29.4L341.1 29.4L342.15 30.2Q343.35 30.8 344.9 31L348.05 31.2Q351.5 31.2 353.85 30.2L355.15 29.4L356.65 29.4Q357.8 28.4 358.15 26.75Q358.35 25.7 358.1 25.05L357.15 23.9L357 23.8Q356.35 23.4 355.4 23.15L352.95 22.65L344.4 21.3L340.05 20.35Q338 19.75 336.5 18.65Q335 17.5 334.35 15.75Q333.7 13.95 334.3 11.2Q334.55 10 334.95 8.95L339.45 8.95Q341.1 4.75 345.25 2.65Q350.4 0 358.8 0L362.7 0.15L366.65 0.7Q368.6 1.1 370.35 1.9Q372.1 2.65 373.35 3.95Q374.55 5.2 375.15 7.05L375.5 8.95M329.35,8.95L329.85 10.65Q330.25 12.75 330.1 14.85L329.6 18.85L328.45 22.85L328.1 23.8L326.4 27.05L324.7 29.4L323.2 29.4L321.65 31.1Q319.7 33 316.95 34.5Q314.15 35.95 310.45 36.8Q306.75 37.7 301.95 37.7Q297.15 37.7 293.85 36.8Q290.5 35.95 288.35 34.5Q286.2 33 285.05 31.1L284.2 29.4L285.7 29.4L285 27.05Q284.65 25.45 284.65 23.8L284.65 22.85Q284.8 20.7 285.2 18.85Q285.6 17 286.35 14.85Q287.1 12.75 288.4 10.65L289.6 8.95L294.1 8.95L296.1 6.6Q298.05 4.7 300.85 3.25Q303.6 1.75 307.3 0.9Q311 0 315.8 0Q320.6 0 323.95 0.9Q327.25 1.75 329.4 3.25Q331.6 4.7 332.75 6.6L333.85 8.95L329.35 8.95M316.8,8.95L321.3 8.95Q320.6 8.35 319.75 7.9Q317.7 6.8 314.4 6.8Q311.1 6.8 308.6 7.9Q307.55 8.35 306.65 8.95L302.15 8.95L299.85 10.75Q298.05 12.5 297 14.65Q295.95 16.75 295.5 18.85Q295.05 20.95 295.25 23.1L295.35 23.8Q295.6 25.5 296.45 26.95Q297.3 28.4 298.9 29.4L297.4 29.4L298.05 29.8Q300.1 30.9 303.4 30.9Q306.7 30.9 309.2 29.8L310.05 29.4L311.55 29.4L314.95 26.95L317.45 23.8L317.8 23.1Q318.85 20.95 319.3 18.85Q319.75 16.75 319.6 14.65Q319.4 12.5 318.35 10.75L316.8 8.95M267.35,8.95L262.85 8.95L258.6 29.4L257.1 29.4L257.05 29.6L278.8 29.6L277.35 36.7L245.9 36.7L247.45 29.4L248.95 29.4L253.15 8.95L257.65 8.95L259.3 1L269 1L267.35 8.95M204.7,1L214.4 1L212.75 8.95L208.25 8.95L204 29.4L202.5 29.4L202.45 29.6L224.2 29.6L222.75 36.7L191.3 36.7L192.85 29.4L194.35 29.4L198.55 8.95L203.05 8.95L204.7 1M188.15,8.95L183.65 8.95L188.4 29.4L186.9 29.4L188.6 36.7L178.15 36.7L176.75 29.4L178.25 29.4L178.25 29.35L161.85 29.35L161.85 29.4L160.35 29.4L155.95 36.7L145.5 36.7L150.25 29.4L151.75 29.4L164.95 8.95L169.45 8.95L174.6 1L186.3 1L188.15 8.95M178.7,8.95L178.9 8.95L178.85 8.7L178.7 8.95M174.2,8.95L165.8 22.85L177 22.85L174.4 8.95L174.2 8.95M154.55,8.95L150.05 8.95L145.85 29.4L144.35 29.4L142.8 36.7L132.25 36.7L128.1 29.4L129.6 29.4L119.45 11.8L119.35 11.8L115.75 29.4L114.25 29.4L112.7 36.7L103.3 36.7L104.85 29.4L106.35 29.4L110.55 8.95L115.05 8.95L116.7 1L127.95 1L132.3 8.95L127.8 8.95L137 25.9L137.1 25.9L140.65 8.95L145.15 8.95L146.8 1L156.2 1L154.55 8.95M106.3,6.6Q106.95 7.65 107.3 8.95L102.8 8.95Q103.2 10.65 103.15 12.75L92.35 12.75Q92.15 11 91.4 9.85L90.65 8.95L95.15 8.95L94.05 8.05Q92.95 7.4 91.65 7.1L89 6.8Q85.7 6.8 83.2 7.9L81.2 8.95L76.7 8.95Q75.45 9.75 74.4 10.75Q72.65 12.5 71.6 14.65Q70.55 16.75 70.1 18.85Q69.65 20.95 69.85 23.1L69.95 23.8Q70.2 25.5 71.05 26.95Q71.9 28.4 73.5 29.4L72 29.4L72.65 29.8Q74.7 30.9 78 30.9L81.85 30.5Q83.4 30.15 84.8 29.4L86.3 29.4L86.7 29.15Q88.25 28.25 89.5 26.7L91.3 23.8L91.65 23L83 23L84.3 16.8L102.5 16.8L99.9 29.4L98.4 29.4L96.9 36.7L92 36.7L91.55 32.55Q88.4 35.3 84.25 36.5Q80.15 37.7 75.45 37.7Q70.55 37.7 66.9 36.65Q63.2 35.55 60.95 33.25Q59.4 31.65 58.55 29.4L60.05 29.4L59.45 27.35Q59.15 25.7 59.2 23.8Q59.25 21.55 59.8 18.85Q60.65 14.75 62.75 11.3Q63.5 10.05 64.4 8.95L68.9 8.95Q70.55 6.9 72.6 5.3Q75.8 2.8 80 1.4Q84.25 0 89.3 0L96.35 0.6Q99.75 1.2 102.3 2.7Q104.8 4.15 106.3 6.6M61.05,8.95L56.55 8.95L52.35 29.4L50.85 29.4L49.3 36.7L39.6 36.7L41.15 29.4L42.65 29.4L46.85 8.95L51.35 8.95L53 1L62.7 1L61.05 8.95M40.5,11.35L29.75 11.35Q29.9 9.9 29.45 8.95L33.95 8.95L33.75 8.6Q33.05 7.55 31.9 7.05L29.3 6.35L26.35 6.2Q23.35 6.2 21.3 7.4Q20.15 8.1 19.55 8.95L15.05 8.95Q14.55 9.6 14.4 10.4Q14.1 11.85 15.05 12.65Q16 13.45 17.8 13.75L29.55 15.7Q31.9 16.1 33.85 16.8Q35.8 17.5 37.1 18.65Q38.35 19.8 38.85 21.5L39.15 23.8L38.9 25.7Q38.5 27.65 37.6 29.4L36.1 29.4L35.5 30.4Q34.15 32.55 31.65 34.15Q29.15 35.8 25.4 36.75Q21.6 37.7 16.35 37.7L11.9 37.6L7.45 37Q5.3 36.55 3.5 35.75Q1.65 34.95 0.45 33.6Q-0.8 32.2 -1.3 30.25L-1.45 29.4L0.05 29.4Q-0.15 27.7 0.3 25.45L11.2 25.45Q10.85 27.3 11.5 28.4L12.25 29.4L10.75 29.4L11.8 30.2Q13 30.8 14.55 31L17.7 31.2Q21.15 31.2 23.5 30.2L24.8 29.4L26.3 29.4Q27.45 28.4 27.8 26.75Q28 25.7 27.75 25.05L26.8 23.9L26.65 23.8Q26 23.4 25.05 23.15L22.6 22.65L14.05 21.3L9.7 20.35Q7.65 19.75 6.15 18.65Q4.65 17.5 4 15.75Q3.35 13.95 3.95 11.2Q4.2 10 4.6 8.95L9.1 8.95Q10.75 4.75 14.9 2.65Q20.05 0 28.45 0L32.35 0.15L36.3 0.7Q38.25 1.1 40 1.9Q41.75 2.65 43 3.95Q44.2 5.2 44.8 7.05L45.15 8.95L40.65 8.95L40.5 11.35" />
</g>
</svg>
