<?xml version="1.0" encoding="utf-8"?>
<svg version="1.1" id="Layer_1"
xmlns="http://www.w3.org/2000/svg"
xmlns:xlink="http://www.w3.org/1999/xlink"
xmlns:author="http://www.sothink.com"
width="85px" height="246px"
xml:space="preserve">
<g id="457" transform="matrix(1, 0, 0, 1, 42, 126.25)">
<path style="fill:#000000;fill-opacity:1" d="M5.5,-66L8 -43.55L8.55 -43.05L10.8 0.9L-31.05 1.1L-42 -122.1L-2.3 -126.25L0.15 -106.75L1.4 -85.7L2.85 -85.45L4.5 -66.45L5.5 -66M41.7,25.55L23.7 26.05L42.3 39.3L41.7 55.5L31.85 55.95L42.3 68.95L41.7 85.35L35.35 85.95L41.7 115.3L3.4 119.05L-4.25 62.4L-9 2.45L26.9 6.6L41.75 8.75L41.7 25.55" />
</g>
</svg>
