<?xml version="1.0" encoding="utf-8"?>
<svg version="1.1" id="Layer_1"
xmlns="http://www.w3.org/2000/svg"
xmlns:xlink="http://www.w3.org/1999/xlink"
xmlns:author="http://www.sothink.com"
width="225px" height="162px"
xml:space="preserve">
<g id="462" transform="matrix(1, 0, 0, 1, 111.75, 76.2)">
<path style="fill:#646464;fill-opacity:1" d="M-28.75,27.6L-28.8 27.5L-28.65 27.55L-28.75 27.6M-9.75,22.65L-9.95 21.65L-9.7 22.1L-9.75 22.65M17.9,32.6L18.8 32.1L41.5 24.8L41.55 28.35L40.55 28.85L18.75 37L18.1 37.15L17.9 32.6M41.5,17.55L41.55 21.25L34.2 23.25L18.15 27.4L18.05 22.9L41.5 17.55" />
<path style="fill:#990000;fill-opacity:1" d="M0.65,21L0.5 20.95L0.5 20.85L0.65 21M-12,36.65L-11.85 36.85L-12 36.8L-12 36.65M13.65,21.75L12.35 20.65L8.7 18.75L8.55 17.4L14.4 17.25L14.65 18.1L14.65 19.9L14.5 22.9L13.65 21.75" />
<path style="fill:#000000;fill-opacity:1" d="M21.15,-52L28.7 -54.8L30.85 -54L31.05 -55.4L61.15 -67.45L64.35 -64.95L64.65 -68.8L83.7 -76.2L90.55 -67.15L90.55 -16.4Q100.5 -17.65 110.05 -16.25Q111.45 -16.25 112.75 -15.45L112.75 1.1L-38.3 1.1L-38.85 0.6L-36.55 0.45L-34.8 -18.05L-32.65 0.45L-29.9 0.55L-25.6 -32.2L-25.6 0.35L-10.75 0.35L-9.3 -7.3L-2.45 -7.85L-0.6 0.4L106.25 -0.1L106.4 -16L82.2 -14.5L82.05 -15.35L81.95 -17.15L81.9 -21.95L81.9 -26.8L81.9 -73.3L81.75 -74.65L65.4 -68.45L65.4 -13.45L42.15 -11.5L42.1 -24.95L59.6 -28.3L59.6 -40.8L42 -36.85L42 -48L59.6 -53.5L59.45 -66.1L31.3 -55.4L31.3 -10.55L14.7 -9.2L15.75 -12.4L17.25 -16.5L18.8 -20.7L19.9 -23.65L21.05 -26.65L22.05 -29.3L23.1 -32L26.05 -40.5L26.95 -43.6L27.3 -45.95L27.55 -49.7L27.55 -51.65L27.45 -53.65L6.25 -45.85L21.15 -52M6.15,-40.25L6.3 -36.95L17.35 -40.3L17.05 -38.7L16.7 -37.35Q16.15 -35.2 15.1 -33.35L9.05 -35L8.9 -34.55L11.55 -23.55L4.85 -5.2L-3.1 -41.85L-8.4 -40.25L-2.35 -42.75L6.15 -40.25M-9.25,-36.55L-14.55 -7L-21.7 -6.55L-21.7 -14.7L-15.85 -15.7L-15.85 -22.8L-21.7 -21.65L-21.7 -28.1L-15.85 -30.1L-15.85 -37.25L-29.1 -32.3L-14.9 -37.95L-9.25 -36.55M-29.5,-30.5L-31.25 -13.2L-33.35 -30.4L-35.6 -29.8L-32.7 -31.05L-29.5 -30.5M-36.05,-28.25L-37.7 -11.7L-39.8 -28.25L-36.05 -28.25M26.75,-11L31 -11.35L31 -20.65L26.75 -11M64.65,-40.5L64.65 -45.55L52.75 -42.45L52.85 -40.15L61.55 -42L64.65 -40.5M52.75,-13.15L64.6 -14.15L64.6 -23.55L52.75 -21.9L52.75 -13.15M-8.55,-14.3L-6.05 -30.9L-3.4 -15.15L-8.55 -14.3M15.35,16.35L14.55 12L14.65 11.5L17.25 11.25L22.95 10.7Q32.25 9.15 41.5 10.3L18 13.3L18 17.8L22.65 17.25L38.1 14.5L41.35 14L31.35 16.2Q24.35 17.75 17.25 18.05L14.65 18.1L15.35 16.35M14.65,8.7L14.55 3.75L-106.1 7.1L-106.25 84.15L-105.2 84.1L-107.25 84.9L-111.75 73.15L-111.75 5.8L0 3.35L5.1 3.3L17.25 3.2L23.9 3.05L24.85 3Q30.95 2.7 37 2.85L40.6 3L41.5 3.05L17.95 3.8L17.95 8.5L41.45 6.65L32.65 7.65L17.25 8.65L14.65 8.7M-96.3,80.6L-95 80.25L-95.65 80.85L-96.8 80.95L-96.3 80.6M-68.45,70.25L-68.3 70.05L-68 70.05L-68.45 70.25M-64.35,68.65L-64.1 68.45L-63.7 68.45L-64.35 68.65M-53.5,64.6L-53.15 64.35L-52.7 64.35L-53.5 64.6M18.05,22.9L18.15 27.4L34.2 23.25L34.75 23.65L40.9 24.35L41.5 24.8L18.8 32.1L17.9 32.6L18.1 37.15L14.65 36.9L14.55 33.35L15.55 28.05L15.65 28Q15.85 27.8 15.55 27.6L14.5 22.9L14.65 19.9L17.25 19.35L21.55 18.35Q31.2 15.85 41.2 17.2L41.5 17.55L18.05 22.9" />
<path style="fill:#FDFDFD;fill-opacity:1" d="M-18.8,12.5L-18.75 12.5L-18.8 12.55L-18.8 12.5" />
<path style="fill:#FFFFFF;fill-opacity:1" d="M-12.05,11.85L-15.35 31.15L-17.7 18.2L-16.4 10.95L-7.95 10.85L-7.9 11.5L-12.05 11.85M-7.15,16.05L-6.45 10.35L1.9 9.75L2.1 10.2L2.05 10.65L-2.15 11.1L-4.9 32.4L-7.15 16.05M2.1,11.05Q5.25 7.6 10.1 8.5L12.2 9.05L12.5 9.55L12.75 9.8L12.55 9.7L12.5 9.55L12.45 9.55Q5.1 9.55 4.55 17.85Q4.15 24.2 9.9 26.75Q13.2 28.1 11.85 31.15Q11.25 32.45 9.8 32.65L9.25 32.45L8.45 30.7L8.1 29.35L4.3 30.4Q4.2 35.45 8.15 37.55Q8.85 37.9 9.55 37.95Q1.95 39.75 0.25 31L0.05 29.2L7.9 28.05L7.75 27.3Q2.4 25.55 0.65 21L0.5 20.85L2.1 11.05M-2.95,41.65L-7.8 43.7L-10.95 42.7L-11.85 36.85L-12 36.65L-9.95 21.65L-9.75 22.65L-6.5 42.85L-2.95 41.65M-28.75,27.6L-28.65 27.55L-28.4 27.95L-28.5 34.55L-28.55 35.2L-38 37.45L-38 42.4L-31.65 40.75L-28.65 41.85L-28.75 50.95L-47.75 57.55L-50.7 55.7L-50.7 13.4L-19 11.45L-18.75 12.5L-18.8 12.5L-24.9 12.95L-17.85 46.7L-13.35 45.2L-18.95 47.55L-22 46.4L-28.45 18.35L-28.55 21.2L-37.95 22.6L-37.95 26.45L-28.55 26.25L-28.8 27.5L-28.75 27.6L-38.3 29.15L-38.3 21.75L-28.8 20.45L-28.75 13.3L-46.1 14.8L-46.1 56.45L-28.8 50.5L-28.75 43.35L-38.3 46.05L-38.3 36.8L-29.5 34.8L-28.5 34.55L-28.8 34.6L-28.75 27.6M-79.05,17.6L-91.05 18.65L-91.05 71.9L-78.45 67.6L-79.1 33.25L-64.45 62.75L-55.5 59.7L-55.5 15.6L-65.1 16.4L-65 44.05L-79.05 17.6M-78.4,16.15L-69.8 31.75L-69.6 14.8L-55.15 14.25L-54.9 60.05L-66.05 63.55L-77.5 45.7L-77.5 67.95L-93 73.35L-94.85 70.8L-95 16.85L-94.65 16.6L-80.45 15.65L-78.4 16.15M14.65,18.1L14.4 17.25L8.55 17.4L9.05 15.7L9.35 15.15L9.95 14.55L11.1 14.6L12.4 16.95L15.35 16.35L14.65 18.1M8.7,18.75L12.35 20.65L13.65 21.75L8.7 18.75" />
<radialGradient
id="RadialGradID_27" gradientUnits="userSpaceOnUse" gradientTransform="matrix(0.135284, 0, 0, 0.0809631, 4.05, -6.2)" spreadMethod ="pad" cx="0" cy="0" r="819.2" fx="0" fy="0" >
<stop  offset="0.00392157"  style="stop-color:#FFFFFF;stop-opacity:1" />
<stop  offset="0.258824"  style="stop-color:#F1F1F1;stop-opacity:1" />
<stop  offset="0.85098"  style="stop-color:#737373;stop-opacity:1" />
<stop  offset="1"  style="stop-color:#373737;stop-opacity:1" />
</radialGradient>
<path style="fill:url(#RadialGradID_27) " d="M-41.9,-27.3L-39.8 -28.25L-37.7 -11.7L-36.05 -28.25L-35.6 -29.8L-33.35 -30.4L-31.25 -13.2L-29.5 -30.5L-29.1 -32.3L-15.85 -37.25L-15.85 -30.1L-21.7 -28.1L-21.7 -21.65L-15.85 -22.8L-15.85 -15.7L-21.7 -14.7L-21.7 -6.55L-14.55 -7L-9.25 -36.55L-8.4 -40.25L-3.1 -41.85L4.85 -5.2L11.55 -23.55L15.1 -33.35Q16.15 -35.2 16.7 -37.35L17.05 -38.7L17.35 -40.3L6.3 -36.95L6.15 -40.25L6.25 -45.85L27.45 -53.65L27.55 -51.65L27.55 -49.7L27.3 -45.95L26.95 -43.6L26.05 -40.5L23.1 -32L22.05 -29.3L21.05 -26.65L19.9 -23.65L18.8 -20.7L17.25 -16.5L15.75 -12.4L14.7 -9.2L31.3 -10.55L31.3 -55.4L59.45 -66.1L59.6 -53.5L42 -48L42 -36.85L59.6 -40.8L59.6 -28.3L42.1 -24.95L42.15 -11.5L65.4 -13.45L65.4 -68.45L81.75 -74.65L81.9 -73.3L81.9 -26.8L81.9 -21.95L81.95 -17.15L82.05 -15.35L82.2 -14.5L106.4 -16L106.25 -0.1L-0.6 0.4L-2.45 -7.85L-9.3 -7.3L-10.75 0.35L-25.6 0.35L-25.6 -32.2L-29.9 0.55L-32.65 0.45L-34.8 -18.05L-36.55 0.45L-38.85 0.6L-41.9 -27.3M-3.4,-15.15L-6.05 -30.9L-8.55 -14.3L-3.4 -15.15" />
<radialGradient
id="RadialGradID_28" gradientUnits="userSpaceOnUse" gradientTransform="matrix(0.0787964, 0, 0, 0.0498657, 27.55, 7.55)" spreadMethod ="pad" cx="0" cy="0" r="819.2" fx="0" fy="0" >
<stop  offset="0.00392157"  style="stop-color:#826C64;stop-opacity:1" />
<stop  offset="0.101961"  style="stop-color:#6B6361;stop-opacity:1" />
<stop  offset="1"  style="stop-color:#000000;stop-opacity:1" />
</radialGradient>
<path style="fill:url(#RadialGradID_28) " d="M38.1,14.5L22.65 17.25L18 17.8L18 13.3L41.5 10.3L41.35 14L38.1 14.5M17.95,8.5L17.95 3.8L41.5 3.05L41.45 6.65L17.95 8.5" />
<radialGradient
id="RadialGradID_29" gradientUnits="userSpaceOnUse" gradientTransform="matrix(0.123459, 0, 0, 0.0843658, 0.55, 3.35)" spreadMethod ="pad" cx="0" cy="0" r="819.2" fx="0" fy="0" >
<stop  offset="0.00392157"  style="stop-color:#E30202;stop-opacity:1" />
<stop  offset="0.313725"  style="stop-color:#C80000;stop-opacity:1" />
<stop  offset="0.698039"  style="stop-color:#800000;stop-opacity:1" />
<stop  offset="1"  style="stop-color:#430101;stop-opacity:1" />
</radialGradient>
<path style="fill:url(#RadialGradID_29) " d="M-18.8,12.55L-18.75 12.5L-19 11.45L-50.7 13.4L-50.7 55.7L-47.75 57.55L-28.75 50.95L-28.65 41.85L-31.65 40.75L-38 42.4L-38 37.45L-28.55 35.2L-28.5 34.55L-28.4 27.95L-28.65 27.55L-28.8 27.5L-28.55 26.25L-37.95 26.45L-37.95 22.6L-28.55 21.2L-28.45 18.35L-22 46.4L-18.95 47.55L-13.35 45.2L-12 36.8L-11.85 36.85L-10.95 42.7L-7.8 43.7L-2.95 41.65L0.5 20.95L0.65 21Q2.4 25.55 7.75 27.3L7.9 28.05L0.05 29.2L0.25 31Q1.95 39.75 9.55 37.95L10.95 37.5L11.85 36.75Q13.7 35.4 14.55 33.35L14.65 36.9L14.45 38.95L-52.7 64.35L-53.15 64.35L-53.5 64.6L-63.7 68.45L-64.1 68.45L-64.35 68.65L-68 70.05L-68.3 70.05L-68.45 70.25L-95 80.25L-96.3 80.6L-105.2 84.1L-106.25 84.15L-106.1 7.1L14.55 3.75L14.65 8.7L14.65 11.5L14.55 12L12.75 9.8L12.5 9.55L12.2 9.05L10.1 8.5Q5.25 7.6 2.1 11.05L2.05 10.65L2.1 10.2L1.9 9.75L-6.45 10.35L-7.15 16.05L-7.9 11.5L-7.95 10.85L-16.4 10.95L-17.7 18.2L-18.8 12.55M-80.45,15.65L-94.65 16.6L-95 16.85L-94.85 70.8L-93 73.35L-77.5 67.95L-77.5 45.7L-66.05 63.55L-54.9 60.05L-55.15 14.25L-69.6 14.8L-69.8 31.75L-78.4 16.15L-80.45 15.65" />
<linearGradient
id="LinearGradID_30" gradientUnits="userSpaceOnUse" gradientTransform="matrix(0, 0.017334, -0.0117493, 0, -70.8, 26.55)" spreadMethod ="pad" x1="-819.2" y1="0" x2="819.2" y2="0" >
<stop  offset="0" style="stop-color:#FFFFFF;stop-opacity:0.890196" />
<stop  offset="0.533333" style="stop-color:#DBCCCC;stop-opacity:0.898039" />
<stop  offset="0.596078" style="stop-color:#AA8888;stop-opacity:0.901961" />
<stop  offset="1" style="stop-color:#CEBDBD;stop-opacity:0.905882" />
</linearGradient>
<path style="fill:url(#LinearGradID_30) " d="M0.5,20.85L0.5 20.95L-2.95 41.65L-6.5 42.85L-9.75 22.65L-9.7 22.1L-9.95 21.65L-12 36.65L-12 36.8L-13.35 45.2L-17.85 46.7L-24.9 12.95L-18.8 12.5L-18.8 12.55L-17.7 18.2L-15.35 31.15L-12.05 11.85L-7.9 11.5L-7.15 16.05L-4.9 32.4L-2.15 11.1L2.05 10.65L2.1 11.05L0.5 20.85M15.55,28.05L14.55 33.35Q13.7 35.4 11.85 36.75L10.95 37.5L9.55 37.95Q8.85 37.9 8.15 37.55Q4.2 35.45 4.3 30.4L8.1 29.35L8.45 30.7L9.25 32.45L9.8 32.65Q11.25 32.45 11.85 31.15Q13.2 28.1 9.9 26.75Q4.15 24.2 4.55 17.85Q5.1 9.55 12.45 9.55L12.55 9.7L12.75 9.8L14.55 12L15.35 16.35L12.4 16.95L11.1 14.6L9.95 14.55L9.35 15.15L9.05 15.7L8.55 17.4L8.7 18.75L13.65 21.75L14.5 22.9L15.55 27.6L15.55 28.05M-28.8,34.6L-29.5 34.8L-38.3 36.8L-38.3 46.05L-28.75 43.35L-28.8 50.5L-46.1 56.45L-46.1 14.8L-28.75 13.3L-28.8 20.45L-38.3 21.75L-38.3 29.15L-28.75 27.6L-28.8 34.6M-65,44.05L-65.1 16.4L-55.5 15.6L-55.5 59.7L-64.45 62.75L-79.1 33.25L-78.45 67.6L-91.05 71.9L-91.05 18.65L-79.05 17.6L-65 44.05" />
</g>
</svg>
