<?xml version="1.0" encoding="utf-8"?>
<svg version="1.1" id="Layer_1"
xmlns="http://www.w3.org/2000/svg"
xmlns:xlink="http://www.w3.org/1999/xlink"
xmlns:author="http://www.sothink.com"
width="195px" height="16px"
xml:space="preserve">
<g id="481" transform="matrix(1, 0, 0, 1, -207, -6.55)">
<path style="fill:#FECC15;fill-opacity:1" d="M401.8,10.9L401.8 14.95L397.55 14.95L397.55 10.9L401.8 10.9M390.8,14.75L390.8 6.9L395.05 6.9L395.05 21.55L390.7 21.55L386.2 13.55L386.15 13.55L386.15 21.55L381.9 21.55L381.9 6.9L386.5 6.9L390.75 14.75L390.8 14.75M401.8,17.5L401.8 21.55L397.55 21.55L397.55 17.5L401.8 17.5M379.55,6.9L379.55 21.55L375 21.55L375 6.9L379.55 6.9M366.2,11.35L361.9 11.35L361.85 10.65L361.4 10.2L360.75 9.9L360.05 9.8L359.55 9.85L359 10L358.6 10.3Q358.45 10.5 358.45 10.8Q358.45 11.2 358.85 11.45L359.8 11.9L361.15 12.25L362.7 12.65L364.2 13.15L365.5 13.95L366.45 15.15Q366.8 15.85 366.8 16.85Q366.8 18.3 366.2 19.25L364.65 20.8Q363.7 21.4 362.5 21.65L360.05 21.9L359 21.85L357.65 21.55L356.2 21L354.9 20.1L353.95 18.65Q353.6 17.8 353.6 16.65L358.1 16.65L358.25 17.6Q358.55 18.25 359.15 18.45L360.45 18.65L361 18.6L361.65 18.4L362.1 18L362.3 17.35L362.15 16.85L361.65 16.5L360.7 16.1L359.15 15.65L357.4 15.1L355.8 14.4Q355.05 13.9 354.6 13.2Q354.15 12.5 354.15 11.4Q354.15 10.15 354.65 9.2Q355.15 8.3 356 7.7Q356.8 7.1 357.9 6.85L360.1 6.55L362.35 6.8Q363.45 7.05 364.3 7.65L365.65 9.1Q366.15 10 366.2 11.35M352.85,10.65L348.75 10.65L348.75 21.55L344.25 21.55L344.25 10.65L340.15 10.65L340.15 6.9L352.85 6.9L352.85 10.65M334.35,10.8Q333.9 10.4 332.6 10.4L330.5 10.4L330.5 13.3L332.85 13.3L333.5 13.25L334.15 13.05L334.65 12.65L334.8 11.85Q334.8 11.15 334.35 10.8M338.95,9.25Q339.35 10.05 339.35 11.1L339.2 12.25L338.8 13.3L338.1 14.15L337.15 14.75Q338.05 15.1 338.6 16.05Q339.15 17.05 339.3 18.4L339.35 19.1L339.4 20L339.55 20.9L339.8 21.55L335.3 21.55L335.05 20.45L334.9 19.3L334.8 18.25L334.5 17.35L333.95 16.7L332.9 16.45L330.5 16.45L330.5 21.55L325.95 21.55L325.95 6.9L334.55 6.9L336.4 7.2Q337.25 7.45 337.9 7.95L338.95 9.25M317.4,11.8L316 16.3L318.75 16.3L317.45 11.8L317.4 11.8M319.65,6.9L324.95 21.55L320.3 21.55L319.7 19.45L315 19.45L314.35 21.55L309.85 21.55L315.25 6.9L319.65 6.9M306.9,10.65L306.9 21.55L302.4 21.55L302.4 10.65L298.3 10.65L298.3 6.9L311 6.9L311 10.65L306.9 10.65M297,11.35L292.7 11.35L292.65 10.65L292.2 10.2L291.55 9.9L290.85 9.8L290.35 9.85L289.8 10Q289.55 10.1 289.4 10.3Q289.25 10.5 289.25 10.8Q289.25 11.2 289.65 11.45L290.6 11.9L291.95 12.25L293.5 12.65L295 13.15L296.3 13.95L297.25 15.15Q297.6 15.85 297.6 16.85Q297.6 18.3 297 19.25L295.45 20.8Q294.5 21.4 293.3 21.65L290.85 21.9L289.8 21.85L288.45 21.55L287 21L285.7 20.1L284.75 18.65Q284.4 17.8 284.4 16.65L288.9 16.65L289.05 17.6Q289.35 18.25 289.95 18.45L291.25 18.65L291.8 18.6L292.45 18.4L292.9 18L293.1 17.35L292.95 16.85L292.45 16.5L291.5 16.1L289.95 15.65L288.2 15.1Q287.3 14.85 286.6 14.4Q285.85 13.9 285.4 13.2Q284.95 12.5 284.95 11.4Q284.95 10.15 285.45 9.2Q285.95 8.3 286.8 7.7Q287.6 7.1 288.7 6.85L290.9 6.55L293.15 6.8Q294.25 7.05 295.1 7.65Q295.9 8.2 296.45 9.1Q296.95 10 297 11.35M272.7,10.65L272.7 21.55L268.2 21.55L268.2 10.65L264.1 10.65L264.1 6.9L276.8 6.9L276.8 10.65L272.7 10.65M254.85,10.65L254.85 12.5L261.75 12.5L261.75 15.95L254.85 15.95L254.85 17.8L262.65 17.8L262.65 21.55L250.3 21.55L250.3 6.9L262.45 6.9L262.45 10.65L254.85 10.65M243.55,10.2L242.9 9.9L242.2 9.8L241.7 9.85L241.15 10L240.75 10.3Q240.6 10.5 240.6 10.8Q240.6 11.2 241 11.45L241.95 11.9L243.3 12.25L244.85 12.65L246.35 13.15Q247.1 13.45 247.65 13.95L248.6 15.15Q248.95 15.85 248.95 16.85Q248.95 18.3 248.35 19.25L246.8 20.8Q245.85 21.4 244.65 21.65L242.2 21.9L241.15 21.85L239.8 21.55L238.35 21L237.05 20.1L236.1 18.65Q235.75 17.8 235.75 16.65L240.25 16.65L240.4 17.6Q240.7 18.25 241.3 18.45L242.6 18.65L243.15 18.6L243.8 18.4L244.25 18L244.45 17.35L244.3 16.85L243.8 16.5L242.85 16.1L241.3 15.65L239.55 15.1L237.95 14.4Q237.2 13.9 236.75 13.2Q236.3 12.5 236.3 11.4Q236.3 10.15 236.8 9.2Q237.3 8.3 238.15 7.7Q238.95 7.1 240.05 6.85L242.25 6.55L244.5 6.8Q245.6 7.05 246.45 7.65Q247.25 8.2 247.8 9.1Q248.3 10 248.35 11.35L244.05 11.35L244 10.65L243.55 10.2M234.35,10.65L226.75 10.65L226.75 12.5L233.65 12.5L233.65 15.95L226.75 15.95L226.75 17.8L234.55 17.8L234.55 21.55L222.2 21.55L222.2 6.9L234.35 6.9L234.35 10.65M213.65,10.4L211.55 10.4L211.55 13.3L213.9 13.3L214.55 13.25L215.2 13.05L215.7 12.65L215.85 11.85Q215.85 11.15 215.4 10.8Q214.95 10.4 213.65 10.4M220.25,12.25L219.85 13.3L219.15 14.15L218.2 14.75Q219.1 15.1 219.65 16.05Q220.2 17.05 220.35 18.4L220.4 19.1L220.45 20L220.6 20.9L220.85 21.55L216.35 21.55Q216.15 21 216.1 20.45L215.95 19.3L215.85 18.25L215.55 17.35L215 16.7L213.95 16.45L211.55 16.45L211.55 21.55L207 21.55L207 6.9L215.6 6.9L217.45 7.2Q218.3 7.45 218.95 7.95L220 9.25Q220.4 10.05 220.4 11.1L220.25 12.25" />
</g>
</svg>
