<?xml version="1.0" encoding="utf-8"?>
<svg version="1.1" id="Layer_1"
xmlns="http://www.w3.org/2000/svg"
xmlns:xlink="http://www.w3.org/1999/xlink"
xmlns:author="http://www.sothink.com"
width="231px" height="23px"
xml:space="preserve">
<g id="496" transform="matrix(1, 0, 0, 1, -3.15, -8.65)">
<path style="fill:#FECC15;fill-opacity:1" d="M230.95,10.3Q232.15 11.15 232.9 12.45L233.25 13.25L230.1 13.25Q230.45 14.25 230.45 15.55L224.9 15.55Q224.95 14.8 224.65 14.3L223.85 13.55L223.3 13.25L226.45 13.25L225.85 13.1L224.6 12.95L223.7 13.05Q223.35 13.1 223.05 13.25L219.9 13.25L219.65 13.35Q219.3 13.55 219 13.9L218.8 14.8Q218.8 15.4 219.3 15.8L220.7 16.5L222.7 17L224.95 17.6L227.25 18.4Q228.35 18.85 229.2 19.55Q230.1 20.25 230.6 21.3Q231.15 22.3 231.15 23.75Q231.15 25.8 230.35 27.15Q229.55 28.55 228.25 29.35Q226.95 30.2 225.3 30.55L221.85 30.9L218.35 30.5Q216.7 30.05 215.4 29.15Q214.1 28.2 213.35 26.75Q212.6 25.35 212.6 23.25L218.15 23.25Q218.25 25.15 219.3 25.9Q220.4 26.6 222.2 26.6L223.45 26.5L224.5 26.1L225.3 25.45L225.6 24.4Q225.6 23.7 225.05 23.25Q224.55 22.8 223.7 22.45L221.75 21.9L219.45 21.3L217.2 20.5L215.2 19.35Q214.3 18.65 213.75 17.65Q213.2 16.6 213.2 15.15Q213.2 14.1 213.5 13.25L210.75 13.25L206 30.45L200.45 30.45L197.5 15.75L197.45 15.75L194.5 30.45L188.85 30.45L184.25 13.25L181.5 13.25L181.5 13.55L170.1 13.55L170.1 17.3L180.55 17.3L180.55 21.6L170.1 21.6L170.1 25.65L181.85 25.65L181.85 30.45L164.5 30.45L164.5 13.25L167.65 13.25L167.65 9.1L184.65 9.1L184.65 13.25L187.4 13.25L186.25 9.1L191.8 9.1L192.6 13.25L189.45 13.25L191.7 24.7L191.75 24.7L194.05 13.25L197.2 13.25L198.05 9.1L203.25 9.1L204.1 13.25L200.95 13.25L203.25 24.7L203.3 24.7L205.55 13.25L208.7 13.25L209.5 9.1L215.05 9.1L213.9 13.25L216.65 13.25L217.15 12.15Q217.95 10.95 219.2 10.15Q220.45 9.35 222 9L225.05 8.65L228.2 9.05Q229.75 9.45 230.95 10.3M163.9,13.25L160.75 13.25L160.75 30.45L155 30.45L147.6 17.15L147.55 17.15L147.55 30.45L142.3 30.45L142.3 13.25L145.45 13.25L145.45 9.1L151.2 9.1L153.55 13.25L150.4 13.25L155.45 22.25L155.5 22.25L155.5 13.25L158.65 13.25L158.65 9.1L163.9 9.1L163.9 13.25M123.45,13.25L120.3 13.25L120.3 25.65L130.25 25.65L130.25 30.45L114.7 30.45L114.7 13.25L117.85 13.25L117.85 9.1L123.45 9.1L123.45 13.25M111.2,13.25L111.2 13.55L99.8 13.55L99.8 17.3L110.25 17.3L110.25 21.6L99.8 21.6L99.8 25.65L111.55 25.65L111.55 30.45L94.2 30.45L94.2 13.25L91.2 13.25L91.2 13.4L79.95 25.65L91.6 25.65L91.6 30.45L73.05 30.45L73.05 25.9L84 13.9L73.7 13.9L73.7 13.25L76.85 13.25L76.85 9.1L94.35 9.1L94.35 13.25L97.35 13.25L97.35 9.1L114.35 9.1L114.35 13.25L111.2 13.25M61.8,15L59.35 22.5L64.2 22.5L61.85 15L61.8 15M69.35,13.25L66.2 13.25L72.65 30.45L66.85 30.45L65.55 26.6L58.1 26.6L56.75 30.45L51.05 30.45L57.45 13.25L60.6 13.25L62.15 9.1L67.8 9.1L69.35 13.25M49.7,13.25L49.7 13.55L38.3 13.55L38.3 17.3L48.75 17.3L48.75 21.6L38.3 21.6L38.3 25.65L50.05 25.65L50.05 30.45L32.7 30.45L32.7 13.25L29.65 13.25L24.9 30.45L19.35 30.45L16.4 15.75L16.35 15.75L13.4 30.45L7.75 30.45L3.15 13.25L6.3 13.25L5.15 9.1L10.7 9.1L11.5 13.25L8.35 13.25L10.6 24.7L10.65 24.7L12.95 13.25L16.1 13.25L16.95 9.1L22.15 9.1L23 13.25L19.85 13.25L22.15 24.7L22.2 24.7L24.45 13.25L27.6 13.25L28.4 9.1L33.95 9.1L32.8 13.25L35.85 13.25L35.85 9.1L52.85 9.1L52.85 13.25L49.7 13.25" />
</g>
</svg>
