<?xml version="1.0" encoding="utf-8"?>
<svg version="1.1" id="Layer_1"
xmlns="http://www.w3.org/2000/svg"
xmlns:xlink="http://www.w3.org/1999/xlink"
xmlns:author="http://www.sothink.com"
width="218px" height="119px"
xml:space="preserve">
<g id="454" transform="matrix(1, 0, 0, 1, 108.4, 59.7)">
<path style="fill:#980000;fill-opacity:1" d="M2.95,43.75L2.95 43.8L2.9 43.75L2.95 43.75" />
<path style="fill:#000000;fill-opacity:1" d="M38.95,-9.5L38.6 -6.85L26.6 -7.15L28.55 -11.8L26.95 -7.7L30.4 -7.65L30.4 -15.25L29.45 -13.85L36.55 -36.75L18.4 -39.8L18.4 -32.15L29.1 -30.8L17.05 -4.4L7.05 -41L6.7 -41.65L-0.85 -42.8L-11.25 -8.2L-27 -8.7L-27.05 -19.75L-13.95 -19L-13.95 -27.55L-27.15 -28.8L-27.15 -37.65L-13.95 -36.1L-13.95 -44.8L-48.55 -50L-55.45 -20.4L-63.5 -52.3L-74.35 -53.9L-83.1 -22.15L-91.6 -56.5L-107.15 -58.85L-89.25 0.15L-77.6 0.25L-69 -33.9L-60.75 0.05L-50.5 0.2L-37.65 -47.6L-37.2 0.3L-5.35 0.45L-4.55 0.35L-2.1 -7.9L8.05 -7.7L10.3 0.25L11.7 0.45L66.6 0.55L66.6 1.05L3.7 1.05L1.6 -6.15L-2.15 -6.15L-4.25 1.1L-40.1 1.1L-40.15 -34.1L-49.8 1.15L-61.45 1.15L-67.5 -26.15L-73.9 1.15L-89.9 1.15L-108.4 -59.7L-90.4 -56.95L-81.45 -29.55L-75.05 -54.6L-62.65 -52.75L-55.55 -22.3L-49.35 -50.65L-13.4 -45.2L-13.4 -35L-17.35 -31.5L-26.45 -32.45L-26.45 -29.4L-13.45 -28.1L-13.45 -17.95L-26.15 -16.6L-26.45 -9.45L-15.85 -9.1L-15.65 -9.7L-15.5 -10.35L-14.85 -12.35L-14.55 -13.15L-14.25 -13.95L-14.15 -14.35L-14.05 -14.85L-13.75 -15.65L-13.65 -16.05L-13.5 -16.55L-13.25 -17.35L-12.75 -19.05Q-10.85 -28.2 -7.2 -36.35Q-6.2 -38.5 -4.6 -40.3L-1.65 -43.4L7.05 -42.1L14.6 -14.3L20.8 -27.4L11.1 -28.55L11.1 -36.9L17.25 -40.45L36.25 -37.65L36.85 -36.8L38.95 -36.8L38.95 -9.5M54.7,-6.3L45.25 -7L45.75 -12.85L45 -12.7L44.95 -15L52.95 -14.55L52.95 -21.25L45 -22.55L45.8 -22.65L45.8 -24.6L45 -25.05L44.95 -28.85L53 -27.9L53.05 -34.5L55.15 -34.25L54.7 -6.3M60.55,-6.55L66.6 -5.9L60.8 -5.95L60.55 -6.55M6.65,-15L-0.65 -15.3L3.1 -32.2L6.65 -15M109.4,5.1L109.4 13.55L22.45 10.8L22.45 4.1L102.1 4.5L109.4 5.1M108.9,5.65L22.75 4.7L22.75 10.35L108.9 12.75L108.9 5.65M108.95,27.95L109 20.85L22.7 16.4L22.65 15.9L26.8 14.5L102.55 17.75L109.4 20.1L109.05 28.7L22.9 22.65L22.7 22.15L108.95 27.95M109.35,35.25L109.15 43.65L23.35 34.55L22.45 34.25L22.4 27.95L26 25.1L103.2 31.1L109.35 35.25M108.75,35.85L22.65 28.35L22.75 34.05L23.7 34.25L108.9 43.2L108.95 37.6L108.75 35.85M108.85,51.1L22.7 40.15L22.7 46.05L108.9 58.65L108.85 51.1M109.15,59L22.4 46.25L22.45 39.65L26 35.8L103.3 44.4L109.4 50.85L109.15 59M2.45,43.6L2.95 43.8L-0.35 43.3L2.45 43.6M16,45.5L16 4.35L-62.3 3.4L-59.3 3.2L-41.45 3.25L-24.6 3.25L-20.7 3.3L-16.85 3.3L-9.5 3.3L-8.05 3.3L20.55 3.55L20.55 41.6L16.6 45.8L12 45.15L16 45.5" />
<path style="fill:#FFFFFF;fill-opacity:1" d="M-8.6,28.45L-0.5 28.05Q-4.45 26.35 -6.75 22.65Q-9.4 18.3 -6.7 14.15Q-2 7.1 5.65 10.05Q11.5 12.35 11.45 18.7L3.05 18.95L1.8 16.45L0.9 16.05L0.5 16.85Q1 18.45 2.4 19Q8.75 21.8 10.85 27.95Q12.85 33.7 8.3 37.55Q3.35 41.8 -2.65 38.45L-4.2 37.45Q-1.3 39.5 3.6 39.3Q6.1 39.05 7.15 36.85Q11.85 27.05 1.9 22.4Q-1.2 21 -2.3 18.1Q-1.4 15.9 0.8 15.5L1.15 15.55Q2.35 16.15 2.95 17.5L3.25 18.35L8.75 18.6Q6.95 8.45 -3.4 11.3Q-4.45 11.5 -5.05 12.45Q-10.15 20.55 -1.9 26.6Q0.65 28.55 2.75 30.85Q2.75 32.15 2 33.2L1.65 33.7Q1.05 34.35 0.3 34.3Q-1.95 33.2 -2.8 30.75L-3.05 29.95L-8.25 29.45Q-7.75 34.15 -5.2 36.6Q-8.5 33.55 -8.6 28.45M-59.4,31L-59.35 16.85L-55.55 29.9L-55.7 30.7L-57.35 31.05Q-59.95 31.85 -62.4 31.1L-62.6 30.6L-59.4 31M-62.65,8.4L-62.4 7.7L-56.1 7.7L-55.2 9.7L-55.05 21.9L-59.5 8.45L-62.65 8.4M-25.9,9L-19.2 8.85L-17.6 18.05L-16.1 9.1L-8.15 9.1L-14.05 36.15Q-17.2 38.15 -20.8 36.65L-21.1 36L-17 36.65L-11.2 10.25L-16.1 10L-18.9 27.7L-22.1 9.75L-25.8 9.6L-26.1 10.05L-25.9 9M-27.05,14.95L-28.9 23.8L-31.45 9.4L-35.7 9.4L-34.85 14.3L-40.05 14.45L-40.1 17.05L-34.95 17.55L-34.9 23.2L-36.1 23.65L-37.1 23.9L-39.15 23.85L-40.15 23.55L-40.2 27.1L-35 27.65L-34.85 33.5L-38.8 34.25L-47.6 32.6L-38.35 33.8L-38.35 29.1L-43.75 28.45L-43.75 22.9L-38.35 23.25L-38.35 18.65L-43.75 18.1L-43.75 13.7L-38.3 13.9L-38.25 9.5L-47.6 8.85L-47.55 8.3L-28.65 8.7L-27.05 14.95M-23.9,34.9L-24.9 35.3Q-27.95 36.6 -30.7 34.85L-27 35.35L-24.05 17.9L-22.55 26.9L-23.9 34.9M-51.6,8.8L-55.1 8.6L-54.3 7.7L-48 8L-48 31.8L-51.6 31.95L-51.6 8.8M-52.3,32L-54.5 32.05L-54.9 31.65L-52.3 32" />
<radialGradient
id="RadialGradID_6" gradientUnits="userSpaceOnUse" gradientTransform="matrix(0.135284, 0, 0, 0.0809631, 4.05, -6.2)" spreadMethod ="pad" cx="0" cy="0" r="819.2" fx="0" fy="0" >
<stop  offset="0.00392157"  style="stop-color:#FFFFFF;stop-opacity:1" />
<stop  offset="0.258824"  style="stop-color:#F1F1F1;stop-opacity:1" />
<stop  offset="0.85098"  style="stop-color:#737373;stop-opacity:1" />
<stop  offset="1"  style="stop-color:#373737;stop-opacity:1" />
</radialGradient>
<path style="fill:url(#RadialGradID_6) " d="M60.8,-5.95L66.6 -5.9L66.6 0.55L11.7 0.45L10.3 0.25L8.05 -7.7L-2.1 -7.9L-4.55 0.35L-5.35 0.45L-37.2 0.3L-37.65 -47.6L-50.5 0.2L-60.75 0.05L-69 -33.9L-77.6 0.25L-89.25 0.15L-107.15 -58.85L-91.6 -56.5L-83.1 -22.15L-74.35 -53.9L-63.5 -52.3L-55.45 -20.4L-48.55 -50L-13.95 -44.8L-13.95 -36.1L-27.15 -37.65L-27.15 -28.8L-13.95 -27.55L-13.95 -19L-27.05 -19.75L-27 -8.7L-11.25 -8.2L-0.85 -42.8L6.7 -41.65L7.05 -41L17.05 -4.4L29.1 -30.8L18.4 -32.15L18.4 -39.8L36.55 -36.75L29.45 -13.85L28.55 -11.8L26.6 -7.15L38.6 -6.85L38.95 -9.5L38.95 -36.8L52.95 -34.7L53.05 -34.5L53 -27.9L44.95 -28.85L45 -25.05L45 -22.55L52.95 -21.25L52.95 -14.55L44.95 -15L45 -12.7L45.25 -7L54.7 -6.3L55.15 -34.25L55.15 -34.35L60.45 -33.6L60.55 -6.55L60.8 -5.95M3.1,-32.2L-0.65 -15.3L6.65 -15L3.1 -32.2" />
<radialGradient
id="RadialGradID_7" gradientUnits="userSpaceOnUse" gradientTransform="matrix(0.0787964, 0, 0, 0.0498657, 27.55, 7.55)" spreadMethod ="pad" cx="0" cy="0" r="819.2" fx="0" fy="0" >
<stop  offset="0.00392157"  style="stop-color:#826C64;stop-opacity:1" />
<stop  offset="0.101961"  style="stop-color:#6B6361;stop-opacity:1" />
<stop  offset="1"  style="stop-color:#000000;stop-opacity:1" />
</radialGradient>
<path style="fill:url(#RadialGradID_7) " d="M108.9,12.75L22.75 10.35L22.75 4.7L108.9 5.65L108.9 12.75M22.7,16.4L109 20.85L108.95 27.95L22.7 22.15L22.7 16.4M108.95,37.6L108.9 43.2L23.7 34.25L22.75 34.05L22.65 28.35L108.75 35.85L108.95 37.6M108.9,58.65L22.7 46.05L22.7 40.15L108.85 51.1L108.9 58.65" />
<radialGradient
id="RadialGradID_8" gradientUnits="userSpaceOnUse" gradientTransform="matrix(0.123459, 0, 0, 0.0843658, 0.55, 3.35)" spreadMethod ="pad" cx="0" cy="0" r="819.2" fx="0" fy="0" >
<stop  offset="0.00392157"  style="stop-color:#E30202;stop-opacity:1" />
<stop  offset="0.313725"  style="stop-color:#C80000;stop-opacity:1" />
<stop  offset="0.698039"  style="stop-color:#800000;stop-opacity:1" />
<stop  offset="1"  style="stop-color:#430101;stop-opacity:1" />
</radialGradient>
<path style="fill:url(#RadialGradID_8) " d="M-4.2,37.45L-2.65 38.45Q3.35 41.8 8.3 37.55Q12.85 33.7 10.85 27.95Q8.75 21.8 2.4 19Q1 18.45 0.5 16.85L0.9 16.05L1.8 16.45L3.05 18.95L11.45 18.7Q11.5 12.35 5.65 10.05Q-2 7.1 -6.7 14.15Q-9.4 18.3 -6.75 22.65Q-4.45 26.35 -0.5 28.05L-8.6 28.45Q-8.5 33.55 -5.2 36.6L-4.2 37.45M-0.35,43.3L-61.55 34.25L-62.4 33.9L-62.4 31.1Q-59.95 31.85 -57.35 31.05L-55.7 30.7L-55.55 29.9L-54.9 31.65L-54.5 32.05L-52.3 32L-51.6 31.95L-48 31.8L-48 8L-54.3 7.7L-55.1 8.6L-55.2 9.7L-56.1 7.7L-62.4 7.7L-62.3 3.4L16 4.35L16 45.5L12 45.15L2.95 43.75L2.45 43.6L-0.35 43.3M-22.55,26.9L-21.1 36L-20.8 36.65Q-17.2 38.15 -14.05 36.15L-8.15 9.1L-16.1 9.1L-17.6 18.05L-19.2 8.85L-25.9 9L-26.1 10.05L-27.05 14.95L-28.65 8.7L-47.55 8.3L-47.6 8.85L-47.6 32.6L-38.8 34.25L-34.85 33.5L-35 27.65L-40.2 27.1L-40.15 23.55L-39.15 23.85L-37.1 23.9L-36.1 23.65L-34.9 23.2L-34.95 17.55L-40.1 17.05L-40.05 14.45L-34.85 14.3L-30.7 34.85Q-27.95 36.6 -24.9 35.3L-23.9 34.9L-22.55 26.9" />
<linearGradient
id="LinearGradID_9" gradientUnits="userSpaceOnUse" gradientTransform="matrix(0, 0.017334, -0.0117493, 0, -70.8, 26.55)" spreadMethod ="pad" x1="-819.2" y1="0" x2="819.2" y2="0" >
<stop  offset="0" style="stop-color:#FFFFFF;stop-opacity:0.890196" />
<stop  offset="0.533333" style="stop-color:#DBCCCC;stop-opacity:0.898039" />
<stop  offset="0.596078" style="stop-color:#AA8888;stop-opacity:0.901961" />
<stop  offset="1" style="stop-color:#CEBDBD;stop-opacity:0.905882" />
</linearGradient>
<path style="fill:url(#LinearGradID_9) " d="M-5.2,36.6Q-7.75 34.15 -8.25 29.45L-3.05 29.95L-2.8 30.75Q-1.95 33.2 0.3 34.3Q1.05 34.35 1.65 33.7L2 33.2Q2.75 32.15 2.75 30.85Q0.65 28.55 -1.9 26.6Q-10.15 20.55 -5.05 12.45Q-4.45 11.5 -3.4 11.3Q6.95 8.45 8.75 18.6L3.25 18.35L2.95 17.5Q2.35 16.15 1.15 15.55L0.8 15.5Q-1.4 15.9 -2.3 18.1Q-1.2 21 1.9 22.4Q11.85 27.05 7.15 36.85Q6.1 39.05 3.6 39.3Q-1.3 39.5 -4.2 37.45L-5.2 36.6M-62.6,30.6L-62.65 8.4L-59.5 8.45L-55.05 21.9L-55.2 9.7L-55.1 8.6L-51.6 8.8L-51.6 31.95L-52.3 32L-54.9 31.65L-55.55 29.9L-59.35 16.85L-59.4 31L-62.6 30.6M-22.55,26.9L-24.05 17.9L-27 35.35L-30.7 34.85L-34.85 14.3L-35.7 9.4L-31.45 9.4L-28.9 23.8L-27.05 14.95L-26.1 10.05L-25.8 9.6L-22.1 9.75L-18.9 27.7L-16.1 10L-11.2 10.25L-17 36.65L-21.1 36L-22.55 26.9M-47.6,8.85L-38.25 9.5L-38.3 13.9L-43.75 13.7L-43.75 18.1L-38.35 18.65L-38.35 23.25L-43.75 22.9L-43.75 28.45L-38.35 29.1L-38.35 33.8L-47.6 32.6L-47.6 8.85" />
</g>
</svg>
