<?xml version="1.0" encoding="utf-8"?>
<svg version="1.1" id="Layer_1"
xmlns="http://www.w3.org/2000/svg"
xmlns:xlink="http://www.w3.org/1999/xlink"
xmlns:author="http://www.sothink.com"
width="200px" height="16px"
xml:space="preserve">
<g id="484" transform="matrix(1, 0, 0, 1, -207, -6.55)">
<path style="fill:#FECC15;fill-opacity:1" d="M406.3,14.95L402.05 14.95L402.05 11.6L406.3 11.6L406.3 14.95M406.3,18.05L402.05 18.05L402.05 17.5L406.3 17.5L406.3 18.05M399.55,11.6L399.55 18.05L401.8 18.05L401.8 21.55L397.55 21.55L397.55 18.05L395.05 18.05L395.05 21.55L390.7 21.55L388.75 18.05L386.4 18.05L386.4 11.6L384.05 11.6L384.05 18.05L386.15 18.05L386.15 21.55L381.9 21.55L381.9 18.05L379.55 18.05L379.55 21.55L375 21.55L375 18.05L379.5 18.05L379.5 11.6L375 11.6L375 6.9L379.55 6.9L379.55 11.6L381.9 11.6L381.9 6.9L386.5 6.9L389.05 11.6L390.8 11.6L390.8 6.9L395.05 6.9L395.05 11.6L393.55 11.6L395.25 14.75L395.3 14.75L395.3 11.6L397.55 11.6L397.55 10.9L401.8 10.9L401.8 11.6L399.55 11.6M390.7,13.55L390.65 13.55L390.65 18.05L393.25 18.05L390.7 13.55M366.2,11.35L361.9 11.35L361.85 10.65L361.4 10.2L360.75 9.9L360.05 9.8L359.55 9.85L359 10L358.6 10.3Q358.45 10.5 358.45 10.8Q358.45 11.2 358.85 11.45L359.1 11.6L363.6 11.6L364.3 11.9L365.65 12.25L367.2 12.65L368.7 13.15L370 13.95L370.95 15.15Q371.3 15.85 371.3 16.85L371.2 18.05L366.7 18.05L366.2 19.25L364.65 20.8Q363.7 21.4 362.5 21.65L360.05 21.9L359 21.85L357.65 21.55L356.2 21L354.9 20.1L353.95 18.65L353.75 18.05L358.25 18.05L358.1 16.65L362.6 16.65L362.75 17.6L363.05 18.05L366.55 18.05L366.6 18L366.8 17.35L366.65 16.85L366.15 16.5L365.2 16.1L363.65 15.65L361.9 15.1Q361 14.85 360.3 14.4Q359.55 13.9 359.1 13.2Q358.7 12.55 358.65 11.6L354.15 11.6L354.15 11.4Q354.15 10.15 354.65 9.2Q355.15 8.3 356 7.7Q356.8 7.1 357.9 6.85L360.1 6.55L362.35 6.8Q363.45 7.05 364.3 7.65L365.65 9.1Q366.15 10 366.2 11.35M353.25,11.6L353.25 18.05L348.75 18.05L348.75 21.55L344.25 21.55L344.25 18.05L348.75 18.05L348.75 11.6L344.25 11.6L344.25 10.65L340.15 10.65L340.15 6.9L352.85 6.9L352.85 10.65L348.75 10.65L348.75 11.6L353.25 11.6M362.05,18.05L358.55 18.05L359.15 18.45L360.45 18.65L361 18.6L361.65 18.4L362.05 18.05M337.9,7.95L338.95 9.25Q339.35 10.05 339.35 11.1L339.35 11.6L343.85 11.6L343.7 12.25L343.3 13.3L342.6 14.15L341.65 14.75Q342.55 15.1 343.1 16.05Q343.6 16.9 343.75 18.05L339.3 18.05L339 17.35L338.45 16.7L337.4 16.45L335 16.45L335 18.05L339.25 18.05L339.3 18.4L339.35 19.1L339.4 20L339.55 20.9L339.8 21.55L335.3 21.55L335.05 20.45L334.9 19.3L334.8 18.25L334.8 18.05L330.5 18.05L330.5 21.55L325.95 21.55L325.95 18.05L323.7 18.05L324.95 21.55L320.3 21.55L319.7 19.45L315 19.45L314.35 21.55L309.85 21.55L311.15 18.05L306.9 18.05L306.9 21.55L302.4 21.55L302.4 18.05L306.9 18.05L306.9 11.6L302.4 11.6L302.4 10.65L298.3 10.65L298.3 6.9L311 6.9L311 10.65L306.9 10.65L306.9 11.6L311.4 11.6L311.4 18.05L315.65 18.05L318.05 11.6L313.55 11.6L315.25 6.9L319.65 6.9L321.35 11.6L325.85 11.6L328.2 18.05L330.45 18.05L330.45 11.6L325.95 11.6L325.95 6.9L334.55 6.9L336.4 7.2Q337.25 7.45 337.9 7.95M334.35,10.8Q333.9 10.4 332.6 10.4L330.5 10.4L330.5 11.6L334.8 11.6L334.35 10.8M339.3,11.6L335 11.6L335 13.3L337.35 13.3L338 13.25L338.65 13.05L339.15 12.65L339.3 11.85L339.3 11.6M321.9,11.8L320.5 16.3L323.25 16.3L321.95 11.8L321.9 11.8M296.45,12.25L298 12.65L299.5 13.15Q300.25 13.45 300.8 13.95L301.75 15.15Q302.1 15.85 302.1 16.85L302 18.05L297.5 18.05L297 19.25L295.45 20.8Q294.5 21.4 293.3 21.65L290.85 21.9L289.8 21.85L288.45 21.55L287 21L285.7 20.1L284.75 18.65L284.55 18.05L289.05 18.05L288.9 16.65L293.4 16.65L293.55 17.6L293.85 18.05L297.35 18.05L297.4 18L297.6 17.35L297.45 16.85Q297.3 16.65 296.95 16.5L296 16.1L294.45 15.65L292.7 15.1Q291.8 14.85 291.1 14.4Q290.35 13.9 289.9 13.2Q289.5 12.55 289.45 11.6L284.95 11.6L284.95 11.4Q284.95 10.15 285.45 9.2Q285.95 8.3 286.8 7.7Q287.6 7.1 288.7 6.85L290.9 6.55L293.15 6.8Q294.25 7.05 295.1 7.65Q295.9 8.2 296.45 9.1Q296.95 10 297 11.35L292.7 11.35L292.65 10.65L292.2 10.2L291.55 9.9L290.85 9.8L290.35 9.85L289.8 10Q289.55 10.1 289.4 10.3Q289.25 10.5 289.25 10.8Q289.25 11.2 289.65 11.45L289.9 11.6L294.4 11.6L295.1 11.9L296.45 12.25M289.95,18.45L291.25 18.65L291.8 18.6L292.45 18.4L292.85 18.05L289.35 18.05L289.95 18.45M276.8,10.65L272.7 10.65L272.7 11.6L277.2 11.6L277.2 18.05L272.7 18.05L272.7 21.55L268.2 21.55L268.2 18.05L272.7 18.05L272.7 11.6L268.2 11.6L268.2 10.65L264.1 10.65L264.1 6.9L276.8 6.9L276.8 10.65M267.15,18.05L262.65 18.05L262.65 21.55L250.3 21.55L250.3 18.05L248.85 18.05L248.35 19.25L246.8 20.8Q245.85 21.4 244.65 21.65L242.2 21.9L241.15 21.85L239.8 21.55L238.35 21L237.05 20.1L236.1 18.65L235.9 18.05L234.55 18.05L234.55 21.55L222.2 21.55L222.2 18.05L220.35 18.05L220.05 17.35L219.5 16.7L218.45 16.45L216.05 16.45L216.05 18.05L220.3 18.05L220.35 18.4L220.4 19.1L220.45 20L220.6 20.9L220.85 21.55L216.35 21.55Q216.15 21 216.1 20.45L215.95 19.3L215.85 18.25L215.85 18.05L211.55 18.05L211.55 21.55L207 21.55L207 18.05L211.5 18.05L211.5 11.6L207 11.6L207 6.9L215.6 6.9L217.45 7.2Q218.3 7.45 218.95 7.95L220 9.25Q220.4 10.05 220.4 11.1L220.4 11.6L222.2 11.6L222.2 6.9L234.35 6.9L234.35 10.65L226.75 10.65L226.75 11.6L231.25 11.6L231.25 12.5L238.15 12.5L238.15 15.95L231.25 15.95L231.25 17.8L239.05 17.8L239.05 18.05L240.4 18.05Q240.25 17.4 240.25 16.65L244.75 16.65L244.9 17.6L245.2 18.05L248.7 18.05L248.75 18L248.95 17.35L248.8 16.85Q248.65 16.65 248.3 16.5L247.35 16.1L245.8 15.65L244.05 15.1L242.45 14.4Q241.7 13.9 241.25 13.2Q240.85 12.55 240.8 11.6L236.3 11.6L236.3 11.4Q236.3 10.15 236.8 9.2Q237.3 8.3 238.15 7.7Q238.95 7.1 240.05 6.85L242.25 6.55L244.5 6.8Q245.6 7.05 246.45 7.65Q247.25 8.2 247.8 9.1Q248.3 10 248.35 11.35L244.05 11.35L244 10.65L243.55 10.2L242.9 9.9L242.2 9.8L241.7 9.85L241.15 10L240.75 10.3Q240.6 10.5 240.6 10.8Q240.6 11.2 241 11.45L241.25 11.6L245.75 11.6L246.45 11.9L247.8 12.25L249.35 12.65L250.85 13.15L252.15 13.95L253.1 15.15Q253.45 15.85 253.45 16.85L253.35 18.05L254.8 18.05L254.8 11.6L250.3 11.6L250.3 6.9L262.45 6.9L262.45 10.65L254.85 10.65L254.85 11.6L259.35 11.6L259.35 12.5L266.25 12.5L266.25 15.95L259.35 15.95L259.35 17.8L267.15 17.8L267.15 18.05M244.2,18.05L240.7 18.05L241.3 18.45L242.6 18.65L243.15 18.6L243.8 18.4L244.2 18.05M224.9,11.6L224.75 12.25L224.35 13.3L223.65 14.15Q223.25 14.55 222.7 14.75Q223.6 15.1 224.15 16.05Q224.65 16.9 224.8 18.05L226.7 18.05L226.7 11.6L224.9 11.6M215.4,10.8Q214.95 10.4 213.65 10.4L211.55 10.4L211.55 11.6L215.85 11.6L215.4 10.8M220.35,11.6L216.05 11.6L216.05 13.3L218.4 13.3L219.05 13.25L219.7 13.05L220.2 12.65L220.35 11.85L220.35 11.6" />
</g>
</svg>
