<?xml version="1.0" encoding="utf-8"?>
<svg version="1.1" id="Layer_1"
xmlns="http://www.w3.org/2000/svg"
xmlns:xlink="http://www.w3.org/1999/xlink"
xmlns:author="http://www.sothink.com"
width="200px" height="16px"
xml:space="preserve">
<g id="483" transform="matrix(1, 0, 0, 1, -198, -6.55)">
<path style="fill:#FECC15;fill-opacity:1" d="M390.1,6.9L390.1 14.2L392.6 14.2L392.6 10.9L396.85 10.9L396.85 14.2L392.8 14.2L392.8 14.95L388.55 14.95L388.55 14.2L386.05 14.2L386.05 15.05L391 15.05L391 21.55L386.65 21.55L383.05 15.05L382.1 15.05L382.1 21.55L377.85 21.55L377.85 15.05L378.1 15.05L377.6 14.2L377.15 14.2L377.15 15.05L375.5 15.05L375.5 21.55L370.95 21.55L370.95 15.05L372.9 15.05L372.9 14.2L370.55 14.2L370.55 15.05L366 15.05L366 14.2L370.05 14.2L370.05 6.9L374.6 6.9L374.6 14.2L376.95 14.2L376.95 6.9L381.55 6.9L385.5 14.2L385.85 14.2L385.85 6.9L390.1 6.9M393.5,17.5L397.75 17.5L397.75 21.55L393.5 21.55L393.5 17.5M381.75,14.75L381.8 14.75L381.8 14.2L381.65 14.2L381.25 13.55L381.2 13.55L381.2 14.2L381.45 14.2L381.75 14.75M354.6,9.85L354.05 10L353.65 10.3Q353.5 10.5 353.5 10.8Q353.5 11.2 353.9 11.45L354.85 11.9L356.2 12.25L357.75 12.65L359.25 13.15L360.55 13.95L360.85 14.2L356.8 14.2L357.4 15.05L362.35 15.05L362.4 15.15Q362.75 15.85 362.75 16.85Q362.75 18.3 362.15 19.25L360.6 20.8Q359.65 21.4 358.45 21.65L356 21.9L354.95 21.85L353.6 21.55L352.15 21L350.85 20.1L349.9 18.65Q349.55 17.8 349.55 16.65L354.05 16.65L354.2 17.6L355.1 18.45L356.4 18.65L356.95 18.6L357.6 18.4L358.05 18L358.25 17.35L358.1 16.85Q357.95 16.65 357.6 16.5L356.65 16.1L355.1 15.65L353.35 15.1L353.2 15.05L348.25 15.05L346.8 14.4L346.55 14.2L350.6 14.2L349.65 13.2Q349.2 12.5 349.2 11.4Q349.2 10.15 349.7 9.2Q350.2 8.3 351.05 7.7Q351.85 7.1 352.95 6.85L355.15 6.55L357.4 6.8Q358.5 7.05 359.35 7.65Q360.15 8.2 360.7 9.1Q361.2 10 361.25 11.35L356.95 11.35L356.9 10.65L356.45 10.2L355.8 9.9L355.1 9.8L354.6 9.85M347.9,10.65L343.8 10.65L343.8 14.2L339.75 14.2L339.75 15.05L335.25 15.05L335.25 14.2L339.3 14.2L339.3 10.65L335.2 10.65L335.2 6.9L347.9 6.9L347.9 10.65M344.7,21.55L340.2 21.55L340.2 15.05L344.7 15.05L344.7 21.55M334.25,12.25L333.85 13.3L333.15 14.15L333.1 14.2L329.05 14.2L328.15 14.75L328.7 15.05L333.65 15.05Q334.2 15.4 334.55 16.05Q335.1 17.05 335.25 18.4L335.3 19.1L335.35 20L335.5 20.9L335.75 21.55L331.25 21.55L331 20.45L330.85 19.3L330.75 18.25L330.45 17.35L329.9 16.7L328.85 16.45L326.45 16.45L326.45 21.55L321.9 21.55L321.9 15.05L318.55 15.05L320.9 21.55L316.25 21.55L315.65 19.45L310.95 19.45L310.3 21.55L305.8 21.55L308.2 15.05L309.4 15.05L309.15 14.2L307.65 14.2L307.4 15.05L303.25 15.05L303.55 14.2L307.6 14.2L310.3 6.9L314.7 6.9L317.35 14.2L321 14.2L321 6.9L329.6 6.9L331.45 7.2Q332.3 7.45 332.95 7.95L334 9.25Q334.4 10.05 334.4 11.1L334.25 12.25M327.65,10.4L325.55 10.4L325.55 13.3L327.9 13.3L328.55 13.25L329.2 13.05L329.7 12.65L329.85 11.85Q329.85 11.15 329.4 10.8Q328.95 10.4 327.65 10.4M312.45,11.8L311.7 14.2L313.2 14.2L312.5 11.8L312.45 11.8M306.05,10.65L301.95 10.65L301.95 14.2L297.9 14.2L297.9 15.05L293.4 15.05L293.4 14.2L297.45 14.2L297.45 10.65L293.35 10.65L293.35 6.9L306.05 6.9L306.05 10.65M312.35,15.05L311.95 16.3L314.7 16.3L314.35 15.05L316.95 15.05L316.95 14.2L313.3 14.2L313.6 15.05L312.35 15.05M285.95,6.55L288.2 6.8Q289.3 7.05 290.15 7.65L291.5 9.1Q292 10 292.05 11.35L287.75 11.35L287.7 10.65L287.25 10.2L286.6 9.9L285.9 9.8L285.4 9.85L284.85 10Q284.6 10.1 284.45 10.3Q284.3 10.5 284.3 10.8Q284.3 11.2 284.7 11.45L285.65 11.9L287 12.25L288.55 12.65L290.05 13.15L291.35 13.95L291.65 14.2L287.6 14.2L288.2 15.05L293.15 15.05L293.2 15.15Q293.55 15.85 293.55 16.85Q293.55 18.3 292.95 19.25L291.4 20.8Q290.45 21.4 289.25 21.65L286.8 21.9L285.75 21.85L284.4 21.55L282.95 21L281.65 20.1L280.7 18.65Q280.35 17.8 280.35 16.65L284.85 16.65L285 17.6Q285.3 18.25 285.9 18.45L287.2 18.65L287.75 18.6L288.4 18.4L288.85 18L289.05 17.35L288.9 16.85L288.4 16.5L287.45 16.1L285.9 15.65L284.15 15.1L284 15.05L279.05 15.05L277.6 14.4L277.35 14.2L281.4 14.2L280.45 13.2Q280 12.5 280 11.4Q280 10.15 280.5 9.2Q281 8.3 281.85 7.7Q282.65 7.1 283.75 6.85L285.95 6.55M298.35,21.55L298.35 15.05L302.85 15.05L302.85 21.55L298.35 21.55M267.75,10.65L267.75 14.2L263.7 14.2L263.7 15.05L259.2 15.05L259.2 14.2L263.25 14.2L263.25 10.65L259.15 10.65L259.15 6.9L271.85 6.9L271.85 10.65L267.75 10.65M268.65,15.05L268.65 21.55L264.15 21.55L264.15 15.05L268.65 15.05M257.5,10.65L249.9 10.65L249.9 12.5L256.8 12.5L256.8 14.2L252.75 14.2L252.75 15.05L257.7 15.05L257.7 15.95L250.8 15.95L250.8 17.8L258.6 17.8L258.6 21.55L246.25 21.55L246.25 15.05L244.5 15.05L244.55 15.15Q244.9 15.85 244.9 16.85Q244.9 18.3 244.3 19.25L242.75 20.8Q241.8 21.4 240.6 21.65L238.15 21.9L237.1 21.85L235.75 21.55L234.3 21Q233.6 20.65 233 20.1L232.05 18.65Q231.7 17.8 231.7 16.65L236.2 16.65L236.35 17.6Q236.65 18.25 237.25 18.45L238.55 18.65L239.1 18.6L239.75 18.4L240.2 18L240.4 17.35L240.25 16.85Q240.1 16.65 239.75 16.5L238.8 16.1L237.25 15.65L235.5 15.1L235.35 15.05L230.4 15.05Q229.6 14.8 228.95 14.4L228.7 14.2L224.65 14.2L224.65 15.05L229.6 15.05L229.6 15.95L222.7 15.95L222.7 17.8L230.5 17.8L230.5 21.55L218.15 21.55L218.15 15.05L214.7 15.05L215.6 16.05Q216.15 17.05 216.3 18.4L216.35 19.1L216.4 20L216.55 20.9Q216.6 21.3 216.8 21.55L212.3 21.55L212.05 20.45L211.9 19.3L211.8 18.25L211.5 17.35L210.95 16.7L209.9 16.45L207.5 16.45L207.5 21.55L202.95 21.55L202.95 15.05L198 15.05L198 14.2L202.05 14.2L202.05 6.9L210.65 6.9L212.5 7.2Q213.35 7.45 214 7.95L215.05 9.25Q215.45 10.05 215.45 11.1L215.3 12.25L214.9 13.3L214.2 14.15L214.15 14.2L217.25 14.2L217.25 6.9L229.4 6.9L229.4 10.65L221.8 10.65L221.8 12.5L228.7 12.5L228.7 14.2L232.75 14.2L231.8 13.2Q231.35 12.5 231.35 11.4Q231.35 10.15 231.85 9.2Q232.35 8.3 233.2 7.7Q234 7.1 235.1 6.85L237.3 6.55L239.55 6.8Q240.65 7.05 241.5 7.65L242.85 9.1Q243.35 10 243.4 11.35L239.1 11.35L239.05 10.65L238.6 10.2Q238.3 9.95 237.95 9.9L237.25 9.8L236.75 9.85L236.2 10L235.8 10.3Q235.65 10.5 235.65 10.8Q235.65 11.2 236.05 11.45L237 11.9L238.35 12.25L239.9 12.65L241.4 13.15L242.7 13.95L243 14.2L245.35 14.2L245.35 6.9L257.5 6.9L257.5 10.65M241.3,14.2L238.95 14.2L239.55 15.05L241.3 15.05L241.3 14.2M206.6,10.4L206.6 13.3L208.95 13.3L209.6 13.25L210.25 13.05L210.75 12.65L210.9 11.85Q210.9 11.15 210.45 10.8Q210 10.4 208.7 10.4L206.6 10.4M209.2,14.75L209.75 15.05L213.2 15.05L213.2 14.2L210.1 14.2L209.2 14.75" />
</g>
</svg>
