<?xml version="1.0" encoding="utf-8"?>
<svg version="1.1" id="Layer_1"
xmlns="http://www.w3.org/2000/svg"
xmlns:xlink="http://www.w3.org/1999/xlink"
xmlns:author="http://www.sothink.com"
width="230px" height="23px"
xml:space="preserve">
<g id="497" transform="matrix(1, 0, 0, 1, -2, -8.65)">
<path style="fill:#FECC15;fill-opacity:1" d="M227.8,10.3Q229 11.15 229.75 12.45Q230.45 13.75 230.45 15.55L224.9 15.55Q224.95 14.8 224.65 14.3L223.85 13.55Q223.35 13.2 222.7 13.1L221.45 12.95L220.55 13.05L219.65 13.35Q219.3 13.55 219 13.9L218.8 14.8Q218.8 15.4 219.3 15.8L220.7 16.5L222.7 17L224.95 17.6L227.25 18.4Q228.35 18.85 229.2 19.55Q230.1 20.25 230.6 21.3Q231.15 22.3 231.15 23.75L231.1 24.85L228.3 24.85Q228.1 26.2 227.55 27.15Q226.75 28.55 225.45 29.35Q224.15 30.2 222.5 30.55L219.05 30.9L215.55 30.5Q213.9 30.05 212.6 29.15Q211.3 28.2 210.55 26.75Q210.1 25.9 209.95 24.85L212.75 24.85Q212.6 24.1 212.6 23.25L218.15 23.25Q218.2 24.2 218.5 24.85L215.7 24.85L216.5 25.9Q217.6 26.6 219.4 26.6L220.65 26.5L221.7 26.1L222.5 25.45L222.75 24.85L225.55 24.85L225.6 24.4Q225.6 23.7 225.05 23.25Q224.55 22.8 223.7 22.45L221.75 21.9L219.45 21.3L217.2 20.5L215.2 19.35Q214.3 18.65 213.75 17.65Q213.2 16.6 213.2 15.15Q213.2 13.4 214 12.15Q214.8 10.95 216.05 10.15Q217.3 9.35 218.85 9L221.9 8.65L225.05 9.05Q226.6 9.45 227.8 10.3M211.9,9.1L207.55 24.85L204.75 24.85L203.2 30.45L197.65 30.45L196.55 24.85L199.35 24.85L197.5 15.75L197.45 15.75L195.65 24.85L192.85 24.85L191.7 30.45L186.05 30.45L184.55 24.85L187.35 24.85L183.1 9.1L188.65 9.1L191.7 24.7L191.75 24.7L194.9 9.1L200.1 9.1L203.25 24.7L203.3 24.7L206.35 9.1L211.9 9.1M181.5,9.1L181.5 13.55L170.1 13.55L170.1 17.3L180.55 17.3L180.55 21.6L170.1 21.6L170.1 24.85L167.3 24.85L167.3 25.65L179.05 25.65L179.05 30.45L161.7 30.45L161.7 24.85L164.5 24.85L164.5 9.1L181.5 9.1M148.05,9.1L155.45 22.25L155.5 22.25L155.5 9.1L160.75 9.1L160.75 24.85L157.95 24.85L157.95 30.45L152.2 30.45L149.1 24.85L151.9 24.85L147.6 17.15L147.55 17.15L147.55 24.85L144.75 24.85L144.75 30.45L139.5 30.45L139.5 24.85L142.3 24.85L142.3 9.1L148.05 9.1M127.45,30.45L111.9 30.45L111.9 24.85L114.7 24.85L114.7 9.1L120.3 9.1L120.3 24.85L117.5 24.85L117.5 25.65L127.45 25.65L127.45 30.45M111.2,13.55L99.8 13.55L99.8 17.3L110.25 17.3L110.25 21.6L99.8 21.6L99.8 24.85L97 24.85L97 25.65L108.75 25.65L108.75 30.45L91.4 30.45L91.4 24.85L94.2 24.85L94.2 9.1L111.2 9.1L111.2 13.55M91.2,13.4L80.7 24.85L77.9 24.85L77.15 25.65L88.8 25.65L88.8 30.45L70.25 30.45L70.25 25.9L71.2 24.85L74 24.85L84 13.9L73.7 13.9L73.7 9.1L91.2 9.1L91.2 13.4M61.8,15L59.35 22.5L64.2 22.5L61.85 15L61.8 15M49.7,13.55L38.3 13.55L38.3 17.3L48.75 17.3L48.75 21.6L38.3 21.6L38.3 24.85L35.5 24.85L35.5 25.65L47.25 25.65L47.25 30.45L29.9 30.45L29.9 24.85L32.7 24.85L32.7 9.1L49.7 9.1L49.7 13.55M53.15,24.85L59 9.1L64.65 9.1L70.55 24.85L67.75 24.85L69.85 30.45L64.05 30.45L62.75 26.6L55.3 26.6L53.95 30.45L48.25 30.45L50.35 24.85L53.15 24.85M30.8,9.1L26.45 24.85L23.65 24.85L22.1 30.45L16.55 30.45L15.45 24.85L18.25 24.85L16.4 15.75L16.35 15.75L14.55 24.85L11.75 24.85L10.6 30.45L4.95 30.45L3.45 24.85L6.25 24.85L2 9.1L7.55 9.1L10.6 24.7L10.65 24.7L13.8 9.1L19 9.1L22.15 24.7L22.2 24.7L25.25 9.1L30.8 9.1" />
</g>
</svg>
