<?xml version="1.0" encoding="utf-8"?>
<svg version="1.1" id="Layer_1"
xmlns="http://www.w3.org/2000/svg"
xmlns:xlink="http://www.w3.org/1999/xlink"
xmlns:author="http://www.sothink.com"
width="163px" height="32px"
xml:space="preserve">
<g id="494" transform="matrix(1, 0, 0, 1, -223.1, -40.55)">
<path style="fill:#FECC15;fill-opacity:1" d="M371.35,45.85Q369.45 48.65 369.45 56.2Q369.45 63.7 371.2 66.2Q372.95 68.7 375.55 68.7Q378.1 68.7 379.9 66.2Q381.65 63.7 381.65 56.2Q381.65 48.65 379.9 46.15Q378.1 43.65 375.5 43.65Q372.9 43.65 371.35 45.85M384.8,48.95Q385.5 51.65 385.5 56.2Q385.5 61.55 384.4 64.85Q383.3 68.15 381.1 70Q378.9 71.75 375.55 71.75Q371.1 71.75 368.6 68.6Q365.55 64.8 365.55 56.2Q365.55 50.75 366.7 47.45Q367.8 44.15 370 42.35Q372.2 40.55 375.55 40.55Q378 40.55 379.85 41.55Q381.7 42.55 382.9 44.4Q384.15 46.25 384.8 48.95M347.6,45.85Q345.7 48.65 345.7 56.2Q345.7 63.7 347.45 66.2Q349.2 68.7 351.8 68.7Q354.35 68.7 356.15 66.2Q357.9 63.7 357.9 56.2Q357.9 48.65 356.15 46.15Q354.35 43.65 351.75 43.65Q349.15 43.65 347.6 45.85M361.05,48.95Q361.75 51.65 361.75 56.2Q361.75 61.55 360.65 64.85Q359.55 68.15 357.35 70Q355.15 71.75 351.8 71.75Q347.35 71.75 344.85 68.6Q341.8 64.8 341.8 56.2Q341.8 50.75 342.95 47.45Q344.05 44.15 346.25 42.35Q348.45 40.55 351.8 40.55Q354.25 40.55 356.1 41.55Q357.95 42.55 359.15 44.4Q360.4 46.25 361.05 48.95M336.35,49.1L336.35 53.4L332.05 53.4L332.05 49.1L336.35 49.1M325.05,64.85Q323.95 68.15 321.75 70Q319.55 71.75 316.2 71.75Q311.75 71.75 309.25 68.6Q306.2 64.8 306.2 56.2Q306.2 50.75 307.35 47.45Q308.45 44.15 310.65 42.35Q312.85 40.55 316.2 40.55Q318.65 40.55 320.5 41.55Q322.35 42.55 323.55 44.4Q324.8 46.25 325.45 48.95Q326.15 51.65 326.15 56.2Q326.15 61.55 325.05 64.85M336.35,71.25L332.05 71.25L332.05 67L336.35 67L336.35 71.25M286.9,42.35Q289.1 40.55 292.45 40.55Q294.9 40.55 296.75 41.55Q298.6 42.55 299.8 44.4Q301.05 46.25 301.7 48.95Q302.4 51.65 302.4 56.2Q302.4 61.55 301.3 64.85Q300.2 68.15 298 70Q295.8 71.75 292.45 71.75Q288 71.75 285.5 68.6Q282.45 64.8 282.45 56.2Q282.45 50.75 283.6 47.45Q284.7 44.15 286.9 42.35M288.25,45.85Q286.35 48.65 286.35 56.2Q286.35 63.7 288.1 66.2Q289.85 68.7 292.45 68.7Q295 68.7 296.8 66.2Q298.55 63.7 298.55 56.2Q298.55 48.65 296.8 46.15Q295 43.65 292.4 43.65Q289.8 43.65 288.25 45.85M316.15,43.65Q313.55 43.65 312 45.85Q310.1 48.65 310.1 56.2Q310.1 63.7 311.85 66.2Q313.6 68.7 316.2 68.7Q318.75 68.7 320.55 66.2Q322.3 63.7 322.3 56.2Q322.3 48.65 320.55 46.15Q318.75 43.65 316.15 43.65M277,49.1L277 53.4L272.7 53.4L272.7 49.1L277 49.1M252.65,45.85Q250.75 48.65 250.75 56.2Q250.75 63.7 252.5 66.2Q254.25 68.7 256.85 68.7Q259.4 68.7 261.2 66.2Q262.95 63.7 262.95 56.2Q262.95 48.65 261.2 46.15Q259.4 43.65 256.8 43.65Q254.2 43.65 252.65 45.85M266.1,48.95Q266.8 51.65 266.8 56.2Q266.8 61.55 265.7 64.85Q264.6 68.15 262.4 70Q260.2 71.75 256.85 71.75Q252.4 71.75 249.9 68.6Q246.85 64.8 246.85 56.2Q246.85 50.75 248 47.45Q249.1 44.15 251.3 42.35Q253.5 40.55 256.85 40.55Q259.3 40.55 261.15 41.55Q263 42.55 264.2 44.4Q265.45 46.25 266.1 48.95M272.7,71.25L272.7 67L277 67L277 71.25L272.7 71.25M228.9,45.85Q227 48.65 227 56.2Q227 63.7 228.75 66.2Q230.5 68.7 233.1 68.7Q235.65 68.7 237.45 66.2Q239.2 63.7 239.2 56.2Q239.2 48.65 237.45 46.15Q235.65 43.65 233.05 43.65Q230.45 43.65 228.9 45.85M242.35,48.95Q243.05 51.65 243.05 56.2Q243.05 61.55 241.95 64.85Q240.85 68.15 238.65 70Q236.45 71.75 233.1 71.75Q228.65 71.75 226.15 68.6Q223.1 64.8 223.1 56.2Q223.1 50.75 224.25 47.45Q225.35 44.15 227.55 42.35Q229.75 40.55 233.1 40.55Q235.55 40.55 237.4 41.55Q239.25 42.55 240.45 44.4Q241.7 46.25 242.35 48.95" />
</g>
</svg>
