<?xml version="1.0" encoding="utf-8"?>
<svg version="1.1" id="Layer_1"
xmlns="http://www.w3.org/2000/svg"
xmlns:xlink="http://www.w3.org/1999/xlink"
xmlns:author="http://www.sothink.com"
width="1280px" height="716px"
xml:space="preserve">
<g id="498" transform="matrix(1, 0, 0, 1, 0, 0)">
<path style="fill:#00014E;fill-opacity:1" d="M1280,45.5L0 45.5L0 41.9L1280 41.9L1280 45.5M1280,37.1L0 37.1L0 33.5L1280 33.5L1280 37.1M1280,28.75L0 28.75L0 25.1L1280 25.1L1280 28.75M1280,20.35L0 20.35L0 16.75L1280 16.75L1280 20.35M1280,12L0 12L0 8.35L1280 8.35L1280 12M1280,3.6L0 3.6L0 0L1280 0L1280 3.6M1280,70.65L0 70.65L0 67L1280 67L1280 70.65M1280,95.8L0 95.8L0 92.15L1280 92.15L1280 95.8M1280,87.4L0 87.4L0 83.8L1280 83.8L1280 87.4M1280,79L0 79L0 75.4L1280 75.4L1280 79M1280,62.25L0 62.25L0 58.65L1280 58.65L1280 62.25M1280,53.9L0 53.9L0 50.25L1280 50.25L1280 53.9M1280,120.95L0 120.95L0 117.3L1280 117.3L1280 120.95M1280,146.05L0 146.05L0 142.45L1280 142.45L1280 146.05M1280,137.7L0 137.7L0 134.05L1280 134.05L1280 137.7M1280,129.3L0 129.3L0 125.7L1280 125.7L1280 129.3M1280,112.55L0 112.55L0 108.95L1280 108.95L1280 112.55M1280,104.15L0 104.15L0 100.55L1280 100.55L1280 104.15M1280,171.2L0 171.2L0 167.6L1280 167.6L1280 171.2M1280,196.35L0 196.35L0 192.75L1280 192.75L1280 196.35M1280,187.95L0 187.95L0 184.35L1280 184.35L1280 187.95M1280,179.6L0 179.6L0 175.95L1280 175.95L1280 179.6M1280,162.85L0 162.85L0 159.2L1280 159.2L1280 162.85M1280,154.45L0 154.45L0 150.85L1280 150.85L1280 154.45M1280,221.5L0 221.5L0 217.9L1280 217.9L1280 221.5M1280,246.65L0 246.65L0 243L1280 243L1280 246.65M1280,238.25L0 238.25L0 234.65L1280 234.65L1280 238.25M1280,229.9L0 229.9L0 226.25L1280 226.25L1280 229.9M1280,213.1L0 213.1L0 209.5L1280 209.5L1280 213.1M1280,204.75L0 204.75L0 201.1L1280 201.1L1280 204.75M1280,271.8L0 271.8L0 268.15L1280 268.15L1280 271.8M1280,296.9L0 296.9L0 293.3L1280 293.3L1280 296.9M1280,288.55L0 288.55L0 284.9L1280 284.9L1280 288.55M1280,280.15L0 280.15L0 276.55L1280 276.55L1280 280.15M1280,263.4L0 263.4L0 259.8L1280 259.8L1280 263.4M1280,255L0 255L0 251.4L1280 251.4L1280 255M1280,322.05L0 322.05L0 318.45L1280 318.45L1280 322.05M1280,330.45L0 330.45L0 326.85L1280 326.85L1280 330.45M1280,338.85L0 338.85L0 335.2L1280 335.2L1280 338.85M1280,313.7L0 313.7L0 310.05L1280 310.05L1280 313.7M1280,305.3L0 305.3L0 301.7L1280 301.7L1280 305.3M1280,372.35L0 372.35L0 368.75L1280 368.75L1280 372.35M1280,380.75L0 380.75L0 377.1L1280 377.1L1280 380.75M1280,389.1L0 389.1L0 385.5L1280 385.5L1280 389.1M1280,355.6L0 355.6L0 351.95L1280 351.95L1280 355.6M1280,363.95L0 363.95L0 360.35L1280 360.35L1280 363.95M1280,347.2L0 347.2L0 343.6L1280 343.6L1280 347.2M1280,422.65L0 422.65L0 419L1280 419L1280 422.65M1280,431L0 431L0 427.4L1280 427.4L1280 431M1280,439.4L0 439.4L0 435.8L1280 435.8L1280 439.4M1280,405.9L0 405.9L0 402.25L1280 402.25L1280 405.9M1280,414.25L0 414.25L0 410.65L1280 410.65L1280 414.25M1280,472.9L0 472.9L0 469.3L1280 469.3L1280 472.9M1280,481.3L0 481.3L0 477.7L1280 477.7L1280 481.3M1280,489.7L0 489.7L0 486.05L1280 486.05L1280 489.7M1280,456.15L0 456.15L0 452.55L1280 452.55L1280 456.15M1280,464.55L0 464.55L0 460.9L1280 460.9L1280 464.55M1280,447.8L0 447.8L0 444.15L1280 444.15L1280 447.8M1280,523.2L0 523.2L0 519.6L1280 519.6L1280 523.2M1280,531.6L0 531.6L0 527.95L1280 527.95L1280 531.6M1280,539.95L0 539.95L0 536.35L1280 536.35L1280 539.95M1280,506.45L0 506.45L0 502.85L1280 502.85L1280 506.45M1280,514.85L0 514.85L0 511.2L1280 511.2L1280 514.85M1280,573.5L0 573.5L0 569.85L1280 569.85L1280 573.5M1280,581.85L0 581.85L0 578.25L1280 578.25L1280 581.85M1280,590.25L0 590.25L0 586.65L1280 586.65L1280 590.25M1280,548.35L0 548.35L0 544.75L1280 544.75L1280 548.35M1280,556.75L0 556.75L0 553.1L1280 553.1L1280 556.75M1280,565.1L0 565.1L0 561.5L1280 561.5L1280 565.1M1280,498.05L0 498.05L0 494.45L1280 494.45L1280 498.05M1280,615.4L0 615.4L0 611.8L1280 611.8L1280 615.4M1280,640.55L0 640.55L0 636.9L1280 636.9L1280 640.55M1280,623.8L0 623.8L0 620.15L1280 620.15L1280 623.8M1280,632.15L0 632.15L0 628.55L1280 628.55L1280 632.15M1280,598.65L0 598.65L0 595L1280 595L1280 598.65M1280,607L0 607L0 603.4L1280 603.4L1280 607M1280,665.7L0 665.7L0 662.05L1280 662.05L1280 665.7M1280,674.05L0 674.05L0 670.45L1280 670.45L1280 674.05M1280,682.45L0 682.45L0 678.8L1280 678.8L1280 682.45M1280,690.8L0 690.8L0 687.2L1280 687.2L1280 690.8M1280,648.9L0 648.9L0 645.3L1280 645.3L1280 648.9M1280,657.3L0 657.3L0 653.7L1280 653.7L1280 657.3M1280,715.95L0 715.95L0 712.35L1280 712.35L1280 715.95M1280,699.2L0 699.2L0 695.6L1280 695.6L1280 699.2M1280,707.6L0 707.6L0 703.95L1280 703.95L1280 707.6M1280,397.5L0 397.5L0 393.9L1280 393.9L1280 397.5" />
</g>
</svg>
