<?xml version="1.0" encoding="utf-8"?>
<svg version="1.1" id="Layer_1"
xmlns="http://www.w3.org/2000/svg"
xmlns:xlink="http://www.w3.org/1999/xlink"
xmlns:author="http://www.sothink.com"
width="170px" height="208px"
xml:space="preserve">
<g id="461" transform="matrix(1, 0, 0, 1, 84.45, 94.6)">
<path style="fill:#000000;fill-opacity:1" d="M27.5,-15.55L15.1 -12.7L15.1 -28L24.45 -32.85L24.45 -47.5L15.3 -41L15.1 -53L24.5 -62L24.45 -76.6L26.35 -78.55L27.7 -78.3L27.5 -15.55M37.7,-92.15L40 -94.6L64.75 -87.95L64.75 -23.65L85.45 -22.05L85.25 1.3L-18.5 0.95L-18.75 0.6L-18.25 0.55L-17.35 -15.5L-16.55 0.45L-16.1 0.55L-15.55 -0.05L-14.15 -28.25L-14 0.35L-8.5 0.35L-7.9 -7.05L-5.15 -7.75Q-5.1 -4.35 -4.45 -0.95L-4.1 0.35L13.95 0.15L17.4 0.05L20.8 0.05L24.6 0L32.2 -0.15L36 -0.25L38.15 -0.25L41.5 -0.3L44.8 -0.35L51.4 -0.45L53.85 -0.5L54.4 -0.7L54.3 -21.85L38.1 -18.45L37.7 -92.15M-19.05,-25.45L-18.7 -25.85L-17.95 -26L-18.5 -11.35L-19.05 -25.45M-17,-27.9L-16.4 -28.55L-15.55 -28.55L-16.2 -11.95L-17 -27.9M-10.5,-35.55L-9.7 -36.35L-7.85 -36.2L-9.95 -6.75L-12.65 -6.05L-12.65 -13.8L-10.45 -15.05L-10.45 -21.7L-12.55 -20.5L-12.7 -26.55L-10.5 -28.55L-10.5 -35.55M-5.5,-41.4L-4.75 -42.25L-1.6 -42.05L-1.6 -37.25L3.35 -41.65L-2.15 -5.8L-5.5 -41.4M7.95,-57.2L9.3 -58.5L9.75 -58.55L9.75 -57.3L9.65 -11.35L2.1 -9.55L2.3 -11.4L2.55 -13.15L4.35 -23.5L5.3 -29.5L6.3 -36.05L7.25 -43L7.75 -48.9L7.9 -54.4L7.95 -57.2M9.7,8L9.5 3.7L-55 9.1L-55.1 10.5L-55.1 111.3L-56.6 112.9L-84.45 103.6L-84.25 7.5L19.5 2.85L11.1 3.6L11.15 8.1L19.5 6.15L11.25 8.65L9.7 8M12.65,12L11.6 9L19.5 9.4L12.65 12M12.25,20.8L11.65 20.1Q11.15 19.35 10.95 18.5Q10.6 17.2 10.8 15.9Q10.9 15.05 11.3 14.3L11.9 16.2L12.5 15.95L14.8 15.3L15.15 15.55L19 15.6L19.5 16L12.25 20.8M12.9,29L13 24.45L16.45 22.05L19.5 22.6L12.9 29M-7.6,-13.95L-6.65 -29.55L-5.55 -14.85L-7.6 -13.95" />
<path style="fill:#646464;fill-opacity:1" d="M-16.6,63.45L-13.6 63.95L-16.7 67.3L-16.6 63.45" />
<path style="fill:#9B0000;fill-opacity:1" d="M6.45,37.3L9.4 37.6L6.2 41.25L6.45 37.3M3.85,43.9L2.15 45.85L2.3 43.9L3.85 43.9M-4.25,48.7L-0.7 49.1L-4.25 53.2L-4.25 48.7M-28.75,73.2L-22.7 74.3L-28.75 81.2L-28.75 73.2M-8.55,39.85L-6.95 38.6L-6.35 44.05L-8.55 43.95L-8.55 39.85" />
<path style="fill:#FFFFFF;fill-opacity:1" d="M-4.25,48.7L-4.35 45.9L-8.5 49.65L-8.55 43.95L-6.35 44.05L-6.95 38.6L-4.4 36.55L-4.4 29.05L-8.55 31.5L-8.55 23.5L-4.35 21.6L-4.35 14L-12.15 16.65L-12.2 61.35L-12.1 62.25L-13.6 63.95L-16.6 63.45L-16.65 18.85L-16.8 17.55L-21.55 18.9L-21.4 50.65L-29.1 21.25L-36.05 23.05L-36 89.5L-38.2 92L-47.1 89.85L-46.8 21.15L-30.9 19.05L-30.45 17.25L-20.25 15.7L-19.65 14.9L4.75 9.6L5.25 9.55L5.85 8.9Q6.1 8.6 6.5 8.5L7.8 8.15L9.7 8L11.25 8.65L11.4 8.95Q10.85 9.2 10.4 9.8L10 10.7L9.2 16.7Q8.9 20.05 9.55 23.25Q9.75 24.1 10.3 24.8L11.25 26.25L11.65 27.65Q11.8 29.3 11.35 30.95L10.75 31.45L10.15 28.6L8.9 29.7Q8.75 32.6 9.5 35.25L10.05 36.5L10.45 36.9L10.15 37.4L9.4 37.6L6.45 37.3L8 10.6L6.45 11L6.25 15.7L5.95 25.1L5.7 29.8L5.6 30.05L5.35 30.2L5.3 30.2L4.25 11.6L2.6 12.1L1.1 30.9L-0.15 12.8L-2.65 13.75L0.3 48L-0.7 49.1L-4.25 48.7M4.65,42.9L3.85 43.9L2.3 43.9L3.45 24.95L4.65 42.9M-21.2,72.6L-22.7 74.3L-28.75 73.2L-28.8 41.3L-21.2 72.6" />
<radialGradient
id="RadialGradID_23" gradientUnits="userSpaceOnUse" gradientTransform="matrix(0.135284, 0, 0, 0.0809631, 4.05, -6.2)" spreadMethod ="pad" cx="0" cy="0" r="819.2" fx="0" fy="0" >
<stop  offset="0.00392157"  style="stop-color:#FFFFFF;stop-opacity:1" />
<stop  offset="0.258824"  style="stop-color:#F1F1F1;stop-opacity:1" />
<stop  offset="0.85098"  style="stop-color:#737373;stop-opacity:1" />
<stop  offset="1"  style="stop-color:#373737;stop-opacity:1" />
</radialGradient>
<path style="fill:url(#RadialGradID_23) " d="M-18.5,-11.35L-17.95 -26L-17.65 -27.35L-17 -27.9L-16.2 -11.95L-15.55 -28.55L-15.4 -29.85L-10.5 -35.55L-10.5 -28.55L-12.7 -26.55L-12.55 -20.5L-10.45 -21.7L-10.45 -15.05L-12.65 -13.8L-12.65 -6.05L-9.95 -6.75L-7.85 -36.2L-7.6 -39.05L-5.5 -41.4L-2.15 -5.8L3.35 -41.65L-1.6 -37.25L-1.6 -42.05L-1.6 -46.05L7.95 -57.2L7.9 -54.4L7.75 -48.9L7.25 -43L6.3 -36.05L5.3 -29.5L4.35 -23.5L2.55 -13.15L2.3 -11.4L2.1 -9.55L9.65 -11.35L9.75 -57.3L9.85 -59.5L24.45 -76.6L24.5 -62L15.1 -53L15.3 -41L24.45 -47.5L24.45 -32.85L15.1 -28L15.1 -12.7L27.5 -15.55L27.7 -78.3L27.7 -80.5L37.7 -92.15L38.1 -18.45L54.3 -21.85L54.4 -0.7L53.85 -0.5L51.4 -0.45L44.8 -0.35L41.5 -0.3L38.15 -0.25L36 -0.25L32.2 -0.15L24.6 0L20.8 0.05L17.4 0.05L13.95 0.15L-4.1 0.35L-4.45 -0.95Q-5.1 -4.35 -5.15 -7.75L-7.9 -7.05L-8.5 0.35L-14 0.35L-14.15 -28.25L-15.55 -0.05L-16.1 0.55L-16.55 0.45L-17.35 -15.5L-18.25 0.55L-18.75 0.6L-19.1 -5.65L-19.45 -12.6L-19.8 -20.45L-19.8 -23.95Q-19.7 -24.95 -19.05 -25.45L-18.5 -11.35M-5.55,-14.85L-6.65 -29.55L-7.6 -13.95L-5.55 -14.85" />
<radialGradient
id="RadialGradID_24" gradientUnits="userSpaceOnUse" gradientTransform="matrix(0.0787964, 0, 0, 0.0498657, 27.55, 7.55)" spreadMethod ="pad" cx="0" cy="0" r="819.2" fx="0" fy="0" >
<stop  offset="0.00392157"  style="stop-color:#826C64;stop-opacity:1" />
<stop  offset="0.101961"  style="stop-color:#6B6361;stop-opacity:1" />
<stop  offset="1"  style="stop-color:#000000;stop-opacity:1" />
</radialGradient>
<path style="fill:url(#RadialGradID_24) " d="M11.15,8.1L11.1 3.6L19.5 2.85L19.5 6.15L11.15 8.1M12.5,15.95L12.9 15.4L12.65 12L19.5 9.4L19.55 12.75L14.8 15.3L12.5 15.95M13,24.45L12.25 20.8L19.5 16L19.55 19.15L16.45 22.05L13 24.45M19.5,22.6L19.65 25.65L12.2 34L12.9 29L19.5 22.6" />
<radialGradient
id="RadialGradID_25" gradientUnits="userSpaceOnUse" gradientTransform="matrix(0.123459, 0, 0, 0.0843658, 0.55, 3.35)" spreadMethod ="pad" cx="0" cy="0" r="819.2" fx="0" fy="0" >
<stop  offset="0.00392157"  style="stop-color:#E30202;stop-opacity:1" />
<stop  offset="0.313725"  style="stop-color:#C80000;stop-opacity:1" />
<stop  offset="0.698039"  style="stop-color:#800000;stop-opacity:1" />
<stop  offset="1"  style="stop-color:#430101;stop-opacity:1" />
</radialGradient>
<path style="fill:url(#RadialGradID_25) " d="M-38.2,92L-55.1 111.3L-55.1 10.5L-55 9.1L9.5 3.7L9.7 8L7.8 8.15L6.5 8.5Q6.1 8.6 5.85 8.9L5.25 9.55L4.75 9.6L-19.65 14.9L-20.25 15.7L-30.45 17.25L-30.9 19.05L-46.8 21.15L-47.1 89.85L-38.2 92" />
<linearGradient
id="LinearGradID_26" gradientUnits="userSpaceOnUse" gradientTransform="matrix(0, 0.017334, -0.0117493, 0, -70.8, 26.55)" spreadMethod ="pad" x1="-819.2" y1="0" x2="819.2" y2="0" >
<stop  offset="0" style="stop-color:#FFFFFF;stop-opacity:0.890196" />
<stop  offset="0.533333" style="stop-color:#DBCCCC;stop-opacity:0.898039" />
<stop  offset="0.596078" style="stop-color:#AA8888;stop-opacity:0.901961" />
<stop  offset="1" style="stop-color:#CEBDBD;stop-opacity:0.905882" />
</linearGradient>
<path style="fill:url(#LinearGradID_26) " d="M12.9,29L12.2 34Q12 35.5 10.8 36.55L10.45 36.9L10.05 36.5L9.5 35.25Q8.75 32.6 8.9 29.7L10.15 28.6L10.75 31.45L11.35 30.95Q11.8 29.3 11.65 27.65L11.25 26.25L10.3 24.8Q9.75 24.1 9.55 23.25Q8.9 20.05 9.2 16.7L10 10.7L10.4 9.8Q10.85 9.2 11.4 8.95L11.6 9L12.65 12L12.9 15.4L12.5 15.95L11.9 16.2L11.3 14.3Q10.9 15.05 10.8 15.9Q10.6 17.2 10.95 18.5Q11.15 19.35 11.65 20.1L12.25 20.8L13 24.45L12.9 29M3.45,24.95L2.3 43.9L2.15 45.85L0.3 48L-2.65 13.75L-0.15 12.8L1.1 30.9L2.6 12.1L4.25 11.6L5.3 30.2L5.35 30.2L5.6 30.05L5.7 29.8L5.95 25.1L6.25 15.7L6.45 11L8 10.6L6.45 37.3L6.2 41.25L4.65 42.9L3.45 24.95M-4.25,53.2L-12.1 62.25L-12.2 61.35L-12.15 16.65L-4.35 14L-4.35 21.6L-8.55 23.5L-8.55 31.5L-4.4 29.05L-4.4 36.55L-6.95 38.6L-8.55 39.85L-8.55 43.95L-8.5 49.65L-4.35 45.9L-4.25 48.7L-4.25 53.2M-28.8,41.3L-28.75 73.2L-28.75 81.2L-36 89.5L-36.05 23.05L-29.1 21.25L-21.4 50.65L-21.55 18.9L-16.8 17.55L-16.65 18.85L-16.6 63.45L-16.7 67.3L-21.2 72.6L-28.8 41.3" />
</g>
</svg>
