<?xml version="1.0" encoding="utf-8"?>
<svg version="1.1" id="Layer_1"
xmlns="http://www.w3.org/2000/svg"
xmlns:xlink="http://www.w3.org/1999/xlink"
xmlns:author="http://www.sothink.com"
width="199px" height="16px"
xml:space="preserve">
<g id="482" transform="matrix(1, 0, 0, 1, -202.95, -6.55)">
<path style="fill:#FECC15;fill-opacity:1" d="M401.8,10.9L401.8 14.2L397.75 14.2L397.75 14.95L393.5 14.95L393.5 14.2L391 14.2L391 21.55L386.65 21.55L382.55 14.2L382.1 14.2L382.1 21.55L377.85 21.55L377.85 14.2L375.5 14.2L375.5 21.55L370.95 21.55L370.95 14.2L375 14.2L375 6.9L379.55 6.9L379.55 14.2L381.9 14.2L381.9 6.9L386.5 6.9L390.45 14.2L390.8 14.2L390.8 6.9L395.05 6.9L395.05 14.2L397.55 14.2L397.55 10.9L401.8 10.9M386.4,14.2L386.7 14.75L386.75 14.75L386.75 14.2L386.6 14.2L386.2 13.55L386.15 13.55L386.15 14.2L386.4 14.2M393.5,17.5L397.75 17.5L397.75 21.55L393.5 21.55L393.5 17.5M366.2,11.35L361.9 11.35L361.85 10.65L361.4 10.2L360.75 9.9L360.05 9.8L359.55 9.85L359 10L358.6 10.3Q358.45 10.5 358.45 10.8Q358.45 11.2 358.85 11.45L359.8 11.9L361.15 12.25L362.7 12.65L364.2 13.15L365.5 13.95L365.8 14.2L361.75 14.2L362.4 15.15Q362.75 15.85 362.75 16.85Q362.75 18.3 362.15 19.25L360.6 20.8Q359.65 21.4 358.45 21.65L356 21.9L354.95 21.85L353.6 21.55L352.15 21L350.85 20.1L349.9 18.65Q349.55 17.8 349.55 16.65L354.05 16.65L354.2 17.6L355.1 18.45L356.4 18.65L356.95 18.6L357.6 18.4L358.05 18L358.25 17.35L358.1 16.85Q357.95 16.65 357.6 16.5L356.65 16.1L355.1 15.65L353.35 15.1L351.75 14.4L351.5 14.2L355.55 14.2L354.6 13.2Q354.15 12.5 354.15 11.4Q354.15 10.15 354.65 9.2Q355.15 8.3 356 7.7Q356.8 7.1 357.9 6.85L360.1 6.55L362.35 6.8Q363.45 7.05 364.3 7.65L365.65 9.1Q366.15 10 366.2 11.35M352.85,10.65L348.75 10.65L348.75 14.2L344.7 14.2L344.7 21.55L340.2 21.55L340.2 14.2L344.25 14.2L344.25 10.65L340.15 10.65L340.15 6.9L352.85 6.9L352.85 10.65M334.35,10.8Q333.9 10.4 332.6 10.4L330.5 10.4L330.5 13.3L332.85 13.3L333.5 13.25L334.15 13.05L334.65 12.65L334.8 11.85Q334.8 11.15 334.35 10.8M338.95,9.25Q339.35 10.05 339.35 11.1L339.2 12.25L338.8 13.3L338.1 14.15L338.05 14.2L334 14.2L333.1 14.75Q334 15.1 334.55 16.05Q335.1 17.05 335.25 18.4L335.3 19.1L335.35 20L335.5 20.9L335.75 21.55L331.25 21.55L331 20.45L330.85 19.3L330.75 18.25L330.45 17.35L329.9 16.7L328.85 16.45L326.45 16.45L326.45 21.55L321.9 21.55L321.9 14.2L318.25 14.2L320.9 21.55L316.25 21.55L315.65 19.45L310.95 19.45L310.3 21.55L305.8 21.55L308.5 14.2L312.55 14.2L315.25 6.9L319.65 6.9L322.3 14.2L325.95 14.2L325.95 6.9L334.55 6.9L336.4 7.2Q337.25 7.45 337.9 7.95L338.95 9.25M317.4,11.8L316.65 14.2L318.15 14.2L317.45 11.8L317.4 11.8M306.9,10.65L306.9 14.2L302.85 14.2L302.85 21.55L298.35 21.55L298.35 14.2L302.4 14.2L302.4 10.65L298.3 10.65L298.3 6.9L311 6.9L311 10.65L306.9 10.65M311.95,16.3L314.7 16.3L314.1 14.2L312.6 14.2L311.95 16.3M297,11.35L292.7 11.35L292.65 10.65L292.2 10.2L291.55 9.9L290.85 9.8L290.35 9.85L289.8 10Q289.55 10.1 289.4 10.3Q289.25 10.5 289.25 10.8Q289.25 11.2 289.65 11.45L290.6 11.9L291.95 12.25L293.5 12.65L295 13.15L296.3 13.95L296.6 14.2L292.55 14.2L293.2 15.15Q293.55 15.85 293.55 16.85Q293.55 18.3 292.95 19.25L291.4 20.8Q290.45 21.4 289.25 21.65L286.8 21.9L285.75 21.85L284.4 21.55L282.95 21L281.65 20.1L280.7 18.65Q280.35 17.8 280.35 16.65L284.85 16.65L285 17.6Q285.3 18.25 285.9 18.45L287.2 18.65L287.75 18.6L288.4 18.4L288.85 18L289.05 17.35L288.9 16.85L288.4 16.5L287.45 16.1L285.9 15.65L284.15 15.1L282.55 14.4L282.3 14.2L286.35 14.2L285.4 13.2Q284.95 12.5 284.95 11.4Q284.95 10.15 285.45 9.2Q285.95 8.3 286.8 7.7Q287.6 7.1 288.7 6.85L290.9 6.55L293.15 6.8Q294.25 7.05 295.1 7.65Q295.9 8.2 296.45 9.1Q296.95 10 297 11.35M276.8,10.65L272.7 10.65L272.7 14.2L268.65 14.2L268.65 21.55L264.15 21.55L264.15 14.2L268.2 14.2L268.2 10.65L264.1 10.65L264.1 6.9L276.8 6.9L276.8 10.65M254.85,10.65L254.85 12.5L261.75 12.5L261.75 14.2L257.7 14.2L257.7 15.95L250.8 15.95L250.8 17.8L258.6 17.8L258.6 21.55L246.25 21.55L246.25 14.2L243.9 14.2L244.55 15.15Q244.9 15.85 244.9 16.85Q244.9 18.3 244.3 19.25L242.75 20.8Q241.8 21.4 240.6 21.65L238.15 21.9L237.1 21.85L235.75 21.55L234.3 21Q233.6 20.65 233 20.1L232.05 18.65Q231.7 17.8 231.7 16.65L236.2 16.65L236.35 17.6Q236.65 18.25 237.25 18.45L238.55 18.65L239.1 18.6L239.75 18.4L240.2 18L240.4 17.35L240.25 16.85Q240.1 16.65 239.75 16.5L238.8 16.1L237.25 15.65L235.5 15.1Q234.6 14.85 233.9 14.4L233.65 14.2L229.6 14.2L229.6 15.95L222.7 15.95L222.7 17.8L230.5 17.8L230.5 21.55L218.15 21.55L218.15 14.2L215.05 14.2L214.15 14.75Q215.05 15.1 215.6 16.05Q216.15 17.05 216.3 18.4L216.35 19.1L216.4 20L216.55 20.9Q216.6 21.3 216.8 21.55L212.3 21.55L212.05 20.45L211.9 19.3L211.8 18.25L211.5 17.35L210.95 16.7L209.9 16.45L207.5 16.45L207.5 21.55L202.95 21.55L202.95 14.2L207 14.2L207 6.9L215.6 6.9L217.45 7.2Q218.3 7.45 218.95 7.95L220 9.25Q220.4 10.05 220.4 11.1L220.25 12.25L219.85 13.3L219.15 14.15L219.1 14.2L222.2 14.2L222.2 6.9L234.35 6.9L234.35 10.65L226.75 10.65L226.75 12.5L233.65 12.5L233.65 14.2L237.7 14.2L236.75 13.2Q236.3 12.5 236.3 11.4Q236.3 10.15 236.8 9.2Q237.3 8.3 238.15 7.7Q238.95 7.1 240.05 6.85L242.25 6.55L244.5 6.8Q245.6 7.05 246.45 7.65Q247.25 8.2 247.8 9.1Q248.3 10 248.35 11.35L244.05 11.35L244 10.65L243.55 10.2L242.9 9.9L242.2 9.8L241.7 9.85L241.15 10L240.75 10.3Q240.6 10.5 240.6 10.8Q240.6 11.2 241 11.45L241.95 11.9L243.3 12.25L244.85 12.65L246.35 13.15Q247.1 13.45 247.65 13.95L247.95 14.2L250.3 14.2L250.3 6.9L262.45 6.9L262.45 10.65L254.85 10.65M213.65,10.4L211.55 10.4L211.55 13.3L213.9 13.3L214.55 13.25L215.2 13.05L215.7 12.65L215.85 11.85Q215.85 11.15 215.4 10.8Q214.95 10.4 213.65 10.4" />
</g>
</svg>
