<?xml version="1.0" encoding="utf-8"?>
<svg version="1.1" id="Layer_1"
xmlns="http://www.w3.org/2000/svg"
xmlns:xlink="http://www.w3.org/1999/xlink"
xmlns:author="http://www.sothink.com"
width="412px" height="38px"
xml:space="preserve">
<g id="479" transform="matrix(1, 0, 0, 1, 0, 0)">
<path style="fill:#0133EA;fill-opacity:1" d="M410.2,7.8L396.95 7.8L395.35 15.6L400.35 15.6L398.45 24.8L393.45 24.8L390.95 36.7L381.25 36.7L383.75 24.8L388.75 24.8L390.65 15.6L385.65 15.6L387.25 7.8L374 7.8L375.4 1L411.6 1L410.2 7.8M372.45,18.65Q373.7 19.8 374.2 21.5Q374.65 22.9 374.4 24.8L369.4 24.8L369.25 25.7Q368.75 28.2 367.35 30.4Q366 32.55 363.5 34.15Q361 35.8 357.25 36.75Q353.45 37.7 348.2 37.7L343.75 37.6L339.3 37Q337.15 36.55 335.35 35.75Q333.5 34.95 332.3 33.6Q331.05 32.2 330.55 30.25Q330.1 28.25 330.65 25.45L341.55 25.45Q341.2 27.3 341.85 28.4Q342.45 29.55 343.65 30.2Q344.85 30.8 346.4 31L349.55 31.2Q353 31.2 355.35 30.2Q357.65 29.15 358.15 26.75Q358.35 25.7 358.1 25.05L358 24.8L363 24.8L362.15 23.9Q361.45 23.45 360.4 23.15L357.95 22.65L349.4 21.3L345.05 20.35Q343 19.75 341.5 18.65Q340 17.5 339.35 15.75L339.3 15.6L335.05 15.6L334.6 18.85L333.45 22.85L332.65 24.8L327.65 24.8L326.4 27.05Q325.1 29.15 323.15 31.1Q321.2 33 318.45 34.5Q315.65 35.95 311.95 36.8L303.45 37.7L295.35 36.8Q292 35.95 289.85 34.5Q287.7 33 286.55 31.1Q285.4 29.15 285 27.05L284.7 24.8L289.7 24.8L289.65 22.85Q289.8 20.7 290.2 18.85L291.1 15.6L286.1 15.6L286.35 14.85Q287.1 12.75 288.4 10.65Q289.7 8.55 291.6 6.6Q293.55 4.7 296.35 3.25Q299.1 1.75 302.8 0.9Q306.5 0 311.3 0Q316.1 0 319.45 0.9Q322.75 1.75 324.9 3.25Q327.1 4.7 328.25 6.6Q329.4 8.55 329.85 10.65Q330.25 12.75 330.1 14.85L330.05 15.6L334.3 15.6Q333.7 13.85 334.3 11.2Q335.55 5.25 340.75 2.65Q345.9 0 354.3 0L358.2 0.15L362.15 0.7Q364.1 1.1 365.85 1.9Q367.6 2.65 368.85 3.95Q370.05 5.2 370.65 7.05Q371.2 8.85 370.85 11.35L360.1 11.35Q360.25 9.6 359.6 8.6Q358.9 7.55 357.75 7.05Q356.6 6.5 355.15 6.35L352.2 6.2Q349.2 6.2 347.15 7.4Q345.15 8.6 344.75 10.4Q344.45 11.85 345.4 12.65Q346.35 13.45 348.15 13.75L359.3 15.6L364.3 15.6L364.9 15.7Q367.25 16.1 369.2 16.8Q371.15 17.5 372.45 18.65M324.65,15.6L319.65 15.6L319.6 14.65Q319.4 12.5 318.35 10.75Q317.3 9 315.25 7.9Q313.2 6.8 309.9 6.8Q306.6 6.8 304.1 7.9Q301.6 9 299.85 10.75Q298.05 12.5 297 14.65L296.55 15.6L301.55 15.6Q300.85 17.25 300.5 18.85Q300.05 20.95 300.25 23.1L300.55 24.8L295.55 24.8Q295.85 25.95 296.45 26.95Q297.5 28.7 299.55 29.8Q301.6 30.9 304.9 30.9Q308.2 30.9 310.7 29.8Q313.2 28.7 314.95 26.95L316.8 24.8L321.8 24.8L322.8 23.1Q323.85 20.95 324.3 18.85L324.65 15.6M251.8,15.6L254.8 1L264.5 1L261.5 15.6L266.5 15.6L264.55 24.8L259.55 24.8L258.55 29.6L280.3 29.6L278.85 36.7L247.4 36.7L249.9 24.8L254.9 24.8L256.8 15.6L251.8 15.6M211.9,15.6L209.95 24.8L204.95 24.8L203.95 29.6L225.7 29.6L224.25 36.7L192.8 36.7L195.3 24.8L200.3 24.8L202.2 15.6L197.2 15.6L200.2 1L209.9 1L206.9 15.6L211.9 15.6M190.2,15.6L192.35 24.8L187.35 24.8L190.1 36.7L179.65 36.7L178.25 29.35L161.85 29.35L157.45 36.7L147 36.7L154.7 24.8L159.7 24.8L165.65 15.6L160.65 15.6L170.1 1L181.8 1L185.2 15.6L190.2 15.6M175.65,15.6L174.35 8.7L170.2 15.6L175.2 15.6L170.8 22.85L182 22.85L180.65 15.6L175.65 15.6M153.7,15.6L151.8 24.8L146.8 24.8L144.3 36.7L133.75 36.7L126.95 24.8L131.95 24.8L126.65 15.6L123.55 15.6L121.65 24.8L116.65 24.8L114.2 36.7L104.8 36.7L107.3 24.8L112.3 24.8L114.2 15.6L109.2 15.6L112.2 1L123.45 1L131.4 15.6L136.4 15.6L141.4 24.8L142.35 24.8L144.25 15.6L139.25 15.6L142.3 1L151.7 1L148.7 15.6L153.7 15.6M136.4,24.8L137 25.9L137.1 25.9L137.35 24.8L136.4 24.8M103.15,12.75L92.35 12.75Q92.15 11 91.4 9.85Q90.6 8.7 89.55 8.05Q88.45 7.4 87.15 7.1L84.5 6.8Q81.2 6.8 78.7 7.9Q76.2 9 74.4 10.75Q72.65 12.5 71.6 14.65L71.15 15.6L76.15 15.6Q75.45 17.25 75.1 18.85Q74.65 20.95 74.85 23.1L75.15 24.8L70.15 24.8Q70.45 25.95 71.05 26.95Q72.1 28.7 74.15 29.8Q76.2 30.9 79.5 30.9L83.35 30.5Q85.15 30.1 86.7 29.15Q88.25 28.25 89.5 26.7L90.8 24.8L95.8 24.8L96.65 23L88 23L89.3 16.8L107.5 16.8L105.85 24.8L100.85 24.8L98.4 36.7L93.5 36.7L93.05 32.55Q89.9 35.3 85.75 36.5Q81.65 37.7 76.95 37.7Q72.05 37.7 68.4 36.65Q64.7 35.55 62.45 33.25Q60.2 30.95 59.45 27.35Q59.2 26.15 59.2 24.8L64.2 24.8Q64.1 22.15 64.8 18.85L65.7 15.6L60.7 15.6Q61.5 13.35 62.75 11.3Q64.9 7.8 68.1 5.3Q71.3 2.8 75.5 1.4Q79.75 0 84.8 0L91.85 0.6Q95.25 1.2 97.8 2.7Q100.3 4.15 101.8 6.6Q103.25 9.05 103.15 12.75M118.55,15.6L121.65 15.6L119.45 11.8L119.35 11.8L118.55 15.6M45.5,15.6L48.5 1L58.2 1L55.2 15.6L60.2 15.6L58.3 24.8L53.3 24.8L50.8 36.7L41.1 36.7L43.6 24.8L39.05 24.8L38.9 25.7Q38.4 28.2 37 30.4Q35.65 32.55 33.15 34.15Q30.65 35.8 26.9 36.75Q23.1 37.7 17.85 37.7L13.4 37.6L8.95 37Q6.8 36.55 5 35.75Q3.15 34.95 1.95 33.6Q0.7 32.2 0.2 30.25Q-0.25 28.25 0.3 25.45L11.2 25.45Q10.85 27.3 11.5 28.4Q12.1 29.55 13.3 30.2Q14.5 30.8 16.05 31L19.2 31.2Q22.65 31.2 25 30.2Q27.3 29.15 27.8 26.75Q28 25.7 27.75 25.05L27.65 24.8L32.65 24.8L31.8 23.9L30.05 23.15L27.6 22.65L19.05 21.3L14.7 20.35Q12.65 19.75 11.15 18.65Q9.65 17.5 9 15.75L8.95 15.6L3.95 15.6Q3.35 13.85 3.95 11.2Q5.2 5.25 10.4 2.65Q15.55 0 23.95 0L27.85 0.15L31.8 0.7Q33.75 1.1 35.5 1.9Q37.25 2.65 38.5 3.95Q39.7 5.2 40.3 7.05Q40.85 8.85 40.5 11.35L29.75 11.35Q29.9 9.6 29.25 8.6Q28.55 7.55 27.4 7.05L24.8 6.35L21.85 6.2Q18.85 6.2 16.8 7.4Q14.8 8.6 14.4 10.4Q14.1 11.85 15.05 12.65Q16 13.45 17.8 13.75L28.95 15.6L33.95 15.6L34.55 15.7Q36.9 16.1 38.85 16.8Q40.8 17.5 42.1 18.65Q43.35 19.8 43.85 21.5Q44.3 22.9 44.05 24.8L48.6 24.8L50.5 15.6L45.5 15.6" />
</g>
</svg>
