<?xml version="1.0" encoding="utf-8"?>
<svg version="1.1" id="Layer_1"
xmlns="http://www.w3.org/2000/svg"
xmlns:xlink="http://www.w3.org/1999/xlink"
xmlns:author="http://www.sothink.com"
width="229px" height="172px"
xml:space="preserve">
<g id="455" transform="matrix(1, 0, 0, 1, 113.6, 87.1)">
<path style="fill:#000000;fill-opacity:1" d="M30.4,-32.45L29.45 -32.8L28.95 -5.95L21.8 -6.55L27.65 -33.5L30.4 -32.45M11.55,-26.3L9.6 -36.9L15.85 -38.4L27.2 -34L27.6 -33.5L16.85 -37.6L16.5 -30.45L23.1 -28.2L15.55 -4.3L11.95 -24.2L12.55 -25.95L11.55 -26.3M2.9,-40.85L-4.35 -8.6L-17.05 -9.8L-17.1 -10.25L-15 -10.2L-13.2 -17.6L-17.1 -17.1L-17.2 -21.45L-6.55 -19.7L-6.45 -28.7L-17.05 -31.85L-17.2 -40.4L-16.95 -40.8L-6.5 -37.6L-6.35 -40.9L2.9 -40.85M-6.4,-46.65L-36.35 -58.2L-37 -55.95L-43.35 -24.55L-51.8 -64.05L-63.9 -68.7L-74.35 -29.3L-85.2 -76.95L-106.8 -85.25L-82.05 0L-67.65 0.1L-57.8 -42.25L-48.8 0.25L-38.45 0.25L-26.15 -53.4L-26.15 0.1L-0.7 0.5L0.65 0.4L2.45 -7.85L9.3 -7.35L11.15 0.35L35.85 0.75L-37.15 1.15L-37.3 -2.35L-38.35 1.25L-59.05 1.25L-63.05 -16.9L-66.85 1.35L-90.2 1.35L-113.6 -75.55L-109.7 -87.1L-84.3 -77.25L-77.75 -45.25Q-75.3 -52.3 -73.55 -59.5Q-72.65 -63.25 -69.65 -65.75L-65.3 -69.85L-51.4 -64.45L-48.35 -49.15L-47.3 -53.55L-37.8 -59.15L-6.85 -47.45L-6.4 -46.65M38.3,-29.45L38.1 -5.2L32.7 -5.6L32.7 -13.05L36.55 -12.5L36.9 -18.2L32.6 -19.4L32.6 -25.3L36.75 -24.55L37 -29.95L38.3 -29.45M3.45,-15.3L6.2 -31.2L8.7 -14.6L3.45 -15.3M109,7.6L15.4 5.05L15.7 11.05L109 18.2L109 7.6M109.05,40.1L109.05 29.25L15.35 17.35L15.35 23.6L20.6 24.6L109.05 40.1M20.65,28.1Q31.1 27.5 41.55 29.85L64.15 34.55L70.25 35.65L114.1 43.9Q115.7 51.3 112.7 57.85L110.7 61.95L114.45 63Q115.5 70.75 112.65 78.2L110.15 84.35L96.45 79.1L109.1 83.6L109.1 72.9L107.75 72.35L16.55 42.9L15.4 42.8L15.1 46.15L10.7 47.7L9.65 47.25L9.7 47.1Q10.25 37.25 10.25 27.5L10 5.1L9.95 4.55L-38.95 3.05L-38.55 2.8L20.55 3.9L20.95 4.2L114.2 6.2L114.3 6.6Q114.9 11.65 114.5 16.8L110.2 19.1L20.95 11.9L21.25 16.15L21.8 16.05Q25.7 15.45 29.6 16.05L114.5 25.1L114.5 35.85L110.05 40.85L95.9 38.35L75.75 34.8L58.95 31.8L41.55 28.7Q31.15 26.6 20.65 25.1L20.6 24.6L20.65 28.1M108.9,51L15.85 30.05L15.4 36.05L108.6 61.75L108.9 51M21.05,40.1L24.2 38.9L20.65 38.05L21.05 40.1M-10.15,-30.1L-8.8 -35.65L-17.05 -33.5L-17.05 -31.85L-10.15 -30.1" />
<path style="fill:#FFFFFF;fill-opacity:1" d="M2.05,33.1Q2.05 24.25 -5.1 19.25L-5.6 18.55Q-6.25 16.1 -4.1 15.15L-2.9 15.75Q-1.65 16.65 -1.95 18.2L2.1 18.85Q1.9 9.45 -6.8 10.35L-6.85 10.3Q0.85 6.3 5 13.25Q6.65 16 6.45 19.2L-0.45 19.4Q10.05 26.4 4.25 37.35Q3.5 38.8 2.25 39.45Q-1.65 41.25 -5.05 38.9Q2.05 40.7 2.05 33.1M-1.85,31.85Q-1.8 33 -2.95 33.9L-3.95 33.75Q-5.35 32.7 -5.75 31L-6.1 29.45L-9.65 28.45L-9.45 27.55L-4.2 27.3Q-1.9 29 -1.85 31.85M-32.95,28.2L-34.65 27.9L-35.8 27.6L-35.2 27.75L-35.05 7.85L-36.8 7.65L-36.8 18.35L-39.05 7.5L-40.6 7.3L-39.05 6.65L-7.45 9L-7.35 10.7L-8.05 12.25Q-9.8 16.5 -9.05 21.1L-11.25 34.55L-12 34.9Q-14.2 35.8 -15.9 34.55L-16.6 34.55L-17.55 33.9L-15.9 34.55L-15.35 34.55L-11.55 9.8L-14.7 9.6L-16.4 26L-18.35 9.2L-20.7 9L-22.3 21.35L-23.95 8.75L-26.35 8.5L-23.85 29.25L-24.85 30.7Q-28.95 30.7 -32.7 28.7L-27.85 30.25L-27.85 26.1L-30.8 25.2L-30.8 20.25L-27.8 20.9L-27.8 16.75L-30.8 16.1L-30.8 12.3L-27.85 12.5L-27.85 8.35L-32.9 7.95L-32.95 28.2M-21.35,32.35L-19.6 16.9L-17.9 32.7L-22.25 32.55L-23.1 31.95L-21.35 32.35M-40.55,26L-39.35 26.35L-38.95 14.15L-36.85 26.8L-39 26.8L-40.55 26" />
<radialGradient
id="RadialGradID_10" gradientUnits="userSpaceOnUse" gradientTransform="matrix(0.0787964, 0, 0, 0.0498657, 27.55, 7.55)" spreadMethod ="pad" cx="0" cy="0" r="819.2" fx="0" fy="0" >
<stop  offset="0.00392157"  style="stop-color:#826C64;stop-opacity:1" />
<stop  offset="0.101961"  style="stop-color:#6B6361;stop-opacity:1" />
<stop  offset="1"  style="stop-color:#000000;stop-opacity:1" />
</radialGradient>
<path style="fill:url(#RadialGradID_10) " d="M109,18.2L15.7 11.05L15.4 5.05L109 7.6L109 18.2M20.6,24.6L15.35 23.6L15.35 17.35L109.05 29.25L109.05 40.1L20.6 24.6M15.4,48.85L15.1 46.15L15.4 42.8L16.55 42.9L107.75 72.35L109.1 72.9L109.1 83.6L96.45 79.1L15.4 48.85M108.6,61.75L15.4 36.05L15.85 30.05L108.9 51L108.6 61.75" />
<radialGradient
id="RadialGradID_11" gradientUnits="userSpaceOnUse" gradientTransform="matrix(0.135284, 0, 0, 0.0809631, 4.05, -6.2)" spreadMethod ="pad" cx="0" cy="0" r="819.2" fx="0" fy="0" >
<stop  offset="0.00392157"  style="stop-color:#FFFFFF;stop-opacity:1" />
<stop  offset="0.258824"  style="stop-color:#F1F1F1;stop-opacity:1" />
<stop  offset="0.85098"  style="stop-color:#737373;stop-opacity:1" />
<stop  offset="1"  style="stop-color:#373737;stop-opacity:1" />
</radialGradient>
<path style="fill:url(#RadialGradID_11) " d="M36.85,-30.05L37 -29.95L36.75 -24.55L32.6 -25.3L32.6 -19.4L36.9 -18.2L36.55 -12.5L32.7 -13.05L32.7 -5.6L38.1 -5.2L38.3 -29.45L40.8 -28.5L41.05 -5.35L44.05 -4.7L44.05 0.75L35.85 0.75L11.15 0.35L9.3 -7.35L2.45 -7.85L0.65 0.4L-0.7 0.5L-26.15 0.1L-26.15 -53.4L-38.45 0.25L-48.8 0.25L-57.8 -42.25L-67.65 0.1L-82.05 0L-106.8 -85.25L-85.2 -76.95L-74.35 -29.3L-63.9 -68.7L-51.8 -64.05L-43.35 -24.55L-37 -55.95L-36.35 -58.2L-6.4 -46.65L-6.35 -40.9L-6.5 -37.6L-16.95 -40.8L-17.2 -40.4L-17.05 -31.85L-6.45 -28.7L-6.55 -19.7L-17.2 -21.45L-17.1 -17.1L-17.1 -10.25L-17.05 -9.8L-4.35 -8.6L2.9 -40.85L3.35 -42.8L8.65 -40.8L9.6 -36.9L11.55 -26.3L11.95 -24.2L15.55 -4.3L23.1 -28.2L16.5 -30.45L16.85 -37.6L27.6 -33.5L27.65 -33.5L21.8 -6.55L28.95 -5.95L29.45 -32.8L30.4 -32.45L36.85 -30.05M8.7,-14.6L6.2 -31.2L3.45 -15.3L8.7 -14.6" />
<radialGradient
id="RadialGradID_12" gradientUnits="userSpaceOnUse" gradientTransform="matrix(0.123459, 0, 0, 0.0843658, 0.55, 3.35)" spreadMethod ="pad" cx="0" cy="0" r="819.2" fx="0" fy="0" >
<stop  offset="0.00392157"  style="stop-color:#E30202;stop-opacity:1" />
<stop  offset="0.313725"  style="stop-color:#C80000;stop-opacity:1" />
<stop  offset="0.698039"  style="stop-color:#800000;stop-opacity:1" />
<stop  offset="1"  style="stop-color:#430101;stop-opacity:1" />
</radialGradient>
<path style="fill:url(#RadialGradID_12) " d="M-38.95,3.05L9.95 4.55L10 5.1L10.25 27.5Q10.25 37.25 9.7 47.1L9.65 47.25L-39 28.85L-39 26.8L-36.85 26.8L-35.8 27.6L-34.65 27.9L-32.95 28.2L-32.7 28.7Q-28.95 30.7 -24.85 30.7L-23.85 29.25L-23.55 31.65L-23.1 31.95L-22.25 32.55L-17.9 32.7L-17.55 33.9L-16.6 34.55L-15.9 34.55Q-14.2 35.8 -12 34.9L-11.25 34.55L-9.05 21.1L-8.2 22.55Q-6.55 25.25 -4.2 27.3L-9.45 27.55L-9.65 28.45L-9.55 30.1Q-9.25 35.65 -5.05 38.9Q-1.65 41.25 2.25 39.45Q3.5 38.8 4.25 37.35Q10.05 26.4 -0.45 19.4L6.45 19.2Q6.65 16 5 13.25Q0.85 6.3 -6.85 10.3L-7.15 10.5L-7.35 10.7L-7.45 9L-39.05 6.65L-38.95 3.05" />
<linearGradient
id="LinearGradID_13" gradientUnits="userSpaceOnUse" gradientTransform="matrix(0, 0.017334, -0.0117493, 0, -70.8, 26.55)" spreadMethod ="pad" x1="-819.2" y1="0" x2="819.2" y2="0" >
<stop  offset="0" style="stop-color:#FFFFFF;stop-opacity:0.890196" />
<stop  offset="0.533333" style="stop-color:#DBCCCC;stop-opacity:0.898039" />
<stop  offset="0.596078" style="stop-color:#AA8888;stop-opacity:0.901961" />
<stop  offset="1" style="stop-color:#CEBDBD;stop-opacity:0.905882" />
</linearGradient>
<path style="fill:url(#LinearGradID_13) " d="M-4.2,27.3Q-6.55 25.25 -8.2 22.55L-9.05 21.1Q-9.8 16.5 -8.05 12.25L-7.35 10.7L-7.15 10.5L-6.8 10.35Q1.9 9.45 2.1 18.85L-1.95 18.2Q-1.65 16.65 -2.9 15.75L-4.1 15.15Q-6.25 16.1 -5.6 18.55L-5.1 19.25Q2.05 24.25 2.05 33.1Q2.05 40.7 -5.05 38.9Q-9.25 35.65 -9.55 30.1L-9.65 28.45L-6.1 29.45L-5.75 31Q-5.35 32.7 -3.95 33.75L-2.95 33.9Q-1.8 33 -1.85 31.85Q-1.9 29 -4.2 27.3M-23.1,31.95L-23.55 31.65L-23.85 29.25L-26.35 8.5L-23.95 8.75L-22.3 21.35L-20.7 9L-18.35 9.2L-16.4 26L-14.7 9.6L-11.55 9.8L-15.35 34.55L-15.9 34.55L-17.55 33.9L-17.9 32.7L-19.6 16.9L-21.35 32.35L-23.1 31.95M-32.9,7.95L-27.85 8.35L-27.85 12.5L-30.8 12.3L-30.8 16.1L-27.8 16.75L-27.8 20.9L-30.8 20.25L-30.8 25.2L-27.85 26.1L-27.85 30.25L-32.7 28.7L-32.95 28.2L-32.9 7.95M-38.95,14.15L-39.35 26.35L-40.55 26L-40.6 7.3L-39.05 7.5L-36.8 18.35L-36.8 7.65L-35.05 7.85L-35.2 27.75L-35.8 27.6L-36.85 26.8L-38.95 14.15" />
</g>
</svg>
