<?xml version="1.0" encoding="utf-8"?>
<svg version="1.1" id="Layer_1"
xmlns="http://www.w3.org/2000/svg"
xmlns:xlink="http://www.w3.org/1999/xlink"
xmlns:author="http://www.sothink.com"
width="230px" height="23px"
xml:space="preserve">
<g id="495" transform="matrix(1, 0, 0, 1, -2, -8.65)">
<path style="fill:#FECC15;fill-opacity:1" d="M227.8,10.3Q229 11.15 229.75 12.45Q230.45 13.75 230.45 15.55L224.9 15.55Q224.95 14.8 224.65 14.3L223.85 13.55Q223.35 13.2 222.7 13.1L221.45 12.95L220.55 13.05L219.65 13.35Q219.3 13.55 219 13.9L218.8 14.8Q218.8 15.4 219.3 15.8L220.7 16.5L222.7 17L224.95 17.6L227.25 18.4Q228.35 18.85 229.2 19.55Q230.1 20.25 230.6 21.3Q231.15 22.3 231.15 23.75Q231.15 25.8 230.35 27.15Q229.55 28.55 228.25 29.35Q226.95 30.2 225.3 30.55L221.85 30.9L218.35 30.5Q216.7 30.05 215.4 29.15Q214.1 28.2 213.35 26.75Q212.6 25.35 212.6 23.25L218.15 23.25Q218.25 25.15 219.3 25.9Q220.4 26.6 222.2 26.6L223.45 26.5L224.5 26.1L225.3 25.45L225.6 24.4Q225.6 23.7 225.05 23.25Q224.55 22.8 223.7 22.45L221.75 21.9L219.45 21.3L217.2 20.5L215.2 19.35Q214.3 18.65 213.75 17.65Q213.2 16.6 213.2 15.15Q213.2 13.4 214 12.15Q214.8 10.95 216.05 10.15Q217.3 9.35 218.85 9L221.9 8.65L225.05 9.05Q226.6 9.45 227.8 10.3M211.9,9.1L206 30.45L200.45 30.45L197.5 15.75L197.45 15.75L194.5 30.45L188.85 30.45L183.1 9.1L188.65 9.1L191.7 24.7L191.75 24.7L194.9 9.1L200.1 9.1L203.25 24.7L203.3 24.7L206.35 9.1L211.9 9.1M181.5,9.1L181.5 13.55L170.1 13.55L170.1 17.3L180.55 17.3L180.55 21.6L170.1 21.6L170.1 25.65L181.85 25.65L181.85 30.45L164.5 30.45L164.5 9.1L181.5 9.1M148.05,9.1L155.45 22.25L155.5 22.25L155.5 9.1L160.75 9.1L160.75 30.45L155 30.45L147.6 17.15L147.55 17.15L147.55 30.45L142.3 30.45L142.3 9.1L148.05 9.1M130.25,30.45L114.7 30.45L114.7 9.1L120.3 9.1L120.3 25.65L130.25 25.65L130.25 30.45M111.2,13.55L99.8 13.55L99.8 17.3L110.25 17.3L110.25 21.6L99.8 21.6L99.8 25.65L111.55 25.65L111.55 30.45L94.2 30.45L94.2 9.1L111.2 9.1L111.2 13.55M91.2,13.4L79.95 25.65L91.6 25.65L91.6 30.45L73.05 30.45L73.05 25.9L84 13.9L73.7 13.9L73.7 9.1L91.2 9.1L91.2 13.4M61.85,15L61.8 15L59.35 22.5L64.2 22.5L61.85 15M48.75,21.6L38.3 21.6L38.3 25.65L50.05 25.65L50.05 30.45L32.7 30.45L32.7 9.1L49.7 9.1L49.7 13.55L38.3 13.55L38.3 17.3L48.75 17.3L48.75 21.6M56.75,30.45L51.05 30.45L59 9.1L64.65 9.1L72.65 30.45L66.85 30.45L65.55 26.6L58.1 26.6L56.75 30.45M30.8,9.1L24.9 30.45L19.35 30.45L16.4 15.75L16.35 15.75L13.4 30.45L7.75 30.45L2 9.1L7.55 9.1L10.6 24.7L10.65 24.7L13.8 9.1L19 9.1L22.15 24.7L22.2 24.7L25.25 9.1L30.8 9.1" />
</g>
</svg>
