<?xml version="1.0" encoding="utf-8"?>
<svg version="1.1" id="Layer_1"
xmlns="http://www.w3.org/2000/svg"
xmlns:xlink="http://www.w3.org/1999/xlink"
xmlns:author="http://www.sothink.com"
width="174px" height="231px"
xml:space="preserve">
<g id="456" transform="matrix(1, 0, 0, 1, 86.35, 118.1)">
<path style="fill:#000000;fill-opacity:1" d="M21.55,-4.5L21.3 -4.85Q21.75 -4.6 22.15 -4.4L21.55 -4.5M-36.85,-0.35L-27.95 -0.1L-22.4 -49.05L-17.15 0L-12.05 0L-6.05 -55.65L-6.05 0.1L5.9 0.3L6.65 -8L9.5 -7.2L10.15 0.35L22.2 0.65L-64.15 1.3L-86.35 -108.05L-57.5 -118.1L-54.2 -114.5L-36.85 -0.35M-32.1,-36.3L-37.15 -80.85L-27.65 -83L-25.8 -81.1L-32.1 -36.3M-14.6,-27.85L-18.1 -64.3L-12.5 -65.25L-11.05 -63.8L-14.6 -27.85M3.8,-9.1L-1.75 -10.05L-1.75 -22.35L2.9 -20.2L2.95 -29.2L-1.8 -32.75L-1.8 -42.5L2.9 -38.4L2.95 -41.35L3 -43.15L6.05 -43.45L7.05 -42.5L3.8 -9.1M12.3,-29.3L14.85 -26.9L12 -4.7L9.55 -37.05L11.4 -37.2L12.3 -36.35L12.3 -29.3M17.05,-5.9L16.4 -5.65L14.25 -6.25L16.5 -31.35L17.05 -30.7L17.05 -5.9M19.85,-27.4L20.3 -26.9L20.15 -4.9L18.3 -5.3L18.3 -11.95L19.45 -11.7L19.75 -16.75L18.25 -18.1L18.25 -23.3L19.45 -22.55L19.85 -27.4M7,-15.35L8.05 -30.4L9.15 -14.6L7 -15.35M57.85,95.95L57 95.25L4.45 43.7L4.1 47.2L4.1 48L2.45 48.15L1.8 47.55L1.85 5.65L1.65 4.3L-16.95 2.7L-13.95 2.6L-0.3 3L4.2 3.25L7.85 3.5L33.15 4.9L54.95 6.15L59.55 6.4L62.45 6.6L65.35 6.7L68.8 6.9L72.25 7.2L75.75 7.3L79.15 7.5L83.05 7.7L86.85 7.85L87.35 8.05L87.35 22.8L86.2 23L65.5 24.45L63.5 24.65Q54.65 24.85 46.35 21.95L44.05 21.25L41.45 20.65L38.85 20.05L36.3 19.45L33.7 18.75L29.2 17.65L24.65 16.5L21.35 15.7L18 14.85L16.9 14.75L16.95 16.35L21.7 17.05L87.35 34.5L87.35 49.55L69.6 52.35L87.35 61.1L87.35 76.2L75 79.25L87.35 87.75L87.35 102.85L59.5 112.05L57.85 110.45L57.85 95.95M57.85,9.4L4.25 4.7L4.35 11.2L57.15 23.7L57.75 23.7L57.85 9.4M4.2,24.05L57.65 52.55L57.85 38.3L4.2 17.6L4.2 24.05M4.15,36.95L57.85 81.65L57.65 67.1L44.4 57.85L30.75 48.55L16.2 38.75L4.15 30.75L4.15 36.95" />
<path style="fill:#980000;fill-opacity:1" d="M-10.5,33.5L-8.85 33.3L-8.2 36.15L-10.5 33.5" />
<path style="fill:#FFFFFF;fill-opacity:1" d="M-6.25,39.05L-6.55 38.55L-6 38.3Q-4.55 34.35 -4.85 30.3Q-5.05 28.1 -5.75 26.1Q-7.9 20.2 -7.2 14.6L-6.5 16.1L-6.45 16.5L-6.3 17.4L-6.2 17.75L-5 18.35Q-4.7 14.1 -6.6 10.25Q-6.9 9.7 -7.35 9.3Q-9.4 14.05 -8.2 19.15Q-6.5 26.2 -6.9 32.85L-7.95 28.35L-9.2 27.4L-8.85 33.3L-10.5 33.5L-11.2 32.7L-10 9.25L-10.95 9.1L-11.7 22.9L-12.25 8.65L-12.85 8.5L-13.65 15.5L-14.1 8.2L-14.7 7.9L-14.1 29.45L-15.45 27.8L-15.6 23.85L-16.4 22.75L-16.4 21.8L-16.2 19.05L-16.15 18.9L-16 18.9L-15.85 18.95L-15.6 15.3L-16.4 14.6L-16.15 11.3L-15.45 11.35L-15.45 7.7L-17.05 7.25L-17.15 25.8L-17.9 25.05L-17.95 7.2L-18.4 15.5L-19.05 7.05L-19.45 6.5L-18.2 6.05L-17.1 6Q-11.5 7.6 -5.45 8.5Q-3.75 8.85 -2.7 9.95Q0.7 13.5 0.4 18.7L0.1 19.15L-2.2 19.5L-1.1 22.6Q1.95 31 -1.2 38.5L-5.5 39.25L-6.25 39.05M-19.05,23.7L-18.9 14.75L-18.4 24.3L-19.05 23.7M-13.3,30.3L-12.7 21.1L-12.3 25.6L-12.1 31.7L-13.3 30.3" />
<radialGradient
id="RadialGradID_14" gradientUnits="userSpaceOnUse" gradientTransform="matrix(0.0787964, 0, 0, 0.0498657, 27.55, 7.55)" spreadMethod ="pad" cx="0" cy="0" r="819.2" fx="0" fy="0" >
<stop  offset="0.00392157"  style="stop-color:#826C64;stop-opacity:1" />
<stop  offset="0.101961"  style="stop-color:#6B6361;stop-opacity:1" />
<stop  offset="1"  style="stop-color:#000000;stop-opacity:1" />
</radialGradient>
<path style="fill:url(#RadialGradID_14) " d="M4.1,47.2L4.45 43.7L57 95.25L57.85 95.95L57.85 110.45L4.15 49.8L4.1 47.2M57.75,23.7L57.15 23.7L4.35 11.2L4.25 4.7L57.85 9.4L57.75 23.7M4.2,17.6L57.85 38.3L57.65 52.55L4.2 24.05L4.2 17.6M4.15,30.75L16.2 38.75L30.75 48.55L44.4 57.85L57.65 67.1L57.85 81.65L4.15 36.95L4.15 30.75" />
<radialGradient
id="RadialGradID_15" gradientUnits="userSpaceOnUse" gradientTransform="matrix(0.135284, 0, 0, 0.0809631, 4.05, -6.2)" spreadMethod ="pad" cx="0" cy="0" r="819.2" fx="0" fy="0" >
<stop  offset="0.00392157"  style="stop-color:#FFFFFF;stop-opacity:1" />
<stop  offset="0.258824"  style="stop-color:#F1F1F1;stop-opacity:1" />
<stop  offset="0.85098"  style="stop-color:#737373;stop-opacity:1" />
<stop  offset="1"  style="stop-color:#373737;stop-opacity:1" />
</radialGradient>
<path style="fill:url(#RadialGradID_15) " d="M-25.8,-81.1L-19.05 -73.25L-18.1 -64.3L-14.6 -27.85L-11.05 -63.8L3 -47.3L2.95 -41.35L2.9 -38.4L-1.8 -42.5L-1.8 -32.75L2.95 -29.2L2.9 -20.2L-1.75 -22.35L-1.75 -10.05L3.8 -9.1L7.05 -42.5L9.55 -37.05L12 -4.7L14.85 -26.9L12.3 -29.3L12.3 -36.35L16.5 -31.35L14.25 -6.25L16.4 -5.65L17.05 -5.9L17.05 -30.7L19.85 -27.4L19.45 -22.55L18.25 -23.3L18.25 -18.1L19.75 -16.75L19.45 -11.7L18.3 -11.95L18.3 -5.3L20.15 -4.9L20.3 -26.9L21.1 -26.1L21.3 -4.85L21.55 -4.5L22.15 -4.4L22.2 0.65L10.15 0.35L9.5 -7.2L6.65 -8L5.9 0.3L-6.05 0.1L-6.05 -55.65L-12.05 0L-17.15 0L-22.4 -49.05L-27.95 -0.1L-36.85 -0.35L-54.2 -114.5L-39 -96.7L-37.15 -80.85L-32.1 -36.3L-25.8 -81.1M9.15,-14.6L8.05 -30.4L7 -15.35L9.15 -14.6" />
<radialGradient
id="RadialGradID_16" gradientUnits="userSpaceOnUse" gradientTransform="matrix(0.123459, 0, 0, 0.0843658, 0.55, 3.35)" spreadMethod ="pad" cx="0" cy="0" r="819.2" fx="0" fy="0" >
<stop  offset="0.00392157"  style="stop-color:#E30202;stop-opacity:1" />
<stop  offset="0.313725"  style="stop-color:#C80000;stop-opacity:1" />
<stop  offset="0.698039"  style="stop-color:#800000;stop-opacity:1" />
<stop  offset="1"  style="stop-color:#430101;stop-opacity:1" />
</radialGradient>
<path style="fill:url(#RadialGradID_16) " d="M-16.95,2.7L1.65 4.3L1.85 5.65L1.8 47.55L-5.5 39.25L-1.2 38.5Q1.95 31 -1.1 22.6L-2.2 19.5L0.1 19.15L0.4 18.7Q0.7 13.5 -2.7 9.95Q-3.75 8.85 -5.45 8.5Q-11.5 7.6 -17.1 6L-16.95 2.7" />
<linearGradient
id="LinearGradID_17" gradientUnits="userSpaceOnUse" gradientTransform="matrix(0, 0.017334, -0.0117493, 0, -70.8, 26.55)" spreadMethod ="pad" x1="-819.2" y1="0" x2="819.2" y2="0" >
<stop  offset="0" style="stop-color:#FFFFFF;stop-opacity:0.890196" />
<stop  offset="0.533333" style="stop-color:#DBCCCC;stop-opacity:0.898039" />
<stop  offset="0.596078" style="stop-color:#AA8888;stop-opacity:0.901961" />
<stop  offset="1" style="stop-color:#CEBDBD;stop-opacity:0.905882" />
</linearGradient>
<path style="fill:url(#LinearGradID_17) " d="M-18.4,24.3L-18.9 14.75L-19.05 23.7L-19.2 23.15Q-19.55 14.9 -19.45 6.5L-19.05 7.05L-18.4 15.5L-17.95 7.2L-17.9 25.05L-18.4 24.3M-17.15,25.8L-17.05 7.25L-15.45 7.7L-15.45 11.35L-16.15 11.3L-16.4 14.6L-15.6 15.3L-15.85 18.95L-16 18.9L-16.15 18.9L-16.2 19.05L-16.4 21.8L-16.4 22.75L-15.6 23.85L-15.45 27.8L-17.15 25.8M-12.1,31.7L-12.3 25.6L-12.7 21.1L-13.3 30.3L-14.1 29.45L-14.7 7.9L-14.1 8.2L-13.65 15.5L-12.85 8.5L-12.25 8.65L-11.7 22.9L-10.95 9.1L-10 9.25L-11.2 32.7L-12.1 31.7M-8.2,36.15L-8.85 33.3L-9.2 27.4L-7.95 28.35L-6.9 32.85Q-6.5 26.2 -8.2 19.15Q-9.4 14.05 -7.35 9.3Q-6.9 9.7 -6.6 10.25Q-4.7 14.1 -5 18.35L-6.2 17.75L-6.3 17.4L-6.45 16.5L-6.5 16.1L-7.2 14.6Q-7.9 20.2 -5.75 26.1Q-5.05 28.1 -4.85 30.3Q-4.55 34.35 -6 38.3L-6.55 38.55L-8.2 36.15" />
</g>
</svg>
