<?xml version="1.0" encoding="utf-8"?>
<svg version="1.1" id="Layer_1"
xmlns="http://www.w3.org/2000/svg"
xmlns:xlink="http://www.w3.org/1999/xlink"
xmlns:author="http://www.sothink.com"
width="412px" height="38px"
xml:space="preserve">
<g id="476" transform="matrix(1, 0, 0, 1, 0, 0)">
<path style="fill:#0133EA;fill-opacity:1" d="M410.2,7.8L396.95 7.8L390.95 36.7L381.25 36.7L387.25 7.8L374 7.8L375.4 1L411.6 1L410.2 7.8M370.65,7.05Q371.2 8.85 370.85 11.35L360.1 11.35Q360.25 9.6 359.6 8.6Q358.9 7.55 357.75 7.05Q356.6 6.5 355.15 6.35L352.2 6.2Q349.2 6.2 347.15 7.4Q345.15 8.6 344.75 10.4Q344.45 11.85 345.4 12.65Q346.35 13.45 348.15 13.75L359.9 15.7Q362.25 16.1 364.2 16.8Q366.15 17.5 367.45 18.65Q368.7 19.8 369.2 21.5Q369.75 23.25 369.25 25.7Q368.75 28.2 367.35 30.4Q366 32.55 363.5 34.15Q361 35.8 357.25 36.75Q353.45 37.7 348.2 37.7L343.75 37.6L339.3 37Q337.15 36.55 335.35 35.75Q333.5 34.95 332.3 33.6Q331.05 32.2 330.55 30.25Q330.1 28.25 330.65 25.45L341.55 25.45Q341.2 27.3 341.85 28.4Q342.45 29.55 343.65 30.2Q344.85 30.8 346.4 31L349.55 31.2Q353 31.2 355.35 30.2Q357.65 29.15 358.15 26.75Q358.35 25.7 358.1 25.05L357.15 23.9Q356.45 23.45 355.4 23.15L352.95 22.65L344.4 21.3L340.05 20.35Q338 19.75 336.5 18.65Q335 17.5 334.35 15.75Q333.7 13.95 334.3 11.2Q335.55 5.25 340.75 2.65Q345.9 0 354.3 0L358.2 0.15L362.15 0.7Q364.1 1.1 365.85 1.9Q367.6 2.65 368.85 3.95Q370.05 5.2 370.65 7.05M328.25,6.6Q329.4 8.55 329.85 10.65Q330.25 12.75 330.1 14.85L329.6 18.85L328.45 22.85Q327.7 24.95 326.4 27.05Q325.1 29.15 323.15 31.1Q321.2 33 318.45 34.5Q315.65 35.95 311.95 36.8L303.45 37.7L295.35 36.8Q292 35.95 289.85 34.5Q287.7 33 286.55 31.1Q285.4 29.15 285 27.05Q284.55 24.95 284.65 22.85Q284.8 20.7 285.2 18.85Q285.6 17 286.35 14.85Q287.1 12.75 288.4 10.65Q289.7 8.55 291.6 6.6Q293.55 4.7 296.35 3.25Q299.1 1.75 302.8 0.9Q306.5 0 311.3 0Q316.1 0 319.45 0.9Q322.75 1.75 324.9 3.25Q327.1 4.7 328.25 6.6M319.6,14.65Q319.4 12.5 318.35 10.75Q317.3 9 315.25 7.9Q313.2 6.8 309.9 6.8Q306.6 6.8 304.1 7.9Q301.6 9 299.85 10.75Q298.05 12.5 297 14.65Q295.95 16.75 295.5 18.85Q295.05 20.95 295.25 23.1Q295.4 25.2 296.45 26.95Q297.5 28.7 299.55 29.8Q301.6 30.9 304.9 30.9Q308.2 30.9 310.7 29.8Q313.2 28.7 314.95 26.95Q316.75 25.2 317.8 23.1Q318.85 20.95 319.3 18.85Q319.75 16.75 319.6 14.65M280.3,29.6L278.85 36.7L247.4 36.7L254.8 1L264.5 1L258.55 29.6L280.3 29.6M203.95,29.6L225.7 29.6L224.25 36.7L192.8 36.7L200.2 1L209.9 1L203.95 29.6M190.1,36.7L179.65 36.7L178.25 29.35L161.85 29.35L157.45 36.7L147 36.7L170.1 1L181.8 1L190.1 36.7M165.8,22.85L177 22.85L174.35 8.7L165.8 22.85M142.3,1L151.7 1L144.3 36.7L133.75 36.7L119.45 11.8L119.35 11.8L114.2 36.7L104.8 36.7L112.2 1L123.45 1L137 25.9L137.1 25.9L142.3 1M103.15,12.75L92.35 12.75Q92.15 11 91.4 9.85Q90.6 8.7 89.55 8.05Q88.45 7.4 87.15 7.1L84.5 6.8Q81.2 6.8 78.7 7.9Q76.2 9 74.4 10.75Q72.65 12.5 71.6 14.65Q70.55 16.75 70.1 18.85Q69.65 20.95 69.85 23.1Q70 25.2 71.05 26.95Q72.1 28.7 74.15 29.8Q76.2 30.9 79.5 30.9L83.35 30.5Q85.15 30.1 86.7 29.15Q88.25 28.25 89.5 26.7Q90.75 25.2 91.65 23L83 23L84.3 16.8L102.5 16.8L98.4 36.7L93.5 36.7L93.05 32.55Q89.9 35.3 85.75 36.5Q81.65 37.7 76.95 37.7Q72.05 37.7 68.4 36.65Q64.7 35.55 62.45 33.25Q60.2 30.95 59.45 27.35Q58.75 23.8 59.8 18.85Q60.65 14.75 62.75 11.3Q64.9 7.8 68.1 5.3Q71.3 2.8 75.5 1.4Q79.75 0 84.8 0L91.85 0.6Q95.25 1.2 97.8 2.7Q100.3 4.15 101.8 6.6Q103.25 9.05 103.15 12.75M58.2,1L50.8 36.7L41.1 36.7L48.5 1L58.2 1M35.5,1.9Q37.25 2.65 38.5 3.95Q39.7 5.2 40.3 7.05Q40.85 8.85 40.5 11.35L29.75 11.35Q29.9 9.6 29.25 8.6Q28.55 7.55 27.4 7.05L24.8 6.35L21.85 6.2Q18.85 6.2 16.8 7.4Q14.8 8.6 14.4 10.4Q14.1 11.85 15.05 12.65Q16 13.45 17.8 13.75L29.55 15.7Q31.9 16.1 33.85 16.8Q35.8 17.5 37.1 18.65Q38.35 19.8 38.85 21.5Q39.4 23.25 38.9 25.7Q38.4 28.2 37 30.4Q35.65 32.55 33.15 34.15Q30.65 35.8 26.9 36.75Q23.1 37.7 17.85 37.7L13.4 37.6L8.95 37Q6.8 36.55 5 35.75Q3.15 34.95 1.95 33.6Q0.7 32.2 0.2 30.25Q-0.25 28.25 0.3 25.45L11.2 25.45Q10.85 27.3 11.5 28.4Q12.1 29.55 13.3 30.2Q14.5 30.8 16.05 31L19.2 31.2Q22.65 31.2 25 30.2Q27.3 29.15 27.8 26.75Q28 25.7 27.75 25.05L26.8 23.9Q26.1 23.45 25.05 23.15L22.6 22.65L14.05 21.3L9.7 20.35Q7.65 19.75 6.15 18.65Q4.65 17.5 4 15.75Q3.35 13.95 3.95 11.2Q5.2 5.25 10.4 2.65Q15.55 0 23.95 0L27.85 0.15L31.8 0.7Q33.75 1.1 35.5 1.9" />
</g>
</svg>
