<?xml version="1.0" encoding="utf-8"?>
<svg version="1.1" id="Layer_1"
xmlns="http://www.w3.org/2000/svg"
xmlns:xlink="http://www.w3.org/1999/xlink"
xmlns:author="http://www.sothink.com"
width="1280px" height="130px"
xml:space="preserve">
<g id="463" transform="matrix(1, 0, 0, 1, 0, 0)">
<path style="fill:#000000;fill-opacity:1" d="M1280,20.85L1206.45 130L1197.45 130L1280 7.5L1280 20.85M1280,37.15L1217.45 130L1208.45 130L1280 23.8L1280 37.15M1272.05,0L1184.45 130L1175.45 130L1263.05 0L1272.05 0M1280,4.55L1195.45 130L1186.45 130L1274.05 0L1280 0L1280 4.55M1250.1,0L1162.45 130L1153.45 130L1241.1 0L1250.1 0M1239.1,0L1151.45 130L1142.45 130L1230.1 0L1239.1 0M1228.1,0L1140.45 130L1131.45 130L1219.1 0L1228.1 0M1280,69.8L1239.45 130L1230.45 130L1280 56.45L1280 69.8M1280,86.1L1250.45 130L1241.45 130L1280 72.75L1280 86.1M1261.05,0L1173.45 130L1164.45 130L1252.1 0L1261.05 0M1280,53.5L1228.45 130L1219.45 130L1280 40.15L1280 53.5M1206.1,0L1118.45 130L1109.45 130L1197.1 0L1206.1 0M1195.1,0L1107.45 130L1098.45 130L1186.1 0L1195.1 0M1184.1,0L1096.45 130L1087.45 130L1175.1 0L1184.1 0M1151.1,0L1063.45 130L1054.45 130L1142.1 0L1151.1 0M1162.1,0L1074.45 130L1065.45 130L1153.1 0L1162.1 0M1173.1,0L1085.45 130L1076.45 130L1164.1 0L1173.1 0M1280,105.35L1280 118.7L1272.4 130L1263.4 130L1280 105.35M1274.4,130L1280 121.65L1280 130L1274.4 130M1261.45,130L1252.45 130L1280 89.05L1280 102.4L1261.45 130M1217.1,0L1129.45 130L1120.45 130L1208.1 0L1217.1 0M1107.1,0L1019.5 130L1010.5 130L1098.1 0L1107.1 0M1118.1,0L1030.5 130L1021.5 130L1109.1 0L1118.1 0M1129.1,0L1041.5 130L1032.5 130L1120.1 0L1129.1 0M1085.1,0L997.5 130L988.5 130L1076.1 0L1085.1 0M1074.1,0L986.5 130L977.5 130L1065.1 0L1074.1 0M1063.1,0L975.5 130L966.5 130L1054.1 0L1063.1 0M1096.1,0L1008.5 130L999.5 130L1087.1 0L1096.1 0M1041.1,0L953.5 130L944.5 130L1032.15 0L1041.1 0M1052.1,0L964.5 130L955.5 130L1043.1 0L1052.1 0M1030.15,0L942.5 130L933.5 130L1021.15 0L1030.15 0M1008.15,0L920.5 130L911.5 130L999.15 0L1008.15 0M997.15,0L909.5 130L900.5 130L988.15 0L997.15 0M986.15,0L898.5 130L889.5 130L977.15 0L986.15 0M1019.15,0L931.5 130L922.5 130L1010.15 0L1019.15 0M1043.5,130L1131.1 0L1140.1 0L1052.5 130L1043.5 130M964.15,0L876.5 130L867.5 130L955.15 0L964.15 0M953.15,0L865.5 130L856.5 130L944.15 0L953.15 0M942.15,0L854.5 130L845.5 130L933.15 0L942.15 0M909.15,0L821.55 130L812.55 130L900.15 0L909.15 0M920.15,0L832.55 130L823.55 130L911.15 0L920.15 0M931.15,0L843.5 130L834.5 130L922.15 0L931.15 0M865.15,0L777.55 130L768.55 130L856.15 0L865.15 0M876.15,0L788.55 130L779.55 130L867.15 0L876.15 0M887.15,0L799.55 130L790.55 130L878.15 0L887.15 0M843.15,0L755.55 130L746.55 130L834.15 0L843.15 0M832.15,0L744.55 130L735.55 130L823.15 0L832.15 0M821.15,0L733.55 130L724.55 130L812.2 0L821.15 0M854.15,0L766.55 130L757.55 130L845.15 0L854.15 0M878.5,130L966.15 0L975.15 0L887.5 130L878.5 130M898.15,0L810.55 130L801.55 130L889.15 0L898.15 0M788.2,0L700.55 130L691.55 130L779.2 0L788.2 0M799.2,0L711.55 130L702.55 130L790.2 0L799.2 0M744.2,0L656.55 130L647.55 130L735.2 0L744.2 0M755.2,0L667.55 130L658.55 130L746.2 0L755.2 0M766.2,0L678.55 130L669.55 130L757.2 0L766.2 0M777.2,0L689.55 130L680.55 130L768.2 0L777.2 0M722.2,0L634.55 130L625.55 130L713.2 0L722.2 0M711.2,0L623.55 130L614.6 130L702.2 0L711.2 0M700.2,0L612.6 130L603.6 130L691.2 0L700.2 0M667.7,0L580.1 130L571.1 130L658.7 0L667.7 0M678.7,0L591.1 130L581.6 130L669.2 0L678.7 0M689.2,0L601.6 130L592.6 130L680.2 0L689.2 0M713.55,130L801.2 0L810.2 0L722.55 130L713.55 130M733.2,0L645.55 130L636.55 130L724.2 0L733.2 0M623.7,0L536.1 130L527.1 130L614.7 0L623.7 0M634.7,0L547.1 130L538.1 130L625.7 0L634.7 0M645.7,0L558.1 130L549.1 130L636.7 0L645.7 0M590.75,0L503.1 130L494.1 130L581.75 0L590.75 0M601.75,0L514.1 130L505.1 130L592.75 0L601.75 0M579.75,0L492.1 130L483.1 130L570.75 0L579.75 0M612.7,0L525.1 130L516.1 130L603.7 0L612.7 0M557.75,0L470.1 130L461.1 130L548.75 0L557.75 0M546.75,0L459.1 130L450.1 130L537.75 0L546.75 0M535.75,0L448.1 130L439.1 130L526.75 0L535.75 0M502.75,0L415.1 130L406.1 130L493.75 0L502.75 0M513.75,0L426.1 130L417.1 130L504.75 0L513.75 0M524.75,0L437.1 130L428.1 130L515.75 0L524.75 0M647.7,0L656.7 0L569.1 130L560.1 130L647.7 0M568.75,0L481.1 130L472.1 130L559.75 0L568.75 0M469.75,0L382.15 130L373.15 130L460.75 0L469.75 0M480.75,0L393.15 130L384.15 130L471.75 0L480.75 0M458.75,0L371.15 130L362.15 130L449.75 0L458.75 0M425.75,0L338.15 130L329.15 130L416.75 0L425.75 0M436.75,0L349.15 130L340.15 130L427.75 0L436.75 0M414.75,0L327.15 130L318.15 130L405.75 0L414.75 0M447.75,0L360.15 130L351.15 130L438.75 0L447.75 0M392.75,0L305.15 130L296.15 130L383.8 0L392.75 0M403.75,0L316.15 130L307.15 130L394.75 0L403.75 0M381.8,0L294.15 130L285.15 130L372.8 0L381.8 0M348.8,0L261.15 130L252.15 130L339.8 0L348.8 0M359.8,0L272.15 130L263.15 130L350.8 0L359.8 0M337.8,0L250.15 130L241.15 130L328.8 0L337.8 0M370.8,0L283.15 130L274.15 130L361.8 0L370.8 0M395.15,130L482.75 0L491.75 0L404.1 130L395.15 130M315.8,0L228.15 130L219.15 130L306.8 0L315.8 0M304.8,0L217.15 130L208.15 130L295.8 0L304.8 0M293.8,0L206.15 130L197.15 130L284.8 0L293.8 0M260.8,0L173.2 130L164.2 130L251.8 0L260.8 0M271.8,0L184.15 130L175.2 130L262.8 0L271.8 0M282.8,0L195.15 130L186.15 130L273.8 0L282.8 0M216.8,0L129.2 130L120.2 130L207.8 0L216.8 0M227.8,0L140.2 130L131.2 130L218.8 0L227.8 0M238.8,0L151.2 130L142.2 130L229.8 0L238.8 0M194.8,0L107.2 130L98.2 130L185.8 0L194.8 0M172.8,0L85.2 130L76.2 130L163.85 0L172.8 0M183.8,0L96.2 130L87.2 130L174.8 0L183.8 0M205.8,0L118.2 130L109.2 130L196.8 0L205.8 0M230.15,130L317.8 0L326.8 0L239.15 130L230.15 130M162.2,130L153.2 130L240.8 0L249.8 0L162.2 130M139.85,0L52.2 130L43.2 130L130.85 0L139.85 0M150.85,0L63.2 130L54.2 130L141.85 0L150.85 0M161.85,0L74.2 130L65.2 130L152.85 0L161.85 0M95.85,0L8.2 130L0 130L0 128.8L86.85 0L95.85 0M106.85,0L19.2 130L10.2 130L97.85 0L106.85 0M117.85,0L30.2 130L21.2 130L108.85 0L117.85 0M128.85,0L41.2 130L32.2 130L119.85 0L128.85 0M62.85,0L0 93.2L0 79.9L53.85 0L62.85 0M73.85,0L0 109.55L0 96.2L64.85 0L73.85 0M51.85,0L0 76.9L0 63.6L42.85 0L51.85 0M29.85,0L0 44.25L0 30.9L20.85 0L29.85 0M9.85,0L18.85 0L0 27.95L0 14.6L9.85 0M7.85,0L0 11.65L0 0L7.85 0M31.85,0L40.85 0L0 60.55L0 47.25L31.85 0M0,112.5L75.85 0L84.85 0L0 125.85L0 112.5" />
</g>
</svg>
