<?xml version="1.0" encoding="utf-8"?>
<svg version="1.1" id="Layer_1"
xmlns="http://www.w3.org/2000/svg"
xmlns:xlink="http://www.w3.org/1999/xlink"
xmlns:author="http://www.sothink.com"
width="19px" height="19px"
xml:space="preserve">
<g id="2040" transform="matrix(1, 0, 0, 1, 9.2, 9.15)">
<path style="fill:#FFFFFF;fill-opacity:1" d="M5.85,-5.75L1.55 -5.75L1.55 -9.15L5.85 -9.15L5.85 -5.75" />
<path style="fill:#FFFFFF;fill-opacity:1" d="M1.55,-5.75L1.55 -2.25L-2.7 -2.25L-2.7 -5.75L1.55 -5.75" />
<path style="fill:#FFFFFF;fill-opacity:1" d="M5.85,-2.25L5.85 -0.4L4.75 -0.5L3.6 -0.25L1.55 0.5L1.55 -2.25L5.85 -2.25" />
<path style="fill:#FFFFFF;fill-opacity:1" d="M-2.7,-5.75L-6.95 -5.75L-6.95 -2.25L-2.7 -2.25L-2.7 1.2L-6.95 1.2L-6.95 8.4L-9.2 8.4L-9.2 -9.15L-2.7 -9.15L-2.7 -5.75" />
<path style="fill:#FFFFFF;fill-opacity:1" d="M4.75,0.75Q6.05 0.75 7.4 1.35Q9.05 2.15 9.15 3.3Q9.35 5.4 8.8 8.25L1.3 9.15L0.65 7.5Q0.6 7.2 1.1 6.25L1.65 5.4L2.65 6.55L5.35 5.8L5.45 4.8Q5.3 3.8 4.15 3.65L1.9 3.65L-0.5 2.1Q1.9 2.1 4.2 0.85L4.75 0.75" />
</g>
</svg>
