<?xml version="1.0" encoding="utf-8"?>
<svg version="1.1" id="Layer_1"
xmlns="http://www.w3.org/2000/svg"
xmlns:xlink="http://www.w3.org/1999/xlink"
xmlns:author="http://www.sothink.com"
width="18px" height="12px"
xml:space="preserve">
<g id="2032" transform="matrix(1, 0, 0, 1, 8.75, 5.65)">
<path style="fill:#FFFFFF;fill-opacity:1" d="M7.6,-5.25L3.6 2.15L2.3 3.35Q1.8 2.25 0.6 1.9L1.25 0.5L7.05 -5.65L7.6 -5.25M3.55,-4.1L2 -2.55L0 -2.85Q-2.8 -2.85 -4.75 -0.9Q-6.75 1.1 -6.75 3.9L-2.55 3.9L-2.6 4.35L-2.55 4.8L-8.75 4.8L-8.75 3.9Q-8.75 0.25 -6.2 -2.3Q-3.65 -4.85 0 -4.85Q1.9 -4.85 3.55 -4.1M-1.3,4.8L-1.4 4.45L-1.4 4.35L-1.3 3.9L-0.9 3.3L-0.05 3L0.1 3.05Q0.95 3.15 1.2 3.9L1.3 4.3L1.3 4.35L1.2 4.8Q0.95 5.5 0.25 5.65L-0.05 5.7Q-0.95 5.7 -1.3 4.8M6,0.9L7.15 -1.2Q8.75 1.1 8.75 3.9L8.8 4.8L3 4.8L4 3.9L6.75 3.9Q6.75 2.4 6 0.9" />
</g>
</svg>
