<?xml version="1.0" encoding="utf-8"?>
<svg version="1.1" id="Layer_1"
xmlns="http://www.w3.org/2000/svg"
xmlns:xlink="http://www.w3.org/1999/xlink"
xmlns:author="http://www.sothink.com"
width="26px" height="26px"
xml:space="preserve">
<g id="549" transform="matrix(1, 0, 0, 1, 0, 0)">
<path style="fill:#000000;fill-opacity:1" d="M23.45,16.2Q22.2 17.65 18.85 18.65L16.65 19.3Q18.5 19.65 19.2 20.4L19.35 20.75L19.3 20.9L18.95 21.2L17.65 21.35L13.6 20.45L13.4 20.4L13.35 22.95Q13.35 23.85 12.8 24.1L12.6 24.15L12.4 24.1Q11.85 23.85 11.85 22.95L11.75 20.4L11.55 20.45Q9.1 21.35 7.55 21.35L6.2 21.2L5.85 20.9L5.85 20.75L5.95 20.4Q6.7 19.65 8.5 19.3L6.3 18.65Q2.95 17.65 1.75 16.2L1.6 15.9L1.65 15.7Q1.85 15.4 2.1 15.4Q5.5 15.5 8.8 16.9Q5.6 13.9 3.95 11Q2.6 8.8 2.35 7.05L2.35 7L2.6 6.6Q2.85 6.45 3.1 6.6Q8.15 10 10.85 14.75Q10.45 11.95 10.45 9.75Q10.45 5.4 12.15 1.9Q12.3 1.65 12.6 1.65L13 1.9Q14.7 5.4 14.7 9.75Q14.7 12.3 14.35 14.75Q17.1 9.9 22.1 6.6Q22.35 6.45 22.6 6.6L22.8 7L22.8 7.05Q22.65 8.8 21.25 11Q19.55 13.85 16.4 16.9Q19.7 15.45 23.1 15.4Q23.35 15.4 23.55 15.7L23.55 15.9L23.45 16.2" />
<path style="fill:#000000;fill-opacity:1" d="M24.45,7.2Q24.25 9.15 22.65 11.85L21.25 13.9L23.05 13.8Q24.4 13.8 25 15L25.2 15.9Q25.2 16.65 24.65 17.3Q23.25 18.85 20.7 19.75L20.95 20.75L20.9 21.35Q20.5 22.55 19.3 22.8L17.65 22.95L14.95 22.6L14.95 23Q14.9 24.95 13.45 25.55L12.6 25.75L11.75 25.6Q10.3 24.95 10.2 23L10.2 22.6L7.55 22.95L5.85 22.8Q4.7 22.55 4.3 21.35L4.2 20.75L4.45 19.75Q1.9 18.8 0.5 17.3Q0 16.75 0 15.9L0.2 15Q0.7 13.8 2.1 13.8L3.9 13.9L2.5 11.85Q0.95 9.05 0.75 7.2L0.75 7Q0.75 5.8 1.75 5.2L4 5.25Q6.7 7.1 8.85 9.3Q8.95 4.8 10.7 1.2Q11.25 0 12.6 0Q13.9 0 14.45 1.15Q16.25 4.8 16.35 9.3Q18.45 7.15 21.15 5.25L23.45 5.2Q24.45 5.85 24.45 7L24.45 7.2M12.6,5.5Q12.1 7.45 12.1 9.75Q12.1 12.2 12.45 14.5L12.6 15.35L12.7 14.5Q13.1 11.85 13.1 9.75Q13.1 7.75 12.6 5.5" />
<path style="fill:#FFFFFF;fill-opacity:1" d="M23.45,16.2Q22.2 17.65 18.85 18.65L16.65 19.3Q18.5 19.65 19.2 20.4L19.35 20.75L19.3 20.9L18.95 21.2L17.65 21.35L13.6 20.45L13.4 20.4L13.35 22.95Q13.35 23.85 12.8 24.1L12.6 24.15L12.4 24.1Q11.85 23.85 11.85 22.95L11.75 20.4L11.55 20.45Q9.1 21.35 7.55 21.35L6.2 21.2L5.85 20.9L5.85 20.75L5.95 20.4Q6.7 19.65 8.5 19.3L6.3 18.65Q2.95 17.65 1.75 16.2L1.6 15.9L1.65 15.7Q1.85 15.4 2.1 15.4Q5.5 15.5 8.8 16.9Q5.6 13.9 3.95 11Q2.6 8.8 2.35 7.05L2.35 7L2.6 6.6Q2.85 6.45 3.1 6.6Q8.15 10 10.85 14.75Q10.45 11.95 10.45 9.75Q10.45 5.4 12.15 1.9Q12.3 1.65 12.6 1.65L13 1.9Q14.7 5.4 14.7 9.75Q14.7 12.3 14.35 14.75Q17.1 9.9 22.1 6.6Q22.35 6.45 22.6 6.6L22.8 7L22.8 7.05Q22.65 8.8 21.25 11Q19.55 13.85 16.4 16.9Q19.7 15.45 23.1 15.4Q23.35 15.4 23.55 15.7L23.55 15.9L23.45 16.2" />
</g>
</svg>
