<?xml version="1.0" encoding="utf-8"?>
<svg version="1.1" id="Layer_1"
xmlns="http://www.w3.org/2000/svg"
xmlns:xlink="http://www.w3.org/1999/xlink"
xmlns:author="http://www.sothink.com"
width="18px" height="18px"
xml:space="preserve">
<g id="176" transform="matrix(1, 0, 0, 1, 0.75, 0.75)">
<path style="fill:#FFFFFF;fill-opacity:1" d="M16,8Q16 11.35 13.7 13.7Q11.35 16 8 16Q4.7 16 2.35 13.7Q0 11.35 0 8Q0 4.7 2.35 2.35Q4.7 0 8 0Q11.35 0 13.7 2.35Q16 4.7 16 8" />
<path style="fill:none;stroke-width:1.5;stroke-linecap:round;stroke-linejoin:round;stroke-miterlimit:3;stroke:#000000;stroke-opacity:1" d="M16,8Q16 11.35 13.7 13.7Q11.35 16 8 16Q4.7 16 2.35 13.7Q0 11.35 0 8Q0 4.7 2.35 2.35Q4.7 0 8 0Q11.35 0 13.7 2.35Q16 4.7 16 8z" />
</g>
</svg>
