<?xml version="1.0" encoding="utf-8"?>
<svg version="1.1" id="Layer_1"
xmlns="http://www.w3.org/2000/svg"
xmlns:xlink="http://www.w3.org/1999/xlink"
xmlns:author="http://www.sothink.com"
width="29px" height="28px"
xml:space="preserve">
<g id="572" transform="matrix(1, 0, 0, 1, 14.15, 13.95)">
<path style="fill:#000000;fill-opacity:1" d="M-7.65,-3.75L-9.45 -3.75Q-9.45 -6 -7.85 -7.65Q-6.2 -9.25 -3.95 -9.25L-3.95 -7.45Q-5.5 -7.45 -6.55 -6.35Q-7.65 -5.25 -7.65 -3.75" />
<path style="fill:#000000;fill-opacity:1" d="M-3.95,-11Q-3.25 -11 -2.7 -10.5Q-2.15 -10 -2.15 -9.25L-2.15 -7.45Q-2.15 -6.7 -2.7 -6.2Q-3.2 -5.7 -3.95 -5.65Q-4.75 -5.65 -5.3 -5.1Q-5.9 -4.5 -5.9 -3.7Q-5.9 -3 -6.4 -2.45Q-6.95 -1.95 -7.65 -1.95L-9.45 -1.95Q-10.25 -1.95 -10.7 -2.5Q-11.25 -2.95 -11.25 -3.75Q-11.25 -6.75 -9.1 -8.9Q-6.95 -11 -3.95 -11" />
<path style="fill:#000000;fill-opacity:1" d="M-4.35,-12.15L-4.35 -10.35Q-6.9 -10.35 -8.75 -8.55Q-10.55 -6.7 -10.6 -4.15L-12.4 -4.15Q-12.35 -7.45 -10 -9.8Q-8.85 -10.95 -7.35 -11.55Q-5.9 -12.15 -4.35 -12.15" />
<path style="fill:#000000;fill-opacity:1" d="M-8.8,-4.15Q-8.8 -3.4 -9.35 -2.9Q-9.85 -2.35 -10.6 -2.35L-12.4 -2.35Q-13.1 -2.35 -13.65 -2.9Q-14.15 -3.4 -14.15 -4.15Q-14.15 -6.1 -13.4 -7.9Q-12.65 -9.65 -11.3 -11.05Q-9.9 -12.45 -8.1 -13.2L-4.4 -13.95Q-3.65 -13.95 -3.1 -13.45Q-2.6 -12.9 -2.6 -12.15L-2.6 -10.35Q-2.6 -9.65 -3.1 -9.1Q-3.6 -8.6 -4.35 -8.6Q-6.15 -8.6 -7.5 -7.25Q-8.75 -6 -8.8 -4.15" />
<path style="fill:#000000;fill-opacity:1" d="M1.25,-7.8L11.35 2.3Q12.4 3.35 12.4 4.8Q12.4 6.3 11.35 7.35L7.55 11.15Q6.5 12.15 5.05 12.15Q3.55 12.15 2.5 11.15L-7.6 1.05L1.25 -7.8" />
<path style="fill:#000000;fill-opacity:1" d="M-5.05,1.05L3.8 9.85Q4.3 10.4 5.05 10.4Q5.8 10.4 6.3 9.85L10.1 6.1Q10.6 5.55 10.6 4.8Q10.6 4.05 10.1 3.55L1.25 -5.25L-5.05 1.05M2.5,-9.05L12.6 1.05Q14.15 2.6 14.15 4.8Q14.15 7.05 12.6 8.6L8.85 12.4Q7.25 13.95 5.05 13.95Q2.8 13.95 1.25 12.4L-8.85 2.3Q-9.35 1.8 -9.35 1.05Q-9.35 0.3 -8.85 -0.25L0 -9.05Q0.55 -9.55 1.25 -9.55Q2 -9.55 2.5 -9.05" />
<path style="fill:#000000;fill-opacity:1" d="M-1.25,-5.3Q-0.5 -4.5 -0.5 -3.4Q-0.5 -2.3 -1.25 -1.5Q-2.05 -0.7 -3.15 -0.7Q-4.25 -0.7 -5.05 -1.5Q-5.85 -2.3 -5.85 -3.4Q-5.85 -4.5 -5.05 -5.3Q-4.25 -6.05 -3.15 -6.05Q-2.05 -6.05 -1.25 -5.3" />
<path style="fill:#000000;fill-opacity:1" d="M-3.15,-4.3L-3.8 -4.05L-4.05 -3.4L-3.8 -2.75Q-3.55 -2.5 -3.15 -2.5L-2.55 -2.75Q-2.3 -3 -2.3 -3.4Q-2.3 -3.8 -2.55 -4L-3.15 -4.3M-6.3,-6.55Q-5 -7.85 -3.15 -7.85Q-1.3 -7.85 0 -6.55Q1.3 -5.25 1.3 -3.4Q1.3 -1.55 0 -0.25Q-1.3 1.05 -3.15 1.05Q-5 1.05 -6.3 -0.25Q-7.65 -1.55 -7.65 -3.4Q-7.65 -5.25 -6.3 -6.55" />
<path style="fill:#FFFFFF;fill-opacity:1" d="M-7.65,-3.75L-9.45 -3.75Q-9.45 -6 -7.85 -7.65Q-6.2 -9.25 -3.95 -9.25L-3.95 -7.45Q-5.5 -7.45 -6.55 -6.35Q-7.65 -5.25 -7.65 -3.75" />
<path style="fill:#FFFFFF;fill-opacity:1" d="M-4.35,-12.15L-4.35 -10.35Q-6.9 -10.35 -8.75 -8.55Q-10.55 -6.7 -10.6 -4.15L-12.4 -4.15Q-12.35 -7.45 -10 -9.8Q-8.85 -10.95 -7.35 -11.55Q-5.9 -12.15 -4.35 -12.15" />
<path style="fill:#FFFFFF;fill-opacity:1" d="M1.25,-7.8L11.35 2.3Q12.4 3.35 12.4 4.8Q12.4 6.3 11.35 7.35L7.55 11.15Q6.5 12.15 5.05 12.15Q3.55 12.15 2.5 11.15L-7.6 1.05L1.25 -7.8" />
<path style="fill:#FFFFFF;fill-opacity:1" d="M-1.25,-5.3Q-0.5 -4.5 -0.5 -3.4Q-0.5 -2.3 -1.25 -1.5Q-2.05 -0.7 -3.15 -0.7Q-4.25 -0.7 -5.05 -1.5Q-5.85 -2.3 -5.85 -3.4Q-5.85 -4.5 -5.05 -5.3Q-4.25 -6.05 -3.15 -6.05Q-2.05 -6.05 -1.25 -5.3" />
<path style="fill:#000000;fill-opacity:1" d="M-1.25,-0.25Q-0.75 0.3 -0.75 1.05Q-0.75 1.8 -1.25 2.3Q-1.8 2.8 -2.55 2.8Q-3.25 2.8 -3.8 2.3Q-4.3 1.8 -4.3 1.05Q-4.3 0.3 -3.8 -0.25Q-3.25 -0.75 -2.55 -0.75Q-1.8 -0.75 -1.25 -0.25" />
<path style="fill:#000000;fill-opacity:1" d="M2.5,-4Q3.05 -3.5 3.05 -2.75Q3.05 -2 2.5 -1.5Q2 -0.95 1.25 -0.95Q0.55 -0.95 0 -1.5Q-0.5 -2 -0.5 -2.75Q-0.5 -3.5 0 -4Q0.55 -4.5 1.25 -4.5Q2 -4.5 2.5 -4" />
<path style="fill:#000000;fill-opacity:1" d="M2.2,3.25Q2.75 3.75 2.75 4.5Q2.75 5.25 2.2 5.75Q1.7 6.3 0.95 6.3Q0.2 6.3 -0.3 5.75Q-0.85 5.25 -0.85 4.5Q-0.85 3.75 -0.3 3.25Q0.2 2.7 0.95 2.7Q1.7 2.7 2.2 3.25" />
<path style="fill:#000000;fill-opacity:1" d="M6,-0.55Q6.5 0 6.5 0.7Q6.5 1.45 6 1.95Q5.45 2.5 4.75 2.5Q4 2.5 3.45 1.95Q2.95 1.45 2.95 0.7Q2.95 0 3.45 -0.55Q4 -1.05 4.75 -1.05Q5.45 -1.05 6 -0.55" />
<path style="fill:#000000;fill-opacity:1" d="M5.65,6.7Q6.2 7.2 6.2 8Q6.2 8.7 5.65 9.25Q5.15 9.75 4.4 9.75Q3.7 9.75 3.15 9.25Q2.65 8.7 2.65 8Q2.65 7.2 3.15 6.7Q3.7 6.2 4.4 6.2Q5.15 6.2 5.65 6.7" />
<path style="fill:#000000;fill-opacity:1" d="M8.2,2.4Q8.95 2.4 9.45 2.95Q10 3.45 10 4.2Q10 4.95 9.45 5.45Q8.95 5.95 8.2 5.95Q7.45 5.95 6.95 5.45Q6.45 4.95 6.45 4.2Q6.45 3.45 6.95 2.95Q7.45 2.4 8.2 2.4" />
</g>
</svg>
