<?xml version="1.0" encoding="utf-8"?>
<svg version="1.1" id="Layer_1"
xmlns="http://www.w3.org/2000/svg"
xmlns:xlink="http://www.w3.org/1999/xlink"
xmlns:author="http://www.sothink.com"
width="162px" height="44px"
xml:space="preserve">
<g id="605" transform="matrix(1, 0, 0, 1, 80.9, 22)">
<path style="fill:#000000;fill-opacity:1" d="M12.95,-3.7L12.95 18L3.85 18L3.85 15.9L-1.65 15.9L-1.65 18L-4.8 18L-4.8 17.05L-7.65 17.05L-7.65 18L-17.95 18L-17.95 18.05L-27.8 18.05L-27.8 22L-41.05 22L-41.05 16.75L-41.55 16.75L-41.55 0.25L-63.55 0.25L-63.55 4.5L-64.7 4.5L-64.7 16.75L-80.9 16.75L-80.9 10.15L-79.95 10.15L-79.95 -8.85L-80.9 -8.85L-80.9 -17L-55.8 -17L-55.8 -18.25L-45.8 -18.25L-45.8 -22L-24.85 -22L-24.85 -20.3L67.15 -20.3L67.15 -13.2L80.85 -13.2L80.85 -5.5L51.7 -5.5L51.7 -4.75L30.2 -4.75L30.2 -3.7L12.95 -3.7" />
</g>
</svg>
