<?xml version="1.0" encoding="utf-8"?>
<svg version="1.1" id="Layer_1"
xmlns="http://www.w3.org/2000/svg"
xmlns:xlink="http://www.w3.org/1999/xlink"
xmlns:author="http://www.sothink.com"
width="147px" height="30px"
xml:space="preserve">
<g id="589" transform="matrix(1, 0, 0, 1, 73.5, 14.85)">
<path style="fill:#000000;fill-opacity:1" d="M73,-7.4L73 0.05L-10.25 0.05L-10.25 1.55L-11.1 1.55L-11.1 3.35L-16.2 3.35L-20.8 3.35L-20.8 4.7L-21.8 4.7L-21.8 14.2L-34.85 14.2L-34.85 11.6L-36.3 11.6L-36.3 5.35L-46 5.35L-52.4 5.35L-56.3 8.2L-56.35 8.25L-57.05 8.8L-58.55 9.85L-65.4 14.9L-71.85 14.9L-71.8 5.5L-73.5 5.5L-73.5 -9.05L-35.75 -9.05L-35.75 -10.5L-33.8 -10.5L-33.8 -14.85L-14.25 -14.85L-14.25 -14.05L64.05 -14.05L64.05 -14.85L73.5 -14.85L73.5 -7.4L73 -7.4M-56.45,5.2L-56.45 4.05L-57.55 4.05L-57.55 5L-58.55 5L-58.55 6.15L-57.45 6.15L-57.45 5.2L-56.45 5.2" />
<path style="fill:#000000;fill-opacity:1" d="M-57.45,5L-57.45 5.2L-57.45 6.15L-58.55 6.15L-58.55 5L-57.55 5L-57.45 5" />
<path style="fill:#000000;fill-opacity:1" d="M-57.45,5.2L-57.45 5L-57.55 5L-57.55 4.05L-56.45 4.05L-56.45 5.2L-57.45 5.2" />
</g>
</svg>
