<?xml version="1.0" encoding="utf-8"?>
<svg version="1.1" id="Layer_1"
xmlns="http://www.w3.org/2000/svg"
xmlns:xlink="http://www.w3.org/1999/xlink"
xmlns:author="http://www.sothink.com"
width="199px" height="26px"
xml:space="preserve">
<g id="631" transform="matrix(1, 0, 0, 1, 37.9, 99.45)">
<path style="fill:#FFFFFF;fill-opacity:1" d="M53.35,-99.35L53.6 -99.35L54.2 -99.4L54.35 -99.4L58.9 -99.45L60.95 -99.4L61.15 -99.45L61.85 -99.45L65.4 -99.4Q116.5 -98.65 160.2 -80.3L157.4 -73.5Q114.75 -90.65 65.4 -91.4L61.85 -91.45L61.2 -91.4L60.95 -91.45L58.85 -91.5L54.4 -91.3L54.2 -91.3L53.6 -91.25L53.35 -91.25L52.35 -91.25Q5.45 -89.85 -35.05 -73.45L-37.9 -80.3Q3.9 -97.95 52.35 -99.35L53.35 -99.35" />
</g>
</svg>
