<?xml version="1.0" encoding="utf-8"?>
<svg version="1.1" id="Layer_1"
xmlns="http://www.w3.org/2000/svg"
xmlns:xlink="http://www.w3.org/1999/xlink"
xmlns:author="http://www.sothink.com"
width="28px" height="24px"
xml:space="preserve">
<g id="574" transform="matrix(1, 0, 0, 1, 14, 11.7)">
<path style="fill:#000000;fill-opacity:1" d="M12,-2.3L12 2.4L-12 2.4L-12 -2.25L-10.1 -2.85L-7.85 -9.7L7.75 -9.7L10.45 -2.8L12 -2.3M6.9,9.75L6.9 5.35L-6.85 5.35L-6.85 9.75L-11.25 9.75L-11.25 5.35L-12 5.35L-12 3.9L12 3.9L12 5.35L11.3 5.35L11.3 9.75L6.9 9.75" />
<path style="fill:none;stroke-width:4;stroke-linecap:round;stroke-linejoin:round;stroke-miterlimit:3;stroke:#000000;stroke-opacity:1" d="M10.45,-2.8L7.75 -9.7L-7.85 -9.7L-10.1 -2.85L-12 -2.25L-12 2.4L12 2.4L12 -2.3L10.45 -2.8M11.3,9.75L11.3 5.35L12 5.35L12 3.9L-12 3.9L-12 5.35L-11.25 5.35L-11.25 9.75L-6.85 9.75L-6.85 5.35L6.9 5.35L6.9 9.75L11.3 9.75" />
<path style="fill:#F5F5F5;fill-opacity:1" d="M12,-2.3L12 2.4L-12 2.4L-12 -2.25L-10.1 -2.85L-7.85 -9.7L7.75 -9.7L10.45 -2.8L12 -2.3M6.75,-0.3Q6.75 0.55 7.3 1.1Q7.9 1.65 8.7 1.65Q9.55 1.65 10.1 1.1Q10.7 0.5 10.7 -0.3Q10.7 -1.65 9.45 -2.15L8.7 -2.3Q7.9 -2.3 7.3 -1.7Q6.75 -1.15 6.75 -0.3M6.95,-8.5L-7 -8.5L-8.75 -3.3L-8.1 -3.5L8.2 -3.5L9.05 -3.25L6.95 -8.5M6.9,9.75L6.9 5.35L-6.85 5.35L-6.85 9.75L-11.25 9.75L-11.25 5.35L-12 5.35L-12 3.9L12 3.9L12 5.35L11.3 5.35L11.3 9.75L6.9 9.75M-8.7,-2.3L-9.1 -2.25L-9.15 -2.25Q-10.7 -1.8 -10.7 -0.3Q-10.7 0.5 -10.1 1.1Q-9.55 1.65 -8.7 1.65Q-7.9 1.65 -7.35 1.1Q-6.75 0.5 -6.75 -0.3Q-6.75 -1.1 -7.35 -1.7Q-7.9 -2.3 -8.7 -2.3" />
</g>
</svg>
