<?xml version="1.0" encoding="utf-8"?>
<svg version="1.1" id="Layer_1"
xmlns="http://www.w3.org/2000/svg"
xmlns:xlink="http://www.w3.org/1999/xlink"
xmlns:author="http://www.sothink.com"
width="20px" height="19px"
xml:space="preserve">
<g id="639" transform="matrix(1, 0, 0, 1, -0.2, 0)">
<path style="fill:#000000;fill-opacity:1" d="M10.9,0.25L11.35 0.95L13.05 6.1L18.45 6.1Q18.9 6.1 19.35 6.4L19.3 6.4Q19.65 6.6 19.8 7.1L19.8 8L19.8 7.95L19.35 8.65L19.35 8.7L14.9 11.85L16.6 17L16.6 17.85L16.6 17.9L16.05 18.6L15.25 18.85L14.45 18.55L10.1 15.4L5.65 18.6L5.65 18.55L4.8 18.85L4 18.6L3.5 17.9L3.45 17.85L3.45 17L5.15 11.85L0.75 8.7L0.75 8.65L0.25 7.95L0.3 8Q0.1 7.5 0.3 7.1L0.25 7.1L0.75 6.4Q1.15 6.1 1.6 6.1L7 6.1L8.7 0.95Q8.8 0.55 9.2 0.25L10.05 0L10.85 0.25L10.9 0.25" />
<path style="fill:#FFFFFF;fill-opacity:1" d="M13.25,11.3L15.25 17.45L10.05 13.65L4.8 17.45L6.8 11.3L1.6 7.5L8.05 7.5L10.05 1.4L12 7.5L18.45 7.5L13.25 11.3" />
</g>
</svg>
