<?xml version="1.0" encoding="utf-8"?>
<svg version="1.1" id="Layer_1"
xmlns="http://www.w3.org/2000/svg"
xmlns:xlink="http://www.w3.org/1999/xlink"
xmlns:author="http://www.sothink.com"
width="200px" height="39px"
xml:space="preserve">
<g id="621" transform="matrix(1, 0, 0, 1, 99.85, 19.4)">
<path style="fill:#000000;fill-opacity:1" d="M3.75,-10.55L-31.2 -10.55L-31.2 -11.85L-37.15 -11.85L-37.15 -19.4L3.75 -19.4L3.75 -11.7L3.75 -10.55" />
<path style="fill:#000000;fill-opacity:1" d="M-34.2,-9.55L-31.2 -9.55L-31.2 -10.55L3.75 -10.55L3.75 -11.7L24.65 -11.7L24.65 -9.55L24.65 -7.8L-33.8 -7.8L-33.8 -8.3L-33.8 -8.8L-34.2 -8.8L-34.2 -9.55" />
<path style="fill:#000000;fill-opacity:1" d="M-34.8,-8.35L-34.8 -8.3L-33.8 -8.3L-33.8 -7.8L24.65 -7.8L24.65 -9.55L99.9 -9.55L99.9 3.45L85.25 3.45L85.25 0.05L41.25 0.05L41.25 3.45L-17.35 3.45L-17.35 19.1L-43.85 19.1L-43.85 19.45L-59.55 19.45L-59.55 13.05L-99.85 13.05L-99.85 -9.55L-36.45 -9.55L-36.45 -8.35L-34.8 -8.35" />
<path style="fill:#000000;fill-opacity:1" d="M-34.25,-10.3L-34.2 -10.3L-34.2 -9.55L-34.25 -9.55L-34.25 -10.3" />
<path style="fill:#000000;fill-opacity:1" d="M-34.25,-9.55L-34.8 -9.55L-34.9 -9.55L-34.9 -10.3L-34.25 -10.3L-34.25 -9.55" />
<path style="fill:#000000;fill-opacity:1" d="M-34.2,-8.8L-33.8 -8.8L-33.8 -8.3L-34.8 -8.3L-34.8 -8.35L-34.8 -9.55L-34.25 -9.55L-34.2 -9.55L-34.2 -8.8" />
<path style="fill:#000000;fill-opacity:1" d="M-36.45,-8.35L-36.45 -9.55L-34.9 -9.55L-34.8 -9.55L-34.8 -8.35L-36.45 -8.35" />
</g>
</svg>
