<?xml version="1.0" encoding="utf-8"?>
<svg version="1.1" id="Layer_1"
xmlns="http://www.w3.org/2000/svg"
xmlns:xlink="http://www.w3.org/1999/xlink"
xmlns:author="http://www.sothink.com"
width="163px" height="51px"
xml:space="preserve">
<g id="603" transform="matrix(1, 0, 0, 1, 81.4, 25.5)">
<path style="fill:#000000;fill-opacity:1" d="M6.15,-6.65L6.15 -2.5L6.5 -2.5L6.5 2.55L7.65 2.55L7.65 4.35L9.5 4.35L9.5 6.5L10.6 6.5L10.6 7.55L11.65 7.55L11.65 8.55L13.65 8.55L13.65 9.4L14.75 9.4L14.75 10.75L18.85 10.75L18.85 18.65L16.85 18.65L16.85 20.9L13.85 20.9L13.85 25.5L4.7 25.5L4.7 22L1.7 22L1.7 20L-1.3 20L-1.3 16L-8.15 16L-8.15 10.15L-9.65 10.15L-9.65 4.4L-13.15 4.4L-13.15 -1.35L-24.15 -1.35L-24.15 5.15L-26.4 5.15L-26.4 10.15L-41.6 10.15L-41.6 -0.8L-81.4 -0.8L-81.4 -19.8L-40.3 -19.8L-40.3 -25.5L58.7 -25.5L58.7 -18.8L70.5 -18.8L70.5 -25.5L81.35 -25.5L81.35 -12.1L78.85 -12.1L78.85 -10.6L40.55 -10.6L40.55 -6.65L36.45 -6.65L6.15 -6.65" />
</g>
</svg>
