<?xml version="1.0" encoding="utf-8"?>
<svg version="1.1" id="Layer_1"
xmlns="http://www.w3.org/2000/svg"
xmlns:xlink="http://www.w3.org/1999/xlink"
xmlns:author="http://www.sothink.com"
width="169px" height="47px"
xml:space="preserve">
<g id="620" transform="matrix(1, 0, 0, 1, 84.1, 23.5)">
<path style="fill:#000000;fill-opacity:1" d="M19.15,-7.75L19 -7.75L19 -20.9L19.1 -20.9L19.15 -20.9L19.15 -7.75" />
<path style="fill:#000000;fill-opacity:1" d="M19.2,-7.75L19.15 -7.75L19.15 -20.9L19.2 -20.9L19.2 -7.75" />
<path style="fill:#000000;fill-opacity:1" d="M32.8,-0.95L30.15 -0.95L30.15 1.6L20.7 1.6L20.7 -7.75L19.2 -7.75L19.2 -20.9L19.65 -20.9L20.95 -20.9L27.85 -20.9L30.45 -20.9L30.45 -18.1L32.8 -18.1L32.8 -0.95" />
<path style="fill:#000000;fill-opacity:1" d="M18.95,-7.75L18.8 -7.75L18.8 -20.9L18.85 -20.9L18.95 -20.9L18.95 -7.75" />
<path style="fill:#000000;fill-opacity:1" d="M18.75,-20.9L18.8 -20.9L18.8 -7.75L18.75 -7.75L18.75 -20.9" />
<path style="fill:#000000;fill-opacity:1" d="M-12.75,8.35L-12.75 7.7L-16.5 7.7L-16.5 -13.45L-16.25 -13.45L-16.25 -18.05L-15 -18.05L-15 -18.9L5.3 -18.9L5.3 -14.1L5.55 -14.1L5.8 -14.1L6 -14.1L6.2 -14.1L6.35 -14.1L6.6 -14.1L6.85 -14.1L7.05 -14.1L7.3 -14.1L7.55 -14.1L7.55 -18.9L8.05 -18.9L8.05 -20.9L18.2 -20.9L18.3 -20.9L18.55 -20.9L18.6 -20.9L18.75 -20.9L18.75 -7.75L18.35 -7.75L17.4 -7.75L16.55 -7.75L16.55 1.6L6.85 1.6L6.85 3.7L2.65 3.7L2.65 8.35L-12.75 8.35" />
<path style="fill:#000000;fill-opacity:1" d="M18.95,-20.9L19 -20.9L19 -7.75L18.95 -7.75L18.95 -20.9" />
<path style="fill:#000000;fill-opacity:1" d="M6,-14.1L5.8 -14.1L5.8 -18.9L6 -18.9L6 -14.1" />
<path style="fill:#000000;fill-opacity:1" d="M5.8,-14.1L5.55 -14.1L5.55 -18.9L5.8 -18.9L5.8 -14.1" />
<path style="fill:#000000;fill-opacity:1" d="M5.55,-14.1L5.3 -14.1L5.3 -18.9L5.55 -18.9L5.55 -14.1" />
<path style="fill:#000000;fill-opacity:1" d="M6.2,-14.1L6 -14.1L6 -18.9L6.2 -18.9L6.2 -14.1" />
<path style="fill:#000000;fill-opacity:1" d="M7.3,-18.9L7.55 -18.9L7.55 -14.1L7.3 -14.1L7.3 -18.9" />
<path style="fill:#000000;fill-opacity:1" d="M7.05,-14.1L6.85 -14.1L6.85 -18.9L7.05 -18.9L7.05 -14.1" />
<path style="fill:#000000;fill-opacity:1" d="M7.05,-18.9L7.3 -18.9L7.3 -14.1L7.05 -14.1L7.05 -18.9" />
<path style="fill:#000000;fill-opacity:1" d="M6.85,-14.1L6.6 -14.1L6.6 -18.9L6.85 -18.9L6.85 -14.1" />
<path style="fill:#000000;fill-opacity:1" d="M6.35,-18.9L6.6 -18.9L6.6 -14.1L6.35 -14.1L6.35 -18.9" />
<path style="fill:#000000;fill-opacity:1" d="M6.35,-14.1L6.2 -14.1L6.2 -18.9L6.35 -18.9L6.35 -14.1" />
<path style="fill:#000000;fill-opacity:1" d="M18.95,-7.75L19 -7.75L19 1.6L18.35 1.6L18.35 -7.75L18.75 -7.75L18.8 -7.75L18.95 -7.75" />
<path style="fill:#000000;fill-opacity:1" d="M20.7,1.6L19 1.6L19 -7.75L19.15 -7.75L19.2 -7.75L20.7 -7.75L20.7 1.6" />
<path style="fill:#000000;fill-opacity:1" d="M17.4,-7.75L18.35 -7.75L18.35 1.6L17.4 1.6L17.4 -7.75" />
<path style="fill:#000000;fill-opacity:1" d="M17.4,1.6L16.55 1.6L16.55 -7.75L17.4 -7.75L17.4 1.6" />
<path style="fill:#000000;fill-opacity:1" d="M41.6,-0.95L32.8 -0.95L32.8 -18.1L41.6 -18.1L41.6 -0.95" />
<path style="fill:#000000;fill-opacity:1" d="M63.5,-10.9L55.05 -10.9L55.05 -8.35L54.7 -8.35L54.7 -0.95L51.4 -0.95L51.4 -18.1L63.5 -18.1L63.5 -10.9" />
<path style="fill:#000000;fill-opacity:1" d="M51.4,-0.95L41.6 -0.95L41.6 -18.1L51.4 -18.1L51.4 -0.95" />
<path style="fill:#000000;fill-opacity:1" d="M80.35,-9.3L66.35 -9.3L66.35 -10.9L66.35 -18.1L66.35 -18.3L70.85 -18.3L70.85 -23.5L76.15 -23.5L76.15 -19.4L80.35 -19.4L80.35 -9.3" />
<path style="fill:#000000;fill-opacity:1" d="M63.9,-18.1L66.35 -18.1L66.35 -10.9L63.9 -10.9L63.9 -18.1" />
<path style="fill:#000000;fill-opacity:1" d="M63.5,-18.1L63.9 -18.1L63.9 -10.9L63.5 -10.9L63.5 -18.1" />
<path style="fill:#000000;fill-opacity:1" d="M80.35,-19.4L84.15 -19.4L84.15 -9.3L80.35 -9.3L80.35 -19.4" />
<path style="fill:#000000;fill-opacity:1" d="M2.65,8.35L2.65 10.6L-12.75 10.6L-12.75 8.35L2.65 8.35" />
<path style="fill:#000000;fill-opacity:1" d="M-12.95,14.05L-12.95 10.6L-12.75 10.6L2.65 10.6L3.25 10.6L3.25 14.05L-12.95 14.05" />
<path style="fill:#000000;fill-opacity:1" d="M3.25,19.25L3.25 19.45L-12.95 19.45L-12.95 19.25L3.25 19.25" />
<path style="fill:#000000;fill-opacity:1" d="M-12.95,19.25L-12.95 14.45L3.25 14.45L3.25 19.25L-12.95 19.25" />
<path style="fill:#000000;fill-opacity:1" d="M-12.95,14.45L-12.95 14.05L3.25 14.05L3.25 14.45L-12.95 14.45" />
<path style="fill:#000000;fill-opacity:1" d="M3.25,19.45L3.25 23.5L-12.95 23.5L-12.95 19.45L3.25 19.45" />
<path style="fill:#000000;fill-opacity:1" d="M-81.2,11.5L-84.1 11.5L-84.1 -15.9L-81.2 -15.9L-81.2 11.5" />
<path style="fill:#000000;fill-opacity:1" d="M-49.85,-15.9L-41.85 -15.9L-41.85 4.15L-48.45 4.15L-48.45 11.5L-49.85 11.5L-49.85 -15.9" />
<path style="fill:#000000;fill-opacity:1" d="M-71.6,-15.9L-49.85 -15.9L-49.85 11.5L-71.6 11.5L-71.6 -15.9" />
<path style="fill:#000000;fill-opacity:1" d="M-71.6,11.5L-71.7 11.5L-71.7 -15.9L-71.6 -15.9L-71.6 11.5" />
<path style="fill:#000000;fill-opacity:1" d="M-23,7.7L-25.95 7.7L-25.95 8.1L-32.95 8.1L-32.95 18.1L-46.35 18.1L-46.35 11.5L-48.45 11.5L-48.45 4.15L-41.85 4.15L-41.85 -15.9L-35.75 -15.9L-35.75 -18.9L-33.9 -18.9L-33.9 -18.05L-23 -18.05L-23 7.7" />
<path style="fill:#000000;fill-opacity:1" d="M-16.5,7.7L-23 7.7L-23 -18.05L-17.3 -18.05L-17.3 -13.45L-16.5 -13.45L-16.5 7.7" />
<path style="fill:#000000;fill-opacity:1" d="M-16.25,-13.45L-16.5 -13.45L-17.3 -13.45L-17.3 -18.05L-16.25 -18.05L-16.25 -13.45" />
<path style="fill:#000000;fill-opacity:1" d="M-81.2,-15.9L-71.7 -15.9L-71.7 11.5L-81.2 11.5L-81.2 -15.9" />
</g>
</svg>
