<?xml version="1.0" encoding="utf-8"?>
<svg version="1.1" id="Layer_1"
xmlns="http://www.w3.org/2000/svg"
xmlns:xlink="http://www.w3.org/1999/xlink"
xmlns:author="http://www.sothink.com"
width="23px" height="29px"
xml:space="preserve">
<g id="569" transform="matrix(1, 0, 0, 1, 11.5, 14.15)">
<path style="fill:#000000;fill-opacity:1" d="M-3.45,1Q-1.85 1.8 -0.05 1.8Q1.8 1.8 3.4 1Q5 0.25 6.1 -1.1Q7.8 0.25 8.75 2.2Q9.75 4.2 9.75 6.45L9.75 12.4L-9.75 12.4L-9.75 6.45Q-9.75 4.2 -8.8 2.2Q-7.85 0.25 -6.15 -1.1Q-5.05 0.25 -3.45 1" />
<path style="fill:#000000;fill-opacity:1" d="M7.2,-2.45Q9.25 -0.85 10.35 1.5Q11.5 3.85 11.5 6.45L11.5 14.15L-11.5 14.15L-11.5 6.45Q-11.5 3.85 -10.4 1.5Q-9.3 -0.85 -7.25 -2.45L-5.9 -3.6L-4.8 -2.25Q-3.9 -1.15 -2.65 -0.6Q-1.4 0 -0.05 0Q1.35 0 2.6 -0.6Q3.85 -1.15 4.75 -2.25L5.85 -3.6L7.2 -2.45M-8,10.6L7.95 10.6L7.95 6.45Q7.95 3.6 6.1 1.35Q3.4 3.55 -0.05 3.55Q-3.5 3.55 -6.15 1.35Q-8 3.55 -8 6.45L-8 10.6" />
<path style="fill:#000000;fill-opacity:1" d="M5.75,-6.65Q5.75 -4.25 4.05 -2.55Q2.35 -0.85 -0.05 -0.85Q-2.4 -0.85 -4.1 -2.55Q-5.8 -4.25 -5.8 -6.65Q-5.8 -9 -4.1 -10.7Q-2.4 -12.4 -0.05 -12.4Q2.35 -12.4 4.05 -10.7Q5.75 -9 5.75 -6.65" />
<path style="fill:#000000;fill-opacity:1" d="M-2.85,-9.45Q-4 -8.3 -4 -6.65Q-4 -5 -2.85 -3.8Q-1.65 -2.65 -0.05 -2.65Q1.6 -2.65 2.8 -3.8Q3.95 -5 3.95 -6.65Q3.95 -8.3 2.8 -9.45Q1.6 -10.65 -0.05 -10.65Q-1.65 -10.65 -2.85 -9.45M-0.05,-14.15Q3.1 -14.15 5.3 -11.95Q7.5 -9.75 7.5 -6.65Q7.5 -3.5 5.3 -1.35Q3.1 0.9 -0.05 0.9Q-3.15 0.9 -5.35 -1.35Q-7.55 -3.5 -7.55 -6.65Q-7.55 -9.75 -5.35 -11.95Q-3.15 -14.15 -0.05 -14.15" />
<path style="fill:#FFFFFF;fill-opacity:1" d="M-3.45,1Q-1.85 1.8 -0.05 1.8Q1.8 1.8 3.4 1Q5 0.25 6.1 -1.1Q7.8 0.25 8.75 2.2Q9.75 4.2 9.75 6.45L9.75 12.4L-9.75 12.4L-9.75 6.45Q-9.75 4.2 -8.8 2.2Q-7.85 0.25 -6.15 -1.1Q-5.05 0.25 -3.45 1" />
<path style="fill:#FFFFFF;fill-opacity:1" d="M5.75,-6.65Q5.75 -4.25 4.05 -2.55Q2.35 -0.85 -0.05 -0.85Q-2.4 -0.85 -4.1 -2.55Q-5.8 -4.25 -5.8 -6.65Q-5.8 -9 -4.1 -10.7Q-2.4 -12.4 -0.05 -12.4Q2.35 -12.4 4.05 -10.7Q5.75 -9 5.75 -6.65" />
</g>
</svg>
