<?xml version="1.0" encoding="utf-8"?>
<svg version="1.1" id="Layer_1"
xmlns="http://www.w3.org/2000/svg"
xmlns:xlink="http://www.w3.org/1999/xlink"
xmlns:author="http://www.sothink.com"
width="29px" height="29px"
xml:space="preserve">
<g id="565" transform="matrix(1, 0, 0, 1, 14.15, 14.15)">
<path style="fill:#000000;fill-opacity:1" d="M-14.15,-14.15L14.2 -14.15L14.2 14.15L-14.15 14.15L-14.15 -14.15" />
<path style="fill:#FFFFFF;fill-opacity:1" d="M-11.3,-11.3Q-10.2 -12.4 -8.7 -12.4L8.75 -12.4Q10.25 -12.4 11.35 -11.3Q12.45 -10.25 12.45 -8.75L12.45 8.7Q12.45 10.25 11.35 11.35Q10.25 12.4 8.75 12.4L-8.7 12.4Q-10.2 12.4 -11.3 11.35Q-12.35 10.25 -12.35 8.7L-12.35 -8.75Q-12.35 -10.25 -11.3 -11.3" />
<path style="fill:#000000;fill-opacity:1" d="M5.35,0Q5.35 2.2 3.8 3.75Q2.25 5.3 0.05 5.3Q-2.15 5.3 -3.7 3.75Q-5.25 2.2 -5.25 0Q-5.25 -2.2 -3.7 -3.75Q-2.15 -5.3 0.05 -5.3Q2.25 -5.3 3.8 -3.75Q5.35 -2.2 5.35 0" />
<path style="fill:#000000;fill-opacity:1" d="M9.4,0.95Q9 1.3 8.45 1.3L-8.35 1.3Q-8.9 1.3 -9.3 0.95Q-9.7 0.55 -9.7 0Q-9.7 -0.55 -9.3 -0.95Q-8.9 -1.35 -8.35 -1.35L8.45 -1.35Q9 -1.35 9.4 -0.95Q9.75 -0.55 9.75 0Q9.75 0.55 9.4 0.95" />
<path style="fill:#000000;fill-opacity:1" d="M1.35,-8.25L1.35 8.2Q1.35 8.75 0.95 9.15Q0.6 9.55 0.05 9.55Q-0.5 9.55 -0.9 9.15Q-1.3 8.75 -1.3 8.2L-1.3 -8.25Q-1.3 -8.8 -0.9 -9.15Q-0.5 -9.55 0.05 -9.55Q0.6 -9.55 0.95 -9.15Q1.35 -8.8 1.35 -8.25" />
<path style="fill:#000000;fill-opacity:1" d="M-5,-6.75L6.9 4.85Q7.3 5.25 7.3 5.8Q7.3 6.35 6.95 6.75Q6.55 7.15 6 7.15Q5.45 7.15 5.05 6.75L-6.85 -4.85Q-7.25 -5.25 -7.25 -5.8Q-7.25 -6.35 -6.85 -6.75Q-6.5 -7.15 -5.95 -7.15Q-5.4 -7.15 -5 -6.75" />
<path style="fill:#000000;fill-opacity:1" d="M6.9,-4.85L-5 6.75Q-5.4 7.15 -5.9 7.15Q-6.45 7.15 -6.85 6.75Q-7.25 6.35 -7.25 5.8Q-7.25 5.25 -6.85 4.85L5.05 -6.75Q5.45 -7.15 6 -7.15Q6.55 -7.15 6.95 -6.75Q7.3 -6.35 7.3 -5.8Q7.3 -5.25 6.9 -4.85" />
</g>
</svg>
