<?xml version="1.0" encoding="utf-8"?>
<svg version="1.1" id="Layer_1"
xmlns="http://www.w3.org/2000/svg"
xmlns:xlink="http://www.w3.org/1999/xlink"
xmlns:author="http://www.sothink.com"
width="201px" height="40px"
xml:space="preserve">
<g id="601" transform="matrix(1, 0, 0, 1, 100.25, 19.65)">
<path style="fill:#000000;fill-opacity:1" d="M-33.95,-9L-34.35 -9L-34.35 -9.75L-31.35 -9.75L-31.35 -10.8L3.6 -10.8L3.6 -11.9L24.5 -11.9L24.5 -9L24.5 -8L-33.95 -8L-33.95 -9M-34.4,-9L-34.95 -9L-35.05 -9L-35.05 -9.75L-34.4 -9.75L-34.4 -9" />
<path style="fill:#000000;fill-opacity:1" d="M3.6,-11.9L3.6 -10.8L-31.35 -10.8L-31.35 -12.1L-37.3 -12.1L-37.3 -19.65L3.6 -19.65L3.6 -11.9" />
<path style="fill:#000000;fill-opacity:1" d="M100.3,-9L100.3 4L85.1 4L85.1 0.6L41.1 0.6L41.1 4L-17.5 4L-17.5 19.65L-59.7 19.65L-59.7 13.6L-100.25 13.6L-100.25 -9L-36.6 -9L-36.6 -7.8L-34.95 -7.8L-34.95 -7.75L-33.95 -7.75L-33.95 -8L24.5 -8L24.5 -9L100.3 -9" />
<path style="fill:#000000;fill-opacity:1" d="M-34.4,-9L-34.4 -9.75L-34.35 -9.75L-34.35 -9L-34.4 -9" />
<path style="fill:#000000;fill-opacity:1" d="M-34.35,-9L-33.95 -9L-33.95 -8L-33.95 -7.75L-34.95 -7.75L-34.95 -7.8L-34.95 -9L-34.4 -9L-34.35 -9" />
<path style="fill:#000000;fill-opacity:1" d="M-35.05,-9L-34.95 -9L-34.95 -7.8L-36.6 -7.8L-36.6 -9L-35.05 -9" />
</g>
</svg>
