<?xml version="1.0" encoding="utf-8"?>
<svg version="1.1" id="Layer_1"
xmlns="http://www.w3.org/2000/svg"
xmlns:xlink="http://www.w3.org/1999/xlink"
xmlns:author="http://www.sothink.com"
width="29px" height="20px"
xml:space="preserve">
<g id="562" transform="matrix(1, 0, 0, 1, 14.3, 9.9)">
<path style="fill:#FFFFFF;fill-opacity:1" d="M-13.3,-5.3Q-13.3 -5.7 -12.8 -5.7Q-12.5 -5.7 -12.4 -5.3L-12.2 -4.2L-6.45 -4.65L-6.4 -5.8L-6.2 -6.1L-5.6 -6.45Q-4.45 -6.75 -4.05 -5.95L-3.95 -4.55L-1.6 -4.6L-1.6 -5.3L-0.75 -8.5Q-0.6 -8.9 -0.1 -8.9L0.2 -8.85L0.6 -8.5L1.1 -6.9L1.5 -5.35L1.5 -4.65L3.85 -4.6L4 -5.75L4.5 -6.3L5.15 -6.5L6.1 -6.2L6.35 -5.4L6.35 -4.75L12.1 -4.35L12.45 -5.6L12.8 -5.9L13.1 -5.55L13.3 -2.4L13.1 -0.25L12.9 0.35Q12.6 0.5 12.55 0.1L12.4 -0.4L1.45 0.45L0.75 6.25L4.7 6.75L4.9 6.85L5.05 7.3L5 8.1L4.55 8.45L0.4 8.65L0.15 8.95L-0.1 8.95L-0.35 8.65L-4.5 8.5L-4.95 8.35L-5 7.4L-4.85 6.9L-4.7 6.8L-0.7 6.25L-1.15 3.2L-1.5 0.45L-12.45 -0.3L-12.55 0.25L-12.8 0.3L-12.9 0L-13.25 -2.6L-13.3 -5.3" />
<path style="fill:#000000;fill-opacity:1" d="M-13.9,-6.3Q-13.5 -6.7 -12.9 -6.7L-12.75 -6.7Q-11.65 -6.7 -11.4 -5.55L-11.35 -5.25L-7.4 -5.6L-7.4 -5.75L-7 -6.8Q-6.55 -7.25 -5.85 -7.4L-5.1 -7.5Q-3.7 -7.5 -3.2 -6.45L-3 -5.6L-2.6 -5.6L-1.65 -8.85Q-1.3 -9.9 -0.15 -9.9L-0.05 -9.9Q1.15 -9.9 1.55 -8.85L2.5 -5.6L3 -5.6L3.05 -5.8Q3.1 -6.65 3.9 -7.1Q4.5 -7.5 5.15 -7.5Q6.15 -7.5 6.75 -6.9Q7.3 -6.45 7.35 -5.65L11.35 -5.4L11.45 -5.85Q11.7 -6.9 12.75 -6.9Q13.85 -6.9 14.1 -5.75L14.3 -2.4L14.3 -2.35L14.1 -0.1L13.7 0.95Q13.4 1.4 12.8 1.4Q12.05 1.4 11.65 0.65L2.35 1.4L1.9 5.4L4.85 5.8Q5.35 5.85 5.7 6.25Q6.05 6.7 6.05 7.35L6 8.05L5.85 8.75Q5.5 9.35 4.7 9.45L0.9 9.65Q0.6 9.95 0.15 9.95L-0.1 9.95Q-0.55 9.95 -0.8 9.65L-4.6 9.5Q-5.5 9.35 -5.8 8.8L-5.95 8.15L-6 7.4Q-6 6.75 -5.6 6.3Q-5.3 5.9 -4.8 5.85L-1.9 5.4L-2.4 1.4L-11.7 0.8Q-12 1.45 -12.7 1.45Q-13.4 1.45 -13.75 0.7L-13.85 0.2L-14.25 -2.55L-14.3 -5.3Q-14.3 -5.9 -13.9 -6.3M-12.75,-5.7L-12.8 -5.7Q-13.3 -5.7 -13.3 -5.3L-13.25 -2.6L-12.9 0L-12.8 0.3L-12.7 0.45L-12.55 0.25L-12.45 -0.3L-1.5 0.45L-1.15 3.2L-0.7 6.25L-4.7 6.8L-4.85 6.9L-5 7.4L-4.95 8.35L-4.5 8.5L-0.35 8.65L-0.1 8.95L0.15 8.95L0.4 8.65L4.55 8.45L5 8.1L5.05 7.3L4.9 6.85L4.7 6.75L0.75 6.25L1.45 0.45L12.4 -0.4L12.55 0.1L12.8 0.4L12.9 0.35L13.1 -0.25L13.3 -2.4L13.1 -5.55L12.75 -5.9L12.45 -5.6L12.1 -4.35L6.35 -4.75L6.35 -5.4L6.1 -6.2L5.15 -6.5L4.5 -6.3L4 -5.75L3.85 -4.6L1.5 -4.65L1.5 -5.35L1.1 -6.9L0.6 -8.5Q0.45 -8.9 -0.05 -8.9L-0.1 -8.9Q-0.6 -8.9 -0.75 -8.5L-1.6 -5.3L-1.6 -4.6L-3.95 -4.55L-4.05 -5.95Q-4.35 -6.5 -5.1 -6.5L-5.6 -6.45L-6.2 -6.1L-6.4 -5.8L-6.45 -4.65L-12.2 -4.2L-12.4 -5.3Q-12.45 -5.7 -12.75 -5.7" />
</g>
</svg>
