<?xml version="1.0" encoding="utf-8"?>
<svg version="1.1" id="Layer_1"
xmlns="http://www.w3.org/2000/svg"
xmlns:xlink="http://www.w3.org/1999/xlink"
xmlns:author="http://www.sothink.com"
width="29px" height="20px"
xml:space="preserve">
<g id="564" transform="matrix(1, 0, 0, 1, -227.75, -6)">
<path style="fill:#000000;fill-opacity:1" d="M256.05,6L256.05 25.45L227.75 25.45L227.75 6L256.05 6" />
<path style="fill:#FFFFFF;fill-opacity:1" d="M253.85,8.2L253.85 23.25L229.95 23.25L229.95 8.2L253.85 8.2" />
<path style="fill:#000000;fill-opacity:1" d="M244.3,11.1Q244.7 11.3 244.9 11.45L244.3 13.2Q243.6 12.55 242.45 12.55L241.4 12.85Q241 13.1 241 13.6Q241 14.05 241.25 14.3L242.4 14.95Q244.95 15.95 244.9 17.85Q244.9 19.05 244.05 19.8Q243.15 20.6 241.6 20.6L239.5 20.15L238.9 19.75L239.5 18L240.2 18.4L241.7 18.8Q242.95 18.85 242.95 17.95L242.7 17.3Q242.4 17 241.5 16.65L239.8 15.6Q239 14.85 239.05 13.7Q239.05 12.4 239.95 11.6Q240.9 10.75 242.5 10.8L244.3 11.1" />
<path style="fill:#000000;fill-opacity:1" d="M243.15,9.5L243.15 12.05L241.4 12.05L241.4 9.5L243.15 9.5" />
<path style="fill:#000000;fill-opacity:1" d="M243.15,21.85L241.4 21.85L241.4 19.3L243.15 19.3L243.15 21.85" />
<path style="fill:#000000;fill-opacity:1" d="M232.3,6.8Q233.05 7.55 233.05 8.65Q233.05 9.75 232.3 10.55Q231.5 11.3 230.4 11.3Q229.3 11.3 228.5 10.55Q227.75 9.75 227.75 8.65Q227.75 7.55 228.5 6.8Q229.3 6 230.4 6Q231.5 6 232.3 6.8" />
<path style="fill:#000000;fill-opacity:1" d="M256.05,8.65Q256.05 9.75 255.3 10.55Q254.5 11.3 253.4 11.3Q252.3 11.3 251.55 10.55Q250.75 9.75 250.75 8.65Q250.75 7.55 251.55 6.8Q252.3 6 253.4 6Q254.5 6 255.3 6.8Q256.05 7.55 256.05 8.65" />
<path style="fill:#000000;fill-opacity:1" d="M232.3,20.9Q233.05 21.7 233.05 22.8Q233.05 23.9 232.3 24.65Q231.5 25.45 230.4 25.45Q229.3 25.45 228.5 24.65Q227.75 23.9 227.75 22.8Q227.75 21.7 228.5 20.9Q229.3 20.15 230.4 20.15Q231.5 20.15 232.3 20.9" />
<path style="fill:#000000;fill-opacity:1" d="M256.05,22.8Q256.05 23.9 255.3 24.65Q254.5 25.45 253.4 25.45Q252.3 25.45 251.55 24.65Q250.75 23.9 250.75 22.8Q250.75 21.7 251.55 20.9Q252.3 20.15 253.4 20.15Q254.5 20.15 255.3 20.9Q256.05 21.7 256.05 22.8" />
</g>
</svg>
