<?xml version="1.0" encoding="utf-8"?>
<svg version="1.1" id="Layer_1"
xmlns="http://www.w3.org/2000/svg"
xmlns:xlink="http://www.w3.org/1999/xlink"
xmlns:author="http://www.sothink.com"
width="67px" height="56px"
xml:space="preserve">
<g id="583" transform="matrix(1, 0, 0, 1, 33.25, 27.9)">
<path style="fill:#000000;fill-opacity:1" d="M19.8,-27.4L28.05 -27.4L28.05 -27.9L33.25 -27.9L33.25 12.6L14.55 12.6L14.55 5.6L12.3 5.6L12.3 3.85L-2.2 3.85L-2.2 4.85L-3.45 4.85L-3.45 5.6L-3.7 5.6L-3.7 12.6L-4.25 12.6L-4.25 27.85L-19.7 27.85L-19.7 7.6L-33.25 7.6L-33.25 -20.45L-12.95 -20.45L-12.95 -20.4L11.05 -20.4L11.05 -23.65L19.8 -23.65L19.8 -27.4" />
</g>
</svg>
