<?xml version="1.0" encoding="utf-8"?>
<svg version="1.1" id="Layer_1"
xmlns="http://www.w3.org/2000/svg"
xmlns:xlink="http://www.w3.org/1999/xlink"
xmlns:author="http://www.sothink.com"
width="144px" height="49px"
xml:space="preserve">
<g id="607" transform="matrix(1, 0, 0, 1, 72, 24.4)">
<path style="fill:#000000;fill-opacity:1" d="M13.9,6.65L13.9 8.5L-9.2 8.5L-9.2 15L-15.6 15L-15.6 20.8L-29.9 20.8L-29.9 9.6L-26.1 9.6L-26.1 -3L-28.1 -3L-28.1 -5.2L-32.7 -5.2L-32.7 -8.8L-35.4 -8.8L-35.4 -12.9L-63.5 -12.9L-63.5 -8.8L-66.9 -8.8L-66.9 -5.2L-67.3 -5.2L-67.3 -2.9L-68.8 -2.9L-68.8 4L-72 4L-72 -18.8L-38.7 -18.8L-38.7 -24.4L48.1 -24.4L48.1 -3.2L56 -3.2L56 -3.1L26.2 -3.1L26.2 -2.2L24.5 -2.2L24.5 6.65L13.9 6.65" />
<path style="fill:#000000;fill-opacity:1" d="M72,-24.4L72 -3.2L56 -3.2L48.1 -3.2L48.1 -24.4L72 -24.4" />
<path style="fill:#000000;fill-opacity:1" d="M13.9,8.5L13.9 6.65L24.5 6.65L26.2 6.65L26.2 18.1L28.9 18.1L28.9 24.4L15.6 24.4L15.6 20.8L14.8 20.8L14.8 15L13.9 15L13.9 8.5" />
</g>
</svg>
