<?xml version="1.0" encoding="utf-8"?>
<svg version="1.1" id="Layer_1"
xmlns="http://www.w3.org/2000/svg"
xmlns:xlink="http://www.w3.org/1999/xlink"
xmlns:author="http://www.sothink.com"
width="176px" height="48px"
xml:space="preserve">
<g id="611" transform="matrix(1, 0, 0, 1, 88, 24)">
<path style="fill:#000000;fill-opacity:1" d="M5.15,-3.05L5.15 4.9L2.85 4.9L2.85 24L-14.35 24L-14.35 9.35L-14.45 9.35L-14.45 5.55L-16.45 5.55L-16.45 6.05L-17.35 6.05L-17.35 9.35L-19.15 9.35L-19.15 11.05L-34.85 11.05L-34.85 13.25L-35.65 13.25L-35.65 19.95L-50.25 19.95L-50.25 8.85L-46.95 8.85L-46.95 3.45L-73.25 3.45L-73.25 7L-77 7L-77 8.8L-88 8.8L-88 -14.35L-51.25 -14.35L-51.25 -18.25L-46.25 -18.25L-46.25 -22.35L-41.85 -22.35L-41.85 -21.35L15.15 -21.35L15.15 -19.35L62.25 -19.35L62.25 -24L69.75 -24L69.75 -15L88 -15L88 -6.1L70.5 -6.1L70.5 2.75L26.05 2.75L26.05 -3L6.75 -3L6.75 -3.05L5.15 -3.05" />
</g>
</svg>
