<?xml version="1.0" encoding="utf-8"?>
<svg version="1.1" id="Layer_1"
xmlns="http://www.w3.org/2000/svg"
xmlns:xlink="http://www.w3.org/1999/xlink"
xmlns:author="http://www.sothink.com"
width="32px" height="30px"
xml:space="preserve">
<g id="580" transform="matrix(1, 0, 0, 1, 15.65, 14.8)">
<path style="fill:#000000;fill-opacity:1" d="M-0.85,-14.8L-0.85 14.85L-15.65 14.85L-15.65 -12.45L-9.15 -12.45L-9.15 -14.8L-0.85 -14.8" />
<path style="fill:#000000;fill-opacity:1" d="M-0.85,-14.8L8.85 -14.8L8.85 -12.3L13.5 -12.3L13.5 -10.5L15.65 -10.5L15.65 6.25L14.65 6.25L14.65 7.95L13.5 7.95L13.5 8.2L13.05 8.2L13.05 9.9L11.6 9.9L11.6 10.9L10.65 10.9L10.65 11.95L9.15 11.95L9.15 13.8L4.65 13.8L4.65 14.85L-0.85 14.85L-0.85 -14.8" />
</g>
</svg>
