<?xml version="1.0" encoding="utf-8"?>
<svg version="1.1" id="Layer_1"
xmlns="http://www.w3.org/2000/svg"
xmlns:xlink="http://www.w3.org/1999/xlink"
xmlns:author="http://www.sothink.com"
width="30px" height="22px"
xml:space="preserve">
<g id="560" transform="matrix(1, 0, 0, 1, 14.95, 10.55)">
<path style="fill:#FFFFFF;fill-opacity:1" d="M-9.05,-2.2L-6.3 -2.1L-6.15 -6.05L-5.9 -8.85L-6.55 -9.35L-6.25 -9.55L-2.1 -9.55L-1.9 -9.3L-3.5 -8.65L1.35 -2.55L3.55 -2.1Q7.4 -1.6 10.2 -0.75Q12.75 -0.75 13.95 0Q12.75 0.75 10.2 0.75Q7.4 1.65 3.55 2.15L1.35 2.6L-3.5 8.7L-1.9 9.3L-2.1 9.6L-6.25 9.6L-6.55 9.35L-5.9 8.9Q-6.4 3.65 -6.3 2.15L-9.05 2.2L-11.75 5.1Q-12.55 5.85 -12.65 4.8L-12.65 1.95L-11.95 1.8L-11.9 1.2L-13.4 0.3L-13.95 0L-13.4 -0.25L-12.65 -0.85L-11.9 -1.2L-11.95 -1.75L-12.65 -1.95L-12.65 -4.8Q-12.6 -5.4 -12.15 -5.3L-11.75 -5.1L-9.05 -2.2" />
<path style="fill:#000000;fill-opacity:1" d="M-11,-5.75L-8.6 -3.15L-7.3 -3.15L-6.95 -8.4L-7.15 -8.5Q-7.55 -8.8 -7.55 -9.3Q-7.55 -9.85 -7.15 -10.15L-6.85 -10.35L-6.25 -10.55L-2.1 -10.55Q-1.55 -10.55 -1.3 -10.15L-1.05 -9.85Q-0.8 -9.45 -0.9 -9L-1.5 -8.35L-1.85 -8.2L1.9 -3.45L3.7 -3.1Q7.65 -2.6 10.35 -1.75Q13.25 -1.7 14.5 -0.85L14.95 0Q14.95 0.6 14.5 0.9Q13 1.75 10.35 1.75Q7.65 2.6 3.7 3.1L1.9 3.5L-1.85 8.25L-1.5 8.35L-0.9 9Q-0.8 9.5 -1.05 9.9L-1.25 10.15Q-1.55 10.6 -2.1 10.6L-6.25 10.6L-6.85 10.4L-7.15 10.15Q-7.55 9.85 -7.55 9.35Q-7.55 8.8 -7.15 8.5L-6.95 8.4L-7.3 3.15L-8.6 3.2L-11.05 5.85Q-11.7 6.35 -12.25 6.35Q-13.5 6.35 -13.65 4.9L-13.65 1.95L-13.55 1.55L-14.15 1.05L-14.4 0.9L-14.8 0.5L-14.95 0.1Q-15.05 -0.55 -14.4 -0.9L-14.15 -1L-13.55 -1.55L-13.65 -1.95L-13.65 -4.85Q-13.5 -6.35 -12.25 -6.35Q-11.7 -6.35 -11.05 -5.85L-11 -5.75M-12.25,-5.35Q-12.6 -5.35 -12.65 -4.8L-12.65 -1.95L-11.95 -1.75L-11.9 -1.2L-12.65 -0.85L-13.4 -0.25L-13.95 0L-13.4 0.3L-11.9 1.2L-11.95 1.8L-12.65 1.95L-12.65 4.8Q-12.6 5.35 -12.25 5.35L-11.75 5.1L-9.05 2.2L-6.3 2.15Q-6.4 3.65 -5.9 8.9L-6.55 9.35L-6.25 9.6L-2.1 9.6L-1.9 9.3L-3.5 8.7L1.35 2.6L3.55 2.15Q7.4 1.65 10.2 0.75Q12.75 0.75 13.95 0Q12.75 -0.75 10.2 -0.75Q7.4 -1.6 3.55 -2.1L1.35 -2.55L-3.5 -8.65L-1.9 -9.3L-2.1 -9.55L-6.25 -9.55L-6.55 -9.35L-5.9 -8.85L-6.15 -6.05L-6.3 -2.1L-9.05 -2.2L-11.75 -5.1L-12.25 -5.35" />
</g>
</svg>
