<?xml version="1.0" encoding="utf-8"?>
<svg version="1.1" id="Layer_1"
xmlns="http://www.w3.org/2000/svg"
xmlns:xlink="http://www.w3.org/1999/xlink"
xmlns:author="http://www.sothink.com"
width="162px" height="42px"
xml:space="preserve">
<g id="612" transform="matrix(1, 0, 0, 1, 81, 21)">
<path style="fill:#000000;fill-opacity:1" d="M56.75,-21L62.35 -21L62.35 -14.4L81 -14.4L81 -7.75L64.6 -7.75L64.6 -1.25L46.6 -1.25L46.6 2.4L1.5 2.4L1.5 16.1L-26.25 16.1L-26.25 21L-38.75 21L-38.75 3.5L-62.85 3.5L-62.85 8.15L-66.95 8.15L-66.95 10.25L-70.45 10.25L-70.45 14.2L-81 14.2L-81 -17.5L-68.35 -17.5L-68.35 -16.05L-63.75 -16.05L-63.75 -15.5L-50.4 -15.5L-50.4 -16.05L-44.55 -16.05L-44.55 -16.85L-28.5 -16.8L-28.5 -18.35L56.75 -18.35L56.75 -21" />
</g>
</svg>
