<?xml version="1.0" encoding="utf-8"?>
<svg version="1.1" id="Layer_1"
xmlns="http://www.w3.org/2000/svg"
xmlns:xlink="http://www.w3.org/1999/xlink"
xmlns:author="http://www.sothink.com"
width="57px" height="33px"
xml:space="preserve">
<g id="618" transform="matrix(1, 0, 0, 1, 28.5, 16.9)">
<path style="fill:#000000;fill-opacity:1" d="M28.5,-14.55L28.5 -4.65L2.75 -4.65L2.75 1.25L-12.35 1.25L-12.35 5.3L-14.3 5.3L-14.3 7.35L-15.35 7.35L-15.35 9.05L-16.5 9.05L-16.5 10.05L-17.55 10.05L-17.55 11L-18.6 11L-18.6 14.35L-20.3 14.35L-20.3 16L-28.5 16L-28.5 -2.55L-26.75 -2.55L-26.75 -16.9L12.2 -16.9L25.85 -16.9L25.85 -15.9L27.7 -15.9L27.7 -14.55L28.5 -14.55" />
</g>
</svg>
