<?xml version="1.0" encoding="utf-8"?>
<svg version="1.1" id="Layer_1"
xmlns="http://www.w3.org/2000/svg"
xmlns:xlink="http://www.w3.org/1999/xlink"
xmlns:author="http://www.sothink.com"
width="79px" height="79px"
xml:space="preserve">
<g id="635" transform="matrix(1, 0, 0, 1, 39.5, 39.5)">
<path style="fill:#FFFFFF;fill-opacity:1" d="M28,-27.8Q39.5 -16.25 39.5 0Q39.5 16.45 28 27.95Q16.3 39.5 0 39.5Q-16.35 39.5 -27.95 27.95Q-39.5 16.45 -39.5 0Q-39.5 -16.25 -27.95 -27.8Q-16.35 -39.5 0 -39.5Q16.3 -39.5 28 -27.8M0,-35.5Q-14.7 -35.5 -25.1 -25Q-35.5 -14.6 -35.5 0Q-35.5 14.8 -25.1 25.1Q-14.7 35.5 0 35.5Q14.65 35.5 25.15 25.1Q35.5 14.8 35.5 0Q35.5 -14.6 25.15 -25Q14.65 -35.5 0 -35.5" />
</g>
</svg>
