<?xml version="1.0" encoding="utf-8"?>
<svg version="1.1" id="Layer_1"
xmlns="http://www.w3.org/2000/svg"
xmlns:xlink="http://www.w3.org/1999/xlink"
xmlns:author="http://www.sothink.com"
width="29px" height="29px"
xml:space="preserve">
<g id="568" transform="matrix(1, 0, 0, 1, 14.15, 14.15)">
<path style="fill:#000000;fill-opacity:1" d="M-10,-10Q-5.85 -14.15 0 -14.15Q5.9 -14.15 10.05 -10Q14.2 -5.85 14.2 0Q14.2 5.9 10.05 10.05Q5.9 14.15 0 14.15Q-5.85 14.15 -10 10.05Q-14.15 5.9 -14.15 0Q-14.15 -5.85 -10 -10" />
<path style="fill:#F5F5F5;fill-opacity:1" d="M11.95,0Q11.95 4.95 8.45 8.45Q4.95 11.95 0 11.95Q-4.95 11.95 -8.45 8.45Q-11.95 4.95 -11.95 0Q-11.95 -4.95 -8.45 -8.45Q-4.95 -11.95 0 -11.95Q4.95 -11.95 8.45 -8.45Q11.95 -4.95 11.95 0" />
<path style="fill:#000000;fill-opacity:1" d="M-9.75,-0.95Q-9.4 -1.3 -8.85 -1.3Q-8.3 -1.3 -7.9 -0.95Q-7.5 -0.55 -7.5 0Q-7.5 3.1 -5.3 5.35Q-3.1 7.55 0 7.55Q0.55 7.55 0.95 7.95Q1.35 8.3 1.35 8.85Q1.35 9.4 0.95 9.8Q0.55 10.2 0 10.2Q-4.2 10.2 -7.15 7.2Q-10.15 4.2 -10.15 0Q-10.15 -0.55 -9.75 -0.95" />
<path style="fill:#000000;fill-opacity:1" d="M4.45,0Q4.45 1.85 3.15 3.15Q1.85 4.45 0 4.45Q-1.8 4.45 -3.1 3.15Q-4.4 1.85 -4.4 0Q-4.4 -1.8 -3.1 -3.1Q-1.8 -4.45 0 -4.45Q1.85 -4.45 3.15 -3.1Q4.45 -1.8 4.45 0" />
</g>
</svg>
