<?xml version="1.0" encoding="utf-8"?>
<svg version="1.1" id="Layer_1"
xmlns="http://www.w3.org/2000/svg"
xmlns:xlink="http://www.w3.org/1999/xlink"
xmlns:author="http://www.sothink.com"
width="196px" height="26px"
xml:space="preserve">
<g id="630" transform="matrix(1, 0, 0, 1, 36.7, 99.5)">
<path style="fill:#999999;fill-opacity:1" d="M61.5,-99.5L61.85 -99.5L62.65 -99.45L61.5 -99.5" />
<path style="fill:#000000;fill-opacity:1" d="M60.95,-91.5L58.85 -91.55L54.4 -91.35Q6.35 -90.25 -35.05 -73.5L-36.7 -77.5Q5.25 -94.9 54 -96L58.55 -96.05L60.6 -96L60.8 -96.05L61.5 -96.05L65.05 -96Q115.45 -95.25 158.65 -77.4L158.65 -77.35L158.75 -77.35L158.75 -77.3L158.95 -77.3L157.4 -73.55Q114.75 -90.7 65.4 -91.45L61.85 -91.5L61.2 -91.45L60.95 -91.5" />
</g>
</svg>
