<?xml version="1.0" encoding="utf-8"?>
<svg version="1.1" id="Layer_1"
xmlns="http://www.w3.org/2000/svg"
xmlns:xlink="http://www.w3.org/1999/xlink"
xmlns:author="http://www.sothink.com"
width="104px" height="39px"
xml:space="preserve">
<g id="602" transform="matrix(1, 0, 0, 1, 52, 19.25)">
<path style="fill:#000000;fill-opacity:1" d="M20.85,-14.9L31.05 -14.9L31.05 -15.75L44.1 -15.75L44.1 -9L52 -9L52 -3.95L44.4 -3.95L44.4 3.05L22.4 3.05L22.4 5.25L6.6 5.25L6.6 14.95L-7.6 14.95L-7.6 -0.05L-12.9 -0.05L-12.9 19.25L-26.1 19.25L-26.1 13.05L-27.7 13.05L-27.7 3.45L-38.2 3.45L-38.2 5.35L-52 5.35L-52 -16.05L-5.2 -16.05L-5.2 -19.25L-1.6 -19.25L-1.6 -17.5L20.85 -17.5L20.85 -14.9" />
</g>
</svg>
