<?xml version="1.0" encoding="utf-8"?>
<svg version="1.1" id="Layer_1"
xmlns="http://www.w3.org/2000/svg"
xmlns:xlink="http://www.w3.org/1999/xlink"
xmlns:author="http://www.sothink.com"
width="67px" height="57px"
xml:space="preserve">
<g id="628" transform="matrix(1, 0, 0, 1, 33.35, 28.05)">
<path style="fill:#000000;fill-opacity:1" d="M-25.85,-27.15L-25.85 -23.4L-21.7 -23.4L-21.7 28.05L-32.1 28.05L-32.1 22.5L-33.35 22.5L-33.35 -23.05L-29.45 -23.05L-29.45 -27.15L-28.35 -27.15L-28.35 -28.05L-26.85 -28.05L-26.85 -27.15L-25.85 -27.15" />
<path style="fill:#000000;fill-opacity:1" d="M-17.25,-28.05L-15.75 -28.05L-15.75 -27.15L-14.75 -27.15L-14.75 -23.4L-10.6 -23.4L-10.6 28.05L-21 28.05L-21 24.3L-22.25 24.3L-22.25 -23.05L-18.35 -23.05L-18.35 -27.15L-17.25 -27.15L-17.25 -28.05" />
<path style="fill:#000000;fill-opacity:1" d="M-6.15,-27.15L-6.15 -28.05L-4.65 -28.05L-4.65 -27.15L-3.65 -27.15L-3.65 -23.4L0.5 -23.4L0.5 28L-9.8 28L-9.8 22.1L-11.15 22.1L-11.15 -23.05L-7.25 -23.05L-7.25 -27.15L-6.15 -27.15" />
<path style="fill:#000000;fill-opacity:1" d="M4.7,-27.15L4.7 -28.05L6.2 -28.05L6.2 -27.15L7.2 -27.15L7.2 -23.4L11.35 -23.4L11.35 28.05L0.95 28.05L0.95 22.95L-0.3 22.95L-0.3 -23.05L3.6 -23.05L3.6 -27.15L4.7 -27.15" />
<path style="fill:#000000;fill-opacity:1" d="M17.3,-28.05L17.3 -27.15L18.3 -27.15L18.3 -23.4L22.45 -23.4L22.45 27.95L12.1 27.95L12.1 22.35L10.8 22.35L10.8 -23.05L14.7 -23.05L14.7 -27.15L15.8 -27.15L15.8 -28.05L17.3 -28.05" />
<path style="fill:#000000;fill-opacity:1" d="M28.15,-27.15L29.15 -27.15L29.15 -23.4L33.3 -23.4L33.3 28L22.9 28L22.9 22.1L21.65 22.1L21.65 -23.05L25.55 -23.05L25.55 -27.15L26.65 -27.15L26.65 -28.05L28.15 -28.05L28.15 -27.15" />
</g>
</svg>
