<?xml version="1.0" encoding="utf-8"?>
<svg version="1.1" id="Layer_1"
xmlns="http://www.w3.org/2000/svg"
xmlns:xlink="http://www.w3.org/1999/xlink"
xmlns:author="http://www.sothink.com"
width="22px" height="29px"
xml:space="preserve">
<g id="567" transform="matrix(1, 0, 0, 1, 10.65, 14.15)">
<path style="fill:#000000;fill-opacity:1" d="M-7.45,5.75L-7.35 5.65L-7.9 4L-6.2 4L-5.15 2.55L-6.75 1.35L-6.9 1.05L-6.85 0.7L-5.3 -1.35L-5.7 -2.2Q-6.15 -3.5 -6.15 -4.85Q-6.15 -8.05 -3.9 -10.35Q-1.65 -12.6 1.55 -12.6Q4.7 -12.6 6.95 -10.35Q9.2 -8.05 9.2 -4.85Q9.2 -2.9 8.3 -1.2Q7.45 0.55 5.85 1.65L4.45 2.4L4.4 2.4L3.2 2.8L2.45 2.9L1.55 2.95L0.75 2.9L0.75 2.65L0.95 2.15L1.55 2.15L2.4 2.1L2.85 2Q2.45 1.25 1.6 1.25Q1.1 1.25 0.65 1.6L0.35 2.05L0.2 2.45L0.2 2.65L0.2 2.85L0.4 3.35L0.5 3.55Q0.9 4.1 1.6 4.1Q2.25 4.1 2.75 3.55L4.4 3.1Q4.3 3.9 3.8 4.5L2.55 5.4L2.55 12.25L2.4 12.6L2.1 12.7L1.15 12.7L0.8 12.6L0.65 12.25L0.65 11.3L-0.8 11.3L-1.15 10.95L-1.15 10.65L-1 10.45L-0.8 10.3L-0.4 10.3L-0.4 9.4L-0.8 9.4L-1.15 9.05L-1.15 8.8Q-1.15 8.45 -0.8 8.45L0.65 8.45L0.65 5.4L-0.65 4.4L-1.2 2.85L-1.2 2.4L-1.2 2.35L-2 2.05L-2.6 1.75L-4 0.55L-3.6 -0.15L-2.1 1.1L-1.7 0.5Q-1.6 0.35 -1.75 0.25L-3.4 -1L-3.65 -0.95L-3.9 -0.6L-4.9 0.7L-4.85 1L-3.1 2.25L-1.6 3.05L-2.35 4.1Q-2.45 4.25 -2.65 4.25L-2.95 4.15L-3.65 3.65L-7.45 8.95Q-7.75 9.3 -8.1 9.05L-8.85 8.5L-9.05 8.2L-8.95 7.85L-8.65 7.4L-9.15 5.75L-7.45 5.75M-3.35,-9.75Q-5.35 -7.75 -5.35 -4.85Q-5.35 -3.65 -4.95 -2.5L-4.8 -2.1L-4.3 -2.75L-4 -2.95L-3.7 -2.85L0.05 -0.05L0.2 0.15L1.6 -0.2L3.2 0.3Q3.9 0.8 4.2 1.6L5.4 0.95Q6.85 -0.05 7.65 -1.55Q8.45 -3.1 8.45 -4.85Q8.45 -7.75 6.45 -9.75Q4.4 -11.8 1.55 -11.8Q-1.3 -11.8 -3.35 -9.75" />
<path style="fill:#000000;fill-opacity:1" d="M-7.65,-4.85Q-7.65 -8.65 -4.95 -11.4Q-2.25 -14.15 1.55 -14.15Q5.35 -14.15 8.05 -11.4Q10.7 -8.65 10.7 -4.85Q10.7 -2.55 9.65 -0.45Q8.6 1.55 6.7 2.85L5.85 3.35Q5.6 5.2 4.05 6.25L4.05 12.25Q4.05 13.05 3.5 13.65Q2.9 14.2 2.1 14.2L1.15 14.2Q0.45 14.2 -0.05 13.8L-0.75 12.8L-0.8 12.8Q-1.55 12.8 -2.1 12.25Q-2.65 11.7 -2.65 10.95L-2.65 10.65L-2.45 9.85L-2.65 9.05L-2.65 8.8Q-2.65 8.05 -2.1 7.5Q-1.55 6.95 -0.8 6.95L-0.8 6.25L-1.7 5.45Q-2.45 5.95 -3.25 5.7L-6.25 9.85Q-6.85 10.65 -7.85 10.65L-9 10.25L-9.75 9.7Q-10.35 9.25 -10.5 8.5Q-10.65 7.8 -10.3 7.15L-10.55 6.2Q-10.8 5.5 -10.35 4.85Q-10 4.35 -9.35 4.25Q-9.5 3.6 -9.1 3.1Q-8.65 2.5 -7.9 2.5L-7.7 2.5Q-8.3 2 -8.4 1.25Q-8.5 0.5 -8.05 -0.15L-7.05 -1.55L-7.1 -1.7Q-7.65 -3.25 -7.65 -4.85M-2.3,-8.7Q-3.85 -7.1 -3.85 -4.85L-3.85 -4.4Q-3.25 -4.4 -2.8 -4.05L0.55 -1.55L1.6 -1.7Q3.45 -1.7 4.7 -0.4Q5.75 -1.15 6.35 -2.3Q6.95 -3.5 6.95 -4.85Q6.95 -7.1 5.35 -8.7Q3.8 -10.35 1.55 -10.35Q-0.7 -10.35 -2.3 -8.7" />
<path style="fill:#FFFFFF;fill-opacity:1" d="M-7.45,5.75L-7.35 5.65L-7.9 4L-6.2 4L-5.15 2.55L-6.75 1.35L-6.9 1.05L-6.85 0.7L-5.3 -1.35L-5.7 -2.2Q-6.15 -3.5 -6.15 -4.85Q-6.15 -8.05 -3.9 -10.35Q-1.65 -12.6 1.55 -12.6Q4.7 -12.6 6.95 -10.35Q9.2 -8.05 9.2 -4.85Q9.2 -2.9 8.3 -1.2Q7.45 0.55 5.85 1.65L4.45 2.4L4.4 2.4L3.2 2.8L2.45 2.9L1.55 2.95L0.75 2.9L0.75 2.65L0.95 2.15L1.55 2.15L2.4 2.1L2.85 2Q2.45 1.25 1.6 1.25Q1.1 1.25 0.65 1.6L0.35 2.05L0.2 2.45L0.2 2.65L0.2 2.85L0.4 3.35L0.5 3.55Q0.9 4.1 1.6 4.1Q2.25 4.1 2.75 3.55L4.4 3.1Q4.3 3.9 3.8 4.5L2.55 5.4L2.55 12.25L2.4 12.6L2.1 12.7L1.15 12.7L0.8 12.6L0.65 12.25L0.65 11.3L-0.8 11.3L-1.15 10.95L-1.15 10.65L-1 10.45L-0.8 10.3L-0.4 10.3L-0.4 9.4L-0.8 9.4L-1.15 9.05L-1.15 8.8Q-1.15 8.45 -0.8 8.45L0.65 8.45L0.65 5.4L-0.65 4.4L-1.2 2.85L-1.2 2.4L-1.2 2.35L-2 2.05L-2.6 1.75L-4 0.55L-3.6 -0.15L-2.1 1.1L-1.7 0.5Q-1.6 0.35 -1.75 0.25L-3.4 -1L-3.65 -0.95L-3.9 -0.6L-4.9 0.7L-4.85 1L-3.1 2.25L-1.6 3.05L-2.35 4.1Q-2.45 4.25 -2.65 4.25L-2.95 4.15L-3.65 3.65L-7.45 8.95Q-7.75 9.3 -8.1 9.05L-8.85 8.5L-9.05 8.2L-8.95 7.85L-8.65 7.4L-9.15 5.75L-7.45 5.75M-3.35,-9.75Q-5.35 -7.75 -5.35 -4.85Q-5.35 -3.65 -4.95 -2.5L-4.8 -2.1L-4.3 -2.75L-4 -2.95L-3.7 -2.85L0.05 -0.05L0.2 0.15L1.6 -0.2L3.2 0.3Q3.9 0.8 4.2 1.6L5.4 0.95Q6.85 -0.05 7.65 -1.55Q8.45 -3.1 8.45 -4.85Q8.45 -7.75 6.45 -9.75Q4.4 -11.8 1.55 -11.8Q-1.3 -11.8 -3.35 -9.75" />
</g>
</svg>
