<?xml version="1.0" encoding="utf-8"?>
<svg version="1.1" id="Layer_1"
xmlns="http://www.w3.org/2000/svg"
xmlns:xlink="http://www.w3.org/1999/xlink"
xmlns:author="http://www.sothink.com"
width="204px" height="37px"
xml:space="preserve">
<g id="586" transform="matrix(1, 0, 0, 1, 101.65, 18.25)">
<path style="fill:#000000;fill-opacity:1" d="M-74.25,-11.8L-74.25 3.3L-74.25 3.55L-92.45 3.55L-92.45 4.45L-101.65 4.45L-101.65 -15.75L-96.25 -15.75L-96.25 -13.25L-74.25 -13.25L-74.25 -11.8" />
<path style="fill:#000000;fill-opacity:1" d="M-74.25,-11.8L-9.4 -11.8L-9.4 -18.25L-6.8 -18.25L-6.8 -11.9L22 -11.9L22 -10.6L39 -10.6L39 -11.9L54.4 -11.9L54.4 -13.6L101.6 -13.6L101.6 6.25L37.1 6.25L37.1 6.3L36.8 6.3L36.8 7.25L34.7 7.25L34.7 18.25L25 18.25L25 11.7L21.4 11.7L21.4 0.5L7.6 0.5L7.6 11.7L5.6 11.7L5.6 18.25L-3.5 18.25L-3.5 4.5L-4.2 4.5L-4.2 3.3L-74.25 3.3L-74.25 -11.8" />
</g>
</svg>
