<?xml version="1.0" encoding="utf-8"?>
<svg version="1.1" id="Layer_1"
xmlns="http://www.w3.org/2000/svg"
xmlns:xlink="http://www.w3.org/1999/xlink"
xmlns:author="http://www.sothink.com"
width="76px" height="48px"
xml:space="preserve">
<g id="609" transform="matrix(1, 0, 0, 1, 38, 23.65)">
<path style="fill:#000000;fill-opacity:1" d="M-19.4,11.75L-19.4 -2.05L-38 -2.05L-38 -23.65L-21.75 -23.65L-21.75 -19.8L-7.3 -19.8L-7.3 -21.45L24 -21.45L24 -13.65L38 -13.65L38 -5.65L22.8 -5.65L22.8 -0.45L4 -0.45L4 4.95L-7.2 4.95L-7.2 11.75L-19.4 11.75" />
<path style="fill:#000000;fill-opacity:1" d="M-19.4,11.75L-7.2 11.75L-7.15 11.75L-7.15 15.8L-8.15 15.8L-8.15 23.65L-15.35 23.65L-15.35 18.25L-19.4 18.25L-19.4 11.75" />
</g>
</svg>
