<?xml version="1.0" encoding="utf-8"?>
<svg version="1.1" id="Layer_1"
xmlns="http://www.w3.org/2000/svg"
xmlns:xlink="http://www.w3.org/1999/xlink"
xmlns:author="http://www.sothink.com"
width="34px" height="58px"
xml:space="preserve">
<g id="579" transform="matrix(1, 0, 0, 1, 16.85, 28.75)">
<path style="fill:#000000;fill-opacity:1" d="M0.6,-3.25L-16.85 -3.25L-16.85 -13.8L-16.2 -13.8L-16.2 -14.8L-15.1 -14.8L-15.1 -19.15L-11.55 -19.15L-11.55 -21.25L-7.55 -21.25L-7.55 -25.35L-2.45 -25.35L-2.45 -28.75L14.15 -28.75L14.15 -7.3L16.85 -7.3L16.85 -3.6L16.7 -3.6L16.7 27.45L15.8 27.45L15.8 27.9L15.75 27.9L15.75 28.75L1.7 28.75L1.7 27L0.65 27L0.65 -1.3L0.6 -1.3L0.6 -3.25" />
</g>
</svg>
