<?xml version="1.0" encoding="utf-8"?>
<svg version="1.1" id="Layer_1"
xmlns="http://www.w3.org/2000/svg"
xmlns:xlink="http://www.w3.org/1999/xlink"
xmlns:author="http://www.sothink.com"
width="152px" height="55px"
xml:space="preserve">
<g id="588" transform="matrix(1, 0, 0, 1, 76, 27.4)">
<path style="fill:#000000;fill-opacity:1" d="M9.75,-21.65L45.6 -21.65L45.6 -19.75L64.5 -19.75L64.5 -25.65L76 -25.65L76 4.6L21.75 4.6L21.75 0.6L10 0.6L10 6.6L5.5 6.6L5.5 10.1L3.75 10.1L3.75 15.65L-8 15.65L-8 19.55L-11.6 19.55L-11.6 22.3L-13 22.3L-13 24.35L-13.75 24.35L-13.75 27.35L-25.3 27.35L-25.3 5.35L-39.9 5.35L-39.9 5.45L-47.9 5.45L-47.9 7.85L-63.1 7.85L-63.1 13.6L-76 13.6L-76 -17.4L-1 -17.4L-1 -27.4L9.75 -27.4L9.75 -21.65" />
</g>
</svg>
