<?xml version="1.0" encoding="utf-8"?>
<svg version="1.1" id="Layer_1"
xmlns="http://www.w3.org/2000/svg"
xmlns:xlink="http://www.w3.org/1999/xlink"
xmlns:author="http://www.sothink.com"
width="168px" height="48px"
xml:space="preserve">
<g id="599" transform="matrix(1, 0, 0, 1, 84, 24)">
<path style="fill:#000000;fill-opacity:1" d="M34,-15.7L55.65 -15.7L55.7 -9.35L84 -9.35L84 0.8L31.55 0.8L31.55 2.05L-5.75 2.05L-5.75 24L-22.2 24L-22.2 12.3L-31.7 12.3L-31.7 22.4L-46.1 22.4L-46.1 1.9L-57.3 1.9L-57.3 7.65L-60.95 7.65L-60.95 10.5L-75.5 10.5L-75.5 14.45L-84 14.45L-84 -10.4L-77.25 -10.4L-77.25 -9.2L-45.4 -9.2L-45.4 -12.7L-34.75 -12.7L-34.75 -21.2L-33.5 -21.2L-33.5 -22.75L-14.25 -22.75L-14.25 -22.85L-9.05 -22.85L-9.05 -24L-3.75 -24L-3.75 -22.05L34 -22.05L34 -15.7" />
</g>
</svg>
