<?xml version="1.0" encoding="utf-8"?>
<svg version="1.1" id="Layer_1"
xmlns="http://www.w3.org/2000/svg"
xmlns:xlink="http://www.w3.org/1999/xlink"
xmlns:author="http://www.sothink.com"
width="57px" height="57px"
xml:space="preserve">
<g id="1384" transform="matrix(1, 0, 0, 1, 0, -0.2)">
<path style="fill:#000000;fill-opacity:1" d="M48.4,48.5L48.35 48.5Q44.5 52.55 39.45 54.7L39.4 54.7Q34.1 56.9 28.35 56.9Q22.5 56.9 17.15 54.65Q12.8 52.75 9.35 49.65L9.25 49.55L8.3 48.45L8.25 48.45Q4.1 43.6 2.25 39.1L2.25 39.05Q0 33.8 0 28.15Q0 22.35 2.3 17.1Q4.15 12.75 7.35 9.25L7.4 9.3L8.55 8.2Q12.4 4.45 17.45 2.45Q22.65 0.2 28.35 0.2Q34.15 0.2 39.55 2.45L39.5 2.45Q44.1 4.45 47.8 7.9L47.8 7.95L48.55 8.7Q52.35 12.6 54.5 17.65Q56.7 22.85 56.7 28.5Q56.7 34.3 54.45 39.6Q52.3 44.6 48.4 48.5" />
</g>
</svg>
