<?xml version="1.0" encoding="utf-8"?>
<svg version="1.1" id="Layer_1"
xmlns="http://www.w3.org/2000/svg"
xmlns:xlink="http://www.w3.org/1999/xlink"
xmlns:author="http://www.sothink.com"
width="57px" height="57px"
xml:space="preserve">
<g id="1387" transform="matrix(1, 0, 0, 1, 0, 0)">
<path style="fill:#000000;fill-opacity:1" d="M48.4,48.3L48.35 48.3Q44.5 52.35 39.45 54.5L39.4 54.5Q34.1 56.7 28.35 56.7Q22.5 56.7 17.15 54.45Q12.8 52.55 9.35 49.45L9.25 49.35L8.3 48.25L8.25 48.25Q4.1 43.4 2.25 38.9L2.25 38.85Q0 33.6 0 27.95Q0 22.15 2.3 16.9Q4.15 12.55 7.35 9.05L7.4 9.1L8.55 8Q12.4 4.25 17.45 2.25Q22.65 0 28.35 0Q34.15 0 39.55 2.25L39.5 2.25Q44.1 4.25 47.8 7.7L47.8 7.75L48.55 8.5Q52.35 12.4 54.5 17.45Q56.7 22.65 56.7 28.3Q56.7 34.1 54.45 39.4Q52.3 44.4 48.4 48.3" />
</g>
</svg>
