<?xml version="1.0" encoding="utf-8"?>
<svg version="1.1" id="Layer_1"
xmlns="http://www.w3.org/2000/svg"
xmlns:xlink="http://www.w3.org/1999/xlink"
xmlns:author="http://www.sothink.com"
width="57px" height="57px"
xml:space="preserve">
<g id="1385" transform="matrix(1, 0, 0, 1, 0, -0.1)">
<path style="fill:#000000;fill-opacity:1" d="M48.4,48.4L48.35 48.4Q44.5 52.45 39.45 54.6L39.4 54.6Q34.1 56.8 28.35 56.8Q22.5 56.8 17.15 54.55Q12.8 52.65 9.35 49.55L9.25 49.45L8.3 48.35L8.25 48.35Q4.1 43.5 2.25 39L2.25 38.95Q0 33.7 0 28.05Q0 22.25 2.3 17Q4.15 12.65 7.35 9.15L7.4 9.2L8.55 8.1Q12.4 4.35 17.45 2.35Q22.65 0.1 28.35 0.1Q34.15 0.1 39.55 2.35L39.5 2.35Q44.1 4.35 47.8 7.8L47.8 7.85L48.55 8.6Q52.35 12.5 54.5 17.55Q56.7 22.75 56.7 28.4Q56.7 34.2 54.45 39.5Q52.3 44.5 48.4 48.4" />
</g>
</svg>
