<?xml version="1.0" encoding="utf-8"?>
<svg version="1.1" id="Layer_1"
xmlns="http://www.w3.org/2000/svg"
xmlns:xlink="http://www.w3.org/1999/xlink"
xmlns:author="http://www.sothink.com"
width="33px" height="33px"
xml:space="preserve">
<g id="1388" transform="matrix(1, 0, 0, 1, 0, 0)">
<path style="fill:#000000;fill-opacity:1" d="M28.65,5.35L29.45 6.3Q30.85 8.05 31.7 10.15Q33 13.15 33 16.45Q33 19.85 31.7 22.95Q30.4 25.85 28.15 28.1Q25.9 30.45 22.95 31.7L20 32.65L16.5 33Q13.1 33 10 31.7Q7.45 30.6 5.35 28.7L5.3 28.65L4.7 28L4.7 27.95Q2.3 25.2 1.3 22.65Q0 19.6 0 16.3Q0 12.9 1.35 9.85Q2.1 7.95 3.45 6.3Q3.95 5.55 4.65 4.9L4.95 4.6L5.95 3.7Q7.75 2.25 10.15 1.3Q12.9 0.1 15.95 0.05L16.05 0.05L16.5 0L20 0.35L23 1.3Q25.95 2.6 28.25 4.9L28.65 5.35M27.15,6.3L26.65 5.8L26.65 5.7Q24.7 3.9 22.35 2.9L20 2.15L16.5 1.7L16.05 1.75L15.95 1.75Q13.25 1.8 10.85 2.9Q8.2 3.9 6.2 5.9L5.55 6.45Q3.85 8.25 2.95 10.5Q1.7 13.25 1.7 16.3Q1.7 19.25 2.9 21.95L2.9 22Q3.85 24.35 6.05 26.85L6.55 27.45L6.6 27.5Q8.4 29.15 10.65 30.1Q13.45 31.3 16.5 31.3L20 30.9L22.3 30.1Q24.9 29.05 26.9 26.9L26.95 26.9Q29 24.85 30.1 22.3Q31.3 19.5 31.3 16.45Q31.3 13.5 30.1 10.85Q29.05 8.25 27.15 6.3" />
</g>
</svg>
