<?xml version="1.0" encoding="utf-8"?>
<svg version="1.1" id="Layer_1"
xmlns="http://www.w3.org/2000/svg"
xmlns:xlink="http://www.w3.org/1999/xlink"
xmlns:author="http://www.sothink.com"
width="212px" height="238px"
xml:space="preserve">
<g id="443" transform="matrix(1, 0, 0, 1, 31.6, 77.6)">
<path style="fill:#333333;fill-opacity:1" d="M133.55,-77.35Q141.55 -77.15 148.45 -73.05Q155.1 -69.05 159.15 -62.35Q160.85 -59.6 162.05 -56.05L166.65 -44.65Q179.3 -10.05 179.35 27Q179.3 64 166.7 98.55Q154.45 131.75 131.85 159.15Q114.85 113 78.75 79.2Q42.4 45.25 -5.1 31.5Q-8.45 30.85 -11.55 29.7Q-18.2 27.05 -23.1 21.75Q-27.05 17.45 -29.15 12.05Q-31.35 6.45 -31.35 0.5Q-31.35 -5.35 -28.9 -10.9Q-26.6 -16.1 -22.45 -20.4Q-19.85 -23.05 -16.65 -25.2Q14.35 -50.15 51.75 -63.5Q90.4 -77.35 131.8 -77.35L133.55 -77.35" />
<path style="fill:#000000;fill-opacity:1" d="M131.8,-77.35Q90.4 -77.35 51.75 -63.5Q14.35 -50.15 -16.65 -25.2Q-19.85 -23.05 -22.45 -20.4Q-26.6 -16.1 -28.9 -10.9Q-31.35 -5.35 -31.35 0.5Q-31.35 6.45 -29.15 12.05Q-27.05 17.45 -23.1 21.75Q-18.2 27.05 -11.55 29.7Q-8.45 30.85 -5.1 31.5Q42.4 45.25 78.75 79.2Q114.85 113 131.85 159.15Q154.45 131.75 166.7 98.55Q179.3 64 179.35 27Q179.3 -10.05 166.65 -44.65L162.05 -56.05Q160.85 -59.6 159.15 -62.35Q155.1 -69.05 148.45 -73.05Q141.55 -77.15 133.55 -77.35L131.8 -77.35M133.55,-77.6Q141.65 -77.35 148.6 -73.25Q155.3 -69.25 159.35 -62.5Q161.05 -59.7 162.3 -56.15Q164.9 -50.2 166.9 -44.75Q179.6 -10.15 179.6 27Q179.6 64.1 166.95 98.65Q154.65 131.95 131.9 159.5L131.75 159.65L131.7 159.45Q114.7 113.25 78.6 79.4Q42.3 45.45 -5.15 31.75Q-8.55 31.15 -11.65 29.95Q-18.4 27.25 -23.3 21.9Q-27.25 17.55 -29.4 12.15Q-31.65 6.55 -31.6 0.5Q-31.65 -5.45 -29.15 -11Q-26.8 -16.2 -22.65 -20.55Q-20.05 -23.25 -16.8 -25.4Q14.25 -50.35 51.65 -63.75Q90.3 -77.65 131.8 -77.6L133.55 -77.6" />
</g>
</svg>
