<?xml version="1.0" encoding="utf-8"?>
<svg version="1.1" id="Layer_1"
xmlns="http://www.w3.org/2000/svg"
xmlns:xlink="http://www.w3.org/1999/xlink"
xmlns:author="http://www.sothink.com"
width="15px" height="15px"
xml:space="preserve">
<g id="46" transform="matrix(1, 0, 0, 1, 7.25, 7.25)">
<path style="fill:#FFFFFF;fill-opacity:1" d="M4.6,-4.6Q6.5 -2.7 6.5 0Q6.5 2.7 4.6 4.6Q2.7 6.5 0 6.5Q-2.7 6.5 -4.65 4.6Q-6.5 2.7 -6.5 0Q-6.5 -2.7 -4.65 -4.6Q-2.7 -6.5 0 -6.5Q2.7 -6.5 4.6 -4.6" />
<path style="fill:none;stroke-width:1.5;stroke-linecap:round;stroke-linejoin:round;stroke-miterlimit:3;stroke:#000000;stroke-opacity:1" d="M4.6,-4.6Q6.5 -2.7 6.5 0Q6.5 2.7 4.6 4.6Q2.7 6.5 0 6.5Q-2.7 6.5 -4.65 4.6Q-6.5 2.7 -6.5 0Q-6.5 -2.7 -4.65 -4.6Q-2.7 -6.5 0 -6.5Q2.7 -6.5 4.6 -4.6z" />
</g>
</svg>
