<?xml version="1.0" encoding="utf-8"?>
<svg version="1.1" id="Layer_1"
xmlns="http://www.w3.org/2000/svg"
xmlns:xlink="http://www.w3.org/1999/xlink"
xmlns:author="http://www.sothink.com"
width="18px" height="19px"
xml:space="preserve">
<g id="49" transform="matrix(1, 0, 0, 1, 0, 0)">
<path style="fill:#FFFFFF;fill-opacity:1" d="M13.8,0Q17.65 3.95 17.65 9.4Q17.65 14.55 14.15 18.45L11.95 17.1Q15.1 13.95 15.1 9.4Q15.1 4.65 11.65 1.45L13.8 0M8.15,3.05Q11.2 5.5 11.2 9.4Q11.2 13.15 8.35 15.6L6.15 14.25Q8.8 12.5 8.8 9.4Q8.8 7.85 8 6.55Q7.25 5.25 6 4.5L8.15 3.05M4.4,7.6Q5.15 8.35 5.15 9.4Q5.15 10.5 4.4 11.25Q3.65 12 2.55 12Q1.5 12 0.75 11.25Q0 10.5 0 9.4Q0 8.35 0.75 7.6Q1.5 6.85 2.55 6.85Q3.65 6.85 4.4 7.6" />
</g>
</svg>
