<?xml version="1.0" encoding="utf-8"?>
<svg version="1.1" id="Layer_1"
xmlns="http://www.w3.org/2000/svg"
xmlns:xlink="http://www.w3.org/1999/xlink"
xmlns:author="http://www.sothink.com"
width="27px" height="21px"
xml:space="preserve">
<g id="25" transform="matrix(1, 0, 0, 1, -11.5, -22.1)">
<path style="fill:#000000;fill-opacity:1" d="M26.9,22.1L27.35 22.1L27.35 42.85L26.9 42.85L26.9 22.1" />
<path style="fill:#000000;fill-opacity:1" d="M27.5,42.85L27.35 42.85L27.35 22.1L27.4 22.1L27.5 22.1L27.5 42.85" />
<path style="fill:#000000;fill-opacity:1" d="M27.5,22.1L27.55 22.1L27.55 26.5L28.1 26.55L28.5 26.6L28.6 26.65L28.65 26.65L28.65 27L29.05 27L30.85 27L31.3 27L32.55 27.15L32.55 27.1L32.9 27.15L32.9 27.05L36.6 36.75L38.2 40.9Q34.95 42 31.4 42.5L29.05 42.75L28.75 42.75L28.6 42.75L27.5 42.85L27.5 22.1" />
<path style="fill:#000000;fill-opacity:1" d="M28.65,22.1L29.05 22.1L30.3 22.1L30.3 22.35L31.95 22.35L32.65 27L31.55 27L31.4 27L30.85 26.95L29.05 26.7L28.75 26.7L28.65 26.65L28.65 22.1" />
<path style="fill:#000000;fill-opacity:1" d="M28.1,22.1L28.65 22.1L28.65 26.65L28.6 26.65L28.5 26.6L28.1 26.55L28.1 22.1M31.55,27L32.65 27L32.9 27L32.9 27.05L32.9 27.15L32.55 27.1L31.55 27" />
<path style="fill:#000000;fill-opacity:1" d="M28.1,26.55L27.55 26.5L27.55 22.1L28.1 22.1L28.1 26.55" />
<path style="fill:#000000;fill-opacity:1" d="M30.85,27L29.05 27L28.65 27L28.65 26.65L28.75 26.7L29.05 26.7L29.2 26.75L29.25 26.75L29.5 26.8L30.85 27" />
<path style="fill:#000000;fill-opacity:1" d="M28.75,42.75L28.75 42.85L27.5 42.85L28.6 42.75L28.75 42.75" />
<path style="fill:#000000;fill-opacity:1" d="M25.65,42.85L25.25 42.85L25 42.85L24.5 42.85L24.5 42.8L24.55 42.8L25.25 42.85L25.25 22.15L25.65 22.15L25.65 42.85" />
<path style="fill:#000000;fill-opacity:1" d="M25.65,22.15L25.65 22.1L26.9 22.1L26.9 42.85L25.65 42.85L25.65 22.15" />
<path style="fill:#000000;fill-opacity:1" d="M24.5,42.8Q18.65 42.6 11.5 40.4L11.5 26.9L20 22.1L24.5 22.1L24.85 22.1L25.25 22.1L25.25 22.15L24.55 22.15L24.55 42.8L24.5 42.8" />
<path style="fill:#000000;fill-opacity:1" d="M25.25,42.85L24.55 42.8L24.55 22.15L25.25 22.15L25.25 42.85" />
</g>
</svg>
