<?xml version="1.0" encoding="utf-8"?>
<svg version="1.1" id="Layer_1"
xmlns="http://www.w3.org/2000/svg"
xmlns:xlink="http://www.w3.org/1999/xlink"
xmlns:author="http://www.sothink.com"
width="5px" height="42px"
xml:space="preserve">
<g id="26" transform="matrix(1, 0, 0, 1, -19.2, 1.75)">
<path style="fill:#000000;fill-opacity:1" d="M19.25,30.45L24.15 31.85L23.75 39.85L21.15 39.9L21.15 36.65L19.2 36.65L19.25 30.45" />
<path style="fill:#000000;fill-opacity:1" d="M24.2,32L24.2 32.45L24.2 32M23.05,39.9L23.2 39.9L23.45 39.75L23.5 39.65L23.6 39.15L24.05 35.4L23.8 40L21.8 40.05L23.05 39.9M19.35,29.75L19.25 30.15L19.35 29.45L19.35 29.75" />
<path style="fill:#000000;fill-opacity:1" d="M19.4,23.35L19.5 13.95L19.8 13.95L23.8 13.95L24.2 13.95L24.2 17.3L24 17.3L24 23.35L23.35 23.35L23.55 14.6L20.15 14.6L19.95 23.35L19.4 23.35" />
<path style="fill:#000000;fill-opacity:1" d="M24.2,32.45L24.05 35.4L23.6 39.15L23.5 39.65L23.45 39.75L23.2 39.9L23.05 39.9L23.35 23.35L24 23.35L24 29.1L24.15 29.1L24.2 32L24.2 32.45M19.35,29.45L19.4 23.35L19.95 23.35L19.85 29.1L19.7 29.3L19.55 29.55L19.4 29.7L19.35 29.75L19.35 29.45" />
<path style="fill:#FEFEFE;fill-opacity:1" d="M21.8,40.05L21.2 39.7L21.2 36.8L19.25 36.8L19.25 30.15L19.35 29.75L19.4 29.7L19.55 29.55L19.7 29.3L19.85 29.1L19.95 23.35L20.15 14.6L23.55 14.6L23.35 23.35L23.05 39.9L21.8 40.05" />
<path style="fill:#000000;fill-opacity:1" d="M19.8,13.95L19.95 -1.75L23.8 -1.75L23.8 13.95L19.8 13.95" />
</g>
</svg>
