<?xml version="1.0" encoding="utf-8"?>
<svg version="1.1" id="Layer_1"
xmlns="http://www.w3.org/2000/svg"
xmlns:xlink="http://www.w3.org/1999/xlink"
xmlns:author="http://www.sothink.com"
width="19px" height="19px"
xml:space="preserve">
<g id="44" transform="matrix(1, 0, 0, 1, 9.5, 9.5)">
<path style="fill:#FFFFFF;fill-opacity:1" d="M-6.05,-6.05Q-8.5 -3.5 -8.5 -0.1Q-8.5 3.4 -6.05 5.85Q-3.45 8.5 -0.05 8.5Q3.45 8.5 5.85 5.9L5.85 5.85Q8.5 3.4 8.5 0Q8.5 -3.5 5.85 -6.05Q3.45 -8.5 -0.05 -8.5Q-3.45 -8.5 -6.05 -6L-6.05 -6.05M-0.05,-9.5Q3.85 -9.5 6.55 -6.75Q9.5 -3.9 9.5 0Q9.5 3.8 6.55 6.6L6.6 6.55Q3.85 9.5 -0.05 9.5Q-3.85 9.5 -6.75 6.55Q-9.5 3.8 -9.5 -0.1Q-9.5 -3.9 -6.75 -6.75Q-3.85 -9.5 -0.05 -9.5" />
</g>
</svg>
