<?xml version="1.0" encoding="utf-8"?>
<svg version="1.1" id="Layer_1"
xmlns="http://www.w3.org/2000/svg"
xmlns:xlink="http://www.w3.org/1999/xlink"
xmlns:author="http://www.sothink.com"
width="236px" height="35px"
xml:space="preserve">
<g id="48" transform="matrix(1, 0, 0, 1, 0, 0)">
<path style="fill:#D6BD61;fill-opacity:1" d="M218.7,5.5Q220.6 6.55 222.55 5.55L222.8 5.45L222.8 5.55L222.55 6Q221.9 6.65 221.6 7.25Q221.35 7.7 221.05 8.7L220.95 17.05L221.1 17.7L221.4 18.15L221.6 18.35L221.6 18.5L221.4 19.65L220.8 21L219.25 22.7L215.75 22.9L214.45 21.95Q213.85 21.3 213.5 20.35L213.1 18.9L212.9 7.85L212.65 6.9L212.05 6.1L211.8 5.85L211.65 5.6L211.65 5.4L211.75 5.45Q213 6.1 213.95 6.1Q214.8 6.1 216.2 5.4L216.25 5.6L216 5.9Q215.4 6.45 215.15 7.05Q214.9 7.7 214.9 8.65L214.9 16.8Q214.9 18.4 215.25 19.15Q215.95 20.75 217.5 20.75Q218.45 20.75 219.1 20.15Q219.8 19.55 220.1 18.55L220.35 16.15L220.35 10.4Q220.35 8.8 220 7.8L219.5 6.8L218.6 5.85L218.5 5.65L218.45 5.4L218.7 5.5M210.4,16.9L210.55 18.25L210.5 19.85L210.45 20.1Q210.45 21.1 210.95 22L211.25 22.8L211.1 23.15L210.95 23.1L209.95 22.9L201.7 22.9L201.45 22.7L201.5 22.6L201.75 22.4Q202.5 21.95 202.7 21.3L202.85 19.05L202.8 7.65L202.45 6.7L201.65 5.85L201.5 5.6L201.55 5.45L202.2 5.75L204.8 6L206.2 5.4L206.25 5.6L206.25 5.75L205.9 6.05Q205.2 6.6 204.95 7.3L204.75 9.2L204.8 18.5L205.05 19.6Q205.2 20.15 205.5 20.5L206.25 21.1L207.8 21.25Q208.55 20.95 209.05 20.15Q209.7 19.15 209.7 17.55L209.4 15.75L209.25 15.05L209.25 14.8L209.55 15L210.05 15.75L210.4 16.9M226.15,5.95L228.1 5.45L232.2 5.35Q233 5.85 233.45 6.7Q233.9 7.6 233.9 8.8L233.65 10.35L232.9 11.45L231.7 12.15L230.65 12.6L231.75 12.85Q232.95 13.1 233.55 13.7Q234.3 14.35 234.65 15.3Q235.05 16.4 235.05 17.55L234.85 19.15L234.3 20.6L233.45 21.75Q232.65 22.5 231.7 22.85Q229.55 23.7 226.75 22.75L224.55 21.55Q224.1 21.2 224.1 20.75L224.1 20.5L224.45 20.2Q224.95 19.8 225.05 19.3L225.15 8.8L225.05 7.6L224.65 6.65L224.4 6.3L224.25 5.85L224.45 5.45L224.9 5.65L226.15 5.95M227.05,17.9Q227.05 19.25 227.45 20.05L228.35 21.05L229.7 21.4Q230.65 21.4 231.35 20.85Q232.05 20.35 232.4 19.35L232.75 17.3L232.45 15.35L231.6 13.85Q230.95 13.25 230.2 13.25Q229.45 13.25 228.95 13.8Q228.45 14.45 228.45 15.2Q228.45 15.75 228.75 16.2Q229.05 16.8 229.6 16.8Q230.35 16.8 230.45 15.9L230.5 16.25L230.2 17L229.65 17.3Q229.05 17.3 228.65 16.7Q228.2 15.95 228.2 14.95Q228.2 13.9 228.7 13.1L229.85 12L231.2 10.45Q231.6 9.7 231.6 8.65Q231.6 7.5 231.1 6.8Q230.55 6.15 229.7 6.05Q228.9 5.95 228.2 6.5L227.35 7.7L227.1 8.65L227.05 17.9M180.35,5L180.5 5.25L180.05 6.1L178.85 7.1L176.9 8.1Q175.85 8.5 174.35 8.7L171.8 9.15Q171.25 9.3 171.05 9.65Q170.7 10.35 170.7 11.65L170.7 16.05L170.8 15.8L171.3 13.85Q171.4 13.25 171.65 13.15L172.55 12.95L173.6 13.1L176.1 13.8Q177.1 13.8 177.9 12.85L178.05 12.65L178.1 12.85L178 13.45L177.6 14.25L176.95 15L176.1 15.5L175.3 15.85L174.1 15.55L172.85 15.4Q171.85 15.4 170.85 16.55L170.7 16.7L170.75 20.9L171.15 21.85L171.95 22.5L172.05 22.7L171.8 22.9L167.65 22.9L167.4 22.7L167.5 22.5L168.4 21.8L168.75 20.85L168.8 13.75L168.65 12.8L168 12.1Q168 11.55 168.55 10.85L170.1 9.5L170.9 9.05L170 8.8L168.4 8.6Q167.05 8.6 165.75 10.1L165.25 10.6L165.7 9.1L166.35 6.6Q166.55 5.8 166.8 5.65L168 5.45L169.35 5.6L170.8 6.1L172.65 6.4L174.3 6.5Q177.6 6.5 179.8 5.25L180.35 5M199.55,4.6Q199.55 6.75 198.95 8.55Q198.35 10.2 197.35 11.2Q196.6 11.9 195.7 12.05Q194.8 12.15 194.1 11.65Q193.5 11.3 193.15 10.55L192.95 9.8L193.25 10.25Q193.8 10.85 194.65 10.9Q195.5 10.9 196.15 10.35L197.05 9.1L197.35 7.45Q197.35 6.45 196.95 5.5Q196.5 4.55 195.75 4.05Q194.75 3.35 193.5 3.55Q192.25 3.75 191.4 4.75Q190.4 5.75 189.85 7.8Q189.3 9.75 189.3 12.1Q189.3 13.95 189.7 15.65Q190.05 17.2 190.85 18.55Q191.6 19.85 192.7 20.55Q194.95 22.05 197.3 20.75L198.95 19.15L199.9 17.4Q199.75 19.15 199.2 20.45Q198.45 22.1 197.2 23.05Q196.05 23.95 194.6 24Q193.1 24.05 191.8 23.2Q190.35 22.25 189.5 20.75Q188.55 19.3 187.9 16.9Q187.35 14.45 187.35 12.05Q187.35 9.95 187.65 8.3Q187.95 6.45 188.45 5.15Q189 3.7 189.8 2.7Q191.7 0 194.1 0L195.1 0.1L196.45 0.6Q197.4 1 197.95 1L198.85 0.6L199.15 1.4Q199.55 2.6 199.55 4.6M140.4,1.5L140.45 1.5L140.45 1.75L140.25 2.2L139.5 3.05Q138.5 4.1 137.75 6.1L136.7 3.85Q135.95 3 134.75 3Q133.55 3 132.8 3.9L132.8 3.75Q131.85 4.45 131.25 5.5Q130.5 6.8 130.1 8.4Q129.7 9.85 129.7 12Q129.7 14.45 130.2 16.25Q130.85 18.3 131.75 19.35Q132.65 20.35 133.9 20.55Q135.15 20.75 136.15 20.05Q136.9 19.5 137.3 18.6Q137.75 17.7 137.75 16.65L137.45 15L136.55 13.7Q135.9 13.15 135.05 13.15Q134.2 13.2 133.65 13.8L133.25 14.4L133.55 13.5Q134 12.75 134.5 12.4Q135.2 11.9 136.1 12.05Q137 12.2 137.75 12.9Q138.75 13.8 139.35 15.55Q139.95 17.3 139.95 19.45Q139.95 21.45 139.55 22.65L139.2 23.45Q138.75 23.1 138.35 23.1L136.85 23.5L135.5 23.95L134.5 24.05Q132.1 24.05 130.15 21.4Q129.35 20.2 128.85 18.9L128 15.75Q127.75 13.9 127.75 12.05Q127.75 9.55 128.3 7.2Q128.8 5 129.9 3.3Q130.85 1.75 132.2 0.9L132.8 0.55L132.8 0.45Q134.25 -0.25 135.95 0.2L137.3 0.75L138.7 1.45L139.65 1.6L140.4 1.5M144.1,7.65Q145.7 4.95 148.2 4.95Q150.75 4.95 152.3 7.65Q153.1 9 153.45 10.6Q153.85 12.35 153.85 14.05Q153.85 15.8 153.45 17.55Q153.05 19.2 152.3 20.45Q150.75 23.2 148.2 23.2L146.9 23Q145.25 22.45 144.1 20.5Q143.3 19.1 142.95 17.5Q142.55 15.75 142.55 14.05L142.8 11.45L142.95 10.6Q143.3 9 144.1 7.65M144.9,11.45Q144.75 12.65 144.75 14.05Q144.75 16.3 145.15 18.2Q145.5 20.05 146.3 21.15L146.9 21.85Q147.45 22.35 148.2 22.35Q149.3 22.35 150.1 21.2Q150.9 20 151.25 18.2L151.55 16.3L151.65 14.05Q151.65 11.9 151.25 9.9Q150.9 8.05 150.1 6.95Q149.3 5.75 148.2 5.75Q147.1 5.8 146.3 6.95Q145.5 8.05 145.15 9.9L144.9 11.45M155.05,5.6L155.15 5.45L155.8 5.75L158.35 6L159.8 5.4L159.8 5.75L159.5 6.05Q158.8 6.55 158.55 7.3Q158.3 7.95 158.3 9.2L158.4 18.5L158.6 19.6Q158.7 20.05 159.1 20.5L159.85 21.1L161.4 21.25L162.65 20.15Q163.3 19 163.3 17.55L163 15.75L162.8 15.05L162.8 14.8L163.15 15L163.6 15.75L163.95 16.9L164.1 18.25L164.05 20.1Q164.05 21.2 164.5 22L164.8 22.8L164.65 23.15L164.55 23.1L163.55 22.9L155.3 22.9L155.05 22.7L155.05 22.6L155.35 22.4Q156.05 21.95 156.25 21.3L156.45 19.05L156.35 7.65L156 6.7L155.25 5.85L155.05 5.6M148.2,12.8L148.55 13L148.8 13.75L148.55 14.5L148.2 14.75L147.85 14.5Q147.6 14.15 147.6 13.8L147.85 13Q148 12.8 148.2 12.8M97.05,5L97.1 5.25L96.9 6.1L96.4 7.1L95.55 8.1L94.5 8.7L93.4 9.15L92.95 9.65Q92.65 10.15 92.55 11.65L92.65 20.9L93 21.85L93.85 22.5L93.9 22.7L93.7 22.9L89.55 22.9L89.3 22.7L89.4 22.5L90.25 21.8L90.6 20.85L90.65 13.75L90.5 12.8L89.85 12.1Q89.85 11.55 90.45 10.85Q91.1 10.05 92 9.5L92.8 9.05L91.85 8.8L90.3 8.6Q88.9 8.6 87.6 10.1L87.15 10.6L87.1 10.6L87.55 9.1L88.25 6.6Q88.4 5.75 88.7 5.65L89.85 5.45L91.2 5.6L92.7 6.1L93.75 6.4L94.45 6.5Q95.85 6.5 96.8 5.25L97.05 5M86,5.4L86 5.7L85.75 5.95Q84.9 6.8 84.65 7.65Q84.35 8.55 84.35 10.05L84.35 17.4Q84.35 18.25 84.5 18.6L85.2 19.25L85.4 19.35L85.4 19.5L85.3 19.75L85.05 20.15Q84.5 21 84.4 22.6L84.15 23.25L83.85 22.75L78.3 11.4L77.5 11.55L77.6 15.6L77.45 19.2L77 21.65L76.3 22.95Q75.85 23.4 75.35 23.35Q74.75 23.3 74.35 22.75Q73.9 22.1 73.9 21.05Q73.9 20.4 74.25 19.5L74.7 19.05L74.8 19.05Q75.2 19.45 75.5 19.45Q76.35 19.45 76.65 18.15Q77.05 16.3 77.05 13.25L76.85 9.95Q76.7 8.4 76.35 7.65Q75.9 6.45 74.95 5.9L74.75 5.65L74.8 5.45L75.3 5.65Q77.05 6.5 78.8 5.65L79.3 5.5L79.1 5.85Q78.65 6.45 78.65 6.85L79.1 8.2L83 16.25L83.8 16.1L83.8 10.1L83.5 7.65Q83.15 6.75 82.3 5.9L82.05 5.6L82 5.4L82.3 5.55Q84 6.4 85.65 5.55L86 5.4M100.85,6.95Q100.05 8.05 99.7 9.9Q99.3 11.55 99.3 14.05Q99.3 16.6 99.7 18.2Q100.05 20.05 100.85 21.15Q101.7 22.35 102.75 22.35Q103.85 22.35 104.65 21.2Q105.45 20 105.8 18.2L106.1 16.3L106.2 14.05Q106.2 11.9 105.8 9.9Q105.45 8.05 104.65 6.95Q103.85 5.75 102.75 5.75Q101.65 5.8 100.85 6.95M98.6,7.65Q100.25 4.95 102.75 4.95Q105.3 4.95 106.85 7.65L108 10.6Q108.4 12.35 108.4 14.05Q108.4 15.8 108 17.55Q107.5 19.45 106.85 20.45Q105.3 23.2 102.75 23.2Q100.25 23.2 98.65 20.5Q97.85 19.1 97.5 17.5Q97.1 15.75 97.1 14.05Q97.1 12.35 97.5 10.6Q97.85 9.05 98.6 7.65M102.75,12.8L103.1 13L103.3 13.75L103.1 14.5L102.75 14.75L102.4 14.5L102.15 13.8Q102.15 13.4 102.4 13L102.75 12.8M117.15,5.45L118.15 5.95L118.85 6.05L119.3 6.05L119.55 6L119.6 6.3L119.45 6.75L118.85 7.4Q118.1 8.25 117.55 9.7L117.4 9.95L117.3 9.75L116.5 8Q115.95 7.4 115.15 7.4Q114.3 7.35 113.8 8Q113.3 8.65 113.3 9.5Q113.3 10.2 113.7 10.75Q114.05 11.25 115 11.65L116.4 12.25Q117.45 12.75 118.05 13.2L119.05 14.25Q120.05 15.6 120.05 17.7Q120.05 19.4 119.45 20.6Q118.75 21.95 117.65 22.55Q116.75 23.15 115.5 23.25L113.15 22.9Q112.4 22.65 111.6 21.95Q110.9 21.35 110.55 20.55Q110.2 19.6 110.2 18.75Q110.2 17.9 110.5 17.15L111.3 16.05Q111.7 15.7 112.3 15.7Q112.85 15.7 113.35 16.05L114.3 17Q114.7 17.65 114.7 18.15L114.7 18.2L114.6 18.05Q114 17.45 113.3 17.45Q112.7 17.45 112.35 18Q112 18.4 112 19.15Q112 20.25 112.85 21.1Q113.75 22 115 21.9Q116.3 21.85 117.15 20.8Q118.05 19.75 118.05 18.25Q118.05 16.65 116.85 15.6Q116.2 15 114.5 14.35L113 13.65L112.2 13Q111.15 11.9 111.15 9.85Q111.15 8.5 111.7 7.3Q112.15 6.25 113.1 5.5Q114.4 4.6 116.1 5.05L117.15 5.45M56.25,3.05Q55.15 4.25 54.5 6.1Q54.05 4.65 53.4 3.85Q52.65 3 51.5 3Q50.3 3 49.55 3.9Q48.85 4.75 48.85 5.95Q48.85 7.05 49.45 7.7Q49.95 8.4 51.2 8.95L53.05 9.8L55.2 10.95L56.5 12.35Q57.8 14.1 57.8 16.85Q57.8 19.05 57 20.6Q56.15 22.25 54.7 23.1Q53.25 24 51.4 24L48.95 23.55Q47.85 23.15 46.9 22.35Q46.05 21.6 45.6 20.5Q45.15 19.55 45.15 18.25Q45.15 17.05 45.5 16.15Q45.95 15.2 46.55 14.8Q47.1 14.35 47.75 14.35L49 14.75L50.25 16L50.65 16.95Q49.95 16.3 49.05 16.3Q48.2 16.3 47.6 17.1Q47.1 17.95 47.1 18.75Q47.1 20.35 48.3 21.45Q49.55 22.6 51.15 22.6Q53.05 22.6 54.3 21.05Q55.5 19.65 55.5 17.55Q55.5 15.3 53.9 13.9L50.7 12.2L48.75 11.3Q48.25 11.05 47.7 10.5Q46.4 8.95 46.4 6.45Q46.4 4.55 47.05 3.1Q47.7 1.7 48.9 0.8Q50.55 -0.35 52.7 0.2Q53.35 0.4 54.05 0.75Q55.05 1.35 55.4 1.45L56.4 1.6L57.15 1.5L57.2 1.5L57.2 1.75L57 2.2L56.25 3.05M65.05,13.35L65.3 12.5L66.05 8.25L65.85 7.2L65.2 6.25L64.9 5.75L65.05 5.5L65.3 5.55L65.9 5.8Q67.45 6.55 69.2 5.75L69.95 5.5L70 5.75L69.7 6.25L69.1 7.15Q68.95 7.6 68.95 8.1L69.15 9.55L71.45 20.45L71.75 21.25L72.15 21.9L72.75 22.4L72.95 22.65L72.8 22.9L68.7 22.9L68.65 22.75L68.7 22.55L68.95 22.35Q69.5 21.95 69.5 21.25L69.4 20.4L68.5 15.9L67.35 18.35L67.2 18.9L66.95 19.2L66.85 18.8L65.9 15.9L65.4 14.85L65.05 16.25L63.8 20.35Q63.25 21.85 62.4 22.7Q61.2 23.9 60.1 23.1L59.45 22.25L59.2 21Q59.2 20 59.65 19.3Q60.05 18.7 60.5 18.7L60.6 18.7L60.7 19Q60.9 19.85 61.7 19.85Q62.45 19.85 62.95 19.2L63.9 17.45L64.75 14.6L64.8 14.35L64.55 14.2Q64.05 13.9 63.65 13.9Q63.2 13.9 62.85 14.3Q62.55 14.6 62.55 15.1L62.65 15.75L62.9 16.05L62.5 15.85L62.1 15.5Q61.8 15.05 61.8 14.45Q61.8 13.5 62.3 12.95Q63.15 11.8 64.55 12.95L65.05 13.35M66.4,9.95L65.85 12.7L65.65 13.95L65.5 14.15L66.2 15.6L66.7 17.1L67.05 18.35L68.25 15.35L68.35 15.25L67.25 9.9L66.4 9.95M5.95,0.85L5.6 1.2Q4.65 2 4.25 2.95Q3.95 3.85 3.95 5.55L4.05 17.85L4.35 19.4L5 20.6Q5.45 21.15 6.1 21.5L7.4 21.8Q9.05 21.8 10.05 20.2Q10.95 18.7 10.95 16.65L10.5 14.15L10.3 13.3L10.3 13.25L10.4 13.4L11 14.3L11.45 15.8L11.65 17.55L11.55 20Q11.55 21.5 12.2 22.65L12.55 23.55L12.55 23.8L12.45 23.8L11.05 23.5L0.15 23.5L0 23.4L0.3 23.2Q1.3 22.65 1.6 21.6L1.85 18.6L1.75 3.5Q1.6 2.65 1.25 2.15L0.2 1L0.05 0.85L0.7 1.15L4.25 1.5L5.85 0.85L5.95 0.8L5.95 0.85M14.1,14.05Q14.1 12.05 14.5 10.6Q14.85 9.05 15.6 7.65Q17.2 4.95 19.75 4.95Q22.3 4.95 23.85 7.65L25 10.6Q25.4 12.35 25.4 14.05Q25.4 15.9 24.95 17.55Q24.55 19.35 23.85 20.45Q22.3 23.2 19.75 23.2Q17.2 23.2 15.6 20.5Q14.9 19.25 14.5 17.5Q14.1 16.05 14.1 14.05M21.65,6.95Q20.8 5.75 19.7 5.75Q18.65 5.8 17.8 6.95Q17.1 7.95 16.7 9.9Q16.3 11.55 16.3 14.05Q16.3 16.6 16.7 18.2Q17.05 20.05 17.85 21.15Q18.6 22.35 19.75 22.35Q20.85 22.35 21.65 21.2Q22.3 20.2 22.8 18.2L23.2 14.05Q23.2 11.9 22.8 9.9Q22.3 7.9 21.65 6.95M19.15,13.8L19.35 13L19.7 12.8L20.1 13L20.3 13.75L20.1 14.5L19.7 14.75L19.35 14.5L19.15 13.8M34.15,5.45L35.15 5.95L35.85 6.05L36.25 6.05L36.55 6L36.6 6.3L36.4 6.75L35.85 7.4Q35.2 8.05 34.5 9.7L34.4 9.95L34.3 9.75L33.5 8Q32.95 7.4 32.15 7.4Q31.3 7.35 30.8 8Q30.3 8.55 30.3 9.5Q30.3 10.2 30.7 10.75Q31.05 11.25 32 11.65L33.4 12.25L35.05 13.2L36.05 14.25Q37.05 15.7 37.05 17.7Q37.05 19.45 36.4 20.6Q35.8 21.85 34.65 22.55Q33.7 23.15 32.45 23.25L30.15 22.9Q29.25 22.6 28.6 21.95Q27.9 21.35 27.55 20.55Q27.2 19.8 27.2 18.75Q27.2 17.9 27.5 17.15L28.3 16.05Q28.7 15.7 29.3 15.7Q29.85 15.7 30.35 16.05L31.3 17L31.65 18.15L31.65 18.2L31.55 18.05Q31.05 17.45 30.3 17.45Q29.7 17.45 29.35 18Q29 18.4 29 19.15Q29 20.3 29.85 21.1Q30.75 22 32 21.9Q33.3 21.85 34.15 20.8Q35.05 19.75 35.05 18.25Q35.05 16.65 33.85 15.6Q33.25 15.05 31.5 14.35L30 13.65L29.15 13Q28.15 11.85 28.15 9.85Q28.15 8.35 28.65 7.3Q29.15 6.2 30.1 5.5Q31.4 4.6 33.1 5.05L34.15 5.45" />
<path style="fill:#FFFFFF;fill-opacity:1" d="M79.55,28.65Q79.55 27.4 80.85 26.6Q82 26 83.25 26Q85.2 26 86.8 27.2L86.05 28.15L84.95 27.55L83.3 27.25L81.65 27.55Q80.85 27.95 80.85 28.65Q80.85 29.65 82.3 29.65L83.45 29.65Q87.35 29.65 87.35 32.25Q87.35 33.45 86.15 34.3Q84.95 35 83.3 35Q81.65 35 80.4 34.3Q79.7 33.95 79.05 33.2L79.9 32.4L80.6 32.9L81.65 33.45L83.35 33.7L85.2 33.4Q86.1 33 86.1 32.25Q86.1 31.35 85.15 31.05L83.45 30.85L82.15 30.85Q81.15 30.85 80.45 30.35Q79.55 29.65 79.55 28.65" />
<path style="fill:#FFFFFF;fill-opacity:1" d="M91.85,28.75L94.5 34.8L93.55 34.8L92.75 32.85L90 32.85L89.15 34.8L88.2 34.8L90.9 28.75L91.85 28.75M92.3,31.95L91.35 29.85L90.45 31.95L92.3 31.95" />
<path style="fill:#FFFFFF;fill-opacity:1" d="M100.3,28.75L101.2 28.75L101.2 34.8L100.3 34.8L96.8 30.25L96.8 34.8L95.9 34.8L95.9 28.75L96.8 28.75L100.3 33.35L100.3 28.75" />
<path style="fill:#FFFFFF;fill-opacity:1" d="M110.4,26.8L113.9 34.8L112.65 34.8L111.5 32.2L107.95 32.2L106.75 34.8L105.55 34.8L109.1 26.8L110.4 26.8M111,31L109.75 28.25L108.5 31L111 31" />
<path style="fill:#FFFFFF;fill-opacity:1" d="M120.6,28.75L120.6 34.8L119.8 34.8L116.2 30.25L116.2 34.8L115.35 34.8L115.35 28.75L116.2 28.75L119.8 33.35L119.8 28.75L120.6 28.75" />
<path style="fill:#FFFFFF;fill-opacity:1" d="M122.9,28.75L125.6 28.75Q127.1 28.75 127.9 29.8Q128.6 30.6 128.6 31.75Q128.6 32.95 127.75 33.9Q126.9 34.8 125.6 34.8L122.9 34.8L122.9 28.75M123.7,33.9L125.6 33.9Q126.65 33.9 127.2 33.2L127.7 31.75Q127.7 30.8 127.15 30.25Q126.55 29.65 125.6 29.65L123.7 29.65L123.7 33.9" />
<path style="fill:#FFFFFF;fill-opacity:1" d="M135.8,30.5Q135.8 31.25 135.3 31.9L134.4 32.25L135.7 34.8L134.65 34.8L133.45 32.25L131.25 32.25L131.25 34.8L130.45 34.8L130.45 28.75L133.9 28.75Q134.8 28.75 135.25 29.15Q135.8 29.65 135.8 30.5M133.9,29.65L131.25 29.65L131.25 31.45L133.9 31.45Q134.9 31.45 134.9 30.5Q134.9 29.65 133.9 29.65" />
<path style="fill:#FFFFFF;fill-opacity:1" d="M142.25,29.65L138.2 29.65L138.2 31.25L140.3 31.25L140.3 32.05L138.2 32.05L138.2 33.9L142.45 33.9L142.45 34.8L137.4 34.8L137.4 28.75L142.25 28.75L142.25 29.65" />
<path style="fill:#FFFFFF;fill-opacity:1" d="M146.95,28.75L149.6 34.8L148.65 34.8L147.75 32.85L145.1 32.85L144.2 34.8L143.25 34.8L146 28.75L146.95 28.75M147.4,31.95L146.45 29.85L145.55 31.95L147.4 31.95" />
<path style="fill:#FFFFFF;fill-opacity:1" d="M151.45,30.5Q151.45 31.2 152.45 31.2L153.2 31.2Q155.9 31.2 155.9 33Q155.9 33.9 155.1 34.5L153.15 34.9Q152 34.9 151.1 34.4L150.15 33.7L150.75 33.1L151.25 33.45L152 33.85L153.2 34.05L154.45 33.85Q155.1 33.4 155.1 33Q155.1 32.4 154.4 32.2L153.2 32.05L152.3 32.05L151.1 31.7Q150.55 31.25 150.55 30.5Q150.55 29.6 151.45 29.1Q152.2 28.65 153.05 28.65Q154.45 28.65 155.55 29.45L155.05 30.15L154.25 29.75L153.05 29.55L152 29.75Q151.45 30.05 151.45 30.5" />
</g>
</svg>
