<?xml version="1.0" encoding="utf-8"?>
<svg version="1.1" id="Layer_1"
xmlns="http://www.w3.org/2000/svg"
xmlns:xlink="http://www.w3.org/1999/xlink"
xmlns:author="http://www.sothink.com"
width="19px" height="14px"
xml:space="preserve">
<g id="52" transform="matrix(1, 0, 0, 1, 8.8, 6.65)">
<path style="fill:#FFFFFF;fill-opacity:0.298039" d="M7.95,-6.6L9.55 -5L4.45 0.05L9.5 5.1L7.9 6.7L2.85 1.6L-2.2 6.7L-3.8 5.1L1.3 0.05L-3.75 -5.05L-2.2 -6.65L2.85 -1.55L7.95 -6.6M-6.25,-2.4Q-5.15 -2.4 -4.4 -1.6Q-3.65 -0.85 -3.65 0.2Q-3.65 1.25 -4.4 2Q-5.15 2.75 -6.25 2.75Q-7.3 2.75 -8.05 2Q-8.8 1.25 -8.8 0.2Q-8.8 -0.85 -8.05 -1.6Q-7.3 -2.4 -6.25 -2.4" />
</g>
</svg>
