<?xml version="1.0" encoding="utf-8"?>
<svg version="1.1" id="Layer_1"
xmlns="http://www.w3.org/2000/svg"
xmlns:xlink="http://www.w3.org/1999/xlink"
xmlns:author="http://www.sothink.com"
width="75px" height="34px"
xml:space="preserve">
<g id="19" transform="matrix(1, 0, 0, 1, 0.1, -18.05)">
<path style="fill:#5E7C33;fill-opacity:1" d="M73.95,32.3L74.9 27.7L74.9 52L-0.1 52L-0.1 25.75L1.3 32.3L4.35 18.05L7.35 32.3L10.4 18.05L13.4 32.3L16.45 18.05L19.45 32.3L22.5 18.05L25.5 32.3L28.55 18.05L31.55 32.3L34.6 18.05L37.6 32.3L40.65 18.05L43.65 32.3L46.7 18.05L49.7 32.3L52.75 18.05L55.75 32.3L58.8 18.05L61.85 32.3L64.85 18.05L67.9 32.3L70.9 18.05L73.95 32.3" />
</g>
</svg>
