<?xml version="1.0" encoding="utf-8"?>
<svg version="1.1" id="Layer_1"
xmlns="http://www.w3.org/2000/svg"
xmlns:xlink="http://www.w3.org/1999/xlink"
xmlns:author="http://www.sothink.com"
width="15px" height="15px"
xml:space="preserve">
<g id="102" transform="matrix(1, 0, 0, 1, 7.5, 7.5)">
<path style="fill:#000000;fill-opacity:1" d="M6.5,-0.5L6.5 0.5L3.5 0.5L3.5 -0.5L6.5 -0.5M0.5,-3.5L-0.45 -3.5L-0.5 -6.5L0.5 -6.5L0.5 -3.5M0.5,6.5L-0.45 6.5L-0.5 3.5L0.5 3.5L0.5 6.5M-3.5,-0.5L-3.5 0.5L-6.5 0.5L-6.5 -0.5L-3.5 -0.5" />
<path style="fill:#FFFFFF;fill-opacity:0.2" d="M1.35,-7.35L1.5 -7L1.5 -3L1.35 -2.65L1 -2.5L-0.95 -2.5Q-1.15 -2.5 -1.3 -2.65L-1.45 -3L-1.5 -7L-1.35 -7.35L-1 -7.5L1 -7.5L1.35 -7.35M2.65,-1.35L3 -1.5L7 -1.5L7.35 -1.35L7.5 -1L7.5 1L7.35 1.35L7 1.5L3 1.5L2.65 1.35L2.5 1L2.5 -1L2.65 -1.35M3.5,-0.5L3.5 0.5L6.5 0.5L6.5 -0.5L3.5 -0.5M0.5,-6.5L-0.5 -6.5L-0.45 -3.5L0.5 -3.5L0.5 -6.5M1.35,2.65L1.5 3L1.5 7L1.35 7.35L1 7.5L-0.95 7.5L-1.3 7.35L-1.45 7L-1.5 3L-1.35 2.65L-1 2.5L1 2.5L1.35 2.65M0.5,3.5L-0.5 3.5L-0.45 6.5L0.5 6.5L0.5 3.5M-7.35,-1.35L-7 -1.5L-3 -1.5L-2.65 -1.35L-2.5 -1L-2.5 1L-2.65 1.35L-3 1.5L-7 1.5L-7.35 1.35L-7.5 1L-7.5 -1L-7.35 -1.35M-6.5,-0.5L-6.5 0.5L-3.5 0.5L-3.5 -0.5L-6.5 -0.5" />
<path style="fill:#000000;fill-opacity:1" d="M1,-3L-0.95 -3L-1 -7L1 -7L1 -3M7,-1L7 1L3 1L3 -1L7 -1M1,7L-0.95 7L-1 3L1 3L1 7M-3,-1L-3 1L-7 1L-7 -1L-3 -1" />
</g>
</svg>
