<?xml version="1.0" encoding="utf-8"?>
<svg version="1.1" id="Layer_1"
xmlns="http://www.w3.org/2000/svg"
xmlns:xlink="http://www.w3.org/1999/xlink"
xmlns:author="http://www.sothink.com"
width="21px" height="21px"
xml:space="preserve">
<g id="392" transform="matrix(1, 0, 0, 1, 8, 12.45)">
<path style="fill:#5D0D0D;fill-opacity:1" d="M7.75,-2.15L8 0L7.75 2.05L6.95 4L5.65 5.65L4.05 6.95L2.15 7.65L0.05 8L-2.05 7.65L-4 6.95L-5.65 5.65L-6.85 4L-7.65 2.05L-8 0L-7.65 -2.15L-6.85 -4.05L-5.65 -5.65L-4 -6.95L-2.05 -7.75L0.05 -8L2.15 -7.75L4.05 -6.95L5.65 -5.65L6.95 -4.05L7.75 -2.15" />
<path style="fill:#5D0D0D;fill-opacity:1" d="M0,-9.95L0 -12.45Q5.15 -12.45 8.8 -8.8Q10.05 -7.55 10.9 -6.05Q12.45 -3.35 12.45 0L9.95 0Q9.95 -4.15 7.05 -7.05Q4.15 -9.95 0 -9.95" />
</g>
</svg>
