<?xml version="1.0" encoding="utf-8"?>
<svg version="1.1" id="Layer_1"
xmlns="http://www.w3.org/2000/svg"
xmlns:xlink="http://www.w3.org/1999/xlink"
xmlns:author="http://www.sothink.com"
width="41px" height="95px"
xml:space="preserve">
<g id="137" transform="matrix(1, 0, 0, 1, 20.5, 94.25)">
<path style="fill:#000000;fill-opacity:0.721569" d="M5.5,-74.5L-5.5 -74.5L-5.5 -75.5L5.5 -75.5L5.5 -74.5M2.5,-55.75L-2.5 -55.75L-2.5 -56.75L2.5 -56.75L2.5 -55.75M2.5,-68.25L-2.5 -68.25L-2.5 -69.25L2.5 -69.25L2.5 -68.25M2.5,-80.75L-2.5 -80.75L-2.5 -81.75L2.5 -81.75L2.5 -80.75M2.5,-93.25L-2.5 -93.25L-2.5 -94.25L2.5 -94.25L2.5 -93.25M5.5,-87L-5.5 -87L-5.5 -88L5.5 -88L5.5 -87M5.5,-62L-5.5 -62L-5.5 -63L5.5 -63L5.5 -62M5.5,-12L-5.5 -12L-5.5 -13L5.5 -13L5.5 -12M5.5,-37L-5.5 -37L-5.5 -38L5.5 -38L5.5 -37M2.5,-30.75L-2.5 -30.75L-2.5 -31.75L2.5 -31.75L2.5 -30.75M2.5,-43.25L-2.5 -43.25L-2.5 -44.25L2.5 -44.25L2.5 -43.25M2.5,-18.25L-2.5 -18.25L-2.5 -19.25L2.5 -19.25L2.5 -18.25M2.5,-5.75L-2.5 -5.75L-2.5 -6.75L2.5 -6.75L2.5 -5.75M5.5,-24.5L-5.5 -24.5L-5.5 -25.5L5.5 -25.5L5.5 -24.5M20.5,-49.5L-20.5 -49.5L-20.5 -50.5L20.5 -50.5L20.5 -49.5M20.5,0.5L-20.5 0.5L-20.5 -0.5L20.5 -0.5L20.5 0.5" />
</g>
</svg>
