<?xml version="1.0" encoding="utf-8"?>
<svg version="1.1" id="Layer_1"
xmlns="http://www.w3.org/2000/svg"
xmlns:xlink="http://www.w3.org/1999/xlink"
xmlns:author="http://www.sothink.com"
width="179px" height="127px"
xml:space="preserve">
<g id="124" transform="matrix(1, 0, 0, 1, -6.05, -9.05)">
<path style="fill:#000000;fill-opacity:0.498039" d="M184.6,10.85L184.9 11.9L185 12.95L185 132L184.9 133.05L184.6 134.1L184 134.95L183.15 135.55L182.05 135.9L181.2 136L9.75 136L8.9 135.9L7.8 135.55L7 134.95L6.35 134.1L6.05 133.05L6.05 11.9L6.35 10.85L7 10L7.8 9.4L8.9 9.05L182.05 9.05L183.15 9.4L184 10L184.6 10.85M179.6,13L11.8 13L11.35 13.05L10.8 13.2L10.4 13.45L10.15 13.85L10 14.3L10 121.65L10.15 122.1L10.4 122.5L10.8 122.8L11.35 122.95L179.15 122.95L179.6 122.9L180.15 122.75L180.55 122.5L180.8 122.1L180.95 121.65L181 121.15L181 14.75L180.95 14.3L180.8 13.85L180.55 13.45L180.15 13.15L179.6 13" />
</g>
</svg>
