<?xml version="1.0" encoding="utf-8"?>
<svg version="1.1" id="Layer_1"
xmlns="http://www.w3.org/2000/svg"
xmlns:xlink="http://www.w3.org/1999/xlink"
xmlns:author="http://www.sothink.com"
width="28px" height="28px"
xml:space="preserve">
<g id="145" transform="matrix(1, 0, 0, 1, 14, 14)">
<path style="fill:#FFFFFF;fill-opacity:1" d="M0,-12.35Q-4.95 -12.35 -8.65 -8.65Q-12.35 -4.95 -12.35 0Q-12.35 4.95 -8.65 8.65Q-4.95 12.35 0 12.35Q4.95 12.35 8.65 8.65Q12.35 4.95 12.35 0Q12.35 -4.95 8.65 -8.65Q4.95 -12.35 0 -12.35M9.8,-9.8Q14 -5.6 14 0Q14 5.6 9.8 9.8Q5.6 14 0 14Q-5.6 14 -9.8 9.8Q-14 5.6 -14 0Q-14 -5.6 -9.8 -9.8Q-5.6 -14 0 -14Q5.6 -14 9.8 -9.8" />
</g>
</svg>
