<?xml version="1.0" encoding="utf-8"?>
<svg version="1.1" id="Layer_1"
xmlns="http://www.w3.org/2000/svg"
xmlns:xlink="http://www.w3.org/1999/xlink"
xmlns:author="http://www.sothink.com"
width="13px" height="13px"
xml:space="preserve">
<g id="396" transform="matrix(1, 0, 0, 1, 6.5, 6.5)">
<path style="fill:#FFFFFF;fill-opacity:1" d="M4.25,-4.25L5.2 -3.05L5.8 -1.6L6 0L5.8 1.55L5.2 3L4.25 4.25L3.05 5.2L1.6 5.75L0.05 6L-1.55 5.75L-3 5.2L-4.25 4.25L-5.15 3L-5.75 1.55L-6 0L-5.75 -1.6L-5.15 -3.05L-4.25 -4.25L-3 -5.2L-1.55 -5.8L0.05 -6L1.6 -5.8L3.05 -5.2L4.25 -4.25" />
<path style="fill:none;stroke-width:1;stroke-linecap:round;stroke-linejoin:round;stroke-miterlimit:3;stroke:#000000;stroke-opacity:1" d="M4.25,-4.25L5.2 -3.05L5.8 -1.6L6 0L5.8 1.55L5.2 3L4.25 4.25L3.05 5.2L1.6 5.75L0.05 6L-1.55 5.75L-3 5.2L-4.25 4.25L-5.15 3L-5.75 1.55L-6 0L-5.75 -1.6L-5.15 -3.05L-4.25 -4.25L-3 -5.2L-1.55 -5.8L0.05 -6L1.6 -5.8L3.05 -5.2L4.25 -4.25z" />
</g>
</svg>
