<?xml version="1.0" encoding="utf-8"?>
<svg version="1.1" id="Layer_1"
xmlns="http://www.w3.org/2000/svg"
xmlns:xlink="http://www.w3.org/1999/xlink"
xmlns:author="http://www.sothink.com"
width="13px" height="13px"
xml:space="preserve">
<g id="460" transform="matrix(1, 0, 0, 1, 6.5, 6.5)">
<path style="fill:#000000;fill-opacity:1" d="M0.05,-6L-1.55 -5.8L0 -6L0.05 -6M-5.75,-1.6L-6 0Q-6 -1.6 -5.15 -2.95L-5.75 -1.6M-1.55,5.75L0.05 6L1.6 5.75L2.7 5.35Q1.5 6 0.05 6L0 6Q-1.55 6 -2.8 5.3L-1.55 5.75M-5.75,1.55L-5.15 3L-4.6 3.8Q-6 2.15 -6 0L-5.75 1.55" />
<path style="fill:#FFFFFF;fill-opacity:1" d="M4.25,-4.25L5.2 -3.05L5.4 -2.6L5.75 -1.7L5.8 -1.6L5.8 -1.5L6 0L5.8 1.55L5.3 2.8L5.2 3L4.25 4.25L3.05 5.2L1.6 5.75L0.05 6L-1.55 5.75L-3 5.2L-4.25 4.25L-5.15 3L-5.75 1.55L-6 0L-5.75 -1.6L-5.15 -2.95L-5.15 -3.05L-4.95 -3.3L-4.75 -3.55L-4.75 -3.6L-4.25 -4.25L-3 -5.2L-2.75 -5.3L-1.55 -5.8L0.05 -6L1.45 -5.8L1.6 -5.8L1.75 -5.7L2.65 -5.35L3.05 -5.2L4.25 -4.25" />
<path style="fill:none;stroke-width:1;stroke-linecap:round;stroke-linejoin:round;stroke-miterlimit:3;stroke:#000000;stroke-opacity:1" d="M4.25,-4.25L5.2 -3.05L5.4 -2.6L5.75 -1.7L5.8 -1.6L5.8 -1.5L6 0L5.8 1.55L5.3 2.8L5.2 3L4.25 4.25L3.05 5.2L1.6 5.75L0.05 6L-1.55 5.75L-3 5.2L-4.25 4.25L-5.15 3L-5.75 1.55L-6 0L-5.75 -1.6L-5.15 -2.95L-5.15 -3.05L-4.95 -3.3L-4.75 -3.55L-4.75 -3.6L-4.25 -4.25L-3 -5.2L-2.75 -5.3L-1.55 -5.8L0.05 -6L1.45 -5.8L1.6 -5.8L1.75 -5.7L2.65 -5.35L3.05 -5.2L4.25 -4.25z" />
<path style="fill:#000000;fill-opacity:1" d="M0.8,-0.7L3.55 -0.75L3.6 0.8L0.8 0.9L0.75 3.55L-0.75 3.55L-0.8 0.9L-3.6 0.8L-3.55 -0.75L-0.8 -0.7L-0.8 -3.6L0.8 -3.6L0.8 -0.7" />
</g>
</svg>
