<?xml version="1.0" encoding="utf-8"?>
<svg version="1.1" id="Layer_1"
xmlns="http://www.w3.org/2000/svg"
xmlns:xlink="http://www.w3.org/1999/xlink"
xmlns:author="http://www.sothink.com"
width="17px" height="17px"
xml:space="preserve">
<g id="462" transform="matrix(1, 0, 0, 1, 0.5, 0.5)">
<path style="fill:#FFFFFF;fill-opacity:1" d="M14.95,12L13.65 13.65L12.05 14.95L10.15 15.65L8.05 16L5.95 15.65L4 14.95L2.35 13.65L1.15 12L0.35 10.05L0 8L0.35 5.85L1.15 3.95L2.35 2.35L4 1.05L5.95 0.25L8.05 0L10.15 0.25L12.05 1.05L13.65 2.35L14.95 3.95L15.75 5.85L16 8L15.75 10.05L14.95 12" />
<path style="fill:none;stroke-width:1;stroke-linecap:round;stroke-linejoin:round;stroke-miterlimit:3;stroke:#000000;stroke-opacity:1" d="M14.95,12L13.65 13.65L12.05 14.95L10.15 15.65L8.05 16L5.95 15.65L4 14.95L2.35 13.65L1.15 12L0.35 10.05L0 8L0.35 5.85L1.15 3.95L2.35 2.35L4 1.05L5.95 0.25L8.05 0L10.15 0.25L12.05 1.05L13.65 2.35L14.95 3.95L15.75 5.85L16 8L15.75 10.05L14.95 12z" />
</g>
</svg>
