<?xml version="1.0" encoding="utf-8"?>
<svg version="1.1" id="Layer_1"
xmlns="http://www.w3.org/2000/svg"
xmlns:xlink="http://www.w3.org/1999/xlink"
xmlns:author="http://www.sothink.com"
width="12px" height="12px"
xml:space="preserve">
<g id="405" transform="matrix(1, 0, 0, 1, 6, 6)">
<path style="fill:#000000;fill-opacity:1" d="M0,-5Q-2 -5 -3.5 -3.5Q-5 -2 -5 0Q-5 2 -3.5 3.5Q-2 5 0 5Q2 5 3.5 3.5Q5 2 5 0Q5 -2 3.5 -3.5Q2 -5 0 -5M3.1,-5.1L4.2 -4.2Q6 -2.4 6 0Q6 2.4 4.2 4.2Q2.4 6 0 6Q-2.4 6 -4.2 4.2Q-6 2.4 -6 0Q-6 -2.4 -4.2 -4.2L-3.1 -5.1Q-1.7 -6 0 -6Q1.7 -6 3.1 -5.1" />
<path style="fill:#FDD653;fill-opacity:1" d="M3.5,-3.5Q5 -2 5 0Q5 2 3.5 3.5Q2 5 0 5Q-2 5 -3.5 3.5Q-5 2 -5 0Q-5 -2 -3.5 -3.5Q-2 -5 0 -5Q2 -5 3.5 -3.5" />
</g>
</svg>
