<?xml version="1.0" encoding="utf-8"?>
<svg version="1.1" id="Layer_1"
xmlns="http://www.w3.org/2000/svg"
xmlns:xlink="http://www.w3.org/1999/xlink"
xmlns:author="http://www.sothink.com"
width="15px" height="15px"
xml:space="preserve">
<g id="121" transform="matrix(1, 0, 0, 1, 7.5, 7.5)">
<path style="fill:#FFFFFF;fill-opacity:1" d="M1.25,-2.1L-2.1 -1.1L-2.35 -0.3L-2.3 -0.35L-2.05 -0.35Q-1.7 -0.35 -1.7 -0.05L-1.75 0.25L-2.6 2.95L-2.85 3.45L-2.85 4.15Q-2.85 4.8 -2.5 5.2Q-2.1 5.65 -1.35 5.65Q-0.25 5.65 0.95 4.4L0.8 3.55L0.65 3.7L0.05 4.05L-0.1 3.9L0.05 3.2L1.15 0.2L1.4 -1L1.25 -2.1M2.3,-4.35Q2.3 -5 1.9 -5.45Q1.4 -5.95 0.7 -5.95Q0.05 -5.95 -0.45 -5.45Q-0.85 -5 -0.85 -4.3Q-0.85 -3.6 -0.45 -3.2Q0 -2.7 0.7 -2.7Q1.4 -2.7 1.8 -3.2Q2.3 -3.6 2.3 -4.35M6.9,-2.85Q7.5 -1.55 7.5 0Q7.5 1.5 6.9 2.95Q6.4 4.25 5.3 5.3Q4.3 6.4 2.95 6.9Q1.55 7.5 0 7.5Q-1.55 7.5 -2.85 6.9Q-4.25 6.4 -5.3 5.3Q-6.35 4.25 -6.85 2.95Q-7.5 1.5 -7.5 0Q-7.5 -1.55 -6.85 -2.85Q-6.35 -4.25 -5.3 -5.3L-2.85 -6.95Q-1.55 -7.5 0 -7.5L2.95 -6.95Q4.3 -6.35 5.3 -5.3Q6.4 -4.25 6.9 -2.85" />
</g>
</svg>
