<?xml version="1.0" encoding="utf-8"?>
<svg version="1.1" id="Layer_1"
xmlns="http://www.w3.org/2000/svg"
xmlns:xlink="http://www.w3.org/1999/xlink"
xmlns:author="http://www.sothink.com"
width="119px" height="125px"
xml:space="preserve">
<g id="132" transform="matrix(1, 0, 0, 1, -36, -6)">
<path style="fill:#000000;fill-opacity:0.498039" d="M152.6,8.15L152.25 8L38.75 8L38.4 8.15L38.1 8.45L38 8.75L38 127.35L38.1 127.65L38.4 127.95L38.65 128.05L152.4 128.05L152.6 127.95L152.9 127.65L153 127.35L153 8.75L152.9 8.45L152.6 8.15M155,7.35L155 128.6L154.8 129.3L154.3 129.8L153.55 130.05L37.35 130.05L36.75 129.8L36.2 129.3L36 128.6L36 7.35L36.2 6.7L36.7 6.2L37.35 6L153.55 6L154.3 6.2L154.8 6.7L155 7.35" />
</g>
</svg>
