<?xml version="1.0" encoding="utf-8"?>
<svg version="1.1" id="Layer_1"
xmlns="http://www.w3.org/2000/svg"
xmlns:xlink="http://www.w3.org/1999/xlink"
xmlns:author="http://www.sothink.com"
width="15px" height="15px"
xml:space="preserve">
<g id="389" transform="matrix(1, 0, 0, 1, 7.5, 7.5)">
<path style="fill:#5D0D0D;fill-opacity:1" d="M6.05,-1.5Q6.65 -1.5 7.1 -1.05Q7.5 -0.6 7.5 0L7.5 0.05Q7.5 0.65 7.1 1.05Q6.65 1.5 6.05 1.5L1.5 1.5L1.5 6.05Q1.5 6.65 1.05 7.05Q0.65 7.5 0.05 7.5L0 7.5L-1.05 7.05Q-1.5 6.65 -1.5 6.05L-1.5 1.5L-6.05 1.5Q-6.65 1.5 -7.05 1.05Q-7.5 0.65 -7.5 0.05L-7.5 0L-7.05 -1.05Q-6.65 -1.5 -6.05 -1.5L-1.5 -1.5L-1.5 -6.05L-1.05 -7.1Q-0.6 -7.5 0 -7.5L0.05 -7.5Q0.65 -7.5 1.05 -7.1L1.5 -6.05L1.5 -1.5L6.05 -1.5" />
</g>
</svg>
