<?xml version="1.0" encoding="utf-8"?>
<svg version="1.1" id="Layer_1"
xmlns="http://www.w3.org/2000/svg"
xmlns:xlink="http://www.w3.org/1999/xlink"
xmlns:author="http://www.sothink.com"
width="50px" height="50px"
xml:space="preserve">
<g id="2476" transform="matrix(1, 0, 0, 1, 0, 0)">
<path style="fill:#F5F5F5;fill-opacity:1" d="M50,25Q50 35.35 42.7 42.7Q35.35 50 25 50Q14.65 50 7.35 42.7Q0 35.35 0 25Q0 14.65 7.35 7.35Q14.65 0 25 0Q35.35 0 42.7 7.35Q50 14.65 50 25" />
<path style="fill:#000000;fill-opacity:1" d="M24.95,14.9L19.85 14.9Q16.3 14.9 16.3 11.95Q16.3 9 19.85 9L24.95 9Q28.35 9 28.15 6.35Q28.05 5 27.25 3.65L30.35 4.95Q33.4 6.95 33.4 10.3Q33.4 13.05 31.45 14Q29.65 14.9 24.95 14.9" />
<path style="fill:#000000;fill-opacity:1" d="M43.35,34.85Q43.35 37.05 41.75 38.65Q40.1 40.25 37.85 40.25L11.85 40.25Q9.6 40.25 8 38.65Q6.35 37.05 6.35 34.85Q6.35 32.65 8 31.05Q9.6 29.45 11.85 29.45L37.85 29.45Q40.1 29.45 41.75 31.05Q43.35 32.65 43.35 34.85" />
<path style="fill:#000000;fill-opacity:1" d="M37.85,21.95Q37.85 23.7 36.2 24.95Q34.6 26.2 32.3 26.2L17.4 26.2Q15.1 26.2 13.5 24.95Q11.85 23.7 11.85 21.95Q11.85 20.2 13.5 18.9Q15.1 17.65 17.4 17.65L32.3 17.65Q34.6 17.65 36.2 18.9Q37.85 20.2 37.85 21.95" />
</g>
</svg>
