<?xml version="1.0" encoding="utf-8"?>
<svg version="1.1" id="Layer_1"
xmlns="http://www.w3.org/2000/svg"
xmlns:xlink="http://www.w3.org/1999/xlink"
xmlns:author="http://www.sothink.com"
width="18px" height="19px"
xml:space="preserve">
<g id="2207" transform="matrix(1, 0, 0, 1, 8.6, 9.05)">
<path style="fill:#FFFFFF;fill-opacity:1" d="M2.2,-7.5Q2.8 -6.8 2.45 -6.1L1.95 -6.3L1.55 -6.35L1.35 -5.9L1.35 -5.55Q1.45 -5.1 1.8 -4.75L4.6 -4.75L3.7 -6.5L7.15 -9.05L8.45 -5.3Q9.2 -0.95 6.7 2.3Q4.2 5.55 1.85 7.65L0 9.1L-1.85 7.65Q-4.2 5.55 -6.7 2.3Q-9.2 -0.95 -8.4 -5.3L-7.1 -9.05L-3.7 -6.5L-4.6 -4.75L-1.8 -4.75L-1.65 -5.15L-1.65 -7.7L-1.1 -8.25L0.95 -8.25Q1.5 -8.25 2.2 -7.5" />
</g>
</svg>
