<?xml version="1.0" encoding="utf-8"?>
<svg version="1.1" id="Layer_1"
xmlns="http://www.w3.org/2000/svg"
xmlns:xlink="http://www.w3.org/1999/xlink"
xmlns:author="http://www.sothink.com"
width="21px" height="21px"
xml:space="preserve">
<g id="2223" transform="matrix(1, 0, 0, 1, 10.2, 10.5)">
<path style="fill:#FFFFFF;fill-opacity:1" d="M4,-0.95L1.2 7.85L8.75 0.5L9.05 -0.25L8.95 -1.35Q8.5 -2.45 6.7 -2.45Q4.95 -2.45 4 -0.95M0,-3.05Q-1.85 -3.05 -2.6 -2.05Q-3.05 -1.55 -2.8 -0.8L0 7.95L2.85 -0.8Q3 -1.55 2.65 -2.05Q1.8 -3.05 0 -3.05M10.2,-0.6Q10.25 0.45 9.4 1.3L0 10.5L-9.4 1.3Q-9.95 0.75 -10.1 0.05L-10.2 -0.6Q-10.05 -4.75 -7.1 -7.65Q-4.15 -10.5 0 -10.5Q4.15 -10.5 7.15 -7.65Q10.1 -4.75 10.2 -0.6M-9.05,-0.25L-8.7 0.5L-1.15 7.85L-4 -1Q-4.95 -2.45 -6.7 -2.45Q-8.5 -2.45 -8.95 -1.35L-9.05 -0.25" />
</g>
</svg>
