<?xml version="1.0" encoding="utf-8"?>
<svg version="1.1" id="Layer_1"
xmlns="http://www.w3.org/2000/svg"
xmlns:xlink="http://www.w3.org/1999/xlink"
xmlns:author="http://www.sothink.com"
width="50px" height="12px"
xml:space="preserve">
<g id="2235" transform="matrix(1, 0, 0, 1, 0, 0)">
<path style="fill:#FFFFFF;fill-opacity:1" d="M49.25,8.8L48.45 9.85Q47 11.6 44.9 11.6L44.8 11.6L5.6 11.6L5.1 11.6Q3 11.6 1.5 9.85L0.75 8.8Q0 7.45 0 5.8Q0 4.15 0.7 2.85L1.5 1.65Q3 0 5.1 0L5.6 0L44.8 0L44.9 0Q47 0 48.45 1.65L49.3 2.9Q50 4.2 50 5.8Q50 7.45 49.25 8.8" />
</g>
</svg>
