<?xml version="1.0" encoding="utf-8"?>
<svg version="1.1" id="Layer_1"
xmlns="http://www.w3.org/2000/svg"
xmlns:xlink="http://www.w3.org/1999/xlink"
xmlns:author="http://www.sothink.com"
width="23px" height="20px"
xml:space="preserve">
<g id="2198" transform="matrix(1, 0, 0, 1, 11.05, 9.55)">
<path style="fill:#FFFFFF;fill-opacity:1" d="M3.25,-6.8L2.15 -4.15L-2.65 -4.05Q-3.9 -4.05 -4.7 -3.15Q-5.5 -2.35 -5.5 -1.2L-5.9 1.95L-6.5 2.4Q-6.95 2.85 -7.2 3.6L-10.65 3.65L-7.65 0.1L-11.05 -2.4L-7.55 -3.45L-9.2 -7.85L-4.7 -5.6L-2.9 -9.55L-0.9 -5.8L3.25 -6.8" />
<path style="fill:#FFFFFF;fill-opacity:1" d="M7.5,-0.5Q7.5 -1.05 6.95 -1.05L-1.6 -0.9Q-2.15 -0.9 -2.15 -0.35L-2.15 -0.3L-2.55 2.25L8 2.1L7.5 -0.45L7.5 -0.5M8.7,-2.1L9.05 -1.25L9.8 3.15L9.9 3.15Q10.4 3.15 10.75 3.45L11.05 4.25L11.1 5.85L10.8 6.6L10.1 6.95L10.1 8.3Q10.15 8.75 9.8 9.15L9 9.5L8.55 9.5L7.7 9.15Q7.4 8.85 7.4 8.35L7.35 7.05L-1.8 7.15L-1.8 8.5Q-1.8 9 -2.1 9.3Q-2.4 9.6 -2.9 9.6L-3.35 9.6L-4.15 9.3Q-4.5 9 -4.5 8.5L-4.5 7.2Q-5.5 7 -5.5 6.05L-5.55 4.5L-5.25 3.7Q-4.9 3.3 -4.45 3.3L-4.3 3.3L-3.7 -1.15L-3.4 -1.9Q-3.05 -2.25 -2.6 -2.25L7.95 -2.4L8.7 -2.1" />
</g>
</svg>
