<?xml version="1.0" encoding="utf-8"?>
<svg version="1.1" id="Layer_1"
xmlns="http://www.w3.org/2000/svg"
xmlns:xlink="http://www.w3.org/1999/xlink"
xmlns:author="http://www.sothink.com"
width="20px" height="20px"
xml:space="preserve">
<g id="2197" transform="matrix(1, 0, 0, 1, 9.55, 9.55)">
<path style="fill:#FFFFFF;fill-opacity:1" d="M5.6,-2.55L5.6 0.7L5.1 0.7Q4.6 0.7 4.3 0.95L1.3 0.95L1.3 -2.55L-2.95 -2.55L-2.95 -6.05L1.3 -6.05L1.3 -2.55L5.6 -2.55M1.3,-6.05L1.3 -9.55L5.6 -9.55L5.6 -6.05L1.3 -6.05M6.45,2.15L6.6 2.3L6.6 4.95L7.15 4.9Q8.15 4.9 8.8 5.6Q9.5 6.3 9.5 7.25Q9.5 8.2 8.8 8.9Q8.1 9.6 7.15 9.6Q6.2 9.6 5.5 8.9Q4.8 8.2 4.8 7.25L4.95 6.45L3.15 7.75L2.3 9.05Q1.65 9.6 0.85 9.6Q-0.1 9.6 -0.8 8.9Q-1.5 8.2 -1.5 7.25Q-1.5 6.3 -0.8 5.6Q-0.1 4.9 0.85 4.9L1.9 5.15L1.9 3.75L1.05 3.7L0.9 3.55L0.9 2.7L0.95 2.6L1.05 2.6L3.1 2.75L3.2 2.9L3.2 3.45L3.1 3.6L2.95 3.6L2.95 3.95L5.7 3.75L5.7 3.2L5.1 3.15L5 3.05L5 2.2L5.05 2.1L5.1 2.05L5.15 2.05L6.3 2.15L6.45 2.15M2.05,6.95Q2 6.55 1.6 6.25Q1.25 5.95 0.85 5.95Q0.35 5.95 -0.05 6.35Q-0.4 6.7 -0.4 7.25Q-0.4 7.75 -0.05 8.1Q0.35 8.5 0.85 8.5Q1.35 8.5 1.75 8.1Q2.1 7.75 2.1 7.25L2.05 7.05L2.05 6.95M8.4,7.25L8.05 6.35Q7.65 5.95 7.15 5.95Q6.65 5.95 6.25 6.35Q5.9 6.7 5.9 7.25Q5.9 7.75 6.25 8.1Q6.65 8.5 7.15 8.5Q7.65 8.5 8.05 8.1Q8.4 7.75 8.4 7.25M5.2,4.85L2.95 5L2.95 6.2L5.2 4.85M-2.95,-2.55L-2.95 0.95L-7.25 0.95L-7.25 8.15L-9.55 8.15L-9.55 -9.55L-2.95 -9.55L-2.95 -6.05L-7.25 -6.05L-7.25 -2.55L-2.95 -2.55" />
</g>
</svg>
