<?xml version="1.0" encoding="utf-8"?>
<svg version="1.1" id="Layer_1"
xmlns="http://www.w3.org/2000/svg"
xmlns:xlink="http://www.w3.org/1999/xlink"
xmlns:author="http://www.sothink.com"
width="19px" height="19px"
xml:space="preserve">
<g id="2205" transform="matrix(1, 0, 0, 1, 9.1, 9)">
<path style="fill:#FFFFFF;fill-opacity:1" d="M1.85,-4Q1.15 -3.15 -0.15 -3L-0.15 -2.95Q0.5 -2.8 0.75 -2.35L1 -1.1L1 0L0.95 0.95L1.05 1.7L1.35 2.45L2 2.45L4.3 -1.5L4.95 2.5L8.95 2.5L5.35 5L5.95 9L2.8 6.6L-1.4 9.1L0.6 4.85L-1.7 2.5L-1.9 2L-1.95 1.5L-1.9 0.6L-1.85 -0.4Q-1.85 -1.15 -2.2 -1.5Q-2.55 -1.9 -3.35 -1.9L-5.3 -1.9L-6.15 2.15L-9.1 2.15L-6.75 -9L-1.2 -9Q0.55 -9 1.4 -8.45Q2.45 -7.75 2.45 -6.1Q2.45 -4.8 1.85 -4M4,0.3L2.35 3.1L-0.25 3.1L1.3 4.75L0.05 7.55L2.85 5.85L5.1 7.55L4.65 4.75L7 3.1L4.4 3.1L4 0.3M-4.25,-6.65L-4.8 -4L-2.45 -4Q-0.45 -4 -0.45 -5.5Q-0.45 -6.65 -2.05 -6.65L-4.25 -6.65" />
</g>
</svg>
