<?xml version="1.0" encoding="utf-8"?>
<svg version="1.1" id="Layer_1"
xmlns="http://www.w3.org/2000/svg"
xmlns:xlink="http://www.w3.org/1999/xlink"
xmlns:author="http://www.sothink.com"
width="21px" height="20px"
xml:space="preserve">
<g id="2196" transform="matrix(1, 0, 0, 1, 10.05, 9.6)">
<path style="fill:#FFFFFF;fill-opacity:1" d="M5.05,-9.6L5.05 -6.1L0.75 -6.1L0.75 -9.6L5.05 -9.6M5.05,-2Q3.1 -1.2 2.8 0.85L0.75 0.85L0.75 -2.6L-3.5 -2.6L-3.5 -6.1L0.75 -6.1L0.75 -2.6L5.05 -2.6L5.05 -2M8.1,-0.15Q8.75 0.5 8.75 1.45Q8.75 2.4 8.1 3.05Q7.45 3.7 6.5 3.7Q5.55 3.7 4.9 3.05Q4.25 2.4 4.25 1.45Q4.25 0.5 4.9 -0.15Q5.55 -0.8 6.5 -0.8Q7.45 -0.8 8.1 -0.15M8.9,4.35Q9.95 5.5 10.1 7.2L10.1 9.6L2.9 9.6L2.9 7.3Q3.05 5.55 4.15 4.35Q5.15 5.2 6.5 5.2Q7.9 5.2 8.9 4.35M-3.5,-2.6L-3.5 0.85L-7.8 0.85L-7.8 8.05L-10.05 8.05L-10.05 -9.6L-3.5 -9.6L-3.5 -6.1L-7.8 -6.1L-7.8 -2.6L-3.5 -2.6" />
</g>
</svg>
