<?xml version="1.0" encoding="utf-8"?>
<svg version="1.1" id="Layer_1"
xmlns="http://www.w3.org/2000/svg"
xmlns:xlink="http://www.w3.org/1999/xlink"
xmlns:author="http://www.sothink.com"
width="51px" height="51px"
xml:space="preserve">
<g id="2454" transform="matrix(1, 0, 0, 1, -2, -2)">
<path style="fill:#000000;fill-opacity:1" d="M45.4,9.55Q52.9 16.9 52.9 27.45Q52.9 38 45.4 45.4Q38 52.9 27.45 52.9Q16.9 52.9 9.55 45.4L9.5 45.4Q2 38 2 27.45Q2 16.9 9.5 9.55L9.55 9.5Q16.9 2 27.45 2Q38 2 45.4 9.5L45.4 9.55M48.9,27.45Q48.9 18.6 42.6 12.3Q36.3 6 27.45 6Q18.6 6 12.3 12.3Q6 18.6 6 27.45Q6 36.3 12.3 42.6Q18.6 48.9 27.45 48.9Q36.3 48.9 42.6 42.6Q48.9 36.3 48.9 27.45M30,15L30 24.75L39.75 24.75L39.75 30.15L30 30.15L30 39.9L24.6 39.9L24.6 30.15L14.85 30.15L14.85 24.75L24.6 24.75L24.6 15L30 15" />
<path style="fill:#FFFFFF;fill-opacity:1" d="M42.6,42.6Q36.3 48.9 27.45 48.9Q18.6 48.9 12.3 42.6Q6 36.3 6 27.45Q6 18.6 12.3 12.3Q18.6 6 27.45 6Q36.3 6 42.6 12.3Q48.9 18.6 48.9 27.45Q48.9 36.3 42.6 42.6M24.6,15L24.6 24.75L14.85 24.75L14.85 30.15L24.6 30.15L24.6 39.9L30 39.9L30 30.15L39.75 30.15L39.75 24.75L30 24.75L30 15L24.6 15" />
</g>
</svg>
