<?xml version="1.0" encoding="utf-8"?>
<svg version="1.1" id="Layer_1"
xmlns="http://www.w3.org/2000/svg"
xmlns:xlink="http://www.w3.org/1999/xlink"
xmlns:author="http://www.sothink.com"
width="52px" height="51px"
xml:space="preserve">
<g id="2455" transform="matrix(1, 0, 0, 1, -2, -2)">
<path style="fill:#000000;fill-opacity:1" d="M45.55,9.55Q53.05 16.9 53.05 27.45Q53.05 38 45.55 45.4Q38.15 52.9 27.6 52.9Q17.05 52.9 9.55 45.4L9.5 45.4Q2 38 2 27.45Q2 16.9 9.5 9.55L9.55 9.55Q17.05 2 27.6 2Q38.15 2 45.55 9.5L45.55 9.55M49.05,27.45Q49.05 18.6 42.75 12.3Q36.45 6 27.6 6Q18.75 6 12.3 12.3Q6 18.6 6 27.45Q6 36.3 12.3 42.6Q18.75 48.9 27.6 48.9Q36.45 48.9 42.75 42.6Q49.05 36.3 49.05 27.45M15,24.75L39.75 24.75L39.75 30.15L15 30.15L15 24.75" />
<path style="fill:#FFFFFF;fill-opacity:1" d="M49.05,27.45Q49.05 36.3 42.75 42.6Q36.45 48.9 27.6 48.9Q18.75 48.9 12.3 42.6Q6 36.3 6 27.45Q6 18.6 12.3 12.3Q18.75 6 27.6 6Q36.45 6 42.75 12.3Q49.05 18.6 49.05 27.45M15,30.15L39.75 30.15L39.75 24.75L15 24.75L15 30.15" />
</g>
</svg>
