<?xml version="1.0" encoding="utf-8"?>
<svg version="1.1" id="Layer_1"
xmlns="http://www.w3.org/2000/svg"
xmlns:xlink="http://www.w3.org/1999/xlink"
xmlns:author="http://www.sothink.com"
width="12px" height="12px"
xml:space="preserve">
<g id="2453" transform="matrix(1, 0, 0, 1, 0, 0)">
<path style="fill:#FBFBFB;fill-opacity:0.498039" d="M12,7.45L12 7.5Q11.8 9.25 10.5 10.5Q9.05 12 7 12L5 12L4.45 12Q2.75 11.8 1.45 10.5Q0.2 9.25 0.05 7.5L0 7.5L0 7.45L0 7.1L0 7L0 5L0.05 4.5Q0.2 2.75 1.45 1.45Q2.7 0.2 4.4 0.05L5 0L7 0Q9.05 0 10.5 1.45Q11.8 2.75 12 4.55L12 5L12 7L12 7.1L12 7.45" />
</g>
</svg>
