<?xml version="1.0" encoding="utf-8"?>
<svg version="1.1" id="Layer_1"
xmlns="http://www.w3.org/2000/svg"
xmlns:xlink="http://www.w3.org/1999/xlink"
xmlns:author="http://www.sothink.com"
width="28px" height="42px"
xml:space="preserve">
<g id="232" transform="matrix(1, 0, 0, 1, 13.6, 11.05)">
<path style="fill:#FFFFFF;fill-opacity:1" d="M5.05,-11.05L11.05 -7.7L11 -6.35L11 -6.1L12.4 2.45Q13.5 9.3 13.6 12.75Q13.75 17.5 11.85 23.6Q9.85 30.2 7.55 30.65Q5.5 31.05 5.15 24.95L5 13.75Q4.75 8 3.75 5.05Q2.55 1.35 0 1.25Q-2.55 1.35 -3.75 5.05Q-4.75 8 -5 13.75L-5.15 24.95Q-5.5 31.05 -7.55 30.65Q-9.85 30.2 -11.85 23.6Q-13.7 17.5 -13.6 12.75Q-13.55 9.3 -12.4 2.45L-11 -6.1L-10.95 -6.8L-10.95 -6.9L-4.45 -10.3L0.55 -6.7L5.05 -11.05" />
</g>
</svg>
