<?xml version="1.0" encoding="utf-8"?>
<svg version="1.1" id="Layer_1"
xmlns="http://www.w3.org/2000/svg"
xmlns:xlink="http://www.w3.org/1999/xlink"
xmlns:author="http://www.sothink.com"
width="30px" height="10px"
xml:space="preserve">
<g id="234" transform="matrix(1, 0, 0, 1, 14.8, 4.75)">
<path style="fill:#000000;fill-opacity:0.498039" d="M13.15,-0.2L14.7 1.05L14.8 2.35Q14.2 1.75 13.15 1.25Q11 0.3 8.65 0.85Q7.2 1.2 4.95 3.15Q3.1 4.75 0 4.75Q-3.1 4.75 -5 3.15Q-7.25 1.2 -8.65 0.85Q-11 0.3 -13.15 1.25Q-14.2 1.75 -14.8 2.35L-14.8 1.2L-13.15 -0.2Q-11 -1.4 -8.65 -0.7Q-7.25 -0.25 -5 2.2Q-3.1 4.25 0 4.25Q3.1 4.25 4.95 2.2Q7.25 -0.25 8.65 -0.7Q11 -1.4 13.15 -0.2M2.55,-0.1L2.45 0.75L2.4 0.05L2.7 -1.35Q3.25 -3 4.65 -4.25Q5.8 -5.3 5.65 -4.15Q5.5 -3 4.1 -2.25Q2.85 -1.55 2.55 -0.1M-3.9,-2.25Q-5.3 -3 -5.45 -4.15Q-5.6 -5.3 -4.45 -4.25Q-3.05 -3 -2.5 -1.35Q-2.2 -0.5 -2.2 0.05L-2.3 0.9L-2.35 -0.1Q-2.65 -1.55 -3.9 -2.25" />
</g>
</svg>
