<?xml version="1.0" encoding="utf-8"?>
<svg version="1.1" id="Layer_1"
xmlns="http://www.w3.org/2000/svg"
xmlns:xlink="http://www.w3.org/1999/xlink"
xmlns:author="http://www.sothink.com"
width="31px" height="24px"
xml:space="preserve">
<g id="235" transform="matrix(1, 0, 0, 1, 15.1, 41.1)">
<path style="fill:#FFFFFF;fill-opacity:1" d="M5.75,-41.1Q7.7 -41.1 10.2 -39.65Q13.05 -38 14.1 -35.6Q15.2 -33.15 15.1 -30Q15 -27.35 14.1 -25L12.05 -21.05Q11.25 -19.6 11.05 -18.2L5.05 -21.55L0.55 -17.2L-4.45 -20.8L-10.95 -17.4Q-11 -19.1 -12.05 -21.05Q-13.6 -23.6 -14.15 -25Q-15.05 -27.3 -15.1 -30Q-15.25 -33.15 -14.15 -35.6Q-13.05 -38 -10.2 -39.65Q-7.7 -41.1 -5.75 -41.1Q-3.55 -41.1 0 -39.75L2.05 -40.4L5.75 -41.1" />
</g>
</svg>
