<?xml version="1.0" encoding="utf-8"?>
<svg version="1.1" id="Layer_1"
xmlns="http://www.w3.org/2000/svg"
xmlns:xlink="http://www.w3.org/1999/xlink"
xmlns:author="http://www.sothink.com"
width="31px" height="62px"
xml:space="preserve">
<g id="233" transform="matrix(1, 0, 0, 1, 15.1, 30.6)">
<linearGradient
id="LinearGradID_18" gradientUnits="userSpaceOnUse" gradientTransform="matrix(0, -0.0194702, 0.037384, 0, 3.65, -9)" spreadMethod ="pad" x1="-819.2" y1="0" x2="819.2" y2="0" >
<stop  offset="0" style="stop-color:#FFFFFF;stop-opacity:1" />
<stop  offset="0.505882" style="stop-color:#EC4F43;stop-opacity:0.745098" />
<stop  offset="1" style="stop-color:#FFFFFF;stop-opacity:1" />
</linearGradient>
<path style="fill:url(#LinearGradID_18) " d="M14.1,-14.5L12.05 -10.55Q10.75 -8.15 11 -6.1L12.4 2.45Q13.5 9.3 13.6 12.75Q13.75 17.5 11.85 23.6Q9.85 30.2 7.55 30.65Q5.5 31.05 5.15 24.95L5 13.75Q4.75 8 3.75 5.05Q2.55 1.35 0 1.25Q-2.55 1.35 -3.75 5.05Q-4.75 8 -5 13.75L-5.15 24.95Q-5.5 31.05 -7.55 30.65Q-9.85 30.2 -11.85 23.6Q-13.7 17.5 -13.6 12.75Q-13.55 9.3 -12.4 2.45L-11 -6.1Q-10.75 -8.15 -12.05 -10.55Q-13.6 -13.1 -14.15 -14.5Q-15.05 -16.8 -15.1 -19.5Q-15.25 -22.65 -14.15 -25.1Q-13.05 -27.5 -10.2 -29.15Q-7.7 -30.6 -5.75 -30.6Q-3.55 -30.6 0 -29.25L2.05 -29.9L5.75 -30.6Q7.7 -30.6 10.2 -29.15Q13.05 -27.5 14.1 -25.1Q15.2 -22.65 15.1 -19.5Q15 -16.85 14.1 -14.5" />
</g>
</svg>
