<?xml version="1.0" encoding="utf-8"?>
<svg version="1.1" id="Layer_1"
xmlns="http://www.w3.org/2000/svg"
xmlns:xlink="http://www.w3.org/1999/xlink"
xmlns:author="http://www.sothink.com"
width="288px" height="88px"
xml:space="preserve">
<g id="81" transform="matrix(1, 0, 0, 1, 213.3, 192.7)">
<path style="fill:#353E35;fill-opacity:1" d="M73.95,-160.95L74.4 -156.75L72.95 -150.05L71.5 -146.15L68.5 -140.25L62.85 -132.75L56.3 -126.15L47.4 -118.6L44.3 -116.55L39.9 -114.5L21.1 -108.65L11.4 -106.85L-12.6 -105.6L-25.9 -105.35L-43.4 -105.9L-60.9 -108.5L-72 -110.85L-102.95 -118.65L-114.5 -120.15L-154.75 -122.15L-160.9 -121.6L-195.3 -111.3L-198.75 -110.55L-200.55 -110.35L-205.2 -110.6L-208.5 -112.4L-210.9 -115.85L-212.7 -120.75L-213.3 -123.65L-213.25 -127L-212.65 -129.55L-206.35 -134.05L-197 -139.05L-189.3 -141.85L-176.9 -145.45L-169.9 -146.25L-130.4 -148.75L-128 -150.2L-122.8 -149.35L-99.55 -151.6L-82.65 -154.75L-77.9 -156.35L-75.55 -158L-72.75 -158.9L-69.7 -159.2L-65.2 -160.75L-64.45 -161.6L-56.95 -164.15L-56 -163.7L-42.75 -167.75L-38.2 -169.6L-26.1 -172.4L0.7 -177.75L26.8 -185.65L37 -190.05L43.25 -191.75L50 -192.7L58.1 -191.5L63.15 -188.8L65.55 -185.3L73.95 -160.95" />
<path style="fill:#5E7C33;fill-opacity:1" d="M71.55,-150.6L70.15 -146.8L67.3 -141.15L61.8 -133.8L55.3 -127.3L46.6 -119.85L43.6 -117.9L39.45 -115.9L20.85 -110.1L11.35 -108.35L-12.65 -107.1L-25.9 -106.85L-43.15 -107.35L-60.7 -110L-71.7 -112.3L-91.65 -117.6L-102.65 -120.1L-114.35 -121.65L-154.8 -123.65L-161.15 -123.1L-198.9 -112L-200.6 -111.85L-204.8 -112.1L-207.45 -113.55L-209.6 -116.55L-211.25 -121.1L-211.8 -123.65L-211.8 -126.2L-208.85 -128.8L-199 -135.5L-183.5 -141.3L-171.35 -143.65L-123.35 -146.5L-85.85 -151.15L-43.5 -165.3L9.8 -177.8L40 -188.3L49.8 -190.3L59.65 -188.8L62.65 -185.3L72.8 -156.25L71.55 -150.6" />
<path style="fill:#8BA948;fill-opacity:1" d="M32.85,-160.85L33.65 -159.1L33.65 -155.65L32.85 -154.1L31.3 -152.2L26.75 -148.4L20.65 -139.75L17.65 -138.1L15.1 -137.65L4 -138.4L0.65 -137.85L-2.7 -136.85L-14.9 -131.4L-25.8 -128L-33.25 -126.75L-43.9 -125.85L-57 -125.3L-68.45 -125.3L-73.35 -124.65L-78 -124.85L-86.25 -127.1L-94.6 -126.65L-94.45 -125.65L-85.15 -121.55L-81 -117.65L-74.9 -114.1L-65.9 -112.2L-55 -110.75L-37.35 -107.65L-20.7 -108.55L-10.8 -110L-7.45 -109.85L-3.8 -109.2L-0.35 -107.75L-25.9 -106.85L-43.15 -107.35L-60.7 -110L-71.7 -112.3L-91.65 -117.6L-102.65 -120.1L-114.35 -121.65L-148.2 -123.45L-148.7 -123.65L-163 -124.5L-165.35 -126L-166.7 -127.65L-167.35 -130.3L-167.2 -133.5L-166 -135.15L-163.85 -137.15L-161.35 -138L-140.2 -138.8L-121.2 -138.8L-100.5 -141.8L-82.35 -145.15L-53.5 -155L-24.2 -152.65L-10.35 -153L-7.2 -154L-5.85 -155.3L-5.2 -157.15L-6.5 -162.3L-4.85 -165.8L-1.5 -167.8L2.3 -169.3L15 -171.8L17.1 -171.85L18.6 -171.6L20.15 -171L26.15 -166.65L32.85 -160.85" />
<path style="fill:#8BA948;fill-opacity:1" d="M-204.2,-129.25L-197.5 -130.75L-196.1 -130.6L-195.5 -129.3L-193.25 -119.5L-193.1 -117.55L-193.6 -116.65L-200.25 -114.8L-201.7 -114.9L-202.7 -115.5L-205 -126.3L-205.1 -128.15L-204.2 -129.25" />
<path style="fill:#959595;fill-opacity:1" d="M71.25,-149.75L70.15 -146.8L69.85 -146.25L68.6 -150.35L68.55 -150.65L67.9 -145.85L66.15 -139.6L61.8 -133.8L55.3 -127.3L48.5 -121.5L48.55 -121.65L60.05 -133.8L63.9 -140.2L65.6 -146.3L66.55 -157.85L61.3 -177.05L58.6 -182.35L55.35 -184.9L49.9 -186.25L45.05 -185.6L14.2 -174.1L14.15 -174.05L-13.8 -167.3L-13.85 -167.25L-29.45 -164.7L-59.3 -155.85L-79.2 -148.5L-92.15 -144.95L-92.25 -144.95L-125.3 -140.45L-165.75 -139.8L-175 -138.05L-180.9 -135.15L-185.5 -131.8L-188.3 -127.75L-189.4 -124.7L-190 -119.45L-189.6 -114.5L-191.85 -113.85L-192.35 -119.5L-191.65 -125.25L-190.4 -128.85L-187.2 -133.45L-182.15 -137.15L-175.75 -140.25L-166 -142.15L-125.5 -142.8L-92.65 -147.25L-79.95 -150.7L-60.05 -158.1L-60 -158.1L-29.95 -167L-14.25 -169.55L13.5 -176.3L44.5 -187.9L50.05 -188.6L56.4 -187.05L60.45 -183.85L63.5 -177.9L68.85 -158.25L68.9 -158.25L68.9 -158.1L71.25 -149.75" />
<path style="fill:#90865C;fill-opacity:1" d="M-14.25,-161.2L-15 -157.85L-17.35 -155.2L-20 -153.85L-29.45 -150.55L-32.35 -149.1L-34.15 -146.55L-36.25 -144.65L-38.6 -143.75L-41.7 -144L-44.9 -145.3L-45.7 -147.55L-45.8 -149.85L-46.8 -151L-51.7 -151.85L-53.35 -153.4L-54.15 -155.4L-53.45 -156.65L-47.7 -159.1L-34.15 -163L-28.9 -163.2L-24.6 -164.1L-18.45 -164.3L-15.7 -163.1L-14.25 -161.2" />
<path style="fill:#90865C;fill-opacity:1" d="M-78.7,-122.75L-75.15 -122.2L-73.15 -122.3L-71.25 -121.85L-69.15 -120.85L-68 -119.65L-68.15 -118.2L-68.9 -117.1L-70.45 -117.2L-75.45 -118.55L-79.6 -121L-81.8 -123L-81.6 -123.4L-80.45 -123.3L-78.7 -122.75" />
<path style="fill:#90865C;fill-opacity:1" d="M-63.9,-114.85L-64.7 -116.4L-64.25 -118.2L-62.8 -119.4L-60.9 -120L-57.35 -119.85L-54.35 -119.3L-50.9 -118L-49.7 -116.55L-49 -114.85L-49.25 -113.2L-50.7 -112.3L-60.45 -113.55L-63.9 -114.85" />
<path style="fill:#90865C;fill-opacity:1" d="M-6.6,-123.4L-3.9 -123.1L-0.45 -121.1L1.85 -120.65L3.55 -121.1L5.2 -122.2L9.85 -128L13.4 -129.2L17.3 -129.2L23.55 -130.55L33.85 -134L37.2 -134.55L39.4 -134.3L40.3 -133.75L41 -132.3L40.3 -129.4L38.65 -127.3L32.85 -123.4L29.4 -121.75L16.4 -117.3L14.3 -116.75L13 -115.65L10.55 -110.75L9 -109.65L6.3 -109.3L4.3 -109.4L-3.8 -112.55L-31.15 -110.4L-40.15 -110.85L-41.7 -111.65L-43.15 -113L-42.9 -114.55L-42 -116.1L-40.9 -117.2L-37.7 -117.75L-29.8 -117.85L-27.8 -118.4L-25.35 -119.4L-20.45 -119.75L-18.15 -120.2L-10.7 -123.1L-6.6 -123.4" />
<path style="fill:#FEE79A;fill-opacity:1" d="M43.25,-167.4L45 -167.5L46 -166L45.75 -159.45L47.6 -158.75L51.5 -159.9L55.2 -158.55L56.35 -155.45L56.15 -155L55.6 -154.2L54.15 -152.75L53 -152.2L52.2 -152.25L49.75 -153.25L48.75 -153.2L47.85 -152.7L47.2 -151.9L46.5 -150.7L46.15 -150.4L45.5 -150.15L44.05 -150.45L42.15 -151.85L41 -152.35L40.3 -153.35L39.5 -158.05L39.55 -159.4L41.55 -166L43.25 -167.4" />
<path style="fill:#FEE79A;fill-opacity:1" d="M-57.6,-150.05L-52.25 -148.05L-49.95 -144L-50.3 -142.65L-51.7 -142.2L-52.1 -142.15L-52.75 -142.3L-54 -142.75L-55.15 -142.8L-56.5 -142.5L-58.1 -141.75L-58.9 -141.15L-60.75 -137.05L-61.8 -136.05L-62.8 -135.55L-64.65 -135.2L-65.5 -135.25L-66.85 -135.7L-68 -136.3L-70.65 -138.4L-71.65 -138.75L-73.05 -138.4L-74.65 -136.7L-75.3 -136.25L-76.1 -136.25L-77.45 -137.25L-78.15 -137.95L-78.75 -138.9L-79 -140.25L-78.7 -141.4L-78.4 -142L-76.85 -143.2L-64.95 -148.3L-57.6 -150.05" />
<path style="fill:#ECAF5F;fill-opacity:1" d="M-59.2,-150.7L-55 -150.8L-53.8 -150.35L-52.35 -149.5L-51.55 -148.9L-49.7 -146.75L-49.15 -145.1L-49.25 -144L-49.85 -143L-50.3 -142.65L-50.95 -145.25L-52.45 -147.25L-55.2 -149L-57.35 -149.15L-62.2 -148L-63.85 -148.15L-76.85 -143.2L-67.2 -148.2L-65 -149L-64.1 -149.15L-62.1 -149.1L-61.45 -149.25L-59.2 -150.7" />
<path style="fill:#ECAF5F;fill-opacity:1" d="M41.55,-166L42.45 -167.05L43.25 -167.7L44.2 -168.05L45 -168.1L45.7 -167.6L46.65 -166.35L46.85 -165.85L46.85 -165.2L46.6 -163.55L45.9 -161.2L46 -160.25L46.5 -159.55L46.95 -159.3L47.35 -159.3L49.7 -160.25L50.8 -160.5L53.95 -160.25L55 -159.95L55.45 -159.7L56 -159.15L56.3 -158.5L56.6 -157L56.6 -156.5L56.35 -155.45L56.15 -155L55.8 -156.5L54.3 -158.4L51.75 -159.15L47.3 -158.3L46.05 -158.5L45.5 -159.05L45.3 -160L45.3 -161.65L45.65 -164.8L45.4 -166.5L44.65 -167.05L43.4 -167.15L41.55 -166" />
<path style="fill:#BDC753;fill-opacity:1" d="M39.75,-181.3L41.5 -182.3L42 -182.45L48.9 -182.15L49.75 -181.95L52.6 -180.7L53.9 -179.85L57.55 -175.15L59.15 -172.1L59.55 -170.65L59.8 -168.9L59.6 -166.9L59.35 -165.95L58.4 -164.25L56.5 -162.2L55.15 -161.15L54.05 -161L50.1 -161.1L49.05 -160.95L48.1 -161L47.5 -161.5L47.25 -162.05L47.5 -164.4L47.5 -165.05L47.1 -166.5L46.45 -167.75L46 -168.25L45 -169.1L41.45 -170.25L39.55 -171.8L38.5 -173.35L38.3 -174L38.3 -174.5L39.65 -177.6L39.85 -178.7L39.25 -180.6L39.45 -181L39.75 -181.3" />
<path style="fill:#454F3C;fill-opacity:1" d="M37.3,-131.5L38.4 -128.75L36.25 -126.55L32.15 -128.5L32 -126.65L29.9 -125.3L28.05 -125.75L27.15 -127.15L28.5 -128.8L27.15 -129.65L29.25 -131.55L31.75 -130.5L32.3 -129.5L35.55 -132L37.3 -131.5" />
<path style="fill:#454F3C;fill-opacity:1" d="M72.45,-160.7L72.9 -156.8L72.5 -154.5L62.4 -183.7L60.75 -186.1L57.4 -187.9L53.65 -189L49.95 -189.2L43.85 -188.35L38.1 -186.7L28 -182.35L27.95 -182.35L1.55 -174.35L1.5 -174.35L-26.45 -168.7L-37.7 -164.85L-43 -164L-59.4 -159L-62.8 -157.4L-63.9 -157.5L-67.1 -156.4L-67.05 -156.25L-70.95 -154.15L-73.6 -153.15L-77.1 -152.95L-81.75 -151.35L-81.85 -151.35L-99.05 -148.15L-124 -145.7L-125.45 -145.1L-128.2 -145.35L-169.6 -142.75L-176.35 -142L-188.15 -138.55L-195.6 -135.6L-204.4 -130.55L-211.8 -125.25L-211.8 -126.65L-211.3 -128.7L-205.65 -132.7L-196.45 -137.65L-188.9 -140.4L-176.7 -143.95L-169.75 -144.75L-129.9 -147.25L-127.7 -148.65L-122.85 -147.85L-99.35 -150.1L-82.3 -153.3L-77.25 -155L-74.85 -156.65L-72.6 -157.4L-69.35 -157.7L-64.3 -159.45L-63.6 -160.3L-57 -162.55L-56.1 -162.1L-42.25 -166.3L-37.85 -168.15L-25.75 -170.95L-25.7 -170.95L1.05 -176.3L27.3 -184.25L37.4 -188.6L43.45 -190.3L50 -191.2L57.65 -190.05L62.1 -187.65L64.2 -184.6L72.45 -160.7" />
<path style="fill:#454F3C;fill-opacity:1" d="M-56,-113.55L-56.25 -114.85L-55 -116.3L-54.5 -118L-52.7 -117L-52.35 -115.65L-51.7 -114.15L-55.45 -112.25L-56 -113.55" />
<path style="fill:#454F3C;fill-opacity:1" d="M-61.65,-114.1L-62.5 -116L-60.75 -117.55L-58.9 -117.75L-57.25 -115.45L-59 -114L-61.65 -114.1" />
<path style="fill:#454F3C;fill-opacity:1" d="M-73.2,-117.8L-74.35 -119.55L-73.9 -121.55L-73 -121.85L-72.2 -121.15L-70.85 -120.65L-69.85 -118.8L-71 -117.8L-73.2 -117.8" />
<path style="fill:#454F3C;fill-opacity:1" d="M-14.95,-161.15L-14.1 -160.6L-13.95 -158.25L-14.4 -156.55L-16.3 -155.65L-18.95 -156.6L-20.85 -158.5L-21.7 -159.8L-21 -162.4L-19.65 -163.05L-18.15 -161.75L-15.45 -161.85L-14.95 -161.15" />
<path style="fill:#454F3C;fill-opacity:1" d="M-41.4,-161.1L-40.5 -159L-40.7 -157.05L-41.6 -155.2L-43.7 -153.8Q-45.2 -154.5 -46.7 -155.25L-45.7 -153.65L-47.2 -152L-50.35 -151.65L-51.85 -152.9L-52.8 -154.6L-52.3 -156.85L-49.15 -158.2L-47.4 -157.55L-46.95 -159.65L-43.95 -161.7L-41.4 -161.1" />
<path style="fill:#454F3C;fill-opacity:1" d="M-34,-149.5L-33.85 -146.65L-35.15 -145.55L-38.35 -145.7L-39.95 -144.25L-41.5 -145.25L-43.5 -145.75L-44.2 -146.8L-43.5 -147.55L-42.75 -148.9L-41.1 -150L-38.7 -150L-37.35 -151.6L-34.95 -150.65L-34 -149.5" />
<path style="fill:#454F3C;fill-opacity:1" d="M-38,-117L-36.7 -117.3L-35.1 -116.05L-34.35 -114.55L-34.95 -113L-36.2 -111.3L-38.5 -111.15L-41.7 -111.65L-41.85 -113.8L-41.2 -116.8L-39.2 -117.8L-38 -117" />
<path style="fill:#454F3C;fill-opacity:1" d="M-29.25,-112L-31.6 -113.05L-31.45 -115.8L-28.1 -117.15L-26.7 -116.25L-26.75 -113L-29.25 -112" />
<path style="fill:#454F3C;fill-opacity:1" d="M-15.25,-118.15L-13.5 -119.05L-11.6 -118.4L-9.95 -116.5L-7.95 -118.3L-5.6 -118.4L-4.35 -117.75L-4.9 -116L-6.25 -114.3L-9.6 -114L-9.1 -111.55L-11 -110.1L-14.35 -111.8L-14.95 -114.25L-16.45 -112.5L-18.1 -113.65L-17.35 -115.55L-16.2 -116.5L-15.25 -118.15" />
<path style="fill:#454F3C;fill-opacity:1" d="M14.85,-122.6L10.85 -124.85L12.6 -126.85L15.35 -127.35L16.35 -124.85L14.85 -122.6" />
<path style="fill:#454F3C;fill-opacity:1" d="M-35.5,-163.15L-34.8 -161.75L-34.9 -158.35L-36.3 -156.85L-38.15 -157.5L-38.85 -160L-38.65 -161.35L-35.5 -163.15" />
<path style="fill:#454F3C;fill-opacity:1" d="M20.3,-120.3L19.4 -121.2L20 -122.4L21.85 -122.3L22 -121L20.3 -120.3" />
<path style="fill:#454F3C;fill-opacity:1" d="M5.4,-111.3L3.85 -113.75L4.4 -117.1L7.1 -117.65L9.55 -117.2L11.2 -115L10 -113.75L9.2 -111.4L5.4 -111.3" />
<path style="fill:#454F3C;fill-opacity:1" d="M-200.35,-131.65L-198.35 -132.65L-196.7 -132L-195.5 -129.8L-197.5 -128.65L-199 -129.15L-200 -127.5L-203 -127L-204.35 -128.65L-203 -131.15L-200.35 -131.65" />
<path style="fill:#454F3C;fill-opacity:1" d="M-210,-119.65L-210.65 -119.5L-211.25 -121.1L-211.55 -122.55L-211.2 -122.8L-209.35 -122.65L-209 -121.15L-210 -119.65" />
<path style="fill:#454F3C;fill-opacity:1" d="M-77.25,-119.55L-78.8 -120.4L-78.7 -121.75L-77.35 -122.4L-75.8 -122.1L-76.35 -120.2L-77.25 -119.55" />
</g>
</svg>
