<?xml version="1.0" encoding="utf-8"?>
<svg version="1.1" id="Layer_1"
xmlns="http://www.w3.org/2000/svg"
xmlns:xlink="http://www.w3.org/1999/xlink"
xmlns:author="http://www.sothink.com"
width="157px" height="66px"
xml:space="preserve">
<g id="86" transform="matrix(1, 0, 0, 1, -38.8, -138.35)">
<path style="fill:#353E35;fill-opacity:1" d="M98.95,138.9L107.85 141.15L115.35 143.75L119.8 144.7L135.7 144.05L153.75 142.2L182.2 141.35L185.8 142.3L191.1 145.95L192.8 147.7L194.1 149.8L195.15 152.6L195.1 155.15L193.05 165.65L187.85 174.25L184.75 178.35L181.75 180.8L180.25 181.45L168.35 185.1L161.65 185.85L153.15 185.85L147.85 186.3L141.6 187.45L139.2 188.55L130.8 194.4L119.75 198.9L119.05 202.3L114.6 203.7L111.25 202.55L110.7 201.05L100 201.65L92.65 200.7L87.55 199.2L68.05 188.75L58.05 184.1L46.5 178.1L43.05 175.4L40.8 172L39.15 166.8L38.8 162.7L39.6 154.75L41.1 151.05L45.2 145.3L48.4 142.6L51.7 140.65L55.4 139.05L60.6 138.35L93 138.5L98.95 138.9" />
<path style="fill:#5E7C33;fill-opacity:1" d="M98.65,140.35L107.3 142.5L115 145.2L119.65 146.2L135.8 145.5L153.8 143.7L182.05 142.85L185.2 143.7L190.05 147L191.55 148.5L192.7 150.35L193.65 152.85L193.6 154.95L191.65 165L186.65 173.35L183.8 177.2L182 178.65L171.5 182L165.15 183.5L145.3 184.2L138.65 185.85L130.2 192L116.3 197.6L100.75 199.45L83.8 195.35L43.6 173.55L42.15 171.35L40.65 166.7L40.3 162.7L41 155.3L42.35 151.9L46.15 146.4L49 144L52.3 142L55.8 140.5L60.65 139.85L93 140L98.65 140.35" />
<path style="fill:#8BA948;fill-opacity:1" d="M49,144L49.2 143.9L50.3 145.2L53 146.25L59.4 150.35L60.4 151.7L61.3 154.2L60.8 156.2L57.15 161.85L55.3 162.7L53.3 162.85L45 156L44.5 153.35L42.7 151.35L46.15 146.4L49 144" />
<path style="fill:#8BA948;fill-opacity:1" d="M94.8,154.7L98.65 154.7L105.55 155.95L110.1 155.6L115.75 153.45L117.65 153.15L124.55 154.45L136.1 154.25L149.8 156L163.65 159.35L165.3 160L166.3 161.25L166.85 163.45L166.3 165.8L164.4 167.45L163 168.35L157.85 169.7L136.8 171.2L134.8 171.5L131.15 170.5L116 175L106.5 174.35L93.3 174.45L91 176L74.5 180L69.15 175.85L72.5 168.85L69.8 158L75.3 155.5L86.15 155.85L88.65 156.7L94.8 154.7" />
<path style="fill:#8BA948;fill-opacity:1" d="M175.15,152L175.5 151.2L176.05 150.7L187.25 148.2L188.55 148.35L189.75 149.35L191.25 152.45L191.4 153.5L191.05 154.95L190.25 156.1L183.8 160.85Q182.45 161.7 181.05 162.5L179.55 162.35L179 161.45L178.5 157.7L175.15 152" />
<path style="fill:#959595;fill-opacity:1" d="M134,180L140.95 176.6L150.85 174.65L160.25 174.45L168.75 173.45L171.8 171.85L172.3 170.9L172.2 170.65L172.45 170.6L173.5 168.7L173.6 164.75L172 158.9L163.1 147L161.3 143.45L163.9 143.4L165.05 145.75L174.15 157.85L175 161.1L179.25 165.8L182.75 167.85L186.05 167.55L191.15 165.75L189.25 168.9L186.55 169.85L180.7 170.35L174.05 172.5L173.5 173.55L169.45 175.7L160.35 176.8L151.1 176.95L141.7 178.8L135.1 182.05L120.55 190.85L114.4 193.7L101.05 195.3L90 193.25L67.1 185.2L56.85 179.3L47.4 169.1L40.5 164.7L40.3 162.7L40.35 161.85L48.9 167.3L58.3 177.45L68.05 183.05L90.65 191L101.1 192.95L113.75 191.45L119.4 188.75L133.95 180L134 180M175.7,169.5L179.15 168.4L177.8 167.6L175.9 165.55L175.8 169.35L175.7 169.5" />
<path style="fill:#90865C;fill-opacity:1" d="M185.2,143.7L190.05 147L191.55 148.5L192.7 150.35L192.8 150.6L191.75 149.35L189.85 148.15L188.85 146.8L187.1 146L185.1 146L178.2 147.7L174 149.6L171.55 150.15L168.4 148.8L167.2 146.8L166.75 145.15L167.5 143.3L182.05 142.85L185.2 143.7" />
<path style="fill:#90865C;fill-opacity:1" d="M94.75,184.5L95 183.5L95.75 182.6L99.55 181.35L100.75 180.1L101.55 178.6L102.75 177.45L104.55 177.5L106.05 178.25L106.8 179.45L108.55 183.5L110.4 184.45L112.15 184.7L116.55 183.45L118.8 182.2L120.65 180.1L121.4 177.45L122.55 175.75L124 174.7L128.65 172.75L131 172.7L135.75 173.6L137.65 172.95L139.9 175.6L134.75 177.75L131.8 179.6L126.05 184.25L122.75 185.95L115.5 188.5L108.05 190.5L103.65 190.45L99.4 189.1L96.5 187.1L95.05 185.7L94.75 184.5" />
<path style="fill:#90865C;fill-opacity:1" d="M73,178.1L76.55 182.25L78 183L80.55 183.45L84.65 183L86.5 183.1L87.75 183.6L90 185.45L90.5 186.75L90.15 187.95L89.05 188.75L87.8 189.1L84.65 188.1L81.55 186.45L68.75 182.45L67.9 180.85L68.05 179.6L68.8 178.5L73 178.1" />
<path style="fill:#90865C;fill-opacity:1" d="M47,158.85L52.15 164L53.15 166.5L52 168L50.15 167L45 162.5L40.7 157.7L41 155.3L41.65 153.65L43.5 156.2L44.8 157.35L47 158.85" />
<path style="fill:#FEE79A;fill-opacity:1" d="M79.85,171.85L86.75 171.4L88.4 175.5L88.2 178.25L87.45 179.45L86.25 180.4L84.9 181.15L83.85 181.4L82.8 181.5L79.25 181.15L78.25 180.85L77.2 180.3L76.1 179.4L75.65 178.65L75.4 177.95L75.25 176.95L75.65 175.4L76.6 173.9L77.45 173L79.85 171.85" />
<path style="fill:#FEE79A;fill-opacity:1" d="M75.65,153.15L78 152.5L81.4 153.4L84.15 155.6L87.1 160.45L87.55 163.5L86.5 164.5L85.25 164.8L83 164.6L82.25 164.4L80.75 163.75L79.7 163L77.75 160.95L76.3 158.8L75.65 158.15L74.9 156.7L74.75 155.55L75.15 153.95L75.65 153.15" />
<path style="fill:#FEE79A;fill-opacity:1" d="M127.75,149.2L128.1 152.05L127.65 152.65L126.95 153.15L125.6 153.8L124.4 153.8L118.15 152.65L117.6 152.3L117.15 151.65L116.8 150.5L116.8 149.2L116.95 148.05L117.5 147.45L118.05 147.15L120.55 146.85L125.3 147.7L127.75 149.2" />
<path style="fill:#ECAF5F;fill-opacity:1" d="M128.3,149.4L128.5 150.75L128.1 152.05L126.75 149.25L124.65 147.8L120 147.15L117.5 147.45L118.05 147.15L119.65 146.75L124.85 146.9L126.7 147.55L127.65 148.45L128.3 149.4" />
<path style="fill:#ECAF5F;fill-opacity:1" d="M87.25,159.8L87.7 162L87.55 163.5L86.75 160.25L83.55 157.25L82 154.7L80.55 153.7L78.25 153.1L75.65 153.15L76.65 152.4L78.1 152.25L79.65 152.3L81 152.6L82.25 153.2L83.55 154.1L85 155.4L86.6 158L87.25 159.8" />
<path style="fill:#ECAF5F;fill-opacity:1" d="M82.25,170.75L84.35 170.3L85.95 170.55L87.3 171.1L88 171.95L88.35 172.8L88.65 174.15L88.65 176.8L88.2 178.25L88.15 175.7L87.4 173.75L85.05 172.35L81.5 172.1L77.45 173L78.45 172.15L82.25 170.75" />
<path style="fill:#BDC753;fill-opacity:1" d="M76.85,161.15L78.65 164.5L78.65 167.45L77.9 170.65L76.7 172.75L74.95 174.7L71.6 176.75L68.75 177.6L66.6 177.5L63.55 176.2L59.8 172.95L58.65 171.2L57.65 167.8L57.55 163.35L58.25 161.3L59.8 159.15L60.9 158.1L62.5 157.2L68.45 155.55L69.95 155.65L72.1 156.35L74.1 157.75L76.85 161.15" />
<path style="fill:#454F3C;fill-opacity:1" d="M140.55,184.05L147.45 182.8L167.5 182.25L183.35 177.55L181 179.5L179.8 180L168.05 183.6L165.9 184L153.1 184.35L147.65 184.8L141.15 186L138.4 187.25L130.2 193L118.4 197.8L117.75 201.15L114.65 202.15L112.4 201.35L111.75 199.45L106.55 199.9L100.1 200.15L93.1 199.25L88.25 197.85L82 194.7L74.5 190.25L47.4 176.95L44.15 174.35L42.15 171.35L40.8 167.15L41.15 166.75L42.4 166.25L45 167.2L46.3 168.95L45.55 170.25L45.65 172.25L44.05 172.85L59.8 181.15L74.75 188.45L83.55 193.35L85.35 191.95L88.65 192.5L90.3 193.75L89.95 195.55L89.05 196.35L93.25 197.45L111.1 197.7L112.65 196.1L113.65 196.1L115.1 196.65L117.05 195.85L118.2 196.15L129.85 191.15L138.1 185.15L140.55 184.05" />
<path style="fill:#454F3C;fill-opacity:1" d="M114.9,185.1L116.4 185.85L116.9 188.2L115.15 190.45L113.75 190.15L111.15 192L108.05 190.6L109 187.45L110.9 186.85L113.5 185L114.9 185.1" />
<path style="fill:#454F3C;fill-opacity:1" d="M96.5,182.5L98.4 182.95L100.25 184.2L102.9 184.1L103.55 186.95L101.9 189L98.65 187.1L95.9 186.45L95.8 183.95L96.5 182.5" />
<path style="fill:#454F3C;fill-opacity:1" d="M122.05,178.45L122.85 176.3L125.65 176.2L126.35 174.35L127.75 174.25L128.9 172.9L130.4 173.6L130.35 174.65L130.75 175.8L130.5 178.1L129.15 179.1L127.3 178.8L127.35 181.25L126.25 181.9L122.85 180.9L122.05 178.45" />
<path style="fill:#454F3C;fill-opacity:1" d="M138.7,176.15L137.15 174.3L137.4 172.85L139 171.45L141.6 171.2L142.3 172.75L142.25 175.1L140.65 176.3L138.7 176.15" />
<path style="fill:#454F3C;fill-opacity:1" d="M169.2,171.7L168.1 170.25L168.65 167.25L170.65 167.4L172.4 168.8L172.4 170.45L171.1 171.8L169.2 171.7" />
<path style="fill:#454F3C;fill-opacity:1" d="M170.85,145.7L170.35 143.2L176.6 143L176.65 143.45L174.3 144.35L173.1 145.7L170.85 145.7" />
<path style="fill:#454F3C;fill-opacity:1" d="M188.85,169.25L189.1 169.2L188.65 169.95L188.85 169.25" />
<path style="fill:#454F3C;fill-opacity:1" d="M153.2,181.7L152.75 180L153.4 177.9L155.55 177.25L156.95 177.35L156.85 178.35L157.85 179L158.4 177.6L159.75 177.25L161.3 178.8L161.75 180.45L160.65 182.15L159.3 182L157.65 180.6L156.3 182L154.65 182.15L153.2 181.7" />
<path style="fill:#454F3C;fill-opacity:1" d="M141.3,180.45L143.65 179.45L145.05 181.45L144.25 182.85L142.4 183.25L141 181.35L141.3 180.45" />
<path style="fill:#454F3C;fill-opacity:1" d="M124.05,183.6L124.4 184.2L123.7 184.8L122.7 184.35L122.6 183.2L123.05 182.95L124.05 183.6" />
<path style="fill:#454F3C;fill-opacity:1" d="M101.4,181.35L102.15 180.5L102.25 178.95L104.4 178.6L106.25 179.85L106.05 181.85L103.3 183.6L101.4 181.35" />
<path style="fill:#454F3C;fill-opacity:1" d="M82,183.85L85.4 183.2L86.65 184.5L87 185.6L86.9 186.45L87.4 187.6L85.9 188.5L81.65 187.45L80.9 185.25L82 183.85" />
<path style="fill:#454F3C;fill-opacity:1" d="M70.65,179.9L71.65 177L74.3 176.35L75.85 177.6L75.65 179L77.2 179.25L78.4 180.45L78.3 182.8L75.65 184.45L73.85 183L74.3 181.35L72.3 181.7L70.65 179.9" />
<path style="fill:#454F3C;fill-opacity:1" d="M48.4,159.2L51.75 162.85L51.15 163.85L51.55 164.85L50.25 166.6L49 166.6L46.4 165.45L43.75 162.35L43.55 160.95L45 160.95L45.25 159L47 158.2L48.4 159.2" />
</g>
</svg>
