<?xml version="1.0" encoding="utf-8"?>
<svg version="1.1" id="Layer_1"
xmlns="http://www.w3.org/2000/svg"
xmlns:xlink="http://www.w3.org/1999/xlink"
xmlns:author="http://www.sothink.com"
width="269px" height="170px"
xml:space="preserve">
<g id="88" transform="matrix(1, 0, 0, 1, 118.45, 7.3)">
<path style="fill:#353E35;fill-opacity:1" d="M137.6,108.55L142.6 112.85L146.55 117.35L148.75 121.95L149.95 126.55L150.3 129.8L150.15 133.45L149.4 138.1L148.25 141.8L140.3 153.85L135.9 157.1L131.75 159.2L126.55 160.9L120.6 161.95L116 161.9L103.1 159.35L96.85 157.1L3.6 118.15L-5.35 113.05L-103.45 35.05L-114.25 23.85L-117.55 19.1L-118.4 14.15L-118.45 10.85L-117.25 5.2L-113.9 0L-110.9 -2.45L-107.75 -3.75L-103.4 -4.95L-85.35 -7.3L-75.3 -6.05L-60.35 -1.4L-52.6 2.5L9.15 36.9L15.3 40.95L27.05 50.95L38.95 63.2L45.45 67.75L53.95 72.65L126.7 102.4L137.6 108.55" />
<path style="fill:#5E7C33;fill-opacity:1" d="M136.65,109.7L141.5 113.85L145.3 118.2L147.3 122.35L148.5 126.7L148.8 129.85L148.7 133.2L148 137.7L147 141L139.25 152.75L135.25 155.75L131.3 157.75L126.3 159.45L120.45 160.45L116.3 160.45L103.65 157.95L97.4 155.7L4.35 116.85L-4.4 111.85L-92.7 41.35L-102.35 34L-113 23L-116.1 18.5L-116.9 14.1L-116.95 11L-115.85 5.75L-112.8 1L-110.15 -1.15L-107.35 -2.3L-103.2 -3.5L-85.35 -5.8L-75.7 -4.6L-61 -0.05L-53.25 3.85L8.35 38.1L14.35 42.1L26 51.95L38 64.35L44.65 69L53.3 74L126 103.7L136.65 109.7" />
<path style="fill:#8BA948;fill-opacity:1" d="M24.75,51.65L24.35 50.9L24.3 50.5L26 51.95L32.55 58.75L24.75 51.65" />
<path style="fill:#8BA948;fill-opacity:1" d="M47.5,134L47.8 135.1L9.6 119.2L10.55 116.35L11.45 115.3L12.75 114.95L14.85 115.6L31.85 124.8L39.8 127.2L45 130.5L47.5 134" />
<path style="fill:#8BA948;fill-opacity:1" d="M104.65,132.5L102.15 130.2L101.35 127.85L101.85 124.1L99.4 123.25L97.25 123.1L93.95 122.05L89.55 122.2L87.65 121.5L81.15 115.7L74.5 113.85L71.15 114.2L67 116.2L65 117.5L54.15 118L49 116.5L44.1 111.9L39.8 109.35L35.8 107.7L29.8 106L25.5 104L0.65 83.25L-5.5 79.7L-19.35 78.2L-22.2 77L-24.85 74.7L-34.2 62.85L-41.85 54.85L-47 51.35L-51.85 49.35L-66.5 46.2L-69.85 44.35L-71.85 42L-73.5 39.35L-76 37.2L-78.5 36.7L-82.2 34.7L-84.5 32.7L-86.5 31.7L-93.2 30.35L-95.5 29.35L-98.5 26.85L-101.85 26.35L-103.7 25.5L-109.7 20.35L-112.2 15.7L-112.7 12.2L-111.85 9.5L-108.7 5L-106.35 3.7L-102.85 2.35L-98.7 3L-95 4.2L-91 7.2L-78.85 11.2L-66.35 16.5L-52 23.35L-33.35 37.7L-23.7 47.85L-21.2 52.7L-18 55.85L-4.7 60.85L7.65 64.35L27.8 75.7L34.65 82.5L54 94.5L73.65 102.7L84.65 105.5L86.8 107.85L94.4 113.35L98 114.35L101.8 114.7L116.15 111.85L121 111.5L124.15 112.7L127.8 115L128.5 116.85L128.8 119.2L128.65 122.35L134.3 126.2L126.65 138.35L117 141.35L114.5 137.2L112.3 135L104.65 132.5" />
<path style="fill:#8BA948;fill-opacity:1" d="M95,154.7L98.65 154.7L105.55 155.95L110.1 155.6L115.75 153.45L117.65 153.15L124.55 154.45L136.1 154.25L137.1 154.4L135.25 155.75L131.3 157.75L126.3 159.45L120.45 160.45L116.3 160.45L103.65 157.95L95 154.7" />
<path style="fill:#959595;fill-opacity:1" d="M136.65,109.7L141.5 113.85L145.3 118.2L145.9 119.4L145.7 119.15L136.2 109.45L136.65 109.7" />
<path style="fill:#90865C;fill-opacity:1" d="M-8.35,34.6L-7.35 38.45L-8.15 40.6L-10.45 42.6L-14.25 41.9L-16.6 42.6L-18.15 44.8L-20.8 46.15L-23.8 46.15L-25.5 44.85L-28.7 40.7L-32.7 36.7L-33.35 35.85L-33.5 34.85L-32.85 29.85L-37 28.7L-38.2 28.2L-44.35 20.25L-47.8 17.45L-52.35 16.25L-57.15 14.25L-58.7 12.15L-58.9 9.7L-57.35 8.15L-52.15 7.45L-49.25 6.8L-47.9 6.8L-42.05 10.05L-41.8 10.45L-38.7 12.25L-37.25 12.75L-30.9 16.25L-29.45 18.45L-26.9 19.8L-24 20.35L-22.4 21L-9.65 28.1L-8.8 29.35L-8.35 34.6" />
<path style="fill:#90865C;fill-opacity:1" d="M86,105.7L73.15 101L59.3 92L50.3 88.7L46.65 86.5L45.65 84.85L45.65 83L46.5 80.85L48.5 79.2L51.3 78.7L54.5 79.2L58.15 81.2L59.5 83.2L61.15 88.7L63.65 90.5L64.5 92.2L69.8 94L71.15 97L73.15 98.85L75.65 100.35L78.3 100.7L81 102.2L87.3 104.2L89.3 104.2L93.3 105.35L96.5 105L100.3 103.35L102.8 104.5L104.3 106.35L104.5 109L103.3 111.2L100.8 112.35L94.5 110.7L86 105.7" />
<path style="fill:#90865C;fill-opacity:1" d="M31.25,108.45L32.65 109.7L32.05 111.75L31.15 113L29.5 114.1L27.5 114.75L25.15 113.85L20.65 111L18.9 110.7L15.65 110.6L11.4 113.35L9.85 115L8.65 115.6L7.55 115.35L6.75 114.4L5.65 110.75L3.8 110.35L2.65 108L2.65 107.25L3.4 105.95L4.25 105L5.75 104.85L8.15 105.2L9.15 104.85L9.8 103.7L9.65 99.85L10.65 97.75L12 96.95L14.3 96.85L17.5 98L18.9 99.95L23.25 104.95L25.75 106.25L28.8 107.2L31.25 108.45" />
<path style="fill:#90865C;fill-opacity:1" d="M-16.4,79.95L-16.45 80.45L-21.85 81.25L-32.2 85.6L-33.35 85.6L-34.7 83.35L-34.85 81L-34.5 79.2L-33.95 77.65L-33.2 76.35L-32.4 75.4L-30.9 75.25L-28.45 75.6L-23.25 77.25L-21.5 78.35L-19.35 79.1L-17 79.35L-16.4 79.95" />
<path style="fill:#90865C;fill-opacity:1" d="M-41.35,59.35L-40.7 61L-40.85 63.5L-41.5 65.35L-43 66.85L-45.35 68.5L-47.5 67.2L-47.85 65L-47.2 63.2L-47.35 61.7L-48.7 59.85L-49.35 58.7L-49.2 56.7L-47.35 55.5L-45.5 55.85L-43 57L-41.35 59.35" />
<path style="fill:#424E95;fill-opacity:1" d="M-15.35,83.4L-11.5 84.95L-7.2 85.95L-6.25 84.7L-4.6 84.6L-2.75 85.5L-1.75 89.5L-1.45 92.45L-0.5 92.5L-0.2 93.85L-2.85 96.2L-3.5 97.85L-2.6 99L-3.1 103.25L2.15 115.65L-4.4 111.85L-36.8 86.15L-34.4 87.4L-32.8 87.5L-31.1 87.1L-28.45 87.15L-25.2 85.5L-23.35 86.5L-20.8 85.5L-17.4 85.2L-16.85 83.7L-15.35 83.4" />
<path style="fill:#424E95;fill-opacity:1" d="M-93.15,33.1L-92.7 32.75L-90.8 32.95L-89.85 33.5L-85.85 34.1L-82.75 38.35L-80.75 38.85L-79.35 39.85L-77.85 42L-78.95 45.2L-79.1 49.1L-77.45 51.25L-76.35 53.9L-74.15 54.85L-73 57.15L-96.8 38.25L-95.9 37.45L-93.15 33.1" />
<path style="fill:#424E95;fill-opacity:1" d="M-67.8,61.15L-67.15 61.35L-62.25 59.95L-59.5 58.5L-53.95 60.25L-52.25 60.2L-50.45 60.8L-49.3 60.65L-48.45 61.15L-47.85 62.7L-47.6 63.6L-48 64.35L-48.85 64.9L-50.85 64.7L-51.35 65L-52.5 67.25L-52.65 68.4L-52.2 69.45L-50.25 70.8L-50.15 72.15L-51.3 74.55L-69.55 59.9Q-68.65 60.55 -67.8 61.15" />
<path style="fill:#073B7F;fill-opacity:1" d="M-58.2,61.65L-53.8 61.4L-50.4 61.6L-48.85 62.45L-48.85 63.6L-49.3 63.9L-51.8 64.4L-52.95 65.2L-53.6 66.7L-53.7 68.1L-52.75 70.1L-51.2 71.9L-52.1 73.9L-52.3 73.75L-51.9 71.95L-53.3 70.6L-54.6 68.75L-55 66.9L-53.85 64.1L-53.25 63.4L-50.75 62.85L-56.65 62.95L-58.4 63.4L-64 64.15L-64.2 64.2L-65.55 63.15L-58.2 61.65" />
<path style="fill:#073B7F;fill-opacity:1" d="M-84.35,38.95L-86.6 36.1L-83.85 38.5L-83.15 40L-83 40.9L-80.45 42.75L-80.35 43.85L-80.7 45.35L-80.85 47L-80.7 48.45L-79.25 51.2L-81.95 48.1L-81.75 43.5L-83.7 41.95L-84.35 38.95" />
<path style="fill:#073B7F;fill-opacity:1" d="M-15.85,85.5L-13.35 85.7L-9.2 87.7L-4 89.2L-3.85 91.85L-4.5 94.5L-7.7 97L-7.35 93.7L-8.2 91.35L-11.5 90.85L-13.5 89.35L-27.65 91.1L-31.7 90.25L-33.05 89.2L-28.15 88.85L-16.35 86.7L-15.85 85.5" />
<path style="fill:#073B7F;fill-opacity:1" d="M-90.85,35.3L-87.85 35.45L-90.75 36.05L-92.75 37.35L-93.75 38.35L-92.9 36.45L-90.85 35.3" />
<path style="fill:#073B7F;fill-opacity:1" d="M-2.4,109.1L0.1 114.45L-2.05 113.25L-2.4 109.1" />
<path style="fill:#FEE79A;fill-opacity:1" d="M143.5,133.2L143.35 131.1L143.05 129.9L143.1 129.65L143.55 129.4L146.9 131.6L147.05 138.05L146.8 138.7L146.45 139.05L145.2 139.5L143.75 139.35L143.05 139.05L142.5 138.5L142.5 137.3L143.3 134.4L143.5 133.2" />
<path style="fill:#FEE79A;fill-opacity:1" d="M68.75,122.65L70.75 122.3L77.6 124.7L80 131L79.1 130.2L78.25 129.8L77.65 129.85L77.35 130.45L77.6 130.9L78.15 131.3L80.45 132.4L80.75 132.75L80.95 133.25L80.7 134.65L80.25 135.2L79.05 135.8L77.85 135.7L77.15 135.25L76.8 135.15L76.65 135.25L76.5 135.75L77.05 137.3L77.05 137.75L76.9 138.25L76.5 138.6L75.9 138.7L75.4 138.6L74.85 138.35L74.1 137.75L72.85 138.5L72.1 139.1L71.25 139.3L70.75 139.1L70.35 138.65L69.8 138.65L69.3 138.5L68.9 138.1L68.5 137.4L66.9 132.25L66.85 131.5L67 130.8L67.9 129.9L68.2 129.2L68.1 128.4L67.3 126.15L67.25 125.45L67.35 124.8L67.95 123.6L68.75 122.65" />
<path style="fill:#FEE79A;fill-opacity:1" d="M13,44.75L15.55 50L15.05 52.5L14.2 52.5L9.05 50.75L7.7 49.35L7.5 49.25L6.7 49.35L4.85 50.1L4.05 50.3L3 50.4L2.5 50.3L1.8 50L0.3 48.35L-0.15 48.05L-0.45 48.05L-1.9 48.6L-2.4 48.7L-2.95 48.7L-3.25 48.5L-3.5 48.25L-4.35 47L-5.3 44.75L-5.5 44L-5 42.95L-4.65 42.55L-4.3 42.35L-3.65 42.2L-2.5 42.5L-0.75 43.85L-0.05 44.15L0.5 44.25L0.8 43.9L0.65 43L0.2 41.6L0.1 40.9L0.55 40.1L2.65 39.55L5.1 42.25L6.85 42.85L9.5 42.6L13 44.75" />
<path style="fill:#FEE79A;fill-opacity:1" d="M121.3,122.2L124.05 123.6L122.4 127.7L121.25 129L119.4 130.15L118.4 130.4L117.3 130.35L116.25 130.15L115.3 130.2L113.85 131.25L112.65 131.75L111.15 131.75L109.5 131.5L106.3 130.4L105.25 129.75L104.25 128.5L103.85 127.4L104 126L103.65 124.1L103.75 123.45L104.25 122.75L105 122.25L107 123.75L108.65 124.5L109.7 124.65L110.1 124.2L110.3 123.35L109.55 121L109.75 120.7L110.4 120.5L111.1 120.55L115.1 123.85L121.3 122.2" />
<path style="fill:#FEE79A;fill-opacity:1" d="M127.75,149.2L128.1 152.05L127.65 152.65L126.95 153.15L125.6 153.8L124.4 153.8L118.15 152.65L117.6 152.3L117.15 151.65L116.8 150.5L116.8 149.2L116.95 148.05L117.5 147.45L118.05 147.15L120.55 146.85L125.3 147.7L127.75 149.2" />
<path style="fill:#FEE79A;fill-opacity:1" d="M-4.35,49.4L-5.95 51.4L-8.75 52.55L-9.4 53L-10.8 55L-11.95 55.4L-12.95 55.45L-14.2 55.3L-15.95 54.75L-17.55 53.8L-19.25 52.25L-19.95 50.55L-20.05 49.3L-19.8 48.15L-19.05 46.6L-17.65 44.95L-14.6 44.35L-9.4 45.9L-6.9 45.65L-4.9 47.95L-4.35 49.4" />
<path style="fill:#ECAF5F;fill-opacity:1" d="M12.8,43.5L16.3 49.15L16.65 49.95L16.7 50.45L16.65 50.9L16.45 51.4L16.15 51.8L15.05 52.5L15.4 51.45L15.25 49.95L12.75 45.45L11.3 44L9.3 43L7.25 43.3L6.35 43.25L5.6 42.95L2.65 40L0.55 40.1L1.8 39.45L2.9 39.4L3.55 39.65L4.15 40.2L5.5 42.05L6.55 42.5L7.05 42.6L8.25 41.95L8.75 41.8L9.55 41.75L10.75 42L11.2 42.15L11.8 42.55L12.8 43.5" />
<path style="fill:#ECAF5F;fill-opacity:1" d="M-0.05,44.15L0.5 44.25L-1 44.35L-4.3 42.35L-3.65 42.2L-2.5 42.5L-0.75 43.85L-0.05 44.15" />
<path style="fill:#ECAF5F;fill-opacity:1" d="M-5.25,46.1L-4.15 48.4L-4.15 49.4L-4.55 50.05L-5.95 51.4L-5 49.8L-5.15 48.7L-5.7 47.45L-6.85 46.7L-9.45 46.4L-15.15 44.7L-17.65 44.95L-16.1 44.35L-15.15 44.2L-13.65 44.15L-12.4 44.35L-9.95 45.35L-9.55 45.35L-7.9 44.8L-6.45 44.85L-5.95 45.2L-5.25 46.1" />
<path style="fill:#ECAF5F;fill-opacity:1" d="M143.55,129.4L144.35 129.4L145.2 129.55L145.9 129.95L146.65 130.6L147.3 131.65L147.55 132.25L147.65 133.55L147.05 138.05L146.4 132.75L144.8 130.25L143.55 129.4" />
<path style="fill:#ECAF5F;fill-opacity:1" d="M128.3,149.4L128.5 150.75L128.1 152.05L126.75 149.25L124.65 147.8L120 147.15L117.5 147.45L118.05 147.15L119.65 146.75L124.85 146.9L126.7 147.55L127.65 148.45L128.3 149.4" />
<path style="fill:#ECAF5F;fill-opacity:1" d="M77.6,130.9L78.15 131.3L80.45 132.4L80.75 132.75L80.95 133.25L80.7 134.65L80.25 135.2L80.05 133.6L78.55 132.25L77.6 130.9" />
<path style="fill:#ECAF5F;fill-opacity:1" d="M76.5,135.75L77.05 137.3L77.05 137.75L76.9 138.25L75.95 136.7L76.65 135.25L76.5 135.75" />
<path style="fill:#ECAF5F;fill-opacity:1" d="M116.35,123.4L120.4 121.65L121.2 121.45L122 121.4L123.15 121.75L124.2 122.6L124.7 123.4L124.8 124.2L124.75 125.35L124.6 126.2L123.85 127.05L123.05 127.5L121.25 129L122.05 127.45L122.65 125.6L122.4 124L121.55 123L119.8 122.85L115 124.35L113.65 123.7L112.8 122.85L112.1 121.5L110.4 120.5L111.1 120.55L112.35 121.15L113.05 121.65L113.75 122.35L114.45 123.25L115.1 123.6L116.35 123.4" />
<path style="fill:#ECAF5F;fill-opacity:1" d="M70.55,122.7L68.75 122.65L69.45 122.2L70.05 122.05L71.05 121.95L76 123.25L77.9 124.25L79 125.25L81.2 128.8L81.5 130L80.95 130.85L80 131L77.55 126.8L73.65 123.7L70.55 122.7" />
<path style="fill:#ECAF5F;fill-opacity:1" d="M105,122.25L105.75 122.2L106.15 122.4L107.75 123.95L108.65 124.5L106.75 124.15L105 122.25" />
<path style="fill:#BDC753;fill-opacity:1" d="M119.75,132.15L123.15 129L127.05 126.3L130.2 124.95L132.2 124.5L134.45 124.55L136.4 125L137.8 125.65L139.35 126.75L140.7 128.25L141.25 129.6L141.55 130.8L141.5 133.6L141.05 135.65L140.25 137.4L139.25 138.3L137.7 139L136.45 139.2L132.55 138.7L131.3 139L129.25 140.05L128.45 140.7L125.3 145.05L124.25 145.75L122.9 146.1L121.8 146.1L120.55 145.9L118.65 144.7L117.2 142.75L116.35 140.85L116.15 138.85L116.5 137.05L117.95 134.4L119.75 132.15" />
<path style="fill:#454F3C;fill-opacity:1" d="M-45.8,9.15L-45.2 11.25L-42.95 11.35L-40.85 12.75L-38.75 12.6L-35.55 13.7L-32.3 15.5L-31.35 18.6L-29.95 19.25L-29.45 21.8L-30.35 24L-28.6 24.25L-27.9 25.15L-27.7 26.25L-28.6 30.15L-32.7 31.15L-36.7 34.7L-38.25 33L-37.6 28.7L-37 26.7L-38 23.25L-38.95 22.75L-39.25 21.6L-40.2 21.2L-42.6 24.25L-43.6 23.35L-44.35 20.9L-43.7 19.6L-40.35 16.45L-41.35 15.7L-45.35 14.85L-45.85 13L-46.7 15.2L-48.5 16L-50.35 15L-51.35 15.7L-54.5 14.35L-54.6 10L-53.7 8.45L-50.25 7.8L-45.8 9.15" />
<path style="fill:#454F3C;fill-opacity:1" d="M-13.2,34.85L-11.95 36.5L-12.65 40.65L-13.95 41.2L-17.3 41.3L-18.65 40.3L-20.1 39.75L-21.5 37.75L-22.3 35.1L-21.5 33.5L-20.1 34.4L-17.5 32.95L-16.2 33.5L-15.95 34.5L-13.2 34.85" />
<path style="fill:#454F3C;fill-opacity:1" d="M-29.6,85.85L-32.5 86.2L-33.85 84.75L-33.75 82.25L-30 77.95L-28.15 78.15L-27 79.25L-24.45 78.25L-22.6 78L-21.8 78.9L-21.85 79.85L-23.25 81L-24.2 83.7L-26.35 84L-28.1 83L-29.6 85.85" />
<path style="fill:#454F3C;fill-opacity:1" d="M11.9,107.85L14.35 110.25L13.75 111.35L11.85 112.65L9.85 111.9L9.35 109.5L10 107.75L11.9 107.85" />
<path style="fill:#454F3C;fill-opacity:1" d="M10.1,116.25L10.3 117.25L8.3 118.35L6.3 117.6L5.8 115.15L6.45 113.4L8.35 113.5L10.2 115.15L10.1 116.25" />
<path style="fill:#454F3C;fill-opacity:1" d="M29.75,110.1L29.8 111.95L28.55 113.75L26.25 113.35L25.05 112.1L25.55 109.7L26.75 108.95L28 108.7L29.75 110.1" />
<path style="fill:#454F3C;fill-opacity:1" d="M55.15,81.35L57.9 82.1L59.4 85.85L55.9 89.1L54 90.45L51.75 89.85L50.3 89.85L49.65 87.95L49.15 85.45L49.75 83.95L51.35 81.7L55.15 81.35" />
<path style="fill:#454F3C;fill-opacity:1" d="M1.05,83.6L1.75 85.1L1.5 87.1L-0.75 88.1L-2.95 87.25L-3.35 84.5L-0.85 82.75Q0.1 83.2 1.05 83.6" />
<path style="fill:#454F3C;fill-opacity:1" d="M5.85,108.45L6.85 108.9L6.55 109.9L5.55 111L3.3 110.7L3.2 109.35L2.75 107.35L4.55 106L6.3 106.8L5.85 108.45" />
<path style="fill:#454F3C;fill-opacity:1" d="M16.75,98.35L17 99.45L16.2 102.45L15 102.8L14.65 105L12.75 104.6L12.2 102.8L11.55 102.25L12.2 101.15L12.55 99.45L14 98.15L16.75 98.35" />
<path style="fill:#454F3C;fill-opacity:1" d="M-42.7,58.35L-41.6 60.35L-42.2 62.25L-43.75 61.85L-43.1 65.6L-44.75 68.1L-47.25 67.95L-47.45 64.75L-47.2 62.5L-47.7 60.5L-49.2 58.35L-47.6 55.95L-45.2 56.2L-44.5 58.1L-42.7 58.35" />
<path style="fill:#454F3C;fill-opacity:1" d="M-22.2,41.5L-21.45 42.45L-22.95 44.2L-24.6 44.5L-25.95 44.2L-26.75 42.75L-25.35 41.35L-26.35 40.45L-26.1 38.95L-24.95 38.2L-22.6 38.35L-22 39.7L-23.2 41.2L-22.2 41.5" />
<path style="fill:#454F3C;fill-opacity:1" d="M-12.85,28.5L-11.05 27.35L-10.75 27.5L-9.85 30L-9.85 32.5L-12.7 31.5L-12.85 28.5" />
<path style="fill:#454F3C;fill-opacity:1" d="M-15.7,26.2L-18.7 25.85L-21.85 23.7L-23.45 21.35L-22.6 21.25L-21 22L-20.65 22L-14.25 25.55L-15.7 26.2" />
<path style="fill:#454F3C;fill-opacity:1" d="M97.5,105.6L98.95 104.05L101.55 104L102.6 105.75L101.5 107.25L101.65 108.5L102.15 110.1L100.65 111.15L98.2 111.05L96.9 109.5L97.65 107.7L98.45 107.35L97.5 105.6" />
</g>
</svg>
