<?xml version="1.0" encoding="utf-8"?>
<svg version="1.1" id="Layer_1"
xmlns="http://www.w3.org/2000/svg"
xmlns:xlink="http://www.w3.org/1999/xlink"
xmlns:author="http://www.sothink.com"
width="165px" height="135px"
xml:space="preserve">
<g id="84" transform="matrix(1, 0, 0, 1, 64.55, 68.45)">
<path style="fill:#353E35;fill-opacity:1" d="M99.5,35.2L98.35 41.5L96.3 47.55L91.95 53.3L86.95 58L80 62.1L73.3 64.95L64.3 65.85L58.05 66L50.55 63.9L45.8 60.2L42.25 56.25L39.3 46.5L36.75 40.05L32.75 33.2L24.95 22.1L14.05 11.25L0.65 0.3L-8.15 -5.8L-27.8 -14.75L-60.25 -30.9L-62.15 -32.15L-63.4 -33.5L-64.1 -34.75L-64.55 -38.35L-64.1 -41.35L-59.3 -61.75L-58.55 -64.05L-57.75 -65.2L-56.5 -66.55L-54.3 -68.15L-50.65 -68.45L22.05 -51.65L31.7 -46.9L39.05 -41L80.8 1.65L92.95 16.75L96.4 22.75L98.65 29.75L99.5 35.2" />
<path style="fill:#5E7C33;fill-opacity:1" d="M97.15,29.95L98 35.2L97 40.85L95 46.85L90.9 52.2L86.15 56.7L79.4 60.7L72.9 63.45L64.25 64.35L58.25 64.5L51.25 62.5L46.9 59.2L43.6 55.5L40.7 46L38.1 39.35L34.05 32.4L26.1 21.1L15.1 10.15L1.6 -0.85L-7.4 -7.1L-27.15 -16.1L-59.4 -32.1L-61.1 -33.25L-62.1 -34.25L-62.65 -35.25L-63 -38.3L-62.65 -41L-57.85 -61.3L-57.2 -63.35L-56.65 -64.2L-55.6 -65.35L-53.75 -66.7L-50.75 -66.95L21.4 -50.3L30.75 -45.75L38 -40L79.65 2.6L91.65 17.5L95 23.2L97.15 29.95" />
<path style="fill:#8BA948;fill-opacity:1" d="M-58.35,-40.15L-57.25 -41.9L-47.7 -46.65L-34.35 -51.15L-27.85 -51.8L-14.35 -52.3L-7.7 -51.5L1.8 -48.3L10 -46.5L26 -40.15L33 -36L38.9 -31.5L40.55 -29.2L42.4 -25.4L43.4 -19.55L51.85 -9.4L54.3 -5.55L57.3 1.8L59.65 15.45L61.85 20.6L63.1 21.8L67.1 21.8L55.75 36.15L54.3 32.6L49.75 26.8L45.55 14L41.65 6.5L37.3 -0.3L31.8 -6L26.5 -9.65L21.65 -11.5L19.15 -12.8L11.15 -18.8L3.65 -23.65L-1.5 -25.5L-10.7 -27.5L-15.5 -29.8L-23.5 -31.5L-41.2 -31.8L-45.7 -32.3L-51.2 -34.65L-54.9 -35.25L-57 -36.15L-58.6 -37.9L-58.35 -40.15" />
<path style="fill:#8BA948;fill-opacity:1" d="M-52.75,-65.25L-40.45 -59.75L-43.2 -53.8L-44.45 -53.05L-47.25 -52.9L-56 -57.05L-56.5 -58.05L-56.5 -59.15L-53.95 -64.3L-52.75 -65.25" />
<path style="fill:#959595;fill-opacity:1" d="M-50.85,-63.3L-55.05 -65.75L-53.75 -66.7L-52.35 -66.8L-52.25 -66.85L-49.7 -65.35L-29.3 -56.45L-21.95 -55.8L-15.2 -57.9L-14.3 -58.55L-11.25 -57.85L-14.15 -55.8L-21.65 -53.45L-29.85 -54.15L-50.8 -63.25L-50.85 -63.3" />
<path style="fill:#90865C;fill-opacity:1" d="M-32.2,-24.5L-33.35 -27L-33 -28.3L-31.85 -29.3L-27.7 -29.5L-18.2 -27.8L-10.7 -24.5L-1.2 -22.65L4.1 -20.85L8.35 -18.35L11.8 -15.3L13 -13.8L13 -11.65L12.3 -9.5L12.5 -7.65L14.65 -5.15L15.5 -3.15L15.5 -0.8L13 3.2L10.5 4.85L9.1 5L0.35 -1.75L0.5 -3.65L1.15 -6L0.8 -7.65L-1.2 -9L-8.5 -12.5L-10.35 -17.15L-14.7 -19.5L-26.35 -21.5L-32.2 -24.5" />
<path style="fill:#424E95;fill-opacity:1" d="M83.05,8.35L84 8.05L91.65 17.5L95 23.2L97.15 29.95L98 35.2L97 40.85L95 46.85L90.9 52.2L86.15 56.7L79.4 60.7L72.9 63.45L67.9 63.95L67.65 62.7L67.65 61.15L69.05 60.9L70.4 57.95L72.1 56.35L81.4 54.9L82.35 54.2L83 52.65L84.85 51.25L86.7 49.1L88.85 47.3L89.05 45.25L91.55 43.75L93.9 41.15L94.6 39.25L95.8 37.35L95.85 36.35L93.9 34.3L92.6 32.2L92 30.05L88.2 25.3L86.35 20.45L82.4 20.9L79.5 18.45L76.7 19.05L75.5 18.35L75.05 17.15L75.9 15.25L78.25 13.4L79.95 9.9L81 8.7L83.05 8.35" />
<path style="fill:#073B7F;fill-opacity:1" d="M87.8,53L86.75 56.15L86.15 56.7L85.65 57L87.8 53" />
<path style="fill:#073B7F;fill-opacity:1" d="M83.1,10.8L85.7 10.15L86.75 11.4L83.7 11.85L80.7 13.15L83.1 10.8" />
<path style="fill:#959595;fill-opacity:1" d="M93.2,37.9L97.35 38.75L97 40.85L96.9 41.05L92.75 40.15L93.2 37.9" />
<path style="fill:#FEE79A;fill-opacity:1" d="M40.25,-19.35L41.75 -18.8L45 -17.25L48.65 -18.4L52.15 -15.4L52.7 -11.55L52.15 -9.1L50.75 -6.4L48.55 -3.4L47.3 -2.3L46.1 -2L45.05 -2.25L44.3 -3L43.85 -4.2L44 -5.4L44.8 -7L45.3 -8.4L45.55 -9.55L45.15 -10.75L44.25 -11.25L42.3 -11.05L40.65 -11.25L38.6 -11.8L37.25 -12.65L36.5 -14L36.55 -15.5L37.15 -17.3L38.75 -18.6L40.25 -19.35" />
<path style="fill:#FEE79A;fill-opacity:1" d="M15.65,-45.25L18.75 -44.8L26.8 -39.5L26.95 -36.7L26 -36L25.45 -35.85L24.9 -35.85L23 -36.45L20.15 -36.95L19.1 -37.3L17.05 -38.45L14.9 -40.5L14.45 -41.15L13.95 -42.1L13.75 -42.8L13.8 -43.5L14 -44.15L14.25 -44.5L15.65 -45.25" />
<path style="fill:#ECAF5F;fill-opacity:1" d="M18.35,-45.5L20.05 -44.75L26.75 -40.6L27.25 -40L27.8 -38.5L27.45 -37.35L26.95 -36.7L26 -36L26.4 -37.8L25.8 -39.5L21.8 -42.5L18.15 -44.65L16.15 -45.05L14.25 -44.5L15.05 -45.2L16.1 -45.5L18.35 -45.5" />
<path style="fill:#ECAF5F;fill-opacity:1" d="M40.85,-19L38.75 -18.6L40.25 -19.35L41.1 -19.4L42.1 -19.3L44.2 -17.95L45.25 -17.75L46.55 -18.25L47.95 -19.6L48.6 -19.7L49.55 -19.4L52.05 -17L52.7 -15.85L52.9 -13.55L52.7 -11.55L52.15 -9.1L52.3 -12.75L51.1 -15.55L47.65 -17.4L46.5 -16.85L44.85 -16.75L43.2 -17.3L40.85 -19" />
<path style="fill:#BDC753;fill-opacity:1" d="M88.85,34.25L90.8 37.45L90.8 38.6L90.55 40L89.6 41.85L85.3 45.7L81.5 48.2L79.35 49.1L73.8 50.5L70.85 51.75L68.2 54.2L66.25 56.9L64.85 57.4L62.15 56.9L59.75 55.85L55.65 52.7L54.35 50.5L52.95 46.85L52.1 43.1L52.1 40.9L52.4 39.55L60.1 24.2L61.7 23.05L65.2 21.8L68.3 21.45L69.65 21.75L73.7 24.5L80 26.1L82 27L88.85 34.25" />
<path style="fill:#454F3C;fill-opacity:1" d="M83,22.7L83.55 21.45L85.9 21.7L87.3 25.6L90.4 26.25L91.2 28.45L89.4 30.25L86.75 28.7L85.75 29.35L84.05 28.05L83 22.7" />
<path style="fill:#454F3C;fill-opacity:1" d="M-7.7,-18.9L-5.95 -21.15L-3.1 -22L-2.7 -22.9L1 -21.75L1.15 -20.25L-0.1 -19.3L0.8 -16.9L-1.5 -15.15L1.3 -14.8L3.9 -15.4L4.75 -16.4L7.75 -15.75L7.65 -14.55L10.05 -14.75L10.8 -13.15L8.25 -11.75L8.8 -10.4L7.75 -7.25L5.9 -6.55L6.65 -5.75L8.3 -6.05L10.65 -3.5L9.25 -1.4L9.55 -0.05L9.3 1.35L7.55 1L7.55 2.7L6.8 3.15L2.75 0.05L3.25 -0.4L5.9 -0.75L4.4 -2.3L3.9 -4L1.65 -6L1.55 -7.5L0.5 -8.65L-2.6 -8.65L-3.45 -7.25L-5.7 -6.25L-9.1 -8.5L-9.1 -10.55L-7.7 -13.4L-6 -14.75L-7.75 -15.9L-7.7 -18.9" />
<path style="fill:#454F3C;fill-opacity:1" d="M-25,-27.15L-24.1 -27.75L-22.95 -28.15L-21.95 -27.3L-20.85 -28.05L-18.85 -27.55L-17.95 -26.4L-16 -26.25L-14.35 -24.8L-15.25 -21.65L-16.7 -20.15L-19 -19.55L-22.35 -21.15L-23.6 -23.4L-24.85 -23.5L-24.2 -24.75L-25 -27.15" />
</g>
</svg>
