<?xml version="1.0" encoding="utf-8"?>
<svg version="1.1" id="Layer_1"
xmlns="http://www.w3.org/2000/svg"
xmlns:xlink="http://www.w3.org/1999/xlink"
xmlns:author="http://www.sothink.com"
width="118px" height="69px"
xml:space="preserve">
<g id="83" transform="matrix(1, 0, 0, 1, 156.3, 92.3)">
<path style="fill:#353E35;fill-opacity:1" d="M-43.75,-69.5L-41.05 -66.7L-39.6 -63.05L-39.1 -60.1L-39.65 -51.2L-41.4 -45.6L-45.2 -38L-51.2 -30.05L-55.2 -27.1Q-57.45 -25.95 -59.75 -24.85L-63.7 -23.95L-68.25 -23.85L-73.85 -24.75L-80.35 -27.15L-151.65 -69.1L-153.3 -70.55L-155.25 -73L-156.2 -75.85L-156.3 -79.5L-155.9 -82.75L-155.35 -84.75L-154.3 -86.95L-152.6 -88.5L-150.6 -89.7L-148.6 -90.45L-144.5 -91.1L-126.45 -92.3L-79.05 -85.6L-71.85 -83.75L-51.4 -74.6L-43.75 -69.5" />
<path style="fill:#5E7C33;fill-opacity:1" d="M-44.85,-68.45L-42.35 -65.85L-41.1 -62.8L-40.6 -60.1L-41.1 -51.65L-42.75 -46.25L-46.4 -38.85L-52.25 -31.1L-55.9 -28.45L-60.1 -26.3L-63.75 -25.45L-68.15 -25.35L-73.4 -26.2L-76.75 -27.2L-79.6 -28.45L-150.65 -70.2L-152.15 -71.55L-153.95 -73.7L-154.7 -76.05L-154.8 -79.4L-154.45 -82.35L-154 -84.1L-153.1 -86.05L-151.85 -87.2L-150.1 -88.3L-148.35 -88.95L-146.25 -89.35L-126.5 -90.8L-79.4 -84.1L-72.4 -82.35L-52.15 -73.3L-44.85 -68.45" />
<path style="fill:#8BA948;fill-opacity:1" d="M-58.35,-40.15L-57.25 -41.9L-47.7 -46.65L-42 -48.65L-42.75 -46.25L-46.4 -38.85L-49.9 -34.1L-51.2 -34.65L-54.9 -35.25L-57 -36.15L-58.6 -37.9L-58.35 -40.15" />
<path style="fill:#8BA948;fill-opacity:1" d="M-84.2,-36.65L-76.85 -35L-57.35 -27.7L-60.1 -26.3L-63.75 -25.45L-68.15 -25.35L-73.4 -26.2L-76.75 -27.2L-79.6 -28.45L-88.6 -33.75L-87.65 -35.35L-86.2 -36.15L-84.2 -36.65" />
<path style="fill:#8BA948;fill-opacity:1" d="M-80.95,-61.65L-79.35 -61.3L-77.75 -61.4L-76.45 -61.8L-73.45 -64.4L-73.5 -49.5L-82.1 -46.25L-83.35 -45.55L-86.7 -45.65L-92.2 -48.05L-111.9 -59.3L-119.25 -62.75L-122.15 -63.55L-129.8 -64.75L-135.45 -67.4L-138.8 -68.3L-142.35 -68.55L-145.8 -69.65L-150.45 -75.4L-150.8 -77.65L-150.45 -79.4L-148.25 -82L-145.25 -83.1L-129.85 -84.55L-128.95 -84.55L-128.15 -84.4L-127.45 -84.15L-115.85 -79L-93.25 -70.5L-90.75 -69.25L-89.4 -68.3L-88.8 -67.7L-86.3 -64.5L-80.95 -61.65" />
<path style="fill:#8BA948;fill-opacity:1" d="M-52.75,-65.25L-40.6 -59.8L-40.6 -59.4L-43.2 -53.8L-44.45 -53.05L-47.25 -52.9L-56 -57.05L-56.5 -58.05L-56.5 -59.15L-53.95 -64.3L-52.75 -65.25" />
<path style="fill:#959595;fill-opacity:1" d="M-89.75,-43L-108.3 -54.9L-116 -57.6L-122.85 -58.8L-132.65 -59.6L-136.75 -62.05L-134.85 -62.15L-122.5 -61.1L-115.4 -59.9L-107.3 -57.05L-88.5 -44.95L-89.75 -43" />
<path style="fill:#959595;fill-opacity:1" d="M-50.85,-63.3L-60.85 -69.2L-59.65 -71.2L-49.7 -65.35L-40.8 -61.35L-40.6 -60.1L-40.6 -58.7L-50.8 -63.25L-50.85 -63.3" />
<path style="fill:#90865C;fill-opacity:1" d="M-90.6,-75L-90.15 -74.3L-90.25 -72.85L-91.15 -71.85L-92.25 -69.85L-112.9 -78.3L-118 -82.85L-120.45 -86.85L-121.25 -88.85L-121.35 -90.05L-106.75 -88L-107 -87L-107.25 -84.2L-105.35 -81.75L-99.7 -79.85L-91.8 -75.85L-90.6 -75" />
<path style="fill:#FEE79A;fill-opacity:1" d="M-144.05,-89.5L-144.3 -89.65L-139.3 -90L-140.1 -89.5L-141.4 -89.1L-142.75 -89.15L-144.05 -89.5" />
<path style="fill:#FEE79A;fill-opacity:1" d="M-78.1,-76.65L-73.9 -74.5L-72.1 -71.15L-72.45 -69.4L-72.9 -69L-74.65 -67.9L-76 -66.65L-76.4 -66L-77.25 -63.5L-78.3 -62.5L-78.75 -62.45L-79.95 -62.55L-84.95 -64.65L-86.3 -65.65L-87.05 -66.35L-87.7 -67.3L-88.15 -68.6L-88.2 -69.85L-88 -70.8L-87.1 -71.7L-82.7 -71.25L-81.95 -71.5L-81.6 -71.9L-81 -72.95L-80.25 -75.9L-78.1 -76.65" />
<path style="fill:#ECAF5F;fill-opacity:1" d="M-78.95,-77L-77.45 -77.05L-76.4 -76.85L-75.55 -76.5L-74.45 -75.85L-73.2 -74.4L-72.35 -72.75L-71.9 -71.15L-71.95 -70.4L-72.45 -69.4L-72.3 -70.85L-72.6 -71.9L-73.7 -73.5L-76.35 -75.5L-78.95 -76.1L-80.25 -75.9L-79.4 -76.75L-78.95 -77" />
<path style="fill:#ECAF5F;fill-opacity:1" d="M-78.3,-62.5L-76.4 -66L-76.9 -63.95L-77.25 -63.1L-77.6 -62.75L-78.3 -62.5" />
<path style="fill:#ECAF5F;fill-opacity:1" d="M-81.95,-71.5L-82.8 -71L-84.7 -71.3L-87.35 -71.25L-88 -70.8L-87.65 -71.4L-87 -72.05L-86.25 -72.25L-85.45 -72.25L-83.05 -71.45L-82.35 -71.35L-81.95 -71.5" />
<path style="fill:#BDC753;fill-opacity:1" d="M-68.5,-71L-66.7 -70.8L-65.2 -70.25L-64.9 -70.05L-63.9 -67.05L-62.6 -65.75L-60.8 -61.3L-60.15 -58.6L-60.15 -57.95L-60.9 -53.3L-62.5 -49.2L-63.55 -47.65L-64.55 -46.65L-65.65 -45.8L-66.85 -45.15L-69.35 -44.5L-72.3 -44.65L-73.85 -45.25L-74.8 -46.1L-76.5 -48.25L-78 -49.75L-78.25 -50.15L-78.4 -50.6L-78.4 -50.85L-78.05 -51.5L-77.3 -52.15L-75.9 -53L-75.35 -53.6L-74.7 -54.6L-74.15 -55.85L-74 -57.75L-75.65 -61.4L-75.8 -63.35L-75.6 -64.4L-75.1 -65.75L-74.5 -66.3L-72.45 -67.4L-71.1 -67.7L-69.75 -68.5L-69.35 -68.9L-69.25 -70.5L-69 -70.85L-68.5 -71" />
<path style="fill:#454F3C;fill-opacity:1" d="M-97.2,-75.9L-95.25 -77.2L-94 -77.55L-93.2 -77.05L-92.15 -74.25L-92.85 -71.6L-94.15 -70.1L-96.1 -70.7L-97.35 -70.5L-97.95 -73.15L-99.5 -71.55L-102.75 -71.65L-103.2 -73.55L-107 -74.5L-111.25 -74.9L-112.35 -78.05L-111.2 -82L-114.45 -81.9L-115.95 -83.05L-116.35 -87.15L-118.1 -87.3L-119.2 -88.8L-117.6 -89.15L-117.7 -89.55L-110.15 -88.5L-108.35 -87.75L-106.2 -85.9L-104.6 -83.8L-105.7 -82.9L-104.25 -81.4L-103.6 -79.85L-104.25 -79.1L-104.7 -78.75L-105.25 -77.55L-102.85 -77.65L-101.6 -76.8L-100 -77.65L-98.6 -76.55L-97.75 -74.7L-97.2 -75.9" />
</g>
</svg>
