<?xml version="1.0" encoding="utf-8"?>
<svg version="1.1" id="Layer_1"
xmlns="http://www.w3.org/2000/svg"
xmlns:xlink="http://www.w3.org/1999/xlink"
xmlns:author="http://www.sothink.com"
width="50px" height="109px"
xml:space="preserve">
<g id="2077" transform="matrix(1, 0, 0, 1, 23.75, 95.6)">
<path style="fill:#FFFFFF;fill-opacity:1" d="M23.5,-87.45Q23.15 -90.15 22.6 -91.25Q22.35 -92 21.6 -92.2L21.55 -92.25Q16.7 -94.15 1.25 -94.15Q-14.75 -94.15 -19.55 -92.3Q-20.7 -91.9 -20.95 -91.05L-21 -90.9Q-22.3 -87.1 -22.3 -80.75Q-22.3 -75.5 -21.7 -71.85L-20.95 -68.75L-20.9 -68.7Q-20.75 -68.05 -20.2 -67.75Q-18.8 -67 -15.35 -66.5L0.5 -65.65Q17.35 -65.65 21.7 -67.65L22.4 -68.1L23.3 -71Q24.05 -74.35 24.05 -79.05Q24.05 -83.95 23.5 -87.45M25.5,-79.05Q25.5 -73.7 24.6 -70Q24.15 -68.15 23.6 -67.25Q23.4 -66.85 22.3 -66.35Q17.65 -64.15 0.5 -64.15L-15.5 -65Q-19.3 -65.65 -20.8 -66.45Q-21.9 -67 -22.35 -68.3Q-23.75 -72.15 -23.75 -80.75Q-23.75 -87.3 -22.4 -91.3Q-22.25 -91.9 -21.7 -92.5L-20.1 -93.65Q-15.1 -95.6 1.25 -95.6Q17.05 -95.6 22.05 -93.6Q23.4 -93.2 23.95 -91.8Q24.55 -90.6 25 -87.55Q25.5 -83.95 25.5 -79.05M4.05,-86.6L-2.15 -86.55L-2.15 -81L-8.3 -74.8L10.2 -74.8L4.05 -81.05L4.05 -86.6M5.45,-81.6L13.75 -73.4L-11.75 -73.4L-3.6 -81.6L-3.6 -87.95L5.45 -88.05L5.45 -81.6M3.35,-20.55L4.5 -19.85L5.45 -18.8L6 -18.05Q6.8 -16.7 6.8 -15.1L6.65 -13.85L6.25 -12.5L6.05 -12.15L5.2 -11L5.15 -10.95L4.1 -10.1L3.7 -9.8Q2.25 -9.05 0.7 -9.05Q-0.85 -9.05 -2.2 -9.8L-2.7 -10.1L-3.7 -10.95L-3.75 -11L-4.6 -12.15L-4.75 -12.5L-5.2 -13.85L-5.3 -15.1Q-5.3 -16.7 -4.55 -18.05L-4 -18.8L-3.1 -19.8L-3 -19.85L-1.9 -20.55Q-0.6 -21.15 0.7 -21.15Q2.1 -21.15 3.35 -20.55M8.15,-3.85Q10.2 -1.2 10.2 2.5L10.2 13.3L-8.75 13.3L-8.75 2.5Q-8.75 -1.3 -6.6 -3.9Q-4.95 -5.85 -2.4 -6.75L0.8 -7.25L3.9 -6.75Q6.5 -5.85 8.15 -3.85" />
</g>
</svg>
