<?xml version="1.0" encoding="utf-8"?>
<svg version="1.1" id="Layer_1"
xmlns="http://www.w3.org/2000/svg"
xmlns:xlink="http://www.w3.org/1999/xlink"
xmlns:author="http://www.sothink.com"
width="20px" height="21px"
xml:space="preserve">
<g id="7" transform="matrix(1, 0, 0, 1, -8.15, -3)">
<path style="fill:#FFFFFF;fill-opacity:1" d="M28.15,14.65Q27.65 17.8 25.25 20.1Q22.35 23.1 18.2 23.1Q14 23.1 11.05 20.1Q8.15 17.2 8.15 13.05Q8.15 8.85 11.05 5.9Q14 3 18.2 3Q22.35 3 25.25 5.9Q27.65 8.25 28.15 11.45L28.15 14.65M19.45,4.95Q19.1 4.45 18.15 4.45Q17.2 4.45 16.9 4.95Q16.55 5.45 16.55 6.15L16.55 15.15Q16.55 15.8 16.9 16.3Q17.2 16.8 18.15 16.8Q19.1 16.8 19.45 16.3Q19.8 15.8 19.8 15.15L19.8 6.15Q19.8 5.45 19.45 4.95M18.15,17.9Q17.45 17.9 16.95 18.4Q16.45 18.9 16.45 19.6Q16.45 20.3 16.95 20.8Q17.45 21.3 18.15 21.3Q18.9 21.3 19.4 20.8L19.85 19.6L19.4 18.4Q18.9 17.9 18.15 17.9" />
</g>
</svg>
