<?xml version="1.0" encoding="utf-8"?>
<svg version="1.1" id="Layer_1"
xmlns="http://www.w3.org/2000/svg"
xmlns:xlink="http://www.w3.org/1999/xlink"
xmlns:author="http://www.sothink.com"
width="32px" height="29px"
xml:space="preserve">
<g id="19" transform="matrix(1, 0, 0, 1, -0.4, -0.55)">
<path style="fill:#FFA819;fill-opacity:1" d="M21.95,12.25Q20.35 12.25 19.5 11.25Q18.75 10.4 18.75 9.3L18.75 9.25L19.1 6.3L16 10.2Q14.5 12.2 12.3 12.2L5.6 12.2L8.9 15.75L8.9 15.8Q9.6 16.7 9.6 17.85Q9.6 19.1 8.65 20.35L6.65 23.05L10.2 21.2Q11.1 20.65 12.15 20.7Q13.55 20.75 14.75 22.05L17.3 24.7L17.85 18.85Q17.85 18.15 18.35 17.4L18.3 17.45Q18.9 16.1 20.65 15.25L20.7 15.2L26 12.25L21.95 12.25M22.3,2.6L21.55 9.35L21.95 9.45L30.3 9.45Q32 9.4 32.35 10.6Q32.7 11.8 30.9 12.7L22 17.65Q21.2 18.05 20.85 18.5L20.65 19L20 26.15L19.75 27.5Q19.4 28.45 18.65 28.7Q17.65 29.1 16.9 28.25L12.8 24Q12.1 23.3 11.65 23.6L3.45 27.9L2.1 28.45Q1.2 28.65 0.7 28.05Q0 27.2 0.9 26L6.45 18.7L6.8 17.9L6.8 17.7L2.45 12.95Q1.4 11.85 1.75 10.75Q2.1 9.65 3.3 9.4L12.3 9.4Q13.1 9.4 13.75 8.55L19.05 1.8Q20.2 0.15 21.35 0.65Q22.4 1 22.3 2.6" />
</g>
</svg>
