<?xml version="1.0" encoding="utf-8"?>
<svg version="1.1" id="Layer_1"
xmlns="http://www.w3.org/2000/svg"
xmlns:xlink="http://www.w3.org/1999/xlink"
xmlns:author="http://www.sothink.com"
width="126px" height="126px"
xml:space="preserve">
<g id="2360" transform="matrix(1, 0, 0, 1, 0, 0)">
<path style="fill:#000000;fill-opacity:0.121569" d="M104.7,21.3Q122.05 38.55 122.05 63Q122.05 87.45 104.7 104.7Q87.45 122.05 63 122.05Q38.55 122.05 21.3 104.7Q3.95 87.45 3.95 63Q3.95 38.55 21.3 21.3L22.4 20.25Q39.3 3.95 63 3.95Q86.7 3.95 103.65 20.25L104.7 21.3" />
<path style="fill:#000000;fill-opacity:0.498039" d="M104.7,21.3Q87.45 3.95 63 3.95Q38.55 3.95 21.3 21.3Q3.95 38.55 3.95 63Q3.95 87.45 21.3 104.7Q38.55 122.05 63 122.05Q87.45 122.05 104.7 104.7Q122.05 87.45 122.05 63Q122.05 38.55 104.7 21.3M126,63Q126 89.1 107.5 107.5Q89.1 126 63 126Q36.9 126 18.5 107.5Q0 89.1 0 63Q0 36.9 18.5 18.5Q36.9 0 63 0Q89.1 0 107.5 18.5Q126 36.9 126 63" />
<path style="fill:#000000;fill-opacity:0.121569" d="M122.05,63Q122.05 87.45 104.7 104.7Q87.45 122.05 63 122.05Q38.55 122.05 21.3 104.7Q3.95 87.45 3.95 63Q3.95 38.55 21.3 21.3Q38.55 3.95 63 3.95Q87.45 3.95 104.7 21.3Q122.05 38.55 122.05 63" />
</g>
</svg>
