<?xml version="1.0" encoding="utf-8"?>
<svg version="1.1" id="Layer_1"
xmlns="http://www.w3.org/2000/svg"
xmlns:xlink="http://www.w3.org/1999/xlink"
xmlns:author="http://www.sothink.com"
width="52px" height="78px"
xml:space="preserve">
<g id="2354" transform="matrix(1, 0, 0, 1, -7.45, 35.8)">
<path style="fill:#000000;fill-opacity:1" d="M24.4,-33.05L23.35 -34.05L25.05 -35.8L46.9 -35.8Q51.45 -29.85 54.45 -22.85Q59.1 -11.9 59.1 0.1Q59.1 12.1 54.45 23.05Q49.95 33.65 41.8 41.8L7.45 7.45L8 7.1L9.55 6.05L15.45 0.4Q19.9 -4.3 20.55 -5.55Q21.1 -6.7 21.1 -10.7L20.65 -12.95L20.25 -14.55Q20.25 -16.5 22.2 -21.95L22.55 -23L22.75 -23.55Q24.85 -29.35 24.85 -30.5Q25.1 -31.9 24.4 -33.05" />
</g>
</svg>
