<?xml version="1.0" encoding="utf-8"?>
<svg version="1.1" id="Layer_1"
xmlns="http://www.w3.org/2000/svg"
xmlns:xlink="http://www.w3.org/1999/xlink"
xmlns:author="http://www.sothink.com"
width="13px" height="14px"
xml:space="preserve">
<g id="245" transform="matrix(1, 0, 0, 1, 0, -0.5)">
<path style="fill:#FFFFFF;fill-opacity:1" d="M12.95,6.55L12.75 7.25L6.5 13.5L5.65 13.65L5.55 13.6L5.4 13.5L5.2 12.8L8.2 2.3L8.6 1.8L9.2 1.8L10.95 3L11.35 3.4L12.25 4.8L12.95 6.55M7.1,1.85L1.4 11.3L1.05 11.6L0.55 11.65L0.5 11.6L0.2 11.45L0 10.9L0.1 2.35L0.45 1.7L1.65 1.15L4.4 0.5L6.7 0.75L6.75 0.75L7.05 0.95L7.2 1.2L7.1 1.85" />
</g>
</svg>
