<?xml version="1.0" encoding="utf-8"?>
<svg version="1.1" id="Layer_1"
xmlns="http://www.w3.org/2000/svg"
xmlns:xlink="http://www.w3.org/1999/xlink"
xmlns:author="http://www.sothink.com"
width="9px" height="15px"
xml:space="preserve">
<g id="246" transform="matrix(1, 0, 0, 1, -1.15, 0.5)">
<path style="fill:#FFFFFF;fill-opacity:1" d="M8.25,3.05Q7.5 3.05 7 2.5Q6.5 2 6.5 1.25Q6.5 0.5 7 0Q7.5 -0.5 8.25 -0.5Q9.05 -0.5 9.55 0Q10.05 0.5 10.05 1.25Q10.05 2 9.55 2.5Q9.05 3.05 8.25 3.05M9.55,5.3Q10.05 5.8 10.05 6.55Q10.05 7.3 9.55 7.8Q9.05 8.35 8.25 8.35Q7.5 8.35 7 7.8Q6.5 7.3 6.5 6.55Q6.5 5.8 7 5.3Q7.5 4.8 8.25 4.8Q9.05 4.8 9.55 5.3M2.9,4.8Q3.7 4.8 4.2 5.3Q4.7 5.8 4.7 6.55Q4.7 7.3 4.2 7.8Q3.7 8.35 2.9 8.35Q2.15 8.35 1.65 7.8Q1.15 7.3 1.15 6.55Q1.15 5.8 1.65 5.3Q2.15 4.8 2.9 4.8M8.25,10.1Q9.05 10.1 9.55 10.6Q10.05 11.1 10.05 11.85Q10.05 12.6 9.55 13.1Q9.05 13.65 8.25 13.65Q7.5 13.65 7 13.1Q6.5 12.6 6.5 11.85Q6.5 11.1 7 10.6Q7.5 10.1 8.25 10.1" />
</g>
</svg>
