<?xml version="1.0" encoding="utf-8"?>
<svg version="1.1" id="Layer_1"
xmlns="http://www.w3.org/2000/svg"
xmlns:xlink="http://www.w3.org/1999/xlink"
xmlns:author="http://www.sothink.com"
width="22px" height="26px"
xml:space="preserve">
<g id="214" transform="matrix(1, 0, 0, 1, 11, 13)">
<path style="fill:#666666;fill-opacity:1" d="M7.6,-4L2 -4L2 -9.6L7.6 -4M9,-2L9 11L-9 11L-9 -11L0 -11L0 -3L0.3 -2.3L1 -2L9 -2" />
<path style="fill:#FFFFFF;fill-opacity:1" d="M1.7,-12.7L10.7 -3.7L11 -3L11 12L10.7 12.7L10 13L-10 13L-10.7 12.7L-11 12L-11 -12L-10.7 -12.7L-10 -13L1 -13L1.7 -12.7M2,-9.6L2 -4L7.6 -4L2 -9.6M1,-2L0.3 -2.3L0 -3L0 -11L-9 -11L-9 11L9 11L9 -2L1 -2" />
</g>
</svg>
