<?xml version="1.0" encoding="utf-8"?>
<svg version="1.1" id="Layer_1"
xmlns="http://www.w3.org/2000/svg"
xmlns:xlink="http://www.w3.org/1999/xlink"
xmlns:author="http://www.sothink.com"
width="160px" height="108px"
xml:space="preserve">
<g id="34" transform="matrix(1, 0, 0, 1, 80, 54)">
<path style="fill:#14E821;fill-opacity:1" d="M80,-54L80 -42L78 -42L78 -52L64.95 -52L64.95 -54L80 -54M8.8,-6.2L2.65 0L8.8 6.15L6.15 8.85L-0.05 2.65L-6.2 8.85L-8.85 6.15L-2.7 0L-8.85 -6.2L-6.2 -8.85L-0.05 -2.65L6.15 -8.85L8.8 -6.2M80,42L80 53.95L65 53.95L65 52L77.95 52L77.95 42L80 42M-65,-54L-65 -52.05L-77.95 -52.05L-77.95 -42.05L-80 -42.05L-80 -54L-65 -54M-77.95,42L-77.95 52L-66 52L-66 54L-80 54L-80 42L-77.95 42" />
</g>
</svg>
