<?xml version="1.0" encoding="utf-8"?>
<svg version="1.1" id="Layer_1"
xmlns="http://www.w3.org/2000/svg"
xmlns:xlink="http://www.w3.org/1999/xlink"
xmlns:author="http://www.sothink.com"
width="263px" height="200px"
xml:space="preserve">
<g id="35" transform="matrix(1, 0, 0, 1, 131.05, 99.95)">
<path style="fill:#666666;fill-opacity:1" d="M0.9,-98.05L0.9 -47.05L-1 -47.05L-1 -98.05L-6.05 -98.05L-6.05 -99.95L6 -99.95L6 -98.05L0.9 -98.05M35.15,-31L59.45 -31L59.45 -29L35.15 -29L35.15 -31M8.75,-6.2L2.6 0L8.75 6.15L6.1 8.85L-0.1 2.65L-6.25 8.85L-8.9 6.15L-2.75 0L-8.9 -6.2L-6.25 -8.85L-0.1 -2.65L6.1 -8.85L8.75 -6.2M128.95,-6L131 -6L131 6L128.95 6L128.95 1L63.9 1L63.9 -1.05L128.95 -1.05L128.95 -6M59.45,31L35.15 31L35.15 29L59.45 29L59.45 31M5.95,98.05L5.95 99.9L-6.05 99.9L-6.05 98.05L-1 98.05L-1 46.95L0.9 46.95L0.9 98.05L5.95 98.05M-129.05,-1L-63.05 -1L-63.05 1L-129.05 1L-129.05 6L-131.05 6L-131.05 -6.05L-129.05 -6.05L-129.05 -1M-57.35,-31L-33.05 -31L-33.05 -29L-57.35 -29L-57.35 -31M-33.05,31L-57.35 31L-57.35 29L-33.05 29L-33.05 31" />
</g>
</svg>
