<?xml version="1.0" encoding="utf-8"?>
<svg version="1.1" id="Layer_1"
xmlns="http://www.w3.org/2000/svg"
xmlns:xlink="http://www.w3.org/1999/xlink"
xmlns:author="http://www.sothink.com"
width="13px" height="16px"
xml:space="preserve">
<g id="1963" transform="matrix(1, 0, 0, 1, 6.2, 7.6)">
<path style="fill:#FFFFFF;fill-opacity:1" d="M6.1,-2.15L-6.1 -3.95L-6.1 -5.8L6.2 -4.05L6.2 -2.15L6.1 -2.15M2.45,-1.35L-4.05 -2.3L-1.45 -2.65L5.05 -1.7L2.45 -1.35M6.1,-5.7L2.45 -5.2L-4.05 -6.15L6.1 -7.6L6.1 -5.7M-6.1,-2L6.2 -0.2L6.2 1.7L6.1 1.65L-6.1 -0.1L-6.1 -2M-6.2,5.75L-1.45 5.05L5.05 5.95L-6.2 7.6L-6.2 5.75M-6.1,1.85L6.2 3.65L6.2 5.55L6.1 5.5L-6.1 3.75L-6.1 1.85M-1.45,1.2L5.05 2.15L2.45 2.5L-4.05 1.55L-1.45 1.2" />
</g>
</svg>
