<?xml version="1.0" encoding="utf-8"?>
<svg version="1.1" id="Layer_1"
xmlns="http://www.w3.org/2000/svg"
xmlns:xlink="http://www.w3.org/1999/xlink"
xmlns:author="http://www.sothink.com"
width="20px" height="20px"
xml:space="preserve">
<g id="1591" transform="matrix(1, 0, 0, 1, 9.7, 9.65)">
<path style="fill:#879298;fill-opacity:1" d="M6.85,-6.85Q9.65 -4 9.65 0Q9.65 4 6.95 6.75L6.85 6.85Q4 9.7 0 9.7Q-4.05 9.7 -6.85 6.85Q-9.7 4.05 -9.7 0Q-9.7 -4 -6.85 -6.85Q-4.05 -9.65 0 -9.65Q4 -9.65 6.85 -6.85" />
<linearGradient
id="LinearGradID_64" gradientUnits="userSpaceOnUse" gradientTransform="matrix(0, 0.0100403, -0.0100403, 0, 0, 0)" spreadMethod ="pad" x1="-819.2" y1="0" x2="819.2" y2="0" >
<stop  offset="0" style="stop-color:#838E97;stop-opacity:1" />
<stop  offset="1" style="stop-color:#EAEBF0;stop-opacity:1" />
</linearGradient>
<path style="fill:url(#LinearGradID_64) " d="M5.8,-5.8Q8.2 -3.4 8.2 0Q8.2 3.4 5.9 5.75L5.8 5.8Q3.4 8.25 0 8.25Q-3.45 8.25 -5.8 5.8Q-8.25 3.45 -8.25 0Q-8.25 -3.4 -5.8 -5.8Q-3.45 -8.2 0 -8.2Q3.4 -8.2 5.8 -5.8" />
</g>
</svg>
