<?xml version="1.0" encoding="utf-8"?>
<svg version="1.1" id="Layer_1"
xmlns="http://www.w3.org/2000/svg"
xmlns:xlink="http://www.w3.org/1999/xlink"
xmlns:author="http://www.sothink.com"
width="16px" height="19px"
xml:space="preserve">
<g id="1593" transform="matrix(1, 0, 0, 1, 8, 9.45)">
<path style="fill:#888888;fill-opacity:1" d="M7.6,-0.65L8 -0.35L7.7 3.55L5.3 6.45L3.6 8.25Q3.3 8.6 2.85 8.6Q2.4 8.6 2.2 8.25L1.85 7.5Q1.7 9.55 0.2 9.5L-0.2 9.5Q-1.7 9.55 -1.85 7.5L-2.2 8.25Q-2.4 8.6 -2.75 8.6Q-3.25 8.6 -3.6 8.25L-5.3 6.45L-7.7 3.55L-8 -0.35L-7.6 -0.65L-7.6 -6Q-6.2 -8.1 -3.25 -9L-0.5 -9.45L0.5 -9.45L3.25 -9Q6.25 -8.1 7.6 -6L7.6 -0.65" />
<path style="fill:#000000;fill-opacity:1" d="M6.95,0.05Q6.95 1.3 6.3 2.15Q5.6 2.95 4.7 2.95Q3.75 2.95 3.1 2.15Q2.45 1.3 2.45 0.05Q2.45 -1.15 3.1 -2Q3.75 -2.9 4.7 -2.9Q5.6 -2.9 6.3 -2Q6.95 -1.15 6.95 0.05" />
<path style="fill:#000000;fill-opacity:1" d="M-6.05,-2Q-5.4 -2.9 -4.45 -2.9Q-3.55 -2.9 -2.85 -2Q-2.2 -1.15 -2.2 0.05Q-2.2 1.3 -2.85 2.15Q-3.55 2.95 -4.45 2.95Q-5.4 2.95 -6.05 2.15Q-6.7 1.3 -6.7 0.05Q-6.7 -1.15 -6.05 -2" />
<path style="fill:#000000;fill-opacity:1" d="M-1.4,4.7L-2 4.25L-0.3 2.25L0.6 2.25L2.25 4.25L1.7 4.7L-1.4 4.7" />
</g>
</svg>
