<?xml version="1.0" encoding="utf-8"?>
<svg version="1.1" id="Layer_1"
xmlns="http://www.w3.org/2000/svg"
xmlns:xlink="http://www.w3.org/1999/xlink"
xmlns:author="http://www.sothink.com"
width="39px" height="39px"
xml:space="preserve">
<g id="1107" transform="matrix(1, 0, 0, 1, 0, 0)">
<path style="fill:#EB2427;fill-opacity:1" d="M22.1,14.55Q22.1 15.5 21.3 16.15Q20.45 16.8 19.25 16.8Q18.05 16.8 17.25 16.15Q16.4 15.5 16.4 14.55L16.4 2.25Q16.4 1.3 17.25 0.65Q18.05 0 19.25 0Q20.45 0 21.3 0.65Q22.1 1.3 22.1 2.25L22.1 14.55" />
<path style="fill:#EB2427;fill-opacity:1" d="M34.6,8.1Q38.5 13.2 38.5 19.7Q38.5 27.7 32.85 33.3Q27.2 38.95 19.25 38.95Q11.3 38.95 5.65 33.3Q0 27.7 0 19.7Q0 13.2 3.95 8.1Q7.75 3.05 13.85 1.25L13.85 6Q9.7 7.65 7.15 11.35Q4.5 15.1 4.5 19.7Q4.5 25.8 8.8 30.15Q13.15 34.45 19.25 34.45Q25.35 34.45 29.7 30.15Q34 25.8 34 19.7Q34 15.1 31.35 11.35Q28.8 7.65 24.65 6L24.65 1.25Q30.75 3.05 34.6 8.1" />
</g>
</svg>
