<?xml version="1.0" encoding="utf-8"?>
<svg version="1.1" id="Layer_1"
xmlns="http://www.w3.org/2000/svg"
xmlns:xlink="http://www.w3.org/1999/xlink"
xmlns:author="http://www.sothink.com"
width="59px" height="52px"
xml:space="preserve">
<g id="1121" transform="matrix(1, 0, 0, 1, 28.1, 25.95)">
<path style="fill:#BD1F2A;fill-opacity:1" d="M6.05,-22.35L28.95 17.3Q31 20.9 29.55 23.45Q28.1 26 23.95 26L-21.9 26Q-26.05 26 -27.5 23.45Q-28.95 20.9 -26.9 17.3L-3.95 -22.35Q-1.9 -25.95 1.05 -25.95Q4 -25.95 6.05 -22.35" />
<path style="fill:#FEFEFE;fill-opacity:1" d="M4,-4.45L2.4 10.45L-0.4 10.45L-2 -4.45L-2 -14.35L4 -14.35L4 -4.45M4.2,19.95L-2.2 19.95L-2.2 13.95L4.2 13.95L4.2 19.95" />
</g>
</svg>
