<?xml version="1.0" encoding="utf-8"?>
<svg version="1.1" id="Layer_1"
xmlns="http://www.w3.org/2000/svg"
xmlns:xlink="http://www.w3.org/1999/xlink"
xmlns:author="http://www.sothink.com"
width="126px" height="128px"
xml:space="preserve">
<g id="2451" transform="matrix(1, 0, 0, 1, 62.6, 64)">
<path style="fill:#1B1A1A;fill-opacity:1" d="M38.8,-26.05L-7.7 -26.05L-7.7 -23.9L-4.4 -23.9L-2.05 -23.5Q-0.85 -23.05 0.05 -22.3Q0.8 -22.9 1.85 -23.35Q3.35 -23.95 4.95 -23.95L14.85 -23.95Q16.45 -23.95 17.95 -23.35Q19 -22.9 19.8 -22.25L21.6 -23.35Q23.15 -23.95 24.7 -23.95L38.8 -23.95L38.8 -26.05M62.55,-22.3L62.55 1.45Q62.55 3.9 60.8 5.65Q58.85 7.6 55.6 7.6L45.75 7.6Q44.15 7.6 42.6 7Q40.8 6.25 39.8 4.8Q38.8 3.35 38.8 1.45L38.8 -3.6L31.7 -3.6L31.7 29.7Q31.7 31.15 31 32.5L37.35 32.5Q38.95 32.5 40.5 33.15Q42.3 33.9 43.3 35.35Q44.35 36.8 44.35 38.7L44.35 57.9Q44.35 60.35 42.55 62.1Q40.6 64 37.4 64L-55.65 64Q-57.2 64 -58.75 63.4Q-60.6 62.65 -61.6 61.2Q-62.6 59.75 -62.6 57.8L-62.6 38.75Q-62.6 36.8 -61.6 35.35Q-60.6 33.9 -58.75 33.15Q-57.25 32.5 -55.65 32.5L-51.85 32.5Q-52.55 31.2 -52.55 29.7L-52.55 10.6Q-52.55 8.1 -50.8 6.3Q-48.85 4.35 -45.6 4.35L-40.65 4.35Q-41.45 3 -41.45 1.45L-41.45 -9.95L-44.5 -9.95L-44.5 -18.05L-61.15 -18.05L-61.2 -51.4Q-61.2 -55.15 -57.85 -56.75Q-56.15 -57.55 -54.5 -57.6L-24.7 -57.6L-22.8 -57.35Q-21 -56.9 -19.8 -55.85L-18 -56.95Q-16.45 -57.6 -14.9 -57.6L14.7 -57.55L16.75 -57.25Q17.8 -56.95 18.7 -56.45L19.55 -55.8Q21.5 -57.6 24.55 -57.6L27.5 -57.6L27.5 -64L41.5 -64L41.5 -27.15L52.75 -27.15L52.75 -22.3L62.55 -22.3" />
<path style="fill:#FFFFFF;fill-opacity:1" d="M-57.75,-53.55Q-56.55 -54.6 -54.85 -54.6L-40.95 -54.6L-40.95 -24.4L-41 -23.85L-41.4 -22.7Q-42.4 -21.05 -44.85 -21.05L-58.8 -21.05L-58.8 -27.4L-48.9 -27.4L-48.9 -29L-54.85 -29L-56.85 -29.4Q-58.8 -30.25 -58.8 -32.2L-58.8 -51.4Q-58.8 -52.6 -57.75 -53.55M-50.85,-48.2L-50.85 -35.35L-48.9 -35.35L-48.9 -48.2L-50.85 -48.2" />
<path style="fill:#FFFFFF;fill-opacity:1" d="M8.45,-52.95Q10.4 -54.55 14.35 -54.55Q15.6 -54.55 16.8 -53.85Q18.3 -52.95 18.3 -51.35L18.3 -29.05L10.35 -29.05L10.35 -48.15L8.45 -48.15L8.45 -29.05L0.55 -29.05L0.55 -54.55L8.45 -54.55L8.45 -52.95" />
<path style="fill:#FFFFFF;fill-opacity:1" d="M38.15,-61L38.15 -29.05L24.2 -29.05Q23.2 -29.05 22.25 -29.5Q20.25 -30.25 20.25 -32.25L20.25 -51.35Q20.25 -53.35 22.25 -54.15L24.2 -54.6L30.15 -54.6L30.15 -61L38.15 -61M30.1,-48.2L28.15 -48.2L28.15 -35.3L30.1 -35.3L30.1 -48.2" />
<path style="fill:#FFFFFF;fill-opacity:1" d="M49.35,-24.15L49.35 -19.3L59.2 -19.3L59.2 -12.95L49.35 -12.95L49.35 -1.8L51.3 -1.8L51.3 -11.4L59.2 -11.4L59.2 1.45Q59.2 3.4 57.2 4.2L55.85 4.55L55.25 4.6L45.35 4.6L43.4 4.2Q41.45 3.4 41.45 1.45L41.45 -12.95L39.45 -12.95L39.45 -19.3L41.45 -19.3L41.45 -24.15L49.35 -24.15" />
<path style="fill:#FFFFFF;fill-opacity:1" d="M38.25,-14.55L28.4 -14.55L28.4 -13L38.3 -13L38.3 -6.6L28.4 -6.6L28.4 4.6L20.4 4.6L20.4 -17.75Q20.4 -19.75 22.4 -20.55Q23.4 -20.95 24.35 -20.95L38.3 -20.95L38.25 -14.55" />
<path style="fill:#FFFFFF;fill-opacity:1" d="M2.6,-20.55L4.6 -20.95L14.5 -20.95L15.1 -20.9L16.45 -20.55Q18.4 -19.75 18.4 -17.75L18.4 -4.95L8.55 -4.95L8.55 -1.75L10.5 -1.75L10.5 -3.35L18.4 -3.35L18.4 1.45Q18.4 3.4 16.45 4.2L15.1 4.55L14.5 4.6L4.6 4.6L2.6 4.2Q0.65 3.4 0.65 1.45L0.65 -17.75Q0.65 -19.75 2.6 -20.55M8.55,-14.55L8.55 -11.4L10.5 -11.4L10.5 -14.55L8.55 -14.55" />
<path style="fill:#FFFFFF;fill-opacity:1" d="M-41.85,-19.3L-38.9 -19.3L-38.9 -24.15L-31 -24.15L-31 -19.3L-21.05 -19.3L-21.05 -12.95L-30.9 -12.95L-30.9 -1.75L-28.9 -1.75L-28.9 -11.35L-21.05 -11.35L-21.05 1.45L-21 1.45Q-21 3.4 -23 4.2L-24.35 4.55L-24.95 4.6L-34.85 4.6L-36.85 4.2Q-38.8 3.4 -38.8 1.45L-38.8 -12.95L-41.85 -12.95L-41.85 -19.3" />
<path style="fill:#FFFFFF;fill-opacity:1" d="M-11.1,-14.5L-11.1 4.6L-19 4.6L-19 -21.1L-25.1 -21.1L-27.05 -21.5Q-29.05 -22.3 -29.05 -24.25L-29.05 -38.6L-31 -38.6L-31 -26.15L-38.9 -26.15L-38.9 -54.55L-25.1 -54.55L-24.45 -54.5L-23.1 -54.15Q-21.15 -53.35 -21.15 -51.35L-21.15 -43.4Q-21.15 -42.8 -21.65 -42.4L-22.15 -42.1L-21.65 -41.7Q-21.15 -41.05 -21.15 -40.2L-21.15 -27.45L-11.1 -27.45L-11.1 -20.9L-4.75 -20.9L-4.2 -20.85L-3 -20.5Q-1.25 -19.7 -1.25 -17.7L-1.25 4.6L-9.2 4.6L-9.2 -14.5L-11.1 -14.5M-31,-48.15L-31 -45L-29.05 -45L-29.05 -48.15L-31 -48.15" />
<path style="fill:#FFFFFF;fill-opacity:1" d="M-3.4,-54.15Q-1.4 -53.35 -1.4 -51.35L-1.4 -29.1L-15.25 -29.1L-17.2 -29.5Q-19.2 -30.3 -19.2 -32.25L-19.2 -41.85Q-19.2 -43.85 -17.2 -44.6L-15.25 -45L-9.35 -45L-9.35 -48.2L-11.25 -48.2L-11.25 -46.65L-19.2 -46.65L-19.2 -51.35Q-19.2 -53.35 -17.2 -54.15L-15.25 -54.55L-5.35 -54.55L-4.75 -54.5L-3.4 -54.15M-11.25,-38.65L-11.25 -35.4L-9.35 -35.4L-9.35 -38.65L-11.25 -38.65" />
<path style="fill:#FFFFFF;fill-opacity:1" d="M-35.45,7.45Q-34.7 7.55 -34.1 7.8Q-32.15 8.6 -32.15 10.6L-32.15 32.85L-46 32.85L-47.95 32.45Q-49.9 31.7 -49.9 29.7L-49.9 20.1Q-49.9 18.1 -47.95 17.35L-46 16.95L-40.05 16.95L-40.05 13.75L-42 13.75L-42 15.3L-49.9 15.3L-49.9 10.6Q-49.9 8.6 -47.95 7.8L-46 7.4L-36.1 7.4L-35.45 7.45M-42,23.35L-42 26.55L-40.05 26.55L-40.05 23.35L-42 23.35" />
<path style="fill:#FFFFFF;fill-opacity:1" d="M-22.3,7.4L-22.3 26.55L-20.35 26.55L-20.35 7.4L-12.45 7.4L-12.45 29.7Q-12.45 31.7 -14.4 32.5L-15.8 32.85L-16.4 32.9L-26.25 32.9L-28.2 32.5Q-30.2 31.65 -30.2 29.65L-30.2 7.4L-22.3 7.4" />
<path style="fill:#FFFFFF;fill-opacity:1" d="M8.6,15.4L-1.2 15.4L-1.2 26.55L0.75 26.55L0.75 16.95L8.6 16.95L8.6 29.75Q8.6 31.75 6.65 32.55L5.3 32.9L4.7 32.95L-5.2 32.95L-7.15 32.5Q-9.1 31.7 -9.1 29.75L-9.15 29.75L-9.15 15.4L-11.1 15.4L-11.1 9.05L-9.15 9.05L-9.15 6.45L-1.2 6.45L-1.2 9.05L8.6 9.05L8.6 15.4" />
<path style="fill:#FFFFFF;fill-opacity:1" d="M12.5,7.8L14.45 7.4L24.4 7.4L25 7.45L26.35 7.8Q28.35 8.6 28.35 10.6L28.35 29.7Q28.35 31.65 26.35 32.45L25 32.8L24.4 32.85L14.45 32.85L12.5 32.45Q10.55 31.7 10.55 29.7L10.55 10.6Q10.55 8.6 12.5 7.8M18.45,13.8L18.45 26.55L20.4 26.55L20.4 13.8L18.45 13.8" />
<path style="fill:#EB493F;fill-opacity:1" d="M-32.1,41.9L-32.1 61.05L-40 61.05L-40 35.55L-32.1 35.55L-32.1 37.15Q-30.15 35.55 -26.2 35.55Q-24.95 35.55 -23.8 36.2Q-22.3 37.1 -22.3 38.75L-22.25 38.75L-22.25 61.05L-30.2 61.05L-30.2 41.9L-32.1 41.9" />
<path style="fill:#EB493F;fill-opacity:1" d="M11.2,41.9L11.2 61.05L3.3 61.05L3.3 35.55L11.2 35.55L11.2 37.15Q13.15 35.55 17.1 35.55Q18.35 35.55 19.55 36.2Q21.05 37.1 21.05 38.75L21.05 61.05L13.1 61.05L13.1 41.9L11.2 41.9" />
<path style="fill:#EB493F;fill-opacity:1" d="M31.1,41.9L31.1 45.1L33.05 45.1L33.05 41.9L31.1 41.9M37.65,35.55Q38.4 35.65 39 35.9Q40.95 36.7 40.95 38.7L40.95 51.5L31.1 51.5L31.1 54.7L33.05 54.7L33.05 53.1L40.95 53.1L40.95 57.9Q40.95 59.85 39 60.7L37.65 61L37 61.05L27.1 61.05L25.15 60.7Q23.15 59.85 23.15 57.9L23.15 38.75Q23.15 36.75 25.15 35.9L27.1 35.5L37 35.5L37.65 35.55" />
<path style="fill:#EB493F;fill-opacity:1" d="M-12.2,35.55L-12.2 54.7L-9.1 54.65L-9.1 61.05L-16.2 61.05L-18.15 60.65Q-20.15 59.85 -20.15 57.9L-20.15 35.55L-12.2 35.55" />
<path style="fill:#EB493F;fill-opacity:1" d="M-58,35.9L-56 35.55L-46.1 35.55L-45.5 35.55L-44.1 35.9Q-42.15 36.7 -42.15 38.75L-42.15 57.8Q-42.15 59.8 -44.1 60.6L-45.5 60.95L-46.1 61L-56 61L-58 60.6Q-59.95 59.8 -59.95 57.8L-59.95 38.75Q-59.95 36.75 -58 35.9M-52,41.9L-52 54.65L-50.1 54.65L-50.1 41.9L-52 41.9" />
<path style="fill:#EB493F;fill-opacity:1" d="M-7.05,35.65L1.15 35.65L1.15 42L-7.05 42L-7.05 35.65M1.15,43.55L1.15 60.9L-7.05 60.9L-7.05 43.55L1.15 43.55" />
</g>
</svg>
