<?xml version="1.0" encoding="utf-8"?>
<svg version="1.1" id="Layer_1"
xmlns="http://www.w3.org/2000/svg"
xmlns:xlink="http://www.w3.org/1999/xlink"
xmlns:author="http://www.sothink.com"
width="256px" height="177px"
xml:space="preserve">
<g id="71" transform="matrix(1, 0, 0, 1, 0, 0)">
<path style="fill:#000000;fill-opacity:1" d="M256,176.8L0 176.8L0 0L256 0L256 176.8" />
<path style="fill:#BD1F2A;fill-opacity:1" d="M162.85,95.95Q161.4 94.45 161.4 92.4Q161.4 90.35 162.85 88.85Q164.35 87.4 166.4 87.4Q168.45 87.4 169.95 88.85Q171.4 90.35 171.4 92.4Q171.4 94.45 169.95 95.95Q168.45 97.4 166.4 97.4Q164.35 97.4 162.85 95.95M204.55,115.5Q204.55 113.45 206 111.95Q207.5 110.5 209.55 110.5Q211.6 110.5 213.1 111.95Q214.55 113.45 214.55 115.5Q214.55 117.55 213.1 119.05Q211.6 120.5 209.55 120.5Q207.5 120.5 206 119.05Q204.55 117.55 204.55 115.5M139.95,108.05Q138.45 109.5 136.4 109.5Q134.35 109.5 132.85 108.05Q131.4 106.55 131.4 104.5Q131.4 102.45 132.85 100.95Q134.35 99.5 136.4 99.5Q138.45 99.5 139.95 100.95Q141.4 102.45 141.4 104.5Q141.4 106.55 139.95 108.05M146.4,127.4Q148.45 127.4 149.95 128.85Q151.4 130.35 151.4 132.4Q151.4 134.45 149.95 135.95Q148.45 137.4 146.4 137.4Q144.35 137.4 142.85 135.95Q141.4 134.45 141.4 132.4Q141.4 130.35 142.85 128.85Q144.35 127.4 146.4 127.4M82.85,115.95Q81.4 114.45 81.4 112.4Q81.4 110.35 82.85 108.85Q84.35 107.4 86.4 107.4Q88.45 107.4 89.95 108.85Q91.4 110.35 91.4 112.4Q91.4 114.45 89.95 115.95Q88.45 117.4 86.4 117.4Q84.35 117.4 82.85 115.95" />
</g>
</svg>
