<?xml version="1.0" encoding="utf-8"?>
<svg version="1.1" id="Layer_1"
xmlns="http://www.w3.org/2000/svg"
xmlns:xlink="http://www.w3.org/1999/xlink"
xmlns:author="http://www.sothink.com"
width="646px" height="646px"
xml:space="preserve">
<g id="48" transform="matrix(1, 0, 0, 1, -319.15, -36.05)">
<path style="fill:#002F6D;fill-opacity:1" d="M961.2,359.05Q961.2 491.2 867.75 584.65Q774.3 678.1 642.15 678.1Q570.15 678.1 509.65 650.35L615.25 650.35L615.25 308.35L326.75 308.35Q341.55 208.45 416.55 133.45Q510 40 642.15 40Q774.3 40 867.75 133.45Q961.2 226.9 961.2 359.05" />
<path style="fill:#000000;fill-opacity:1" d="M965.15,682.05L319.15 682.05L319.15 650.35L615.25 650.35L615.25 308.35L319.15 308.35L319.15 36.05L965.15 36.05L965.15 682.05" />
</g>
</svg>
