<?xml version="1.0" encoding="utf-8"?>
<svg version="1.1" id="Layer_1"
xmlns="http://www.w3.org/2000/svg"
xmlns:xlink="http://www.w3.org/1999/xlink"
xmlns:author="http://www.sothink.com"
width="501px" height="371px"
xml:space="preserve">
<g id="65" transform="matrix(1, 0, 0, 1, 0, 0)">
<linearGradient
id="LinearGradID_7" gradientUnits="userSpaceOnUse" gradientTransform="matrix(0, -0.126984, 0.185577, 0, 348, 112)" spreadMethod ="pad" x1="-819.2" y1="0" x2="819.2" y2="0" >
<stop  offset="0" style="stop-color:#7D7D7E;stop-opacity:1" />
<stop  offset="0.937255" style="stop-color:#7F7F7F;stop-opacity:1" />
<stop  offset="1" style="stop-color:#C4C4C4;stop-opacity:1" />
</linearGradient>
<path style="fill:url(#LinearGradID_7) " d="M495.7,29.6L495.7 25.85L495.7 25L492.05 25L405.8 25L405.8 0L492.05 0L495.05 0Q500.05 0 500.05 5L500.05 25.85L500.05 29.6L495.7 29.6" />
<path style="fill:#7E7E7E;fill-opacity:1" d="M500.05,29.6L500.05 359.25L500.05 365.05Q500.05 370.05 495.05 370.05L492.05 370.05L6.2 370.05L5 370.05Q0 370.05 0 365.05L0 359.25L0 29.6L3.5 29.6L3.5 359.25L3.5 363.9Q3.5 366.4 6 366.4L6.2 366.4L492.05 366.4L493.2 366.4Q495.7 366.4 495.7 363.9L495.7 359.25L495.7 29.6L500.05 29.6" />
<linearGradient
id="LinearGradID_8" gradientUnits="userSpaceOnUse" gradientTransform="matrix(0, -0.126984, 0.185577, 0, 152, 112)" spreadMethod ="pad" x1="-819.2" y1="0" x2="819.2" y2="0" >
<stop  offset="0" style="stop-color:#7D7D7E;stop-opacity:1" />
<stop  offset="0.937255" style="stop-color:#7F7F7F;stop-opacity:1" />
<stop  offset="1" style="stop-color:#C4C4C4;stop-opacity:1" />
</linearGradient>
<path style="fill:url(#LinearGradID_8) " d="M405.8,25L6.2 25L3.5 25L3.5 25.85L3.5 29.6L0 29.6L0 25.85L0 5Q0 0 5 0L6.2 0L405.8 0L405.8 25" />
<path style="fill:none;stroke-width:0.05;stroke-linecap:butt;stroke-linejoin:miter;stroke-miterlimit:3;stroke:#5E5E5E;stroke-opacity:1" d="M0,20L6.2 20L492.05 20L500 20" />
<path style="fill:none;stroke-width:0.05;stroke-linecap:butt;stroke-linejoin:miter;stroke-miterlimit:3;stroke:#9F9F9F;stroke-opacity:1" d="M0,21L6.2 21L492.05 21L500 21" />
</g>
</svg>
