<?xml version="1.0" encoding="utf-8"?>
<svg version="1.1" id="Layer_1"
xmlns="http://www.w3.org/2000/svg"
xmlns:xlink="http://www.w3.org/1999/xlink"
xmlns:author="http://www.sothink.com"
width="39px" height="68px"
xml:space="preserve">
<g id="1731" transform="matrix(1, 0, 0, 1, 1.5, 1.5)">
<path style="fill:#F5F5F5;fill-opacity:1" d="M29,11.3Q29 16 25.7 19.3Q22.4 22.6 17.7 22.6Q13 22.6 9.7 19.3Q6.4 16 6.4 11.3Q6.4 6.6 9.7 3.3Q13 0 17.7 0Q22.4 0 25.7 3.3Q29 6.7 29 11.3M17.7,26Q26.4 26 31.5 32.4Q35.4 37.1 35.4 44.1L35.4 64.2L0 64.2L0 44.1Q0 37.1 4 32.3Q9.1 26 17.7 26" />
<path style="fill:none;stroke-width:3;stroke-linecap:butt;stroke-linejoin:miter;stroke-miterlimit:10;stroke:#000000;stroke-opacity:1" d="M25.7,3.3Q22.4 0 17.7 0Q13 0 9.7 3.3Q6.4 6.6 6.4 11.3Q6.4 16 9.7 19.3Q13 22.6 17.7 22.6Q22.4 22.6 25.7 19.3Q29 16 29 11.3Q29 6.7 25.7 3.3M4,32.3Q0 37.1 0 44.1L0 64.2L35.4 64.2L35.4 44.1Q35.4 37.1 31.5 32.4Q26.4 26 17.7 26Q9.1 26 4 32.3" />
</g>
</svg>
