<?xml version="1.0" encoding="utf-8"?>
<svg version="1.1" id="Layer_1"
xmlns="http://www.w3.org/2000/svg"
xmlns:xlink="http://www.w3.org/1999/xlink"
xmlns:author="http://www.sothink.com"
width="28px" height="10px"
xml:space="preserve">
<g id="309" transform="matrix(1, 0, 0, 1, 0, -6)">
<path style="fill:#FFFFFF;fill-opacity:1" d="M24,16L24 15L28 15L28 16L24 16M22,16L18 16L18 15L22 15L22 16M16,6L16 16L12 16L12 6L16 6M10,10L10 16L6 16L6 10L10 10M0,15.95L0 13L4 13L4 16L0 16L0 15.95" />
</g>
</svg>
