<?xml version="1.0" encoding="utf-8"?>
<svg version="1.1" id="Layer_1"
xmlns="http://www.w3.org/2000/svg"
xmlns:xlink="http://www.w3.org/1999/xlink"
xmlns:author="http://www.sothink.com"
width="28px" height="1px"
xml:space="preserve">
<g id="312" transform="matrix(1, 0, 0, 1, 0, -15)">
<path style="fill:#FFFFFF;fill-opacity:1" d="M22,16L18 16L18 15L22 15L22 16M24,16L24 15L28 15L28 16L24 16M10,15L10 16L6 16L6 15L10 15M0,15.95L0 15.75L0 15L4 15L4 16L0 16L0 15.95M16,15L16 16L12 16L12 15L16 15" />
</g>
</svg>
