<?xml version="1.0" encoding="utf-8"?>
<svg version="1.1" id="Layer_1"
xmlns="http://www.w3.org/2000/svg"
xmlns:xlink="http://www.w3.org/1999/xlink"
xmlns:author="http://www.sothink.com"
width="21px" height="25px"
xml:space="preserve">
<g id="282" transform="matrix(1, 0, 0, 1, 10, 13)">
<path style="fill:#FFFFFF;fill-opacity:1" d="M2.75,-12.7L2.8 -12.7L2.9 -12.55L10.5 -4.85L10.7 -4.7L11 -4L11 11L10.7 11.7L10 12L-9 12L-9.7 11.7L-10 11L-9.95 -11.95L-9.65 -12.65L-8.95 -12.95L2.05 -13L2.75 -12.7M1.05,-11L-7.95 -10.95L-8 10L9 10L9 -3L2 -3L1.3 -3.3L1 -4L1.05 -11M3,-5L7.6 -5L3.05 -9.6L3 -5" />
</g>
</svg>
