<?xml version="1.0" encoding="utf-8"?>
<svg version="1.1" id="Layer_1"
xmlns="http://www.w3.org/2000/svg"
xmlns:xlink="http://www.w3.org/1999/xlink"
xmlns:author="http://www.sothink.com"
width="156px" height="256px"
xml:space="preserve">
<g id="26" transform="matrix(1, 0, 0, 1, 0, 0)">
<path style="fill:#00295C;fill-opacity:1" d="M142.7,9.55L142.75 9.4L113.1 9.4L114.1 12.85Q115 16.95 114.2 20.15L95.45 83.1L77.55 142.3L59.7 83.1L40.9 20.15Q40.15 16.95 41 12.85Q41.45 10.8 42 9.4L12.45 9.4L12.5 9.55L12.85 10.6L22.5 43.1L23.75 47.3L35.65 87.4Q37.25 93.1 36.55 100.1Q36.2 103.55 35.5 105.9L39.65 110Q44 115 45.2 119.45L61.3 173.9Q47.45 176.15 38.85 181.5Q30.05 186.95 30.05 193.7Q30.05 201.95 42.65 208Q55.2 214.05 73.55 214.75L77.55 228.2L81.6 214.75Q100.1 214.1 112.8 208.05Q125.5 202 125.5 193.7Q125.5 186.9 116.6 181.45Q107.85 176.05 93.85 173.85L109.95 119.45Q111.15 115 115.5 110Q117.7 107.5 119.65 105.9Q119 103.55 118.6 100.1Q117.9 93.1 119.5 87.4L122.4 77.55L131.25 47.9L132.1 45L132.45 43.85L142.7 9.55M84.5,205.15L91.2 182.85Q102.15 184.1 108.95 187.05Q115.9 190.05 115.9 193.7Q115.9 197.95 106.9 201.2Q98 204.4 84.5 205.15M151.3,13.05Q136.25 63 129.45 86.35L129.4 86.4L128.4 89.9Q126.9 95.3 128.25 102.1L130.25 109.25L124.6 113.85Q122.65 115.7 121.15 117.7Q119.35 120.1 118.9 121.85L105.6 166.9Q119.35 170.7 127 177.75Q134.75 184.8 134.75 193.7Q134.75 199.25 131.65 204.25Q127.15 211.5 116.75 216.45Q105.05 222 88.6 223.55L77.55 256Q67.7 227.6 66.5 223.55Q50.2 221.95 38.6 216.35Q28.35 211.4 23.9 204.2Q20.8 199.2 20.8 193.7Q20.8 184.85 28.45 177.8Q36.05 170.85 49.6 167L36.25 121.85Q35.75 119.95 33.75 117.35L30.1 113.45L24.8 109.15L26.65 103.35L27.4 98.75Q27.85 93.8 26.8 89.95L15.35 51.3L3.85 12.9L3.8 12.8L3.75 12.5L3.65 12.25L0 0.15L56.15 0.15L50.6 12.9L50.05 14.7L50 14.95L50 15.2L49.8 17.1L49.85 17.7L49.9 17.95L50.7 20.75L77.55 110.3L104.3 21.15L105.25 17.95L105.3 17.65L105.3 17.2L105.35 17.05L105.35 16.85L105.3 16.7L105.3 16.2L105.25 15.95L105.25 15.9L105 14.5L105 14.45L104.95 14.3L104.55 12.9L98.9 0L155.15 0.15L151.3 13.05M70.65,205.1Q57.3 204.35 48.5 201.15Q39.6 197.95 39.6 193.7Q39.6 190.1 46.45 187.1Q53.15 184.2 64 182.9L70.65 205.1" />
<path style="fill:#D30F44;fill-opacity:1" d="M131.6,46.6L132.45 43.85L132.1 45L131.25 47.9L131.6 46.6M77.55,214.75L77.55 228.2L73.55 214.75L77.55 214.75M70.65,205.1L64 182.9L62.1 176.55L61.3 173.9L45.2 119.45Q44 115 39.65 110L35.5 105.9Q36.2 103.55 36.55 100.1Q37.25 93.1 35.65 87.4L23.75 47.3L22.5 43.1L12.85 10.6L12.5 9.55L12.45 9.4L42 9.4L28.15 18.3L77.55 182.45L77.55 142.3L95.45 83.1L114.2 20.15Q115 16.95 114.1 12.85L113.1 9.4L142.75 9.4L142.7 9.55Q134.9 13.95 127.05 18.3L77.55 182.45L77.55 205.3L70.65 205.1" />
<path style="fill:#98002E;fill-opacity:1" d="M93.15,176.2L93.05 176.55L91.15 182.85L91.2 182.85L84.5 205.15L77.75 205.3L77.55 205.3L77.55 182.45L127.05 18.3Q134.9 13.95 142.7 9.55L132.45 43.85L131.6 46.6L131.25 47.9L122.4 77.55L119.5 87.4Q117.9 93.1 118.6 100.1Q119 103.55 119.65 105.9Q117.7 107.5 115.5 110Q111.15 115 109.95 119.45L93.85 173.85L93.15 176.2M81.6,214.75L77.55 228.2L77.55 214.75L81.6 214.75" />
<path style="fill:#970032;fill-opacity:1" d="M77.55,182.45L28.15 18.3L42 9.4Q41.45 10.8 41 12.85Q40.15 16.95 40.9 20.15L59.7 83.1L77.55 142.3L77.55 182.45" />
<path style="fill:#D0D2D3;fill-opacity:1" d="M77.55,214.75L73.55 214.75Q55.2 214.05 42.65 208Q30.05 201.95 30.05 193.7Q30.05 186.95 38.85 181.5Q47.45 176.15 61.3 173.9L62.1 176.55L64 182.9Q53.15 184.2 46.45 187.1Q39.6 190.1 39.6 193.7Q39.6 197.95 48.5 201.15Q57.3 204.35 70.65 205.1L77.55 205.3L77.75 205.3L84.5 205.15Q98 204.4 106.9 201.2Q115.9 197.95 115.9 193.7Q115.9 190.05 108.95 187.05Q102.15 184.1 91.2 182.85L91.15 182.85L93.05 176.55L93.15 176.2L93.85 173.85Q107.85 176.05 116.6 181.45Q125.5 186.9 125.5 193.7Q125.5 202 112.8 208.05Q100.1 214.1 81.6 214.75L77.55 214.75" />
</g>
</svg>
