<?xml version="1.0" encoding="utf-8"?>
<svg version="1.1" id="Layer_1"
xmlns="http://www.w3.org/2000/svg"
xmlns:xlink="http://www.w3.org/1999/xlink"
xmlns:author="http://www.sothink.com"
width="404px" height="270px"
xml:space="preserve">
<g id="686" transform="matrix(1, 0, 0, 1, 227.35, 113.75)">
<path style="fill:#FF0000;fill-opacity:0.694118" d="M106.5,-105L106.55 -106.45L107 -107Q108.95 -107.15 115.9 -103.05Q121.7 -111.5 128 -113.5L129.7 -112.85Q130.5 -112.35 130.5 -110.75Q130.5 -109.3 125.15 -105.1Q122 -102.65 120.1 -100.5Q129.8 -94.3 132.5 -91Q132.4 -90 132.1 -89.45Q131.6 -88.5 130 -88.5Q128.35 -88.5 117.45 -96.6L115.6 -89.4Q114.35 -84.65 111 -82.5L109.2 -83.1Q108.5 -83.6 108.5 -85.25Q108.5 -90.9 113.6 -99.45L106.5 -105M18.5,-55.25Q59.55 -55.65 79.05 -37.35Q86.25 -30.6 89.75 -21.85Q92.5 -15 92.5 -8.6Q92.5 -1.1 91.05 3.1Q89 9.3 83 13.5L60 13.5Q44 11.35 28.15 0.8Q12.5 -9.55 12.5 -17.5Q12.5 -20.95 15.3 -25.2Q18.35 -29.75 23.75 -33.6Q37.05 -43.25 57 -43.75L57.85 -44.15Q58.9 -44.5 59.25 -44.75Q53.8 -47.7 37.05 -50.2Q20.5 -52.75 18.75 -53.75L18.5 -55.25M33,-3.25Q49.45 8.25 58.5 8.25L82.5 8Q84.1 6.05 85.9 -0.5Q87.5 -6.4 87.5 -8.5Q87.5 -25.6 76.55 -33.35Q67.3 -39.95 52.5 -38.7Q39.2 -37.6 28.45 -31.2Q17.5 -24.7 17.5 -17.5Q17.5 -16.1 22 -11.95Q26.6 -7.7 33 -3.25M2,-8.2Q1.55 -7.5 0 -7.5Q-5.45 -9 -10.85 -12.1L-11.55 -12.5Q-13.5 -9.8 -17 -7.5L-18.8 -8.3Q-19.5 -8.95 -19.5 -10.6L-17.5 -16.85Q-21.95 -21.1 -22.5 -26Q-19.8 -27.2 -14.7 -24.45L-14 -26.15Q-8.5 -38.95 -8.5 -26.1Q-8.5 -22.95 -8.75 -20.5Q-0.5 -14.25 2.5 -9.5L2 -8.2M158.3,-41.7Q158.2 -46 161 -47.5Q162.95 -45.9 163.4 -43.25L163.5 -38.75L163.5 -36.45Q170.2 -33.95 176.25 -29L176.5 -27.5L176 -26.2Q175.55 -25.5 174 -25.5Q172.25 -25.5 163.1 -29.95L163.05 -29.85Q161.8 -25 156 -19.5Q154.7 -19.95 154.2 -20.5Q153.5 -21.3 153.5 -23Q153.5 -25.5 155.5 -28.15Q156.9 -30.05 157.75 -32.5Q151 -35.65 147.75 -36.75L147.5 -38.25L158.65 -37.95L158.3 -41.7M15.25,1.25Q15.5 1.4 15.5 2.85Q15.5 4.6 12.5 9.3L21.5 16.5L20.1 18.75Q19.5 19.5 18.5 19.5Q15.1 19.5 9.3 14.35Q6.9 18.2 5.5 21L4 21.5Q2.1 20.85 1.65 19.5Q1.5 19.05 1.5 17.25Q1.5 14.35 4.35 9.5Q-0.5 4.5 -0.5 3.6Q-0.5 1.1 -0.25 1Q1.15 0.75 7.25 5.2Q11.25 0.1 15 1L15.25 1.25M-34.5,-62.5Q-34.5 -69.15 -24.95 -59Q-20.6 -64.15 -18 -65.5L-16.3 -65.05Q-15.5 -64.65 -15.5 -63.1Q-15.5 -61.7 -20.7 -54.3Q-14.1 -46.6 -12.5 -42.5L-13 -41.2Q-13.45 -40.5 -15 -40.5Q-19.8 -40.5 -25.55 -47.6Q-33.05 -37.5 -33.5 -37.5L-35.45 -37.75L-35.5 -38L-36.3 -38.45Q-36.5 -38.7 -36.5 -40.25Q-36.5 -43.8 -29.55 -53.2L-32.75 -58.8Q-34.5 -62.1 -34.5 -62.5M-69.5,95Q-69.5 97.6 -83.5 110.35L-85.45 110.1L-85.5 109.85L-86.3 109.4Q-86.5 109.15 -86.5 107.6Q-86.5 105.8 -82.5 101.6L-80.95 100.15L-99.3 105.65Q-117.55 111.35 -123.5 111.35L-123.9 111.35Q-110.5 125.8 -110.5 137L-110.3 140Q-110.35 142.05 -111.55 143.4Q-114.85 147.35 -128.5 147.35Q-158.35 147.35 -179.3 128.9L-179.45 128.75Q-184.15 133.35 -199.75 137.75L-189.2 143.55Q-177.75 149.55 -168 151.6L-167.75 151.25Q-167.5 151.2 -167.5 152.75Q-167.5 154.65 -168.95 155.1L-172.5 155.35Q-174.35 155.35 -195.5 145.45Q-216.35 135.65 -216.35 135.25Q-216.35 130.8 -208.45 125.65L-197 119.35Q-195.75 119.85 -195.3 120.35Q-194.5 121.2 -194.5 122.85Q-194.5 125.6 -198.25 128.6Q-202.2 131.75 -207.75 133.1L-205.95 134.15Q-202.75 132.15 -195.5 128.95L-184.1 124.25Q-188.4 119.65 -191.5 114.6Q-195.5 108.15 -195.5 104.85Q-195.5 92.65 -186.75 80.1L-186.25 79.6Q-191.05 79.3 -192.25 78.1L-192.5 76.6Q-192.5 76.05 -191.6 75.3L-191.35 75.1Q-196 74.15 -207.85 69.45Q-216.3 66.1 -220.15 63.9L-218.9 66.7Q-217.35 70.35 -217.35 71.1Q-217.35 73.6 -217.6 73.35L-217.9 73.85Q-218.3 74.35 -219.85 74.35Q-221.2 74.35 -224.4 67.1L-227.35 60Q-227.35 54.1 -225.1 56L-225.35 54.85Q-225.35 53.1 -224.95 52.65L-222.85 51.35L-207.85 50.15L-201 49.85L-200.75 50.15Q-200.5 50.3 -200.5 51.75Q-200.5 53.65 -201.6 54.45Q-202.5 55.1 -205.25 55.45Q-217.4 56.95 -222.85 58.35L-223.9 57.35L-222.4 59.65Q-217.35 60.25 -205.75 64.85L-186.5 72.35L-187.7 74.35Q-179.75 74.1 -175.4 71.9Q-173.9 71.1 -171.55 70.7L-171.8 70.55Q-172.5 69.9 -172.5 68.25Q-172.5 66.55 -161.3 61.1Q-150.95 56.05 -148.3 55.85Q-149.9 54.9 -152.85 53.65Q-156.2 52.2 -161.25 50.1L-161.5 48.6Q-156.55 43.9 -148.85 48Q-141.5 51.9 -141.5 57.5Q-141.5 60.65 -143.2 63.5Q-144.5 65.7 -148 69.35L-149.8 68.55Q-150.5 67.9 -150.5 66.25Q-150.5 65.2 -148.5 62.15Q-146.5 59.15 -146.5 57.6Q-146.5 57.05 -147.65 56.25Q-147.5 56.6 -147.5 57.75Q-147.5 61.35 -158.35 66.6Q-162.45 68.55 -166.9 70.25Q-163.85 70.1 -160 70.35L-158.3 70.8Q-157.5 71.2 -157.5 72.75Q-157.5 74.35 -158.35 74.9L-160 75.35L-169.5 75.85Q-143.25 92.45 -128.5 106.65L-126.5 108.65L-126.5 108.6Q-111.75 101.55 -100.75 98.65Q-93 96.65 -78.3 94.7Q-79.85 94.1 -82.3 93.5Q-87.2 92.25 -89.25 91.1L-89.5 89.6Q-83.45 86.9 -76.25 89.3Q-69.5 91.55 -69.5 95M-115.85,139.6Q-115.5 138.6 -115.5 136.6Q-115.5 131.85 -127.2 117.15Q-139.65 101.55 -153 90.95Q-169.15 78.05 -178.8 79.55Q-190.5 81.35 -190.5 104.6Q-190.5 107.7 -185.9 113.85Q-181.15 120.2 -174.05 126.35Q-155.75 142.1 -139.75 142.1L-117.5 141.85Q-116.25 140.8 -115.85 139.6" />
<path style="fill:#FF0000;fill-opacity:0.690196" d="M37.5,-113.75L43 -113.25L43.85 -113Q44.25 -112.85 44.25 -112.05Q44.25 -111.25 43.8 -110.95L43 -110.75L27.75 -111Q45.3 -95.55 49.3 -84.3Q51.1 -79.1 57.1 -71.4Q64.8 -61.45 67.25 -57.3L67 -57L66 -56.75Q62.1 -56.75 55.75 -66.7Q51.1 -74 47.25 -82.8Q41.3 -96.35 26.55 -108.55L26.75 -108.25L26.75 -101.8L26.4 -101.5L25.25 -101.25Q22.85 -101.25 22.3 -105.15Q22.05 -107.1 22.25 -109.15Q22.25 -112.75 23.5 -113.75L37.5 -113.75" />
</g>
</svg>
