<?xml version="1.0" encoding="utf-8"?>
<svg version="1.1" id="Layer_1"
xmlns="http://www.w3.org/2000/svg"
xmlns:xlink="http://www.w3.org/1999/xlink"
xmlns:author="http://www.sothink.com"
width="536px" height="379px"
xml:space="preserve">
<g id="688" transform="matrix(1, 0, 0, 1, 264.9, 195.7)">
<path style="fill:#000000;fill-opacity:0.4" d="M270.2,-155.25L258.3 28.55L258.3 176.8L248.7 176.8L248.3 183L152.6 176.8L-253.7 176.8L-253.7 150.5L-262.6 149.9L-253.7 12.45L-253.7 -162.15L-242.4 -162.15L-240.7 -188.35L163.75 -162.15L258.3 -162.15L258.3 -156L270.2 -155.25" />
<path style="fill:#000000;fill-opacity:1" d="M267.9,-162.6L246 175.65L-264.9 142.55L-243 -195.7L267.9 -162.6" />
<path style="fill:#000000;fill-opacity:1" d="M256,-169.5L256 169.45L-256 169.45L-256 -169.5L256 -169.5" />
<path style="fill:#FF0000;fill-opacity:0.694118" d="M-184.85,-117.9Q-162.05 -138.75 -113.1 -135.65L-111 -134.9Q-110.15 -134.4 -110.15 -132.4Q-110.15 -130.3 -111.2 -129.8L-114.05 -129.15L-123.4 -130.45L-135.2 -131.75Q-162.2 -131.75 -180.2 -110.85Q-186.35 -103.7 -190.35 -95.35Q-193.5 -88.7 -193.5 -85.95Q-193.5 -83.5 -190.25 -76.5Q-185.8 -66.85 -178.75 -58.8Q-157.05 -34.1 -120.25 -34.1Q-92.45 -34.1 -72.15 -53.3Q-64.45 -60.65 -59.75 -69.05Q-55.55 -76.65 -55.55 -81.55Q-55.55 -85.95 -66.85 -92.45Q-77.4 -98.55 -93.5 -104.15Q-109.95 -109.85 -124.6 -112.4Q-140.75 -115.25 -149.15 -113.1L-149.65 -113.7Q-150.15 -114.2 -150.15 -116.15Q-150.15 -118.35 -144.1 -119.9Q-138.65 -121.35 -132.6 -121.35Q-106.05 -121.35 -75.85 -105.1Q-64.15 -98.8 -56.3 -92.2Q-48.75 -85.9 -48.75 -82.85Q-48.75 -75.9 -53.35 -66.9Q-58.4 -57 -67.1 -48.7Q-89.15 -27.6 -121.35 -27.6Q-160.2 -27.6 -183.75 -54.6Q-191.6 -63.55 -196.5 -74.15Q-200.2 -82.15 -200.2 -85.15Q-200.2 -92.45 -197.15 -100.15Q-193.15 -110.3 -184.85 -117.9" />
</g>
</svg>
