<?xml version="1.0" encoding="utf-8"?>
<svg version="1.1" id="Layer_1"
xmlns="http://www.w3.org/2000/svg"
xmlns:xlink="http://www.w3.org/1999/xlink"
xmlns:author="http://www.sothink.com"
width="58px" height="63px"
xml:space="preserve">
<g id="699" transform="matrix(1, 0, 0, 1, -12.3, -7.1)">
<path style="fill:#000000;fill-opacity:0.8" d="M69.8,43.8Q69.8 53.5 66.5 59Q59.95 69.8 41.3 69.8Q22.45 69.8 15.55 55.3Q13.35 50.7 12.6 45.05Q12.3 42.65 12.3 39.75Q12.3 30.35 14.9 25.25Q19.6 16.05 33.85 11.15L21.95 10.45L20.85 10Q20.4 9.7 20.4 8.65Q20.4 6.45 26.95 7.4L48.2 10.45Q63.75 23.65 66.85 28.45Q68.8 31.5 69.35 35.1Q69.8 37.75 69.8 43.8M63.8,28.55Q58.35 20.75 37.75 13.7Q23.1 17.65 18.2 26Q15.4 30.75 15.4 39.6Q15.4 47.95 18.55 54.2Q24.8 66.55 41.4 66.55Q59.7 66.55 64.95 55.6Q67.65 50 66.65 43.6L66.5 35.85Q66 31.7 63.8 28.55" />
</g>
</svg>
