<?xml version="1.0" encoding="utf-8"?>
<svg version="1.1" id="Layer_1"
xmlns="http://www.w3.org/2000/svg"
xmlns:xlink="http://www.w3.org/1999/xlink"
xmlns:author="http://www.sothink.com"
width="648px" height="402px"
xml:space="preserve">
<g id="689" transform="matrix(1, 0, 0, 1, 389.65, 180.2)">
<path style="fill:#000000;fill-opacity:0.4" d="M-254,-178.2L258 -178.2L258 144.95L-254 144.95L-254 -178.2" />
<path style="fill:#000000;fill-opacity:1" d="M256,142.95L-256 142.95L-256 -180.2L256 -180.2L256 142.95" />
<path style="fill:#000000;fill-opacity:0.4" d="M79.75,221.6L-113.75 221.6L-113.8 125.95L79.7 125.9L79.75 221.6" />
<path style="fill:#000000;fill-opacity:1" d="M77.3,219.2L-116.2 219.15L-116.25 123.55L77.25 123.5L77.3 219.2" />
<path style="fill:#000000;fill-opacity:0.4" d="M-95.75,-107.65L-123.5 79L-388 39.7L-360.25 -146.95L-95.75 -107.65" />
<path style="fill:#000000;fill-opacity:1" d="M-97.45,-109.9L-125.2 76.75L-389.65 37.4L-361.9 -149.25L-97.45 -109.9" />
<path style="fill:#FF0000;fill-opacity:0.690196" d="M146.55,-5Q147.65 -6.45 152.5 -7.1L169.5 -7.8L179.05 -6.55L188.55 -5.3L199.75 -6.55L210.9 -7.8Q211.5 -7.8 213.55 -6.85Q216.1 -5.7 218.1 -4.05Q217.75 -2 217.25 -1.45Q216.5 -0.6 213.6 -0.95Q235.5 2.25 242.65 14.05Q246.55 20.45 246.55 34.05Q246.55 35.6 245.4 44.05Q244.2 52.45 244.2 54.05Q242.35 63.5 237.05 72.45Q226.5 90.3 209.35 90.3Q185.8 90.3 165.65 70Q158.55 62.8 153.6 54.8Q149.35 48 149.35 45.45Q149.35 37.2 150.1 33.65Q151 29.25 154.05 25.45Q155.95 23.05 160.1 19.2L105.75 23.9L95.4 24.95L98.05 29.4Q105.75 43.6 105.75 59.5Q105.75 73.45 100.3 83.05Q91.4 98.75 68.75 102.5L20.15 106.7L-0.9 108.55Q-43.9 108.55 -73.35 75Q-83.8 63.1 -90.4 49.3Q-95.9 37.85 -95.9 32.15Q-95.9 18.85 -87.55 9.55Q-75.6 -3.7 -46.25 -10.6L-44 -10.25Q-42.95 -9.9 -42.95 -7.95Q-42.95 -5.9 -43.9 -5.15Q-44.25 -4.85 -45.75 -4.5Q-70.3 -0.2 -81.7 12.95Q-89.65 22.15 -89.65 32.8Q-89.65 37.65 -84.3 48.1Q-77.95 60.5 -68.2 71.4Q-40.55 102 -2.65 102L8.4 101.05L70.9 95.6Q87.2 93.05 94.65 78.95Q99.5 69.7 99.5 59.05Q99.5 44.5 91.8 31.3L88.2 25.75L70.45 27.9L38.9 31.05Q44.3 32.95 51.25 35.85Q67.65 42.7 75.9 47.95L74.9 50.45Q73.9 52.15 70.6 52.15Q48.9 42.3 41.25 39.65Q25.05 34.45 22.45 33.1Q20.7 32.15 20.25 30.65Q20 29.7 20 26.05Q20 21.95 33.75 15.25Q46.9 8.8 51.85 9.2Q51.85 9.4 52.25 9.5Q52.65 9.55 52.65 11.4Q52.65 14.05 42.45 18.7Q30.4 24.1 27.65 27L27.5 27.65L31.9 28.75Q31.4 28.1 31.4 27.3Q31.4 25.6 37.9 24.25L55.45 21.7L82.9 19.35Q76.3 12.25 67.25 6.2Q29.7 -19 -41.25 -21.7L-75 -18.9L-86.85 -15.6L-89.5 -18Q-90.3 -18.75 -90.3 -19.2Q-90.3 -21.25 -82.75 -23.45L-73.9 -25.6L-44.05 -28.1Q33.25 -25.4 72.7 2.1Q83.45 9.6 90.8 18.65L168.35 11.95L182.15 0L166.75 -1.1L147 -1.85L146.55 -5M238.15,21.85Q235.75 14.65 232.5 11.7Q225.4 5.25 211 2.3Q197.3 -0.55 189.2 2Q182.3 7 176.9 11.35L193.75 10.15L195.95 10.45Q197 10.8 197 12.8Q197 14.8 196.05 15.55L194.2 16.25L168.6 18.5Q162.9 23.75 160.25 27.7Q157.3 32.05 156.4 36.85Q155.75 40.15 155.75 46.7Q155.75 57.3 171.8 66.75Q178.4 70.6 208.75 83.75L220.3 82.5Q230.4 77.25 236 58.15Q240.15 44.05 240.15 32.15Q240.15 28.05 238.15 21.85" />
</g>
</svg>
