<?xml version="1.0" encoding="utf-8"?>
<svg version="1.1" id="Layer_1"
xmlns="http://www.w3.org/2000/svg"
xmlns:xlink="http://www.w3.org/1999/xlink"
xmlns:author="http://www.sothink.com"
width="325px" height="273px"
xml:space="preserve">
<g id="690" transform="matrix(1, 0, 0, 1, 132.15, 93.95)">
<path style="fill:#000000;fill-opacity:0.4" d="M134.2,-91.95L134.2 96L-130.15 96L-130.15 -91.95L134.2 -91.95" />
<path style="fill:#000000;fill-opacity:1" d="M132.2,-93.95L132.2 94L-132.15 94L-132.15 -93.95L132.2 -93.95" />
<path style="fill:#FF0000;fill-opacity:0.694118" d="M191.35,155.95Q192.15 157.7 192.15 158.4Q192.15 165.9 191.05 168.75Q190.25 170.85 188.8 172.25L190 175L189.5 177.3Q188.9 178.25 186.85 178.25L184.3 174.6L180.6 175Q178.4 175 174.55 173.95Q170.9 172.95 170.15 172.3Q169.8 171.4 169.8 168.4L173.2 168.05Q176 167.85 180.1 167.95L172.65 155.9Q157.35 130.85 150.6 122.65Q144.15 114.75 135.05 106.1L121.35 93.35Q114.65 86.7 111.65 81.2Q107.95 74.45 107.95 66.55Q107.95 60.95 128.65 85.65Q139.3 98.35 152.95 115.6Q170.8 134.6 184.65 163.25L184.65 162.8Q184.65 160.85 186.4 156.75Q188.1 152.85 188.9 152.3Q190.3 153.75 191.35 155.95" />
</g>
</svg>
