<?xml version="1.0" encoding="utf-8"?>
<svg version="1.1" id="Layer_1"
xmlns="http://www.w3.org/2000/svg"
xmlns:xlink="http://www.w3.org/1999/xlink"
xmlns:author="http://www.sothink.com"
width="78px" height="21px"
xml:space="preserve">
<g id="1941" transform="matrix(1, 0, 0, 1, 0, 0)">
<path style="fill:#FFFFFF;fill-opacity:1" d="M77.95,3.95L77.95 16.95L77.7 18.5L77.3 19.15L76.8 19.7L75.55 20.55L74.8 20.75L73.95 20.8L23.75 20.8L23.75 0L74.05 0Q75.7 0 76.85 1.2Q77.95 2.25 77.95 3.95M73.5,8.3L73.45 8.05L73.25 7.65L73 7.3L72.75 7L72.1 6.55L71.7 6.45L71.25 6.35L70.85 6.35L70.6 6.35L70.2 6.3L68.2 6.3L66.65 14.2L69.25 14.2L70.7 14.1L71.5 13.75L72.1 13.4L73.25 11.85Q73.7 10.8 73.7 9.6L73.55 8.5L73.5 8.3M72.1,8.85L72.15 9.6L72.1 10.45L72 10.85L71.85 11.2L71.1 12.4L70.4 12.8L69.95 12.9L69.2 12.95L68.45 12.95L69.45 7.65L70.35 7.65L71.3 7.75L71.9 8.3L72.1 8.85M62.6,7.65L66.55 7.65L66.75 6.3L61.35 6.3L59.8 14.2L65.5 14.2L65.8 12.85L61.5 12.85L61.95 10.75L65.8 10.75L66.05 9.45L62.2 9.45L62.6 7.65M58.4,6.3L56.85 14.2L58.35 14.2L59.9 6.3L58.4 6.3M53.4,7.65L57.1 7.65L57.3 6.3L52.15 6.3L50.6 14.2L52.1 14.2L52.8 10.8L56.35 10.8L56.6 9.55L53.05 9.55L53.4 7.65M44.8,7.65L45.7 7.8Q46.05 8 46.05 8.45L45.8 9.1L45.2 9.65L43.55 9.75L42.75 9.75L43.15 7.65L44.8 7.65M44.55,12.1L44.85 12.75L45.05 13.3L45.2 13.8L45.35 14.2L46.95 14.2L46.65 13.4L46.35 12.7L46.1 12.1L45.85 11.55L45.55 11.15L45.3 10.8Q46.4 10.7 47 10.05Q47.6 9.35 47.6 8.4Q47.6 7.75 47.25 7.2L46.5 6.5L45.15 6.3L41.95 6.3L40.35 14.2L41.9 14.2L42.55 10.9L43.1 10.9L43.9 11.05L44.55 12.1M49.25,14.2L50.75 6.3L49.25 6.3L47.7 14.2L49.25 14.2M35.05,6.3L33.5 14.2L39.2 14.2L39.5 12.85L35.2 12.85L35.65 10.75L39.45 10.75L39.75 9.45L35.9 9.45L36.25 7.65L40.25 7.65L40.45 6.3L35.05 6.3M32.85,6.3L29.8 12.25L28.9 6.3L27.35 6.3L28.65 14.2L30.3 14.2L34.35 6.3L32.85 6.3M22.4,20.8L4 20.8L3.15 20.75L2.4 20.55L1.15 19.7L0.3 18.45Q0 17.75 0 16.95L0 3.95Q0 3.05 0.35 2.4Q0.6 1.6 1.2 1.15Q1.7 0.65 2.45 0.3L4 0L22.4 0L22.4 20.8M13.6,4.35L11.65 3.95L7.3 3.9L5.5 12.45L7.8 12.45L8.45 9.35L9.95 9.35Q11.1 9.35 11.1 10.45L11.1 10.9L11.1 11.25L11.05 11.6L11.05 11.95L11.05 12.3L11.2 12.65L12.85 14.4L11.4 17.45L14.45 15.65L16.7 17.4L16.3 14.5L18.9 12.65L16 12.65L15.6 9.85L13.85 12.65L13.55 12.65L13.35 12.1L13.3 11.8L13.25 11.5L13.25 11.2L13.3 10.8L13.3 10.4L13.35 10L13.15 9L12.4 8.55L12.4 8.5Q13.45 8.35 13.95 7.75Q14.4 7.1 14.4 6.15Q14.4 4.8 13.6 4.35M11.8,5.85Q12.15 6 12.15 6.55Q12.15 7.25 11.75 7.5L10.65 7.75L8.85 7.75L9.25 5.7L10.95 5.7L11.8 5.85" />
</g>
</svg>
