<?xml version="1.0" encoding="utf-8"?>
<svg version="1.1" id="Layer_1"
xmlns="http://www.w3.org/2000/svg"
xmlns:xlink="http://www.w3.org/1999/xlink"
xmlns:author="http://www.sothink.com"
width="80px" height="295px"
xml:space="preserve">
<g id="1236" transform="matrix(1, 0, 0, 1, 1.7, 245.25)">
<path style="fill:#000000;fill-opacity:1" d="M76.4,-1.25L76.4 4.75L0.35 4.75L0.35 -1.25L76.4 -1.25" />
<path style="fill:#FFFFFF;fill-opacity:1" d="M31.25,-245.25L33.05 -245.2L34 -239.6Q55.6 -115.25 59.7 30.3Q66.7 9.1 75.05 -0.45L78.05 2.15Q68 13.8 59.95 43.35L58.4 48.9L56.15 48.65L56 42.85Q52.7 -103.5 31.75 -228.7Q10.3 -127.4 2.8 -6.5Q2.55 -3.1 2.45 4.15L-1.7 4.15L-1.2 -6.5Q6.65 -133.9 30.05 -239.65L31.25 -245.25" />
</g>
</svg>
