<?xml version="1.0" encoding="utf-8"?>
<svg version="1.1" id="Layer_1"
xmlns="http://www.w3.org/2000/svg"
xmlns:xlink="http://www.w3.org/1999/xlink"
xmlns:author="http://www.sothink.com"
width="512px" height="616px"
xml:space="preserve">
<g id="94" transform="matrix(1, 0, 0, 1, 390.4, 554.95)">
<path style="fill:#424242;fill-opacity:1" d="M120.1,-173.95L102.1 -91.95L92.1 -68.45L79.1 -46.45L52.1 -12.45L16.6 17.55Q-3.4 29.05 -23.9 40.05L-34.9 45.05Q-51.4 49.55 -67.9 53.55Q-79.4 56.55 -91.4 59.05L-116.9 61.05L-229.4 61.05L-229.4 8.55L-390.4 8.55L-389.4 -319.95L-371.4 -401.95L-348.4 -447.95L-321.4 -481.45Q-312.4 -489.45 -303.9 -497.95L-265.9 -523.95L-234.4 -538.95Q-214.4 -543.95 -194.4 -549.45L-153.4 -554.45Q-96.9 -554.45 -40.4 -554.95L-40.4 -502.45L121.1 -502.45L121.1 -183.45L120.1 -173.95" />
<path style="fill:#959595;fill-opacity:1" d="M88.6,-265.45L51.1 -265.45L51.1 -277.45L49.1 -277.45L49.1 -263.45L54.1 -263.45L54.1 -217.95L39.6 -217.95L39.6 -215.95L58.6 -215.95L58.6 -225.95L116.1 -225.95L116.1 -183.45L105.6 -182.45Q105.6 -178.95 105.1 -175.45L117.1 -173.95Q114.1 -152.95 110.6 -131.95Q105.1 -111.95 99.1 -92.45L89.1 -94.45Q88.1 -91.45 86.6 -88.45L86.6 -87.95L95.6 -82.95L87.6 -66.95Q76.6 -48.95 65.1 -31.45Q57.6 -22.45 49.6 -13.95Q45.6 -16.95 41.1 -19.95L36.6 -14.95L42.6 -6.95L10.6 18.05L-26.4 39.05L-26.9 38.55L-31.9 30.05L-37.9 33.05L-35.9 41.55L-35.9 42.55L-75.4 53.55L-116.9 58.55L-118.9 49.05L-125.9 49.05L-126.9 59.55L-209.9 59.55Q-210.4 55.05 -211.4 50.05L-219.9 49.55L-219.9 2.55L-211.9 2.55L-211.9 -4.95L-220.9 -4.95L-220.9 -27.45L-222.4 -27.45L-222.4 -2.95L-319.9 -2.95L-319.9 -72.45L-316.4 -72.45L-316.4 -79.95L-319.9 -79.95L-319.9 -100.95L-300.9 -100.95L-300.9 -101.95L-287.9 -101.95L-287.9 -100.95L-222.4 -100.95L-222.4 -40.45L-220.9 -40.45L-220.9 -72.95L-198.9 -72.95L-198.9 -96.45L-52.9 -96.45L-52.9 -109.45L-11.4 -109.45L-11.4 -126.45L-13.9 -126.45L-13.9 -111.95L-54.9 -111.95L-54.9 -99.45L-198.9 -99.45L-198.9 -149.45L-186.4 -149.45L-186.4 -152.45L-197.9 -152.45L-197.9 -170.45L-199.4 -170.45L-199.4 -160.45L-304.9 -160.45L-304.9 -287.95L-199.4 -287.95L-199.4 -276.95L-197.9 -276.95L-197.9 -324.95L-186.4 -324.95L-186.4 -327.45L-198.9 -327.45L-198.9 -335.45L-206.4 -335.45L-206.4 -327.45L-242.9 -327.45L-242.9 -310.45L-316.4 -310.45L-316.4 -317.95L-323.4 -317.95L-323.4 -364.95L-315.9 -364.95L-315.9 -366.45L-296.4 -366.45L-296.4 -368.45L-315.9 -368.45L-315.9 -369.95L-323.4 -369.95L-323.4 -412.95L-316.4 -412.95L-316.4 -421.45L-271.9 -421.45L-271.9 -369.95L-273.9 -369.95L-273.9 -368.45L-284.9 -368.45L-284.9 -366.45L-273.9 -366.45L-273.9 -364.95L-265.9 -364.95L-265.9 -366.45L-254.9 -366.45L-254.9 -368.45L-265.9 -368.45L-265.9 -369.95L-267.9 -369.95L-267.9 -421.45L-231.4 -421.45Q-218.9 -418.95 -206.4 -416.95L-206.4 -412.95L-203.9 -412.95L-203.9 -369.95L-205.9 -369.95L-205.9 -368.45L-242.4 -368.45L-242.4 -366.45L-205.9 -366.45L-205.9 -364.95L-198.4 -364.95L-198.4 -369.95L-200.4 -369.95L-200.4 -412.95L-198.9 -412.95L-198.9 -421.45L-178.4 -421.45L-178.4 -416.95L-153.4 -416.95L-153.4 -421.45L-137.4 -421.45L-137.4 -369.95L-138.9 -369.95L-138.9 -364.95L-130.4 -364.95L-130.4 -366.45L-120.4 -366.45L-120.4 -368.45L-130.4 -368.45L-130.4 -369.95L-132.9 -369.95L-132.9 -421.45L-96.4 -421.45L-96.4 -416.95L-71.4 -416.95L-71.4 -412.95L-63.9 -412.95L-63.9 -369.95L-71.4 -369.95L-71.4 -368.45L-107.9 -368.45L-107.9 -366.45L-71.4 -366.45L-71.4 -364.95L-63.4 -364.95L-63.4 -356.45L-60.9 -356.45L-60.9 -377.95L29.1 -377.95L29.1 -380.45L-5.4 -380.45L-5.4 -389.45L-59.9 -389.45L-59.9 -432.45L48.6 -432.45L48.6 -380.45L39.6 -380.45L39.6 -377.95L49.1 -377.95L49.1 -338.95L39.6 -338.95L39.6 -335.95L49.1 -335.95L49.1 -290.45L51.1 -290.45L51.1 -305.95L88.6 -305.95L88.6 -265.45M-149.4,-327.45L-173.4 -327.45L-173.4 -324.95L-159.9 -324.95L-159.9 -250.95L-163.9 -250.95L-163.9 -152.45L-173.4 -152.45L-173.4 -149.45L-108.4 -149.45L-108.4 -152.45L-112.4 -152.45L-112.4 -215.95L-87.9 -215.95L-87.9 -212.95L-85.4 -212.95L-85.4 -215.95L-67.4 -215.95L-67.4 -219.95L-45.4 -222.45L-18.4 -219.95L-18.4 -215.95L-3.9 -215.95L-3.9 -181.45L-16.4 -181.45L-16.4 -179.45L-14.9 -179.45L-14.9 -151.95L-29.9 -151.95L-29.9 -179.45L-28.4 -179.45L-28.4 -181.45L-32.9 -181.45L-32.9 -179.45L-31.4 -179.45L-31.4 -151.95L-47.9 -151.95L-47.9 -179.45L-46.4 -179.45L-46.4 -181.45L-50.9 -181.45L-50.9 -179.45L-49.4 -179.45L-49.4 -151.95L-65.9 -151.95L-65.9 -179.45L-64.4 -179.45L-64.4 -181.45L-68.9 -181.45L-68.9 -179.45L-67.4 -179.45L-67.4 -151.95L-83.4 -151.95L-83.4 -179.45L-82.4 -179.45L-82.4 -181.45L-85.4 -181.45L-85.4 -199.95L-87.9 -199.95L-87.9 -152.45L-95.4 -152.45L-95.4 -149.45L-71.4 -149.45L-71.4 -147.95L-63.9 -147.95L-63.9 -149.45L-13.9 -149.45L-13.9 -142.45L-11.4 -142.45L-11.4 -176.45L-1.4 -176.45L-1.4 -215.95L27.1 -215.95L27.1 -217.95L-1.4 -217.95L-1.4 -283.45L-3.4 -283.45L-3.4 -298.45L-1.4 -298.45L-1.4 -313.45L-3.4 -313.45L-3.4 -327.95L-1.4 -327.95L-1.4 -335.95L26.1 -335.95L26.1 -338.95L-40.4 -338.95L-40.4 -335.45L-60.9 -335.45L-60.9 -343.45L-63.4 -343.45L-63.4 -335.45L-71.4 -335.45L-71.4 -327.95L-148.9 -327.95Q-148.9 -327.45 -149.4 -327.45M-199.4,-263.95L-199.4 -182.95L-197.9 -182.95L-197.9 -263.95L-199.4 -263.95M58.6,-176.45L58.6 -182.45L39.6 -184.45Q39.6 -183.45 39.1 -182.95L51.1 -181.95Q51.1 -179.45 50.6 -176.95L58.6 -176.45M-63.4,-72.45L-63.4 -79.95L-70.9 -79.95L-70.9 -72.45L-63.4 -72.45M-122.9,-17.45L-121.9 -5.45L-126.4 -4.95Q-125.9 -0.95 -125.9 2.55L-119.4 2.05L-121.4 -17.45L-122.9 -17.45M-56.4,-10.45L-50.4 -13.45L-58.9 -30.95L-60.4 -29.95L-55.4 -19.45L-59.4 -17.45L-56.4 -10.45M43.6,-107.45L46.1 -113.45Q37.6 -117.45 28.6 -121.45L27.6 -119.95L38.6 -114.95L36.6 -109.95Q40.1 -108.45 43.6 -107.45M7.6,-53.45L-5.9 -66.95L-7.4 -65.95L1.1 -57.45L-2.4 -54.45L3.1 -48.95Q5.6 -50.95 7.6 -53.45" />
<path style="fill:#6F6F6F;fill-opacity:1" d="M-271.9,-369.95L-277.4 -369.95L-277.4 -394.95L-271.9 -394.95L-271.9 -369.95" />
<path style="fill:#6F6F6F;fill-opacity:1" d="M-271.9,-395.95L-277.4 -395.95L-277.4 -420.45L-271.9 -420.45L-271.9 -395.95" />
<path style="fill:#6F6F6F;fill-opacity:1" d="M-316.9,-406.45L-323.4 -406.45L-323.4 -412.45L-316.9 -412.45L-316.9 -406.45" />
<path style="fill:#6F6F6F;fill-opacity:1" d="M-318.4,-339.45L-323.4 -339.45L-323.4 -364.95L-318.4 -364.95L-318.4 -339.45" />
<path style="fill:#6F6F6F;fill-opacity:1" d="M-207.9,-327.95L-232.4 -327.95L-232.4 -332.95L-207.9 -332.95L-207.9 -327.95" />
<path style="fill:#6F6F6F;fill-opacity:1" d="M-99.9,-327.95L-136.4 -327.95L-136.4 -333.95L-99.9 -333.95L-99.9 -327.95" />
<path style="fill:#6F6F6F;fill-opacity:1" d="M-136.9,-327.95L-149.9 -327.95L-149.9 -333.95L-136.9 -333.95L-136.9 -327.95" />
<path style="fill:#6F6F6F;fill-opacity:1" d="M-313.4,-397.45Q-317.9 -396.45 -322.4 -395.95L-323.4 -404.95L-314.4 -406.45L-313.4 -397.45" />
<path style="fill:#6F6F6F;fill-opacity:1" d="M-262.9,-384.45L-267.9 -384.45L-267.9 -409.45L-262.9 -409.45L-262.9 -384.45" />
<path style="fill:#6F6F6F;fill-opacity:1" d="M-161.9,-374.95L-171.4 -374.95L-171.4 -403.45L-161.9 -403.45L-161.9 -374.95" />
<path style="fill:#6F6F6F;fill-opacity:1" d="M-74.9,-384.45L-99.9 -384.45L-99.9 -395.95L-74.9 -395.95L-74.9 -384.45" />
<path style="fill:#6F6F6F;fill-opacity:1" d="M-127.9,-370.45L-132.9 -370.45L-132.9 -395.45L-127.9 -395.45L-127.9 -370.45" />
<path style="fill:#6F6F6F;fill-opacity:1" d="M-126.9,-406.95L-132.9 -406.95L-132.9 -412.95L-126.9 -412.95L-126.9 -406.95" />
<path style="fill:#6F6F6F;fill-opacity:1" d="M-116.9,-414.95L-122.9 -414.95L-122.9 -421.45L-116.9 -421.45L-116.9 -414.95" />
<path style="fill:#6F6F6F;fill-opacity:1" d="M-213.9,-384.45L-239.4 -384.45L-239.4 -395.95L-213.9 -395.95L-213.9 -384.45" />
<path style="fill:#6F6F6F;fill-opacity:1" d="M-293.9,-381.95L-319.4 -381.95L-319.4 -392.95L-293.9 -392.95L-293.9 -381.95" />
<path style="fill:#6F6F6F;fill-opacity:1" d="M-204.9,-396.45L-213.9 -396.45L-213.9 -405.45L-204.9 -405.45L-204.9 -396.45" />
<path style="fill:#6F6F6F;fill-opacity:1" d="M-206.4,-416.95L-231.4 -416.95L-231.4 -421.45L-206.4 -421.45L-206.4 -416.95" />
<path style="fill:#6F6F6F;fill-opacity:1" d="M-153.4,-416.95L-178.4 -416.95L-178.4 -421.45L-153.4 -421.45L-153.4 -416.95" />
<path style="fill:#6F6F6F;fill-opacity:1" d="M-290.9,-416.45L-315.9 -416.45L-315.9 -421.45L-290.9 -421.45L-290.9 -416.45" />
<path style="fill:#6F6F6F;fill-opacity:1" d="M-154.4,-328.95L-162.9 -328.95L-162.9 -336.45L-154.4 -336.45L-154.4 -328.95" />
<path style="fill:#6F6F6F;fill-opacity:1" d="M-74.4,-327.95L-98.9 -327.95L-98.9 -332.45L-74.4 -332.45L-74.4 -327.95" />
<path style="fill:#6F6F6F;fill-opacity:1" d="M-63.9,-369.95L-66.4 -369.95L-66.4 -394.95L-63.9 -394.95L-63.9 -369.95" />
<path style="fill:#6F6F6F;fill-opacity:1" d="M-65.4,-395.95L-74.4 -396.95L-73.4 -406.45L-64.4 -405.45L-65.4 -395.95" />
<path style="fill:#6F6F6F;fill-opacity:1" d="M-103.9,-409.95L-112.9 -410.95L-111.9 -420.45L-102.9 -419.45L-103.9 -409.95" />
<path style="fill:#6F6F6F;fill-opacity:1" d="M-71.9,-416.45L-96.4 -416.45L-96.4 -421.45L-71.9 -421.45L-71.9 -416.45" />
<path style="fill:#6F6F6F;fill-opacity:1" d="M-5.9,-374.95L-59.9 -374.95L-59.9 -377.95L-5.9 -377.95L-5.9 -374.95" />
<path style="fill:#6F6F6F;fill-opacity:1" d="M20.6,-380.45L-5.4 -380.45L-5.4 -391.45L20.6 -391.45L20.6 -380.45" />
<path style="fill:#6F6F6F;fill-opacity:1" d="M-5.4,-387.45L-59.9 -387.45L-59.9 -390.45L-5.4 -390.45L-5.4 -387.45" />
<path style="fill:#6F6F6F;fill-opacity:1" d="M48.6,-428.45L-59.9 -428.45L-59.9 -432.45L48.6 -432.45L48.6 -428.45" />
<path style="fill:#6F6F6F;fill-opacity:1" d="M-57.9,-397.95L-61.4 -397.95L-61.4 -424.95L-57.9 -424.95L-57.9 -397.95" />
<path style="fill:#6F6F6F;fill-opacity:1" d="M112.6,-197.95L106.6 -197.95L106.6 -210.45L112.6 -210.45L112.6 -197.95" />
<path style="fill:#6F6F6F;fill-opacity:1" d="M112.6,-211.45L103.6 -210.45Q103.6 -215.45 103.1 -220.45L111.6 -220.95L112.6 -211.45" />
<path style="fill:#6F6F6F;fill-opacity:1" d="M84.1,-165.45L59.6 -167.45L60.6 -177.95L85.1 -175.95L84.1 -165.45" />
<path style="fill:#6F6F6F;fill-opacity:1" d="M59.1,-167.45L49.6 -167.95Q50.1 -171.95 50.1 -176.45L59.6 -175.95Q59.6 -171.45 59.1 -167.45" />
<path style="fill:#6F6F6F;fill-opacity:1" d="M-1.4,-213.95L4.1 -213.95L4.1 -188.95L-1.4 -188.95L-1.4 -213.95" />
<path style="fill:#6F6F6F;fill-opacity:1" d="M5.1,-182.45L-1.4 -182.45L-1.4 -188.45L5.1 -188.45L5.1 -182.45" />
<path style="fill:#6F6F6F;fill-opacity:1" d="M-4.4,-170.45L-10.9 -170.45L-10.9 -176.45L-4.4 -176.45L-4.4 -170.45" />
<path style="fill:#6F6F6F;fill-opacity:1" d="M-4.9,-163.95L-10.4 -163.95L-10.4 -169.45L-4.9 -169.45L-4.9 -163.95" />
<path style="fill:#6F6F6F;fill-opacity:1" d="M106.6,-134.45L95.6 -136.45L100.6 -160.45L111.6 -158.45L106.6 -134.45" />
<path style="fill:#6F6F6F;fill-opacity:1" d="M100.6,-108.45L89.1 -110.95Q92.6 -122.95 95.6 -134.95L106.6 -131.95L100.6 -108.45" />
<path style="fill:#6F6F6F;fill-opacity:1" d="M68.1,-101.45Q57.1 -106.45 46.1 -111.95Q48.6 -116.45 50.6 -121.45L72.6 -110.45Q70.6 -105.95 68.1 -101.45" />
<path style="fill:#6F6F6F;fill-opacity:1" d="M62.1,-88.95L39.6 -100.95Q42.6 -105.45 45.1 -110.45L67.6 -98.45Q65.1 -93.45 62.1 -88.95" />
<path style="fill:#6F6F6F;fill-opacity:1" d="M90.1,-85.95Q87.6 -80.95 84.6 -76.45Q73.6 -82.45 62.1 -88.45Q65.1 -92.95 67.6 -97.95L90.1 -85.95" />
<path style="fill:#6F6F6F;fill-opacity:1" d="M48.1,-119.95L46.1 -114.45L40.1 -116.45Q41.6 -118.95 42.6 -121.95L48.1 -119.95" />
<path style="fill:#6F6F6F;fill-opacity:1" d="M0.1,-57.95L-4.4 -53.95L-8.4 -58.45L-3.9 -62.45L0.1 -57.95" />
<path style="fill:#6F6F6F;fill-opacity:1" d="M13.1,-61.45Q10.6 -57.95 7.6 -54.45L1.6 -59.45L7.1 -66.45L13.1 -61.45" />
<path style="fill:#6F6F6F;fill-opacity:1" d="M33.6,-45.45L27.6 -37.45Q18.1 -45.45 8.1 -53.45L14.1 -61.45L33.6 -45.45" />
<path style="fill:#6F6F6F;fill-opacity:1" d="M24.6,-33.95L17.1 -26.95L-0.4 -44.95L7.1 -51.95L24.6 -33.95" />
<path style="fill:#6F6F6F;fill-opacity:1" d="M0.6,5.55L6.6 15.55Q-4.4 22.05 -15.4 28.05Q-17.9 23.05 -20.9 18.05Q-9.9 12.05 0.6 5.55" />
<path style="fill:#6F6F6F;fill-opacity:1" d="M22.6,-9.95Q26.1 -4.95 29.1 0.05Q19.1 7.05 8.6 14.05L2.1 4.55Q12.6 -2.45 22.6 -9.95" />
<path style="fill:#6F6F6F;fill-opacity:1" d="M-47.4,12.55Q-51.9 14.55 -56.9 16.05L-65.9 -7.45Q-60.9 -8.95 -56.4 -10.95L-47.4 12.55" />
<path style="fill:#6F6F6F;fill-opacity:1" d="M-33.4,7.05Q-37.9 9.55 -42.4 11.55L-53.4 -11.45Q-48.4 -13.45 -43.9 -15.45L-33.4 7.05" />
<path style="fill:#6F6F6F;fill-opacity:1" d="M-44.9,-17.45Q-47.4 -15.95 -50.4 -14.95L-52.9 -20.45Q-50.4 -21.45 -47.9 -22.95L-44.9 -17.45" />
<path style="fill:#6F6F6F;fill-opacity:1" d="M-122.4,-5.95L-128.9 -5.95L-128.9 -11.95L-122.4 -11.95L-122.4 -5.95" />
<path style="fill:#6F6F6F;fill-opacity:1" d="M-212.9,41.55L-218.9 41.55L-218.9 35.55L-212.9 35.55L-212.9 41.55" />
<path style="fill:#6F6F6F;fill-opacity:1" d="M-212.9,48.55L-218.9 48.55L-218.9 42.55L-212.9 42.55L-212.9 48.55" />
<path style="fill:#6F6F6F;fill-opacity:1" d="M-38.4,37.05Q-42.9 39.05 -47.9 40.55L-56.9 17.05Q-51.9 15.55 -47.4 13.55L-38.4 37.05" />
<path style="fill:#6F6F6F;fill-opacity:1" d="M-109.4,26.05L-119.4 27.05Q-120.4 15.05 -121.9 2.55L-111.4 1.55L-109.4 26.05" />
<path style="fill:#6F6F6F;fill-opacity:1" d="M-123.9,27.55L-135.4 27.55Q-135.4 15.05 -135.9 2.55L-123.9 2.55L-123.9 27.55" />
<path style="fill:#6F6F6F;fill-opacity:1" d="M-161.9,54.55L-186.9 54.55Q-186.9 49.55 -187.4 44.55Q-174.4 44.55 -161.9 44.05L-161.9 54.55" />
<path style="fill:#6F6F6F;fill-opacity:1" d="M-233.4,-89.95L-259.9 -89.95L-259.9 -59.95L-271.4 -59.95L-271.4 -100.95L-222.4 -100.95L-222.4 -72.95L-233.4 -72.95L-233.4 -89.95" />
<path style="fill:#6F6F6F;fill-opacity:1" d="M-213.9,35.05L-218.9 35.05L-218.9 10.55L-213.9 10.55L-213.9 35.05" />
<path style="fill:#6F6F6F;fill-opacity:1" d="M-135.9,54.05Q-148.4 54.55 -161.4 54.55L-161.4 44.55L-136.4 43.55Q-135.9 49.05 -135.9 54.05" />
<path style="fill:#6F6F6F;fill-opacity:1" d="M-106.9,52.05L-117.4 52.55L-119.4 28.05L-109.4 27.05Q-107.9 39.55 -106.9 52.05" />
<path style="fill:#6F6F6F;fill-opacity:1" d="M53.6,-28.95L47.1 -20.95L27.6 -36.95L34.1 -44.95L53.6 -28.95" />
<path style="fill:#6F6F6F;fill-opacity:1" d="M100.1,-106.45L96.1 -94.45L90.6 -96.45Q92.6 -102.45 94.1 -108.45L100.1 -106.45" />
<path style="fill:#6F6F6F;fill-opacity:1" d="M78.6,-58.45Q75.1 -52.95 71.6 -47.95Q69.1 -49.45 66.6 -51.45L73.6 -61.45L78.6 -58.45" />
<path style="fill:#6F6F6F;fill-opacity:1" d="M71.6,-46.45Q68.1 -41.45 64.1 -36.95L59.1 -40.45L67.1 -50.45Q69.6 -48.45 71.6 -46.45" />
<path style="fill:#6F6F6F;fill-opacity:1" d="M-76.4,-88.95L-85.9 -88.95L-85.9 -96.45L-76.4 -96.45L-76.4 -88.95" />
<path style="fill:#6F6F6F;fill-opacity:1" d="M-165.4,-88.95L-175.4 -88.95L-175.4 -95.95L-165.4 -95.95L-165.4 -88.95" />
<path style="fill:#6F6F6F;fill-opacity:1" d="M-154.4,-99.45L-182.9 -99.45L-182.9 -108.45L-154.4 -108.45L-154.4 -99.45" />
<path style="fill:#6F6F6F;fill-opacity:1" d="M-115.4,-99.45L-143.9 -99.45L-143.9 -108.45L-115.4 -108.45L-115.4 -99.45" />
<path style="fill:#6F6F6F;fill-opacity:1" d="M-76.4,-99.45L-104.9 -99.45L-104.9 -108.45L-76.4 -108.45L-76.4 -99.45" />
<path style="fill:#6F6F6F;fill-opacity:1" d="M-145.4,-90.45L-157.4 -90.45L-157.4 -95.95L-145.4 -95.95L-145.4 -90.45" />
<path style="fill:#6F6F6F;fill-opacity:1" d="M-132.4,-90.45L-144.4 -90.45L-144.4 -95.95L-132.4 -95.95L-132.4 -90.45" />
<path style="fill:#6F6F6F;fill-opacity:1" d="M-93.4,-90.45L-105.4 -90.45L-105.4 -95.95L-93.4 -95.95L-93.4 -90.45" />
<path style="fill:#6F6F6F;fill-opacity:1" d="M-106.4,-90.45L-130.4 -90.45L-130.4 -95.95L-106.4 -95.95L-106.4 -90.45" />
<path style="fill:#6F6F6F;fill-opacity:1" d="M-185.9,-89.95L-197.9 -89.95L-197.9 -95.95L-185.9 -95.95L-185.9 -89.95" />
<path style="fill:#6F6F6F;fill-opacity:1" d="M-28.9,-104.45L-52.9 -104.45L-52.9 -109.45L-28.9 -109.45L-28.9 -104.45" />
<path style="fill:#6F6F6F;fill-opacity:1" d="M-18.4,-217.45L-67.4 -217.45L-67.4 -224.95L-18.4 -224.95L-18.4 -217.45" />
<path style="fill:#6F6F6F;fill-opacity:1" d="M-319.9,-69.95L-311.4 -69.95L-311.4 -33.95L-319.9 -33.95L-319.9 -69.95" />
<path style="fill:#6F6F6F;fill-opacity:1" d="M-319.9,-28.95L-317.4 -28.95L-317.4 -14.95L-319.9 -14.95L-319.9 -28.95" />
<path style="fill:#6F6F6F;fill-opacity:1" d="M-297.4,-13.45L-297.4 -2.95L-319.9 -2.95L-319.9 -13.45L-297.4 -13.45" />
<path style="fill:#6F6F6F;fill-opacity:1" d="M-296.4,-11.95L-288.4 -11.95L-288.4 -3.95L-296.4 -3.95L-296.4 -11.95" />
<path style="fill:#6F6F6F;fill-opacity:1" d="M-277.9,-10.45L-277.9 -8.95L-252.4 -8.95L-252.4 -18.95L-251.4 -18.95L-251.4 -19.95L-247.4 -20.95L-245.9 -20.95L-242.9 -19.95L-242.9 -18.95L-241.9 -18.95L-241.9 -2.95L-287.4 -2.95L-287.4 -10.45L-277.9 -10.45" />
<path style="fill:#6F6F6F;fill-opacity:1" d="M60.1,-224.95L85.1 -224.95L85.1 -212.95L60.1 -212.95L60.1 -224.95" />
<path style="fill:#6F6F6F;fill-opacity:1" d="M52.6,-228.95L50.6 -228.95L50.6 -235.45L52.6 -235.45L52.6 -228.95" />
<path style="fill:#6F6F6F;fill-opacity:1" d="M-164.4,-163.95L-166.9 -163.95L-166.9 -170.45L-164.4 -170.45L-164.4 -163.95" />
<path style="fill:#6F6F6F;fill-opacity:1" d="M-164.4,-236.45L-166.9 -236.45L-166.9 -242.45L-164.4 -242.45L-164.4 -236.45" />
<path style="fill:#6F6F6F;fill-opacity:1" d="M-28.4,-112.95L-34.9 -112.95L-34.9 -115.45L-28.4 -115.45L-28.4 -112.95" />
<path style="fill:#6F6F6F;fill-opacity:1" d="M80.1,-297.95L52.6 -297.95L52.6 -305.95L80.1 -305.95L80.1 -297.95" />
<path style="fill:#6F6F6F;fill-opacity:1" d="M88.6,-270.95L80.1 -270.95L80.1 -298.45L88.6 -298.45L88.6 -270.95" />
<path style="fill:#6F6F6F;fill-opacity:1" d="M-233.9,-231.45L-236.4 -235.95L-240.4 -239.95Q-242.4 -240.95 -244.9 -242.45Q-247.4 -242.95 -250.4 -243.95L-255.9 -243.95L-260.9 -241.95L-265.4 -238.95L-269.4 -234.95L-271.4 -229.95L-272.4 -224.45Q-271.9 -221.95 -271.9 -219.45L-269.9 -213.95Q-267.9 -211.95 -266.4 -209.95Q-264.4 -207.95 -262.4 -206.45L-257.4 -204.45L-251.9 -203.95L-246.4 -204.95Q-243.9 -205.95 -241.4 -207.45Q-239.4 -208.95 -237.4 -210.95L-234.4 -215.45Q-233.4 -217.95 -232.9 -220.45Q-232.4 -222.95 -232.4 -225.95Q-232.9 -228.45 -233.9 -231.45M-221.9,-226.95L-221.9 -218.95Q-222.9 -214.95 -224.4 -210.95Q-226.4 -207.45 -228.9 -203.95Q-231.9 -200.95 -235.4 -198.45Q-238.9 -196.45 -242.9 -194.95Q-246.9 -193.95 -250.9 -193.45L-259.4 -194.45L-267.4 -197.45L-273.9 -202.45Q-276.4 -205.45 -278.9 -208.95L-281.9 -216.95L-282.9 -224.95Q-281.9 -228.95 -281.4 -233.45Q-279.4 -236.95 -277.9 -240.95Q-274.9 -243.95 -272.4 -246.95L-265.4 -251.45Q-261.4 -252.45 -257.4 -253.95L-248.9 -254.45L-240.9 -252.45L-233.9 -248.45L-227.9 -242.45L-223.9 -235.45L-221.9 -226.95" />
<path style="fill:#6F6F6F;fill-opacity:1" d="M-226.9,-160.45L-251.9 -160.45L-251.9 -165.45L-226.9 -165.45L-226.9 -160.45" />
<path style="fill:#6F6F6F;fill-opacity:1" d="M-252.9,-160.45L-277.4 -160.45L-277.4 -165.45L-252.9 -165.45L-252.9 -160.45" />
<path style="fill:#6F6F6F;fill-opacity:1" d="M-226.9,-282.95L-251.9 -282.95L-251.9 -287.95L-226.9 -287.95L-226.9 -282.95" />
<path style="fill:#6F6F6F;fill-opacity:1" d="M-252.9,-282.95L-277.4 -282.95L-277.4 -287.95L-252.9 -287.95L-252.9 -282.95" />
<path style="fill:#6F6F6F;fill-opacity:1" d="M-210.4,-273.95Q-211.4 -273.95 -212.4 -274.45L-213.9 -275.95L-213.9 -277.95L-212.4 -278.95L-210.4 -278.95L-208.9 -277.45L-208.9 -275.45Q-209.4 -274.45 -210.4 -273.95" />
<path style="fill:#6F6F6F;fill-opacity:1" d="M-246.4,-312.95L-248.4 -312.95L-249.9 -314.45L-249.9 -316.45Q-248.9 -316.95 -248.4 -317.95L-246.4 -317.95L-244.9 -316.45L-244.9 -313.95L-246.4 -312.95" />
<path style="fill:#6F6F6F;fill-opacity:1" d="M-188.4,-408.45L-190.4 -408.45Q-190.9 -408.95 -191.4 -409.95L-191.4 -411.95Q-190.4 -412.45 -189.9 -413.45Q-188.9 -412.95 -187.9 -412.95L-186.4 -411.45Q-186.4 -410.45 -186.9 -409.45L-188.4 -408.45" />
<path style="fill:#6F6F6F;fill-opacity:1" d="M-144.4,-409.95L-145.4 -409.95L-146.4 -410.95L-146.4 -411.95L-145.4 -412.95L-143.9 -412.95Q-143.4 -412.45 -143.4 -411.95L-143.4 -410.45Q-143.9 -409.95 -144.4 -409.95" />
<path style="fill:#6F6F6F;fill-opacity:1" d="M-186.9,-106.95L-188.9 -106.95L-189.9 -108.95L-189.9 -110.95L-188.4 -111.95L-186.4 -111.95L-184.9 -110.45Q-184.9 -109.45 -185.4 -108.45Q-185.9 -107.45 -186.9 -106.95" />
<path style="fill:#6F6F6F;fill-opacity:1" d="M-64.9,-107.45L-67.4 -107.95Q-67.9 -108.45 -68.4 -109.45L-68.4 -111.45L-66.9 -112.45L-64.9 -112.45L-63.4 -110.95L-63.4 -108.95Q-63.9 -107.95 -64.9 -107.45" />
<path style="fill:#6F6F6F;fill-opacity:1" d="M-297.4,-164.95L-299.4 -164.95L-300.9 -166.45Q-300.4 -167.45 -300.4 -168.45L-299.4 -169.45L-297.4 -169.45L-295.9 -167.95Q-295.9 -166.95 -296.4 -165.95L-297.4 -164.95" />
<path style="fill:#6F6F6F;fill-opacity:1" d="M-207.4,-167.95L-208.4 -167.95Q-208.4 -168.45 -208.9 -168.95L-208.9 -169.95L-207.9 -170.95L-206.9 -170.95Q-206.4 -170.45 -206.4 -169.95L-206.4 -168.95L-207.4 -167.95" />
<path style="fill:#6F6F6F;fill-opacity:1" d="M-147.9,-104.95L-148.9 -104.95L-149.9 -105.95L-149.9 -106.95L-148.9 -107.95L-147.4 -107.95Q-146.9 -107.45 -146.9 -106.95L-146.9 -105.45Q-147.4 -104.95 -147.9 -104.95" />
<path style="fill:#6F6F6F;fill-opacity:1" d="M-109.9,-107.95L-108.4 -107.95Q-107.9 -107.45 -107.9 -106.95L-107.9 -105.45Q-108.4 -104.95 -108.9 -104.95L-109.9 -104.95L-110.9 -105.95L-109.9 -107.95" />
<path style="fill:#6F6F6F;fill-opacity:1" d="M-296.4,-273.95Q-296.9 -273.95 -297.4 -274.45L-297.9 -274.95L-297.9 -276.45Q-297.4 -276.95 -297.4 -277.45L-295.9 -276.95Q-295.4 -276.45 -294.9 -276.45Q-294.9 -275.45 -295.4 -274.95L-296.4 -273.95" />
<path style="fill:#6F6F6F;fill-opacity:1" d="M-73.9,-154.95L-74.9 -153.95L-73.9 -153.95L-73.9 -151.95L-78.4 -151.95L-78.4 -153.95L-77.4 -153.95L-78.4 -154.95L-78.4 -157.45L-76.9 -158.45L-75.4 -158.45L-73.9 -156.95L-73.9 -154.95" />
<path style="fill:#6F6F6F;fill-opacity:1" d="M-55.9,-154.95L-56.9 -153.95L-55.9 -153.95L-55.9 -151.95L-59.9 -151.95L-59.9 -153.95L-58.9 -153.95L-59.9 -154.95L-59.9 -157.45L-58.9 -158.45L-56.9 -158.45L-55.9 -156.95L-55.9 -154.95" />
<path style="fill:#6F6F6F;fill-opacity:1" d="M-37.9,-154.95L-38.9 -153.95L-37.9 -153.95L-37.9 -151.95L-41.9 -151.95L-41.9 -153.95L-40.9 -153.95L-41.9 -154.95L-41.9 -157.45L-40.9 -158.45L-38.9 -158.45L-37.9 -156.95L-37.9 -154.95" />
<path style="fill:#6F6F6F;fill-opacity:1" d="M-19.9,-154.95L-20.9 -153.95L-19.9 -153.95L-19.9 -151.95L-24.4 -151.95L-24.4 -153.95L-23.4 -153.95L-24.4 -154.95L-24.4 -157.45L-22.9 -158.45L-21.4 -158.45L-19.9 -156.95L-19.9 -154.95" />
<path style="fill:#6F6F6F;fill-opacity:1" d="M-3.9,-207.95L-7.4 -207.95L-7.4 -214.45L-3.9 -214.45L-3.9 -207.95" />
<path style="fill:#6F6F6F;fill-opacity:1" d="M-3.9,-199.45L-7.4 -199.45L-7.4 -205.95L-3.9 -205.95L-3.9 -199.45" />
<path style="fill:#6F6F6F;fill-opacity:1" d="M-3.9,-190.95L-7.4 -190.95L-7.4 -197.45L-3.9 -197.45L-3.9 -190.95" />
<path style="fill:#6F6F6F;fill-opacity:1" d="M-3.9,-182.45L-7.4 -182.45L-7.4 -188.95L-3.9 -188.95L-3.9 -182.45" />
<path style="fill:#6F6F6F;fill-opacity:1" d="M-52.9,-335.95L-5.4 -335.95L-5.4 -275.95L-21.9 -275.95L-21.9 -272.95L-31.9 -272.95L-31.9 -275.95L-52.9 -275.95L-52.9 -335.95" />
<path style="fill:#6F6F6F;fill-opacity:1" d="M-3.9,-335.95L-3.9 -275.95L-21.9 -275.95L-21.9 -272.95L-31.9 -272.95L-31.9 -275.95L-52.9 -275.95L-52.9 -335.95L-3.9 -335.95" />
<path style="fill:#959595;fill-opacity:1" d="M-35.4,-306.95L-35.4 -333.95L-6.4 -333.95L-6.4 -306.95L-35.4 -306.95" />
<path style="fill:#FFFFFF;fill-opacity:1" d="M-35.4,-277.45L-35.4 -303.95L-6.4 -303.95L-6.4 -297.95L-3.9 -297.95L-3.9 -283.45L-6.4 -283.45L-6.4 -277.45L-35.4 -277.45" />
</g>
</svg>
