<?xml version="1.0" encoding="utf-8"?>
<svg version="1.1" id="Layer_1"
xmlns="http://www.w3.org/2000/svg"
xmlns:xlink="http://www.w3.org/1999/xlink"
xmlns:author="http://www.sothink.com"
width="512px" height="616px"
xml:space="preserve">
<g id="92" transform="matrix(1, 0, 0, 1, 390.4, 554.95)">
<path style="fill:#424242;fill-opacity:1" d="M120.1,-173.95L102.1 -91.95L92.1 -68.45L79.1 -46.45L52.1 -12.45L16.6 17.55Q-3.4 29.05 -23.9 40.05L-34.9 45.05Q-51.4 49.55 -67.9 53.55Q-79.4 56.55 -91.4 59.05L-116.9 61.05L-229.4 61.05L-229.4 8.55L-390.4 8.55L-389.4 -319.95L-371.4 -401.95L-348.4 -447.95L-321.4 -481.45Q-312.4 -489.45 -303.9 -497.95L-265.9 -523.95L-234.4 -538.95Q-214.4 -543.95 -194.4 -549.45L-153.4 -554.45Q-96.9 -554.45 -40.4 -554.95L-40.4 -502.45L121.1 -502.45L121.1 -183.45L120.1 -173.95" />
<path style="fill:#959595;fill-opacity:1" d="M54.05,-273L54.05 -218L39.55 -218L39.55 -216L51.55 -216Q51.55 -196 51.05 -176.5L43.05 -129.5L45.55 -129L53.55 -176.5L58.55 -176.5L58.55 -177.5L75.55 -177.5L75.55 -181L58.55 -181L58.55 -182.5L53.55 -183Q54.05 -199.5 54.05 -216L58.55 -216L58.55 -226L118.05 -226L118.05 -183.5L105.55 -182.5L105.55 -181L88.55 -181L88.55 -177.5L105.55 -177.5L105.55 -175.5L117.05 -174Q116.55 -167.5 115.55 -161.5Q110.55 -136.5 105.05 -111.5L99.05 -92.5L89.55 -94.5Q89.05 -93.5 88.55 -93L45.05 -112Q45.55 -112.5 45.55 -113L40.55 -115L41.55 -117L39.05 -117.5Q37.55 -113.5 35.55 -109.5Q37.05 -108.5 38.55 -108L39.55 -109.5L43.55 -107.5Q44.05 -108 44.05 -109L87.55 -90L86.55 -88Q91.05 -85.5 95.05 -83.5Q91.55 -75 87.55 -67Q76.55 -49 65.05 -31.5Q57.55 -22.5 49.55 -14L41.55 -20L40.05 -19L6.55 -52.5L7.55 -53.5L4.05 -56.5Q9.55 -62.5 14.55 -69L32.55 -96L30.05 -97.5L11.55 -69.5Q7.05 -64 2.05 -59Q-0.95 -55.5 -4.45 -52.5L-26.95 -35.5Q-33.95 -31 -40.95 -27L-39.95 -25Q-32.45 -29 -25.45 -33.5Q-12.45 -43 0.05 -53L3.05 -49L4.55 -50L37.55 -17L36.55 -15L42.55 -7L12.55 16.5Q-6.95 28 -26.45 39L-31.45 30.5L-33.45 31L-52.45 -12.5Q-51.45 -12.5 -50.95 -13L-54.95 -20Q-57.95 -18.5 -61.45 -17.5L-60.45 -15.5Q-59.45 -15.5 -58.45 -16L-56.45 -10.5Q-55.45 -10.5 -54.95 -11Q-45.45 10.5 -36.45 32L-37.95 33L-35.95 42.5L-67.95 51.5Q-81.45 54.5 -95.45 57L-116.95 58.5L-118.95 49L-120.95 49Q-120.95 25.5 -121.45 2L-119.95 2L-119.95 -3Q-95.95 -7 -72.45 -11.5Q-72.45 -12.5 -72.95 -13.5L-119.95 -5.5L-153.45 -5.5L-153.45 -3L-126.45 -3Q-125.95 0 -125.95 2.5Q-124.95 2.5 -124.45 2Q-123.95 25.5 -123.95 49L-125.95 49L-126.95 59.5L-167.45 59.5L-167.45 -3L-165.95 -3L-165.95 -5.5L-171.45 -5.5L-171.45 -3L-169.95 -3L-169.95 59.5L-210.45 59.5Q-210.95 54.5 -211.95 49L-219.95 49L-219.95 2.5L-211.45 2.5Q-211.45 0 -211.95 -3L-183.95 -3L-183.95 -5.5L-220.95 -5.5L-220.95 -27.5L-222.45 -27.5L-222.45 -3L-319.95 -3L-319.95 -57.5L-297.45 -57.5L-297.45 -59.5L-319.95 -59.5L-319.95 -73L-316.45 -73L-316.45 -80L-319.95 -80L-319.95 -143L-316.45 -143L-316.45 -144L-297.45 -144L-297.45 -145.5L-287.95 -145.5L-287.95 -144L-278.45 -144L-278.45 -124L-274.95 -124L-274.95 -143L-252.45 -143Q-237.95 -138.5 -223.45 -134.5Q-212.95 -118.5 -202.45 -103L-274.95 -103L-274.95 -109.5L-278.45 -109.5L-278.45 -59.5L-287.95 -59.5L-287.95 -57.5L-222.45 -57.5L-222.45 -40.5L-220.95 -40.5L-220.95 -57.5L-136.45 -57.5L-136.45 -59.5L-198.95 -59.5L-198.95 -97L-122.45 -97L-122.45 -59.5L-123.45 -59.5L-123.45 -57.5L-119.95 -57.5L-119.95 -97L-53.95 -97L-53.95 -114L-21.45 -114L-21.45 -162.5L-23.45 -162.5L-23.45 -116.5L-58.45 -116.5L-58.45 -176.5L-23.45 -176.5L-23.45 -175.5L-21.45 -175.5L-21.45 -176.5L-0.95 -176.5L-0.95 -180.5L-3.45 -180.5L-3.45 -178.5L-53.45 -178.5L-53.45 -216L-3.45 -216L-3.45 -193.5L-0.95 -193.5L-0.95 -216L13.05 -216L13.05 -218L-1.45 -218L-1.45 -283.5L-3.95 -283.5L-3.95 -298L-1.45 -298L-1.45 -313.5L-3.95 -313.5L-3.95 -328L-1.45 -328L-1.45 -336L49.05 -336L49.05 -273L54.05 -273M-63.95,-73L-63.95 -80L-70.95 -80L-70.95 -73L-63.95 -73" />
<path style="fill:#6F6F6F;fill-opacity:1" d="M-175.4,-70.95L-186.4 -70.45L-187.4 -95.95L-176.4 -96.45L-175.4 -70.95" />
<path style="fill:#6F6F6F;fill-opacity:1" d="M-151.9,-90.45L-163.4 -89.95Q-163.4 -92.95 -163.9 -95.95L-152.4 -96.45Q-151.9 -93.45 -151.9 -90.45" />
<path style="fill:#6F6F6F;fill-opacity:1" d="M-138.9,-90.45L-150.9 -89.95L-150.9 -95.95L-138.9 -95.95L-138.9 -90.45" />
<path style="fill:#6F6F6F;fill-opacity:1" d="M-138.9,48.05L-149.4 48.55Q-149.4 36.05 -149.9 23.05L-138.9 23.05L-138.9 48.05" />
<path style="fill:#6F6F6F;fill-opacity:1" d="M-92.9,50.55L-103.4 52.05Q-105.4 40.05 -107.9 27.55L-97.4 25.55Q-94.9 38.05 -92.9 50.55" />
<path style="fill:#6F6F6F;fill-opacity:1" d="M-98.9,23.05L-106.9 24.55Q-107.4 20.55 -108.4 16.55Q-103.9 16.05 -99.9 15.05L-98.9 23.05" />
<path style="fill:#6F6F6F;fill-opacity:1" d="M-44.9,15.55L-49.9 17.05L-53.9 6.05Q-51.4 5.55 -48.9 4.55L-44.9 15.55" />
<path style="fill:#6F6F6F;fill-opacity:1" d="M-41.9,21.05Q-44.4 22.05 -47.4 23.05L-49.4 18.05Q-46.9 17.05 -44.4 15.55Q-42.9 18.55 -41.9 21.05" />
<path style="fill:#6F6F6F;fill-opacity:1" d="M-192.4,48.55L-203.4 48.55L-203.4 23.55L-192.4 23.55L-192.4 48.55" />
<path style="fill:#6F6F6F;fill-opacity:1" d="M-10.9,8.05Q-21.4 14.55 -32.4 20.55L-37.4 11.55Q-26.9 5.55 -16.4 -0.95Q-13.4 3.55 -10.9 8.05" />
<path style="fill:#6F6F6F;fill-opacity:1" d="M25.1,-18.45Q15.6 -10.45 5.6 -2.45L-0.9 -10.45L18.6 -26.45L25.1 -18.45" />
<path style="fill:#6F6F6F;fill-opacity:1" d="M44.1,-35.45L24.1 -49.45L30.6 -58.45L50.1 -43.95L44.1 -35.45" />
<path style="fill:#6F6F6F;fill-opacity:1" d="M61.6,-35.45L56.6 -38.45L64.6 -49.45L69.1 -45.95Q65.6 -40.45 61.6 -35.45" />
<path style="fill:#6F6F6F;fill-opacity:1" d="M-76.4,-90.45L-89.4 -90.45L-89.4 -96.95L-76.4 -96.95L-76.4 -90.45" />
<path style="fill:#6F6F6F;fill-opacity:1" d="M-61.9,-90.45L-73.4 -90.45L-73.4 -96.95L-61.9 -96.95L-61.9 -90.45" />
<path style="fill:#6F6F6F;fill-opacity:1" d="M74.1,-142.95L49.6 -147.45L51.6 -157.45L76.1 -153.45L74.1 -142.95" />
<path style="fill:#6F6F6F;fill-opacity:1" d="M66.1,-218.95L60.1 -218.95L60.1 -225.45L66.1 -225.45L66.1 -218.95" />
<path style="fill:#6F6F6F;fill-opacity:1" d="M73.6,-218.95L67.6 -218.95L67.6 -225.45L73.6 -225.45L73.6 -218.95" />
<path style="fill:#6F6F6F;fill-opacity:1" d="M-31.9,-128.95L-56.9 -128.95L-56.9 -139.45L-31.9 -139.45L-31.9 -128.95" />
<path style="fill:#6F6F6F;fill-opacity:1" d="M-24.4,-108.45L-48.9 -108.45L-48.9 -112.45L-24.4 -112.45L-24.4 -108.45" />
<path style="fill:#6F6F6F;fill-opacity:1" d="M-26.9,-189.95L-37.4 -189.95L-37.4 -214.95L-26.9 -214.95L-26.9 -189.95" />
<path style="fill:#6F6F6F;fill-opacity:1" d="M-270.4,-30.95L-270.4 -2.95L-319.9 -2.95L-319.9 -30.45L-307.9 -30.45L-307.9 -14.95L-281.4 -14.95L-281.4 -30.95L-270.4 -30.95" />
<path style="fill:#6F6F6F;fill-opacity:1" d="M-245.9,-19.95L-245.9 -18.95L-244.9 -18.95L-244.9 -2.95L-255.4 -2.95L-255.4 -18.95L-254.4 -18.95L-254.4 -19.95L-250.4 -20.95L-248.9 -20.95L-245.9 -19.95" />
<path style="fill:#6F6F6F;fill-opacity:1" d="M52.6,-227.95L50.1 -227.95L50.1 -235.45L52.6 -235.45L52.6 -227.95" />
<path style="fill:#6F6F6F;fill-opacity:1" d="M47.1,-211.45Q47.6 -210.45 48.1 -209.95Q48.1 -208.95 47.6 -208.45L46.6 -207.45L45.1 -207.45Q44.6 -207.95 43.6 -208.45L43.1 -209.95Q43.6 -210.45 44.1 -211.45Q45.1 -211.45 45.6 -211.95Q46.6 -211.45 47.1 -211.45" />
<path style="fill:#6F6F6F;fill-opacity:1" d="M6.6,-210.45Q7.1 -209.95 7.6 -209.95L8.6 -208.95Q8.6 -207.95 8.1 -207.45L7.1 -206.45L6.1 -206.45L5.1 -207.45L4.6 -208.95Q5.1 -209.45 5.1 -209.95Q6.1 -209.95 6.6 -210.45" />
<path style="fill:#6F6F6F;fill-opacity:1" d="M-52.9,-335.95L-5.4 -335.95L-5.4 -275.95L-21.9 -275.95L-21.9 -272.95L-31.9 -272.95L-31.9 -275.95L-52.9 -275.95L-52.9 -335.95" />
<path style="fill:#6F6F6F;fill-opacity:1" d="M-3.9,-335.95L-3.9 -275.95L-21.9 -275.95L-21.9 -272.95L-31.9 -272.95L-31.9 -275.95L-52.9 -275.95L-52.9 -335.95L-3.9 -335.95" />
<path style="fill:#959595;fill-opacity:1" d="M-35.4,-306.95L-35.4 -333.95L-6.4 -333.95L-6.4 -306.95L-35.4 -306.95" />
<path style="fill:#FFFFFF;fill-opacity:1" d="M-35.4,-277.45L-35.4 -303.95L-6.4 -303.95L-6.4 -297.95L-3.9 -297.95L-3.9 -283.45L-6.4 -283.45L-6.4 -277.45L-35.4 -277.45" />
<path style="fill:#FFFFFF;fill-opacity:1" d="M-252.4,-142.95L-202.4 -142.95L-202.4 -102.95L-250.4 -102.95L-250.4 -122.45L-225.4 -122.45L-225.4 -123.95L-252.4 -123.95L-252.4 -142.95" />
</g>
</svg>
