<?xml version="1.0" encoding="utf-8"?>
<svg version="1.1" id="Layer_1"
xmlns="http://www.w3.org/2000/svg"
xmlns:xlink="http://www.w3.org/1999/xlink"
xmlns:author="http://www.sothink.com"
width="512px" height="616px"
xml:space="preserve">
<g id="99" transform="matrix(1, 0, 0, 1, 390.4, 746.95)">
<path style="fill:#424242;fill-opacity:1" d="M92.1,-260.45L79.1 -238.45L52.1 -204.45Q43.6 -195.95 34.6 -187.95L-3.4 -161.95L-34.9 -146.95Q-54.9 -141.45 -74.9 -136.45L-125.9 -130.95L-229.4 -130.95L-229.4 -183.45L-390.4 -183.45L-389.4 -511.95Q-385.9 -531.95 -382.9 -552.45Q-376.9 -572.95 -371.4 -593.95L-348.4 -639.95L-321.4 -673.45Q-312.4 -681.45 -303.9 -689.95L-265.9 -715.95L-234.4 -730.95Q-214.4 -735.95 -194.4 -741.45L-153.4 -746.45Q-96.9 -746.45 -40.4 -746.95L-40.4 -694.45L121.1 -694.45L120.1 -365.95Q114.6 -335.95 108.6 -306.45Q105.6 -294.95 102.1 -283.95L92.1 -260.45" />
<path style="fill:#6F6F6F;fill-opacity:1" d="M-227.4,-405.95L-227.4 -345.95L-248.9 -345.95L-248.9 -343.45L-258.4 -343.45L-258.4 -345.95L-275.4 -345.95L-275.4 -405.95L-227.4 -405.95" />
<path style="fill:#939393;fill-opacity:1" d="M-229.4,-348.45L-243.4 -348.45L-243.4 -403.45L-229.4 -403.45L-229.4 -348.45" />
</g>
</svg>
