<?xml version="1.0" encoding="utf-8"?>
<svg version="1.1" id="Layer_1"
xmlns="http://www.w3.org/2000/svg"
xmlns:xlink="http://www.w3.org/1999/xlink"
xmlns:author="http://www.sothink.com"
width="512px" height="616px"
xml:space="preserve">
<g id="95" transform="matrix(1, 0, 0, 1, 390.45, 554.95)">
<path style="fill:#424242;fill-opacity:1" d="M92.05,-68.45L79.05 -46.45L52.05 -12.45Q43.55 -3.95 34.55 4.05L-3.45 30.05Q-18.95 37.55 -34.95 45.05L-74.95 55.55L-125.95 61.05L-229.45 61.05L-229.45 8.55L-390.45 8.55L-389.45 -319.95Q-385.95 -339.95 -382.95 -360.45Q-376.95 -380.95 -371.45 -401.95L-348.45 -447.95Q-334.95 -464.45 -321.45 -481.45Q-312.45 -489.45 -303.95 -497.95L-265.95 -523.95Q-249.95 -531.45 -234.45 -538.95Q-214.45 -543.95 -194.45 -549.45L-153.45 -554.45Q-96.95 -554.45 -40.45 -554.95L-40.45 -502.45L121.05 -502.45L120.05 -173.95Q114.55 -143.95 108.55 -114.45Q105.55 -102.95 102.05 -91.95L92.05 -68.45" />
<path style="fill:#939393;fill-opacity:1" d="M-217.45,-379.45L-265.95 -379.45L-265.95 -376.45L-259.95 -375.95L-259.95 -360.95L-256.95 -360.95L-256.95 -362.45L-160.95 -362.45L-160.95 -365.45L-71.45 -365.45L-71.45 -327.95L-79.95 -327.95L-79.95 -324.95L-71.45 -324.95L-71.45 -250.45L-79.95 -250.45L-79.95 -247.45L-70.95 -247.45L-70.95 -165.45L-109.95 -165.45Q-109.45 -166.45 -109.45 -167.45Q-107.45 -167.45 -105.95 -167.95L-104.95 -168.95Q-102.95 -168.95 -101.45 -169.45L-111.95 -169.45Q-110.95 -167.45 -110.45 -165.45L-156.95 -165.45L-156.95 -215.95L-157.95 -215.95L-156.95 -225.45L-159.95 -225.45L-159.95 -216.95L-178.95 -216.95Q-178.95 -216.45 -179.45 -215.95L-191.95 -215.95Q-191.95 -216.45 -192.45 -216.95L-275.45 -216.95L-275.45 -218.95L-278.45 -218.95L-278.45 -206.45Q-276.95 -201.95 -275.95 -197.95Q-276.95 -194.45 -278.45 -191.45L-278.45 -176.45L-275.45 -176.45L-275.45 -161.45L-277.95 -161.45Q-277.95 -153.45 -278.45 -145.95L-288.45 -145.95L-288.45 -142.95L-301.45 -142.95L-301.45 -145.95L-323.95 -145.95L-323.95 -157.95L-316.45 -157.95L-316.45 -165.45L-323.95 -165.45L-323.95 -242.45L-316.45 -242.45L-316.45 -247.45L-304.45 -247.45L-304.45 -250.45L-291.45 -250.45L-291.45 -247.45L-278.45 -247.45L-278.45 -244.95L-275.45 -244.95L-275.45 -247.45L-206.95 -247.45L-206.95 -242.95L-198.95 -242.95L-198.95 -247.45L-192.45 -247.45L-192.45 -250.45L-198.95 -250.45L-198.95 -281.45L-114.95 -281.45L-114.95 -324.95L-106.45 -324.95L-106.45 -327.95L-160.95 -327.95L-160.95 -334.95L-162.95 -334.95L-162.95 -330.95L-198.45 -330.95L-198.45 -334.95L-206.45 -334.95L-206.45 -330.95L-256.95 -330.95L-256.95 -334.95L-259.95 -334.95L-259.95 -316.45L-319.95 -316.45Q-318.95 -331.95 -318.45 -347.45Q-313.95 -361.45 -309.95 -375.95L-303.45 -376.45L-303.45 -379.45L-308.95 -379.45Q-307.95 -380.95 -307.45 -382.95L-313.95 -385.95L-314.45 -385.95Q-315.45 -382.95 -316.95 -380.45L-360.45 -398.45Q-358.95 -401.45 -357.95 -404.95Q-361.45 -406.95 -365.45 -409.45L-346.45 -446.95Q-332.95 -462.45 -319.95 -477.95Q-315.95 -475.45 -312.45 -472.95L-307.45 -477.95L-312.45 -484.95L-298.45 -497.45Q-270.45 -513.95 -242.95 -530.95L-217.45 -473.45L-217.45 -379.45M-272.95,-434.45L-268.95 -438.95L-273.95 -443.95L-278.45 -439.95L-272.95 -434.45M-115.45,-240.95Q-115.95 -241.45 -116.45 -242.45L-126.95 -242.45Q-126.95 -233.45 -127.45 -224.45Q-113.95 -224.45 -100.95 -224.95Q-100.95 -227.45 -101.45 -229.95Q-102.45 -230.95 -103.45 -232.45L-116.45 -237.45L-115.45 -240.95M-106.45,-250.45L-165.95 -250.45L-165.95 -247.45L-159.95 -247.45L-159.95 -238.45L-157.45 -238.45L-158.45 -248.45Q-157.45 -247.95 -156.95 -247.95L-156.45 -247.45Q-132.95 -247.45 -109.45 -247.95L-106.45 -247.45L-106.45 -250.45M-135.45,-234.95L-128.45 -234.45Q-127.95 -238.45 -127.95 -242.45L-130.45 -242.45L-131.45 -238.45L-135.45 -238.45Q-134.45 -237.95 -133.45 -237.95Q-132.95 -237.45 -132.95 -236.95L-137.45 -237.45L-146.95 -235.45L-144.45 -235.45L-141.45 -232.45L-139.95 -233.45L-135.95 -233.45Q-135.45 -233.95 -135.45 -234.95M-128.45,-220.95L-129.45 -215.45L-130.45 -215.45Q-129.95 -217.95 -129.95 -220.95Q-130.45 -219.45 -131.45 -217.95L-140.45 -219.95L-133.95 -212.95L-133.95 -204.95L-134.95 -203.95L-134.95 -194.45Q-135.95 -193.45 -136.95 -192.95L-145.45 -192.45L-145.45 -186.45L-143.95 -183.95L-141.45 -183.45L-140.45 -172.95L-113.95 -172.95L-118.95 -188.95L-122.95 -195.45Q-122.45 -195.45 -121.95 -195.95Q-119.95 -192.45 -117.95 -189.45L-112.95 -172.95L-105.95 -172.95L-103.95 -192.95L-95.45 -193.45L-96.45 -197.45L-96.45 -205.45Q-95.95 -205.45 -95.45 -205.95Q-94.95 -209.45 -94.95 -213.45Q-95.45 -213.95 -96.45 -214.45L-96.45 -218.95L-98.45 -222.45L-100.95 -223.45L-127.45 -223.45L-128.45 -220.95" />
<path style="fill:#939393;fill-opacity:1" d="M-58.95,-542.45L-51.45 -542.45L-51.45 -495.45L-59.45 -495.45Q-58.95 -491.45 -58.95 -487.95L-51.45 -487.95L-51.45 -475.95L-47.95 -475.95L-47.95 -489.45L49.05 -489.45L49.05 -335.45L12.55 -335.45L12.55 -349.95L10.55 -349.95L10.55 -359.45Q9.55 -358.95 8.55 -358.95L8.55 -338.95L-62.95 -338.95L-62.95 -379.45L8.55 -379.45L8.55 -371.45L10.55 -371.45L10.55 -424.45L12.55 -424.45L12.55 -437.95L-47.95 -437.95L-47.95 -449.95L-51.45 -449.95L-51.45 -438.45L-213.45 -438.45L-213.45 -474.95Q-212.45 -474.95 -211.45 -475.45Q-211.95 -476.95 -212.95 -478.95Q-213.45 -478.45 -213.95 -478.45L-216.45 -479.95L-237.45 -531.45Q-235.95 -531.95 -234.45 -532.95Q-234.45 -533.95 -234.95 -534.95L-153.95 -551.95L-151.95 -542.45L-144.95 -542.45L-143.95 -551.45Q-101.95 -550.95 -59.95 -550.95L-58.95 -542.45M-144.45,-487.95Q-144.45 -491.45 -144.95 -495.45L-150.95 -495.45Q-150.45 -491.45 -150.45 -487.95L-144.45 -487.95" />
<path style="fill:#6F6F6F;fill-opacity:1" d="M-51.45,-530.95Q-55.95 -529.95 -60.45 -529.45L-62.45 -540.45Q-57.95 -540.95 -53.95 -541.95Q-52.45 -536.45 -51.45 -530.95" />
<path style="fill:#6F6F6F;fill-opacity:1" d="M-164.95,-484.95L-176.45 -486.95Q-175.45 -491.45 -174.95 -495.95L-163.95 -493.95L-164.95 -484.95" />
<path style="fill:#6F6F6F;fill-opacity:1" d="M-151.95,-474.45Q-146.95 -471.45 -141.95 -468.95L-145.95 -460.95Q-150.95 -463.45 -155.95 -466.45L-151.95 -474.45" />
<path style="fill:#6F6F6F;fill-opacity:1" d="M-165.45,-466.45L-156.45 -466.45Q-156.45 -461.95 -156.95 -457.95L-165.45 -457.95L-165.45 -466.45" />
<path style="fill:#6F6F6F;fill-opacity:1" d="M-113.95,-245.95L-84.95 -237.95Q-85.95 -233.45 -87.45 -228.95L-116.45 -236.95Q-114.95 -241.45 -113.95 -245.95" />
<path style="fill:#6F6F6F;fill-opacity:1" d="M-97.45,-242.95Q-98.95 -243.45 -100.45 -244.45L-98.45 -248.45Q-96.95 -247.45 -95.45 -246.95L-97.45 -242.95" />
<path style="fill:#6F6F6F;fill-opacity:1" d="M-99.45,-438.95L-110.95 -439.95L-109.95 -448.45L-98.95 -447.45Q-98.95 -442.95 -99.45 -438.95" />
<path style="fill:#6F6F6F;fill-opacity:1" d="M-86.95,-439.45Q-90.95 -440.95 -95.45 -442.95L-92.45 -450.95L-85.45 -447.95Q-80.95 -449.95 -76.95 -452.45L-71.95 -442.45Q-75.95 -439.95 -80.45 -437.95L-84.45 -445.95Q-85.45 -442.45 -86.95 -439.45" />
<path style="fill:#6F6F6F;fill-opacity:1" d="M-114.45,-522.95L-113.45 -522.95Q-107.45 -523.95 -101.95 -525.45L-96.95 -500.95Q-102.45 -499.45 -108.45 -498.45L-108.45 -497.45L-112.45 -497.45Q-112.45 -506.95 -112.95 -516.45Q-113.45 -519.45 -114.45 -522.95" />
<path style="fill:#6F6F6F;fill-opacity:1" d="M-122.95,-495.45L-126.95 -519.95L-116.95 -521.45L-112.95 -496.95Q-117.95 -495.95 -122.95 -495.45" />
<path style="fill:#6F6F6F;fill-opacity:1" d="M-108.95,-471.45L-118.95 -470.45Q-119.95 -482.45 -121.45 -494.95L-111.45 -495.95Q-109.95 -483.45 -108.95 -471.45" />
<path style="fill:#6F6F6F;fill-opacity:1" d="M-107.95,-496.95L-95.95 -496.45Q-95.95 -483.95 -96.45 -471.95L-108.45 -471.95Q-107.95 -484.45 -107.95 -496.95" />
<path style="fill:#6F6F6F;fill-opacity:1" d="M-121.45,-444.95Q-124.45 -451.45 -127.95 -457.95L-146.95 -443.45Q-149.95 -447.45 -153.45 -451.45Q-142.95 -459.45 -132.95 -467.95L-134.95 -471.45Q-129.95 -473.45 -125.45 -475.95L-111.95 -449.45Q-116.45 -446.95 -121.45 -444.95" />
<path style="fill:#6F6F6F;fill-opacity:1" d="M-164.45,-472.95Q-162.95 -485.45 -161.95 -497.95L-151.45 -496.95Q-152.45 -484.45 -153.95 -472.45L-164.45 -472.95" />
<path style="fill:#6F6F6F;fill-opacity:1" d="M-206.95,-506.45Q-201.45 -494.95 -196.45 -483.45L-207.45 -478.45Q-212.45 -489.45 -217.95 -500.95Q-212.45 -503.45 -206.95 -506.45" />
<path style="fill:#6F6F6F;fill-opacity:1" d="M-238.45,-462.95L-248.95 -455.95L-262.45 -476.45L-252.45 -483.45Q-245.45 -472.95 -238.45 -462.95" />
<path style="fill:#6F6F6F;fill-opacity:1" d="M-263.95,-475.45L-251.45 -453.95Q-255.95 -450.95 -260.95 -448.45Q-266.95 -458.95 -273.45 -469.45Q-268.45 -472.45 -263.95 -475.45" />
<path style="fill:#6F6F6F;fill-opacity:1" d="M-333.95,-396.95Q-332.95 -396.45 -332.45 -395.95Q-333.45 -394.45 -334.95 -392.95L-354.95 -408.95L-354.95 -409.45L-348.95 -419.45L-327.45 -406.95L-333.45 -396.95L-333.95 -396.95" />
<path style="fill:#6F6F6F;fill-opacity:1" d="M-308.95,-384.95Q-319.95 -390.45 -331.45 -395.95Q-328.45 -401.45 -325.95 -406.95Q-314.45 -401.45 -303.45 -395.95Q-305.95 -390.45 -308.95 -384.95" />
<path style="fill:#6F6F6F;fill-opacity:1" d="M-309.45,-371.95L-300.95 -368.95Q-302.45 -363.45 -304.45 -358.45L-313.45 -361.45L-309.45 -371.95" />
<path style="fill:#6F6F6F;fill-opacity:1" d="M-308.95,-341.45Q-309.95 -335.95 -311.45 -330.45L-319.95 -332.45Q-318.45 -337.45 -317.45 -342.95L-308.95 -341.45" />
<path style="fill:#6F6F6F;fill-opacity:1" d="M-319.45,-329.45L-310.95 -328.95L-310.95 -317.95L-319.45 -317.95L-319.45 -329.45" />
<path style="fill:#6F6F6F;fill-opacity:1" d="M-131.45,-247.45L-130.45 -238.95L-142.45 -237.95Q-142.45 -241.95 -142.95 -246.45L-131.45 -247.45" />
<path style="fill:#6F6F6F;fill-opacity:1" d="M-150.95,-235.95L-141.45 -234.45Q-143.95 -219.45 -146.95 -204.95L-156.45 -206.95Q-153.45 -221.45 -150.95 -235.95" />
<path style="fill:#6F6F6F;fill-opacity:1" d="M-80.95,-232.95L-71.95 -232.95L-71.95 -220.45L-80.95 -220.95L-80.95 -232.95" />
<path style="fill:#6F6F6F;fill-opacity:1" d="M-80.45,-220.45L-71.45 -219.45Q-71.95 -213.45 -72.95 -207.45L-81.95 -208.45Q-80.95 -214.45 -80.45 -220.45" />
<path style="fill:#6F6F6F;fill-opacity:1" d="M-304.95,-358.45L-302.95 -353.95Q-304.95 -352.45 -307.45 -351.45L-309.45 -355.95Q-306.95 -356.95 -304.95 -358.45" />
<path style="fill:#6F6F6F;fill-opacity:1" d="M-222.95,-408.95L-233.95 -406.95Q-235.95 -418.95 -238.45 -431.45L-238.45 -431.95L-227.45 -433.95Q-224.95 -421.45 -222.95 -409.45L-223.45 -409.45L-222.95 -408.95" />
<path style="fill:#6F6F6F;fill-opacity:1" d="M-219.45,-405.95L-219.45 -379.45L-221.95 -379.95L-221.95 -381.95L-231.95 -381.95L-231.95 -406.95L-220.95 -406.95L-220.95 -405.95L-219.45 -405.95" />
<path style="fill:#6F6F6F;fill-opacity:1" d="M-221.95,-434.95Q-220.45 -421.95 -219.45 -408.95L-220.95 -408.95Q-221.95 -421.95 -223.45 -434.95L-221.95 -434.95" />
<path style="fill:#6F6F6F;fill-opacity:1" d="M-276.45,-470.45Q-282.45 -480.95 -288.95 -491.45Q-283.95 -493.95 -279.45 -496.95L-266.45 -475.95Q-271.45 -472.95 -276.45 -470.45" />
<path style="fill:#6F6F6F;fill-opacity:1" d="M-277.45,-498.95Q-271.95 -501.95 -266.45 -505.45Q-259.95 -494.95 -253.95 -484.45Q-258.45 -481.45 -263.45 -478.45Q-262.95 -477.95 -262.95 -477.45Q-264.45 -476.45 -265.95 -475.95Q-271.45 -487.45 -277.45 -498.95" />
<path style="fill:#6F6F6F;fill-opacity:1" d="M-226.45,-523.95L-215.95 -530.95L-207.95 -507.45L-221.45 -501.45L-226.45 -523.95" />
<path style="fill:#6F6F6F;fill-opacity:1" d="M-147.45,-503.95L-157.45 -529.45Q-147.95 -532.95 -138.45 -536.95L-128.45 -511.45Q-137.95 -507.45 -147.45 -503.95" />
<path style="fill:#6F6F6F;fill-opacity:1" d="M-227.45,-213.95L-227.45 -153.95L-248.95 -153.95L-248.95 -151.45L-258.45 -151.45L-258.45 -153.95L-275.45 -153.95L-275.45 -213.95L-227.45 -213.95" />
<path style="fill:#FFFFFF;fill-opacity:1" d="M-273.95,-191.45L-278.45 -191.45L-278.45 -206.45L-273.95 -206.45L-273.95 -191.45" />
<path style="fill:#939393;fill-opacity:1" d="M-229.45,-156.45L-243.45 -156.45L-243.45 -211.45L-229.45 -211.45L-229.45 -156.45" />
<path style="fill:#6F6F6F;fill-opacity:1" d="M-246.45,-525.95Q-245.95 -524.95 -245.95 -524.45L-271.95 -509.45Q-271.45 -507.95 -271.45 -506.95Q-260.95 -513.45 -250.45 -520.45L-248.95 -518.95Q-247.95 -518.95 -247.45 -519.45L-236.45 -496.95L-237.45 -495.45L-238.45 -490.95Q-245.95 -484.95 -253.95 -479.45L-254.45 -479.95Q-258.95 -476.95 -263.95 -473.95L-263.95 -472.95L-274.95 -464.45L-276.95 -464.45L-279.45 -462.45L-282.45 -462.95L-297.45 -481.45Q-296.95 -481.95 -296.95 -482.45L-297.95 -488.95L-298.95 -489.95Q-300.45 -488.45 -302.45 -487.45Q-302.45 -487.95 -302.95 -488.45L-282.45 -504.45Q-264.45 -514.95 -246.45 -525.95M-231.45,-521.95Q-216.95 -524.95 -202.95 -528.45L-202.45 -528.45Q-202.45 -528.95 -202.95 -529.45Q-202.45 -529.45 -202.45 -529.95L-200.95 -529.45L-192.45 -531.45L-191.95 -530.95L-201.45 -527.95L-198.45 -522.95L-195.45 -524.95L-193.45 -524.95Q-192.95 -525.45 -192.95 -526.45Q-191.45 -526.45 -190.45 -526.95L-187.45 -513.45L-188.95 -513.45Q-187.95 -511.95 -187.45 -510.45L-180.45 -513.45Q-182.45 -520.95 -184.95 -528.45L-180.95 -530.45Q-179.95 -529.95 -179.45 -529.45L-164.95 -534.45L-164.95 -516.45L-175.45 -513.45L-173.95 -512.95L-173.95 -511.95Q-173.45 -511.45 -172.95 -511.45L-171.45 -508.95Q-167.45 -509.95 -163.45 -511.45L-164.45 -515.45Q-162.45 -517.95 -160.95 -520.95L-151.45 -521.45Q-150.45 -517.95 -149.95 -514.45Q-148.45 -513.45 -147.45 -512.95Q-147.95 -510.95 -148.95 -509.45Q-148.45 -507.95 -148.45 -506.45Q-149.45 -505.95 -150.95 -505.45Q-151.45 -503.95 -152.45 -502.95L-163.95 -505.45L-162.95 -506.95L-162.95 -507.45Q-166.95 -505.95 -171.45 -504.95L-170.45 -499.95Q-170.95 -499.45 -171.45 -499.45Q-171.45 -498.95 -171.95 -498.45L-173.95 -498.45Q-174.95 -496.95 -176.45 -495.95L-178.95 -495.95L-180.95 -499.95Q-181.45 -499.45 -181.95 -499.45L-180.95 -496.45Q-181.95 -494.95 -183.45 -493.95Q-193.95 -490.95 -204.45 -488.45Q-208.95 -486.45 -213.95 -484.95Q-214.95 -484.95 -215.95 -485.45Q-221.95 -500.45 -228.45 -515.45L-217.45 -517.45Q-217.45 -517.95 -217.95 -518.95L-215.45 -520.95Q-214.95 -520.45 -214.95 -519.95L-215.45 -519.95L-216.95 -518.95L-216.95 -516.95Q-210.45 -517.95 -204.45 -519.45L-209.45 -526.45L-231.45 -521.45L-231.45 -521.95M-199.45,-522.45L-201.95 -527.95Q-204.95 -526.95 -208.45 -526.45L-203.95 -519.95Q-201.45 -520.95 -199.45 -522.45M-232.95,-533.95Q-194.45 -541.95 -156.45 -550.45Q-155.95 -548.95 -155.95 -547.45L-177.45 -544.45L-162.45 -545.45L-162.45 -544.95L-156.95 -544.45Q-156.45 -542.95 -156.45 -541.45Q-155.45 -540.95 -154.95 -540.95Q-153.95 -538.45 -153.45 -536.45L-154.95 -535.45L-166.45 -535.95Q-166.45 -536.45 -166.95 -537.45L-184.95 -532.45Q-185.95 -531.45 -187.45 -530.95L-187.45 -531.45L-186.95 -531.45L-186.95 -531.95Q-186.45 -531.95 -186.45 -532.45Q-184.45 -532.95 -182.45 -533.95Q-181.45 -533.95 -180.45 -534.45L-182.95 -534.95Q-183.95 -538.45 -185.45 -542.45L-232.45 -530.95Q-232.45 -532.45 -232.95 -533.95M-175.95,-542.45L-174.95 -539.95L-174.45 -539.95Q-174.45 -538.45 -174.95 -537.45L-167.45 -537.95Q-167.45 -540.45 -167.95 -542.95L-165.95 -543.95L-176.45 -543.45L-177.45 -542.45L-175.95 -542.45M-183.45,-502.95Q-182.45 -502.95 -181.45 -503.45L-181.45 -511.45L-179.45 -511.45Q-178.95 -510.95 -178.45 -510.95L-177.45 -512.95Q-178.45 -512.95 -179.45 -513.45L-179.45 -512.95Q-182.95 -511.45 -186.95 -509.95Q-184.95 -506.45 -183.45 -502.95M-293.95,-444.95L-304.95 -456.95L-309.95 -451.95Q-309.95 -449.95 -310.45 -447.95L-310.95 -448.45Q-310.45 -449.95 -310.45 -451.95L-302.45 -460.45L-301.45 -460.45L-290.95 -448.95L-292.45 -447.95Q-291.95 -446.95 -291.95 -446.45L-293.95 -444.95M-286.45,-448.45Q-285.95 -448.45 -285.95 -448.95L-283.45 -446.95Q-283.45 -443.95 -283.95 -440.95L-286.95 -442.95Q-286.45 -445.45 -286.45 -448.45M-296.95,-490.95Q-296.45 -490.95 -296.45 -491.45Q-296.45 -490.45 -296.95 -489.95Q-288.95 -495.45 -280.95 -501.45L-281.95 -502.95Q-289.95 -496.45 -298.45 -490.45L-297.45 -489.45Q-296.95 -489.95 -296.95 -490.95" />
<path style="fill:#FFFFFF;fill-opacity:1" d="M-63.45,-338.95L-63.45 -379.45L-14.95 -379.45L-14.95 -359.45L-39.95 -359.45L-39.95 -358.45L-12.95 -358.45L-12.95 -338.95L-63.45 -338.95" />
</g>
</svg>
