<?xml version="1.0" encoding="utf-8"?>
<svg version="1.1" id="Layer_1"
xmlns="http://www.w3.org/2000/svg"
xmlns:xlink="http://www.w3.org/1999/xlink"
xmlns:author="http://www.sothink.com"
width="512px" height="616px"
xml:space="preserve">
<g id="97" transform="matrix(1, 0, 0, 1, 390.45, 554.95)">
<path style="fill:#424242;fill-opacity:1" d="M92.05,-68.45L79.05 -46.45L52.05 -12.45Q43.55 -3.95 34.55 4.05L-3.45 30.05Q-18.95 37.55 -34.95 45.05L-74.95 55.55L-125.95 61.05L-229.45 61.05L-229.45 8.55L-390.45 8.55L-389.45 -319.95Q-385.95 -339.95 -382.95 -360.45Q-376.95 -380.95 -371.45 -401.95L-348.45 -447.95Q-334.95 -464.45 -321.45 -481.45Q-312.45 -489.45 -303.95 -497.95L-265.95 -523.95Q-249.95 -531.45 -234.45 -538.95Q-214.45 -543.95 -194.45 -549.45L-153.45 -554.45Q-96.95 -554.45 -40.45 -554.95L-40.45 -502.45L121.05 -502.45L120.05 -173.95Q114.55 -143.95 108.55 -114.45Q105.55 -102.95 102.05 -91.95L92.05 -68.45" />
<path style="fill:#FFFFFF;fill-opacity:1" d="M-249.45,-122.45L-225.45 -122.45L-225.45 -123.95L-251.95 -123.95L-251.95 -142.95L-202.45 -142.95L-202.45 -102.95L-249.45 -102.95L-249.45 -122.45" />
<path style="fill:#959595;fill-opacity:1" d="M-201.95,-387.95L-198.95 -387.95L-198.95 -408.95L-135.45 -408.95L-135.45 -335.45L-153.45 -335.45L-153.45 -332.45Q-143.95 -331.95 -134.95 -331.95L-134.95 -327.45L-131.95 -327.45L-131.95 -332.45L-71.45 -332.45L-71.45 -327.95L-63.95 -327.95L-63.95 -250.45L-71.45 -250.45L-71.45 -242.95L-63.95 -242.95L-63.95 -165.45L-71.45 -165.45L-71.45 -157.45L-63.95 -157.45L-63.95 -80.45L-71.45 -80.45L-71.45 -57.95L-131.95 -57.95L-131.95 -144.95L-134.95 -144.95L-134.95 -43.45L-131.95 -43.45L-131.95 -54.95L-63.95 -54.95L-63.95 -18.45L-131.95 -18.45L-131.95 -29.45L-133.95 -29.45L-133.95 -30.45L-134.95 -30.45L-134.95 -3.45L-198.95 -3.45L-198.95 -17.45L-201.95 -17.45L-201.95 -3.45L-319.95 -3.45L-319.95 -57.95L-301.45 -57.95L-301.45 -59.95L-319.95 -59.95L-319.95 -72.45L-316.45 -72.45L-316.45 -79.95L-319.95 -79.95L-319.95 -142.95L-277.95 -142.95L-277.95 -122.95L-275.45 -122.95L-275.45 -142.95L-251.95 -142.95L-251.95 -123.95L-253.45 -123.95L-253.45 -122.45L-249.45 -122.45L-249.45 -102.95L-275.45 -102.95L-275.45 -109.45L-277.95 -109.45L-277.95 -59.95L-288.45 -59.95L-288.45 -57.95L-201.95 -57.95L-201.95 -43.45L-198.95 -43.45L-198.95 -157.95L-195.95 -157.95L-195.95 -250.45L-198.95 -250.45L-198.95 -332.45L-179.95 -332.45L-179.95 -335.45L-198.95 -335.45L-198.95 -374.95L-201.95 -374.95L-201.95 -335.45L-206.45 -335.45L-206.45 -327.95L-201.45 -327.95Q-201.45 -319.45 -201.95 -310.95L-315.95 -310.95Q-315.95 -314.45 -316.45 -317.95L-323.45 -317.95Q-321.95 -326.45 -320.95 -335.45L-326.95 -334.45L-328.45 -334.95L-328.45 -340.45Q-328.95 -339.95 -329.95 -339.95L-329.95 -337.95Q-330.95 -336.45 -332.45 -335.45Q-334.95 -334.45 -337.45 -333.95Q-338.45 -333.95 -339.45 -334.45Q-340.45 -333.45 -341.95 -332.95L-343.45 -334.45L-350.45 -337.45L-350.45 -343.45L-349.45 -348.45Q-349.45 -348.95 -349.95 -349.45Q-350.95 -355.45 -352.45 -361.95L-363.95 -361.95L-363.95 -364.95L-364.45 -364.95L-364.45 -365.45L-351.95 -365.45L-350.95 -369.95L-348.95 -370.95L-347.95 -372.95L-343.95 -372.45Q-342.45 -372.45 -340.95 -372.95Q-339.45 -371.45 -337.95 -370.45Q-337.45 -369.95 -336.95 -369.95Q-336.45 -368.95 -336.45 -367.95L-334.45 -366.95L-332.95 -365.45L-330.95 -365.45L-330.95 -369.45L-328.95 -370.45L-319.95 -370.45L-319.95 -374.45Q-320.45 -376.95 -321.45 -379.95Q-320.95 -381.95 -320.95 -384.45L-319.95 -385.45L-319.95 -379.95Q-318.95 -374.95 -318.45 -370.45L-316.45 -370.45L-316.45 -383.95Q-316.95 -381.95 -317.95 -380.45Q-318.45 -380.45 -318.95 -380.95L-316.95 -384.45L-316.95 -386.95L-320.45 -386.95L-328.95 -385.95Q-329.45 -385.95 -329.95 -386.45L-328.95 -380.95L-328.95 -378.45Q-328.45 -377.95 -328.45 -377.45L-329.45 -377.45L-329.45 -380.95Q-329.95 -383.45 -330.95 -385.95Q-331.95 -386.45 -332.95 -387.45L-340.95 -386.45Q-341.45 -386.95 -342.45 -387.45L-356.45 -390.45Q-357.45 -389.45 -358.45 -388.95L-362.45 -391.45L-363.45 -389.45L-366.95 -389.95L-367.95 -385.95Q-368.95 -383.45 -370.45 -380.95Q-370.45 -379.45 -370.95 -378.45L-371.95 -375.45L-371.95 -373.95Q-371.45 -373.45 -371.45 -372.95Q-371.95 -372.95 -372.45 -373.45L-372.45 -374.95Q-371.45 -377.45 -370.95 -379.95L-371.45 -380.45Q-371.95 -380.45 -372.95 -380.95Q-375.45 -370.45 -378.45 -359.95Q-378.95 -354.45 -379.95 -348.95Q-379.45 -348.45 -378.95 -348.45L-378.95 -342.45Q-378.45 -341.45 -377.95 -340.95L-376.95 -343.45Q-375.95 -351.95 -375.45 -360.45Q-374.95 -359.95 -374.95 -359.45L-376.95 -335.95Q-377.45 -332.45 -378.45 -328.95Q-377.45 -328.45 -376.45 -328.45Q-375.95 -327.45 -375.95 -326.95Q-375.95 -324.45 -376.45 -321.95L-362.45 -322.45Q-361.45 -321.95 -360.95 -321.95L-353.95 -322.95L-350.45 -321.95L-337.95 -319.45L-335.95 -320.45Q-332.95 -319.45 -330.45 -318.95L-327.95 -317.95L-323.95 -317.95L-323.95 -310.95Q-333.95 -310.45 -344.45 -310.45L-344.45 -307.95L-324.95 -307.95Q-324.45 -308.45 -324.45 -309.45L-315.45 -309.45Q-314.95 -308.45 -314.95 -307.95L-270.95 -307.95L-270.95 -217.95L-316.45 -217.95L-316.45 -225.45L-323.95 -225.45L-323.95 -217.95Q-350.45 -217.45 -376.95 -217.45L-376.95 -225.45L-386.45 -226.45L-386.45 -301.45Q-381.45 -305.45 -376.95 -309.45L-375.45 -309.45L-375.45 -307.95L-362.95 -307.95L-362.95 -310.95L-376.45 -310.95L-376.45 -317.95L-386.95 -319.95Q-383.95 -339.95 -381.45 -360.45Q-375.45 -380.45 -369.95 -400.95L-360.45 -398.95L-201.95 -398.95L-201.95 -387.95M-330.45,-356.45Q-330.45 -349.95 -330.95 -343.95L-328.45 -343.95Q-328.45 -346.45 -328.95 -349.45Q-329.95 -355.45 -331.45 -361.95L-331.95 -361.95L-330.95 -356.95L-330.45 -356.45M-201.95,-307.95Q-201.45 -279.45 -201.45 -251.45Q-203.95 -250.45 -206.45 -249.95L-206.45 -217.95L-266.45 -217.95L-266.45 -307.95L-201.95 -307.95M-134.95,-287.45L-131.95 -287.45L-131.95 -291.45L-134.95 -291.45L-134.95 -287.45M-381.95,-339.45L-382.95 -329.45L-381.95 -329.45Q-381.45 -331.45 -381.45 -333.45Q-381.45 -336.45 -381.95 -339.45M-131.95,-242.95L-131.95 -250.45L-134.95 -250.45L-134.95 -242.95L-131.95 -242.95M-132.45,-203.95L-132.45 -208.95L-134.95 -208.95L-134.95 -203.95L-132.45 -203.95M-131.95,-154.95L-131.95 -165.45L-134.95 -165.45L-134.95 -154.95L-131.95 -154.95" />
<path style="fill:#6F6F6F;fill-opacity:1" d="M-241.95,-311.95L-253.95 -311.95L-253.95 -337.45L-241.95 -337.45L-241.95 -311.95" />
<path style="fill:#6F6F6F;fill-opacity:1" d="M-265.45,-337.45Q-270.45 -334.45 -275.95 -331.95Q-278.45 -337.45 -281.45 -342.95Q-275.95 -345.45 -270.95 -348.45Q-267.95 -342.95 -265.45 -337.45" />
<path style="fill:#6F6F6F;fill-opacity:1" d="M-228.45,-311.95L-240.45 -312.45L-238.45 -337.95L-226.95 -337.45Q-227.45 -324.45 -228.45 -311.95" />
<path style="fill:#6F6F6F;fill-opacity:1" d="M-240.45,-276.45L-242.45 -250.95L-253.95 -251.95L-251.95 -277.45L-240.45 -276.45" />
<path style="fill:#6F6F6F;fill-opacity:1" d="M-229.95,-223.95L-241.95 -224.95L-241.95 -224.45L-253.45 -224.45Q-253.45 -236.95 -253.95 -249.95L-241.95 -249.95L-241.95 -226.45Q-239.95 -238.45 -238.45 -250.45L-226.95 -248.95L-229.95 -223.95" />
<path style="fill:#6F6F6F;fill-opacity:1" d="M-128.95,-175.45L-133.95 -166.45Q-146.95 -173.45 -159.95 -180.95L-154.95 -189.95Q-141.95 -182.45 -128.95 -175.45" />
<path style="fill:#6F6F6F;fill-opacity:1" d="M-90.95,-207.45Q-78.45 -207.45 -65.95 -207.95Q-65.45 -201.95 -65.45 -196.45L-90.95 -195.45Q-90.95 -198.45 -91.45 -201.95L-91.45 -195.95L-115.95 -197.45L-116.95 -182.95L-117.95 -182.95Q-117.45 -185.95 -117.45 -188.95L-128.45 -187.45L-132.45 -212.95L-132.45 -216.45L-120.95 -217.95Q-118.95 -205.95 -117.45 -194.45Q-116.95 -201.95 -116.95 -209.45L-90.95 -209.45L-90.95 -207.45" />
<path style="fill:#6F6F6F;fill-opacity:1" d="M-65.45,-208.45L-90.95 -209.95L-90.95 -209.45L-116.95 -210.45Q-116.45 -216.45 -116.45 -222.45L-90.45 -221.45L-90.45 -221.95L-64.95 -220.45Q-64.95 -214.45 -65.45 -208.45" />
<path style="fill:#6F6F6F;fill-opacity:1" d="M-63.95,-133.95L-64.95 -121.95L-64.45 -121.95Q-64.45 -115.95 -64.95 -109.95Q-77.45 -109.95 -89.95 -110.45L-89.95 -109.45Q-102.45 -109.45 -115.45 -109.95L-115.45 -121.45L-90.45 -121.45L-90.45 -122.45Q-78.45 -121.95 -66.95 -121.95L-90.45 -123.95L-90.45 -122.45L-115.95 -124.45L-114.95 -136.45L-89.95 -133.95Q-89.45 -134.95 -89.45 -135.95L-63.95 -133.95" />
<path style="fill:#6F6F6F;fill-opacity:1" d="M-117.95,-86.45L-104.95 -68.45L-114.45 -61.45Q-121.45 -71.45 -128.95 -81.45Q-129.95 -81.45 -130.95 -81.95Q-130.45 -82.45 -130.45 -83.45L-133.45 -87.45Q-131.45 -88.45 -129.45 -89.95L-125.45 -110.95L-113.95 -108.45L-117.95 -86.45" />
<path style="fill:#6F6F6F;fill-opacity:1" d="M-97.45,-73.95L-72.95 -71.95L-73.95 -60.95L-98.45 -62.95L-97.45 -73.95" />
<path style="fill:#6F6F6F;fill-opacity:1" d="M-109.95,-50.45L-120.95 -19.45Q-125.95 -21.45 -130.95 -23.95Q-125.45 -38.95 -120.45 -54.45L-109.95 -50.45" />
<path style="fill:#6F6F6F;fill-opacity:1" d="M-110.45,-151.95L-121.45 -120.95Q-126.45 -122.95 -131.45 -125.45L-120.45 -155.95L-110.45 -151.95" />
<path style="fill:#6F6F6F;fill-opacity:1" d="M-110.95,-184.95L-121.95 -153.95Q-126.95 -155.95 -131.95 -158.45L-120.95 -188.95L-110.95 -184.95" />
<path style="fill:#6F6F6F;fill-opacity:1" d="M-120.95,-249.95L-110.95 -245.95L-120.95 -218.45Q-125.95 -220.45 -130.95 -222.95L-120.95 -249.95" />
<path style="fill:#6F6F6F;fill-opacity:1" d="M-120.95,-277.95L-110.95 -251.45Q-115.95 -248.95 -120.95 -246.95L-130.95 -273.95L-120.95 -277.95" />
<path style="fill:#6F6F6F;fill-opacity:1" d="M-73.95,-93.45L-64.95 -92.45L-65.95 -81.95L-74.95 -82.45L-73.95 -93.45" />
<path style="fill:#6F6F6F;fill-opacity:1" d="M-297.95,-274.45L-296.95 -248.95L-308.95 -248.45L-309.95 -273.95L-297.95 -274.45" />
<path style="fill:#6F6F6F;fill-opacity:1" d="M-284.45,-222.45L-295.95 -222.95L-295.95 -222.45L-307.95 -221.95L-308.95 -247.45L-296.95 -247.95Q-296.45 -237.45 -296.45 -226.95Q-295.45 -237.45 -294.95 -248.45L-282.95 -247.95Q-283.45 -234.95 -284.45 -222.45" />
<path style="fill:#6F6F6F;fill-opacity:1" d="M-282.95,-273.95Q-283.45 -260.95 -284.45 -248.45L-296.45 -248.95Q-295.45 -261.95 -294.95 -274.95L-282.95 -273.95" />
<path style="fill:#6F6F6F;fill-opacity:1" d="M-238.95,-279.95L-238.95 -276.45L-227.95 -276.45L-227.95 -250.95L-239.45 -250.95L-239.45 -251.45L-239.95 -251.45L-239.95 -278.95L-266.45 -278.95L-266.45 -279.95L-238.95 -279.95" />
<path style="fill:#6F6F6F;fill-opacity:1" d="M-319.45,-19.45L-310.45 -19.45L-310.45 -3.95L-319.45 -3.95L-319.45 -19.45" />
<path style="fill:#6F6F6F;fill-opacity:1" d="M-302.45,-7.95L-222.45 -7.95L-222.45 -3.95L-302.45 -3.95L-302.45 -7.95" />
<path style="fill:#6F6F6F;fill-opacity:1" d="M-63.95,-281.45L-64.95 -269.95L-90.95 -271.95L-89.95 -283.45L-63.95 -281.45" />
<path style="fill:#6F6F6F;fill-opacity:1" d="M-90.95,-270.45L-116.95 -272.45L-115.95 -283.95L-90.45 -281.45Q-90.45 -275.95 -90.95 -270.45" />
<path style="fill:#6F6F6F;fill-opacity:1" d="M-90.45,-296.45L-64.45 -296.45L-64.45 -283.95L-90.45 -283.95L-90.45 -296.45" />
<path style="fill:#6F6F6F;fill-opacity:1" d="M-123.45,-318.95L-111.95 -322.95Q-106.95 -308.95 -102.45 -295.45L-90.95 -295.45L-90.95 -283.95Q-103.95 -283.95 -116.95 -284.45Q-116.45 -289.95 -116.45 -295.95L-115.45 -295.95L-123.45 -318.95" />
<path style="fill:#6F6F6F;fill-opacity:1" d="M-142.95,-340.45Q-152.45 -351.95 -162.45 -363.45L-154.95 -369.45Q-144.95 -357.95 -135.45 -346.45L-142.95 -340.45" />
<path style="fill:#6F6F6F;fill-opacity:1" d="M-109.45,-321.45L-109.45 -330.95L-97.95 -330.95L-97.95 -321.45L-109.45 -321.45" />
<path style="fill:#6F6F6F;fill-opacity:1" d="M-84.95,-320.95L-95.95 -321.95L-94.95 -331.45L-83.95 -330.45L-84.95 -320.95" />
<path style="fill:#6F6F6F;fill-opacity:1" d="M-83.45,-330.45L-72.45 -330.95Q-71.95 -325.95 -71.95 -321.45L-83.45 -320.95L-83.45 -330.45" />
</g>
</svg>
