<?xml version="1.0" encoding="utf-8"?>
<svg version="1.1" id="Layer_1"
xmlns="http://www.w3.org/2000/svg"
xmlns:xlink="http://www.w3.org/1999/xlink"
xmlns:author="http://www.sothink.com"
width="512px" height="616px"
xml:space="preserve">
<g id="96" transform="matrix(1, 0, 0, 1, 390.4, 554.95)">
<path style="fill:#424242;fill-opacity:1" d="M92.1,-68.45L79.1 -46.45L52.1 -12.45Q43.6 -3.95 34.6 4.05L-3.4 30.05L-34.9 45.05L-74.9 55.55L-125.9 61.05L-229.4 61.05L-229.4 8.55L-390.4 8.55L-389.4 -319.95Q-385.9 -339.95 -382.9 -360.45Q-376.9 -380.95 -371.4 -401.95L-348.4 -447.95L-321.4 -481.45Q-312.4 -489.45 -303.9 -497.95L-265.9 -523.95L-234.4 -538.95Q-214.4 -543.95 -194.4 -549.45L-153.4 -554.45Q-96.9 -554.45 -40.4 -554.95L-40.4 -502.45L121.1 -502.45L120.1 -173.95Q114.6 -143.95 108.6 -114.45Q105.6 -102.95 102.1 -91.95L92.1 -68.45" />
<path style="fill:#FFFFFF;fill-opacity:1" d="M-63.4,-338.95L-63.4 -379.45L-14.9 -379.45L-14.9 -359.45L-39.9 -359.45L-39.9 -358.45L-12.9 -358.45L-12.9 -338.95L-63.4 -338.95" />
<path style="fill:#959595;fill-opacity:1" d="M-326.4,-267.95L-326.4 -250.45L-383.9 -250.45L-383.9 -226.45L-387.4 -226.45L-387.4 -309.95L-376.9 -310.45L-376.9 -317.95L-386.4 -319.95L-382.4 -360.45Q-375.9 -380.45 -369.9 -400.95Q-364.9 -399.45 -360.4 -398.45Q-359.9 -398.45 -359.9 -398.95L-285.4 -398.95L-285.4 -250.45L-288.4 -250.45L-288.4 -247.45L-277.9 -247.45L-277.9 -244.95L-275.4 -244.95L-275.4 -247.45L-206.4 -247.45L-206.4 -242.95L-198.9 -242.95L-198.9 -247.45L-159.9 -247.45L-159.9 -216.95L-165.4 -216.95L-165.4 -213.95L-159.9 -213.95L-159.9 -141.95L-156.9 -141.95L-156.9 -162.45L-144.4 -162.45L-144.4 -165.45L-156.9 -165.45L-156.9 -247.45L-106.4 -247.45L-106.4 -250.95L-116.4 -250.95L-116.4 -346.45L-118.9 -346.45L-118.9 -292.45L-161.4 -292.45L-161.4 -367.45L-118.9 -367.45L-118.9 -357.45L-116.4 -357.45L-116.4 -489.45L-71.4 -489.45L-71.4 -475.95L-68.4 -475.95L-68.4 -489.45L49.1 -489.45L49.1 -424.45L39.6 -424.45Q39.6 -422.95 39.1 -421.45L49.1 -421.45L49.1 -335.45L39.6 -335.45L39.6 -333.95L26.1 -333.95L26.1 -335.45L12.6 -335.45L12.6 -358.45L10.1 -358.45L10.1 -338.95L-13.4 -338.95L-13.4 -359.45L-15.9 -359.45L-15.9 -379.45L10.1 -379.45L10.1 -372.95L12.6 -372.95L12.6 -421.45L26.1 -421.45L26.1 -424.45L12.6 -424.45L12.6 -437.95L-68.4 -437.95L-68.4 -449.95L-71.4 -449.95L-71.4 -322.95L-68.4 -322.95L-68.4 -327.95L-39.9 -327.95L-39.9 -272.45L-6.4 -272.45L-6.4 -267.95L-3.4 -267.95L-3.4 -254.95L-6.4 -254.95L-6.4 -165.45L-30.4 -165.45L-30.4 -162.45L47.6 -162.45L45.6 -144.95Q41.1 -128.95 36.1 -112.95L34.1 -109.95L20.1 -83.45L-0.9 -57.45L-26.9 -36.45Q-34.4 -31.95 -42.4 -27.95L-43.4 -26.95L-43.9 -27.45L-56.9 -20.45Q-72.4 -15.45 -88.4 -10.95L-156.9 -7.45L-156.9 -49.45L-159.4 -49.45Q-159.4 -35.45 -159.9 -21.95L-198.9 -21.95L-198.9 -122.45L-200.9 -122.45L-200.9 -150.95L-198.9 -150.95L-198.9 -164.95L-206.4 -165.45L-206.4 -213.95L-191.4 -213.95L-191.4 -216.95L-275.4 -216.95L-275.4 -218.95L-277.9 -218.95L-277.9 -206.45L-275.4 -206.45L-275.4 -191.45L-277.9 -191.45L-277.9 -176.45L-275.4 -176.45L-275.4 -161.45L-277.9 -161.45L-277.9 -145.95L-288.4 -145.95L-288.4 -142.95L-301.4 -142.95L-301.4 -145.95L-323.9 -145.95L-323.9 -157.95L-316.4 -157.95L-316.4 -165.45L-323.9 -165.45L-323.9 -242.95L-316.4 -242.95L-316.4 -247.45L-314.4 -247.45L-314.4 -250.45L-323.9 -250.45L-323.9 -267.95L-326.4 -267.95M-315.9,-317.95L-323.9 -317.95L-323.9 -309.95L-315.9 -309.95L-315.9 -317.95M-71.4,-309.95L-71.4 -250.95L-78.4 -250.95Q-78.4 -248.95 -78.9 -247.45L-71.4 -247.45L-71.4 -185.45L-68.4 -185.45L-68.4 -242.95L-64.4 -242.95Q-63.9 -246.45 -63.9 -250.45L-68.4 -250.45L-68.4 -309.95L-71.4 -309.95M-43.4,-165.45L-71.4 -165.45L-71.4 -162.45L-43.4 -162.45L-43.4 -165.45M-91.4,-163.95L-91.4 -83.45L-156.9 -83.45L-156.9 -128.95L-159.9 -128.95L-159.9 -62.45L-156.9 -62.45L-156.9 -80.95L-71.4 -80.95L-71.4 -72.95L-67.4 -72.95L-63.9 -73.95L-63.9 -83.45L-88.4 -83.45L-88.4 -165.45L-90.4 -165.45L-91.4 -163.95" />
<path style="fill:#959595;fill-opacity:1" d="M-214.4,-536.95Q-216.9 -534.95 -219.9 -533.45L-228.4 -531.45Q-227.9 -529.95 -227.9 -528.45L-232.9 -526.45Q-233.9 -530.95 -235.4 -535.95Q-232.9 -536.45 -230.9 -537.45L-229.9 -534.95Q-224.9 -535.95 -220.4 -537.45L-216.4 -540.45L-214.4 -536.95" />
<path style="fill:#959595;fill-opacity:1" d="M-247.9,-514.95L-241.4 -515.45Q-241.4 -518.45 -241.9 -521.95Q-242.4 -521.45 -243.4 -521.45L-245.4 -523.45Q-252.4 -519.45 -259.4 -515.95L-262.4 -519.45Q-254.4 -522.95 -246.9 -526.45L-248.4 -529.95L-244.4 -531.95L-239.4 -523.45Q-237.9 -523.95 -236.4 -524.95L-236.4 -525.95L-232.4 -525.45Q-229.9 -521.95 -227.9 -518.45Q-227.4 -516.45 -227.4 -514.45L-215.4 -486.45L-208.4 -489.45L-204.9 -488.95Q-185.9 -493.95 -167.4 -499.45L-167.4 -500.45L-162.4 -502.45L-159.4 -506.95L-157.4 -508.95L-157.4 -512.45L-155.4 -515.95Q-155.4 -524.95 -155.9 -533.95Q-155.4 -533.95 -155.4 -534.45Q-154.4 -537.95 -153.9 -541.95L-159.9 -540.95Q-160.9 -540.95 -161.9 -541.45Q-161.9 -542.45 -162.4 -543.45L-170.4 -542.45L-176.4 -543.45L-177.4 -546.95L-162.9 -546.45Q-162.9 -548.45 -163.4 -550.95L-153.9 -551.95Q-152.9 -547.95 -152.4 -543.95L-144.9 -542.45L-144.9 -495.45L-150.9 -495.45Q-150.4 -493.45 -150.4 -491.95Q-165.9 -489.45 -181.9 -487.45Q-197.4 -482.95 -212.9 -478.95L-214.4 -482.45Q-214.9 -481.95 -215.9 -481.95Q-215.4 -480.95 -215.4 -479.95L-218.4 -478.95L-219.4 -480.45L-219.9 -480.45L-218.9 -476.45Q-226.9 -471.45 -234.9 -466.95Q-233.9 -465.45 -232.9 -464.45L-216.9 -473.45L-216.9 -379.45Q-231.9 -378.95 -246.9 -378.95Q-269.4 -394.45 -292.4 -409.95L-292.4 -410.45L-273.4 -434.45Q-270.9 -436.45 -268.9 -438.95L-254.4 -449.95L-256.4 -452.95Q-263.9 -446.95 -271.4 -441.45L-273.9 -443.95L-278.4 -439.95Q-276.9 -438.45 -275.9 -436.95Q-285.4 -424.45 -295.4 -412.45L-345.9 -446.45Q-342.4 -450.45 -339.4 -454.45L-339.4 -457.95L-335.9 -458.95Q-327.9 -468.95 -320.4 -478.95L-312.4 -472.95L-307.4 -477.95L-313.4 -485.95Q-309.4 -488.95 -305.4 -492.45Q-303.9 -490.95 -302.9 -489.45Q-297.4 -493.45 -292.4 -497.95L-289.9 -495.45L-300.9 -486.45Q-300.4 -485.45 -300.4 -484.95Q-300.4 -483.95 -300.9 -483.45L-300.4 -482.95L-299.4 -483.95L-297.4 -486.45L-295.4 -487.95Q-294.9 -486.95 -294.9 -485.95Q-295.4 -485.45 -296.4 -485.45Q-296.9 -484.45 -297.9 -483.45Q-297.4 -482.45 -297.4 -481.95L-293.4 -482.45L-292.4 -482.45L-292.4 -481.45Q-292.9 -481.45 -293.4 -481.95L-296.4 -481.45Q-296.9 -480.45 -297.9 -479.95Q-294.9 -476.95 -292.4 -473.95L-289.9 -474.95Q-289.4 -475.45 -288.9 -476.45L-287.9 -475.45L-289.4 -474.45L-291.9 -473.45Q-291.4 -472.45 -291.4 -471.95Q-290.4 -471.45 -289.4 -471.45Q-289.4 -470.45 -289.9 -469.45L-286.9 -466.45Q-284.9 -466.95 -283.4 -467.95L-283.4 -467.45Q-284.9 -466.45 -286.4 -465.95L-282.4 -460.95L-279.4 -460.95Q-277.9 -461.95 -276.9 -463.45Q-274.4 -464.45 -272.4 -465.45L-270.9 -466.45Q-271.4 -466.45 -272.4 -466.95Q-273.9 -470.95 -275.9 -474.95Q-275.4 -475.45 -275.4 -475.95Q-273.4 -471.95 -271.9 -467.95Q-270.9 -467.45 -270.4 -466.95L-263.9 -471.95Q-264.9 -473.95 -266.4 -475.95Q-265.9 -475.95 -265.4 -476.45L-263.4 -472.45L-261.9 -473.45L-261.9 -474.45Q-258.4 -476.45 -254.9 -478.95Q-253.9 -478.45 -252.9 -478.45L-250.4 -479.45Q-249.9 -480.45 -249.9 -481.45Q-247.9 -482.45 -245.9 -483.95Q-246.4 -485.45 -247.4 -486.95Q-246.9 -486.95 -246.4 -487.45Q-245.4 -485.95 -244.9 -484.45L-242.4 -486.45L-243.4 -488.95L-235.9 -492.95Q-235.9 -493.45 -236.4 -493.95Q-235.4 -494.95 -234.9 -496.45Q-234.9 -496.95 -235.4 -497.95L-236.4 -496.95L-239.9 -496.95L-239.9 -497.45L-237.4 -497.45L-235.9 -498.45L-238.9 -505.95L-242.9 -504.95L-243.4 -505.45L-239.4 -506.45L-240.4 -511.95Q-240.9 -511.95 -241.4 -512.45L-241.4 -514.95L-247.4 -513.95Q-247.4 -514.45 -247.9 -514.95M-288.9,-446.45L-290.4 -446.45L-290.4 -446.95Q-289.9 -446.95 -289.4 -447.45L-288.4 -449.45L-294.4 -456.45Q-295.4 -454.45 -296.9 -452.95Q-297.9 -453.95 -298.9 -455.45L-296.9 -458.45L-297.9 -459.45L-299.4 -459.45L-303.4 -459.95L-307.4 -457.95Q-307.9 -457.45 -308.9 -457.45L-309.9 -452.45Q-310.4 -451.45 -311.4 -450.45L-311.9 -450.95L-310.9 -452.45Q-309.9 -454.45 -309.4 -456.95Q-311.9 -454.95 -314.4 -453.45L-315.4 -453.45Q-320.9 -445.95 -326.9 -438.45Q-325.9 -437.45 -324.9 -436.95Q-323.9 -437.95 -323.4 -439.45Q-322.4 -439.45 -321.4 -439.95Q-320.9 -439.45 -320.4 -439.45L-321.9 -438.45L-323.9 -435.45Q-322.4 -434.45 -320.9 -433.95Q-318.4 -434.45 -316.4 -435.45Q-314.9 -435.45 -313.9 -435.95L-313.4 -435.45Q-314.9 -434.95 -316.4 -434.95Q-317.9 -433.95 -319.9 -432.95L-312.4 -428.45Q-311.4 -430.45 -310.9 -432.95L-310.4 -432.95Q-310.9 -430.45 -311.9 -427.95L-303.4 -420.95L-298.4 -427.45L-298.4 -424.95L-302.4 -419.95L-298.9 -416.45Q-295.4 -421.45 -291.9 -426.95Q-288.4 -428.95 -285.4 -430.95L-280.4 -441.95L-287.9 -448.95L-288.9 -446.45" />
<path style="fill:#6F6F6F;fill-opacity:1" d="M-364.4,-265.45L-334.9 -262.95L-335.9 -252.45L-365.4 -254.95L-364.4 -265.45" />
<path style="fill:#6F6F6F;fill-opacity:1" d="M-367.9,-262.95Q-368.9 -256.95 -370.4 -251.45L-378.9 -253.45Q-377.4 -258.95 -376.4 -264.95L-367.9 -262.95" />
<path style="fill:#6F6F6F;fill-opacity:1" d="M-296.4,-372.95L-289.9 -366.95L-295.9 -360.45L-302.4 -365.95L-296.4 -372.95" />
<path style="fill:#6F6F6F;fill-opacity:1" d="M-305.9,-341.95L-296.9 -340.95L-297.9 -331.95L-306.9 -332.95L-305.9 -341.95" />
<path style="fill:#6F6F6F;fill-opacity:1" d="M-363.4,-386.45Q-363.9 -390.95 -364.9 -395.45Q-360.4 -395.95 -356.4 -396.95Q-355.4 -392.45 -354.9 -387.95Q-358.9 -386.95 -363.4 -386.45" />
<path style="fill:#6F6F6F;fill-opacity:1" d="M-362.9,-383.95Q-364.9 -381.95 -367.4 -379.95L-371.4 -383.95L-367.4 -387.95Q-364.9 -385.95 -362.9 -383.95" />
<path style="fill:#6F6F6F;fill-opacity:1" d="M-259.4,-406.45L-267.4 -399.45L-284.9 -417.95L-276.9 -424.95L-259.4 -406.45" />
<path style="fill:#6F6F6F;fill-opacity:1" d="M-237.9,-389.45Q-241.4 -384.95 -245.4 -380.45L-265.9 -396.95Q-261.9 -401.45 -258.4 -406.45L-237.9 -389.45" />
<path style="fill:#6F6F6F;fill-opacity:1" d="M-147.4,-331.95Q-149.4 -336.95 -151.9 -341.95Q-137.9 -348.45 -124.4 -355.45L-119.4 -345.95L-147.4 -331.95" />
<path style="fill:#6F6F6F;fill-opacity:1" d="M-130.4,-292.95L-141.9 -293.95Q-141.4 -298.45 -141.4 -303.45L-129.4 -302.45L-130.4 -292.95" />
<path style="fill:#6F6F6F;fill-opacity:1" d="M-58.4,-258.95L-59.4 -249.45L-68.4 -250.45L-67.4 -259.95L-58.4 -258.95" />
<path style="fill:#6F6F6F;fill-opacity:1" d="M-59.9,-213.95L-68.9 -214.95L-67.9 -224.45L-59.4 -223.45Q-59.4 -218.45 -59.9 -213.95" />
<path style="fill:#6F6F6F;fill-opacity:1" d="M-67.4,-211.95L-57.9 -212.45Q-57.4 -206.95 -57.4 -201.45L-66.9 -200.95Q-66.9 -206.45 -67.4 -211.95" />
<path style="fill:#6F6F6F;fill-opacity:1" d="M-55.4,-198.45Q-55.9 -192.95 -56.9 -187.45L-48.9 -197.45L-40.4 -190.95Q-49.9 -178.95 -59.9 -166.95Q-63.9 -169.95 -67.9 -173.45L-57.9 -186.45L-67.9 -187.95L-65.9 -199.95L-55.4 -198.45" />
<path style="fill:#6F6F6F;fill-opacity:1" d="M-7.9,-226.95L-8.9 -217.95L-16.4 -219.45L-15.4 -227.95L-7.9 -226.95" />
<path style="fill:#6F6F6F;fill-opacity:1" d="M-16.4,-238.95L-7.4 -237.95Q-7.4 -232.95 -7.9 -228.45L-16.9 -228.95L-16.9 -230.45L-21.9 -230.45Q-21.4 -234.45 -21.4 -238.45L-16.4 -237.95L-16.4 -238.95" />
<path style="fill:#6F6F6F;fill-opacity:1" d="M-6.9,-216.95Q-6.4 -211.45 -6.4 -205.95L-15.9 -205.45L-16.9 -216.45L-6.9 -216.95" />
<path style="fill:#6F6F6F;fill-opacity:1" d="M-6.4,-193.95L-15.4 -192.95L-16.4 -204.45L-7.9 -204.95Q-6.9 -199.45 -6.4 -193.95" />
<path style="fill:#6F6F6F;fill-opacity:1" d="M-15.4,-188.45L-7.4 -189.45Q-6.9 -184.45 -6.9 -179.95L-14.4 -179.45L-15.4 -188.45" />
<path style="fill:#6F6F6F;fill-opacity:1" d="M-7.4,-166.95L-16.9 -167.45L-15.9 -178.45L-6.4 -177.45L-7.4 -166.95" />
<path style="fill:#6F6F6F;fill-opacity:1" d="M-81.9,-180.95L-72.4 -179.45Q-72.9 -173.45 -73.9 -167.95L-83.4 -169.45Q-82.4 -174.95 -81.9 -180.95" />
<path style="fill:#6F6F6F;fill-opacity:1" d="M-128.4,-175.45L-117.4 -178.45Q-115.9 -173.95 -114.9 -169.45Q-120.4 -167.45 -125.9 -165.95Q-126.9 -170.45 -128.4 -175.45" />
<path style="fill:#6F6F6F;fill-opacity:1" d="M-137.9,-142.45Q-142.9 -133.45 -148.4 -124.45Q-152.4 -126.45 -156.9 -128.95Q-153.9 -133.95 -151.4 -139.45L-152.4 -151.45L-147.4 -159.45Q-134.4 -151.45 -121.4 -143.95Q-123.9 -139.45 -126.4 -135.45Q-131.9 -138.95 -137.9 -142.45" />
<path style="fill:#6F6F6F;fill-opacity:1" d="M-155.9,-122.95L-144.9 -123.95Q-143.4 -111.95 -142.4 -99.95L-153.4 -98.95Q-154.4 -110.95 -155.9 -122.95" />
<path style="fill:#6F6F6F;fill-opacity:1" d="M-186.9,-55.45L-176.9 -27.45Q-182.4 -24.95 -188.4 -22.95L-198.4 -51.45L-186.9 -55.45" />
<path style="fill:#6F6F6F;fill-opacity:1" d="M-119.9,-111.95Q-110.9 -124.45 -102.4 -136.95L-93.9 -130.45Q-102.4 -117.95 -111.4 -105.45L-119.9 -111.95" />
<path style="fill:#6F6F6F;fill-opacity:1" d="M-20.4,-66.45Q-24.9 -64.45 -29.9 -62.95L-29.9 -63.45L-44.9 -42.95L-52.9 -48.95Q-43.4 -61.45 -33.9 -74.45L-39.9 -91.95Q-34.9 -93.45 -30.4 -95.45L-20.4 -66.45" />
<path style="fill:#6F6F6F;fill-opacity:1" d="M-127.9,-47.95Q-123.9 -44.45 -119.9 -41.45Q-129.4 -29.45 -139.4 -17.95Q-143.4 -20.95 -147.4 -24.45Q-137.4 -35.95 -127.9 -47.95" />
<path style="fill:#6F6F6F;fill-opacity:1" d="M-89.9,-43.95L-96.9 -19.45Q-101.4 -20.45 -105.9 -21.95Q-101.9 -33.95 -98.4 -46.45Q-93.9 -44.95 -89.9 -43.95" />
<path style="fill:#6F6F6F;fill-opacity:1" d="M-132.4,-17.95L-120.4 -17.45Q-120.4 -12.45 -120.9 -7.95L-132.4 -8.45L-132.4 -17.95" />
<path style="fill:#6F6F6F;fill-opacity:1" d="M-155.4,-17.45L-145.9 -16.95L-146.9 -8.95L-155.9 -9.95Q-155.4 -13.45 -155.4 -17.45" />
<path style="fill:#6F6F6F;fill-opacity:1" d="M-82.9,-21.45L-80.9 -13.95Q-84.9 -12.45 -88.9 -11.45Q-89.9 -14.95 -91.4 -18.95Q-86.9 -19.95 -82.9 -21.45" />
<path style="fill:#6F6F6F;fill-opacity:1" d="M-72.9,-25.45L-69.9 -17.45L-78.9 -14.45Q-79.9 -18.45 -81.4 -22.95L-80.9 -22.95Q-81.4 -25.45 -82.4 -27.95L-78.4 -28.95L-80.4 -30.95Q-78.9 -32.45 -77.9 -33.95Q-75.9 -31.95 -73.9 -30.45L-74.9 -28.95L-73.9 -25.45L-72.9 -25.45" />
<path style="fill:#6F6F6F;fill-opacity:1" d="M-60.4,-29.95Q-58.9 -25.45 -57.9 -20.95L-68.4 -17.95Q-69.4 -21.95 -70.9 -26.45Q-65.4 -27.95 -60.4 -29.95" />
<path style="fill:#6F6F6F;fill-opacity:1" d="M-48.9,-35.45L-44.9 -27.45L-54.9 -22.45L-58.9 -30.45L-48.9 -35.45" />
<path style="fill:#6F6F6F;fill-opacity:1" d="M-37.9,-39.95L-34.4 -33.45Q-38.4 -30.95 -42.4 -28.95Q-43.9 -32.45 -45.9 -35.95L-37.9 -39.95" />
<path style="fill:#6F6F6F;fill-opacity:1" d="M-28.9,-45.45Q-26.9 -41.95 -25.4 -38.45L-33.4 -34.45L-36.9 -40.95Q-32.9 -42.95 -28.9 -45.45" />
<path style="fill:#6F6F6F;fill-opacity:1" d="M-89.9,-20.95Q-91.9 -22.45 -93.9 -24.45L-91.9 -27.45L-87.4 -23.95Q-88.4 -22.45 -89.9 -20.95" />
<path style="fill:#6F6F6F;fill-opacity:1" d="M-107.9,-19.95Q-106.9 -14.95 -106.4 -10.45Q-111.9 -8.95 -117.4 -7.95L-119.4 -17.45Q-113.4 -18.45 -107.9 -19.95" />
<path style="fill:#6F6F6F;fill-opacity:1" d="M-10.9,-64.45L-3.9 -56.45L-22.9 -40.45L-29.9 -48.45L-10.9 -64.45" />
<path style="fill:#6F6F6F;fill-opacity:1" d="M-103.4,-148.95L-114.9 -147.95Q-114.9 -152.95 -115.4 -157.95L-103.9 -158.45Q-103.4 -153.45 -103.4 -148.95" />
<path style="fill:#6F6F6F;fill-opacity:1" d="M-106.4,-83.45L-117.9 -84.45L-116.9 -94.45L-105.4 -93.45L-106.4 -83.45" />
<path style="fill:#6F6F6F;fill-opacity:1" d="M-72.9,-83.45L-87.4 -83.95Q-86.9 -88.45 -86.9 -93.45L-72.9 -93.45L-72.9 -83.45" />
<path style="fill:#6F6F6F;fill-opacity:1" d="M-30.9,-56.45Q-29.4 -58.95 -28.4 -61.95Q-25.4 -60.45 -22.9 -59.45Q-23.9 -56.45 -25.4 -53.45L-30.9 -56.45" />
<path style="fill:#6F6F6F;fill-opacity:1" d="M-117.9,-79.45L-107.4 -79.45L-107.4 -79.95L-97.9 -79.45L-97.9 -71.45L-107.4 -71.95L-107.4 -71.45L-108.9 -71.45L-108.9 -65.45L-115.9 -65.45Q-115.9 -68.45 -116.4 -71.45L-117.9 -71.45L-117.9 -79.45" />
<path style="fill:#6F6F6F;fill-opacity:1" d="M-84.4,-77.95L-85.4 -69.95L-97.4 -71.95Q-96.4 -76.45 -95.9 -80.95L-84.4 -79.45L-84.4 -79.95L-72.4 -79.95L-72.4 -70.45L-83.9 -70.45Q-83.9 -73.95 -84.4 -77.95" />
<path style="fill:#6F6F6F;fill-opacity:1" d="M-76.4,-151.95L-87.9 -152.45Q-87.4 -156.95 -87.4 -161.95L-75.9 -161.95Q-75.9 -156.95 -76.4 -151.95" />
<path style="fill:#6F6F6F;fill-opacity:1" d="M-62.9,-147.45L-74.4 -145.95L-75.4 -155.95L-63.9 -156.95L-62.9 -147.45" />
<path style="fill:#6F6F6F;fill-opacity:1" d="M-31.4,-121.45L-41.9 -121.45L-41.9 -132.45L-31.4 -132.45L-31.4 -121.45" />
<path style="fill:#6F6F6F;fill-opacity:1" d="M-4.4,-131.95Q-4.4 -131.45 -4.9 -130.95Q-0.4 -128.95 4.1 -127.45L0.1 -116.95L-9.4 -120.95Q-8.9 -121.45 -8.9 -121.95Q-13.4 -123.45 -17.9 -125.45L-13.9 -135.45Q-8.9 -133.45 -4.4 -131.95" />
<path style="fill:#6F6F6F;fill-opacity:1" d="M12.1,-160.45Q12.1 -154.45 11.6 -148.95L1.6 -149.95L1.6 -149.45L-9.4 -150.45L-8.4 -161.45L12.1 -160.45" />
<path style="fill:#6F6F6F;fill-opacity:1" d="M-16.4,-109.45L-24.9 -114.95Q-21.4 -119.95 -18.4 -124.95L-9.9 -119.45Q-12.9 -114.45 -16.4 -109.45" />
<path style="fill:#6F6F6F;fill-opacity:1" d="M-23.4,-99.95Q-27.4 -102.95 -31.9 -105.95L-30.9 -106.95L-33.9 -108.95Q-31.4 -111.95 -29.4 -114.95L-26.9 -112.95L-25.9 -113.95L-17.9 -107.95Q-20.4 -103.95 -23.4 -99.95" />
<path style="fill:#6F6F6F;fill-opacity:1" d="M-14.9,-94.45Q-18.4 -96.95 -22.4 -99.45Q-18.9 -103.95 -15.9 -108.45L-8.4 -102.95Q-11.4 -98.45 -14.9 -94.45" />
<path style="fill:#6F6F6F;fill-opacity:1" d="M8.1,-72.45L2.6 -62.45Q-1.4 -64.45 -5.4 -66.95Q-4.4 -67.95 -3.9 -69.45L-7.9 -66.45Q-17.4 -77.95 -27.4 -89.45L-19.4 -96.45L-0.9 -74.95Q0.1 -75.95 0.6 -76.95Q4.6 -74.45 8.1 -72.45" />
<path style="fill:#6F6F6F;fill-opacity:1" d="M10.6,-86.45L17.6 -80.45L9.6 -71.95L3.1 -77.95Q7.1 -81.95 10.6 -86.45" />
<path style="fill:#6F6F6F;fill-opacity:1" d="M-6.9,-104.95Q-11.4 -107.45 -15.9 -110.45Q-12.4 -115.45 -9.4 -120.45L-0.9 -114.95L-6.9 -104.95" />
<path style="fill:#6F6F6F;fill-opacity:1" d="M19.1,-101.95Q23.1 -99.45 27.1 -97.45Q24.6 -92.45 21.6 -87.95L13.6 -91.95L19.1 -101.95" />
<path style="fill:#6F6F6F;fill-opacity:1" d="M32.1,-134.45L40.6 -131.45L37.6 -120.45Q33.1 -121.45 28.6 -122.95Q30.6 -128.45 32.1 -134.45" />
<path style="fill:#6F6F6F;fill-opacity:1" d="M36.1,-145.95Q40.6 -144.45 44.6 -143.45L41.6 -132.45Q37.1 -133.45 32.6 -134.95Q34.6 -140.45 36.1 -145.95" />
<path style="fill:#6F6F6F;fill-opacity:1" d="M37.6,-158.95L46.6 -157.95Q46.1 -152.45 45.1 -147.45L36.1 -148.45Q37.1 -153.45 37.6 -158.95" />
<path style="fill:#6F6F6F;fill-opacity:1" d="M-10.9,-137.95L-7.9 -149.45L19.1 -142.45Q18.1 -138.45 16.6 -134.45Q17.6 -134.95 18.6 -135.95L34.6 -109.45Q32.6 -107.95 30.6 -106.95Q31.1 -106.45 31.6 -106.45L27.6 -98.95Q24.1 -100.45 20.6 -102.45L22.6 -106.45L8.6 -129.95L12.6 -131.95L-10.9 -137.95" />
<path style="fill:#6F6F6F;fill-opacity:1" d="M-93.4,-149.95L-101.9 -149.95L-101.9 -157.95L-92.9 -157.95Q-92.9 -153.95 -93.4 -149.95" />
<path style="fill:#6F6F6F;fill-opacity:1" d="M-142.9,-176.95L-131.4 -175.95Q-131.9 -170.95 -132.9 -165.95L-144.4 -167.45Q-143.4 -171.95 -142.9 -176.95" />
<path style="fill:#6F6F6F;fill-opacity:1" d="M-87.4,-235.95L-107.4 -240.95L-105.4 -250.45L-83.9 -244.45Q-82.9 -246.45 -82.4 -248.95L-72.9 -244.95Q-78.4 -230.45 -84.4 -215.95L-93.9 -219.95Q-90.4 -227.95 -87.4 -235.95" />
<path style="fill:#6F6F6F;fill-opacity:1" d="M-30.4,-271.45L-7.9 -250.95L-14.9 -242.95L-37.4 -263.95L-30.4 -271.45" />
<path style="fill:#6F6F6F;fill-opacity:1" d="M-122.4,-314.45L-131.9 -313.95L-132.9 -325.45L-123.4 -325.95L-122.4 -314.45" />
<path style="fill:#6F6F6F;fill-opacity:1" d="M-148.4,-305.45L-157.9 -306.95Q-156.9 -312.45 -156.4 -318.45L-146.9 -316.95Q-147.4 -310.95 -148.4 -305.45" />
<path style="fill:#6F6F6F;fill-opacity:1" d="M48.1,-489.95L48.1 -485.95L-32.4 -485.95L-32.4 -489.95L48.1 -489.95" />
</g>
</svg>
