<?xml version="1.0" encoding="utf-8"?>
<svg version="1.1" id="Layer_1"
xmlns="http://www.w3.org/2000/svg"
xmlns:xlink="http://www.w3.org/1999/xlink"
xmlns:author="http://www.sothink.com"
width="512px" height="616px"
xml:space="preserve">
<g id="98" transform="matrix(1, 0, 0, 1, 390.45, 554.95)">
<path style="fill:#424242;fill-opacity:1" d="M92.05,-68.45L79.05 -46.45L52.05 -12.45Q43.55 -3.95 34.55 4.05L-3.45 30.05Q-18.95 37.55 -34.95 45.05L-74.95 55.55L-125.95 61.05L-229.45 61.05L-229.45 8.55L-390.45 8.55L-389.45 -319.95Q-385.95 -339.95 -382.95 -360.45Q-376.95 -380.95 -371.45 -401.95L-348.45 -447.95Q-334.95 -464.45 -321.45 -481.45Q-312.45 -489.45 -303.95 -497.95L-265.95 -523.95Q-249.95 -531.45 -234.45 -538.95Q-214.45 -543.95 -194.45 -549.45L-153.45 -554.45Q-96.95 -554.45 -40.45 -554.95L-40.45 -502.45L121.05 -502.45L120.05 -173.95Q114.55 -143.95 108.55 -114.45Q105.55 -102.95 102.05 -91.95L92.05 -68.45" />
<path style="fill:#FFFFFF;fill-opacity:1" d="M-249.45,-122.45L-225.45 -122.45L-225.45 -123.95L-251.95 -123.95L-251.95 -142.95L-202.45 -142.95L-202.45 -102.95L-249.45 -102.95L-249.45 -122.45" />
<path style="fill:#959595;fill-opacity:1" d="M-202.45,-335.45L-206.45 -335.45L-206.45 -327.95L-202.45 -327.95L-202.45 -250.45L-206.45 -250.45L-206.45 -242.95L-202.45 -242.95L-202.45 -185.95L-198.95 -185.95L-198.95 -393.45L-202.45 -393.45L-202.45 -335.45M-206.45,-415.95L-206.45 -412.95L-127.95 -412.95L-127.95 -420.45L-135.45 -420.45L-135.45 -489.95L-63.45 -489.95L-63.45 -441.45L-60.95 -441.45L-60.95 -489.45L-10.95 -489.45L-10.95 -419.95L-60.95 -419.95L-60.95 -428.45L-63.45 -428.45L-63.45 -419.95L-71.45 -419.95L-71.45 -327.95L-63.95 -327.95L-63.95 -335.45L-6.45 -335.45L-6.45 -154.45L-4.45 -154.45L-4.45 -242.95L35.05 -242.95L35.05 -131.95L-4.45 -131.95L-4.45 -141.45L-6.45 -141.45L-6.45 -72.95L-63.95 -72.95L-63.95 -79.95L-71.45 -79.95L-71.45 -57.95L-134.95 -57.95L-134.95 -50.45L-126.95 -50.45L-126.95 -30.45L-125.45 -30.45L-125.45 -50.45L-71.45 -50.45L-71.45 -3.45L-125.45 -3.45L-125.45 -17.45L-126.95 -17.45L-126.95 -3.45L-198.95 -3.45L-198.95 -17.45L-201.95 -17.45L-201.95 -3.45L-319.95 -3.45L-319.95 -57.95L-301.45 -57.95L-301.45 -59.95L-319.95 -59.95L-319.95 -72.45L-316.45 -72.45L-316.45 -79.95L-319.95 -79.95L-319.95 -142.95L-277.95 -142.95L-277.95 -122.45L-275.45 -122.45L-275.45 -142.95L-251.95 -142.95L-251.95 -122.45L-249.45 -122.45L-249.45 -102.95L-275.45 -102.95L-275.45 -109.45L-277.95 -109.45L-277.95 -59.95L-288.45 -59.95L-288.45 -57.95L-206.45 -57.95L-206.45 -50.45L-201.95 -50.45L-201.95 -43.45L-198.95 -43.45L-198.95 -164.95L-206.45 -164.95L-206.45 -157.95L-239.45 -157.95L-239.45 -216.95L-278.45 -216.95L-278.45 -415.95L-206.45 -415.95M-71.45,-307.95L-71.45 -99.45L-67.95 -99.45L-67.95 -157.95L-63.95 -157.95L-63.95 -165.45L-67.95 -165.45L-67.95 -242.95L-63.95 -242.95L-63.95 -250.45L-67.95 -250.45L-67.95 -307.95L-71.45 -307.95" />
<path style="fill:#6F6F6F;fill-opacity:1" d="M-88.45,-273.45L-110.45 -273.45L-110.45 -304.95L-88.45 -304.95L-88.45 -273.45" />
<path style="fill:#6F6F6F;fill-opacity:1" d="M-182.45,-220.45L-160.45 -220.45L-160.45 -189.45L-182.45 -189.45L-182.45 -220.45" />
<path style="fill:#6F6F6F;fill-opacity:1" d="M-88.45,-189.45L-110.45 -189.45L-110.45 -220.45L-88.45 -220.45L-88.45 -189.45" />
<path style="fill:#6F6F6F;fill-opacity:1" d="M-182.45,-304.95L-160.45 -304.95L-160.45 -273.45L-182.45 -273.45L-182.45 -304.95" />
<path style="fill:#6F6F6F;fill-opacity:1" d="M-31.45,-286.95L-31.45 -206.95L-46.95 -206.95L-48.95 -245.95L-46.95 -286.95L-31.45 -286.95" />
<path style="fill:#6F6F6F;fill-opacity:1" d="M-28.95,-123.95L-19.45 -123.95L-19.45 -114.95L-28.95 -114.95L-28.95 -123.95" />
<path style="fill:#6F6F6F;fill-opacity:1" d="M-198.95,-164.95L-190.45 -164.95L-190.45 -157.45L-198.95 -157.45L-198.95 -164.95" />
<path style="fill:#6F6F6F;fill-opacity:1" d="M-79.95,-165.45L-71.45 -165.45L-71.45 -157.95L-79.95 -157.95L-79.95 -165.45" />
<path style="fill:#6F6F6F;fill-opacity:1" d="M-198.95,-335.45L-190.45 -335.45L-190.45 -327.95L-198.95 -327.95L-198.95 -335.45" />
<path style="fill:#6F6F6F;fill-opacity:1" d="M-79.95,-335.45L-71.45 -335.45L-71.45 -327.95L-79.95 -327.95L-79.95 -335.45" />
<path style="fill:#6F6F6F;fill-opacity:1" d="M-18.95,-114.45L-18.95 -89.45L-29.95 -89.45L-29.95 -114.45L-18.95 -114.45" />
<path style="fill:#6F6F6F;fill-opacity:1" d="M-275.95,-7.95L-222.45 -7.95L-222.45 -3.45L-275.95 -3.45L-275.95 -7.95" />
<path style="fill:#6F6F6F;fill-opacity:1" d="M-224.95,-291.95Q-237.45 -291.95 -250.45 -292.45Q-249.95 -297.95 -249.95 -303.45Q-236.95 -302.95 -224.45 -302.95Q-224.45 -297.45 -224.95 -291.95" />
<path style="fill:#6F6F6F;fill-opacity:1" d="M-276.95,-291.95L-276.95 -302.95Q-264.45 -302.95 -251.95 -303.45Q-251.45 -297.95 -251.45 -292.45Q-263.95 -291.95 -276.95 -291.95" />
<path style="fill:#6F6F6F;fill-opacity:1" d="M-277.45,-316.45Q-252.95 -316.45 -228.45 -316.95Q-227.95 -311.45 -227.95 -305.95Q-252.45 -305.45 -277.45 -305.45L-277.45 -316.45" />
<path style="fill:#6F6F6F;fill-opacity:1" d="M-226.45,-347.95Q-250.95 -347.45 -275.95 -347.45L-275.95 -358.45Q-250.95 -358.45 -226.45 -358.95L-226.45 -347.95" />
<path style="fill:#6F6F6F;fill-opacity:1" d="M-251.95,-361.95L-251.95 -372.95L-226.95 -372.95L-226.95 -361.95L-251.95 -361.95" />
<path style="fill:#6F6F6F;fill-opacity:1" d="M-278.45,-361.45L-278.45 -372.45L-254.45 -372.45L-254.45 -361.45L-278.45 -361.45" />
<path style="fill:#6F6F6F;fill-opacity:1" d="M-226.95,-263.45L-226.95 -252.45Q-239.45 -252.45 -252.45 -252.95L-252.45 -263.95Q-239.45 -263.45 -226.95 -263.45" />
<path style="fill:#6F6F6F;fill-opacity:1" d="M-252.95,-263.95L-252.95 -252.95Q-265.45 -252.45 -278.45 -252.45L-278.45 -263.45Q-265.45 -263.45 -252.95 -263.95" />
<path style="fill:#6F6F6F;fill-opacity:1" d="M-278.45,-404.95L-278.45 -415.95L-224.95 -415.95L-224.95 -404.95L-278.45 -404.95" />
<path style="fill:#6F6F6F;fill-opacity:1" d="M-36.45,-453.95Q-23.95 -453.95 -11.45 -454.45L-11.45 -444.45L-36.45 -443.45L-36.45 -453.95" />
<path style="fill:#6F6F6F;fill-opacity:1" d="M-38.45,-456.95L-38.45 -467.45Q-25.95 -467.45 -13.45 -467.95L-13.45 -456.95L-38.45 -456.95" />
<path style="fill:#6F6F6F;fill-opacity:1" d="M-60.95,-481.95L-60.95 -489.45L-33.95 -489.45L-33.95 -481.95L-60.95 -481.95" />
</g>
</svg>
