<?xml version="1.0" encoding="utf-8"?>
<svg version="1.1" id="Layer_1"
xmlns="http://www.w3.org/2000/svg"
xmlns:xlink="http://www.w3.org/1999/xlink"
xmlns:author="http://www.sothink.com"
width="512px" height="616px"
xml:space="preserve">
<g id="93" transform="matrix(1, 0, 0, 1, 390.4, 554.95)">
<path style="fill:#424242;fill-opacity:1" d="M92.1,-68.45L79.1 -46.45L52.1 -12.45Q43.6 -3.95 34.6 4.05L-3.4 30.05L-34.9 45.05L-74.9 55.55L-125.9 61.05L-229.4 61.05L-229.4 8.55L-390.4 8.55L-389.4 -319.95Q-385.9 -339.95 -382.9 -360.45Q-376.9 -380.95 -371.4 -401.95L-348.4 -447.95L-321.4 -481.45Q-312.4 -489.45 -303.9 -497.95L-265.9 -523.95L-234.4 -538.95Q-214.4 -543.95 -194.4 -549.45L-153.4 -554.45Q-96.9 -554.45 -40.4 -554.95L-40.4 -502.45L121.1 -502.45L120.1 -173.95Q114.6 -143.95 108.6 -114.45Q105.6 -102.95 102.1 -91.95L92.1 -68.45" />
<path style="fill:#6F6F6F;fill-opacity:1" d="M-52.9,-335.95L-5.4 -335.95L-5.4 -275.95L-21.9 -275.95L-21.9 -272.95L-31.9 -272.95L-31.9 -275.95L-52.9 -275.95L-52.9 -335.95" />
<path style="fill:#6F6F6F;fill-opacity:1" d="M-3.9,-335.95L-3.9 -275.95L-21.9 -275.95L-21.9 -272.95L-31.9 -272.95L-31.9 -275.95L-52.9 -275.95L-52.9 -335.95L-3.9 -335.95" />
<path style="fill:#959595;fill-opacity:1" d="M-35.4,-306.95L-35.4 -333.95L-6.4 -333.95L-6.4 -306.95L-35.4 -306.95" />
<path style="fill:#FFFFFF;fill-opacity:1" d="M-35.4,-277.45L-35.4 -303.95L-6.4 -303.95L-6.4 -297.95L-3.9 -297.95L-3.9 -283.45L-6.4 -283.45L-6.4 -277.45L-35.4 -277.45" />
<path style="fill:#FFFFFF;fill-opacity:1" d="M-225.4,-123.95L-252.4 -123.95L-252.4 -122.45L-225.4 -122.45L-225.4 -123.95M-202.4,-142.95L-202.4 -102.95L-275.4 -102.95L-275.4 -142.95L-202.4 -142.95" />
</g>
</svg>
