<?xml version="1.0" encoding="utf-8"?>
<svg version="1.1" id="Layer_1"
xmlns="http://www.w3.org/2000/svg"
xmlns:xlink="http://www.w3.org/1999/xlink"
xmlns:author="http://www.sothink.com"
width="20px" height="12px"
xml:space="preserve">
<g id="125" transform="matrix(1, 0, 0, 1, 19.55, 46)">
<path style="fill:#FFFFFF;fill-opacity:1" d="M0.05,-38L-1.55 -38L-1.95 -37.95L-2.35 -37.95L-2.75 -37.9L-3.15 -37.9L-4.35 -37.75L-4.75 -37.75L-6.3 -37.5L-6.7 -37.4L-7.5 -37.3L-11.35 -36.3L-11.7 -36.15L-12.1 -36.05L-12.45 -35.9L-12.85 -35.8L-16.15 -34.4L-19.55 -41.65L-17.8 -42.45L-11.4 -44.6L-7.65 -45.4L-7.15 -45.45L-6.7 -45.55L-1.9 -46L0 -46L0.05 -38" />
</g>
</svg>
