<?xml version="1.0" encoding="utf-8"?>
<svg version="1.1" id="Layer_1"
xmlns="http://www.w3.org/2000/svg"
xmlns:xlink="http://www.w3.org/1999/xlink"
xmlns:author="http://www.sothink.com"
width="124px" height="124px"
xml:space="preserve">
<g id="113" transform="matrix(1, 0, 0, 1, 62, 62)">
<path style="fill:#FFFFFF;fill-opacity:1" d="M6.35,-50.9L-2.2 -51.2L-5.95 -50.9L-6.5 -50.9L-8.6 -50.55L-9.15 -50.4L-10.2 -50.25L-15.4 -48.95L-15.9 -48.7L-16.4 -48.6L-21.4 -46.65L-22.8 -45.9L-23.35 -45.7L-29.75 -41.8L-30.15 -41.45L-30.65 -41.2L-36.3 -36.25L-36.65 -35.85L-37.05 -35.5L-41.25 -30.6L-41.5 -30.1L-41.85 -29.7L-45.75 -23.3L-48.3 -17.4L-48.45 -16.85L-48.65 -16.4L-49.45 -13.8L-50.95 -6.45L-50.95 -5.95L-51.2 -2.7L-51.3 -2.15L-51.3 2.1L-51.2 2.65L-50.95 5.85L-50.95 6.4L-50.2 10.65L-50.05 11.1L-49.85 12.2L-49 15.3L-48.8 15.75L-48.3 17.3L-45.75 23.25L-42.8 28.3L-41.85 29.65L-41.5 30.05L-41.25 30.55L-37.05 35.45L-36.65 35.8L-36.3 36.2L-30.65 41.1L-25.25 44.6L-17.45 48.2L-16.9 48.3L-16.4 48.5L-12.3 49.75L-11.75 49.8L-10.2 50.2L-6.5 50.8L-5.95 50.8L-4.35 51L-3.8 51L-3.25 51.1L-0.55 51.15L-0.05 51.2L0.45 51.15L3.15 51.1L3.7 51L4.2 51L5.85 50.8L6.35 50.8L10.1 50.2L11.65 49.8L12.15 49.75L16.3 48.5L16.75 48.3L17.3 48.2L23.25 45.6L30.5 41.1L36.2 36.2L36.5 35.8L37.3 35.05L41.1 30.55L44.6 25.15L44.8 24.65L45.6 23.25L48.2 17.3L48.3 16.8L48.65 15.75L48.85 15.3L50.8 6.4L50.8 5.85L51 4.25L51 3.7L51.1 3.15L51.15 0.45L51.2 0L51.1 -3.25L51 -3.75L51 -4.3L50.8 -5.95L50.8 -6.45L50.65 -7L49.75 -12.25L48.5 -16.4L48.3 -16.85L48.2 -17.4L44.6 -25.2L41.1 -30.6L37.3 -35.1L36.5 -35.85L36.2 -36.25L35.75 -36.6L35.05 -37.4L30.5 -41.2L30.05 -41.45L29.65 -41.8L23.25 -45.7L17.3 -48.25L16.75 -48.4L16.3 -48.6L15.75 -48.7L15.25 -48.95L12.15 -49.8L11.65 -49.85L10.1 -50.25L6.9 -50.75L6.35 -50.9M9.6,-61.25L10.3 -61.2L15.35 -60.1L25.2 -56.7L27.55 -55.6L28.1 -55.25L28.7 -55L29.25 -54.65L29.85 -54.4L35.35 -50.95L43.3 -44.35L49.3 -37.55L50.45 -35.9L50.9 -35.45L55.2 -28.15L55.55 -27.65L59.7 -16.7L61.1 -10.4L61.95 -2.65L62 0L61.35 9.05L60.05 15.35L57.15 24L55.55 27.55L50.9 35.4L50.45 35.85L50.15 36.4L42.85 44.75L35.35 50.9L27.55 55.55L16.6 59.7L9 61.35L2.55 61.95L0.55 61.95L-0.05 62L-9.15 61.35L-21.7 58.1L-27.7 55.55L-28.2 55.2L-35.5 50.9L-35.95 50.5L-36.5 50.15L-41.1 46.5L-46.65 40.95L-50.25 36.4L-50.6 35.85L-51 35.4L-54.45 29.85L-54.7 29.25L-55.05 28.7L-55.3 28.1L-55.65 27.55L-57.3 24L-60.2 15.35L-61.25 10.3L-61.3 9.65L-61.45 9.05L-62 3.85L-61.45 -9.1L-61.3 -9.7L-61.25 -10.4L-59.85 -16.7L-55.65 -27.65L-55.3 -28.15L-55.05 -28.8L-54.7 -29.3L-54.45 -29.9L-51 -35.45L-50.6 -35.9L-49.45 -37.55L-44.85 -42.95L-35.5 -50.95L-29.95 -54.4L-29.35 -54.65Q-29.05 -54.8 -28.8 -55L-28.2 -55.25L-27.7 -55.6L-24.1 -57.2L-15.45 -60.1L-10.4 -61.2L-9.75 -61.25L-9.15 -61.4L-0.1 -62L-0.05 -59.7L-0.05 -62L9 -61.4L9.6 -61.25" />
</g>
</svg>
