<?xml version="1.0" encoding="utf-8"?>
<svg version="1.1" id="Layer_1"
xmlns="http://www.w3.org/2000/svg"
xmlns:xlink="http://www.w3.org/1999/xlink"
xmlns:author="http://www.sothink.com"
width="92px" height="92px"
xml:space="preserve">
<g id="212" transform="matrix(1, 0, 0, 1, 45.9, 46)">
<path style="fill:#FFFFFF;fill-opacity:1" d="M20.9,-41L21.35 -40.8L21.75 -40.55L22.2 -40.35L26.3 -37.8L26.65 -37.5L27.85 -36.65L32.2 -32.9L36.65 -27.85L37.5 -26.65L37.8 -26.3L40.35 -22.2L40.55 -21.75L40.8 -21.35L41 -20.9L41.25 -20.5L44.35 -12.4L45.55 -6.75L46 -1.95L46 -0.5L46.05 0L45.55 6.7L44.6 11.4L42.45 17.8L41.25 20.45L41 20.85L40.8 21.3L40.55 21.7L40.35 22.15L37.8 26.25L37.5 26.6L37.25 27L31.85 33.2L27.85 36.6L26.65 37.45L26.3 37.75L22.2 40.3L21.75 40.5L21.35 40.75L20.9 40.95L20.5 41.2L12.4 44.3L7.7 45.35L7.2 45.4L6.75 45.5L1.95 45.95L0.5 45.95L0.05 46L-0.45 45.95L-1.9 45.95L-6.7 45.5L-7.15 45.4L-7.65 45.35L-16 43.1L-20.45 41.2L-20.85 40.95L-21.3 40.75L-21.7 40.5L-22.15 40.3L-26.25 37.75L-26.6 37.45L-27 37.2L-30.4 34.5L-34.5 30.4L-37.2 27L-37.45 26.6L-37.75 26.25L-40.3 22.15L-40.5 21.7L-40.75 21.3L-40.95 20.85L-41.2 20.45L-42.4 17.8L-44.55 11.4L-45.35 7.65L-45.4 7.15L-45.5 6.7L-45.9 2.85L-45.5 -6.75L-45.4 -7.2L-45.35 -7.7L-44.3 -12.4L-41.2 -20.5L-40.95 -20.9L-40.75 -21.35L-40.5 -21.75L-40.3 -22.2L-37.75 -26.3L-37.45 -26.65L-36.6 -27.85L-33.2 -31.85L-26.25 -37.8L-22.15 -40.35L-21.7 -40.55L-21.3 -40.8L-20.85 -41L-20.45 -41.25L-17.8 -42.45L-11.4 -44.6L-7.65 -45.4L-7.15 -45.45L-6.7 -45.55L-1.9 -46L0 -46L0.05 -38L-1.55 -38L-1.95 -37.95L-2.35 -37.95L-2.75 -37.9L-3.15 -37.9L-4.35 -37.75L-4.75 -37.75L-6.3 -37.5L-6.7 -37.4L-7.5 -37.3L-11.35 -36.3L-11.7 -36.15L-12.1 -36.05L-12.45 -35.9L-12.85 -35.8L-15.8 -34.6L-16.85 -34.05L-17.25 -33.9L-22 -31L-22.3 -30.75L-22.65 -30.55L-26.85 -26.9L-27.1 -26.6L-27.4 -26.35L-30.5 -22.7L-30.7 -22.35L-30.95 -22.05L-33.85 -17.3L-35.75 -12.9L-35.85 -12.5L-36 -12.15L-36.1 -11.75L-36.25 -11.4L-36.45 -10.65L-36.6 -10.25L-37.7 -4.8L-37.7 -4.4L-37.85 -3.2L-37.85 -2.8L-37.9 -2.4L-37.9 -2L-37.95 -1.6L-37.95 1.55L-37.9 1.95L-37.9 2.35L-37.85 2.75L-37.85 3.15L-37.7 4.35L-37.7 4.75L-37.15 7.9L-37.05 8.25L-36.9 9.05L-36.25 11.35L-36.1 11.7L-36 12.1L-35.85 12.45L-35.75 12.85L-33.85 17.25L-31.65 21L-30.95 22L-30.7 22.3L-30.5 22.65L-27.4 26.3L-27.1 26.55L-26.85 26.85L-22.65 30.5L-18.65 33.1L-17.25 33.85L-12.85 35.75L-12.45 35.85L-12.1 36L-11.7 36.1L-11.35 36.25L-9.05 36.9L-8.65 36.95L-7.5 37.25L-5.15 37.6L-4.75 37.7L-4.35 37.7L-3.15 37.85L-2.75 37.85L-2.35 37.9L-1.95 37.9L-1.55 37.95L-0.35 37.95L0.05 38L0.4 37.95L1.6 37.95L2 37.9L2.4 37.9L2.8 37.85L3.2 37.85L4.4 37.7L4.8 37.7L5.2 37.6L7.55 37.25L8.7 36.95L9.1 36.9L10.25 36.6L10.65 36.45L11.4 36.25L11.75 36.1L12.15 36L12.5 35.85L12.9 35.75L17.3 33.85L22.7 30.5L26.9 26.85L27.15 26.55L27.75 26L30.55 22.65L33.15 18.65L33.3 18.3L33.9 17.25L35.8 12.85L35.9 12.45L36.05 12.1L36.15 11.7L36.3 11.35L37.75 4.75L37.75 4.35L37.9 3.15L37.9 2.75L37.95 2.35L37.95 1.95L38 1.55L38 0.35L38.05 0L38 -0.4L38 -1.6L37.95 -2L37.95 -2.4L37.9 -2.8L37.9 -3.2L37.75 -4.4L37.75 -4.8L37.65 -5.2L37.2 -7.95L37.1 -8.3L36.95 -9.1L36.3 -11.4L36.15 -11.75L36.05 -12.15L35.9 -12.5L35.8 -12.9L33.9 -17.3L33.15 -18.7L30.55 -22.7L27.75 -26.05L27.15 -26.6L26.9 -26.9L26.6 -27.15L26.05 -27.75L22.7 -30.55L22.35 -30.75L22.05 -31L18.7 -33.15L14 -35.35L16.95 -42.8L20.5 -41.25L20.9 -41" />
</g>
</svg>
