<?xml version="1.0" encoding="utf-8"?>
<svg version="1.1" id="Layer_1"
xmlns="http://www.w3.org/2000/svg"
xmlns:xlink="http://www.w3.org/1999/xlink"
xmlns:author="http://www.sothink.com"
width="123px" height="123px"
xml:space="preserve">
<g id="115" transform="matrix(1, 0, 0, 1, 61.5, 61.5)">
<path style="fill:#FFFFFF;fill-opacity:1" d="M43.1,-43.45Q61.5 -25.35 61.5 0Q61.5 25.35 43.1 43.5L43.05 43.5Q25 61.5 -0.25 61.5Q-25.05 61.5 -43.55 43.6L-43.55 43.5Q-61.5 25.35 -61.5 0Q-61.5 -25.35 -43.55 -43.45L-43.55 -43.5Q-25.05 -61.5 -0.25 -61.5Q25 -61.5 43.05 -43.5L43.1 -43.45M40.6,-41.2Q23.6 -58.2 -0.3 -58.2Q-23.6 -58.2 -41.05 -41.35L-41.25 -41.15Q-58.25 -24 -58.25 -0.05Q-58.25 23.95 -41.25 41.15L-41.1 41.4Q-23.6 58.15 -0.3 58.15Q23.6 58.15 40.6 41.15L40.8 41Q58.05 23.8 58.05 -0.05Q58.05 -23.95 40.65 -41.1L40.65 -41.15L40.6 -41.2" />
</g>
</svg>
