<?xml version="1.0" encoding="utf-8"?>
<svg version="1.1" id="Layer_1"
xmlns="http://www.w3.org/2000/svg"
xmlns:xlink="http://www.w3.org/1999/xlink"
xmlns:author="http://www.sothink.com"
width="124px" height="124px"
xml:space="preserve">
<g id="112" transform="matrix(1, 0, 0, 1, 62, 62)">
<path style="fill:#373535;fill-opacity:1" d="M9.5,-61.25L10.2 -61.2L15.25 -60.1L25.05 -56.7L27.4 -55.6L27.95 -55.25L28.55 -55L29.1 -54.65L29.7 -54.4L35.2 -51L43.15 -44.4L49.1 -37.65L50.25 -36L50.7 -35.55L55 -28.25L55.35 -27.75L59.5 -16.85L60.9 -10.55L61.75 -2.85L61.8 -0.2L61.15 8.8L59.85 15.1L56.95 23.7L55.35 27.25L50.7 35.1L50.25 35.55L49.95 36.1L42.7 44.4L35.2 50.55L27.4 55.15L16.45 59.3L8.9 60.95L2.45 61.55L0.45 61.55L-0.15 61.6L-9.25 60.95L-21.75 57.7L-27.75 55.15L-28.25 54.8L-35.55 50.55L-36 50.15L-36.55 49.8L-41.15 46.15L-46.65 40.6L-50.25 36.1L-50.6 35.55L-51 35.1L-54.45 29.55L-54.7 28.95L-55.05 28.4L-55.3 27.8L-55.65 27.25L-57.3 23.7L-60.2 15.1L-61.25 10.05L-61.3 9.4L-61.45 8.8L-62 3.65L-61.45 -9.25L-61.3 -9.85L-61.25 -10.55L-59.85 -16.85L-55.65 -27.75L-55.3 -28.25L-55.05 -28.9L-54.7 -29.4L-54.45 -30L-51 -35.55L-50.6 -36L-49.45 -37.65L-44.9 -43L-35.55 -51L-30 -54.4L-29.4 -54.65L-28.85 -55L-28.25 -55.25L-27.75 -55.6L-24.15 -57.2L-15.55 -60.1L-10.5 -61.2L-9.85 -61.25L-9.25 -61.4L-0.2 -62L-0.15 -59.7L-0.15 -62L8.9 -61.4L9.5 -61.25" />
</g>
</svg>
