<?xml version="1.0" encoding="utf-8"?>
<svg version="1.1" id="Layer_1"
xmlns="http://www.w3.org/2000/svg"
xmlns:xlink="http://www.w3.org/1999/xlink"
xmlns:author="http://www.sothink.com"
width="46px" height="58px"
xml:space="preserve">
<g id="147" transform="matrix(1, 0, 0, 1, 45.9, 46)">
<path style="fill:#FFFFFF;fill-opacity:1" d="M0.05,-38L-1.55 -38L-1.95 -37.95L-2.35 -37.95L-2.75 -37.9L-3.15 -37.9L-4.35 -37.75L-4.75 -37.75L-6.3 -37.5L-6.7 -37.4L-7.5 -37.3L-11.35 -36.3L-11.7 -36.15L-12.1 -36.05L-12.45 -35.9L-12.85 -35.8L-15.8 -34.6L-16.85 -34.05L-17.25 -33.9L-22 -31L-22.3 -30.75L-22.65 -30.55L-26.85 -26.9L-27.1 -26.6L-27.4 -26.35L-30.5 -22.7L-30.7 -22.35L-30.95 -22.05L-33.85 -17.3L-35.75 -12.9L-35.85 -12.5L-36 -12.15L-36.1 -11.75L-36.25 -11.4L-36.45 -10.65L-36.6 -10.25L-37.7 -4.8L-37.7 -4.4L-37.85 -3.2L-37.85 -2.8L-37.9 -2.4L-37.9 -2L-37.95 -1.6L-37.95 1.55L-37.9 1.95L-37.9 2.35L-37.85 2.75L-37.85 3.15L-37.7 4.35L-37.7 4.75L-36.7 9.8L-44.4 11.9L-44.55 11.4L-45.35 7.65L-45.4 7.15L-45.5 6.7L-45.9 2.85L-45.5 -6.75L-45.4 -7.2L-45.35 -7.7L-44.3 -12.4L-41.2 -20.5L-40.95 -20.9L-40.75 -21.35L-40.5 -21.75L-40.3 -22.2L-37.75 -26.3L-37.45 -26.65L-36.6 -27.85L-33.2 -31.85L-26.25 -37.8L-22.15 -40.35L-21.7 -40.55L-21.3 -40.8L-20.85 -41L-20.45 -41.25L-17.8 -42.45L-11.4 -44.6L-7.65 -45.4L-7.15 -45.45L-6.7 -45.55L-1.9 -46L0 -46L0.05 -38" />
</g>
</svg>
