<?xml version="1.0" encoding="utf-8"?>
<svg version="1.1" id="Layer_1"
xmlns="http://www.w3.org/2000/svg"
xmlns:xlink="http://www.w3.org/1999/xlink"
xmlns:author="http://www.sothink.com"
width="39px" height="26px"
xml:space="preserve">
<g id="134" transform="matrix(1, 0, 0, 1, 38.8, 46)">
<path style="fill:#FFFFFF;fill-opacity:1" d="M0.05,-38L-1.55 -38L-1.95 -37.95L-2.35 -37.95L-2.75 -37.9L-3.15 -37.9L-4.35 -37.75L-4.75 -37.75L-6.3 -37.5L-6.7 -37.4L-7.5 -37.3L-11.35 -36.3L-11.7 -36.15L-12.1 -36.05L-12.45 -35.9L-12.85 -35.8L-15.8 -34.6L-16.85 -34.05L-17.25 -33.9L-22 -31L-22.3 -30.75L-22.65 -30.55L-26.85 -26.9L-27.1 -26.6L-27.4 -26.35L-30.5 -22.7L-30.7 -22.35L-30.95 -22.05L-32.05 -20.4L-38.8 -24.65L-37.75 -26.3L-37.45 -26.65L-36.6 -27.85L-33.2 -31.85L-26.25 -37.8L-22.15 -40.35L-21.7 -40.55L-21.3 -40.8L-20.85 -41L-20.45 -41.25L-17.8 -42.45L-11.4 -44.6L-7.65 -45.4L-7.15 -45.45L-6.7 -45.55L-1.9 -46L0 -46L0.05 -38" />
</g>
</svg>
