<?xml version="1.0" encoding="utf-8"?>
<svg version="1.1" id="Layer_1"
xmlns="http://www.w3.org/2000/svg"
xmlns:xlink="http://www.w3.org/1999/xlink"
xmlns:author="http://www.sothink.com"
width="22px" height="39px"
xml:space="preserve">
<g id="1426" transform="matrix(1, 0, 0, 1, -66.65, -38.25)">
<path style="fill:#000000;fill-opacity:1" d="M68.95,64.45L68.3 64.45L68.15 64.15L67.85 64L67.6 64.05L67.45 64.15L67.3 64.4L67.3 64.75L67.3 65.1Q67.45 64.95 67.65 64.9L68.05 64.8L68.5 64.9L68.8 65.15L68.95 65.5L69 65.9L68.95 66.4L68.75 66.8L68.35 67.05L67.85 67.15L67.2 67L66.95 66.8Q66.65 66.5 66.65 65.9L66.65 64.7Q66.65 64.1 66.95 63.75Q67.25 63.45 67.85 63.45Q68.3 63.45 68.6 63.7L68.95 64.45M67.85,65.35L67.55 65.4L67.3 65.65L67.3 65.85L67.3 66.2L67.45 66.4L67.6 66.55L67.85 66.6Q68.1 66.6 68.25 66.4L68.35 65.9L68.2 65.45L67.85 65.35" />
<path style="fill:#000000;fill-opacity:1" d="M78.15,57.9L78.15 60.05L78.65 60.05L78.65 60.55L78.15 60.55L78.15 61.5L77.55 61.5L77.55 60.55L75.95 60.55L75.95 59.95L77.5 57.9L78.15 57.9M77.5,58.65L76.5 60.05L77.55 60.05L77.55 58.65L77.5 58.65" />
<path style="fill:#000000;fill-opacity:1" d="M87.25,38.3L87.65 38.5L87.9 38.85L88 39.3L87.8 39.9L87.45 40.4L86.95 40.9L86.5 41.35L87.95 41.35L87.95 41.9L85.65 41.9L85.65 41.3L86.25 40.7L86.7 40.25L87.05 39.95L87.2 39.7L87.3 39.5L87.3 39.3L87.2 38.95Q87.1 38.8 86.85 38.8Q86.6 38.8 86.45 38.95L86.3 39.3L86.3 39.4L85.65 39.4L85.65 39.25L85.75 38.85L85.95 38.55L86.3 38.3L86.8 38.25L87.25 38.3" />
<path style="fill:#000000;fill-opacity:1" d="M83.25,72.9L83.25 76.55L82.6 76.55L82.6 73.8L82.05 73.8L82.05 73.4L82.4 73.3L82.6 73.2L82.75 73.05L82.85 72.9L83.25 72.9M84.7,73.45L84.95 73.15L85.3 72.95L85.75 72.9L86.2 72.95L86.55 73.15L86.75 73.45L86.85 73.85L86.75 74.35L86.45 74.65L86.85 75L86.95 75.5L86.85 76L86.6 76.35L86.2 76.55L85.75 76.6L85.25 76.55L84.9 76.35L84.6 76L84.55 75.5L84.65 75L85.05 74.65L84.75 74.35L84.6 73.85L84.7 73.45M85.3,74.1L85.4 74.25L85.55 74.35L85.75 74.4L85.9 74.35L86.05 74.25L86.15 74.1L86.2 73.95L86.15 73.75L86.05 73.6L85.9 73.5L85.75 73.45L85.55 73.5L85.4 73.6L85.3 73.75L85.3 73.95L85.3 74.1M86.15,75.1Q86 74.95 85.75 74.95Q85.5 74.95 85.35 75.1Q85.2 75.25 85.2 75.5L85.3 75.9L85.75 76.05L86.15 75.9L86.3 75.5L86.15 75.1M84.3,75.85L84.3 76.55L83.6 76.55L83.6 75.85L84.3 75.85" />
</g>
</svg>
