<?xml version="1.0" encoding="utf-8"?>
<svg version="1.1" id="Layer_1"
xmlns="http://www.w3.org/2000/svg"
xmlns:xlink="http://www.w3.org/1999/xlink"
xmlns:author="http://www.sothink.com"
width="99px" height="50px"
xml:space="preserve">
<g id="1431" transform="matrix(1, 0, 0, 1, 48.75, -0.15)">
<path style="fill:#000000;fill-opacity:0.498039" d="M50.25,1.15L50.25 13.15L48.25 13.15L48.25 1.15L50.25 1.15M30.25,1.15L32.25 1.15L32.25 9.15L30.25 9.15L30.25 1.15M12.25,8.95L12.25 3.15L2.75 3.15L8.25 13.75L6 13.75L2.25 6.55L2.25 20.15L2.25 38.75L2.25 49.2L0.25 49.2L0.25 49.15L-8.35 49.15L-8.35 47.15L0.25 47.15L0.25 38.75L0.25 36.95L-3.95 36.95L-3.95 34.95L0.25 34.95L0.25 25.35L-8.35 25.35L-8.35 23.35L0.25 23.35L0.25 20.15L0.25 6.65L-3.25 13.75L-5.45 13.75L-0.2 3.15L-9.75 3.15L-9.75 8.95L-11.75 8.95L-11.75 1.15L14.25 1.15L14.25 8.95L12.25 8.95M-27.75,9.15L-29.75 9.15L-29.75 1.15L-27.75 1.15L-27.75 9.15M-47.75,1.15L-45.75 1.15L-45.75 13.15L-47.75 13.15L-47.75 1.15" />
<path style="fill:#FFFFFF;fill-opacity:1" d="M47.25,12.15L47.25 0.15L49.25 0.15L49.25 12.15L47.25 12.15M31.25,0.15L31.25 8.15L29.25 8.15L29.25 0.15L31.25 0.15M13.25,7.95L11.25 7.95L11.25 2.15L1.75 2.15L7.25 12.75L5 12.75L1.25 5.55L1.25 19.15L1.25 37.75L1.25 48.2L-0.75 48.2L-0.75 48.15L-9.35 48.15L-9.35 46.15L-0.75 46.15L-0.75 37.75L-0.75 35.95L-4.95 35.95L-4.95 33.95L-0.75 33.95L-0.75 24.35L-9.35 24.35L-9.35 22.35L-0.75 22.35L-0.75 19.15L-0.75 5.65L-4.25 12.75L-6.45 12.75L-1.2 2.15L-10.75 2.15L-10.75 7.95L-12.75 7.95L-12.75 0.15L13.25 0.15L13.25 7.95M-28.75,0.15L-28.75 8.15L-30.75 8.15L-30.75 0.15L-28.75 0.15M-46.75,12.15L-48.75 12.15L-48.75 0.15L-46.75 0.15L-46.75 12.15" />
</g>
</svg>
