<?xml version="1.0" encoding="utf-8"?>
<svg version="1.1" id="Layer_1"
xmlns="http://www.w3.org/2000/svg"
xmlns:xlink="http://www.w3.org/1999/xlink"
xmlns:author="http://www.sothink.com"
width="31px" height="12px"
xml:space="preserve">
<g id="1424" transform="matrix(1, 0, 0, 1, 0, 0)">
<path style="fill:#000000;fill-opacity:1" d="M30.5,12L30 12L30 9.15L30 0L30.5 0L30.5 9.15L30.5 12M27.5,0L27.5 3L27 3L27 0L27.5 0M24.5,0L24.5 3L24 3L24 0L24.5 0M21.5,3L21 3L21 0L21.5 0L21.5 3M18.5,3L18 3L18 0L18.5 0L18.5 3M15.5,6L15 6L15 0L15.5 0L15.5 6M12.5,3L12 3L12 0L12.5 0L12.5 3M9.5,0L9.5 3L9 3L9 0L9.5 0M6.5,0L6.5 3L6 3L6 0L6.5 0M3,3L3 0L3.5 0L3.5 3L3 3M0.5,0L0.5 9.15L0.5 12L0 12L0 9.15L0 0L0.5 0" />
</g>
</svg>
