<?xml version="1.0" encoding="utf-8"?>
<svg version="1.1" id="Layer_1"
xmlns="http://www.w3.org/2000/svg"
xmlns:xlink="http://www.w3.org/1999/xlink"
xmlns:author="http://www.sothink.com"
width="38px" height="38px"
xml:space="preserve">
<g id="1438" transform="matrix(1, 0, 0, 1, 18.5, 18.45)">
<path style="fill:#000000;fill-opacity:0.498039" d="M7.45,-17.8L18.65 -17.8L18.65 -6.55L17.15 -6.55L17.15 -16.3L7.45 -16.3L7.45 -17.8M18.65,7.45L18.65 18.7L7.45 18.7L7.45 17.2L17.15 17.2L17.15 7.45L18.65 7.45M-6.65,-16.3L-16.35 -16.3L-16.35 -6.55L-17.85 -6.55L-17.85 -17.8L-6.65 -17.8L-6.65 -16.3M-16.35,7.45L-16.35 17.2L-6.65 17.2L-6.65 18.7L-17.85 18.7L-17.85 7.45L-16.35 7.45" />
<path style="fill:#FFFFFF;fill-opacity:1" d="M-7.3,-16.95L-17 -16.95L-17 -7.2L-18.5 -7.2L-18.5 -18.45L-7.3 -18.45L-7.3 -16.95" />
<path style="fill:none;stroke-width:1.5;stroke-linecap:butt;stroke-linejoin:miter;stroke-miterlimit:3;stroke:#FFFFFF;stroke-opacity:1" d="M6.8,-17.7L17.25 -17.7L17.25 -7.2M17.25,6.8L17.25 17.3L6.8 17.3M-7.3,17.3L-17.75 17.3L-17.75 6.8" />
</g>
</svg>
