<?xml version="1.0" encoding="utf-8"?>
<svg version="1.1" id="Layer_1"
xmlns="http://www.w3.org/2000/svg"
xmlns:xlink="http://www.w3.org/1999/xlink"
xmlns:author="http://www.sothink.com"
width="91px" height="11px"
xml:space="preserve">
<g id="1441" transform="matrix(1, 0, 0, 1, 45.25, 0)">
<path style="fill:#000000;fill-opacity:0.498039" d="M45.25,6.2L44.75 6.2L44.75 0.2L45.25 0.2L45.25 6.2M42.25,0.2L42.25 3.2L41.75 3.2L41.75 0.2L42.25 0.2M39.25,0.2L39.25 3.2L38.75 3.2L38.75 0.2L39.25 0.2M36.25,0.2L36.25 3.2L35.75 3.2L35.75 0.2L36.25 0.2M32.75,0.2L33.25 0.2L33.25 3.2L32.75 3.2L32.75 0.2M30.25,0.2L30.25 6.2L29.75 6.2L29.75 0.2L30.25 0.2M27.25,0.2L27.25 3.2L26.75 3.2L26.75 0.2L27.25 0.2M21.25,3.2L20.75 3.2L20.75 0.2L21.25 0.2L21.25 3.2M24.25,3.2L23.75 3.2L23.75 0.2L24.25 0.2L24.25 3.2M17.75,0.2L18.25 0.2L18.25 3.2L17.75 3.2L17.75 0.2M12.25,0.2L12.25 3.2L11.75 3.2L11.75 0.2L12.25 0.2M14.75,0.2L15.25 0.2L15.25 6.2L14.75 6.2L14.75 0.2M9.25,0.2L9.25 3.2L8.75 3.2L8.75 0.2L9.25 0.2M6.25,0.2L6.25 3.2L5.75 3.2L5.75 0.2L6.25 0.2M3.25,3.2L2.75 3.2L2.75 0.2L3.25 0.2L3.25 3.2M0.25,2.6L0.25 10.2L-0.25 10.2L-0.25 2.6L-0.25 0.2L0.25 0.2L0.25 2.6M-3.25,3.2L-3.25 0.2L-2.75 0.2L-2.75 3.2L-3.25 3.2M-8.75,3.2L-9.25 3.2L-9.25 0.2L-8.75 0.2L-8.75 3.2M-5.75,3.2L-6.25 3.2L-6.25 0.2L-5.75 0.2L-5.75 3.2M-12.25,0.2L-11.75 0.2L-11.75 3.2L-12.25 3.2L-12.25 0.2M-18.25,0.2L-17.75 0.2L-17.75 3.2L-18.25 3.2L-18.25 0.2M-14.75,0.2L-14.75 6.2L-15.25 6.2L-15.25 0.2L-14.75 0.2M-20.75,3.2L-21.25 3.2L-21.25 0.2L-20.75 0.2L-20.75 3.2M-24.25,3.2L-24.25 0.2L-23.75 0.2L-23.75 3.2L-24.25 3.2M-29.75,0.2L-29.75 6.2L-30.25 6.2L-30.25 0.2L-29.75 0.2M-26.75,0.2L-26.75 3.2L-27.25 3.2L-27.25 0.2L-26.75 0.2M-32.75,3.2L-33.25 3.2L-33.25 0.2L-32.75 0.2L-32.75 3.2M-36.25,0.2L-35.75 0.2L-35.75 3.2L-36.25 3.2L-36.25 0.2M-38.75,0.2L-38.75 3.2L-39.25 3.2L-39.25 0.2L-38.75 0.2M-45.25,0.2L-44.75 0.2L-44.75 6.2L-45.25 6.2L-45.25 0.2M-41.75,3.2L-42.25 3.2L-42.25 0.2L-41.75 0.2L-41.75 3.2" />
<path style="fill:#FFFFFF;fill-opacity:1" d="M44.75,6L44.75 0L45.25 0L45.25 6L44.75 6M41.75,3L41.75 0L42.25 0L42.25 3L41.75 3M38.75,0L39.25 0L39.25 3L38.75 3L38.75 0M35.75,0L36.25 0L36.25 3L35.75 3L35.75 0M32.75,0L33.25 0L33.25 3L32.75 3L32.75 0M29.75,0L30.25 0L30.25 6L29.75 6L29.75 0M27.25,0L27.25 3L26.75 3L26.75 0L27.25 0M24.25,0L24.25 3L23.75 3L23.75 0L24.25 0M21.25,0L21.25 3L20.75 3L20.75 0L21.25 0M18.25,0L18.25 3L17.75 3L17.75 0L18.25 0M15.25,6L14.75 6L14.75 0L15.25 0L15.25 6M11.75,3L11.75 0L12.25 0L12.25 3L11.75 3M8.75,0L9.25 0L9.25 3L8.75 3L8.75 0M5.75,0L6.25 0L6.25 3L5.75 3L5.75 0M2.75,0L3.25 0L3.25 3L2.75 3L2.75 0M0.25,2.4L0.25 10L-0.25 10L-0.25 2.4L-0.25 0L0.25 0L0.25 2.4M-3.25,0L-2.75 0L-2.75 3L-3.25 3L-3.25 0M-9.25,3L-9.25 0L-8.75 0L-8.75 3L-9.25 3M-5.75,3L-6.25 3L-6.25 0L-5.75 0L-5.75 3M-12.25,0L-11.75 0L-11.75 3L-12.25 3L-12.25 0M-14.75,6L-15.25 6L-15.25 0L-14.75 0L-14.75 6M-17.75,0L-17.75 3L-18.25 3L-18.25 0L-17.75 0M-23.75,0L-23.75 3L-24.25 3L-24.25 0L-23.75 0M-20.75,3L-21.25 3L-21.25 0L-20.75 0L-20.75 3M-30.25,0L-29.75 0L-29.75 6L-30.25 6L-30.25 0M-27.25,0L-26.75 0L-26.75 3L-27.25 3L-27.25 0M-33.25,0L-32.75 0L-32.75 3L-33.25 3L-33.25 0M-38.75,0L-38.75 3L-39.25 3L-39.25 0L-38.75 0M-35.75,0L-35.75 3L-36.25 3L-36.25 0L-35.75 0M-42.25,0L-41.75 0L-41.75 3L-42.25 3L-42.25 0M-44.75,6L-45.25 6L-45.25 0L-44.75 0L-44.75 6" />
</g>
</svg>
