<?xml version="1.0" encoding="utf-8"?>
<svg version="1.1" id="Layer_1"
xmlns="http://www.w3.org/2000/svg"
xmlns:xlink="http://www.w3.org/1999/xlink"
xmlns:author="http://www.sothink.com"
width="20px" height="18px"
xml:space="preserve">
<g id="1423" transform="matrix(1, 0, 0, 1, 10, -10)">
<path style="fill:#000000;fill-opacity:1" d="M9.1,19.85L0 11.15L-9.1 19.85L-9.5 20L-9.85 19.85L-10 19.5L-9.85 19.15L-0.35 10.15L0 10L0.35 10.15L9.85 19.15L10 19.5L9.85 19.85L9.5 20L9.1 19.85" />
<path style="fill:#000000;fill-opacity:1" d="M9.5,28L9.1 27.85L0 19.15L-9.1 27.85L-9.5 28L-9.85 27.85L-10 27.5L-9.85 27.15L-0.35 18.15L0 18L0.35 18.15L9.85 27.15L10 27.5L9.85 27.85L9.5 28" />
</g>
</svg>
