<?xml version="1.0" encoding="utf-8"?>
<svg version="1.1" id="Layer_1"
xmlns="http://www.w3.org/2000/svg"
xmlns:xlink="http://www.w3.org/1999/xlink"
xmlns:author="http://www.sothink.com"
width="11px" height="11px"
xml:space="preserve">
<g id="1413" transform="matrix(1, 0, 0, 1, 5.1, 5.1)">
<path style="fill:#000000;fill-opacity:1" d="M3.95,-4.05L5 -4.05L5 -2.05L3.95 -2.05L3.95 -1L1.95 -1L1.95 0L0.95 0L0.95 1L0 1L0 2L-1 2L-1 4L-2.05 4L-2.05 4.95L-4 4.95L-4 3.95L-5.1 3.95L-5.1 1.9L-4.05 1.9L-4.05 -1L-2.05 -1L-2.05 -2.05L-1.05 -2.05L-1.05 -4.05L1.95 -4.05L1.95 -5.1L3.95 -5.1L3.95 -4.05" />
</g>
</svg>
