<?xml version="1.0" encoding="utf-8"?>
<svg version="1.1" id="Layer_1"
xmlns="http://www.w3.org/2000/svg"
xmlns:xlink="http://www.w3.org/1999/xlink"
xmlns:author="http://www.sothink.com"
width="1280px" height="1091px"
xml:space="preserve">
<g id="1416" transform="matrix(1, 0, 0, 1, 0, 0)">
<path style="fill:#000000;fill-opacity:1" d="M1279.95,0L1279.95 1090.05L0 1090.05L0 0L626 0.1Q409.4 5 254.8 159.55Q95.25 319.1 95.25 544.75Q95.25 770.35 254.8 929.8Q414.4 1089.45 640 1089.45Q865.55 1089.45 1025.05 929.8Q1184.7 770.35 1184.7 544.75Q1184.7 319.1 1025.05 159.55Q870.55 5 654.05 0.1L1279.95 0" />
<radialGradient
id="RadialGradID_51" gradientUnits="userSpaceOnUse" gradientTransform="matrix(0.738052, 0, 0, 0.738052, 640, 544.75)" spreadMethod ="pad" cx="0" cy="0" r="819.2" fx="0" fy="0" >
<stop  offset="0.592157"  style="stop-color:#000000;stop-opacity:0" />
<stop  offset="1"  style="stop-color:#000000;stop-opacity:0.8" />
</radialGradient>
<path style="fill:url(#RadialGradID_51) " d="M640,0L654.05 0.1Q870.55 5 1025.05 159.55Q1184.7 319.1 1184.7 544.75Q1184.7 770.35 1025.05 929.8Q865.55 1089.45 640 1089.45Q414.4 1089.45 254.8 929.8Q95.25 770.35 95.25 544.75Q95.25 319.1 254.8 159.55Q409.4 5 626 0.1L640 0" />
</g>
</svg>
