<?xml version="1.0" encoding="utf-8"?>
<svg version="1.1" id="Layer_1"
xmlns="http://www.w3.org/2000/svg"
xmlns:xlink="http://www.w3.org/1999/xlink"
xmlns:author="http://www.sothink.com"
width="97px" height="42px"
xml:space="preserve">
<g id="1443" transform="matrix(1, 0, 0, 1, 48.4, 20.95)">
<path style="fill:#000000;fill-opacity:0.498039" d="M1,-8.55Q4 -8.35 6.25 -6.1Q8.25 -4.1 8.65 -1.1L48.4 -1.1L48.4 0.9L8.65 0.9Q8.25 3.9 6.25 6.1Q4 8.15 1 8.55L1 21L-1 21L-1 8.55Q-4 8.15 -6 6.1Q-8.25 3.9 -8.45 0.9L-48.4 0.9L-48.4 -1.1L-8.45 -1.1Q-8.25 -4.1 -6 -6.1Q-4 -8.35 -1 -8.55L-1 -20.95L1 -20.95L1 -8.55M0,-6.7Q-2.8 -6.7 -4.6 -4.7Q-6.65 -2.9 -6.65 -0.1Q-6.65 2.7 -4.6 4.7Q-2.8 6.5 0 6.5Q2.8 6.5 4.8 4.7Q6.65 2.7 6.65 -0.1Q6.65 -2.9 4.8 -4.7Q2.8 -6.7 0 -6.7" />
<path style="fill:#FFFFFF;fill-opacity:1" d="M6.2,-6.05Q8.25 -4.05 8.65 -1.05L48.4 -1.05L48.4 0.95L8.65 0.95Q8.25 3.95 6.2 6.15Q4 8.2 1 8.6L1 21L-1 21L-1 8.6Q-4 8.2 -6.05 6.15Q-8.25 3.95 -8.45 0.95L-48.4 0.95L-48.4 -1.05L-8.45 -1.05Q-8.25 -4.05 -6.05 -6.05Q-4 -8.3 -1 -8.5L-1 -20.95L1 -20.95L1 -8.5Q4 -8.3 6.2 -6.05M0,-6.65Q-2.8 -6.65 -4.6 -4.65Q-6.65 -2.85 -6.65 -0.05Q-6.65 2.75 -4.6 4.75Q-2.8 6.55 0 6.55Q2.8 6.55 4.8 4.75Q6.65 2.75 6.65 -0.05Q6.65 -2.85 4.8 -4.65Q2.8 -6.65 0 -6.65" />
</g>
</svg>
