<?xml version="1.0" encoding="utf-8"?>
<svg version="1.1" id="Layer_1"
xmlns="http://www.w3.org/2000/svg"
xmlns:xlink="http://www.w3.org/1999/xlink"
xmlns:author="http://www.sothink.com"
width="69px" height="46px"
xml:space="preserve">
<g id="1425" transform="matrix(1, 0, 0, 1, 10, -26)">
<path style="fill:#000000;fill-opacity:1" d="M9.85,35.85L9.5 36L9.1 35.85L0 27.15L-9.1 35.85L-9.5 36L-9.85 35.85L-10 35.5L-9.85 35.15L-0.35 26.15L0 26L0.35 26.15L9.85 35.15L10 35.5L9.85 35.85" />
<path style="fill:#000000;fill-opacity:1" d="M57.3,68.05L57.2 68.2L57.2 68.4L57.2 68.55L57.3 68.7L57.45 68.8L57.65 68.85L57.8 68.8L57.95 68.7L58.05 68.55L58.1 68.4L58.05 68.2L57.95 68.05L57.8 67.95L57.65 67.9L57.45 67.95L57.3 68.05M58.1,67.4L58.45 67.6L58.65 67.9L58.75 68.3L58.65 68.8L58.35 69.1L58.75 69.45L58.85 69.95L58.75 70.45L58.5 70.8L58.1 71L57.65 71.05L57.15 71L56.8 70.8L56.5 70.45L56.45 69.95L56.55 69.45L56.95 69.1L56.65 68.8L56.5 68.3L56.6 67.9L56.85 67.6Q57 67.45 57.2 67.4L57.65 67.35L58.1 67.4M57.65,69.4L57.25 69.55L57.1 69.95L57.2 70.35L57.65 70.5L58.05 70.35L58.2 69.95L58.05 69.55Q57.9 69.4 57.65 69.4" />
</g>
</svg>
