<?xml version="1.0" encoding="utf-8"?>
<svg version="1.1" id="Layer_1"
xmlns="http://www.w3.org/2000/svg"
xmlns:xlink="http://www.w3.org/1999/xlink"
xmlns:author="http://www.sothink.com"
width="40px" height="36px"
xml:space="preserve">
<g id="1422" transform="matrix(1, 0, 0, 1, -47.6, -42.95)">
<path style="fill:#000000;fill-opacity:1" d="M87.1,42.95Q87.1 57.35 77.55 66.15L77.5 66.15Q73.6 69.7 68.1 72.35L62.65 74.6L58.2 76L51.1 77.6L87.05 77.65L87.05 78.15L47.85 78.1L47.7 78.05L47.6 77.9L47.6 74.4L48.1 74.4L48.1 77.6L57.6 75.6L57.6 72.5L58.1 72.5L58.1 75.5L62.5 74.15L67.7 72L67.75 71.95L67.75 71.45L67.75 68.75L68.25 68.75L68.25 71.7Q73.4 69.2 77.1 65.85L77.1 62.5L77.6 62.5L77.6 65.4L77.75 65.25Q86.6 56.65 86.6 42.95L87.1 42.95" />
</g>
</svg>
