<?xml version="1.0" encoding="utf-8"?>
<svg version="1.1" id="Layer_1"
xmlns="http://www.w3.org/2000/svg"
xmlns:xlink="http://www.w3.org/1999/xlink"
xmlns:author="http://www.sothink.com"
width="42px" height="42px"
xml:space="preserve">
<g id="1434" transform="matrix(1, 0, 0, 1, 20.6, 20.55)">
<path style="fill:#FF3333;fill-opacity:1" d="M18.9,-1.6L20.05 -1.15Q20.55 -0.65 20.5 0Q20.55 0.65 20.1 1.1Q19.7 1.5 19.05 1.55L19 1.6L1.45 1.45L1.6 19L1.55 19.05Q1.5 19.7 1.1 20.1L-0.05 20.55Q-0.65 20.55 -1.15 20.05Q-1.6 19.6 -1.65 18.95L-1.7 1.6L-19 1.6Q-19.6 1.6 -20.05 1.15Q-20.55 0.65 -20.6 0Q-20.55 -0.65 -20.1 -1.1Q-19.7 -1.5 -19.1 -1.6L-1.45 -1.45L-1.6 -19.1L-1.1 -20.1Q-0.65 -20.55 -0.05 -20.55Q0.65 -20.55 1.15 -20.05Q1.6 -19.6 1.55 -18.95L1.6 -1.7L18.9 -1.6" />
</g>
</svg>
