<?xml version="1.0" encoding="utf-8"?>
<svg version="1.1" id="Layer_1"
xmlns="http://www.w3.org/2000/svg"
xmlns:xlink="http://www.w3.org/1999/xlink"
xmlns:author="http://www.sothink.com"
width="31px" height="18px"
xml:space="preserve">
<g id="1432" transform="matrix(1, 0, 0, 1, 15.05, 8.15)">
<path style="fill:#000000;fill-opacity:0.498039" d="M15.6,-0.15L15.6 1.35L5.8 1.35Q5.55 3.1 4.3 4.4Q3.05 5.65 1.35 5.9L1.35 9L-0.15 9L-0.15 5.9Q-1.35 5.75 -2.35 5.1L-2.45 5.05L-3.1 4.4Q-4.45 3.1 -4.65 1.35L-14.5 1.35L-14.5 -0.15L-4.6 -0.15Q-4.4 -1.85 -3.1 -3.05L-3.1 -3L-2.35 -3.65Q-1.35 -4.35 -0.15 -4.5L-0.15 -7.55L1.35 -7.55L1.35 -4.5Q3.05 -4.25 4.3 -3Q5.5 -1.85 5.75 -0.15L15.6 -0.15M0.6,-3.05L0.55 -3.05L-1.5 -2.4L-1.5 -2.45L-2.05 -1.95Q-3.15 -0.9 -3.2 0.6L-3.2 0.7Q-3.2 2.25 -2.05 3.3L-2.05 3.35L-1.45 3.9Q-0.55 4.45 0.55 4.45L0.6 4.45Q2.15 4.45 3.2 3.35L3.25 3.35Q4.3 2.25 4.3 0.7L4.3 0.6Q4.25 -0.95 3.25 -1.95Q2.15 -3.05 0.6 -3.05" />
<path style="fill:#FFFFFF;fill-opacity:1" d="M0.8,-4.15L-0.7 -4.15L-0.7 -8.15L0.8 -8.15L0.8 -4.15M15.05,-0.75L15.05 0.75L4.55 0.75L4.55 -0.75L15.05 -0.75M0.8,8.4L-0.7 8.4L-0.7 4.4L0.8 4.4L0.8 8.4M-4.55,-0.75L-4.55 0.75L-15.05 0.75L-15.05 -0.75L-4.55 -0.75" />
<path style="fill:#FFFFFF;fill-opacity:1" d="M0,-3.65Q-1.15 -3.65 -2.05 -3L-2.05 -3.05L-2.6 -2.55Q-3.75 -1.45 -3.75 0.1Q-3.75 1.65 -2.6 2.7L-2.6 2.75L-2 3.3Q-1.1 3.85 0 3.85Q1.55 3.85 2.65 2.75L2.7 2.75Q3.75 1.65 3.75 0.1Q3.75 -1.5 2.7 -2.55Q1.6 -3.65 0 -3.65M3.75,-3.6Q5.25 -2.1 5.25 0.1Q5.25 2.25 3.75 3.8Q2.25 5.35 0 5.35Q-1.65 5.35 -2.9 4.5L-3 4.45L-3.65 3.8Q-5.25 2.25 -5.25 0.1Q-5.25 -2.15 -3.65 -3.65L-3.65 -3.6L-2.9 -4.25Q-1.65 -5.15 0 -5.15Q2.2 -5.15 3.75 -3.6" />
</g>
</svg>
