<?xml version="1.0" encoding="utf-8"?>
<svg version="1.1" id="Layer_1"
xmlns="http://www.w3.org/2000/svg"
xmlns:xlink="http://www.w3.org/1999/xlink"
xmlns:author="http://www.sothink.com"
width="77px" height="77px"
xml:space="preserve">
<g id="1442" transform="matrix(1, 0, 0, 1, 38.2, 0)">
<path style="fill:#000000;fill-opacity:0.498039" d="M0.15,3.55Q-14.25 3.55 -24.4 13.75Q-34.6 23.9 -34.6 38.3L-34.6 38.55Q-34.5 52.8 -24.4 62.9Q-14.25 73.05 0.15 73.05L0.2 73.05Q14.55 73.05 24.75 62.9Q34.8 52.8 34.9 38.55L34.9 38.3Q34.9 23.9 24.75 13.75Q14.55 3.55 0.2 3.55L0.15 3.55M4.8,3.35Q16.45 4.75 25.1 13.4Q35.4 23.7 35.4 38.3L38.2 38.3L38.2 38.8L35.4 38.8Q35.2 53.1 25.1 63.25Q14.85 73.45 0.45 73.55L0.45 76.45L-0.05 76.45L-0.05 73.55Q-14.5 73.5 -24.75 63.25Q-34.9 53.1 -35.1 38.8L-38.2 38.8L-38.2 38.3L-35.1 38.3Q-35.1 23.7 -24.75 13.4Q-14.5 3.1 -0.05 3.05L-0.05 0.2L0.45 0.2L0.45 3.05L3.55 3.2L4.8 3.35" />
<path style="fill:#FFFFFF;fill-opacity:1" d="M3.8,3.55L0.2 3.35L0.15 3.35Q-14.25 3.35 -24.4 13.55Q-34.6 23.7 -34.6 38.1L-34.6 38.35Q-34.5 52.6 -24.4 62.7Q-14.25 72.85 0.15 72.85L0.2 72.85Q14.55 72.85 24.75 62.7Q34.8 52.6 34.9 38.35L34.9 38.1Q34.9 23.7 24.75 13.55Q16.25 5.1 4.95 3.65L3.8 3.55M0.45,2.85L3.8 3.05L5.05 3.15Q16.5 4.6 25.1 13.2Q35.4 23.5 35.4 38.1L38.2 38.1L38.2 38.6L35.4 38.6Q35.2 52.9 25.1 63.05Q14.85 73.25 0.45 73.35L0.45 76.25L-0.05 76.25L-0.05 73.35Q-14.5 73.3 -24.75 63.05Q-34.9 52.9 -35.1 38.6L-38.2 38.6L-38.2 38.1L-35.1 38.1Q-35.1 23.5 -24.75 13.2Q-14.5 2.9 -0.05 2.85L-0.05 0L0.45 0L0.45 2.85" />
</g>
</svg>
