<?xml version="1.0" encoding="utf-8"?>
<svg version="1.1" id="Layer_1"
xmlns="http://www.w3.org/2000/svg"
xmlns:xlink="http://www.w3.org/1999/xlink"
xmlns:author="http://www.sothink.com"
width="16px" height="16px"
xml:space="preserve">
<g id="1412" transform="matrix(1, 0, 0, 1, 8, 7.95)">
<path style="fill:#DFDFDF;fill-opacity:0.498039" d="M0.05,-6.95L0 -6.95Q-2.9 -6.95 -4.95 -4.9Q-6.95 -2.9 -6.95 0Q-6.95 2.9 -4.95 4.9Q-2.9 6.95 0 6.95L0.05 6.95Q2.95 6.95 5 4.9Q7 2.9 7 0Q7 -2.9 5 -4.9Q2.95 -6.95 0.05 -6.95M5.7,-5.6Q8 -3.3 8 0Q8 3.3 5.7 5.65Q3.35 7.95 0.05 7.95L0 7.95Q-3.3 7.95 -5.65 5.65Q-8 3.3 -8 0Q-8 -3.3 -5.65 -5.6Q-3.3 -7.95 0 -7.95L0.05 -7.95Q3.35 -7.95 5.7 -5.6" />
</g>
</svg>
