<?xml version="1.0" encoding="utf-8"?>
<svg version="1.1" id="Layer_1"
xmlns="http://www.w3.org/2000/svg"
xmlns:xlink="http://www.w3.org/1999/xlink"
xmlns:author="http://www.sothink.com"
width="5px" height="4px"
xml:space="preserve">
<g id="1420" transform="matrix(1, 0, 0, 1, 0, 0)">
<path style="fill:#000000;fill-opacity:1" d="M4.2,1.25L4.2 2.45L3.9 3.35Q3.6 3.7 3 3.7Q2.4 3.7 2.1 3.35Q1.8 3.05 1.8 2.45L1.8 1.25Q1.8 0.65 2.1 0.3Q2.4 0 3 0Q3.6 0 3.9 0.3L4.2 1.25M3.25,0.6L3 0.55L2.75 0.6L2.6 0.7L2.45 0.95L2.45 1.3L2.45 2.4L2.45 2.75L2.6 2.95L2.75 3.1L3 3.15L3.25 3.1L3.4 2.95L3.5 2.75L3.55 2.4L3.55 1.3L3.5 0.95L3.4 0.7L3.25 0.6M0.35,0.4L0.55 0.3L0.7 0.15L0.8 0L1.2 0L1.2 3.65L0.55 3.65L0.55 0.9L0 0.9L0 0.5L0.35 0.4" />
</g>
</svg>
