<?xml version="1.0" encoding="utf-8"?>
<svg version="1.1" id="Layer_1"
xmlns="http://www.w3.org/2000/svg"
xmlns:xlink="http://www.w3.org/1999/xlink"
xmlns:author="http://www.sothink.com"
width="84px" height="84px"
xml:space="preserve">
<g id="2373" transform="matrix(1, 0, 0, 1, 42, 42)">
<path style="fill:#FFFFFF;fill-opacity:1" d="M0,-26Q-10.75 -26 -18.4 -18.4Q-26 -10.75 -26 0Q-26 10.75 -18.4 18.4Q-10.75 26 0 26Q10.75 26 18.4 18.4Q26 10.75 26 0Q26 -10.75 18.4 -18.4Q10.75 -26 0 -26M29.7,-29.7Q42 -17.4 42 0Q42 17.4 29.7 29.7Q17.4 42 0 42Q-17.4 42 -29.7 29.7Q-42 17.4 -42 0Q-42 -17.4 -29.7 -29.7Q-17.4 -42 0 -42Q17.4 -42 29.7 -29.7" />
</g>
</svg>
