<?xml version="1.0" encoding="utf-8"?>
<svg version="1.1" id="Layer_1"
xmlns="http://www.w3.org/2000/svg"
xmlns:xlink="http://www.w3.org/1999/xlink"
xmlns:author="http://www.sothink.com"
width="78px" height="21px"
xml:space="preserve">
<g id="2378" transform="matrix(1, 0, 0, 1, 0, 0)">
<path style="fill:#FFFFFF;fill-opacity:1" d="M77.95,3.95L77.95 16.95L77.7 18.5L76.8 19.7L75.55 20.55L74.8 20.75L73.95 20.8L23.75 20.8L23.75 0L74.05 0Q75.7 0 76.85 1.2Q77.95 2.25 77.95 3.95M73.45,6.7L72.6 6.5L69.45 6.5L67.85 14.05L70.55 14.05L72.05 13.95Q72.95 13.7 73.45 13.3Q74.15 12.75 74.65 11.8Q75.1 10.8 75.1 9.6L75 8.6L74.85 8.15L74.65 7.75L74.15 7.1Q73.8 6.8 73.45 6.7M73.25,8.35L73.55 9.6L73.45 10.45L73.25 11.2L72.45 12.3L71.75 12.7L70.5 12.85L69.7 12.85L70.75 7.75L71.65 7.75L72.6 7.8L73.25 8.35M67.4,9.5L63.45 9.5L63.85 7.75L67.9 7.75L68.15 6.5L62.5 6.5L60.95 14.05L66.9 14.05L67.15 12.75L62.75 12.75L63.2 10.7L67.15 10.7L67.4 9.5M61.75,6.5L55.75 6.5L55.45 7.75L57.7 7.75L56.35 14.05L57.95 14.05L59.3 7.75L61.5 7.75L61.75 6.5M52.75,11.1L50.45 11.1L52.3 8.1L52.75 11.1M51.7,6.5L47.35 14.05L49 14.05L49.9 12.35L52.95 12.35L53.2 14.05L54.65 14.05L53.4 6.5L51.7 6.5M47.5,9.5L43.55 9.5L43.9 7.75L48 7.75L48.25 6.5L42.6 6.5L41.05 14.05L47 14.05L47.25 12.75L42.85 12.75L43.3 10.7L47.25 10.7L47.5 9.5M40.7,7.3L39.9 6.65L38.6 6.5L35.2 6.5L33.6 14.05L35.15 14.05L35.8 10.9L36.45 10.9L37.25 11.05L37.9 12.05L38.4 13.25L38.7 14.05L40.4 14.05L39.8 12.6L39.2 11.5L38.65 10.8Q39.85 10.65 40.45 10.05Q41 9.45 41 8.5L40.7 7.3M32.05,8.95L33.55 8.8Q33.45 7.7 32.65 7Q31.9 6.35 30.65 6.35Q29.5 6.35 28.6 6.9Q27.65 7.5 27.15 8.55Q26.65 9.65 26.65 10.9Q26.65 12.5 27.4 13.35Q28.2 14.2 29.6 14.2Q30.85 14.2 31.75 13.5Q32.65 12.85 33.15 11.55L31.55 11.3L30.85 12.45Q30.3 12.85 29.7 12.85Q29.05 12.85 28.6 12.4Q28.15 11.9 28.15 10.95Q28.15 10.1 28.5 9.35Q28.8 8.45 29.4 8.1Q29.95 7.7 30.65 7.7Q31.2 7.7 31.55 8Q31.95 8.25 32.05 8.95M39.1,7.85Q39.45 8.1 39.45 8.5L39.2 9.15L38.55 9.65L36.85 9.75L36.05 9.75L36.45 7.75L38.2 7.75L39.1 7.85M22.4,20.8L4 20.8L3.2 20.75L2.4 20.55L1.15 19.7L0.3 18.45Q0 17.75 0 16.95L0 3.95Q0 3.05 0.35 2.4Q0.6 1.6 1.2 1.15Q1.7 0.65 2.45 0.3L4.05 0L22.4 0L22.4 20.8M11.65,3.95L7.3 3.9L5.5 12.45L7.8 12.45L8.45 9.35L9.95 9.35Q11.1 9.35 11.1 10.45L11.1 10.9L11.1 11.25L11.05 11.6L11.05 11.95L11.05 12.3L11.2 12.65L12.85 14.4L11.4 17.45L14.45 15.65L16.7 17.4L16.3 14.5L18.9 12.65L16 12.65L15.6 9.85L13.85 12.65L13.55 12.65L13.35 12.1L13.3 11.8L13.25 11.5L13.25 11.2L13.3 10.8L13.35 10.4L13.35 10L13.15 9Q12.95 8.65 12.45 8.55L12.45 8.5Q13.55 8.35 13.95 7.75Q14.4 7.1 14.4 6.15Q14.4 4.75 13.6 4.35L11.65 3.95M11.8,5.85Q12.15 6 12.15 6.55Q12.15 7.25 11.75 7.5L10.65 7.75L8.85 7.75L9.25 5.7L10.95 5.7L11.8 5.85" />
</g>
</svg>
