<?xml version="1.0" encoding="utf-8"?>
<svg version="1.1" id="Layer_1"
xmlns="http://www.w3.org/2000/svg"
xmlns:xlink="http://www.w3.org/1999/xlink"
xmlns:author="http://www.sothink.com"
width="81px" height="24px"
xml:space="preserve">
<g id="2380" transform="matrix(1, 0, 0, 1, 0, 0)">
<path style="fill:#FFFFFF;fill-opacity:1" d="M80.55,20.55Q80.15 21.55 79.35 22.3L77.6 23.4L76.6 23.7L75.45 23.8L5.5 23.8L3.35 23.4L1.6 22.25L0.95 21.5L0.45 20.55Q0 19.55 0 18.45L0 5.4Q0 4.3 0.45 3.25Q0.85 2.25 1.65 1.5Q2.45 0.8 3.35 0.45Q4.35 0 5.55 0L75.55 0Q77.85 0 79.4 1.55Q80.95 3.15 80.95 5.4L80.95 18.45Q80.95 19.6 80.55 20.55" />
</g>
</svg>
