<?xml version="1.0" encoding="utf-8"?>
<svg version="1.1" id="Layer_1"
xmlns="http://www.w3.org/2000/svg"
xmlns:xlink="http://www.w3.org/1999/xlink"
xmlns:author="http://www.sothink.com"
width="20px" height="20px"
xml:space="preserve">
<g id="2083" transform="matrix(1, 0, 0, 1, 10, 9.55)">
<path style="fill:#000000;fill-opacity:1" d="M2.85,-4Q2.3 -3.5 1.6 -3.5Q0.85 -3.5 0.35 -4Q-0.2 -4.55 -0.2 -5.3Q-0.2 -6.05 0.35 -6.55Q0.85 -7.1 1.6 -7.1Q2.3 -7.1 2.85 -6.55Q3.4 -6.05 3.4 -5.3Q3.4 -4.55 2.85 -4M1.7,-1.2L-0.75 4.95Q-1 5.85 0.5 4.95Q2.05 4.05 1.95 4.5Q-0.65 8.85 -2.75 7.85Q-3.75 7.4 -3.6 6.3L-2.35 2.95L-1.15 0.1L-2.4 0.15Q-3.95 1.05 -3.85 0.6Q-1.25 -3.8 0.85 -2.8Q1.85 -2.35 1.7 -1.2" />
<path style="fill:#FFFFFF;fill-opacity:1" d="M3.4,-5.3Q3.4 -6.05 2.85 -6.55Q2.3 -7.1 1.6 -7.1Q0.85 -7.1 0.35 -6.55Q-0.2 -6.05 -0.2 -5.3Q-0.2 -4.55 0.35 -4Q0.85 -3.5 1.6 -3.5Q2.3 -3.5 2.85 -4Q3.4 -4.55 3.4 -5.3M0.85,-2.8Q-1.25 -3.8 -3.85 0.6Q-3.95 1.05 -2.4 0.15L-1.15 0.1L-2.35 2.95L-3.6 6.3Q-3.75 7.4 -2.75 7.85Q-0.65 8.85 1.95 4.5Q2.05 4.05 0.5 4.95Q-1 5.85 -0.75 4.95L1.7 -1.2Q1.85 -2.35 0.85 -2.8M7.1,-6.6Q10 -3.7 10 0.45Q10 4.6 7.1 7.55Q4.15 10.45 0 10.45Q-4.15 10.45 -7.05 7.55Q-10 4.6 -10 0.45Q-10 -3.65 -7.05 -6.6Q-4.1 -9.55 0 -9.55Q4.15 -9.55 7.1 -6.6" />
</g>
</svg>
