<?xml version="1.0" encoding="utf-8"?>
<svg version="1.1" id="Layer_1"
xmlns="http://www.w3.org/2000/svg"
xmlns:xlink="http://www.w3.org/1999/xlink"
xmlns:author="http://www.sothink.com"
width="9px" height="49px"
xml:space="preserve">
<g id="28" transform="matrix(1, 0, 0, 1, 0, 0)">
<path style="fill:#FFFFFF;fill-opacity:0.2" d="M7.6,1.45Q8.9 2.95 8.9 5L8.9 43.7Q8.9 45.75 7.6 47.25Q6.3 48.7 4.45 48.7Q2.6 48.7 1.3 47.25Q0 45.75 0 43.7L0 5Q0 2.95 1.3 1.45Q2.6 0 4.45 0Q6.3 0 7.6 1.45M1.5,4.45L1.5 44.25Q1.5 45.45 2.4 46.35Q3.25 47.2 4.45 47.2Q5.65 47.2 6.55 46.35Q7.4 45.45 7.4 44.25L7.4 4.45Q7.4 3.2 6.55 2.35Q5.65 1.5 4.45 1.5Q3.25 1.5 2.4 2.35Q1.5 3.2 1.5 4.45" />
<path style="fill:#000000;fill-opacity:0.498039" d="M5.8,3.05Q6.4 3.65 6.4 4.45L6.4 44.25Q6.4 45.05 5.8 45.6Q5.25 46.2 4.45 46.2Q3.65 46.2 3.1 45.6Q2.5 45.05 2.5 44.25L2.5 4.45Q2.5 3.65 3.1 3.05Q3.65 2.5 4.45 2.5Q5.25 2.5 5.8 3.05" />
<path style="fill:#000000;fill-opacity:0.498039" d="M3.1,3.05Q2.5 3.65 2.5 4.45L2.5 44.25Q2.5 45.05 3.1 45.6Q3.65 46.2 4.45 46.2Q5.25 46.2 5.8 45.6Q6.4 45.05 6.4 44.25L6.4 4.45Q6.4 3.65 5.8 3.05Q5.25 2.5 4.45 2.5Q3.65 2.5 3.1 3.05M7.4,4.45L7.4 44.25Q7.4 45.45 6.55 46.35Q5.65 47.2 4.45 47.2Q3.25 47.2 2.4 46.35Q1.5 45.45 1.5 44.25L1.5 4.45Q1.5 3.2 2.4 2.35Q3.25 1.5 4.45 1.5Q5.65 1.5 6.55 2.35Q7.4 3.2 7.4 4.45" />
</g>
</svg>
