<?xml version="1.0" encoding="utf-8"?>
<svg version="1.1" id="Layer_1"
xmlns="http://www.w3.org/2000/svg"
xmlns:xlink="http://www.w3.org/1999/xlink"
xmlns:author="http://www.sothink.com"
width="73px" height="72px"
xml:space="preserve">
<g id="101" transform="matrix(1, 0, 0, 1, -12.7, -11.8)">
<path style="fill:none;stroke-width:5;stroke-linecap:round;stroke-linejoin:round;stroke-miterlimit:3;stroke:#000000;stroke-opacity:1" d="M81.7,38.95Q80 38.2 74.55 38.2L53.1 38.2L54.8 35.65Q58.25 30.7 59.45 24.5Q60.55 18.7 59 15.8Q58.15 14.3 56.75 14.3Q54.6 14.3 53.1 16.3L52.05 18.3Q49.4 24.65 43.65 30.95Q32.25 43.4 15.2 46.75L15.35 71.2Q20.8 74.15 26.8 76.55Q36.8 80.4 43.7 80.4L66.8 80.4Q70.15 79.3 70.5 77.2Q70.9 74.95 70.05 72.95L62.1 72.95L62.1 69.75L75.6 69.75Q77.9 68.5 77.9 65.45Q77.9 62.85 77.15 61.15L62.5 61.15L62.5 57.95L80.4 57.95Q82.2 56.6 82 53.75Q81.6 50.8 80.05 49.9L61.65 49.9L61.65 46.7L80.25 46.7Q83.2 45.85 83.2 41.7Q83.2 39.6 81.7 38.95z" />
<path style="fill:#F5F5F5;fill-opacity:1" d="M83.2,41.7Q83.2 45.85 80.25 46.7L61.65 46.7L61.65 49.9L80.05 49.9Q81.6 50.8 82 53.75Q82.2 56.6 80.4 57.95L62.5 57.95L62.5 61.15L77.15 61.15Q77.9 62.85 77.9 65.45Q77.9 68.5 75.6 69.75L62.1 69.75L62.1 72.95L70.05 72.95Q70.9 74.95 70.5 77.2Q70.15 79.3 66.8 80.4L43.7 80.4Q36.8 80.4 26.8 76.55Q20.8 74.15 15.35 71.2L15.2 46.75Q32.25 43.4 43.65 30.95Q49.4 24.65 52.05 18.3L53.1 16.3Q54.6 14.3 56.75 14.3Q58.15 14.3 59 15.8Q60.55 18.7 59.45 24.5Q58.25 30.7 54.8 35.65L53.1 38.2L74.55 38.2Q80 38.2 81.7 38.95Q83.2 39.6 83.2 41.7" />
</g>
</svg>
