<?xml version="1.0" encoding="utf-8"?>
<svg version="1.1" id="Layer_1"
xmlns="http://www.w3.org/2000/svg"
xmlns:xlink="http://www.w3.org/1999/xlink"
xmlns:author="http://www.sothink.com"
width="288px" height="164px"
xml:space="preserve">
<g id="105" transform="matrix(1, 0, 0, 1, 144, -187)">
<path style="fill:#000000;fill-opacity:0.2" d="M144,349.75L-144 349.75L-144 187.95L144 187.95L144 349.75" />
<path style="fill:#FFFFFF;fill-opacity:1" d="M144,189L-144 189L-144 187L144 187L144 189" />
<path style="fill:#FFFFFF;fill-opacity:1" d="M144,216L-144 216L-144 214L144 214L144 216" />
<path style="fill:#FFFFFF;fill-opacity:1" d="M144,243L-144 243L-144 241L144 241L144 243" />
<path style="fill:#FFFFFF;fill-opacity:1" d="M144,297L-144 297L-144 295L144 295L144 297" />
<path style="fill:#FFFFFF;fill-opacity:1" d="M144,351L-144 351L-144 349L144 349L144 351" />
</g>
</svg>
