<?xml version="1.0" encoding="utf-8"?>
<svg version="1.1" id="Layer_1"
xmlns="http://www.w3.org/2000/svg"
xmlns:xlink="http://www.w3.org/1999/xlink"
xmlns:author="http://www.sothink.com"
width="11px" height="15px"
xml:space="preserve">
<g id="2013" transform="matrix(1, 0, 0, 1, -1, -1)">
<path style="fill:#FFFFFF;fill-opacity:1" d="M6.45,2.6Q5.5 2.6 4.85 3.3Q4.15 4 4.15 4.95L8.7 4.95Q8.7 4 8.05 3.3Q7.35 2.6 6.45 2.6M10.2,4.95L11.85 4.95L11.85 15.3L1 15.3L1 4.95L2.65 4.95Q2.65 3.35 3.75 2.15Q4.9 1 6.45 1Q8 1 9.1 2.15Q10.2 3.35 10.2 4.95M5.3,10.95Q5.3 11.45 5.65 11.8L6.45 12.15Q6.95 12.15 7.25 11.8L7.6 10.95L7.6 8.7Q7.4 7.65 6.45 7.65Q6 7.65 5.65 7.95L5.3 8.7L5.3 10.95" />
</g>
</svg>
