<?xml version="1.0" encoding="utf-8"?>
<svg version="1.1" id="Layer_1"
xmlns="http://www.w3.org/2000/svg"
xmlns:xlink="http://www.w3.org/1999/xlink"
xmlns:author="http://www.sothink.com"
width="90px" height="90px"
xml:space="preserve">
<g id="2407" transform="matrix(1, 0, 0, 1, 44.95, 44.9)">
<path style="fill:#387F9B;fill-opacity:1" d="M30.25,-31.2L31.2 -30.25L27.25 -26.3L26.3 -27.25L30.25 -31.2M0.65,-31.4Q13.45 -31.15 22.45 -22Q31.45 -12.8 31.45 0Q31.45 13 22.25 22.25Q13 31.45 0 31.45Q-13 31.45 -22.2 22.25Q-31.4 13 -31.4 0Q-31.4 -12.8 -22.4 -22Q-13.45 -31.15 -0.65 -31.4L-0.65 -43.45L0.65 -43.45L0.65 -31.4M0.65,-12.7L0 0L-0.65 0.05L-0.65 -12.7Q-5.7 -12.45 -9.25 -8.75Q-12.75 -5.1 -12.75 0Q-12.75 5.3 -9 9Q-5.25 12.75 0 12.75Q5.3 12.75 9 9Q12.75 5.3 12.75 0Q12.75 -5.1 9.25 -8.75Q5.75 -12.45 0.65 -12.7M9.35,-8.9Q12.95 -5.15 12.95 0Q12.95 5.35 9.15 9.15Q5.35 12.95 0 12.95Q-5.35 12.95 -9.1 9.15Q-12.9 5.35 -12.9 0Q-12.9 -5.15 -9.35 -8.9Q-5.8 -12.6 -0.65 -12.9L-0.65 -30.95Q-13.25 -30.65 -22.1 -21.65Q-30.95 -12.6 -30.95 0Q-30.95 12.8 -21.85 21.9Q-12.8 31 0 31Q12.85 31 21.9 21.9Q31 12.8 31 0Q31 -12.65 22.15 -21.65Q13.25 -30.7 0.65 -30.95L0.65 -12.9Q5.8 -12.65 9.35 -8.9M0,-44.25Q-18.3 -44.25 -31.25 -31.3Q-44.25 -18.3 -44.25 0Q-44.25 18.35 -31.25 31.3Q-18.3 44.3 0 44.3Q18.3 44.3 31.3 31.3Q44.3 18.35 44.3 0Q44.3 -18.3 31.3 -31.3Q18.3 -44.25 0 -44.25M31.8,-31.75Q44.95 -18.55 44.95 0Q44.95 18.6 31.8 31.75Q18.6 44.95 0 44.95Q-18.55 44.95 -31.75 31.75Q-44.95 18.6 -44.95 0Q-44.95 -18.55 -31.75 -31.75Q-18.55 -44.9 0 -44.9Q18.6 -44.9 31.8 -31.75M43.45,-0.65L43.45 0.7L37.9 0.7L37.9 -0.65L43.45 -0.65M0.65,37.9L0.65 43.5L-0.65 43.5L-0.65 37.9L0 37.95L0.65 37.9M27.25,26.35L31.2 30.25L30.25 31.2L26.3 27.3L27.25 26.35M-30.25,-31.2L-26.3 -27.25L-27.25 -26.3L-31.2 -30.25L-30.25 -31.2M-37.9,-0.65L-37.9 0.7L-43.5 0.7L-43.5 -0.65L-37.9 -0.65M-30.25,31.25L-31.2 30.3L-27.25 26.3L-26.3 27.25L-30.25 31.25" />
</g>
</svg>
