<?xml version="1.0" encoding="utf-8"?>
<svg version="1.1" id="Layer_1"
xmlns="http://www.w3.org/2000/svg"
xmlns:xlink="http://www.w3.org/1999/xlink"
xmlns:author="http://www.sothink.com"
width="1042px" height="542px"
xml:space="preserve">
<g id="2400" transform="matrix(1, 0, 0, 1, 0, 0)">
<path style="fill:#35649D;fill-opacity:0.2" d="M1034.95,35.6L823.95 35.6L823.95 104.55L705.65 104.55Q673.2 62.1 625.7 38.1Q576.55 13.25 521.15 13.25Q465.7 13.25 416.55 38.1Q369 62.15 336.6 104.6L217.3 104.55L217.3 35.6L6.3 35.6L6.3 304.8Q6.3 307.55 13.4 313.05Q20.5 318.55 20.5 321L20.5 366.5L6.5 366.5L6.5 380.5Q6.5 383.25 7.8 384.1Q8.9 384.85 12 384.85L335.65 384.85Q368.05 427.85 415.85 452.25Q465.25 477.45 521.15 477.45Q577 477.45 626.45 452.25Q674.3 427.85 706.65 384.85L1029.25 384.85Q1032.35 384.85 1033.45 384.1Q1034.75 383.25 1034.75 380.5L1034.75 366.5L1020.75 366.5L1020.75 321Q1020.75 318.55 1027.85 313.05Q1034.95 307.55 1034.95 304.8L1034.95 148.75L1007.45 148.5L1007.45 65.5Q1007.45 61.5 1021.2 51L1030.65 43.55Q1034.95 39.8 1034.95 38L1034.95 35.6M1013.25,395L1013.25 424.5L875.25 424.5L853.75 446L739.55 446L738.8 446.8Q697.35 491.55 641.9 516.3Q584.5 541.95 521.15 541.95Q457.5 541.95 399.9 516.1Q344.2 491.15 302.75 446.05L302.6 446L187.5 446L166 424.5L28 424.5L28 395L12.5 395Q6.65 395 3.35 391.85Q0 388.55 0 382.5L0 31.25L142.25 31.25L173.5 0L867.75 0L899 31.25L1041.25 31.25L1041.25 382.5Q1041.25 388.55 1037.9 391.85Q1034.6 395 1028.75 395L1013.25 395" />
</g>
</svg>
