<?xml version="1.0" encoding="utf-8"?>
<svg version="1.1" id="Layer_1"
xmlns="http://www.w3.org/2000/svg"
xmlns:xlink="http://www.w3.org/1999/xlink"
xmlns:author="http://www.sothink.com"
width="388px" height="388px"
xml:space="preserve">
<g id="2403" transform="matrix(1, 0, 0, 1, 194, 194)">
<path style="fill:#41AFCB;fill-opacity:1" d="M75.5,-178.75Q110.3 -164 137.15 -137.15Q164 -110.3 178.75 -75.5Q194 -39.45 194 0Q194 39.45 178.75 75.5Q164 110.35 137.15 137.2Q110.3 164.05 75.5 178.75Q39.45 194 0 194Q-39.45 194 -75.5 178.75Q-110.35 164.05 -137.2 137.2Q-164.05 110.35 -178.75 75.5Q-194 39.45 -194 0Q-194 -39.45 -178.75 -75.5Q-164.05 -110.3 -137.2 -137.15Q-110.35 -164 -75.5 -178.75Q-39.45 -194 0 -194Q39.45 -194 75.5 -178.75M0,-192.8Q-39.25 -192.8 -75.05 -177.65Q-109.65 -163 -136.35 -136.3Q-163.05 -109.65 -177.7 -75.05Q-192.85 -39.2 -192.85 0Q-192.85 39.25 -177.7 75.05Q-163.05 109.65 -136.35 136.35Q-109.65 163.05 -75.05 177.7Q-39.25 192.85 0 192.85Q39.2 192.85 75.05 177.7Q109.65 163.05 136.3 136.35Q163 109.65 177.65 75.05Q192.8 39.25 192.8 0Q192.8 -39.2 177.65 -75.05Q163 -109.65 136.3 -136.3Q109.65 -163 75.05 -177.65Q39.2 -192.8 0 -192.8" />
</g>
</svg>
