<?xml version="1.0" encoding="utf-8"?>
<svg version="1.1" id="Layer_1"
xmlns="http://www.w3.org/2000/svg"
xmlns:xlink="http://www.w3.org/1999/xlink"
xmlns:author="http://www.sothink.com"
width="154px" height="128px"
xml:space="preserve">
<g id="2410" transform="matrix(1, 0, 0, 1, 0, 0)">
<path style="fill:#387F9B;fill-opacity:1" d="M151.25,17.05L151.25 2.55L136.75 2.55L136.75 0.05L153.75 0.05L153.75 17.05L151.25 17.05M0,17.05L0 0L17 0L17 2.5L2.5 2.5L2.5 17.05L0 17.05M17,127.05L0 127.05L0 110.05L2.5 110.05L2.5 124.55L17 124.55L17 127.05M153.75,127.05L136.75 127.05L136.75 124.55L151.25 124.55L151.25 110L153.75 110L153.75 127.05" />
</g>
</svg>
