<?xml version="1.0" encoding="utf-8"?>
<svg version="1.1" id="Layer_1"
xmlns="http://www.w3.org/2000/svg"
xmlns:xlink="http://www.w3.org/1999/xlink"
xmlns:author="http://www.sothink.com"
width="1201px" height="654px"
xml:space="preserve">
<g id="2404" transform="matrix(1, 0, 0, 1, 600.25, 320.6)">
<path style="fill:#387F9B;fill-opacity:1" d="M40.9,-306.1L1.25 -306.1L1.25 -201.2L-1.25 -201.2L-1.25 -306.1L-41.1 -306.1L-41.1 -308.6L40.9 -308.6L40.9 -306.1M0.65,-0.5L64 -0.5L64 0.4L0.65 0.4L0.65 63.95L-0.65 63.95L-0.65 0.4L-63.95 0.4L-63.95 -0.5L-0.65 -0.5L-0.65 -4.2L0.65 -4.2L0.65 -0.5M0.65,-4.55L-0.65 -4.55L-0.65 -64L0.65 -64L0.65 -4.55M600.25,-210.05L600.25 209.9L597.75 209.9L597.75 -210.05L600.25 -210.05M340.5,-318.1L-340.7 -318.1L-340.7 -320.6L340.5 -320.6L340.5 -318.1M553.65,-158.4L561.2 -158.4L561.2 -155.9L553.65 -155.9L553.65 -158.4M561.2,-169.9L546.7 -169.9L546.7 -172.4L561.2 -172.4L561.2 -169.9M561.2,-127.4L553.65 -127.4L553.65 -129.9L561.2 -129.9L561.2 -127.4M561.2,-141.4L546.7 -141.4L546.7 -143.9L561.2 -143.9L561.2 -141.4M546.7,-115.4L561.2 -115.4L561.2 -112.9L546.7 -112.9L546.7 -115.4M561.2,-101.4L561.2 -98.9L553.65 -98.9L553.65 -101.4L561.2 -101.4M561.2,-84.4L546.7 -84.4L546.7 -86.9L561.2 -86.9L561.2 -84.4M546.7,-58.4L561.2 -58.4L561.2 -55.9L546.7 -55.9L546.7 -58.4M561.2,-70.4L553.65 -70.4L553.65 -72.9L561.2 -72.9L561.2 -70.4M561.2,-27.4L546.7 -27.4L546.7 -29.9L561.2 -29.9L561.2 -27.4M561.2,-41.9L553.65 -41.9L553.65 -44.4L561.2 -44.4L561.2 -41.9M561.2,-15.9L561.2 -13.4L553.65 -13.4L553.65 -15.9L561.2 -15.9M561.2,-1.4L561.2 1.1L546.7 1.1L546.7 -1.4L561.2 -1.4M584.9,-41.1L584.9 40.9L582.4 40.9L582.4 -41.1L584.9 -41.1M351.15,-0.5L351.15 0.4L201 0.4L201 -0.5L351.15 -0.5M-597.75,-210.05L-597.75 209.9L-600.25 209.9L-600.25 -210.05L-597.75 -210.05M-547.05,-172.4L-547.05 -169.9L-561.55 -169.9L-561.55 -172.4L-547.05 -172.4M-554,-158.4L-554 -155.9L-561.55 -155.9L-561.55 -158.4L-554 -158.4M-554,-127.4L-561.55 -127.4L-561.55 -129.9L-554 -129.9L-554 -127.4M-547.05,-143.9L-547.05 -141.4L-561.55 -141.4L-561.55 -143.9L-547.05 -143.9M-554,-101.4L-554 -98.9L-561.55 -98.9L-561.55 -101.4L-554 -101.4M-561.55,-115.4L-547.05 -115.4L-547.05 -112.9L-561.55 -112.9L-561.55 -115.4M-582.75,-41.1L-582.75 40.9L-585.25 40.9L-585.25 -41.1L-582.75 -41.1M-547.05,-86.9L-547.05 -84.4L-561.55 -84.4L-561.55 -86.9L-547.05 -86.9M-547.05,-55.9L-561.55 -55.9L-561.55 -58.4L-547.05 -58.4L-547.05 -55.9M-561.55,-72.9L-554 -72.9L-554 -70.4L-561.55 -70.4L-561.55 -72.9M-554,-41.9L-561.55 -41.9L-561.55 -44.4L-554 -44.4L-554 -41.9M-547.05,-29.9L-547.05 -27.4L-561.55 -27.4L-561.55 -29.9L-547.05 -29.9M-561.55,-15.9L-554 -15.9L-554 -13.4L-561.55 -13.4L-561.55 -15.9M-547.05,-1.4L-547.05 1.1L-561.55 1.1L-561.55 -1.4L-547.05 -1.4M-200.3,-0.5L-200.3 0.4L-348.5 0.4L-348.5 -0.5L-200.3 -0.5M-41.1,317.9L-1.25 317.9L-1.25 200.6L1.25 200.6L1.25 317.9L40.9 317.9L40.9 320.4L-41.1 320.4L-41.1 317.9M-554,15.1L-561.55 15.1L-561.55 12.6L-554 12.6L-554 15.1M-554,43.6L-561.55 43.6L-561.55 41.1L-554 41.1L-554 43.6M-561.55,29.6L-561.55 27.1L-547.05 27.1L-547.05 29.6L-561.55 29.6M-554,72.1L-561.55 72.1L-561.55 69.6L-554 69.6L-554 72.1M-547.05,55.6L-547.05 58.1L-561.55 58.1L-561.55 55.6L-547.05 55.6M-554,98.1L-554 100.6L-561.55 100.6L-561.55 98.1L-554 98.1M-561.55,84.1L-547.05 84.1L-547.05 86.6L-561.55 86.6L-561.55 84.1M-547.05,112.6L-547.05 115.1L-561.55 115.1L-561.55 112.6L-547.05 112.6M-547.05,143.6L-561.55 143.6L-561.55 141.1L-547.05 141.1L-547.05 143.6M-561.55,126.6L-554 126.6L-554 129.1L-561.55 129.1L-561.55 126.6M-547.05,169.6L-547.05 172.1L-561.55 172.1L-561.55 169.6L-547.05 169.6M-554,155.1L-554 157.6L-561.55 157.6L-561.55 155.1L-554 155.1M-340.7,330.2L340.5 330.2L340.5 332.7L-340.7 332.7L-340.7 330.2M561.2,15.1L553.65 15.1L553.65 12.6L561.2 12.6L561.2 15.1M546.7,27.1L561.2 27.1L561.2 29.6L546.7 29.6L546.7 27.1M553.65,43.6L553.65 41.1L561.2 41.1L561.2 43.6L553.65 43.6M561.2,69.6L561.2 72.1L553.65 72.1L553.65 69.6L561.2 69.6M561.2,58.1L546.7 58.1L546.7 55.6L561.2 55.6L561.2 58.1M546.7,84.1L561.2 84.1L561.2 86.6L546.7 86.6L546.7 84.1M561.2,98.1L561.2 100.6L553.65 100.6L553.65 98.1L561.2 98.1M561.2,115.1L546.7 115.1L546.7 112.6L561.2 112.6L561.2 115.1M546.7,141.1L561.2 141.1L561.2 143.6L546.7 143.6L546.7 141.1M561.2,129.1L553.65 129.1L553.65 126.6L561.2 126.6L561.2 129.1M546.7,172.1L546.7 169.6L561.2 169.6L561.2 172.1L546.7 172.1M553.65,155.1L561.2 155.1L561.2 157.6L553.65 157.6L553.65 155.1" />
<path style="fill:#387F9B;fill-opacity:1" d="M214.55,-2.15Q215.45 -1.25 215.45 0.05Q215.45 1.35 214.55 2.2Q213.7 3.1 212.4 3.1Q211.15 3.1 210.25 2.2Q209.35 1.35 209.35 0.05Q209.35 -1.25 210.25 -2.15Q211.15 -3.05 212.4 -3.05Q213.65 -3.05 214.55 -2.15M282.4,-3.05Q283.65 -3.05 284.55 -2.15Q285.45 -1.25 285.45 0.05Q285.45 1.35 284.55 2.2Q283.7 3.1 282.4 3.1Q281.15 3.1 280.25 2.2Q279.35 1.35 279.35 0.05Q279.35 -1.25 280.25 -2.15Q281.15 -3.05 282.4 -3.05M3.35,-64.05L-3.3 -64.05L-3.3 -201.15L3.35 -201.15L3.35 -64.05M200.95,-3.4L200.95 3.3L64 3.3L64 -3.4L200.95 -3.4M583.45,-1.3L583.45 1.2L351.15 1.2L351.15 -1.3L583.45 -1.3M3.35,200.6L-3.3 200.6L-3.3 63.95L3.35 63.95L3.35 200.6M-348.55,-1.3L-348.55 1.2L-580.85 1.2L-580.85 -1.3L-348.55 -1.3M-279.45,-2.15Q-278.55 -1.25 -278.55 0.05Q-278.55 1.35 -279.45 2.2Q-280.3 3.1 -281.6 3.1Q-282.85 3.1 -283.75 2.2Q-284.65 1.35 -284.65 0.05Q-284.65 -1.25 -283.75 -2.15Q-282.85 -3.05 -281.6 -3.05Q-280.35 -3.05 -279.45 -2.15M-210.45,-2.15Q-209.55 -1.25 -209.55 0.05Q-209.55 1.35 -210.45 2.2Q-211.3 3.1 -212.6 3.1Q-213.85 3.1 -214.75 2.2Q-215.65 1.35 -215.65 0.05Q-215.65 -1.25 -214.75 -2.15Q-213.85 -3.05 -212.6 -3.05Q-211.35 -3.05 -210.45 -2.15M-64,-3.4L-64 3.3L-200.3 3.3L-200.3 -3.4L-64 -3.4" />
</g>
</svg>
