<?xml version="1.0" encoding="utf-8"?>
<svg version="1.1" id="Layer_1"
xmlns="http://www.w3.org/2000/svg"
xmlns:xlink="http://www.w3.org/1999/xlink"
xmlns:author="http://www.sothink.com"
width="34px" height="34px"
xml:space="preserve">
<g id="1375" transform="matrix(1, 0, 0, 1, 0, 0)">
<path style="fill:#000000;fill-opacity:1" d="M33.95,16.95Q33.95 23.95 29 28.95Q24 33.9 17 33.9Q9.95 33.9 5 28.95Q0 23.95 0 16.95Q0 9.9 5 4.95Q9.95 0 17 0Q24 0 29 4.95Q33.95 9.9 33.95 16.95M17,12.4Q15.15 12.4 13.8 13.75Q12.45 15.1 12.45 16.95Q12.45 18.85 13.8 20.15Q15.15 21.5 17 21.5Q18.9 21.5 20.2 20.15Q21.55 18.85 21.55 16.95Q21.55 15.1 20.2 13.75Q18.9 12.4 17 12.4" />
</g>
</svg>
