<?xml version="1.0" encoding="utf-8"?>
<svg version="1.1" id="Layer_1"
xmlns="http://www.w3.org/2000/svg"
xmlns:xlink="http://www.w3.org/1999/xlink"
xmlns:author="http://www.sothink.com"
width="726px" height="516px"
xml:space="preserve">
<g id="1052" transform="matrix(1, 0, 0, 1, 360.5, 256)">
<path style="fill:#000000;fill-opacity:0.4" d="M32.4,-123.55Q27.65 -121.1 24.95 -119.25Q14.95 -112.5 12.55 -102.25Q8.7 -86 0.2 -66.75Q-7.45 -50.9 -7.45 -50.05Q-6.5 -48 -6.45 -46.05Q-6.4 -42.15 -10.85 -42.15Q-19.85 -42.15 -35.05 -24.1Q-44.85 -12.5 -49.8 -3.95Q-57.05 8.55 -65.35 19.05Q-67.85 22.95 -68.85 26.75Q-69.95 31 -69.95 38.1Q-70.55 41.15 -69.2 43.75Q-66.6 48.75 -56.85 48.75L-51.35 48.4L-51.35 48.55Q-55.3 69.15 -61.7 82.3Q-65.55 90.1 -72.95 99.45Q-79.65 107.95 -81.9 113.6Q-85.6 122.8 -85.6 138.35L-85.8 145.35Q-85.85 151.9 -85.3 155.35Q-84.4 160.9 -76.5 163.15Q-75.1 163.55 -74.35 164.8Q-73.9 165.6 -73.2 167.35Q-71.7 170.6 -67.4 170.6Q-65.3 170.6 -58.35 158.2Q-50.95 144.95 -50.6 137.45Q-50.5 134.85 -44.2 122.75Q-36.3 107.65 -34.35 102.75L-34.35 70Q-29.65 52.15 -24.5 37.7L-22.7 29.75Q-21.65 25.95 -17.3 21.2L-9.85 13.15Q-4.95 7.4 -4.95 4.75Q-4.95 2.8 -5.95 1.1Q-7.55 -1.75 -11.2 -1.75Q-13.05 -1.75 -14.4 -0.95L-16.9 0.65L-7.2 -21.15Q-1.05 -34.45 0.85 -34.45L2.9 -33.75Q4.15 -33.05 4.95 -33.05Q10.25 -33.05 12 -38.5Q12.95 -41.4 13.55 -45.9L18 -52.45Q21.75 -57.95 21.75 -59.95Q21.75 -64.8 23.05 -70.35Q24.55 -76.6 24.9 -82.85Q34.1 -85.15 36.55 -92.75L38.05 -99.6Q38.95 -103.9 40.3 -106.5L43.4 -112.55Q45.3 -115.7 48.95 -119.65L56.2 -127.45Q57.4 -129.15 57.4 -133.3Q57.4 -138 55.1 -141.15Q51.9 -145.5 46.45 -139.65Q45.65 -138.8 42.8 -133.5Q40.15 -128.6 37.6 -126.5Q36.6 -125.65 32.4 -123.55M360.1,260L-356.5 260L-356.5 -252L364.55 -252L360.1 260M-46.05,13.4Q-46.15 19 -48.75 24.9Q-51.8 31.7 -57.25 36.05L-57.2 35.55Q-58.4 31.45 -53.5 24.05Q-47.6 16.15 -46.05 13.4M-46.85,81.25L-47.1 97.6Q-48.1 107.55 -52.95 113.9L-53.1 113.75Q-52.8 109.95 -53.4 108.05Q-54.35 104.7 -59.45 103.4L-52.75 91.65L-46.85 81.25" />
<path style="fill:#FF0000;fill-opacity:0.8" d="M60.45,-155.7Q60.45 -153.05 55.55 -147.9L70.45 -136.65L70.45 -134.75L70.75 -134.3Q70.65 -133.85 68.7 -133.85Q66.1 -133.85 54.15 -143.6L54.1 -143.6L53.5 -142.6L53.2 -142.75L53.9 -143.8L52.5 -145L49.15 -142Q47.85 -141.15 46.45 -139.65L46.3 -139.45L44.2 -137.6L43.95 -137.35Q43.7 -137.5 43.7 -139.45Q43.7 -142.85 48.4 -148.45L36.2 -158.85Q36.4 -159.35 37.15 -159.85L37.8 -160.4Q41.75 -158.1 50.95 -151.35Q55.25 -155.75 59.5 -157.6Q59.75 -157.9 60 -157.85Q60.45 -157.65 60.45 -155.7M-59.1,102.85L-59.25 103.45L-59.45 103.4L-59.1 102.85" />
<path style="fill:#000000;fill-opacity:1" d="M360.55,-256L356.1 256L151.5 256L151.5 -256L360.55 -256" />
<path style="fill:#000000;fill-opacity:1" d="M-360.5,-256L151.5 -256L151.5 256L-360.5 256L-360.5 -256" />
</g>
</svg>
