<?xml version="1.0" encoding="utf-8"?>
<svg version="1.1" id="Layer_1"
xmlns="http://www.w3.org/2000/svg"
xmlns:xlink="http://www.w3.org/1999/xlink"
xmlns:author="http://www.sothink.com"
width="589px" height="355px"
xml:space="preserve">
<g id="1056" transform="matrix(1, 0, 0, 1, 336.85, 175.05)">
<path style="fill:#000000;fill-opacity:0.247059" d="M252.05,-172.05L252.05 179.55L-248.05 179.55L-248.05 -172.05L252.05 -172.05" />
<path style="fill:#FFFFFF;fill-opacity:1" d="M-250.05,-55.5L-124 -55.5L-124 176.55L-250.05 176.55L-250.05 -55.5" />
<path style="fill:#000000;fill-opacity:1" d="M-124,-55.5L-250.05 -55.5L-250.05 -175.05L250.05 -175.05L250.05 176.55L-124 176.55L-124 -55.5" />
<path style="fill:#000000;fill-opacity:0.247059" d="M-11.3,-97.35L5.55 88.25L-258.2 112.2L-275.05 -73.4L-11.3 -97.35" />
<path style="fill:#000000;fill-opacity:1" d="M-11.85,-101.6L5 84L-257.2 107.2L-274.05 -78.4L-11.85 -101.6" />
<path style="fill:#FF0000;fill-opacity:0.6" d="M31.7,-2.25L31.7 -1.55L31.7 0.05L32.95 -1.25L31.7 -2.25M40.45,-2.15Q26.85 19.65 19.2 23.75Q15.75 20.7 15.75 20.15Q15.75 18.15 23.7 8.9L30.7 1.1L29.9 1.4L26.4 2Q14.75 2 -34.3 -4.6L-50 -6.7L-49.45 -4.8Q-45.9 8.3 -45.9 17.5Q-45.6 22.3 -46.6 29.25Q-48.6 43.15 -55.1 54.7Q-75.85 91.55 -133.55 91.55Q-149.5 91.55 -176.25 72.05Q-186.7 64.4 -196.05 55.65Q-204.7 47.55 -208.75 42Q-217.8 29.5 -221.55 15.25Q-224.5 3.9 -224.5 -10.6Q-224.5 -15.4 -221.75 -23.6Q-217.8 -35.45 -210.15 -45.15Q-187.15 -74.35 -139.65 -74.35L-135.9 -74.1L-134.5 -73.9L-134.1 -73.6Q-133.75 -73.5 -133.75 -71.7Q-133.75 -69.7 -134.75 -68.9L-136.55 -68.1Q-184.25 -62.05 -204.9 -40.05Q-218.1 -26 -218.1 -9.5Q-218.1 19.55 -201.85 39.85Q-182.6 64 -134.65 85.15L-104.05 82.8Q-77 81.1 -62.25 51.25Q-57.15 40.9 -54.3 28.65Q-52.15 19.25 -52.15 13.75Q-52.15 0.2 -53.8 -6.15L-54.1 -7.25L-85.15 -11.55L-85.6 -14.65Q-74.25 -17.2 -58 -15.5Q-60.55 -19.3 -64.35 -22.3Q-82.8 -37.15 -144.8 -42.8L-147.45 -45.1Q-148.25 -45.9 -148.25 -46.85Q-148.25 -48.8 -147.2 -48.95L-145.3 -49.05L-131.55 -50Q-122.35 -50 -95.45 -41.9Q-65.6 -32.95 -58.9 -25.6Q-55.55 -21.9 -52.7 -14.75L-30.3 -11.4L-2.45 -8.65Q18.4 -6.55 31 -2.8L21.55 -10.5Q14.65 -16.65 12.65 -21.25Q20.1 -24.65 31 -13.95Q34.5 -10.45 37.75 -6.1L40.45 -2.15M-333.9,-40.9Q-329.6 -33.95 -328.55 -23.45L-327.9 -13.6Q-272 -66.2 -243.4 -55.45L-234.65 -55.15Q-234.65 -55.05 -234.25 -54.9Q-233.9 -54.8 -233.9 -52.95Q-233.9 -51.15 -234.15 -50.85Q-234.65 -50.15 -237.35 -49.75L-267.5 -46.85Q-270.65 -46.7 -280 -41.85L-292.15 -34.95Q-302.5 -28.9 -303.75 -27.8L-317.05 -14.7L-323.85 -7.95L-315.15 -8.75L-308.55 -8.65L-291.4 -9.05L-289.15 -8.7Q-288.1 -8.35 -288.1 -6.4Q-288.1 -4.35 -289.05 -3.6L-290.9 -2.8L-309.3 -2L-328.4 -1.25L-329.75 -2.5L-329.8 -2.5Q-331.55 -2.5 -332.95 -6.85L-333.4 -8.3Q-334.55 -12.65 -335.45 -20.2Q-336.5 -29.1 -336.85 -38.25Q-336.85 -40.2 -335.35 -40.65L-333.9 -40.9" />
</g>
</svg>
