<?xml version="1.0" encoding="utf-8"?>
<svg version="1.1" id="Layer_1"
xmlns="http://www.w3.org/2000/svg"
xmlns:xlink="http://www.w3.org/1999/xlink"
xmlns:author="http://www.sothink.com"
width="249px" height="249px"
xml:space="preserve">
<g id="1054" transform="matrix(1, 0, 0, 1, -98.05, 76.7)">
<path style="fill:#FF0000;fill-opacity:0.6" d="M151.25,-61Q208 -63.05 228.7 -67.5Q234.4 -68.75 272.9 -72.7L313.5 -76.25L313.85 -76.7Q314.15 -76.8 314.15 -74.85Q314.15 -72.35 266.5 -66.1Q270.95 -63.05 270.75 -50.15L270.1 -36.75Q269.75 -28.95 270.4 -25.3L270.4 22.85Q270.95 49.65 270.45 73.85Q269.95 98.1 268.35 110.1Q289.2 108.35 298.35 106.7L310.7 105L346 103.9L346.35 104.1Q346.65 104.2 346.65 106.05Q346.65 109.1 267.45 115.65Q266.05 121.85 264.15 121.85L261.25 121.55L260.7 121.2Q260.4 121.05 260.4 117.95Q260.4 117.35 260.95 116.15L202.45 120.6L152.35 121L145.15 121.1Q146.9 142.25 147.9 169.35L147.1 170.95Q146.3 171.85 144.3 171.85L141.4 171.55L140.85 171.2Q139.9 142.95 138.2 121.15Q101.95 121.5 101.2 121.85Q99.3 121.2 98.35 120.3L98.05 118.4Q98.8 117.3 100 116.15Q101.3 114.9 102.45 114.35L137.6 114.25L137.05 108.45Q135.55 93.05 132.4 72.35L130.5 58.9L127.9 59.6Q123.7 60.8 113.9 63.95L105.25 66.65L102.5 66.35L102.1 66Q101.65 65.55 101.1 65.45Q100.85 65.2 100.85 63.2Q100.85 59.6 125.35 51.2L129.35 49.85L128.45 41.15L127.9 33.3L127.1 32.25L127.2 30.45L127.7 29.9Q126.8 13.8 126.8 -7.15Q126.8 -33.15 127.35 -40.35Q127.85 -46.55 128.8 -52.05Q118.65 -51.55 111.2 -51.55Q109.05 -51.55 107.7 -52.05L105.85 -53.25L105.7 -53Q105.55 -53.2 105.55 -55.15Q105.55 -57.95 118.85 -59.3L130.5 -60.1Q132.25 -67.1 134.95 -72.8Q136.4 -72.55 136.95 -72.15Q137.9 -71.55 137.9 -69.5L137 -60.4L151.25 -61M132.9,-7.15Q132.9 14.45 133.95 30.9Q137.5 31.95 142.4 34.05Q150 37.25 155.05 40.55L155.25 40.4L157.35 40.95Q158.25 41.35 158.35 42.9L158.35 42.95L158.35 43.35Q158.35 44.1 157.95 44.9Q158.35 46 158.35 46.65L157.75 53.75Q157.1 59.55 157.1 62.6Q156.75 62.6 155.85 63.15L154 64.15Q151.65 62.7 151.1 60.25Q150.85 59.3 150.85 56L150.9 50.7L149.4 51.5Q143.9 54.4 136.7 56.9L138.9 71.45Q142.25 92.2 143.85 107.45L144.55 114.25L208.7 114.05L263.95 110.45L264.15 109.95L264.15 -65.8L229.95 -61.6Q170.3 -54.6 136.1 -52.45L135.4 -46.5Q132.9 -25.05 132.9 -7.15M198.8,72.15Q198.55 71.95 198.55 70Q198.55 68.35 203.3 67Q207.15 65.9 210.7 64.45Q201.45 55.15 198.55 49.7Q207.8 49.7 218.9 60.25L222.7 57.3Q225.45 55.65 228.1 57.65L228.35 57.1Q228.55 56.95 228.55 58.9Q228.55 61.1 223.3 64.8Q230 72.25 233.55 79.7L232.75 81.3Q231.95 82.2 229.95 82.2L215.75 69.35Q208.1 73.45 204.35 73.45Q200.4 73.45 199 71.9L198.8 72.15M135.5,47.8L143.7 45.05L146.55 44.1Q143.15 42.55 138.7 40.05Q136.3 38.75 134.45 37.65L134.65 40.25L135.5 47.8" />
</g>
</svg>
