<?xml version="1.0" encoding="utf-8"?>
<svg version="1.1" id="Layer_1"
xmlns="http://www.w3.org/2000/svg"
xmlns:xlink="http://www.w3.org/1999/xlink"
xmlns:author="http://www.sothink.com"
width="290px" height="219px"
xml:space="preserve">
<g id="1058" transform="matrix(1, 0, 0, 1, 143.5, 106)">
<path style="fill:#000000;fill-opacity:0.247059" d="M48.5,-94.95L58.5 -94.95L58.5 -95.95L67.5 -95.95L67.5 -96.95L77.5 -96.95L77.5 -97.95L86.5 -97.95L86.5 -98.95L93 -98.95L93 -71L136.5 -71L136.5 -10.95L137.5 -10.95L137.5 -0.95L138.5 -0.95L138.5 8.05L139.5 8.05L139.5 18.05L140.5 18.05L140.5 27.05L141.5 27.05L141.5 37.05L142.5 37.05L142.5 46.05L143.5 46.05L143.5 56.05L144.5 56.05L144.5 66.05L145.5 66.05L145.5 75.05L146.5 75.05L146.5 85.05L143.5 85.05L143.5 86.05L136.5 86.05L136.5 99.05L9.5 99.05L9.5 100.05L-0.5 100.05L-0.5 101.05L-9.5 101.05L-9.5 102.05L-19.5 102.05L-19.5 103.05L-29.5 103.05L-29.5 104.05L-38.5 104.05L-38.5 105.05L-48.5 105.05L-48.5 106.05L-57.5 106.05L-57.5 107.05L-67.5 107.05L-67.5 108.05L-76.5 108.05L-76.5 109.05L-86.5 109.05L-86.5 110.05L-96.5 110.05L-96.5 111.05L-105.5 111.05L-105.5 112.05L-115.5 112.05L-115.5 113L-117.5 113L-117.5 107.05L-118.5 107.05L-118.5 99.05L-128.5 99.05L-128.5 2.05L-129.5 2.05L-129.5 -7.95L-130.5 -7.95L-130.5 -16.95L-131.5 -16.95L-131.5 -26.95L-132.5 -26.95L-132.5 -36.95L-133.5 -36.95L-133.5 -45.95L-134.5 -45.95L-134.5 -55.95L-135.5 -55.95L-135.5 -64.95L-136.5 -64.95L-136.5 -74.95L-128.5 -74.95L-128.5 -88.95L0.5 -88.95L0.5 -89.95L10.5 -89.95L10.5 -90.95L19.5 -90.95L19.5 -91.95L29.5 -91.95L29.5 -92.95L38.5 -92.95L38.5 -93.95L48.5 -93.95L48.5 -94.95" />
<path style="fill:#000000;fill-opacity:1" d="M89.5,-104.95L123 -106L129.5 -15.95L130.5 -15.95L130.5 -5.95L131.5 -5.95L131.5 3.05L132.5 3.05L132.5 13.05L133.5 13.05L133.5 22.05L134.5 22.05L134.5 32.05L135.5 32.05L135.5 41.05L136.5 41.05L136.5 51.05L137.5 51.05L137.5 61.05L138.5 61.05L138.5 70.05L139.5 70.05L139.5 80.05L136.5 80.05L136.5 81.05L129.5 81.05L129.5 94.05L2.5 94.05L2.5 95.05L-7.5 95.05L-7.5 96.05L-16.5 96.05L-16.5 97.05L-26.5 97.05L-26.5 98.05L-36.5 98.05L-36.5 99.05L-45.5 99.05L-45.5 100.05L-55.5 100.05L-55.5 101.05L-64.5 101.05L-64.5 102.05L-74.5 102.05L-74.5 103.05L-83.5 103.05L-83.5 104.05L-93.5 104.05L-93.5 105.05L-103.5 105.05L-103.5 106.05L-112.5 106.05L-112.5 107.05L-122.5 107.05L-122.5 108L-124.5 108L-124.5 102.05L-125.5 102.05L-125.5 94.05L-135.5 94.05L-135.5 -2.95L-136.5 -2.95L-136.5 -12.95L-137.5 -12.95L-137.5 -21.95L-138.5 -21.95L-138.5 -31.95L-139.5 -31.95L-139.5 -41.95L-140.5 -41.95L-140.5 -50.95L-141.5 -50.95L-141.5 -60.95L-142.5 -60.95L-142.5 -69.95L-143.5 -69.95L-143.5 -79.95L-135.5 -79.95L-135.5 -93.95L-6.5 -93.95L-6.5 -94.95L3.5 -94.95L3.5 -95.95L12.5 -95.95L12.5 -96.95L22.5 -96.95L22.5 -97.95L31.5 -97.95L31.5 -98.95L41.5 -98.95L41.5 -99.95L51.5 -99.95L51.5 -100.95L60.5 -100.95L60.5 -101.95L70.5 -101.95L70.5 -102.95L79.5 -102.95L79.5 -103.95L89.5 -103.95L89.5 -104.95" />
</g>
</svg>
