<?xml version="1.0" encoding="utf-8"?>
<svg version="1.1" id="Layer_1"
xmlns="http://www.w3.org/2000/svg"
xmlns:xlink="http://www.w3.org/1999/xlink"
xmlns:author="http://www.sothink.com"
width="144px" height="150px"
xml:space="preserve">
<g id="1063" transform="matrix(1, 0, 0, 1, 68.6, 98.6)">
<path style="fill:#000000;fill-opacity:0.4" d="M6.75,41.1Q1.25 39.05 -8.15 35.9L-18.9 32.2L-35.35 25.3Q-47.95 19.8 -55.2 17.25Q-56.25 16.75 -67.3 12.6Q-67.2 12.4 -67.45 6.4Q-67.85 0.1 -67.6 -1L-48.9 -68.4L-45.9 -79.45L-41.45 -87.5L-36.8 -95.7Q-35.85 -96.4 -34.15 -96.7L-31.5 -97.1L-21.65 -96.65L-7.15 -95.6L74.85 -75.35L50.35 51.35L6.75 41.1" />
<path style="fill:#000000;fill-opacity:1" d="M5.85,39.6L-4.5 35.75L-18.65 30.6Q-29.3 26.65 -56.45 17.25Q-67.15 11.55 -68.25 11.1L-68.45 4.85Q-68.75 -1.45 -68.5 -2.5L-49.85 -69.85L-46.85 -80.95L-42.35 -89L-37.75 -97.25Q-36.85 -97.9 -35.1 -98.15L-32.45 -98.6L-22.6 -98.15L-8.1 -97.05L75.15 -76.6L49.2 50.75L5.85 39.6" />
</g>
</svg>
