<?xml version="1.0" encoding="utf-8"?>
<svg version="1.1" id="Layer_1"
xmlns="http://www.w3.org/2000/svg"
xmlns:xlink="http://www.w3.org/1999/xlink"
xmlns:author="http://www.sothink.com"
width="300px" height="124px"
xml:space="preserve">
<g id="1061" transform="matrix(1, 0, 0, 1, 142.05, 379.8)">
<path style="fill:#000000;fill-opacity:0.247059" d="M51,-266.1L22.5 -266.1L22.5 -263.9L22.1 -263.9Q19.25 -264 16.1 -262.9Q15.4 -259.1 12.1 -257.9L11.1 -257.9L-9.9 -257.9Q-9.9 -257.45 -10.05 -257.25L-27.4 -256.9L-27.85 -257L-29.55 -256.9L-32.8 -256.85L-32.9 -256.9L-32.9 -256.85Q-56.25 -256.55 -79.5 -256.65L-81 -256.7L-80.8 -256.65L-135.9 -258.85L-135.95 -258.35L-139.05 -257.95L-139.05 -375.8L-138.9 -375.8Q-136.45 -375.55 -134.45 -375.8L-105.5 -375.45L-103.25 -375.4L-101.6 -375.35L-85.9 -373.9L-84.9 -373.9L-82.5 -374.1L-22.35 -374.1L-22.9 -373.9L-21.9 -373.85L-12.6 -374.1L157.55 -374.1L157.55 -263.6L95.05 -263.6L89.1 -263.9L88.1 -263.9Q69 -264.05 51 -263.65L51 -266.1" />
<path style="fill:#000000;fill-opacity:1" d="M48,-270.1L19.5 -270.1L19.5 -267.9L19.1 -267.9Q16.25 -268 13.1 -266.9Q12.4 -263.1 9.1 -261.9L8.1 -261.9L-12.9 -261.9Q-12.9 -261.45 -13.05 -261.25L-30.4 -260.9L-30.85 -261L-32.55 -260.9L-35.8 -260.85L-35.9 -260.9L-35.9 -260.85Q-59.25 -260.55 -82.5 -260.65L-84 -260.7L-83.8 -260.65L-138.9 -262.85L-138.95 -262.35L-142.05 -261.95L-142.05 -379.8L-141.9 -379.8Q-139.45 -379.55 -137.45 -379.8L-108.5 -379.45L-106.25 -379.4L-104.6 -379.35L-88.9 -377.9L-87.9 -377.9L-85.5 -378.1L-25.35 -378.1L-25.9 -377.9L-24.9 -377.85L-15.6 -378.1L154.55 -378.1L154.55 -267.6L92.05 -267.6L86.1 -267.9L85.1 -267.9Q66 -268.05 48 -267.65L48 -270.1" />
</g>
</svg>
