<?xml version="1.0" encoding="utf-8"?>
<svg version="1.1" id="Layer_1"
xmlns="http://www.w3.org/2000/svg"
xmlns:xlink="http://www.w3.org/1999/xlink"
xmlns:author="http://www.sothink.com"
width="37px" height="46px"
xml:space="preserve">
<g id="1076" transform="matrix(1, 0, 0, 1, 48.85, 32.55)">
<path style="fill:#FF0000;fill-opacity:0.8" d="M-46.75,-25.45Q-42.7 -33.65 -32 -32.35Q-30.1 -31.85 -30.1 -30.4Q-30.1 -29.5 -31.25 -29.1Q-33.1 -28.45 -38.5 -28.35Q-23.45 -26.7 -17 -18.85Q-12.6 -13.55 -12.6 -6.1Q-12.9 -1.1 -14.5 3.55Q-17.7 12.8 -24.25 12.8Q-37.75 12.8 -48.85 -14.75Q-48.85 -21.2 -46.75 -25.45M-45.1,-14.75Q-45.1 -8.55 -40.35 -3.55L-26.1 8.8L-22.75 8.8Q-18.8 4.9 -17.4 1.15Q-16.35 -1.75 -16.35 -6.1Q-16.35 -12.65 -21.1 -17.55Q-27.6 -24.25 -41.6 -25.6Q-45.1 -22.05 -45.1 -14.75" />
</g>
</svg>
