<?xml version="1.0" encoding="utf-8"?>
<svg version="1.1" id="Layer_1"
xmlns="http://www.w3.org/2000/svg"
xmlns:xlink="http://www.w3.org/1999/xlink"
xmlns:author="http://www.sothink.com"
width="50px" height="58px"
xml:space="preserve">
<g id="1078" transform="matrix(1, 0, 0, 1, 46.35, 29.25)">
<path style="fill:#FF0000;fill-opacity:0.8" d="M-44.85,-26.35Q-44.85 -29.1 -43 -29.25Q-41.6 -29.35 -38.35 -27.85L-32.2 -24.95Q-28.4 -23.35 -25.85 -23.35Q-24.15 -23.35 -21.95 -24.35Q-19.7 -25.35 -19 -25.35Q-17.85 -25.35 -17.35 -24.45L-17.1 -23.4Q-17.1 -22.3 -18.45 -21.7Q-19.1 -21.4 -21.35 -20.85Q-6.5 -11.35 -1.3 -4.15Q3.3 2.2 3.3 11.5Q3.3 17.8 2.05 19.75Q-0.3 23.4 -10.5 28.3L-24 28.3Q-36.85 22.05 -42 15.6Q-46.35 10.2 -46.35 3.05Q-46.35 -4.35 -43.95 -9.15Q-40.45 -16.05 -31 -21.1Q-33.75 -22.15 -41.05 -23.8Q-44.85 -24.65 -44.85 -26.35M-20.1,-15.35Q-30.8 -22.35 -37.55 -12.6Q-39.95 -9.15 -41.4 -4.15Q-42.6 0 -42.6 2.85Q-42.6 8.9 -38.45 13.8Q-33.9 19.2 -23.6 24.3L-10 24.3Q-2.5 20.3 -1 17.6Q-0.35 16.45 -0.35 11.35Q-0.35 4 -4.25 -1.55Q-8.6 -7.8 -20.1 -15.35" />
</g>
</svg>
