<?xml version="1.0" encoding="utf-8"?>
<svg version="1.1" id="Layer_1"
xmlns="http://www.w3.org/2000/svg"
xmlns:xlink="http://www.w3.org/1999/xlink"
xmlns:author="http://www.sothink.com"
width="110px" height="69px"
xml:space="preserve">
<g id="1065" transform="matrix(1, 0, 0, 1, 53.25, 32.5)">
<path style="fill:#000000;fill-opacity:0.247059" d="M23.75,-25.45L45.75 -25.45L45.75 -24.45L56.25 -24.45L56.25 -10.45L55.75 -10.45L55.75 11.55L54.75 11.55L54.75 34.55L53.75 34.55L53.75 35.55L38.75 35.55L38.75 34.55L17.75 34.55L17.75 33.55L-4.25 33.55L-4.25 32.55L-26.25 32.55L-26.25 31.55L-49.25 31.55L-49.25 30.55L-50.25 30.55L-50.25 17.55L-49.25 17.55L-49.25 -3.45L-48.25 -3.45L-48.25 -25.45L-47.25 -25.45L-47.25 -29.45L-45.25 -29.45L-45.25 -28.45L-38.25 -28.45L-38.25 -29.5L-26.25 -29.5L-26.25 -29.45L-36.25 -29.45L-36.25 -28.45L-24.25 -28.45L-24.25 -27.45L-20.25 -27.45L-20.25 -28.45L-19.25 -28.45L-19.25 -27.45L-1.25 -27.45L-1.25 -26.45L0.75 -26.45L0.75 -27.45L1.75 -27.45L1.75 -26.45L19.75 -26.45L19.75 -25.45L20.75 -25.45L20.75 -26.45L23.75 -26.45L23.75 -25.45" />
<path style="fill:#000000;fill-opacity:1" d="M16.75,-28.45L17.75 -28.45L17.75 -29.45L20.75 -29.45L20.75 -28.45L42.75 -28.45L42.75 -27.45L53.25 -27.45L53.25 -13.45L52.75 -13.45L52.75 8.55L51.75 8.55L51.75 31.55L50.75 31.55L50.75 32.55L35.75 32.55L35.75 31.55L14.75 31.55L14.75 30.55L-7.25 30.55L-7.25 29.55L-29.25 29.55L-29.25 28.55L-52.25 28.55L-52.25 27.55L-53.25 27.55L-53.25 14.55L-52.25 14.55L-52.25 -6.45L-51.25 -6.45L-51.25 -28.45L-50.25 -28.45L-50.25 -32.45L-48.25 -32.45L-48.25 -31.45L-41.25 -31.45L-41.25 -32.5L-29.25 -32.5L-29.25 -32.45L-39.25 -32.45L-39.25 -31.45L-27.25 -31.45L-27.25 -30.45L-23.25 -30.45L-23.25 -31.45L-22.25 -31.45L-22.25 -30.45L-4.25 -30.45L-4.25 -29.45L-2.25 -29.45L-2.25 -30.45L-1.25 -30.45L-1.25 -29.45L16.75 -29.45L16.75 -28.45" />
</g>
</svg>
