<?xml version="1.0" encoding="utf-8"?>
<svg version="1.1" id="Layer_1"
xmlns="http://www.w3.org/2000/svg"
xmlns:xlink="http://www.w3.org/1999/xlink"
xmlns:author="http://www.sothink.com"
width="155px" height="103px"
xml:space="preserve">
<g id="1060" transform="matrix(1, 0, 0, 1, 16.7, 60.45)">
<path style="fill:#FF0000;fill-opacity:0.6" d="M38.75,-60.45L73.75 -60.45Q111.3 -46.3 126.85 -22.65Q137.95 -5.8 137.95 16.55L137.85 24.25Q137.5 27.85 135.7 30.3Q131.65 35.75 113.75 41.7L77.5 41.7Q22.8 29.75 1.35 14Q-16.7 0.75 -16.7 -20.45Q-16.7 -34.35 -6.9 -43.85Q6.9 -57.2 38.75 -60.15L38.75 -60.45M58,-47.1Q53.5 -48.15 46.85 -53.9Q12.85 -51.9 -1.1 -40.25Q-10.45 -32.45 -10.45 -20.3Q-10.45 -1.9 7.5 10.95Q28.3 25.85 75.15 35.15L115.45 35.15Q127.75 31.3 130.7 25.35Q131.8 23.25 131.85 20.4L131.7 15.9Q131.7 3.2 130.35 -1.4Q129 -6 120.9 -20.9Q118.85 -24.85 113.6 -29.35Q109.65 -32.8 100 -39.65Q90.65 -46.3 83.75 -48.9Q77.15 -51.45 72.15 -50.6Q70.3 -50.3 65 -48Q61.2 -46.35 58 -47.1" />
</g>
</svg>
