<?xml version="1.0" encoding="utf-8"?>
<svg version="1.1" id="Layer_1"
xmlns="http://www.w3.org/2000/svg"
xmlns:xlink="http://www.w3.org/1999/xlink"
xmlns:author="http://www.sothink.com"
width="281px" height="190px"
xml:space="preserve">
<g id="1075" transform="matrix(1, 0, 0, 1, 146.85, 87.5)">
<path style="fill:#000000;fill-opacity:0.4" d="M28.45,-87.5L129.2 -87.5L128.95 -86.25L133.95 -86.45L133.95 102.25L-130 102.25L-130 -85.75L20.8 -85.75L21 -85.25L21.5 -85.75L21 -85.75L21 -85.85L28.45 -87.5" />
<path style="fill:#000000;fill-opacity:1" d="M19.25,-87.5L131.95 -87.5L131.95 100.25L-132 100.25L-132 -87.5L18.9 -87.5L19 -87.25L19.25 -87.5" />
<path style="fill:#000000;fill-opacity:0.2" d="M-65.45,-74.45L-56.45 5.45L-136.45 14.6L-145.45 -65.4L-65.45 -74.45" />
<path style="fill:#FFFFCC;fill-opacity:1" d="M-66.85,-75.85L-57.85 4.05L-137.85 13.2L-146.85 -66.8L-66.85 -75.85" />
</g>
</svg>
