<?xml version="1.0" encoding="utf-8"?>
<svg version="1.1" id="Layer_1"
xmlns="http://www.w3.org/2000/svg"
xmlns:xlink="http://www.w3.org/1999/xlink"
xmlns:author="http://www.sothink.com"
width="285px" height="262px"
xml:space="preserve">
<g id="4" transform="matrix(1, 0, 0, 1, 0, 0)">
<path style="fill:#000000;fill-opacity:1" d="M279.65,252.85Q279.65 253.8 278.95 254.25L277.95 254.6Q278.75 254.75 279.15 255.3Q279.55 255.95 279.55 256.4L279.55 257.45L279.6 257.8L279.65 257.9L278.5 257.9L278.5 257.85L278.45 257.75L278.45 256.95Q278.45 255.75 277.75 255.35L276.35 255.15L275.35 255.15L275.35 257.9L274.1 257.9L274.1 250.8L276.6 250.8L278.55 251.05Q279.65 251.5 279.65 252.85M276.45,251.7L275.35 251.7L275.35 254.25L276.5 254.25L277.7 254.1Q278.45 253.8 278.45 253Q278.45 252.25 277.95 251.95L276.45 251.7M282.3,254.35Q282.3 252.1 280.65 250.45Q279 248.8 276.7 248.8Q274.4 248.8 272.8 250.45Q271.15 252.1 271.15 254.35Q271.15 256.7 272.75 258.35Q274.45 259.95 276.7 259.95Q279.05 259.95 280.65 258.35Q282.3 256.7 282.3 254.35M281.3,258.95Q279.4 260.85 276.7 260.85Q274.05 260.85 272.15 258.95Q270.25 257.05 270.25 254.35Q270.25 251.7 272.15 249.8Q274.05 247.9 276.7 247.9Q279.4 247.9 281.3 249.8Q283.2 251.7 283.2 254.35Q283.2 257.05 281.3 258.95" />
<path style="fill:#000000;fill-opacity:1" d="M284.05,49.3L284.05 212.2Q284.05 232.95 269.25 247.25Q254.65 261.3 233.7 261.3L50.3 261.3Q29.35 261.3 14.8 247.25Q0 232.95 0 212.2L0 49.3Q0 28.5 15.05 14.2Q29.8 0 50.75 0L234.15 0Q255.1 0 269.5 14.2Q284.05 28.45 284.05 49.3" />
<path style="fill:#101010;fill-opacity:1" d="M277.05,49.3L277.05 212.2Q277.05 229.95 264.4 242.2Q251.75 254.3 233.7 254.3L50.3 254.3Q32.25 254.3 19.65 242.2Q7 229.95 7 212.2L7 49.3Q7 31.5 19.9 19.25Q32.6 7 50.75 7L234.15 7Q252.2 7 264.6 19.2Q277.05 31.45 277.05 49.3M188.4,73.9Q188.4 58.3 178.5 51.85Q170.5 46.6 154 46.6L101.45 46.6L79.2 151.8L107.15 151.8L115.25 113.55L133.8 113.55Q141.1 113.55 144.5 117.15Q147.75 120.55 147.75 127.65L147.4 137.3L147 145.75Q147 147.85 147.45 150.25Q148 153.3 148.95 154.4L149.05 154.4L169.15 175.55L151.85 212.7L188.85 190.7L216.4 211.9L211.25 176.8L243.05 154.55L207.8 154.55L202.2 119.35L181.55 154.3L177.65 154.3Q176.05 151.5 175.1 147.35Q174.3 143.75 174.3 140.6L174.55 131.45L174.75 121.05Q174.75 113.3 172.3 109.2Q169.7 104.9 163.8 103.5L163.8 103.2Q176.15 101.5 182.45 93.6Q188.4 86.1 188.4 73.9M205.85,174.5L209.65 200.45L189.2 184.7L163.2 200.15L175.1 174.55L160.6 159.3L184.4 159.3L199.45 133.85L203.55 159.55L227.2 159.55L205.85 174.5M145.9,68.5Q160.9 68.5 160.9 79.4Q160.9 93.85 142.15 93.85L119.95 93.85L125.25 68.5L145.9 68.5" />
</g>
</svg>
