<?xml version="1.0" encoding="utf-8"?>
<svg version="1.1" id="Layer_1"
xmlns="http://www.w3.org/2000/svg"
xmlns:xlink="http://www.w3.org/1999/xlink"
xmlns:author="http://www.sothink.com"
width="19px" height="19px"
xml:space="preserve">
<g id="2061" transform="matrix(1, 0, 0, 1, 9.35, 9.45)">
<path style="fill:#FFFFFF;fill-opacity:1" d="M5.7,-9.45L5.7 -5.95L1.45 -5.95L1.45 -9.45L5.7 -9.45M5.7,0.05L1.45 0.05L1.45 -2.5L5.7 -2.5L5.7 0.05M1.45,-5.95L1.45 -2.5L-2.8 -2.5L-2.8 -5.95L1.45 -5.95" />
<path style="fill:#FFFFFF;fill-opacity:1" d="M-2.8,-5.95L-7.1 -5.95L-7.1 -2.5L-2.8 -2.5L-2.8 1L-7.05 1L-7.05 8.15L-9.35 8.15L-9.35 -9.45L-2.8 -9.45L-2.8 -5.95" />
<path style="fill:#FFFFFF;fill-opacity:1" d="M7,2.7Q7 2.35 6.65 2.35L0.9 2.35Q0.55 2.35 0.55 2.7L0.55 2.75L0.2 4.45L7.3 4.45L7 2.75L7 2.7M8.05,2.2L8.5 5.15L8.55 5.15Q9.35 5.15 9.35 5.95L9.35 7Q9.35 7.65 8.65 7.75L8.65 8.65Q8.65 9.45 7.9 9.45L7.6 9.45Q6.85 9.45 6.85 8.65L6.85 7.8L0.7 7.8L0.7 8.65Q0.7 9.45 -0.1 9.45L-0.35 9.45Q-1.15 9.45 -1.15 8.65L-1.15 7.75Q-1.8 7.65 -1.8 7L-1.8 5.95Q-1.8 5.15 -1.05 5.15L-0.95 5.15L-0.55 2.2Q-0.55 1.4 0.25 1.4L7.3 1.4Q8.05 1.4 8.05 2.2" />
</g>
</svg>
