<?xml version="1.0" encoding="utf-8"?>
<svg version="1.1" id="Layer_1"
xmlns="http://www.w3.org/2000/svg"
xmlns:xlink="http://www.w3.org/1999/xlink"
xmlns:author="http://www.sothink.com"
width="19px" height="20px"
xml:space="preserve">
<g id="2062" transform="matrix(1, 0, 0, 1, 9.2, 9.6)">
<path style="fill:#FFFFFF;fill-opacity:1" d="M1.6,-6.15L1.6 -2.65L-2.65 -2.65L-2.65 -6.15L1.6 -6.15" />
<path style="fill:#FFFFFF;fill-opacity:1" d="M-2.65,-6.15L-6.9 -6.15L-6.9 -2.65L-2.65 -2.65L-2.65 0.8L-6.9 0.8L-6.9 8L-9.2 8L-9.2 -9.6L-2.65 -9.6L-2.65 -6.15" />
<path style="fill:#FFFFFF;fill-opacity:1" d="M5.85,-6.15L1.6 -6.15L1.6 -9.6L5.85 -9.6L5.85 -6.15" />
<path style="fill:#FFFFFF;fill-opacity:1" d="M5.85,-2.65L5.85 0.35L5.5 0.8L4.35 0.8L1.85 0.1L1.6 0.05L1.6 -2.65L5.85 -2.65" />
<path style="fill:#FFFFFF;fill-opacity:1" d="M5.75,2.55L7.25 0.65L7.6 0.35L8.4 0.1L8.8 0.25Q9.35 0.7 8.75 1.85L7.2 3.7L9.25 7.6L8.25 8.8L5.6 5.5L3.6 7.75L4.15 8.7L3.45 9.6L2.2 8.25L0.75 7.4L1.45 6.5L2.55 6.85L4.35 4.45L0.5 2.55L1.5 1.3L5.75 2.55" />
</g>
</svg>
