<?xml version="1.0" encoding="utf-8"?>
<svg version="1.1" id="Layer_1"
xmlns="http://www.w3.org/2000/svg"
xmlns:xlink="http://www.w3.org/1999/xlink"
xmlns:author="http://www.sothink.com"
width="14px" height="17px"
xml:space="preserve">
<g id="2065" transform="matrix(1, 0, 0, 1, 6.9, 8.05)">
<path style="fill:#FFFFFF;fill-opacity:1" d="M6.9,-1.7L6.9 1.5L3 1.5L3 -1.7L6.9 -1.7M-0.9,-8.05L-0.9 -4.85L-4.8 -4.85L-4.8 -1.7L-0.9 -1.7L-0.9 -4.85L3 -4.85L3 -1.7L-0.9 -1.7L-0.9 1.5M6.9,-4.85L3 -4.85L3 -8.05L6.9 -8.05L6.9 -4.85M-0.9,1.5L-4.8 1.5L-4.8 8.1L-6.9 8.1L-6.9 -8.05L-0.9 -8.05" />
</g>
</svg>
