<?xml version="1.0" encoding="utf-8"?>
<svg version="1.1" id="Layer_1"
xmlns="http://www.w3.org/2000/svg"
xmlns:xlink="http://www.w3.org/1999/xlink"
xmlns:author="http://www.sothink.com"
width="14px" height="17px"
xml:space="preserve">
<g id="2066" transform="matrix(1, 0, 0, 1, 6.4, 7.55)">
<path style="fill:#FFFFFF;fill-opacity:1" d="M0.05,-3.35L1.1 -3.35L0.75 -2.35L-0.2 -2.35L0.05 -3.35" />
<path style="fill:#FFFFFF;fill-opacity:1" d="M6.3,-5.55L5.9 -5.55L5.9 -6L5.2 -6L5.2 -5.55L-3.1 -5.55L-3.1 -4.2L-3.45 -4.2L-3.45 -3.35L-3.05 -3.35L-4.1 0.55L-1 0.55L-0.4 -1.6L1.35 -1.6L1.45 -1.85L1.9 -3.35L5.2 -3.35L5.2 -3.95L6.3 -3.95L6.3 -5.55M7.4,2L-4.3 2L-4.3 8.6L-6.4 8.6L-6.4 -7.55L7.4 -7.55L7.4 2" />
</g>
</svg>
