<?xml version="1.0" encoding="utf-8"?>
<svg version="1.1" id="Layer_1"
xmlns="http://www.w3.org/2000/svg"
xmlns:xlink="http://www.w3.org/1999/xlink"
xmlns:author="http://www.sothink.com"
width="53px" height="55px"
xml:space="preserve">
<g id="2333" transform="matrix(1, 0, 0, 1, -23.45, 26.55)">
<path style="fill:#000000;fill-opacity:1" d="M28.3,-1.75L28.7 -2Q28.3 -2.8 28 -4.1Q27.2 -6.8 27.2 -9.55Q27.2 -17.4 33.65 -23.25Q37 -26.35 41.9 -26.5L47.7 -26L49.9 -25.5Q53.05 -24.65 56.2 -19.85Q58.75 -15.95 59.4 -13.25Q59.95 -10.85 59.6 -5.25L60.2 -5.25L60.95 -5.25Q61.55 -5 61.55 -3L61.35 -0.25L61.1 2.7Q61.1 4.25 59.3 5.8L59.15 7.7Q59.15 8.75 58.55 11.25L60.05 11.85Q60.65 12 61.3 13.65L61.65 14.6L65.1 18L69.25 19.05L73.15 20.1L75.5 20.8L71.1 22.85Q58.5 28.25 44.7 28.25Q33.7 28.25 23.45 24.8Q29.6 21.8 30.3 21.25L31.35 19.75L31.4 19.6L32.5 16.9Q32.95 15.65 33.95 14.9L34.75 14.35L34.3 14L33.45 11.15L32.9 9.2L32 8.3Q30.75 6.65 30.6 5.7L29.65 2.85L28.35 -0.35Q28 -1.35 28.3 -1.75" />
</g>
</svg>
