<?xml version="1.0" encoding="utf-8"?>
<svg version="1.1" id="Layer_1"
xmlns="http://www.w3.org/2000/svg"
xmlns:xlink="http://www.w3.org/1999/xlink"
xmlns:author="http://www.sothink.com"
width="29px" height="29px"
xml:space="preserve">
<g id="1149" transform="matrix(1, 0, 0, 1, 0.5, 0.2)">
<path style="fill:#000000;fill-opacity:1" d="M13.25,-0.2L16.9 0L17.05 0.05L20.5 1.3L20.6 1.35L23.65 3.4L23.75 3.5L26.15 6.25L26.2 6.35L27.75 9.65L27.8 9.75L28.5 13.35L28.5 13.5L28.25 17.15L28.25 17.25L27.05 20.75L27 20.9L24.95 23.9L24.85 24L22.05 26.4L21.95 26.45L18.7 28.05L18.55 28.1L14.95 28.8L14.85 28.8L11.2 28.55L11.05 28.55L7.55 27.35L7.45 27.3L4.45 25.25L4.35 25.15L1.95 22.35L1.85 22.25L0.25 18.95L0.2 18.8L-0.5 15.2L-0.5 15.05L-0.25 11.4L-0.2 11.3L1.05 7.85L1.1 7.75L3.1 4.7L3.2 4.6L6 2.2L6.1 2.1L9.4 0.5L9.55 0.45L13.15 -0.2L13.25 -0.2" />
<path style="fill:#B29200;fill-opacity:1" d="M25.35,6.8L26.8 10L27.5 13.55L27.25 17L26.1 20.35L24.1 23.3L24.1 23.35L21.5 25.55L21.45 25.6L18.3 27.1L14.8 27.8L11.3 27.55L7.95 26.4L5 24.4L2.75 21.8L2.75 21.75L1.2 18.6L0.5 15.05L0.75 11.6L1.95 8.25L3.9 5.25L3.95 5.25L6.55 3L9.75 1.45L13.25 0.8L16.75 1L20.1 2.2L23.05 4.2L23.1 4.25L25.3 6.8L25.35 6.8" />
</g>
</svg>
