<?xml version="1.0" encoding="utf-8"?>
<svg version="1.1" id="Layer_1"
xmlns="http://www.w3.org/2000/svg"
xmlns:xlink="http://www.w3.org/1999/xlink"
xmlns:author="http://www.sothink.com"
width="35px" height="25px"
xml:space="preserve">
<g id="1146" transform="matrix(1, 0, 0, 1, -14.5, -19.95)">
<path style="fill:#000000;fill-opacity:1" d="M49.4,24.35L43.3 24.35L43.3 44.05L38.95 44.05L38.95 24.35L32.85 24.35L32.85 19.95L49.4 19.95L49.4 24.35M30.95,24L31.25 26.6Q31.25 28.75 30.6 30.3Q29.8 31.75 28.1 32.55L28.1 32.7L29.35 33.6Q30.05 34.05 30.35 34.8L30.8 36.5L31.05 38.3L31.15 39.65L31.15 41.25Q31.15 42.05 31.4 42.8L31.85 44.05L27.45 44.05Q27.2 43.5 27.1 42.8L27 41.35L26.9 39.75L26.75 38.3Q26.55 36.4 25.75 35.5Q25.1 34.6 23.4 34.6L18.9 34.6L18.9 44.05L14.5 44.05L14.5 19.95L25.3 19.95Q26.75 19.95 27.8 20.5Q28.9 20.95 29.7 21.85Q30.5 22.75 30.95 24M26.1,24.8Q25.3 24 23.75 24L18.9 24L18.9 30.85L23.75 30.85Q25.3 30.85 26.1 29.95Q26.9 29.2 26.9 27.4Q26.9 25.7 26.1 24.8" />
</g>
</svg>
