<?xml version="1.0" encoding="utf-8"?>
<svg version="1.1" id="Layer_1"
xmlns="http://www.w3.org/2000/svg"
xmlns:xlink="http://www.w3.org/1999/xlink"
xmlns:author="http://www.sothink.com"
width="29px" height="29px"
xml:space="preserve">
<g id="1151" transform="matrix(1, 0, 0, 1, 0.5, -0.4)">
<path style="fill:#000000;fill-opacity:1" d="M27.75,10.25L27.8 10.35L28.5 13.95L28.5 14.1L28.25 17.75L28.25 17.85L27.05 21.35L27 21.5L24.95 24.5L24.85 24.6L22.05 27L21.95 27.05L18.7 28.65L18.55 28.7L14.95 29.4L14.85 29.4L11.2 29.15L11.05 29.15L7.55 27.95L7.45 27.9L4.45 25.85L4.35 25.75L1.95 22.95L1.85 22.85L0.25 19.55L0.2 19.4L-0.5 15.8L-0.5 15.65L-0.25 12L-0.2 11.9L1.05 8.45L1.1 8.35L3.1 5.3L3.2 5.2L6 2.8L6.1 2.7L9.4 1.1L9.55 1.05L13.15 0.4L13.25 0.4L16.9 0.6L17.05 0.65L20.5 1.9L20.6 1.95L23.65 4L23.75 4.1L26.15 6.85L26.2 6.95L27.75 10.25" />
<path style="fill:#A50400;fill-opacity:1" d="M23.1,4.85L25.3 7.4L25.35 7.4L26.8 10.6L27.5 14.15L27.25 17.6L26.1 20.95L24.1 23.9L24.1 23.95L21.5 26.15L21.45 26.2L18.3 27.7L14.8 28.4L11.3 28.15L7.95 27L5 25L2.75 22.4L2.75 22.35L1.2 19.2L0.5 15.65L0.75 12.2L1.95 8.85L3.9 5.85L3.95 5.85L6.55 3.6L9.75 2.05L13.25 1.4L16.75 1.6L20.1 2.8L23.05 4.8L23.1 4.85" />
</g>
</svg>
