<?xml version="1.0" encoding="utf-8"?>
<svg version="1.1" id="Layer_1"
xmlns="http://www.w3.org/2000/svg"
xmlns:xlink="http://www.w3.org/1999/xlink"
xmlns:author="http://www.sothink.com"
width="22px" height="29px"
xml:space="preserve">
<g id="1145" transform="matrix(1, 0, 0, 1, 0.5, 0.5)">
<path style="fill:#000000;fill-opacity:1" d="M2.85,-0.5L17.4 -0.5L18.4 -0.4L18.65 -0.3L19.65 0.35L19.75 0.45L20.4 1.2L20.5 1.35L20.75 2.25L20.75 2.4L20.75 25L20.75 25.1L20.5 26L20.4 26.2L19.75 26.95L19.65 27.05L18.65 27.7L18.4 27.8L17.4 27.9L2.85 27.9L1.85 27.8L1.65 27.75L0.65 27.1L0.55 27L-0.1 26.25L-0.25 26L-0.5 25.1L-0.5 25L-0.5 2.4L-0.45 2.25L-0.2 1.35L-0.1 1.15L0.55 0.4L0.65 0.35L1.65 -0.3L1.85 -0.4L2.85 -0.5" />
<path style="fill:#FFFFFF;fill-opacity:1" d="M18.25,0.6L19 1.1L19.55 1.75L19.75 2.45L19.75 24.9L19.55 25.7L19 26.3L18.25 26.8L17.35 26.9L2.95 26.9L2.05 26.8L1.25 26.3L0.75 25.7L0.5 24.9L0.5 2.45L0.7 1.75L1.25 1.15L2.05 0.6L2.9 0.5L17.35 0.5L18.25 0.6" />
</g>
</svg>
