<?xml version="1.0" encoding="utf-8"?>
<svg version="1.1" id="Layer_1"
xmlns="http://www.w3.org/2000/svg"
xmlns:xlink="http://www.w3.org/1999/xlink"
xmlns:author="http://www.sothink.com"
width="29px" height="29px"
xml:space="preserve">
<g id="1152" transform="matrix(1, 0, 0, 1, 0.5, -1.1)">
<path style="fill:#000000;fill-opacity:1" d="M27.75,10.95L27.8 11.05L28.5 14.65L28.5 14.8L28.25 18.45L28.25 18.55L27.05 22.05L27 22.2L24.95 25.2L24.85 25.3L22.05 27.7L21.95 27.75L18.7 29.35L18.55 29.4L14.95 30.1L14.85 30.1L11.2 29.85L11.05 29.85L7.55 28.65L7.45 28.6L4.45 26.55L4.35 26.45L1.95 23.65L1.85 23.55L0.25 20.25L0.2 20.1L-0.5 16.5L-0.5 16.35L-0.25 12.7L-0.2 12.6L1.05 9.15L1.1 9.05L3.1 6L3.2 5.9L6 3.5L6.1 3.4L9.4 1.8L9.55 1.75L13.15 1.1L13.25 1.1L16.9 1.3L17.05 1.35L20.5 2.6L20.6 2.65L23.65 4.7L23.75 4.8L26.15 7.55L26.2 7.65L27.75 10.95" />
<path style="fill:#4C9604;fill-opacity:1" d="M26.8,11.3L27.5 14.85L27.25 18.3L26.1 21.65L24.1 24.6L24.1 24.65L21.5 26.85L21.45 26.9L18.3 28.4L14.8 29.1L11.3 28.85L7.95 27.7L5 25.7L2.75 23.1L2.75 23.05L1.2 19.9L0.5 16.35L0.75 12.9L1.95 9.55L3.9 6.55L3.95 6.55L6.55 4.3L9.75 2.75L13.25 2.1L16.75 2.3L20.1 3.5L23.05 5.5L23.1 5.55L25.3 8.1L25.35 8.1L26.8 11.3" />
</g>
</svg>
