<?xml version="1.0" encoding="utf-8"?>
<svg version="1.1" id="Layer_1"
xmlns="http://www.w3.org/2000/svg"
xmlns:xlink="http://www.w3.org/1999/xlink"
xmlns:author="http://www.sothink.com"
width="29px" height="29px"
xml:space="preserve">
<g id="1150" transform="matrix(1, 0, 0, 1, 0.5, 0)">
<path style="fill:#000000;fill-opacity:1" d="M20.6,1.55L23.65 3.6L23.75 3.7L26.15 6.45L26.2 6.55L27.75 9.85L27.8 9.95L28.5 13.55L28.5 13.7L28.25 17.35L28.25 17.45L27.05 20.95L27 21.1L24.95 24.1L24.85 24.2L22.05 26.6L21.95 26.65L18.7 28.25L18.55 28.3L14.95 29L14.85 29L11.2 28.75L11.05 28.75L7.55 27.55L7.45 27.5L4.45 25.45L4.35 25.35L1.95 22.55L1.85 22.45L0.25 19.15L0.2 19L-0.5 15.4L-0.5 15.25L-0.25 11.6L-0.2 11.5L1.05 8.05L1.1 7.95L3.1 4.9L3.2 4.8L6 2.4L6.1 2.3L9.4 0.7L9.55 0.65L13.15 0L13.25 0L16.9 0.2L17.05 0.25L20.5 1.5L20.6 1.55" />
<path style="fill:#1747A8;fill-opacity:1" d="M25.35,7L26.8 10.2L27.5 13.75L27.25 17.2L26.1 20.55L24.1 23.5L24.1 23.55L21.5 25.75L21.45 25.8L18.3 27.3L14.8 28L11.3 27.75L7.95 26.6L5 24.6L2.75 22L2.75 21.95L1.2 18.8L0.5 15.25L0.75 11.8L1.95 8.45L3.9 5.45L3.95 5.45L6.55 3.2L9.75 1.65L13.25 1L16.75 1.2L20.1 2.4L23.05 4.4L23.1 4.45L25.3 7L25.35 7" />
</g>
</svg>
