<?xml version="1.0" encoding="utf-8"?>
<svg version="1.1" id="Layer_1"
xmlns="http://www.w3.org/2000/svg"
xmlns:xlink="http://www.w3.org/1999/xlink"
xmlns:author="http://www.sothink.com"
width="31px" height="57px"
xml:space="preserve">
<g id="1159" transform="matrix(1, 0, 0, 1, -3.95, -3.95)">
<path style="fill:#000000;fill-opacity:1" d="M3.95,31.9L4.75 30.45L6.3 29.8L7.85 30.55L8.4 32.1L7.6 33.65L6.05 34.2L4.5 33.55L3.95 31.9" />
<path style="fill:#000000;fill-opacity:1" d="M32.1,3.95L33.55 4.75L34.2 6.3L33.45 7.85L31.9 8.4L30.35 7.6L29.8 6.05L30.45 4.5L32.1 3.95" />
<path style="fill:#000000;fill-opacity:1" d="M32.1,55.6L33.65 56.4L34.2 57.95L33.55 59.5L31.9 60.05L30.45 59.25L29.8 57.7L30.55 56.15L32.1 55.6" />
</g>
</svg>
