<?xml version="1.0" encoding="utf-8"?>
<svg version="1.1" id="Layer_1"
xmlns="http://www.w3.org/2000/svg"
xmlns:xlink="http://www.w3.org/1999/xlink"
xmlns:author="http://www.sothink.com"
width="30px" height="21px"
xml:space="preserve">
<g id="1147" transform="matrix(1, 0, 0, 1, 0.5, 0.5)">
<path style="fill:#000000;fill-opacity:1" d="M16.95,-0.45L19 -0.15L19.15 -0.1L20.55 0.6L20.6 0.65L23.15 2.6L23.25 2.7L25.9 5.75L25.95 5.8L28.25 9.35L28.3 9.45L28.95 11.4L28.95 11.55L29 13.9L28.8 15.9L28.75 16.1L28 17.5L27.9 17.6L26.75 18.85L26.6 18.95L25.1 19.65L24.9 19.7L3 19.7L2.85 19.7L1.75 19.35L1.55 19.25L0.35 18.2L0.25 18.05L-0.45 16.75L-0.5 16.5L-0.5 2.7L-0.45 2.5L0.25 1.2L0.35 1.05L1.55 0L1.75 -0.1L2.85 -0.45L3 -0.5L16.85 -0.45L16.95 -0.45" />
<path style="fill:#FFFFFF;fill-opacity:1" d="M27.35,9.85L27.95 11.65L28 13.85L27.8 15.75L27.15 16.95L26.1 18.1L24.8 18.7L3.1 18.7L2.2 18.4L1.1 17.45L0.5 16.4L0.5 2.85L1.1 1.75L2.2 0.8L3.1 0.5L16.8 0.55L18.75 0.85L20.1 1.5L22.55 3.4L25.1 6.35L27.35 9.85" />
</g>
</svg>
