<?xml version="1.0" encoding="utf-8"?>
<svg version="1.1" id="Layer_1"
xmlns="http://www.w3.org/2000/svg"
xmlns:xlink="http://www.w3.org/1999/xlink"
xmlns:author="http://www.sothink.com"
width="191px" height="51px"
xml:space="preserve">
<g id="62" transform="matrix(1, 0, 0, 1, 0, 0)">
<path style="fill:#000000;fill-opacity:1" d="M2.9,0L5.95 0L182.05 0L188.05 0L189.15 0.35L190 0.95L190.6 1.8L190.9 2.85L191 3.9L191 6.95L191 37.05L190.95 37.05L190.95 44.6L190.95 48.15L190.65 49.2L190 50.05L189.2 50.65L188.1 51L182.05 51L5.95 51L2.95 51L1.85 50.65L1 50.05L0.4 49.2L0.1 48.15L0 47.1L0 44.6L0 13.95L0.05 13.95L0.05 6.95L0.05 2.85L0.35 1.8L1 0.95L1.8 0.35L2.9 0M3,3L3 6.95L3 44.6L3 48L5.95 48L182.05 48L188 48L188 44.6L188 6.95L188 3L182.05 3L5.95 3L3 3" />
</g>
</svg>
