<?xml version="1.0" encoding="utf-8"?>
<svg version="1.1" id="Layer_1"
xmlns="http://www.w3.org/2000/svg"
xmlns:xlink="http://www.w3.org/1999/xlink"
xmlns:author="http://www.sothink.com"
width="12px" height="11px"
xml:space="preserve">
<g id="79" transform="matrix(1, 0, 0, 1, 11.5, 0)">
<path style="fill:#FFFFFF;fill-opacity:1" d="M-3.55,4.45Q-4.45 4.45 -5.1 3.8Q-5.75 3.15 -5.75 2.2Q-5.75 1.3 -5.1 0.65Q-4.45 0 -3.55 0Q-2.6 0 -2 0.65Q-1.35 1.3 -1.35 2.2Q-1.35 3.15 -2 3.8Q-2.6 4.45 -3.55 4.45M-6.65,3.7L-6.65 5.2L-8.3 5.2L-8.3 6.9L-9.85 6.9L-9.85 5.2L-11.5 5.2L-11.5 3.7L-9.85 3.7L-9.85 2L-8.3 2L-8.3 3.7L-6.65 3.7M-6.25,6.3Q-5.2 5.05 -3.55 5.05Q-1.85 5.05 -0.85 6.3Q-0.05 7.3 -0.05 8.65L-0.05 10.95L-7 10.95L-7 8.65Q-7 7.3 -6.25 6.3" />
</g>
</svg>
