<?xml version="1.0" encoding="utf-8"?>
<svg version="1.1" id="Layer_1"
xmlns="http://www.w3.org/2000/svg"
xmlns:xlink="http://www.w3.org/1999/xlink"
xmlns:author="http://www.sothink.com"
width="14px" height="17px"
xml:space="preserve">
<g id="2244" transform="matrix(1, 0, 0, 1, 0, 0)">
<path style="fill:#FFFFFF;fill-opacity:1" d="M13.8,3.2L9.9 3.2L9.9 0L13.8 0L13.8 3.2M13.8,9.55L9.9 9.55L9.9 6.35L13.8 6.35L13.8 9.55M9.9,3.2L9.9 6.35L6 6.35L6 3.2L9.9 3.2M2.1,3.2L2.1 6.35L6 6.35L6 9.55L2.1 9.55L2.1 16.15L0 16.15L0 0L6 0L6 3.2L2.1 3.2" />
</g>
</svg>
