<?xml version="1.0" encoding="utf-8"?>
<svg version="1.1" id="Layer_1"
xmlns="http://www.w3.org/2000/svg"
xmlns:xlink="http://www.w3.org/1999/xlink"
xmlns:author="http://www.sothink.com"
width="12px" height="20px"
xml:space="preserve">
<g id="2238" transform="matrix(1, 0, 0, 1, 0, 0)">
<path style="fill:#FFFFFF;fill-opacity:1" d="M7,0L12 0L8.4 9.9Q7.25 9.2 6 9.2Q4.8 9.2 3.55 9.9L0 0L4.6 0L6 8.8L7 0M6.05,10.05Q7.3 10.05 8.4 10.75Q10.7 12.05 10.7 14.7Q10.7 16.7 9.3 18.05Q8 19.45 6.05 19.45Q4.05 19.45 2.75 18.05Q1.35 16.7 1.35 14.7Q1.35 12.05 3.6 10.75Q4.8 10.05 6.05 10.05M6.75,13.85L6.05 11.7L5.35 13.85L3.1 13.95L4.85 15.4L4.2 17.5L6.05 16.25L7.85 17.5L7.2 15.4L8.95 13.95L6.75 13.85" />
</g>
</svg>
