<?xml version="1.0" encoding="utf-8"?>
<svg version="1.1" id="Layer_1"
xmlns="http://www.w3.org/2000/svg"
xmlns:xlink="http://www.w3.org/1999/xlink"
xmlns:author="http://www.sothink.com"
width="23px" height="21px"
xml:space="preserve">
<g id="2237" transform="matrix(1, 0, 0, 1, 0, 0)">
<path style="fill:#FFFFFF;fill-opacity:1" d="M20.7,17.65L19.7 18.45L19.15 18.4L18.85 18.15L18.75 18.35L18.5 19.55L17.95 20.15Q17.15 20.75 16 20.75L14.95 20.75Q13.8 20.75 13.05 20.15L12.5 19.55L12.25 18.35L12.15 18.15L11.85 18.4L11.3 18.45L10.4 17.75Q9.8 17.1 9.35 16.1L9.05 15.25L8.95 12.25L9.05 10.4L9.05 10.3Q9.65 7.3 12.65 6.2Q14.05 5.65 15.45 5.7L15.55 5.7L18.35 6.2Q21.3 7.3 21.9 10.3L21.95 10.4L22.05 12.25L21.9 15.25Q21.65 16.6 20.7 17.65M6.55,5.05L6 5.35Q5.5 5.7 5.5 6.05L5.5 6.3L5.7 6.7L6.1 7.3L6.7 7.9Q7.6 8.2 7.9 7.9L8.25 7.45Q8.6 6.9 8.35 6.05Q7.4 5 6.55 5.05M9.8,4.85L9.7 7.1Q9.5 8.15 8.8 8.9L8.05 9.5L7.65 9.45L7.4 9.25L7.3 9.4L7.15 10.35L6.7 10.75Q6.15 11.2 5.3 11.2L4.5 11.2L3.05 10.75L2.65 10.35L2.45 9.4L2.4 9.25L2.2 9.45L1.75 9.5L1.05 9L0.3 7.75L0.1 7.1L0 4.85L0.1 3.5L0.1 3.45Q0.55 1.15 2.75 0.35L4.85 0L4.95 0L7.05 0.35Q9.25 1.15 9.7 3.45L9.75 3.5L9.8 4.85M1.95,5.55L1.35 6.05Q1.1 6.9 1.45 7.5L1.85 7.95Q2.1 8.25 3.05 7.95L4.05 6.7L4.25 6.3L4.25 6.05L3.75 5.3L3.2 5.05Q2.65 5 1.95 5.55M4.2,8.75Q4.25 9.35 4.65 9.4L5.2 9.4Q5.55 9.35 5.65 8.75L5.65 7.9Q5.65 7.6 5.3 7.45L4.95 7.4L4.6 7.45L4.2 7.9L4.2 8.75M16.3,13.85L16.3 14.15L16.55 14.75L17.1 15.5L17.95 16.35Q19.1 16.75 19.5 16.35L20 15.75Q20.4 14.95 20.1 13.85Q18.8 12.4 17.65 12.5L17 12.9Q16.25 13.35 16.3 13.85M16.55,17.45L16.55 16.35Q16.55 15.9 16.05 15.75L15.55 15.65L15.1 15.75Q14.6 15.95 14.6 16.35L14.6 17.45Q14.65 18.25 15.15 18.35L15.9 18.35Q16.4 18.25 16.55 17.45M14.6,14.15L14.6 13.85Q14.65 13.35 13.95 12.85L13.2 12.45Q12.5 12.4 11.55 13.15L10.75 13.85Q10.45 14.95 10.9 15.8L11.4 16.35Q11.8 16.8 13 16.35L14.35 14.75L14.6 14.15" />
</g>
</svg>
