<?xml version="1.0" encoding="utf-8"?>
<svg version="1.1" id="Layer_1"
xmlns="http://www.w3.org/2000/svg"
xmlns:xlink="http://www.w3.org/1999/xlink"
xmlns:author="http://www.sothink.com"
width="21px" height="14px"
xml:space="preserve">
<g id="2240" transform="matrix(1, 0, 0, 1, 0, 0)">
<path style="fill:#FFFFFF;fill-opacity:1" d="M20.5,1.75L20.5 3.95L20.3 4.45Q20.1 4.65 19.8 4.65L15.35 4.65L15.35 5.35Q15.25 5.9 14.65 5.9L12.1 5.9L11.3 7.5L10.8 8.2Q10.1 8.85 8.8 8.85L6.65 8.85L5.95 11.55L5.9 13.55L5.5 14L0.1 12.55Q-0.25 12.4 0.75 8.85Q1.3 6.1 2.15 5.1Q3 4.1 2.95 2.45L3 2.1Q3.15 1.75 3.65 1.75Q3.95 1.85 3.95 1.6L3.95 0.75L4.15 0.2Q4.4 -0.1 4.65 0.05Q5.4 0.65 6.7 0.95L6.75 1L17.75 1L18.6 0.25Q18.8 0.05 19.1 0.05L19.55 0.05Q20.2 0.05 20.3 0.7L20.35 1.1L20.5 1.75M10.65,6.6Q10.65 6 10.1 5.6Q9.6 5.2 8.8 5.2Q8 5.2 7.5 5.6Q6.95 6 6.95 6.6Q6.95 7.15 7.5 7.55Q8 7.95 8.8 7.95L9.55 7.85Q10.35 7.6 10.6 6.95L10.65 6.6" />
</g>
</svg>
