<?xml version="1.0" encoding="utf-8"?>
<svg version="1.1" id="Layer_1"
xmlns="http://www.w3.org/2000/svg"
xmlns:xlink="http://www.w3.org/1999/xlink"
xmlns:author="http://www.sothink.com"
width="217px" height="66px"
xml:space="preserve">
<g id="2099" transform="matrix(1, 0, 0, 1, 99.95, 29.25)">
<path style="fill:#000000;fill-opacity:1" d="M109.05,-0.55L43.55 -0.55L43.55 12.1L37.25 12.1L37.25 17.2L-7.3 17.2L-7.3 21.25L-7.75 21.25L-7.75 36.75L-37.65 36.75L-38.65 -6.15L-92.1 -6.45L-92.1 -5.25L-92.7 -5.25L-92.7 10.5L-99.95 10.5L-99.95 -22.2L-83 -22.2L-83 -20L-49.5 -20L-49.5 -22.2L-46.35 -22.2L-46.35 -22.5L-42 -22.5L-42 -29.25L-0.2 -29.25L-0.2 -27.75L104.7 -27.75L104.7 -17.9L116.15 -17.9L116.15 -9.6L109.05 -9.6L109.05 -0.55" />
</g>
</svg>
