<?xml version="1.0" encoding="utf-8"?>
<svg version="1.1" id="Layer_1"
xmlns="http://www.w3.org/2000/svg"
xmlns:xlink="http://www.w3.org/1999/xlink"
xmlns:author="http://www.sothink.com"
width="209px" height="64px"
xml:space="preserve">
<g id="2180" transform="matrix(1, 0, 0, 1, 109.8, 16.95)">
<path style="fill:#000000;fill-opacity:1" d="M96,-1.9L96 5.35L87.95 5.35L87.95 16.1L5.95 16.1L5.95 27.05L-14.05 27.05L-14.05 46.55L-35.3 46.55L-35.3 46.1L-44.55 46.1L-44.55 14.55L-60.3 14.55L-60.3 -16.95L-40.05 -16.95L-40.05 -12.6L-14.9 -12.6L-14.9 -16.95L99 -16.95L99 -1.9L96 -1.9" />
<path style="fill:#000000;fill-opacity:1" d="M-60.3,-16.7L-60.3 15.3L-109.8 15.3L-109.8 -16.7L-60.3 -16.7" />
</g>
</svg>
