<?xml version="1.0" encoding="utf-8"?>
<svg version="1.1" id="Layer_1"
xmlns="http://www.w3.org/2000/svg"
xmlns:xlink="http://www.w3.org/1999/xlink"
xmlns:author="http://www.sothink.com"
width="255px" height="65px"
xml:space="preserve">
<g id="2135" transform="matrix(1, 0, 0, 1, 127.5, 31.95)">
<path style="fill:#000000;fill-opacity:1" d="M94.75,-31.8L94.75 -19.35L127.25 -19.35L127.25 -11.95L104.25 -11.95L104.25 -4.5L87 -4.5L87 -3.05L79.4 -3.05L79.4 6.55L51.75 6.55L51.75 15L-31 15L-31 32.55L-55.3 32.55L-55.3 24.4L-53.25 24.4L-53.25 20.75L-53 20.75L-53 7.65L-95.1 7.65L-95.1 11.5L-104 11.5L-104 18.35L-108.3 18.35L-108.3 18.7L-109.3 18.7L-109.3 20.5L-127.3 20.5L-127.5 -25.5L-53.3 -25.45L-53.3 -29.5L81 -29.5L81 -31.95L94.75 -31.8" />
</g>
</svg>
