<?xml version="1.0" encoding="utf-8"?>
<svg version="1.1" id="Layer_1"
xmlns="http://www.w3.org/2000/svg"
xmlns:xlink="http://www.w3.org/1999/xlink"
xmlns:author="http://www.sothink.com"
width="198px" height="63px"
xml:space="preserve">
<g id="2191" transform="matrix(1, 0, 0, 1, 98, 31)">
<path style="fill:#000000;fill-opacity:1" d="M71.85,-20L99.85 -20L99.85 -2.75L17.7 -2.75L17.7 1.5L12.85 1.5L12.85 -31L71.85 -31L71.85 -20" />
<path style="fill:#000000;fill-opacity:1" d="M12.85,-4.8L-98 -4.8L-98 -23.25L-41.65 -23.25L-41.65 -27.25L12.85 -27.25L12.85 -4.8" />
<path style="fill:#000000;fill-opacity:1" d="M-42.8,-5L-42.8 17.65L-97.8 17.65L-97.8 -5L-42.8 -5" />
<path style="fill:#000000;fill-opacity:1" d="M-34,28.05L-34 31.55L-48 31.55L-48 -4.8L12.85 -4.8L12.85 14.55L-27 14.55L-27 28.05L-34 28.05" />
</g>
</svg>
