<?xml version="1.0" encoding="utf-8"?>
<svg version="1.1" id="Layer_1"
xmlns="http://www.w3.org/2000/svg"
xmlns:xlink="http://www.w3.org/1999/xlink"
xmlns:author="http://www.sothink.com"
width="209px" height="57px"
xml:space="preserve">
<g id="2144" transform="matrix(1, 0, 0, 1, 103.25, 28.5)">
<path style="fill:#000000;fill-opacity:1" d="M67.35,-28L105.35 -28L105.35 -7.5L89.85 -7.5L89.85 5L3.35 5L3.35 5.2L-1.8 5.2L-1.8 16L-4.7 16L-4.7 12.45L-20.25 12.45L-20.25 16L-23.15 16L-23.15 28.5L-45.65 28.5L-45.65 8L-66.65 8L-66.65 10.5L-103.25 10.5L-103.25 9.35L-102.15 9.35L-102.15 -4.4L-103.25 -4.4L-103.25 -28.5L-15.15 -28.5L-15.15 -28L-14.65 -28L-14.65 -22L67.35 -22L67.35 -28" />
</g>
</svg>
