<?xml version="1.0" encoding="utf-8"?>
<svg version="1.1" id="Layer_1"
xmlns="http://www.w3.org/2000/svg"
xmlns:xlink="http://www.w3.org/1999/xlink"
xmlns:author="http://www.sothink.com"
width="234px" height="51px"
xml:space="preserve">
<g id="2186" transform="matrix(1, 0, 0, 1, 120, 25)">
<path style="fill:#000000;fill-opacity:1" d="M53.9,-19.4L56 -19.4L56 -25L92.4 -25L92.4 -6.6L67.6 -6.6L67.6 -1.4L-14.8 -1.4L-14.8 8.6L-26.95 11.4L-111.4 11.4L-111.4 11.8L-112.2 11.8L-112.2 12.6L-112.8 12.6L-112.8 16.2L-120 16.2L-120 -18.9L53.9 -18.9L53.9 -19.4" />
<path style="fill:#000000;fill-opacity:1" d="M-65.9,11.4L-50.7 11.4L-50.7 25.1L-67.3 25.1L-67.3 15.7L-65.9 15.7L-65.9 11.4" />
<path style="fill:#000000;fill-opacity:1" d="M92.35,-13.7L113.1 -13.7L113.1 -6.7L92.35 -6.7L92.35 -13.7" />
</g>
</svg>
