<?xml version="1.0" encoding="utf-8"?>
<svg version="1.1" id="Layer_1"
xmlns="http://www.w3.org/2000/svg"
xmlns:xlink="http://www.w3.org/1999/xlink"
xmlns:author="http://www.sothink.com"
width="206px" height="76px"
xml:space="preserve">
<g id="2181" transform="matrix(1, 0, 0, 1, 102.2, 34.25)">
<path style="fill:#000000;fill-opacity:1" d="M-52.8,-23L-52.8 26L-102.2 26L-102.2 -23L-52.8 -23" />
<path style="fill:#000000;fill-opacity:1" d="M-13.2,-23L-13.2 35.5L-35.65 35.5L-35.65 31.9L-45.2 31.9L-45.2 23L-53.2 23L-53.2 -23L-13.2 -23" />
<path style="fill:#000000;fill-opacity:1" d="M-1.3,-34.25L-1.3 37.5L-6.8 37.05L-6.8 36.4L-7.3 36.4L-7.3 36L-13.3 36L-13.3 -34.25L-1.3 -34.25" />
<path style="fill:#000000;fill-opacity:1" d="M77.95,-12.65L103 -12.65L103 -0.65L80.95 -0.65L80.95 11.85L38.45 11.85L38.45 19.5L7.95 19.5L7.95 41.65L-1.35 41.65L-1.35 -34.25L77.95 -34.25L77.95 -12.65" />
</g>
</svg>
