<?xml version="1.0" encoding="utf-8"?>
<svg version="1.1" id="Layer_1"
xmlns="http://www.w3.org/2000/svg"
xmlns:xlink="http://www.w3.org/1999/xlink"
xmlns:author="http://www.sothink.com"
width="258px" height="81px"
xml:space="preserve">
<g id="2157" transform="matrix(1, 0, 0, 1, 128, 39.3)">
<path style="fill:#000000;fill-opacity:1" d="M122.1,-0.15L122.1 5.1L117.75 5.1L117.75 5.5L67 5.5L67 9.5L55 9.5L55 41.5L-60.5 41.5L-60.5 -3L-76.5 7.4L-79 7.4L-79 9L-84.2 12.4L-86.6 12.4L-86.6 13.95L-89 15.5L-89 33.8L-128 33.8L-128 -17L-56.6 -17L-56.6 -22L-28.5 -22L-28.5 -39.3L129.05 -39.3L129.05 -0.15L122.1 -0.15" />
</g>
</svg>
