<?xml version="1.0" encoding="utf-8"?>
<svg version="1.1" id="Layer_1"
xmlns="http://www.w3.org/2000/svg"
xmlns:xlink="http://www.w3.org/1999/xlink"
xmlns:author="http://www.sothink.com"
width="20px" height="20px"
xml:space="preserve">
<g id="2194" transform="matrix(1, 0, 0, 1, 10, 10)">
<path style="fill:#000000;fill-opacity:1" d="M7.1,-7.1Q10 -4.15 10 0Q10 4.15 7.1 7.05Q4.15 10 0 10Q-4.1 10 -7.05 7.05Q-10 4.15 -10 0Q-10 -4.15 -7.05 -7.1Q-4.15 -10 0 -10Q4.15 -10 7.1 -7.1" />
<path style="fill:#FFFFFF;fill-opacity:1" d="M4.85,-1.85L4.85 4.95Q4.85 5.4 4.25 5.4L-4.25 5.4Q-4.8 5.4 -4.8 4.95L-4.8 -1.85Q-4.8 -2.3 -4.25 -2.3L-3.1 -2.3L-3.1 -3.65Q-3.1 -4.95 -2.2 -5.9Q-1.3 -6.8 0 -6.8Q1.25 -6.8 2.2 -5.9Q3.1 -5 3.15 -3.7L3.15 -2.3L4.25 -2.3Q4.85 -2.3 4.85 -1.85M1.9,-3.65Q1.9 -4.45 1.35 -5Q0.8 -5.55 0 -5.55Q-0.8 -5.55 -1.35 -5Q-1.9 -4.45 -1.9 -3.65L-1.9 -2.3L1.9 -2.3L1.9 -3.65" />
</g>
</svg>
