<?xml version="1.0" encoding="utf-8"?>
<svg version="1.1" id="Layer_1"
xmlns="http://www.w3.org/2000/svg"
xmlns:xlink="http://www.w3.org/1999/xlink"
xmlns:author="http://www.sothink.com"
width="73px" height="108px"
xml:space="preserve">
<g id="1992" transform="matrix(1, 0, 0, 1, 37.3, 51.45)">
<path style="fill:#DCDCDC;fill-opacity:1" d="M33.65,-8.05Q31.7 -2.7 26.4 2.05L21.6 6.3Q19.25 8.2 16.65 9.9L10.9 13.4L2.75 17.95Q-9.1 24.55 -15.1 30.25Q-21.1 36 -22.15 42.85L35.15 42.85L35.15 56.2L-37.3 56.2L-37.3 49.45Q-37.3 32.3 -27.15 22.15Q-24.4 19.45 -21.85 17.45L-16.8 13.8L-11.1 10.1L-4.05 6.1Q11.25 -2.45 16.45 -7.65Q21.45 -12.8 21.45 -20.55Q21.45 -24.25 20.25 -27.45Q19 -30.65 16.6 -33Q14.1 -35.45 10.25 -36.9Q6.25 -38.3 1.05 -38.3Q-9.75 -38.3 -15.1 -31.6Q-20.55 -24.95 -20.85 -13.7L-35.4 -13.7Q-35.25 -22.25 -32.85 -28.85Q-30.4 -35.45 -25.65 -40.7Q-16.05 -51.45 1.05 -51.45Q16.65 -51.45 26.25 -42.6Q35.7 -33.75 35.7 -20.55Q35.7 -13.4 33.65 -8.05" />
</g>
</svg>
