<?xml version="1.0" encoding="utf-8"?>
<svg version="1.1" id="Layer_1"
xmlns="http://www.w3.org/2000/svg"
xmlns:xlink="http://www.w3.org/1999/xlink"
xmlns:author="http://www.sothink.com"
width="76px" height="110px"
xml:space="preserve">
<g id="1993" transform="matrix(1, 0, 0, 1, 38.3, 51.45)">
<path style="fill:#DCDCDC;fill-opacity:1" d="M21.8,-1.1Q37.4 5.95 37.4 25.3Q37.4 39.4 26.85 49Q17.1 57.9 -0.65 57.9Q-18.6 57.9 -27.6 49.3Q-37.35 40 -38.3 24.7L-23.55 24.7Q-22.55 35.25 -16.95 40.15Q-11.4 45.15 -0.65 45.15Q10.05 45.15 16.65 39.4Q23.1 33.85 23.1 25.3Q23.1 16.15 17 11.5Q10.95 6.85 -1.8 6.85L-7.35 6.85L-7.35 -6.35Q7.2 -6.35 13.3 -10.45Q19.35 -14.65 19.35 -22.25Q19.35 -29.55 14.45 -33.95Q9.6 -38.3 0.15 -38.3Q-10.25 -38.3 -15.3 -32.5Q-20.4 -26.7 -20.4 -17.55L-35.15 -17.55Q-35.15 -32.85 -25.25 -42.15Q-15.15 -51.45 0.15 -51.45Q15.5 -51.45 24.65 -43.2Q33.65 -34.85 33.65 -22.25Q33.65 -7.55 21.8 -1.1" />
</g>
</svg>
