<?xml version="1.0" encoding="utf-8"?>
<svg version="1.1" id="Layer_1"
xmlns="http://www.w3.org/2000/svg"
xmlns:xlink="http://www.w3.org/1999/xlink"
xmlns:author="http://www.sothink.com"
width="73px" height="107px"
xml:space="preserve">
<g id="1995" transform="matrix(1, 0, 0, 1, 36.05, 49)">
<path style="fill:#DCDCDC;fill-opacity:1" d="M26.85,-3.8Q36.3 6.6 36.3 22.05Q36.3 38.25 25.5 48.6Q15.75 57.9 -0.15 57.9Q-16.8 57.9 -25.35 49.8Q-34.95 41.1 -36.05 27.9L-21.45 27.9Q-20.3 35.25 -14.95 40Q-9.6 44.85 -0.15 44.85Q4.75 44.85 8.95 43.15Q13.05 41.55 15.95 38.45Q18.9 35.4 20.5 31.15Q22.2 26.95 22.2 22Q22.2 16.95 20.7 12.75Q19.2 8.65 16.35 5.65Q13.45 2.65 9.6 1.05Q5.7 -0.65 1 -0.65Q-5.3 -0.65 -10.75 2.5Q-16.2 5.65 -19.95 11.35L-32.25 6.55L-25.2 -49L30.15 -49L30.15 -35.35L-12.75 -35.35L-16.35 -8.7Q-8.3 -14.1 2.25 -14.1Q17.55 -14.1 26.85 -3.8" />
</g>
</svg>
